<svg xmlns="http://www.w3.org/2000/svg">
<defs>
<font id="Hobeaux-Bold" horiz-adv-x="633" >
  <font-face 
    font-family="Hobeaux"
    font-weight="700"
    font-stretch="normal"
    units-per-em="1000"
    panose-1="4 2 8 5 4 1 2 2 1 0"
    ascent="818"
    descent="-182"
    x-height="630"
    cap-height="767"
    bbox="-22 -202 1185.6 1059"
    underline-thickness="50"
    underline-position="-100"
    unicode-range="U+0020-FB02"
  />
<missing-glyph horiz-adv-x="706" 
d="M13 529q5 17 19 40.5t34.5 48.5t44 49.5t47 45.5t44 35.5t34.5 18.5q14 5 38.5 7t53.5 2t60 -2t58.5 -6.5t49.5 -11t33 -15.5q14 -12 26.5 -29t24 -37.5t21.5 -43t19 -43.5q5 -11 11.5 -16t14.5 -10q28 -13 30 -45q1 -13 4 -35.5t6.5 -47.5t6.5 -49.5t3 -42.5
q0 -24 -12.5 -33t-24.5 -11q-20 -2 -28 -11.5t-6 -22.5q1 -9 3.5 -16.5t6 -15.5t6.5 -17t6 -23q3 -15 1 -30t0 -30q1 -4 4 -13.5t7 -20t7.5 -20.5t4.5 -16q4 -20 -3.5 -31t-20.5 -16q-6 -3 -30.5 -8t-57 -10t-66.5 -9t-59 -4q-34 0 -59.5 3.5t-45 14t-34.5 30t-28 52.5
q-6 14 -28 20q-18 3 -39 9.5t-41.5 14.5t-37 18.5t-25.5 22.5q-8 11 -18.5 37t-21 60t-20.5 73t-16.5 75.5t-8.5 67t2 47.5zM324 322q63 0 100 39t37 112q0 35 -24 60.5t-65 25.5q-37 0 -63 -12t-42.5 -30t-24.5 -39.5t-8 -40.5q0 -16 5 -36t15.5 -37.5t28 -29.5t41.5 -12z
M535 394q8 0 7.5 9t-3 19.5t-2.5 19.5t7 9q8 0 16.5 -16t18 -35.5t21 -35.5t25.5 -16q22 0 33 20t11 45q0 26 -6.5 52t-15.5 46t-19.5 32.5t-18.5 12.5q-7 0 -6 -9.5t4.5 -20.5t5.5 -20.5t-4 -9.5q-9 0 -17 12t-17.5 26.5t-22 26.5t-29.5 12q-20 0 -31 -18.5t-11 -49.5
q0 -19 5 -38.5t13 -35.5t17.5 -26.5t18.5 -10.5zM307 492q6 2 9 -3t6 -11.5t8.5 -11.5t16.5 -3t13 8t2 12.5t0.5 13t8.5 9.5q11 4 17 -14t11 -44t3 -37.5t-11 -13.5q-8 -2 -11.5 2t-6.5 9t-6.5 10t-12.5 4q-8 -1 -10.5 -7.5t-3.5 -13t-3 -12.5t-9 -8q-24 -6 -33 43
q-5 29 -5 47.5t17 20.5zM560 509q11 0 24 -12t21 -27t7.5 -27.5t-16.5 -12.5q-15 0 -27 12t-17.5 27t-4 27.5t12.5 12.5z" />
    <glyph glyph-name="arrowleft" unicode="&#x2d;&#x3c;" horiz-adv-x="668" 
d="M24 398q46 51 96 101t94.5 90t78.5 64.5t47 24.5q17 0 17 -21q0 -3 -1 -7.5t-3 -9.5q-23 -45 -40 -80t-17 -50q0 -11 21 -11q9 0 25 1t35.5 1.5t40 1.5t39.5 1q48 0 91 -1t72 -5q17 -2 24.5 -9.5t7.5 -29.5q0 -37 -6 -86t-19 -93q-4 -13 -13 -20t-26 -8q-25 -1 -63.5 -2
t-80.5 -1q-17 0 -36 0.5t-36.5 0.5t-32.5 0.5t-24 0.5q-20 0 -20 -13q0 -7 5 -20t12.5 -29t16.5 -33.5t18 -34.5q5 -17 5 -22q0 -8 -5 -15t-16 -7q-14 0 -45 19.5t-72.5 55.5t-91 85.5t-102.5 109.5q-9 10 -9 21q0 16 13 30z" />
    <glyph glyph-name="arrowup" unicode="&#x2d;^" horiz-adv-x="636" 
d="M281 707q16 14 30 14q7 0 14.5 -2.5t15.5 -10.5q75 -68 127 -121.5t85 -92t47.5 -62.5t14.5 -33q0 -19 -20 -19q-10 0 -21 7q-39 24 -66.5 36.5t-49.5 12.5q-10 0 -13 -5t-3 -15q0 -32 1.5 -72t1.5 -84q0 -39 -0.5 -74.5t-2.5 -58.5q-2 -17 -7 -23t-22 -8
q-11 -1 -29 -1.5t-38 -0.5q-32 0 -64.5 1.5t-58.5 6.5t-27 38q-2 24 -3 59t-1 75q0 38 1.5 76t1.5 68q0 10 -3 15t-13 5q-19 0 -51 -16.5t-63 -34.5q-13 -6 -24 -6q-8 0 -14.5 5t-6.5 13q0 11 15 35t47 61.5t81 90t118 121.5z" />
    <glyph glyph-name="arrowright" unicode="&#x2d;&#x3e;" horiz-adv-x="668" 
d="M17 303q0 37 6 86t19 93q4 13 13 20t26 8q25 1 63.5 2t80.5 1q17 0 36 -0.5t36.5 -0.5t32.5 -0.5t24 -0.5q20 0 20 13q0 7 -5 20t-12.5 29t-16.5 34t-18 34q-5 17 -5 22q0 8 5 15t16 7q14 0 45 -19.5t72.5 -55.5t91.5 -85.5t102 -109.5q9 -10 9 -21q0 -16 -13 -30
q-46 -51 -96 -101t-94.5 -90t-78.5 -64.5t-47 -24.5q-17 0 -17 21q0 3 1 7.5t3 9.5q23 45 40 80t17 50q0 11 -21 11q-9 0 -25 -1t-35.5 -1.5t-40 -1.5t-39.5 -1q-48 0 -91 1t-72 5q-17 2 -24.5 9.5t-7.5 29.5z" />
    <glyph glyph-name="arrowdown" unicode="&#x2d;&#x2e;" horiz-adv-x="636" 
d="M18 381q0 19 20 19q10 0 21 -7q39 -24 66.5 -36.5t49.5 -12.5q10 0 13 5t3 15q0 32 -1.5 72t-1.5 84q0 39 0.5 74.5t2.5 58.5q2 17 7 23t22 8q11 1 29 1.5t38 0.5q32 0 64.5 -1.5t58.5 -6.5t27 -38q2 -24 3 -59t1 -75q0 -38 -1.5 -76t-1.5 -68q0 -10 3 -15t13 -5
q19 0 51 16.5t63 34.5q14 6 24 6q8 0 14.5 -5t6.5 -13q0 -11 -14 -36.5t-44.5 -64t-80.5 -90.5t-122 -117q-16 -14 -30 -14q-7 0 -14.5 2.5t-15.5 10.5q-75 68 -127 121.5t-85 92t-47.5 62.5t-14.5 33z" />
    <glyph glyph-name="uni2196" unicode="&#x3c;\" horiz-adv-x="635" 
d="M62 604q0 40 41 43q102 7 176.5 6.5t125 -5.5t78 -12.5t33.5 -13.5t6.5 -14t-7.5 -14q-3 -2 -8 -4.5t-12 -4.5q-45 -10 -72 -22t-44 -26q-8 -7 -6.5 -12.5t8.5 -12.5q23 -23 52.5 -50t60.5 -58q28 -28 52.5 -53.5t39.5 -43.5q11 -13 11.5 -21t-10.5 -21
q-9 -10 -29.5 -32.5t-44.5 -45.5t-47 -40.5t-35 -17.5q-14 0 -28 14q-19 15 -44 39t-54 53l-53.5 53.5t-46.5 49.5q-13 15 -25 3q-14 -14 -24 -47.5t-21 -68.5q-3 -10 -9.5 -19.5t-18.5 -9.5q-7 0 -12 5q-16 16 -24.5 112.5t-8.5 290.5z" />
    <glyph glyph-name="uni2197" unicode="&#x2f;&#x3e;" 
d="M57 308q15 19 39 44t53 54l53.5 53.5t49.5 46.5q15 13 3 25q-14 14 -47.5 24t-68.5 21q-16 5 -22 12q-5 6 -6.5 14t4.5 14q16 16 112.5 24.5t290.5 8.5q40 0 43 -41q7 -102 6.5 -176.5t-5.5 -125t-12.5 -78t-13.5 -33.5t-14 -6q-11 0 -16 9.5t-7 17.5q-10 45 -22 72
t-26 44q-7 8 -12.5 6.5t-12.5 -8.5q-23 -23 -50 -52.5t-58 -60.5q-28 -28 -53.5 -52.5t-43.5 -39.5q-14 -11 -22 -11q-9 0 -20 10q-33 29 -69.5 65t-60.5 73q-15 22 8 46z" />
    <glyph glyph-name="uni2198" unicode="\&#x3e;" horiz-adv-x="635" 
d="M44 524q8 10 29 32.5t45 45.5t47 40.5t35 17.5q14 0 28 -14q19 -15 44 -39t54 -53l53.5 -53.5t46.5 -49.5q13 -15 25 -3q14 14 24 47.5t21 68.5q3 10 9.5 19.5t18.5 9.5q7 0 12 -5q16 -16 24.5 -112.5t8.5 -290.5q0 -40 -41 -43q-102 -7 -176.5 -6.5t-125 5.5t-78 12.5
t-33.5 13.5t-6.5 14t7.5 14q3 2 8 4.5t12 4.5q45 10 72 22t44 26q8 7 6.5 12.5t-8.5 12.5q-23 23 -52.5 50t-60.5 58q-28 28 -52.5 53.5t-39.5 43.5q-11 13 -11.5 20.5t10.5 21.5z" />
    <glyph glyph-name="uni2199" unicode="&#x3c;&#x2f;" 
d="M94 593q6 6 14 6q11 0 16 -9.5t7 -17.5q10 -45 22 -72t26 -44q7 -8 12.5 -6.5t12.5 8.5q23 23 50 52.5t58 60.5q28 28 53.5 52.5t43.5 39.5q14 11 22 11q9 0 20 -10q33 -29 69.5 -65t60.5 -73q15 -22 -8 -46q-15 -19 -39 -44t-53 -54l-53.5 -53.5t-49.5 -46.5
q-15 -13 -3 -25q14 -14 47.5 -24t68.5 -21q16 -5 22 -12q5 -6 6.5 -14t-4.5 -14q-16 -16 -112.5 -24.5t-290.5 -8.5q-40 0 -43 41q-7 102 -6.5 176.5t5.5 125t12.5 78t13.5 33.5z" />
    <glyph glyph-name=".notdef" horiz-adv-x="706" 
d="M13 529q5 17 19 40.5t34.5 48.5t44 49.5t47 45.5t44 35.5t34.5 18.5q14 5 38.5 7t53.5 2t60 -2t58.5 -6.5t49.5 -11t33 -15.5q14 -12 26.5 -29t24 -37.5t21.5 -43t19 -43.5q5 -11 11.5 -16t14.5 -10q28 -13 30 -45q1 -13 4 -35.5t6.5 -47.5t6.5 -49.5t3 -42.5
q0 -24 -12.5 -33t-24.5 -11q-20 -2 -28 -11.5t-6 -22.5q1 -9 3.5 -16.5t6 -15.5t6.5 -17t6 -23q3 -15 1 -30t0 -30q1 -4 4 -13.5t7 -20t7.5 -20.5t4.5 -16q4 -20 -3.5 -31t-20.5 -16q-6 -3 -30.5 -8t-57 -10t-66.5 -9t-59 -4q-34 0 -59.5 3.5t-45 14t-34.5 30t-28 52.5
q-6 14 -28 20q-18 3 -39 9.5t-41.5 14.5t-37 18.5t-25.5 22.5q-8 11 -18.5 37t-21 60t-20.5 73t-16.5 75.5t-8.5 67t2 47.5zM324 322q63 0 100 39t37 112q0 35 -24 60.5t-65 25.5q-37 0 -63 -12t-42.5 -30t-24.5 -39.5t-8 -40.5q0 -16 5 -36t15.5 -37.5t28 -29.5t41.5 -12z
M535 394q8 0 7.5 9t-3 19.5t-2.5 19.5t7 9q8 0 16.5 -16t18 -35.5t21 -35.5t25.5 -16q22 0 33 20t11 45q0 26 -6.5 52t-15.5 46t-19.5 32.5t-18.5 12.5q-7 0 -6 -9.5t4.5 -20.5t5.5 -20.5t-4 -9.5q-9 0 -17 12t-17.5 26.5t-22 26.5t-29.5 12q-20 0 -31 -18.5t-11 -49.5
q0 -19 5 -38.5t13 -35.5t17.5 -26.5t18.5 -10.5zM307 492q6 2 9 -3t6 -11.5t8.5 -11.5t16.5 -3t13 8t2 12.5t0.5 13t8.5 9.5q11 4 17 -14t11 -44t3 -37.5t-11 -13.5q-8 -2 -11.5 2t-6.5 9t-6.5 10t-12.5 4q-8 -1 -10.5 -7.5t-3.5 -13t-3 -12.5t-9 -8q-24 -6 -33 43
q-5 29 -5 47.5t17 20.5zM560 509q11 0 24 -12t21 -27t7.5 -27.5t-16.5 -12.5q-15 0 -27 12t-17.5 27t-4 27.5t12.5 12.5z" />
    <glyph glyph-name=".null" horiz-adv-x="0" 
 />
    <glyph glyph-name=".null" horiz-adv-x="0" 
 />
    <glyph glyph-name="uni000D" horiz-adv-x="175" 
 />
    <glyph glyph-name="space" unicode=" " horiz-adv-x="175" 
 />
    <glyph glyph-name="exclam" unicode="!" horiz-adv-x="279" 
d="M67 762q18 2 41.5 2.5t49.5 0.5t51 -0.5t44 -3.5t19 -21q0 -10 -7 -35.5t-16 -78t-18 -137t-14 -212.5q-1 -20 -12.5 -27.5t-48.5 -12.5q-11 -2 -21 -2h-18q-19 0 -28.5 4.5t-13.5 18.5q-31 112 -38.5 229.5t-7.5 233.5q1 17 7.5 28t30.5 13zM34 90q0 49 29.5 76t80.5 27
q53 0 81.5 -27t28.5 -76q0 -48 -28.5 -73t-81.5 -25q-51 0 -80.5 25t-29.5 73z" />
    <glyph glyph-name="quotedbl" unicode="&#x22;" horiz-adv-x="321" 
d="M247 850q24 0 39 -3t23.5 -9.5t11 -16t2.5 -22.5q0 -21 -3.5 -49.5t-9.5 -57t-13 -54.5t-13 -41q-5 -13 -14.5 -17.5t-29.5 -4.5q-23 0 -33.5 5t-13.5 21t-6.5 41t-6 53t-4.5 56t-2 50q0 12 2.5 21t10 15.5t22 9.5t38.5 3zM73 849q24 0 38.5 -3t22 -9t9.5 -15t2 -21
q0 -22 -2 -50t-5.5 -56t-7.5 -53t-8 -40q-5 -17 -15 -22t-30 -5t-29 4.5t-14 17.5q-5 15 -11.5 40.5t-12 54.5t-9.5 57.5t-4 49.5q0 25 14 37.5t62 12.5z" />
    <glyph glyph-name="numbersign" unicode="#" horiz-adv-x="643" 
d="M26 268q8 30 34 32q13 1 30 1.5t34 0.5q9 0 12 4.5t5 14.5q1 12 2 25t2.5 25t2.5 21t1 13q0 16 -19 16h-25.5t-24.5 1q-16 2 -24.5 7.5t-8.5 21.5q0 17 4.5 39t12.5 52q8 29 33 32q15 0 31.5 0.5t35.5 0.5q17 0 21 19q7 29 13 49.5t10 31.5q5 14 12.5 19.5t18.5 6.5t21 1
h20h22t22 -1q17 -1 17 -15q0 -4 -4.5 -17t-10 -28.5t-10 -30t-4.5 -23.5q0 -8 9 -9.5t37 -1.5q32 0 41 3t12 15q8 30 14.5 50t10.5 31q5 14 12 19.5t17 6.5q11 1 23 1.5t23 0.5t21.5 -0.5t20.5 -1.5q18 -1 18 -16q0 -5 -5 -18.5t-10.5 -29t-10.5 -30t-5 -21.5q0 -12 25 -12
h27q20 0 28 -6.5t8 -23.5t-6 -43t-13 -50q-4 -13 -11 -20.5t-23 -8.5q-12 -1 -26 0t-31 -1q-19 -1 -20 -19q-4 -21 -6 -42t-2 -42q0 -11 4 -14t15 -3h35.5t35.5 -1q14 -2 20.5 -8.5t6.5 -21.5q0 -23 -5.5 -48.5t-12.5 -46.5q-5 -11 -11 -18.5t-20 -9.5q-8 -2 -19 -2h-22
q-15 0 -18.5 -4t-3.5 -12q0 -11 2 -27.5t4 -32.5t4 -29.5t2 -19.5q0 -17 -22 -18q-13 -1 -25 -1.5t-25 -0.5q-12 0 -24 0.5t-25 1.5q-12 1 -17.5 6t-7.5 19q-1 12 -2.5 35t-2.5 54q-2 15 -9.5 20.5t-33.5 5.5q-28 0 -35.5 -5t-7.5 -19q0 -38 4 -61.5t4 -33.5q0 -20 -21 -21
q-13 -1 -24.5 -1.5t-23.5 -0.5t-24 0.5t-25 1.5q-12 1 -17.5 6t-7.5 19q-1 7 -2 21t-1 31q0 13 0.5 24.5t0.5 19.5q0 11 -3.5 15.5t-16.5 5.5q-19 1 -36.5 0.5t-31.5 1.5q-16 2 -24.5 8t-8.5 22q0 23 3.5 44t10.5 48zM261 332q0 -23 10.5 -31t40.5 -8q21 0 31 1.5t17 8.5
q8 8 13 35t5 55q0 21 -10.5 29t-39.5 8q-23 0 -33 -2t-17 -9q-5 -5 -8 -15.5t-5 -23t-3 -25.5t-1 -23z" />
    <glyph glyph-name="dollar" unicode="$" horiz-adv-x="567" 
d="M70 324q7 0 15 -8q14 -20 34 -39.5t44 -34.5t51 -24.5t54 -9.5q30 0 48 11.5t18 36.5q0 22 -22 35.5t-60 28.5t-75 31.5t-65.5 40.5t-46 57.5t-17.5 81.5q0 78 45 128t125 64q15 3 15 21q0 12 -0.5 22t-0.5 18q0 13 9.5 18t20.5 6t22 1.5t22 0.5q13 0 25 -0.5t25 -1.5
q25 -2 25 -19q0 -5 -2.5 -12t-6 -14.5t-6 -14.5t-2.5 -13q0 -8 14 -11q43 -10 77 -22.5t54 -26.5q10 -7 13 -13.5t3 -14.5q0 -9 -5.5 -31t-14.5 -44.5t-20 -40t-22 -17.5q-6 0 -17 7q-17 11 -37 23t-41 21.5t-42 15.5t-41 6q-30 0 -44.5 -11.5t-14.5 -29.5q0 -24 21.5 -37.5
t66.5 -28.5q35 -13 74 -29.5t71.5 -40.5t53.5 -58.5t21 -83.5q0 -82 -43.5 -135t-126.5 -70q-16 -3 -16 -19q0 -11 6.5 -24t6.5 -24t-5 -15.5t-20 -6.5q-10 -1 -20.5 -1h-21.5h-27.5t-26.5 1t-21 7t-9 20q0 11 2.5 24t2.5 20q0 14 -19 18q-76 17 -118.5 59t-42.5 107
q0 6 1.5 22t5.5 32t11 28.5t17 12.5z" />
    <glyph glyph-name="percent" unicode="%" horiz-adv-x="791" 
d="M224 773q96 0 138.5 -63t42.5 -172q0 -60 -14.5 -103.5t-40.5 -71.5t-61 -41.5t-76 -13.5q-40 0 -73 13.5t-57 41.5t-37 71.5t-13 103.5q0 53 12 96.5t35.5 74t59.5 47.5t84 17zM386 221q0 53 12 96t35.5 74t59.5 48t84 17q95 0 138 -63t43 -172q0 -60 -14.5 -103.5
t-40.5 -71.5t-61 -41.5t-76 -13.5q-40 0 -73 13.5t-57 41.5t-37 71.5t-13 103.5zM524 742q6 11 15 18t25 7q12 0 34.5 -4t46 -9.5t44 -11t29.5 -9.5q16 -9 16 -20q0 -10 -10 -22q-45 -52 -113.5 -115.5t-147.5 -123.5q-5 -4 -14 -4q-8 0 -13.5 5t-5.5 15t6 37.5t17.5 65
t29 82t41.5 89.5zM68 73q22 26 49.5 56.5t60 62t70 62t78.5 55.5q7 4 14 4q8 0 14 -5t6 -15t-9 -42t-23 -72.5t-30 -83t-31 -73.5q-5 -11 -14 -18t-25 -7q-12 0 -34.5 4t-46 9.5t-44 11t-29.5 9.5q-17 8 -17 19q0 6 3 12t8 11zM218 435q27 0 37.5 28t10.5 87q0 113 -48 113
t-48 -113q0 -60 11 -87.5t37 -27.5zM571 118q27 0 37.5 28t10.5 87q0 58 -12 85t-35 27q-24 0 -36.5 -27t-12.5 -85q0 -60 11 -87.5t37 -27.5z" />
    <glyph glyph-name="ampersand" unicode="&#x26;" horiz-adv-x="863" 
d="M20 186q0 63 29 117t89 89q11 6 11 17q0 6 -3 12q-15 31 -22 66.5t-7 67.5q0 101 62 161t195 60q60 0 101 -13.5t66 -36t36 -51.5t11 -61q0 -73 -45 -125t-122 -100q-12 -7 -12 -16q0 -6 4 -10q3 -4 10.5 -15t16.5 -22.5t17.5 -20.5t13.5 -9q7 0 13 10q28 39 53.5 77
t53 68t58 48t68.5 18q31 0 54 -9.5t38.5 -26t23.5 -38t8 -45.5q0 -6 -2 -20.5t-6 -29.5t-10.5 -26t-15.5 -11q-4 0 -6.5 1t-5.5 3q-13 7 -27.5 13.5t-37.5 6.5q-21 0 -39 -9.5t-35 -25.5t-33.5 -36.5t-33.5 -43.5q-5 -7 -5 -12q0 -9 13.5 -16t31 -12t34.5 -8t24 -3
q38 0 70 20q7 4 13 4q8 0 12 -9t6 -20.5t2.5 -23t0.5 -16.5q0 -58 -31 -97.5t-91 -39.5q-50 0 -97 21.5t-101 48.5q-3 2 -6 3.5t-7 1.5q-6 0 -12 -6q-35 -35 -85 -52.5t-112 -17.5q-117 0 -173 53t-56 147zM293 572q0 -16 2 -32t6 -29t9.5 -21t12.5 -8q10 0 25.5 10.5
t30.5 27t26 37.5t11 42q0 26 -13.5 42t-43.5 16q-31 0 -48.5 -21t-17.5 -64zM284 129q29 0 49.5 12.5t20.5 24.5q0 6 -2 12t-10 14q-18 18 -39 45t-36 49q-12 13 -19 13q-6 0 -14.5 -7t-15.5 -19t-12 -28.5t-5 -35.5q0 -32 20.5 -56t62.5 -24z" />
    <glyph glyph-name="quotesingle" unicode="'" horiz-adv-x="145" 
d="M73 850q25 0 40 -3t23 -9.5t10.5 -15.5t2.5 -21q0 -22 -4 -50.5t-10 -57.5t-12.5 -55t-12.5 -41q-5 -12 -12.5 -17t-24.5 -5t-26 4.5t-13 17.5q-5 16 -11.5 42t-12 54.5t-9.5 57t-4 50.5q0 12 2.5 21t10 15.5t23 9.5t40.5 3z" />
    <glyph glyph-name="parenleft" unicode="(" horiz-adv-x="291" 
d="M29 432q0 98 14 175.5t38.5 130.5t59 81t75.5 28q26 0 43.5 -12t28 -27t14.5 -29t4 -19q0 -6 -3 -10.5t-8 -10.5q-44 -51 -68.5 -139.5t-24.5 -204.5q0 -54 5 -107t13 -101.5t19 -91t24 -74.5q3 -7 3 -11q0 -8 -10 -15q-8 -5 -22 -9.5t-29 -8t-27.5 -6t-17.5 -2.5
q-12 0 -21 10q-15 18 -34.5 63t-36 107.5t-28 136t-11.5 146.5z" />
    <glyph glyph-name="parenright" unicode=")" horiz-adv-x="291" 
d="M-3 60q0 6 3 10.5t8 10.5q44 51 68.5 139.5t24.5 204.5q0 54 -4.5 107t-13 102t-19.5 91t-24 74q-3 8 -3 11q0 8 10 15q8 5 22 9.5t29 8t27.5 6t17.5 2.5q12 0 21 -10q15 -18 34.5 -63t36 -107.5t28 -135.5t11.5 -147q0 -98 -13.5 -175t-38.5 -130.5t-59.5 -81.5
t-75.5 -28q-26 0 -43.5 12t-28 27t-14.5 29t-4 19z" />
    <glyph glyph-name="asterisk" unicode="*" horiz-adv-x="522" 
d="M89 714q8 0 20.5 -7.5t28 -19t33.5 -23.5t36 -21q6 -3 8 -3q8 0 8 10q2 22 3.5 58t4.5 71q2 15 10.5 20.5t21.5 5.5q18 0 45.5 -4.5t53.5 -9.5q11 -2 17.5 -8t6.5 -17t-6.5 -31.5t-14.5 -42t-14.5 -40t-6.5 -24.5q0 -10 10 -10q6 0 24.5 5t39.5 10.5t40.5 10.5t28.5 5
q15 0 20 -14q4 -10 7.5 -27t6 -34t4 -31.5t1.5 -21.5q0 -17 -7 -22t-26 -5q-15 0 -32.5 1t-34 2t-31 2t-23.5 1q-15 0 -15 -9q0 -3 11 -19.5t24.5 -35.5t26 -36t16.5 -22t4 -13q0 -11 -10 -17q-9 -6 -24.5 -14t-32.5 -15t-33 -12t-25 -5q-8 0 -13 3t-10 12q-3 8 -7 22
t-7.5 30.5t-7.5 32.5l-7 28t-8 12q-6 0 -10 -8q-9 -13 -18.5 -27.5t-19 -28.5t-17.5 -25t-14 -17q-8 -8 -17 -8q-6 0 -21 11.5t-32 26.5t-32 29.5t-20 19.5q-4 4 -4 11q0 9 15 22.5t34.5 27.5t37.5 25.5t25 14.5q5 3 5 9q0 3 -2 6t-7 4q-15 3 -33.5 7t-36 8.5t-33.5 9
t-27 8.5t-11 14q0 7 8 28.5t19.5 44.5t24 41t21.5 18z" />
    <glyph glyph-name="plus" unicode="+" horiz-adv-x="516" 
d="M21 292q0 51 18 115q10 36 38 36q15 0 38 -2t41 -2q11 0 17.5 6t7.5 18q2 29 2.5 59t2.5 56q2 15 9.5 19t18.5 6q15 1 28.5 1h26.5h27.5t28.5 -1q26 -3 26 -23q0 -26 -4.5 -57.5t-4.5 -58.5q0 -11 4 -17t17 -7q27 0 50 1.5t43 1.5q23 -1 32.5 -10t9.5 -32
q0 -6 -0.5 -19.5t-2 -29t-3 -31.5t-3.5 -27q-2 -14 -9 -22t-21 -9q-15 -1 -37.5 0.5t-44.5 1.5q-23 0 -23 -24q0 -11 2.5 -31t5.5 -40t5.5 -37t2.5 -22q0 -16 -19 -18q-16 -2 -34 -2h-38h-43.5t-39.5 2q-11 1 -18.5 6t-7.5 20q0 12 1 27t2 31t2 31t1 26q0 15 -5.5 21.5
t-20.5 6.5q-24 0 -49.5 -2t-45.5 -2q-17 1 -25.5 8t-8.5 26z" />
    <glyph glyph-name="comma" unicode="," horiz-adv-x="236" 
d="M11 133q0 9 12 22q7 8 20.5 20.5t29 24.5t31 21t26.5 9q16 0 32 -8.5t28.5 -23.5t20 -36t7.5 -47q0 -42 -18 -75t-43 -55.5t-51.5 -34.5t-43.5 -12q-16 0 -16 17q0 11 5.5 26.5t5.5 40.5q0 23 -6.5 45.5t-26.5 42.5q-13 13 -13 23z" />
    <glyph glyph-name="hyphen" unicode="-" horiz-adv-x="342" 
d="M15 282q0 27 4 54.5t13 62.5q9 38 34 39q20 1 46.5 2t54.5 1q35 0 68 -0.5t54 -3.5q20 -3 29 -11.5t9 -30.5q0 -8 -1 -21.5t-3.5 -29t-5.5 -32t-8 -31.5q-4 -15 -11 -24t-21 -10q-17 -2 -39.5 -2.5t-46.5 -0.5q-39 0 -78 1t-65 3q-15 2 -24 9t-9 25z" />
    <glyph glyph-name="period" unicode="." horiz-adv-x="246" 
d="M13 90q0 49 29.5 76t80.5 27q53 0 81.5 -27t28.5 -76q0 -48 -28.5 -73t-81.5 -25q-51 0 -80.5 25t-29.5 73z" />
    <glyph glyph-name="slash" unicode="/" horiz-adv-x="403" 
d="M129 398q26 95 42.5 163.5t26.5 115.5t15 74.5t8 40.5q3 14 12 19t18 6q14 2 32.5 1.5t36.5 -0.5q20 0 37 -0.5t29 -1.5q20 -1 20 -19q0 -14 -9.5 -65.5t-24.5 -123.5t-34 -156.5t-39 -165.5t-38.5 -149.5t-32.5 -108.5q-5 -13 -9.5 -19t-17.5 -7q-19 -1 -39.5 -2
t-42.5 -1q-47 0 -86 3q-11 1 -15 7t-4 15q0 11 6.5 30.5t21 60t36 108.5t51.5 175z" />
    <glyph glyph-name="zero" unicode="0" horiz-adv-x="602" 
d="M20 375q0 90 18 164t54.5 126.5t91 81.5t126.5 29t123.5 -28t84.5 -80t48.5 -126t15.5 -167q0 -103 -22 -177t-61 -121t-92 -69.5t-114 -22.5q-60 0 -110 22.5t-86.5 70t-56.5 121t-20 176.5zM216 392q0 -108 19 -157.5t65 -49.5q48 0 66.5 51t18.5 158q0 109 -21 160
t-62 51q-42 0 -64 -51.5t-22 -161.5z" />
    <glyph glyph-name="one" unicode="1" horiz-adv-x="373" 
d="M31 693q12 13 34.5 27.5t51.5 26.5t63 20t70 8q18 0 33 -8t15 -27q0 -10 -2 -39t-5 -68t-5 -85.5t-2 -92.5q0 -60 2 -120t5 -115.5t5.5 -104.5t3.5 -88q0 -14 -5 -20.5t-24 -8.5q-23 -3 -52 -4t-58 -1q-16 0 -30 1t-25 3q-10 2 -15.5 6.5t-5.5 16.5q0 47 1.5 109t4 129
t4 134.5t1.5 126.5q0 30 -4 51t-11.5 35t-19 24.5t-26.5 19.5q-14 8 -14 22q0 12 10 22z" />
    <glyph glyph-name="two" unicode="2" horiz-adv-x="550" 
d="M10 638q0 13 9 25q17 22 43.5 42.5t62 36.5t77.5 25.5t88 9.5q51 0 94.5 -13.5t74.5 -40.5t48.5 -67.5t17.5 -94.5q0 -45 -11 -80.5t-34.5 -66t-61 -58.5t-90.5 -59q-47 -29 -69.5 -52.5t-22.5 -52.5q0 -18 31 -18q58 0 92 5t57 20q15 10 25 24.5t18 33.5q7 11 18 11
t18 -9q17 -20 27.5 -48.5t10.5 -61.5q0 -28 -7 -55.5t-23.5 -48.5t-43 -34t-65.5 -13q-21 0 -48 1t-57 2.5t-62 2.5t-62 1q-32 0 -62 -2.5t-46 -2.5q-26 0 -34 25t-8 79q0 62 16.5 111t46.5 90t72 75.5t93 65.5q26 17 44 29.5t29 24t15.5 22.5t4.5 24q0 20 -14.5 33
t-40.5 13q-39 0 -86 -26t-92 -61q-9 -7 -16 -7q-13 0 -26.5 18t-24.5 42t-18.5 47t-7.5 33z" />
    <glyph glyph-name="three" unicode="3" horiz-adv-x="548" 
d="M101 271q7 0 11 -6q10 -13 26.5 -29t37 -30t43 -23.5t44.5 -9.5q30 0 46.5 17t16.5 45q0 23 -15.5 46t-40.5 44t-57.5 38.5t-65.5 29.5q-13 7 -13 18q0 7 6 13q14 14 33 32.5t38.5 39.5t37 42t27.5 38l4 8t2 8q0 11 -14 11q-17 0 -40.5 -2.5t-49 -7t-50.5 -10.5t-45 -14
q-6 -2 -10 -4.5t-8 -2.5q-10 0 -13 10q-7 20 -12.5 43t-9.5 46t-6.5 44.5t-2.5 37.5q0 9 7 13.5t14 4.5q43 2 100 4t119 2q63 0 125.5 -2t111.5 -6q22 -3 22 -21q0 -30 -14 -71t-34.5 -83t-44 -79.5t-42.5 -61.5q-7 -9 -7 -14q0 -7 7 -11q21 -13 44.5 -30.5t43 -42
t32.5 -57.5t13 -77q0 -46 -17 -87t-49.5 -72t-80.5 -49t-110 -18q-52 0 -93 12t-72 29.5t-52 37.5t-33 36q-5 7 -5 14q0 10 12 35.5t28 52.5t32 48t23 21z" />
    <glyph glyph-name="four" unicode="4" horiz-adv-x="568" 
d="M15 180q0 69 14.5 149.5t36 157t46 142.5t45.5 107q8 17 20.5 23.5t23.5 8.5q20 3 43.5 4t46.5 1q26 0 46.5 -1.5t31.5 -3.5q23 -3 23 -21q0 -6 -7 -17q-42 -63 -77.5 -126.5t-61 -119.5t-39.5 -100.5t-14 -70.5q0 -8 3.5 -10t12.5 -2q27 0 43.5 0.5t26.5 1.5t14.5 3
t8.5 6q9 9 12 32q5 60 8 99.5t8 65.5q4 18 9 27t14 20q8 8 22.5 19t31 21t32.5 17t27 7q13 0 13 -18q0 -4 -1.5 -25.5t-4 -54.5t-4 -75t-1.5 -88q0 -16 5.5 -21t15.5 -6q9 0 21 0.5t20 0.5q22 0 26 -23q2 -14 3.5 -34.5t1.5 -43.5q0 -30 -3 -62q-2 -21 -21 -21
q-12 0 -21.5 1.5t-26.5 1.5q-19 0 -19 -23q0 -21 2 -47t3 -61q0 -9 -6.5 -15.5t-19.5 -7.5q-10 -1 -21.5 -1h-24.5q-29 0 -56.5 0.5t-41.5 2.5q-16 2 -21 7t-5 23q0 17 1.5 40.5t1.5 46.5q0 15 -6.5 20.5t-20.5 5.5q-18 0 -44.5 -1t-55.5 -1.5t-56 -1.5t-45 -1
q-20 0 -29.5 12t-9.5 30z" />
    <glyph glyph-name="five" unicode="5" horiz-adv-x="551" 
d="M11 88q0 11 4.5 28.5t11.5 37.5t15 39t15 32t19 13q5 0 12.5 -4.5t15.5 -11.5q23 -17 65 -33t93 -16q43 0 69.5 20.5t26.5 66.5q0 35 -20 56t-68 21q-19 0 -40 -3.5t-41.5 -7.5t-40 -7.5t-34.5 -3.5q-10 0 -24.5 3t-28.5 9.5t-24 15.5t-10 21q0 45 3.5 98t9.5 103t13 94
t14 71q8 31 31 31q38 2 82.5 3t92.5 1q55 0 109.5 -0.5t102.5 -3.5q14 -1 19 -7.5t5 -17.5t-1 -28.5t-3.5 -37.5t-5.5 -40t-6 -36q-6 -25 -20 -25q-8 0 -19 4q-14 5 -35.5 11t-47 11t-53 8t-53.5 3q-32 0 -45 -13q-6 -6 -10.5 -19t-7 -28.5t-4 -31t-1.5 -26.5q0 -28 17 -28
q8 0 18.5 4t25.5 8.5t35.5 8t47.5 3.5q54 0 91 -18.5t60 -50.5t33.5 -74.5t10.5 -89.5q0 -138 -69.5 -202t-201.5 -64q-84 0 -138.5 19.5t-88.5 42.5q-14 10 -20.5 18.5t-6.5 22.5z" />
    <glyph glyph-name="six" unicode="6" horiz-adv-x="581" 
d="M347 774q59 0 104 -8t70 -19q16 -7 16 -23q0 -7 -3.5 -25.5t-9.5 -41.5t-14 -46.5t-16 -39.5q-4 -8 -15 -8q-7 0 -19 5.5t-28.5 12t-38.5 12t-49 5.5q-38 0 -64 -13.5t-42.5 -35t-23.5 -48.5t-7 -54q0 -14 12 -14q8 0 17 4q26 18 58 28.5t73 10.5q93 0 144 -57t51 -178
q0 -132 -70 -194t-193 -62q-72 0 -124.5 26.5t-87 74.5t-51 115.5t-16.5 150.5q0 110 22.5 189.5t65 131.5t103 76.5t136.5 24.5zM302 138q38 0 59 30.5t21 77.5q0 52 -19 79t-54 27q-41 0 -65.5 -29t-24.5 -81q0 -47 21 -75.5t62 -28.5z" />
    <glyph glyph-name="seven" unicode="7" horiz-adv-x="473" 
d="M6 729q2 15 10 23t27 9q54 2 106 2.5t101 0.5q53 0 99 -0.5t84 -2.5q17 -1 23 -9.5t8 -29.5q2 -27 2.5 -45t0.5 -34q0 -28 -1.5 -46t-4.5 -30t-8 -21.5t-13 -21.5q-58 -91 -93.5 -171.5t-35.5 -140.5q0 -37 14 -54t46 -24q8 -3 11 -7t3 -14q0 -16 -6.5 -38.5t-22 -42
t-42.5 -33.5t-69 -14q-83 0 -120.5 45t-37.5 131q0 47 12.5 90t31 81.5t40 72t40 61t31 48t12.5 32.5q0 10 -6.5 14.5t-16.5 4.5q-23 0 -47 -5t-47 -12.5t-43.5 -16.5t-36.5 -16q-8 -4 -16 -6.5t-13 -2.5q-14 0 -16 16q-2 25 -4.5 63t-2.5 73v38t1 33z" />
    <glyph glyph-name="eight" unicode="8" horiz-adv-x="591" 
d="M112 381q6 5 6 14q0 8 -6 14q-12 12 -24 27t-22 34t-16 43t-6 54q0 52 20 91t55 64.5t82 38.5t101 13q52 0 96 -12t76 -37t50 -63.5t18 -90.5q0 -31 -7.5 -54.5t-19 -41.5t-25 -32t-24.5 -25q-8 -8 -8 -15q0 -8 8 -13q13 -7 30.5 -21.5t33.5 -37t27 -55t11 -77.5
q0 -47 -15.5 -86t-48.5 -67t-85 -43.5t-126 -15.5q-61 0 -110.5 12.5t-85 38t-54.5 64t-19 89.5q0 41 10 72.5t24 54t29 38t25 25.5zM212 228q0 -78 86 -78q35 0 58.5 19t23.5 56q0 29 -7.5 51t-20 36.5t-27.5 22t-30 7.5q-18 0 -33 -9t-26.5 -24.5t-17.5 -36t-6 -44.5z
M293 460q16 0 30 8.5t24 23t16 33t6 38.5q0 31 -18.5 51.5t-54.5 20.5q-41 0 -60.5 -21.5t-19.5 -51.5q0 -21 6 -39.5t16.5 -32.5t24.5 -22t30 -8z" />
    <glyph glyph-name="nine" unicode="9" horiz-adv-x="585" 
d="M284 775q72 0 125 -26.5t87.5 -75t51 -117t16.5 -153.5q0 -107 -22.5 -185.5t-64 -129.5t-100.5 -76t-132 -25q-7 0 -24.5 0.5t-39.5 2t-46 5t-43.5 9t-32.5 13.5t-13 20q0 13 4 33t10.5 42.5t14 44.5t14.5 38q4 10 15 10q9 0 18 -5q21 -12 52 -23t77 -11q32 0 56 12
t39.5 31.5t23 46t7.5 54.5q0 15 -14 15q-7 0 -15 -4q-26 -17 -56.5 -28t-72.5 -11q-41 0 -77 13.5t-63 40.5t-42.5 68.5t-15.5 97.5q0 68 18.5 119.5t52.5 85.5t83 51t109 17zM202 522q0 -51 18 -79t53 -28q41 0 66.5 28t25.5 83q0 48 -22.5 75.5t-61.5 27.5
q-38 0 -58.5 -30.5t-20.5 -76.5z" />
    <glyph glyph-name="colon" unicode=":" horiz-adv-x="270" 
d="M26 122q0 57 29.5 88.5t80.5 31.5q53 0 81.5 -31.5t28.5 -88.5t-28.5 -85.5t-81.5 -28.5q-51 0 -80.5 28.5t-29.5 85.5zM136 569q53 0 81.5 -31.5t28.5 -88.5t-28.5 -85.5t-81.5 -28.5q-51 0 -80.5 28.5t-29.5 85.5t29.5 88.5t80.5 31.5z" />
    <glyph glyph-name="semicolon" unicode=";" horiz-adv-x="269" 
d="M26 449q0 57 29.5 88.5t80.5 31.5q53 0 81.5 -31.5t28.5 -88.5t-28.5 -85.5t-81.5 -28.5q-51 0 -80.5 28.5t-29.5 85.5zM32 133q0 9 12 22q7 8 20.5 20.5t29 24.5t31 21t26.5 9q16 0 32 -8.5t28.5 -23.5t20 -36t7.5 -47q0 -42 -18 -75t-43 -55.5t-51.5 -34.5t-43.5 -12
q-16 0 -16 17q0 11 5.5 26.5t5.5 40.5q0 23 -6.5 45.5t-26.5 42.5q-13 13 -13 23z" />
    <glyph glyph-name="less" unicode="&#x3c;" horiz-adv-x="407" 
d="M10 370q0 15 7 26q44 70 83.5 133.5t82.5 114.5q15 18 37 18q9 0 35.5 -5.5t55 -14.5t50.5 -19.5t22 -21.5q0 -9 -14 -25q-7 -7 -20.5 -23t-29.5 -36t-33.5 -42t-31.5 -42.5t-23 -36.5t-9 -25t10 -25q30 -48 65 -89.5t73 -89.5q13 -16 13 -23q0 -12 -21 -24t-48 -21
t-52.5 -15t-35.5 -6q-21 0 -36 15q-48 54 -93.5 119.5t-79.5 133.5q-7 14 -7 24z" />
    <glyph glyph-name="equal" unicode="=" horiz-adv-x="454" 
d="M30 284q4 18 11.5 25t20.5 8q31 2 73 3t87 1q47 0 90 -1t72 -4q22 -2 31.5 -10t9.5 -29q0 -18 -2 -41.5t-8 -45.5q-2 -12 -8.5 -19t-20.5 -8q-31 -2 -72 -3t-86 -1q-48 0 -92.5 1t-77.5 3q-16 1 -26 7t-10 22q0 23 2.5 46t5.5 46zM37 505q3 18 11 25t21 8q30 2 72.5 3
t87.5 1q47 0 90 -1t71 -3q23 -2 32.5 -10.5t9.5 -29.5q0 -17 -2 -41t-8 -46q-3 -11 -9 -18.5t-20 -7.5q-31 -2 -72 -3t-86 -1q-47 0 -91.5 1t-78.5 3q-16 0 -26 6.5t-10 21.5q0 46 8 92z" />
    <glyph glyph-name="greater" unicode="&#x3e;" horiz-adv-x="407" 
d="M181 662q21 0 36 -15q48 -54 93.5 -119.5t79.5 -133.5q7 -14 7 -24q0 -15 -7 -26q-44 -70 -83.5 -133.5t-82.5 -114.5q-15 -18 -37 -18q-9 0 -35.5 5.5t-55 14.5t-50.5 20t-22 21q0 9 14 25q7 8 20.5 23.5t29.5 35.5t33.5 42t31.5 42.5t23 37t9 24.5q0 9 -10 25
q-30 48 -65 89.5t-73 89.5q-13 16 -13 23q0 12 21 24t48 21t52.5 15t35.5 6z" />
    <glyph glyph-name="question" unicode="?" horiz-adv-x="497" 
d="M252 778q63 0 108 -16t73 -43t41 -63t13 -77q0 -46 -14.5 -81.5t-36.5 -62t-48 -46.5t-48 -36t-36.5 -30t-14.5 -29q0 -8 4 -12.5t8.5 -7.5t8 -6t3.5 -8q0 -10 -16 -18.5t-56 -8.5q-59 0 -85 23.5t-26 62.5q0 40 23 70t51 55.5t51 48.5t23 49q0 24 -15 40t-47 16
q-26 0 -44.5 -13.5t-24.5 -35.5q-8 -19 -13 -33t-14 -30q-4 -7 -8 -11.5t-12 -4.5q-10 0 -25 7.5t-28.5 23t-23 39t-9.5 55.5q0 37 15 70.5t45 58.5t74.5 39.5t103.5 14.5zM233 193q53 0 81.5 -27t28.5 -76q0 -48 -28.5 -73t-81.5 -25q-51 0 -80.5 25t-29.5 73q0 49 29.5 76
t80.5 27z" />
    <glyph glyph-name="at" unicode="@" horiz-adv-x="997" 
d="M39 291q0 101 29.5 190t89 155t149 104.5t209.5 38.5q110 0 191.5 -30.5t135.5 -85t80.5 -129.5t26.5 -164q0 -107 -25 -178.5t-67.5 -115t-99.5 -62t-121 -18.5h-25t-24 2q-21 3 -23 21q-1 13 -2 30t-2 24q0 12 -9 12q-4 0 -11 -7q-10 -10 -23 -25t-28 -29.5
t-31.5 -24.5t-34.5 -10q-26 0 -53 13t-48.5 44.5t-35.5 83.5t-14 131q0 77 16 131t44.5 88t68 49.5t86.5 15.5q67 0 109 -8.5t71 -18.5q12 -3 20 -12t8 -22q0 -41 -1.5 -90t-3.5 -95t-3.5 -84t-1.5 -58q0 -16 13 -16q17 0 32 17.5t26 47.5t18 69t7 82q0 56 -13 106
t-45.5 87.5t-86 59t-134.5 21.5q-89 0 -148 -28.5t-94 -76.5t-49.5 -110.5t-14.5 -130.5q0 -45 5.5 -82.5t14 -68.5t18 -55.5t18.5 -41.5q4 -8 4 -15q0 -15 -30 -21q-19 -4 -49 -6t-49 -2q-29 0 -39 19q-7 15 -16 42t-16.5 63.5t-13 80.5t-5.5 93zM437 264q0 -63 8 -90
t28 -27q16 0 28.5 16t21.5 44t14 65t5 79q0 54 -46 54q-13 0 -24 -5t-18.5 -20.5t-12 -43t-4.5 -72.5z" />
    <glyph glyph-name="A" unicode="A" horiz-adv-x="637" 
d="M299 774q16 8 24 8q11 0 23 -8q71 -47 120.5 -110t80.5 -140.5t45.5 -167t14.5 -189.5q0 -32 -1.5 -66t-5.5 -70q-2 -16 -10 -21.5t-22 -7.5q-17 -2 -37.5 -2.5t-40.5 -0.5q-25 0 -47.5 0.5t-38.5 2.5q-20 3 -20 21q0 17 8 50t8 79q0 30 -15.5 43.5t-48.5 13.5
q-22 0 -42 -4.5t-35 -14t-24 -25t-9 -36.5q0 -34 5.5 -61t5.5 -47q2 -18 -16 -19q-17 -2 -38.5 -2.5t-45.5 -0.5h-35.5t-33.5 1q-14 1 -21.5 5t-9.5 18q-4 34 -5.5 68.5t-1.5 70.5q0 88 12.5 178t43.5 171.5t82.5 150t130.5 112.5zM232 333q0 -12 10 -12q9 0 31.5 8t54.5 11
q18 2 30.5 2.5t21.5 2.5q16 4 16 24q0 24 -5 51t-13.5 53t-19.5 49t-24 38q-8 10 -12 10q-6 0 -15 -10q-18 -22 -32 -51t-23.5 -60t-14.5 -61.5t-5 -54.5z" />
    <glyph glyph-name="B" unicode="B" horiz-adv-x="631" 
d="M47 338q0 112 9 211.5t20 190.5q3 22 28 24q26 2 75.5 4t102.5 2q98 0 162.5 -10.5t101.5 -47.5t37 -100q0 -54 -23.5 -92t-58.5 -67q-6 -6 -9.5 -10t-3.5 -9q0 -7 9 -13q61 -41 87.5 -87t26.5 -112q0 -56 -20.5 -98.5t-65.5 -71t-116 -43t-171 -14.5q-37 0 -74.5 1
t-72.5 3q-11 1 -19 4.5t-10 18.5q-8 82 -11.5 161t-3.5 155zM252 175q8 -7 17 -9.5t30 -2.5t41.5 5t37 16.5t26.5 29.5t10 44q0 21 -6 39.5t-15.5 33t-22 22.5t-25.5 8t-34 -7t-43 -20q-20 -11 -26 -27t-6 -39q0 -74 16 -93zM251 459q24 0 50 10.5t47.5 27.5t35 40t13.5 47
q0 17 -7.5 28.5t-20.5 18.5t-29 9.5t-34 2.5q-19 0 -33 -2.5t-22 -10.5q-11 -11 -15.5 -49.5t-4.5 -88.5q0 -15 4 -24t16 -9z" />
    <glyph glyph-name="C" unicode="C" horiz-adv-x="579" 
d="M19 332q0 89 20 170t59 142.5t96.5 98.5t132.5 37q60 0 102.5 -21t70 -54.5t40.5 -75.5t13 -85q0 -23 -6 -39t-20 -30q-10 -13 -28 -28t-38 -28t-39 -21.5t-32 -8.5q-15 0 -15 23q0 11 1 26t1 29q0 24 -3 48t-10.5 43t-20 30.5t-31.5 11.5q-42 0 -64 -57t-22 -161
q0 -52 7.5 -87.5t21.5 -57t35.5 -30.5t48.5 -9q54 0 93.5 32.5t68.5 83.5q7 10 16 10q17 0 30 -32t13 -82q0 -43 -15 -83.5t-45.5 -72t-77.5 -50.5t-112 -19q-139 0 -215 87.5t-76 259.5z" />
    <glyph glyph-name="D" unicode="D" horiz-adv-x="658" 
d="M46 327q0 157 10 257.5t24 157.5q3 12 9 17t14 6q25 2 54.5 2.5t57.5 0.5q93 0 170 -20t132 -71t85.5 -138.5t30.5 -222.5q0 -77 -15 -136t-54 -99.5t-106.5 -61.5t-172.5 -21h-47.5t-56 0.5t-50 1t-30.5 0.5q-23 1 -30 15q-5 11 -9.5 32t-8 57t-5.5 90.5t-2 132.5z
M248 374q0 -94 6.5 -143t20.5 -63q7 -7 14 -9t14 -2q29 0 53 10.5t41 33.5t27 59.5t10 89.5q0 64 -11.5 110.5t-31 77t-44.5 45t-52 14.5q-5 0 -11.5 -2t-11.5 -7q-14 -14 -19 -69t-5 -145z" />
    <glyph glyph-name="E" unicode="E" horiz-adv-x="571" 
d="M38 173q0 67 3 139t9 144.5t15.5 144t22.5 136.5q3 11 9.5 18.5t17.5 8.5q28 2 81 3.5t113 1.5q66 0 126.5 -2t98.5 -4q11 -1 15 -5t4 -9t-4.5 -22t-11 -39t-14 -44.5t-13.5 -39.5q-4 -11 -16 -11q-6 0 -13 2t-18 6q-23 8 -56.5 14.5t-78.5 6.5q-25 0 -40 -4t-24 -15
q-11 -13 -17 -42t-6 -58q0 -30 27 -30q26 0 60.5 8t77.5 8q31 0 51 -5.5t20 -19.5q0 -8 -3.5 -25t-8 -37.5t-10 -40t-10.5 -33.5q-3 -9 -6.5 -12t-9.5 -3q-11 0 -40 8t-64 8q-50 0 -69.5 -19.5t-19.5 -57.5q0 -26 3.5 -42.5t11 -25.5t20.5 -12.5t32 -3.5q67 0 114 15.5
t74 29.5q8 4 11 6t8 2q9 0 13 -10q5 -12 10.5 -37t10 -52.5t7 -53.5t2.5 -40q0 -26 -29 -28q-49 -2 -104.5 -3t-111.5 -1q-66 0 -126.5 1t-105.5 3q-17 1 -25.5 6t-9.5 23q-3 66 -3 144z" />
    <glyph glyph-name="F" unicode="F" horiz-adv-x="487" 
d="M47 329q0 103 9 211t30 200q2 10 10 14t16 5q41 4 89 5.5t99 1.5q48 0 91 -0.5t78 -5.5q13 -2 16.5 -7t3.5 -13q0 -7 -1.5 -24t-4.5 -38.5t-7 -44t-10 -41.5t-13 -31.5t-15 -12.5q-7 0 -20 5q-18 7 -43 13t-58 6q-19 0 -31 -3t-20 -11q-10 -10 -15 -41.5t-5 -69.5
q0 -24 10 -32t27 -8q14 0 29.5 3t32.5 6.5t37.5 6.5t45.5 3q37 0 37 -19q0 -18 -1.5 -41.5t-4 -47t-6 -46t-8.5 -39.5q-4 -11 -15 -11t-38.5 3.5t-62.5 3.5q-32 0 -49.5 -11t-17.5 -41q0 -21 5 -45.5t11 -47t11 -40t5 -23.5q0 -18 -27 -21q-8 -1 -32 -1.5t-50 -0.5
q-27 0 -51 0.5t-34 1.5q-11 1 -17.5 5.5t-11.5 18.5q-5 16 -9.5 45.5t-7.5 69.5t-5 88.5t-2 101.5z" />
    <glyph glyph-name="G" unicode="G" horiz-adv-x="627" 
d="M368 777q57 0 97 -14.5t65.5 -39t37.5 -57t12 -67.5q0 -17 -6.5 -29t-17.5 -23q-14 -14 -35.5 -29t-44 -27t-43 -20t-31.5 -8q-16 0 -16 17q0 7 0.5 14.5t0.5 15.5q0 15 -3 31.5t-10 30t-18 22t-28 8.5q-45 0 -73 -58.5t-28 -171.5q0 -60 8 -100t22.5 -64t34.5 -34.5
t45 -10.5q38 0 57.5 21t19.5 59q0 29 -11.5 44.5t-37.5 23.5q-14 4 -14 19q0 10 4.5 14.5t21.5 9.5q22 9 50.5 21t56 23t49.5 18.5t30 7.5q17 0 20 -22q4 -51 8 -101.5t4 -104.5q0 -99 -67.5 -156.5t-196.5 -57.5q-149 0 -228.5 90t-79.5 251q0 93 21 176t64 144.5t108 97.5
t152 36z" />
    <glyph glyph-name="H" unicode="H" horiz-adv-x="696" 
d="M46 327q0 171 13.5 275t22.5 136q4 14 10.5 19t14.5 6q19 2 39.5 3t40.5 1q44 0 81 -3q16 -3 16 -19q0 -8 -4.5 -29.5t-9.5 -53.5t-9.5 -75t-4.5 -94q0 -17 4 -26t11 -14q11 -5 29 -2.5t47 2.5q32 0 50.5 -1.5t28.5 3.5q15 11 15 40q0 44 -4.5 85t-10.5 74.5t-10.5 57.5
t-4.5 33q0 16 16 19q18 2 38 2.5t40 0.5q42 0 84 -3q10 -1 17 -6.5t10 -19.5q9 -32 22 -136t13 -275q0 -51 -2 -98.5t-5 -86.5t-6.5 -68t-6.5 -43q-4 -17 -10 -22.5t-18 -7.5q-21 -1 -42.5 -2t-42.5 -1q-42 0 -86 3q-10 2 -14.5 5.5t-4.5 12.5q0 10 4 36t9.5 57.5t9.5 65
t4 58.5q0 38 -19.5 54.5t-60.5 16.5q-57 0 -80 -22t-23 -67q0 -29 4.5 -60.5t9.5 -59t9.5 -49t4.5 -30.5q0 -17 -18 -18q-42 -3 -88 -3q-22 0 -44.5 1t-43.5 3q-11 2 -16.5 7.5t-8.5 21.5q-3 14 -6.5 43t-6.5 68t-5 86.5t-2 98.5z" />
    <glyph glyph-name="I" unicode="I" horiz-adv-x="338" 
d="M47 327q0 171 13.5 275t20.5 136q3 14 10 19t17 7q42 3 88 3q50 0 92 -3q18 -2 17 -18q0 -10 -7 -39.5t-16 -76t-16 -109.5t-7 -140q0 -75 6.5 -138t14 -110.5t14 -76.5t6.5 -37q0 -9 -4.5 -12t-13.5 -5q-23 -4 -47 -4h-48q-25 0 -49 0.5t-47 3.5q-11 2 -16 6.5t-9 17.5
q-3 15 -6.5 45t-6.5 70.5t-4.5 88t-1.5 97.5z" />
    <glyph glyph-name="J" unicode="J" horiz-adv-x="400" 
d="M39 225q2 7 6.5 9.5t8.5 2.5q6 0 10.5 -3.5t10.5 -9.5q5 -5 12.5 -9t18.5 -4q29 0 40 40t11 105q0 74 -6 140t-13.5 118t-13.5 85.5t-6 40.5q0 14 6 18.5t17 5.5q15 1 37.5 1.5t46.5 0.5h49t41 -2q10 -1 16.5 -5.5t9.5 -16.5q4 -16 8 -57t7 -91.5t4.5 -103.5t1.5 -93
q0 -117 -16.5 -196t-46 -127t-70.5 -68.5t-90 -20.5q-57 0 -87.5 16.5t-42.5 33.5q-7 7 -7 19q0 11 2.5 29.5t7.5 42t12 49.5t15 50z" />
    <glyph glyph-name="K" unicode="K" horiz-adv-x="657" 
d="M45 276q0 65 2 128.5t5.5 121.5t8.5 108t10 87q4 26 11.5 34t26.5 9q14 1 32 1.5t38 0.5q19 0 38 -0.5t39 -1.5q14 -1 21.5 -6.5t5.5 -20.5q-1 -18 -6.5 -51.5t-12 -73.5t-12 -81t-5.5 -73q0 -14 9 -14q10 0 25 22q25 23 46.5 55t39.5 68t31 74t22 73q4 15 9.5 21t16.5 7
q35 3 77 3q22 0 42 -1t34 -2q23 -1 23 -21q0 -28 -9 -66.5t-26 -80.5t-42 -84t-58 -77q-9 -8 -9 -18t9 -18q32 -27 58.5 -68.5t45 -91t29 -103.5t10.5 -104q0 -31 -26 -32q-16 -1 -34.5 -1.5t-41.5 -0.5q-40 0 -79 3q-18 2 -24 10t-8 26q-19 144 -47 205.5t-66 61.5
q-18 0 -34.5 -23.5t-16.5 -61.5q0 -24 3.5 -52t8 -54t8 -48t3.5 -35q0 -15 -7 -21.5t-21 -8.5q-16 -2 -35 -2h-40q-23 0 -45.5 0.5t-39.5 1.5q-15 1 -23.5 9t-10.5 30q-4 54 -6.5 114t-2.5 123z" />
    <glyph glyph-name="L" unicode="L" horiz-adv-x="476" 
d="M83 740q5 23 24 24q14 1 36.5 2t49.5 1q29 0 57.5 -1t45.5 -3q11 -1 15 -5t4 -11q0 -6 -6 -33.5t-14.5 -69.5t-19 -94t-19 -106.5t-14.5 -108.5t-6 -99q0 -41 10 -53t36 -12q32 0 65 12.5t58 27.5q10 6 15 8t9 2q10 0 14 -10q5 -13 10.5 -37.5t10 -51.5t7.5 -52t3 -40
q0 -28 -32 -30q-37 -2 -79.5 -3t-85.5 -1q-57 0 -109.5 1t-90.5 3q-17 1 -25.5 6t-9.5 23q-3 65 -3 141q0 68 2 141t7.5 146.5t14 145t20.5 137.5z" />
    <glyph glyph-name="M" unicode="M" horiz-adv-x="870" 
d="M44 343q0 94 9 193.5t22 205.5q2 13 8 17.5t12 4.5q17 2 43.5 2.5t55.5 0.5q24 0 46 -0.5t39 -2.5q14 -2 22 -7t15 -17q26 -47 56 -116.5t53 -148.5q3 -10 11 -10q7 0 10 9q26 80 55 147.5t52 113.5q5 11 14 18t20 9q19 2 40 3t44 1q20 0 40.5 -1t41.5 -3
q12 -2 20.5 -7.5t10.5 -16.5q20 -91 32 -186.5t12 -197.5q0 -78 -6.5 -159.5t-17.5 -169.5q-2 -12 -8.5 -18t-15.5 -7q-18 -2 -50.5 -3t-66.5 -1q-26 0 -48.5 1t-37.5 3q-18 3 -18 17t8 45.5t17.5 76.5t17.5 102.5t8 121.5q0 35 -2 70t-9 67q-1 7 -8 7q-6 0 -8 -7
q-10 -41 -25.5 -82.5t-33.5 -82.5t-37 -81t-37 -79q-4 -8 -10 -12t-12 -4q-15 0 -24 16q-21 38 -39.5 82.5t-34.5 88.5t-30 83.5t-26 68.5q-3 8 -10 8q-6 0 -8 -8q-8 -38 -9 -78t-1 -81q0 -65 8 -119.5t17.5 -96.5t17.5 -69.5t8 -38.5q0 -12 -19 -15q-17 -1 -39.5 -1.5
t-49.5 -0.5h-50t-48 2q-16 2 -19 17q-15 75 -21.5 156.5t-6.5 169.5z" />
    <glyph glyph-name="N" unicode="N" horiz-adv-x="699" 
d="M171 -3q-23 0 -43.5 0.5t-36.5 2.5q-23 2 -26 21q-11 77 -16 164.5t-5 173.5q0 65 2.5 126t6.5 111.5t10 88t12 56.5q6 21 28 24q15 1 32 1.5t34 0.5t32.5 -0.5t28.5 -1.5q15 -1 26 -17q32 -43 86.5 -146t124.5 -269q4 -8 10 -8q11 0 11 15q0 79 -8.5 147.5t-18 121.5
t-18 88t-8.5 48q0 18 18 20q16 2 38 2.5t45 0.5q20 0 38.5 -0.5t32.5 -2.5q11 -1 17.5 -6t8.5 -17q7 -38 12 -86.5t8.5 -103t5 -113t1.5 -116.5q0 -83 -3.5 -160t-11.5 -134q-4 -28 -32 -29q-16 -1 -40 -1.5t-48 -0.5h-31t-25 2q-17 2 -23 7t-10 21q-36 117 -79.5 214
t-90.5 173q-9 13 -16 13t-10 -7t-3 -16q-1 -63 4.5 -129t12.5 -121t13.5 -92.5t6.5 -42.5q0 -11 -5.5 -15t-14.5 -5q-15 -2 -37.5 -2.5t-45.5 -0.5z" />
    <glyph glyph-name="O" unicode="O" 
d="M316 781q73 0 128 -41t92 -110t55.5 -158.5t18.5 -185.5q0 -63 -14.5 -117.5t-48.5 -95.5t-90 -64.5t-139 -23.5q-84 0 -141 23.5t-91.5 64.5t-49 95.5t-14.5 117.5q0 96 19 185.5t56 158.5t92 110t127 41zM317 179q46 0 70 33.5t24 111.5q0 60 -7 110.5t-20 87t-30 57
t-38 20.5q-22 0 -39.5 -20.5t-29.5 -57t-18.5 -87t-6.5 -109.5q0 -79 24.5 -112.5t70.5 -33.5z" />
    <glyph glyph-name="P" unicode="P" horiz-adv-x="576" 
d="M46 333q0 98 7.5 204t32.5 206q5 20 26 21q24 2 59 3t71 1q73 0 133.5 -8.5t104 -35t67.5 -76.5t24 -133q0 -69 -18.5 -119t-49.5 -86t-71 -61.5t-82 -44.5q-26 -12 -43 -21.5t-27 -19t-14 -20t-4 -24.5t3 -29.5t6.5 -29.5t6.5 -25.5t3 -16.5q0 -15 -19 -17
q-16 -2 -38.5 -2.5t-47.5 -0.5q-41 0 -77 3q-11 1 -18.5 5t-10.5 19q-11 57 -17.5 136.5t-6.5 171.5zM259 332q14 0 36.5 8.5t40.5 26.5q22 22 36 64.5t14 92.5q0 49 -18 77t-63 28q-15 0 -23.5 -2.5t-14.5 -8.5q-17 -17 -24.5 -74.5t-7.5 -140.5q0 -37 5 -54t19 -17z" />
    <glyph glyph-name="Q" unicode="Q" horiz-adv-x="636" 
d="M22 331q0 92 15.5 173.5t50.5 143t91.5 97t138.5 35.5q81 0 137 -35.5t90.5 -97t50 -142.5t15.5 -173q0 -72 -11.5 -118t-20.5 -74q-3 -9 -3 -15q0 -8 4 -13q17 -22 29 -41t12 -48q0 -20 -7.5 -35.5t-24.5 -15.5q-7 0 -12 3t-13 8q-14 10 -26 21t-23 20q-7 6 -14 6
t-15 -5q-22 -13 -61 -27t-107 -14q-151 0 -223.5 86.5t-72.5 260.5zM318 159q20 0 33 5.5t13 12.5q0 6 -6.5 17t-14.5 26t-14.5 34.5t-6.5 42.5q0 19 15 19q6 0 14.5 -8t17 -17t16.5 -17t14 -8q9 0 12.5 21t3.5 58q0 48 -5.5 93.5t-17 81.5t-30 57.5t-44.5 21.5t-44.5 -23
t-30.5 -60.5t-17.5 -83.5t-5.5 -93q0 -50 6.5 -84.5t19.5 -55.5t31 -30.5t41 -9.5z" />
    <glyph glyph-name="R" unicode="R" horiz-adv-x="644" 
d="M46 322q0 97 5.5 202.5t28.5 214.5q2 11 8 15t17 6q14 2 41.5 3.5t58 3t59 2.5t44.5 1q66 0 121 -10t95.5 -34t63 -63.5t22.5 -98.5q0 -71 -31 -122t-83 -93q-7 -6 -7 -14t7 -12q27 -16 48 -42t37 -56t27 -62t18 -59.5t10 -49t3 -30.5q0 -22 -24 -24q-14 -1 -37 -1.5
t-49 -0.5q-21 0 -41.5 0.5t-34.5 1.5q-16 1 -22.5 5.5t-8.5 15.5q-16 111 -45 169t-71 58q-53 0 -53 -71q0 -20 3 -45.5t6.5 -49t6.5 -41.5t3 -23q0 -15 -19 -17q-17 -2 -38.5 -2h-45.5h-39.5t-38.5 2q-11 1 -19 5t-10 19q-6 62 -11 137t-5 160zM265 369q21 0 45 15.5
t44.5 41t33.5 58.5t13 68q0 42 -22.5 60.5t-57.5 18.5q-15 0 -28 -3t-20 -10t-13 -24t-10 -41.5t-6 -55t-2 -63.5q0 -40 5 -52.5t18 -12.5z" />
    <glyph glyph-name="S" unicode="S" horiz-adv-x="591" 
d="M59 304q6 7 12 7q8 0 15 -10q40 -59 92.5 -98t109.5 -39q38 0 60 13.5t22 42.5q0 28 -24.5 46t-81.5 37q-47 16 -88 36.5t-71.5 49.5t-48 67.5t-17.5 90.5q0 48 17 90.5t50 74t82.5 49.5t113.5 18q72 0 131.5 -18.5t100.5 -50.5q13 -10 13 -24q0 -10 -8.5 -33.5
t-20.5 -48t-25.5 -43.5t-24.5 -19q-8 0 -14 6q-37 37 -77 56t-74 19q-35 0 -51 -16.5t-16 -39.5q0 -32 23 -51.5t77 -38.5q59 -21 102.5 -44.5t72.5 -53.5t43 -67.5t14 -87.5q0 -48 -16.5 -91.5t-51 -75.5t-87.5 -51t-126 -19q-60 0 -109 14t-83.5 41t-53.5 65.5t-19 86.5
q0 40 10.5 67t26.5 43z" />
    <glyph glyph-name="T" unicode="T" horiz-adv-x="534" 
d="M28 724q6 18 27 25q24 8 83.5 17t143.5 9q79 0 137 -9t88 -24q14 -9 17.5 -18.5t3.5 -26.5t-1.5 -36.5t-4 -39t-5 -37t-5.5 -30.5q-5 -15 -15 -15q-7 0 -18 5t-24.5 10.5t-30 10.5t-36.5 5q-12 0 -18 -6t-9 -21q-4 -26 -6.5 -58.5t-2.5 -68.5q0 -72 6.5 -138t14 -118.5
t14 -88t6.5 -46.5q0 -20 -21 -24q-14 -3 -39 -4t-54 -1q-23 0 -49 1t-46 4q-11 1 -19 7.5t-10 24.5q-4 29 -5.5 65.5t-1.5 77.5q0 80 4 142t8.5 108t8 77t3.5 47q0 11 -4 17t-18 6q-23 0 -42.5 -4.5t-36 -10t-29 -10t-20.5 -4.5q-14 0 -14 18q0 11 2 32.5t5 45.5t6.5 47
t6.5 37z" />
    <glyph glyph-name="U" unicode="U" 
d="M30 343q0 88 5 155.5t11.5 116.5t13.5 81t11 48q2 9 8 13.5t11 5.5q14 2 37 2h49h43t34 -2q8 -1 12.5 -6t3.5 -14q-1 -16 -6.5 -55t-10.5 -91t-9.5 -111t-4.5 -115q0 -103 21.5 -145.5t62.5 -42.5q21 0 36.5 9.5t25 31t14 56.5t4.5 87q0 63 -3 124t-7 111t-7.5 87
t-4.5 52q-1 10 1.5 15t12.5 7q12 2 30.5 2.5t38.5 0.5h46.5t37.5 -2q16 -3 21 -17t11.5 -43t11.5 -76t8.5 -113t3.5 -155q0 -86 -13.5 -155t-46 -117.5t-87.5 -74.5t-139 -26q-146 0 -216.5 87.5t-70.5 268.5z" />
    <glyph glyph-name="V" unicode="V" horiz-adv-x="625" 
d="M27 502q0 58 8 118.5t22 123.5q4 19 26 21q16 2 36 2.5t41 0.5q20 0 40.5 -1t38.5 -2q24 -1 24 -19q0 -6 -4 -26.5t-8.5 -53.5t-8.5 -79t-4 -104q0 -82 17.5 -142.5t46.5 -100.5q7 -10 15 -10q7 0 14 10q26 35 43 99.5t17 151.5q0 60 -4 104.5t-8.5 75t-8.5 49t-4 26.5
q0 9 4.5 12.5t15.5 5.5q19 2 40.5 2.5t42.5 0.5q18 0 36 -0.5t32 -2.5t22.5 -9t12.5 -24q12 -55 19 -107.5t7 -105.5q0 -90 -17.5 -172t-50.5 -150.5t-80 -121.5t-107 -86q-14 -8 -26 -8q-11 0 -27 8q-64 32 -113.5 83t-82.5 117t-50 145.5t-17 168.5z" />
    <glyph glyph-name="W" unicode="W" horiz-adv-x="867" 
d="M18 519q0 58 3 113t12 113q2 10 9 15t15 6q17 2 37 2h42q17 0 33.5 -0.5t30.5 -1.5t19 -6.5t5 -16.5q0 -5 -2 -28.5t-5 -59.5t-5 -81.5t-2 -94.5q0 -93 17 -149.5t39 -87.5q8 -11 14 -11t11 11q29 47 41 102t12 135q0 47 -2 92t-4.5 81.5t-4.5 61.5t-2 32q0 17 20 20
q15 1 36 1.5t43 0.5q23 0 45.5 -0.5t38.5 -1.5q14 -2 18.5 -7t4.5 -16q0 -6 -2 -29.5t-4 -59.5t-4 -81t-2 -93q0 -44 3 -78t9 -61.5t16 -51.5t24 -48q6 -10 12 -10q7 0 14 10q9 14 19 36.5t18 53t13.5 68t5.5 79.5q0 47 -2 91.5t-4.5 81.5t-4.5 62.5t-2 32.5q0 18 20 19
q12 1 28 1.5t33 0.5q23 0 44 -0.5t36 -1.5q14 -1 22 -8.5t10 -24.5q7 -51 10.5 -98.5t3.5 -96.5q0 -103 -16.5 -190t-46.5 -156.5t-72 -121t-94 -82.5q-15 -9 -26 -9q-19 0 -42.5 18.5t-45.5 43t-40 50t-27 39.5q-8 10 -12 10q-5 0 -13 -10q-8 -13 -25 -38t-37.5 -50
t-42.5 -44t-39 -19q-12 0 -28 10q-110 70 -169 203t-59 328z" />
    <glyph glyph-name="X" unicode="X" horiz-adv-x="646" 
d="M158 379q4 5 4 13q0 5 -4 11q-25 37 -46.5 69t-37.5 69.5t-25.5 84.5t-9.5 114q0 23 19 25t43 2.5t49 0.5q23 0 42.5 -1t34.5 -2q11 -1 16 -7.5t5 -16.5q1 -47 7.5 -84t16.5 -65.5t21.5 -49t22.5 -34.5q6 -8 13 -8q3 0 5.5 2.5t6.5 5.5q26 21 45.5 81.5t21.5 149.5
q0 22 23 24q15 1 36 2t43 1q23 0 44.5 -0.5t36.5 -2.5q16 -2 22 -10t6 -25q0 -57 -8.5 -100t-24.5 -79.5t-39 -69t-51 -67.5q-3 -4 -5 -7t-2 -8t5 -13q20 -33 43 -66.5t42.5 -74.5t32.5 -93t13 -123q0 -14 -6.5 -19.5t-21.5 -7.5q-19 -2 -38 -2h-39h-42.5t-48.5 2
q-25 1 -25 22q-1 41 -7.5 77.5t-15.5 67.5t-19 55t-20 40q-7 11 -17 11t-18 -11q-22 -29 -41 -86.5t-21 -152.5q0 -13 -7.5 -17t-15.5 -5q-14 -2 -38 -3t-50 -1t-51 1t-39 3q-12 2 -17 5.5t-5 16.5q0 67 11.5 119t31 94t44 76.5t49.5 66.5z" />
    <glyph glyph-name="Y" unicode="Y" horiz-adv-x="607" 
d="M18 728q0 22 7.5 28t23.5 8q18 2 38.5 2.5t42.5 0.5t41 -0.5t32 -1.5q26 -2 32 -10.5t4 -21.5q-3 -15 -6.5 -49.5t-3.5 -73.5q0 -37 6 -69t15 -58t20.5 -45t21.5 -30q10 -10 19 -10q6 0 15 7q11 12 22 36.5t19 55.5t13 66t5 69q0 46 -3 71t-3 38q0 21 22 23q11 1 29 1.5
t38 0.5q24 0 47 -1t38 -2q24 -2 31.5 -9.5t7.5 -30.5q0 -58 -10 -106t-25.5 -88.5t-35.5 -76t-40 -70.5q-18 -31 -35 -62.5t-30 -66t-21 -73.5t-8 -86q0 -22 3 -39.5t3 -31.5q0 -8 -5 -15t-22 -8q-18 -1 -44.5 -1.5t-55.5 -0.5t-56 0.5t-47 1.5t-25.5 12.5t-5.5 28.5
q0 36 7 67.5t17 58.5t19.5 48.5t14.5 36.5q3 9 3 16q0 9 -12 24q-18 22 -45.5 57.5t-53.5 88.5t-45 124.5t-19 165.5z" />
    <glyph glyph-name="Z" unicode="Z" horiz-adv-x="553" 
d="M175 413q54 73 78 109t24 49t-15 13q-35 0 -64.5 -6.5t-52.5 -14t-39.5 -14t-26.5 -6.5q-12 0 -18 13q-6 19 -11.5 44.5t-9 51.5t-6 49t-2.5 37q0 12 7.5 17t24.5 7q44 4 105 5t126 1q64 0 124 -1t102 -5q17 -1 22 -7t5 -19q0 -31 -14.5 -72t-38 -87t-54 -94.5
t-62.5 -95.5q-54 -75 -78 -119.5t-24 -68.5q0 -23 26 -23q41 0 72.5 8.5t55.5 18t41 18t28 8.5q13 0 16 -14q8 -39 13 -84t7 -98q0 -15 -7.5 -23.5t-27.5 -9.5q-46 -2 -106 -2.5t-123 -0.5t-121 0.5t-101 2.5q-20 1 -26.5 10.5t-6.5 27.5q0 49 13 97.5t34.5 95.5t50.5 93
t60 89z" />
    <glyph glyph-name="bracketleft" unicode="[" horiz-adv-x="319" 
d="M56 368q0 162 -3.5 263.5t-3.5 127.5q0 14 5.5 18.5t16.5 5.5q28 2 56 3t55 1q23 0 44.5 -0.5t42.5 -2.5q8 -1 12 -5.5t4 -10.5q0 -13 -15 -22t-25 -23.5t-16 -51.5t-8.5 -105t-2.5 -182q0 -118 3 -186.5t10 -105t17.5 -49t25.5 -19.5q17 -8 17 -23q0 -8 -5 -13.5
t-16 -6.5q-48 -3 -95 -3q-52 0 -105 3q-11 1 -18.5 6.5t-7.5 20.5q0 19 2 53.5t4 81t4 103.5t2 122z" />
    <glyph glyph-name="backslash" unicode="\" horiz-adv-x="403" 
d="M31 816q14 1 31.5 1.5t37.5 0.5h39t35 -2q9 -1 18 -5.5t12 -18.5q4 -18 11.5 -53.5t18.5 -84.5t25 -108.5t31 -124.5q19 -74 38.5 -140.5t35.5 -119t26 -88.5t10 -49q0 -9 -4 -15t-15 -7q-17 -2 -38.5 -2.5t-44.5 -0.5t-44 1t-41 2q-14 1 -18.5 7t-8.5 19
q-28 96 -52 187.5t-43 174t-34 153t-25 124.5t-15 87.5t-5 42.5q0 18 19 19z" />
    <glyph glyph-name="bracketright" unicode="]" horiz-adv-x="319" 
d="M32 763q0 8 5 13.5t16 6.5q48 3 95 3q53 0 105 -3q11 -1 18.5 -6.5t7.5 -20.5q0 -19 -2 -53.5t-4 -81t-4 -103.5t-2 -122q0 -162 3.5 -263.5t3.5 -127.5q0 -14 -5.5 -18.5t-16.5 -5.5q-28 -2 -56 -3t-55 -1q-23 0 -44.5 0.5t-42.5 2.5q-8 1 -12 5.5t-4 10.5q0 13 15 22
t25 23.5t16 51.5t8.5 105t2.5 182q0 118 -3 186.5t-10 105t-17.5 49t-25.5 19.5q-17 8 -17 23z" />
    <glyph glyph-name="asciicircum" unicode="^" horiz-adv-x="589" 
d="M16 368q15 26 42.5 59t61 65.5t69.5 61t68 46.5q11 7 20.5 9t16.5 2q8 0 17.5 -2t20.5 -9q32 -19 68 -47.5t69.5 -61t61 -65t42.5 -58.5q6 -7 6 -18q0 -13 -20.5 -25t-47.5 -21t-52.5 -14.5t-35.5 -5.5q-13 0 -20.5 6t-15.5 17q-22 28 -37 44.5t-25 24.5t-17 10.5
t-14 2.5q-6 0 -13.5 -2t-17.5 -10t-24.5 -24.5t-35.5 -45.5q-8 -11 -16.5 -17t-20.5 -6q-10 0 -35.5 5t-52.5 14t-47.5 21t-20.5 26q0 5 1.5 8.5t4.5 9.5z" />
    <glyph glyph-name="underscore" unicode="_" horiz-adv-x="418" 
d="M8 19q0 28 4 56t14 64q9 34 35 37q25 3 62 3.5t77 0.5h49t48 -1t42.5 -1.5t32.5 -2.5q20 -2 28.5 -10.5t8.5 -29.5q0 -9 -1.5 -22.5t-3.5 -29.5t-5.5 -33t-8.5 -32q-5 -16 -12 -24.5t-22 -10.5q-23 -2 -55 -3t-69 -1q-25 0 -52.5 0.5t-53 1t-48 1.5t-37.5 2
q-16 2 -24.5 9.5t-8.5 25.5z" />
    <glyph glyph-name="grave" unicode="`" horiz-adv-x="317" 
d="M20 867q15 5 35.5 9t41.5 6.5t39 4t28 1.5q11 0 16 -5t10 -16q17 -48 43.5 -86t73.5 -64q13 -7 13 -16t-10 -14q-11 -6 -30 -7.5t-33 -1.5q-63 0 -110 19.5t-77.5 45.5t-45.5 53t-15 43q0 11 4 17t17 11z" />
    <glyph glyph-name="a" unicode="a" horiz-adv-x="516" 
d="M17 189q0 54 20 92.5t53.5 65t77.5 41.5t93 23q23 4 34.5 10t11.5 20q0 23 -14.5 37t-50.5 14q-39 0 -78 -15t-73 -49q-9 -9 -17 -9q-7 0 -13 6q-14 14 -25.5 37t-11.5 54q0 27 16 50t45.5 40t72 26.5t96.5 9.5q63 0 106.5 -15.5t70 -45t38.5 -73t12 -99.5
q0 -23 -1 -51.5t-1.5 -59t-1.5 -61.5t-1 -59q0 -22 1.5 -44t3 -41.5t2.5 -34t1 -20.5q0 -25 -25 -31q-12 -3 -36.5 -4.5t-54.5 -2.5t-61 -1h-56q-115 0 -174.5 45t-59.5 145zM187 214q0 -33 21.5 -48t59.5 -15q24 0 32 10.5t8 33.5v65q0 23 -4 30.5t-17 7.5q-42 0 -71 -22.5
t-29 -61.5z" />
    <glyph glyph-name="b" unicode="b" horiz-adv-x="553" 
d="M62 780q3 18 9 25t23 9q20 3 41 3h41h27t26 -1q11 -1 18 -5t7 -15q0 -7 -4.5 -32t-9.5 -56.5t-9.5 -64t-4.5 -54.5q0 -14 11 -14q5 0 12 7q22 22 49.5 40.5t70.5 18.5q36 0 67 -17.5t53 -52t34.5 -86t12.5 -119.5q0 -84 -16.5 -152.5t-51.5 -117t-90.5 -75.5t-133.5 -27
q-23 0 -46.5 2t-44.5 6t-38.5 8.5t-29.5 8.5q-15 6 -23 16t-10 22q-8 40 -12 109.5t-4 157.5q0 85 2 154t6 125t8.5 100t9.5 77zM217 319q0 -61 2.5 -98t9 -56.5t17.5 -25.5t28 -6q36 0 56.5 50t20.5 156q0 87 -17.5 121.5t-46.5 34.5q-11 0 -20 -4.5t-17 -12.5
q-9 -8 -15.5 -19.5t-10 -29.5t-5.5 -45t-2 -65z" />
    <glyph glyph-name="c" unicode="c" horiz-adv-x="470" 
d="M17 279q0 93 20 161.5t54.5 113.5t82 66.5t102.5 21.5q44 0 76.5 -14.5t54.5 -39.5t32.5 -59t10.5 -73q0 -25 -12 -46.5t-30 -37.5t-40 -25t-42 -9t-21 16q-2 24 -3.5 46.5t-5.5 40.5t-12.5 28.5t-23.5 10.5q-28 0 -45.5 -41.5t-17.5 -119.5q0 -32 3.5 -59t13 -46.5
t25.5 -30.5t40 -11t43 8.5t33.5 22t25.5 30.5t20 34q5 9 13 9q5 0 11 -7q11 -14 21 -37.5t10 -56.5q0 -39 -13.5 -73t-39.5 -59.5t-65.5 -40.5t-92.5 -15q-60 0 -103 21.5t-71 60.5t-41 92.5t-13 117.5z" />
    <glyph glyph-name="d" unicode="d" horiz-adv-x="558" 
d="M26 282q0 86 13 153t36 113t56 69.5t72 23.5q38 0 66 -17.5t45 -34.5q4 -4 10 -4q10 0 10 14q0 23 -4 53.5t-8.5 59t-8.5 51.5t-4 31q0 11 6.5 16t17.5 6q14 1 28 1.5t28 0.5q20 0 40.5 -0.5t40.5 -2.5q13 -2 20.5 -8t10.5 -26q5 -31 9 -79t7 -105.5t4.5 -121t1.5 -126.5
q0 -85 -4 -161.5t-12 -131.5q-2 -11 -9.5 -21t-21.5 -15q-24 -9 -72 -17.5t-128 -8.5q-133 0 -191.5 69t-58.5 219zM281 133q18 0 30 7t18.5 29.5t9.5 64.5t3 112q0 41 -5 69.5t-14 46t-21 25.5t-26 8q-15 0 -26.5 -9.5t-19.5 -31t-12.5 -58t-4.5 -90.5q0 -50 4.5 -83.5
t13 -53.5t21.5 -28t29 -8z" />
    <glyph glyph-name="e" unicode="e" horiz-adv-x="497" 
d="M293 641q38 0 71 -10t57 -31t38 -52t14 -73q0 -64 -23.5 -102.5t-59 -62t-75.5 -37t-73 -28.5q-23 -8 -33.5 -16t-10.5 -21q0 -22 16.5 -37t52.5 -15q52 0 97 21.5t74 59.5q10 8 15 8q11 0 18 -19t7 -54q0 -43 -18 -77.5t-48.5 -58.5t-70.5 -36.5t-84 -12.5
q-67 0 -113 24t-74.5 66t-40.5 97.5t-12 118.5q0 93 22 159t59.5 108t88 61.5t106.5 19.5zM178 373q0 -8 2.5 -13t9.5 -5q9 0 19 5q16 8 34.5 17.5t35 21t27.5 26t11 32.5q0 20 -12 32.5t-34 12.5q-21 0 -38 -10.5t-29 -28t-19 -41t-7 -49.5z" />
    <glyph glyph-name="f" unicode="f" horiz-adv-x="346" 
d="M11 501q0 32 3.5 63t8.5 48q4 13 17 13q6 0 12.5 -0.5t10.5 -0.5q14 0 17 16t9 51q4 32 14.5 60t30.5 48.5t50 32.5t72 12q37 0 53.5 -4.5t22.5 -7.5q5 -3 8.5 -8.5t2.5 -16.5q-1 -10 -2.5 -24t-4 -28t-4.5 -26.5t-4 -20.5q-3 -12 -12 -12q-6 0 -16 3.5t-22 3.5
q-40 0 -40 -56q0 -22 28 -22q11 0 26 1.5t23 1.5q13 0 17 -18q2 -12 3.5 -28.5t1.5 -36.5q0 -21 -1.5 -42.5t-6.5 -41.5q-3 -12 -15 -12q-10 0 -22.5 2.5t-24.5 2.5q-9 0 -12.5 -6.5t-4.5 -23.5q-1 -13 -1.5 -26.5t-0.5 -30.5q0 -72 4.5 -156t21.5 -183q2 -9 0.5 -16
t-9.5 -9q-16 -3 -41.5 -5.5t-53.5 -2.5q-20 0 -38.5 0.5t-33.5 1.5q-11 1 -18 3.5t-8 10.5q-5 48 -6.5 103t-1.5 109q0 68 1.5 121.5t3.5 80.5q2 26 -19 26q-7 0 -12.5 -0.5t-7.5 -0.5q-15 0 -17 16q-1 7 -1.5 15.5t-0.5 19.5z" />
    <glyph glyph-name="g" unicode="g" horiz-adv-x="538" 
d="M15 112q0 26 6.5 47.5t17 39.5t22.5 32t24 26q11 11 11 18t-8 15q-20 20 -40 57t-20 93q0 47 16.5 84.5t47 63.5t73.5 40t95 14q32 0 48 -3t30 -3q10 0 17.5 6t14.5 15.5t14 21t15 21.5q15 25 32 25q9 0 24.5 -10t30 -24.5t25 -29.5t10.5 -25q0 -11 -10 -17
q-17 -9 -31 -19.5t-14 -29.5q0 -10 7 -19.5t15 -24t15 -36.5t7 -58q0 -43 -14 -79t-43 -61.5t-73 -39.5t-105 -14q-32 0 -53.5 -5.5t-34 -14.5t-17.5 -20.5t-5 -22.5q0 -29 34 -29q17 0 39.5 7t48.5 15t55 15t60 7q14 0 34 -2t38 -8.5t30.5 -18.5t12.5 -31q0 -17 -5 -41
t-13 -46t-19 -37.5t-23 -15.5q-9 0 -21 5q-14 9 -33.5 15.5t-50.5 6.5q-23 0 -44 -5t-43 -11t-47 -11t-57 -5q-70 0 -108 32.5t-38 94.5zM272 382q29 0 49.5 18t20.5 49q0 29 -19 47.5t-50 18.5q-32 0 -50.5 -18.5t-18.5 -47.5t18.5 -48t49.5 -19z" />
    <glyph glyph-name="h" unicode="h" horiz-adv-x="561" 
d="M71 783q2 15 10 22.5t16 8.5q18 2 38.5 3t41.5 1h35.5t33.5 -3q15 -3 15 -21q0 -9 -6 -27.5t-12.5 -42.5t-12.5 -50.5t-6 -50.5t16 -24q8 0 20 6.5t29.5 15t40 15t50.5 6.5q36 0 64.5 -13t48.5 -43.5t30.5 -81t10.5 -125.5q0 -54 -2.5 -107t-6 -100t-8 -84.5t-7.5 -60.5
q-4 -26 -27 -28q-9 0 -24.5 -0.5t-33.5 -0.5q-20 0 -41.5 0.5t-38.5 2.5q-10 1 -17 5t-7 18q0 9 4 40.5t9 75.5t9 94.5t4 96.5q0 42 -3 68.5t-9 41.5t-16 20.5t-24 5.5q-16 0 -29 -7.5t-22.5 -25t-15 -46t-5.5 -70.5q0 -118 5 -195t5 -98q0 -14 -8 -18.5t-18 -6.5
q-14 -1 -31 -1.5t-36 -0.5h-38.5t-34.5 2q-8 1 -14.5 5.5t-9.5 18.5q-4 32 -6.5 93.5t-2.5 142.5q0 60 1.5 126t6 134t11.5 135t18 128z" />
    <glyph glyph-name="i" unicode="i" horiz-adv-x="281" 
d="M59 603q2 15 10 19.5t18 5.5q17 2 32 2h29q15 0 30 -0.5t32 -1.5q23 -2 23 -20q0 -8 -1 -28.5t-2.5 -49.5t-2.5 -65t-1 -76q0 -75 4 -137t9.5 -110t9.5 -79.5t4 -44.5q0 -9 -5.5 -13t-13.5 -5q-36 -3 -81 -3q-44 0 -82 3q-8 1 -15.5 5.5t-9.5 20.5q-8 51 -10 108.5
t-2 119.5q0 91 5.5 182t19.5 167zM151 836q59 0 84 -23t25 -63q0 -39 -25 -60.5t-84 -21.5q-56 0 -82.5 21.5t-26.5 60.5q0 40 26.5 63t82.5 23z" />
    <glyph glyph-name="j" unicode="j" horiz-adv-x="308" 
d="M14 146q4 14 16 17q8 1 13 0t12 1q12 4 16.5 23.5t4.5 61.5q0 57 -1.5 113t-3.5 103t-3.5 80t-1.5 45q0 13 4 20.5t16 11.5q11 4 32.5 5t45.5 1q18 0 34.5 -0.5t29.5 -2.5q14 -2 19 -8.5t7 -18.5q8 -68 12 -142t4 -138q0 -100 -9.5 -164.5t-29.5 -102t-49.5 -52
t-70.5 -14.5q-42 0 -66.5 6.5t-32.5 11.5q-11 6 -11 25q0 13 1 30t3 34t4.5 31.5t4.5 22.5zM161 836q59 0 84 -23t25 -63q0 -39 -25 -60.5t-84 -21.5q-56 0 -82.5 21.5t-26.5 60.5q0 40 26.5 63t82.5 23z" />
    <glyph glyph-name="k" unicode="k" horiz-adv-x="568" 
d="M37 307q0 61 1.5 124t4.5 125t8 122t13 114q2 16 10.5 20.5t16.5 5.5q16 2 33 2h35h35t35 -2q11 -1 17.5 -5.5t6.5 -14.5q0 -3 -3 -24.5t-7 -54t-9 -73.5t-9 -84.5t-7 -85.5t-3 -76q0 -24 16 -24q24 0 43.5 18.5t33.5 50t22.5 73t11.5 87.5q1 13 7 17.5t17 5.5t29 1h38
h46t33 -1q9 -1 15.5 -5.5t6.5 -19.5q0 -40 -12.5 -77.5t-30.5 -69.5t-37.5 -56.5t-33.5 -38.5q-10 -10 -10 -17q0 -6 10 -14q25 -21 49 -45t42.5 -58t29.5 -81t11 -114q0 -17 -4.5 -23.5t-21.5 -8.5q-12 -1 -29.5 -1.5t-37.5 -0.5h-36t-34 2q-19 2 -25 6.5t-7 24.5
q-5 110 -34 174t-71 64q-17 0 -24 -14.5t-7 -39.5q0 -28 5 -58.5t10.5 -58t10.5 -48.5t5 -30q0 -18 -20 -20q-17 -2 -37.5 -2h-41.5h-42t-39 2q-8 1 -17 6.5t-11 22.5q-5 62 -6 132.5t-1 145.5z" />
    <glyph glyph-name="l" unicode="l" horiz-adv-x="296" 
d="M76 792q2 16 9.5 20t17.5 6q17 1 34 1.5t34 0.5t34 -0.5t33 -1.5q23 -2 23 -21q0 -6 -3 -40t-6 -85.5t-6 -116.5t-3 -134q0 -73 3.5 -140.5t7 -122t7 -91t3.5 -47.5q0 -18 -19 -20q-17 -2 -37 -2h-41h-42t-39 2q-8 1 -17 6.5t-11 22.5q-5 62 -8.5 132.5t-3.5 145.5
q0 123 7.5 249t22.5 236z" />
    <glyph glyph-name="m" unicode="m" horiz-adv-x="825" 
d="M36 327q0 58 3 122.5t8 136.5q2 23 14 32t31 11q13 2 27.5 2h31.5h32.5t23.5 -2q19 -4 19 -18q0 -6 -2 -13.5t-2 -15.5q0 -10 11 -10q10 0 22.5 10.5t28.5 22.5t37 22.5t47 10.5q24 0 41 -7.5t30 -17t22.5 -17t18.5 -7.5q11 0 24.5 7.5t31.5 17t40.5 17t50.5 7.5
q89 0 127.5 -81.5t38.5 -241.5q0 -119 -6.5 -191t-14.5 -97q-4 -15 -14.5 -20.5t-21.5 -6.5t-25 -1.5t-30 -0.5q-17 0 -34 0.5t-34 1.5t-23.5 9t-6.5 20q0 22 9.5 94.5t9.5 198.5q0 79 -10 113.5t-39 34.5q-24 0 -41.5 -21t-17.5 -69q0 -42 1 -75t1 -72q0 -63 -3.5 -114.5
t-8.5 -85.5q-2 -16 -9 -22.5t-18 -8.5q-14 -2 -31 -2.5t-35 -0.5h-31t-30 2t-18.5 7.5t-4.5 16.5q0 6 1.5 38.5t3.5 78.5t3.5 99.5t1.5 100.5q0 67 -8.5 96.5t-37.5 29.5q-32 0 -47.5 -32.5t-15.5 -104.5q0 -134 6.5 -212t6.5 -94q0 -23 -24 -25q-11 -1 -24.5 -1.5
t-27.5 -0.5q-15 0 -32 0.5t-35 1.5q-13 1 -20 7.5t-9 27.5q-5 63 -9 135t-4 157z" />
    <glyph glyph-name="n" unicode="n" horiz-adv-x="549" 
d="M36 320q0 123 9 264q2 24 14.5 32.5t32.5 10.5q14 1 29 1.5t30 0.5q13 0 25 -0.5t21 -1.5q25 -1 25 -23q0 -19 14 -19q11 0 24.5 8.5t30.5 18t38.5 18t49.5 8.5q36 0 62 -13.5t43.5 -44t26 -79t8.5 -118.5q0 -57 -2.5 -113.5t-5.5 -104.5t-6.5 -84t-6.5 -52
q-4 -26 -28 -29q-12 -2 -28 -2h-33q-19 0 -36.5 0.5t-33.5 1.5q-22 3 -22 21q0 17 2.5 54.5t5 85.5t5 101.5t2.5 102.5q0 54 -10.5 79.5t-38.5 25.5t-46 -18q-13 -13 -18.5 -37.5t-5.5 -79.5q0 -56 2 -107t5 -92.5t5 -70t2 -39.5q0 -25 -26 -26q-14 -1 -28 -1.5t-28 -0.5
q-19 0 -36 0.5t-31 1.5q-13 1 -20.5 6.5t-9.5 25.5q-5 58 -8.5 130.5t-3.5 157.5z" />
    <glyph glyph-name="o" unicode="o" horiz-adv-x="529" 
d="M18 310q0 74 16 135.5t47.5 105t79.5 67.5t111 24t108.5 -23t74.5 -66.5t42.5 -104.5t13.5 -138q0 -85 -19.5 -146t-53.5 -100.5t-80 -58t-100 -18.5q-53 0 -97 18.5t-76 58t-49.5 100.5t-17.5 146zM193 324q0 -86 16.5 -125t54.5 -39q39 0 55 39.5t16 124.5
q0 87 -18.5 128t-51.5 41q-35 0 -53.5 -41t-18.5 -128z" />
    <glyph glyph-name="p" unicode="p" horiz-adv-x="528" 
d="M35 342q0 101 6 160t25.5 90.5t57.5 40.5t101 9q85 0 141 -18t89 -49.5t46 -74.5t13 -93q0 -82 -18.5 -143t-46.5 -102t-61.5 -61.5t-62.5 -20.5q-17 0 -31.5 10.5t-26.5 23.5t-21.5 23.5t-15.5 10.5q-12 0 -12 -16q0 -48 10 -77.5t10 -40.5q0 -16 -22 -19
q-14 -2 -30.5 -5l-33 -6t-31 -5t-23.5 -2q-11 0 -19.5 7t-14.5 31q-7 30 -12.5 68t-9.5 81t-5.5 88.5t-1.5 89.5zM213 348q0 -37 4 -61t11.5 -37.5t17 -18.5t21.5 -5q34 0 51 50.5t17 134.5q0 53 -18.5 76t-56.5 23q-12 0 -21 -6.5t-15 -24.5t-8.5 -49.5t-2.5 -81.5z" />
    <glyph glyph-name="q" unicode="q" horiz-adv-x="526" 
d="M16 376q0 60 13.5 109t46.5 84t88 54t138 19q63 0 100.5 -9.5t57 -41t25.5 -91t6 -160.5q0 -32 -2.5 -74t-6 -85.5t-8 -85t-8.5 -71.5q-3 -25 -11 -33t-23 -8q-23 0 -55 2.5t-69 9.5q-23 4 -23 24q0 5 3 17.5t6.5 28.5t6.5 33.5t3 32.5q0 10 -5.5 13.5t-10.5 -1.5
q-6 -3 -14.5 -14t-22 -22.5t-31 -20.5t-41.5 -9q-29 0 -58 19.5t-52.5 58t-38 94t-14.5 127.5zM259 223q21 0 38 34t17 92q0 90 -11.5 126t-40.5 36q-30 0 -48.5 -26t-18.5 -81q0 -27 4 -58.5t11.5 -58.5t20 -45.5t28.5 -18.5z" />
    <glyph glyph-name="r" unicode="r" horiz-adv-x="340" 
d="M35 314q0 65 1.5 113.5t4 82.5t5.5 56t6 34q5 22 19 25q9 2 31 4t45 2q27 0 45 -3q8 -2 11 -7t4 -14q1 -16 11 -16q6 0 17 8q15 14 30.5 24.5t32.5 10.5q14 0 22 -21.5t8 -80.5q0 -28 -2 -52t-6 -38q-4 -13 -9.5 -17t-12.5 -4q-9 0 -21 4.5t-26 4.5q-7 0 -13.5 -4
t-11 -15t-7.5 -30t-3 -48q0 -47 6.5 -98.5t14.5 -95.5t14.5 -75t6.5 -39q0 -10 -5.5 -16.5t-20.5 -7.5q-14 -1 -31 -1.5t-37 -0.5h-40t-41 2q-22 2 -28 27q-9 38 -14.5 113.5t-5.5 172.5z" />
    <glyph glyph-name="s" unicode="s" horiz-adv-x="460" 
d="M15 154q0 6 1.5 22t5 32.5t10.5 29t17 12.5q9 0 13 -8q10 -19 26.5 -38t37.5 -33.5t45.5 -23.5t50.5 -9q50 0 50 39q0 19 -16 34t-57 34q-36 17 -67.5 34.5t-55.5 40.5t-37.5 54t-13.5 75q0 91 62.5 142t169.5 51q48 0 93 -10.5t71 -25.5q11 -7 15 -14.5t4 -18.5
q0 -14 -3 -31.5t-8 -35.5t-11 -34.5t-12 -29.5q-5 -12 -16 -12q-8 0 -14 6q-13 13 -30 24.5t-36 20t-38.5 13.5t-37.5 5q-24 0 -36 -10t-12 -26q0 -20 16 -32t59 -32q33 -15 66.5 -32.5t60.5 -41.5t44 -57t17 -80q0 -50 -15.5 -88t-44 -63t-68.5 -37.5t-89 -12.5
q-101 0 -159 44.5t-58 122.5z" />
    <glyph glyph-name="t" unicode="t" horiz-adv-x="343" 
d="M20 603q2 14 8 19t14 5q6 0 11.5 -0.5t10.5 -0.5q18 0 22 17.5t9 55.5q1 17 6 25t16 14q18 10 42 16.5t46.5 11t41 6.5t25.5 2q8 0 11.5 -5t1.5 -13q-1 -5 -6 -18t-11 -30.5t-10.5 -36t-4.5 -33.5q0 -14 19 -14q8 0 21 2t24 2q13 0 16 -18q5 -28 5 -67q0 -20 -1 -40.5
t-6 -39.5q-3 -12 -15 -12q-10 0 -22 2.5t-26 2.5q-12 0 -15.5 -8t-5.5 -21q-3 -25 -3 -62q0 -52 7 -106.5t17 -106t22 -97.5q1 -5 2.5 -10t1.5 -9q0 -10 -11 -18.5t-28 -15t-37.5 -11t-40 -7.5t-35.5 -4.5t-23 -1.5q-21 0 -26 14q-7 21 -13 53.5t-10 71.5t-6.5 82.5
t-2.5 85.5q0 43 1 80.5t3 60.5q1 24 -15 24q-6 0 -12 -0.5t-11 -0.5q-12 0 -15 17q-1 5 -1.5 11t-0.5 14q0 29 3 60.5t7 51.5z" />
    <glyph glyph-name="u" unicode="u" horiz-adv-x="559" 
d="M35 308q0 32 2.5 74.5t6 84.5t7 77.5t5.5 51.5q4 29 28 32q15 1 33 1.5t36 0.5h32.5t28.5 -2t17.5 -7.5t4.5 -15.5q0 -12 -2.5 -47.5t-5 -83t-5 -101.5t-2.5 -103q0 -62 13.5 -85.5t38.5 -23.5q26 0 39.5 14.5t20.5 35.5t8 44.5t1 41.5q0 134 -7.5 211t-8.5 91
q-1 15 5.5 21t20.5 8q11 2 25 2h29q19 0 36.5 -0.5t31.5 -1.5t22.5 -7.5t10.5 -27.5q7 -61 10.5 -125.5t3.5 -136.5q0 -66 -4 -137t-9 -151q-2 -23 -14.5 -31t-29.5 -10q-12 -2 -26 -2h-28h-20.5t-17.5 1q-24 3 -24 25q0 19 -16 19q-12 0 -26.5 -8.5t-32 -18.5t-39 -18.5
t-48.5 -8.5q-42 0 -71 16t-46.5 53t-25.5 97.5t-8 150.5z" />
    <glyph glyph-name="v" unicode="v" horiz-adv-x="493" 
d="M14 506q0 20 0.5 41t2.5 42q1 19 7.5 27.5t28.5 10.5q14 2 32.5 2.5t38.5 0.5t37.5 -0.5t28.5 -2.5q16 -2 16 -21q0 -25 -5 -82.5t-5 -127.5q0 -23 2 -49t7 -51t13 -47.5t19 -39.5q5 -8 13 -8t12 8q13 19 21 43.5t12.5 52t6.5 56t2 54.5q0 32 -1.5 62.5t-3.5 56
t-3.5 44.5t-1.5 27q0 12 5 16.5t13 5.5q11 2 28.5 2.5t36.5 0.5q18 0 35.5 -0.5t31.5 -2.5q21 -2 26.5 -10.5t7.5 -30.5q2 -19 2 -37v-36q0 -111 -13 -197t-39 -149.5t-65.5 -105.5t-92.5 -65q-7 -3 -13 -5.5t-13 -2.5q-11 0 -27 8q-52 26 -90.5 69.5t-63.5 106t-37 145.5
t-12 189z" />
    <glyph glyph-name="w" unicode="w" horiz-adv-x="789" 
d="M18 597q4 27 29 30q14 2 34.5 2.5t41.5 0.5q23 0 44 -0.5t35 -2.5q19 -2 19 -20q0 -5 -1.5 -21.5t-4 -41.5t-4 -56t-1.5 -64q0 -57 7.5 -109.5t26.5 -88.5q3 -10 11 -10t12 10q23 54 34.5 114.5t11.5 145.5q0 17 -0.5 36t-1 36t-1 30t-0.5 19q0 16 16 19q15 3 34.5 4
t39.5 1q21 0 40 -1t33 -4q7 -2 11.5 -5.5t4.5 -11.5q0 -10 -1.5 -32t-3 -49.5t-3 -58.5t-1.5 -58q0 -31 2 -56.5t7 -47.5t13 -41.5t20 -39.5q3 -9 10 -9q8 0 12 9q22 45 30.5 105.5t8.5 123.5q0 50 -3 93.5t-3 57.5q0 11 5 15.5t13 5.5q14 2 33 3t39 1t40 -1t35 -3
q14 -2 21 -9t10 -24q1 -10 1.5 -22.5t0.5 -27.5q0 -127 -22 -221.5t-54 -161.5t-69 -108t-67 -61q-7 -5 -18 -5q-10 0 -15 4q-35 26 -71.5 65.5t-61.5 83.5q-5 9 -13 9t-16 -10q-7 -12 -27.5 -37t-44.5 -51t-47 -45.5t-37 -19.5q-7 0 -12 4q-92 69 -139 202t-47 338
q0 20 1 36.5t3 30.5z" />
    <glyph glyph-name="x" unicode="x" horiz-adv-x="506" 
d="M127 307q6 6 6 12q0 4 -6 10q-53 53 -76.5 120.5t-23.5 138.5q0 19 7 27.5t24 10.5q12 2 30 2.5t38 0.5q18 0 34.5 -0.5t26.5 -2.5q6 -1 10.5 -5t4.5 -12q0 -16 2 -37.5t6.5 -44.5t12.5 -46.5t21 -42.5q6 -9 10 -9q6 0 11 9q23 38 33 84.5t10 84.5q0 11 5 15t13 5
q23 3 60 3q17 0 34 -0.5t31 -2.5q20 -2 26 -8.5t6 -24.5q0 -43 -8 -79.5t-22.5 -68.5t-33.5 -60.5t-42 -56.5q-7 -9 -7 -13q0 -5 5 -9q62 -47 92.5 -115.5t31.5 -154.5q0 -16 -5.5 -25.5t-22.5 -10.5q-12 -1 -29.5 -1.5t-34.5 -0.5q-22 0 -42.5 0.5t-33.5 2.5
q-8 1 -13.5 5.5t-5.5 16.5q-1 15 -2.5 36t-6.5 44t-13.5 46t-22.5 41q-6 8 -11 8q-8 0 -11 -8q-13 -19 -22 -41.5t-14.5 -46t-8.5 -45t-3 -39.5q0 -15 -17 -17q-10 -1 -27.5 -2t-37.5 -1t-38.5 1t-30.5 2q-19 2 -25 8.5t-6 21.5q1 51 12 93t27 76t35.5 60.5t37.5 45.5z" />
    <glyph glyph-name="y" unicode="y" horiz-adv-x="512" 
d="M23 156q3 25 27 25q21 0 47 -3t50 -4q27 0 45 5t18 21q0 9 -13 15q-44 22 -76.5 52t-54 73.5t-32 104.5t-10.5 145q0 20 7 28t26 10q27 3 64 3q18 0 37.5 -0.5t37.5 -2.5q8 -1 14.5 -4t6.5 -14q0 -8 -2 -28.5t-2 -43.5q0 -47 7.5 -88t19.5 -71t26 -47.5t27 -17.5
q11 0 15 14q8 26 12.5 71t4.5 93q0 19 -1 37.5t-2.5 34.5t-2.5 28t-1 16q0 10 6.5 14.5t14.5 5.5q13 2 31 2h35h34t26 -2q21 -3 28.5 -17.5t7.5 -37.5q0 -86 -6.5 -163.5t-24.5 -143t-49.5 -118t-81 -89.5t-119.5 -56.5t-165 -19.5q-20 0 -26.5 8t-8.5 24q-1 11 -1.5 22.5
t-0.5 25.5q0 23 1.5 47t3.5 46z" />
    <glyph glyph-name="z" unicode="z" horiz-adv-x="440" 
d="M197 429q10 13 10 24q0 13 -20 13q-25 0 -56.5 -5t-55.5 -11q-6 -2 -12 -3.5t-11 -1.5q-12 0 -17 17q-3 11 -6.5 27.5t-5.5 36t-3.5 40.5t-1.5 40q0 12 7.5 16t19.5 5q30 2 70 3t83 1q52 0 101 -0.5t80 -2.5q18 -1 27 -6t11 -21q1 -5 1 -23v-38q0 -24 -1 -46t-5 -30
q-9 -18 -25.5 -41.5t-36 -49t-39.5 -52.5t-36.5 -51.5t-27 -46.5t-10.5 -38q0 -20 22 -20q37 0 66.5 10.5t46.5 19.5q14 7 19 7q12 0 17 -13q5 -18 9 -38.5t7 -42.5t4.5 -43t1.5 -40q0 -23 -38 -25q-19 -1 -67.5 -1.5t-107.5 -0.5q-50 0 -99 0.5t-84 1.5q-11 0 -19.5 8.5
t-8.5 28.5q0 64 24.5 125.5t57 114t64 92t45.5 60.5z" />
    <glyph glyph-name="braceleft" unicode="{" horiz-adv-x="319" 
d="M15 118q0 42 16.5 75t36 58t35.5 42.5t16 29.5q0 9 -8 16t-17 14.5t-17 15.5t-8 18q0 9 8 16t18 13.5t18 12.5t8 14q0 12 -13.5 30.5t-30 43.5t-30.5 57t-14 71q0 69 41.5 109t111.5 40q48 0 70 -15t22 -28q0 -12 -15 -18q-43 -17 -43 -78q0 -25 8.5 -47.5t18.5 -43.5
t18.5 -42t8.5 -43q0 -24 -11.5 -37.5t-25 -22t-25 -15.5t-11.5 -19q0 -11 13 -18t28.5 -16t28.5 -22.5t13 -39.5q0 -20 -9.5 -42t-20.5 -45.5t-20.5 -48.5t-9.5 -51q0 -34 14.5 -48.5t35.5 -20.5q15 -4 15 -17q0 -14 -25 -29t-79 -15q-77 0 -123.5 38.5t-46.5 107.5z" />
    <glyph glyph-name="bar" unicode="|" horiz-adv-x="300" 
d="M66 505q0 48 -1 94.5t-2.5 85.5t-2.5 68t-1 42q0 12 4.5 17.5t17.5 6.5q18 1 35.5 1h34.5h33.5t33.5 -1q14 -1 18.5 -6.5t6.5 -18.5q11 -88 13.5 -187.5t2.5 -207.5q0 -98 -2.5 -197.5t-8.5 -199.5q-1 -23 -22 -25q-34 -3 -79 -3q-42 0 -80 3q-8 1 -16.5 6.5t-8.5 23.5
q0 6 4 52t8.5 116t8 156.5t3.5 173.5z" />
    <glyph glyph-name="braceright" unicode="}" horiz-adv-x="319" 
d="M45 33q21 6 35.5 20.5t14.5 48.5q0 26 -9.5 51t-20.5 48.5t-20.5 45.5t-9.5 42q0 26 13 39.5t28.5 22.5t28.5 16t13 18q0 12 -11.5 19t-25 15.5t-25 22t-11.5 37.5q0 22 8.5 43t18.5 42t18.5 43.5t8.5 47.5q0 56 -43 78q-8 4 -11.5 7.5t-3.5 10.5q0 13 22 28t70 15
q70 0 111.5 -40t41.5 -109q0 -39 -13.5 -71t-30 -57t-30.5 -43.5t-14 -30.5q0 -8 8 -14t18 -12.5t18 -13.5t8 -16q0 -10 -8 -18t-17 -15.5t-17 -14.5t-8 -16q0 -12 16.5 -29.5t36 -42.5t35.5 -58t16 -75q0 -69 -46.5 -107.5t-123.5 -38.5q-54 0 -79 15t-25 29q0 13 15 17z
" />
    <glyph glyph-name="asciitilde" unicode="~" horiz-adv-x="465" 
d="M8 363q0 37 10 73.5t28 66t44 47.5t58 18q17 0 44 -5.5t55.5 -11.5t55 -11.5t42.5 -5.5q29 0 49 11.5t33 29.5q4 3 6.5 5t6.5 2q16 0 16 -34q0 -42 -7 -82t-22 -72t-39.5 -51.5t-59.5 -19.5q-22 0 -52 8.5t-61 19t-60.5 19t-51.5 8.5q-20 0 -33.5 -6.5t-27.5 -20.5
q-8 -5 -11 -7t-10 -2q-5 0 -9 6t-4 15z" />
    <glyph glyph-name="uni00A0" unicode="&#xa0;" horiz-adv-x="279" 
 />
    <glyph glyph-name="exclamdown" unicode="&#xa1;" horiz-adv-x="292" 
d="M71 483q1 20 12.5 27.5t48.5 12.5q11 2 21 2h18q19 0 28.5 -4.5t13.5 -18.5q31 -112 38.5 -229.5t7.5 -233.5q-1 -17 -7.5 -28t-30.5 -13q-18 -2 -41.5 -2.5t-49.5 -0.5t-51 0.5t-44 3.5t-19 21q0 10 6.5 35.5t15.5 78t18 137t15 212.5zM144 768q51 0 80.5 -25t29.5 -73
q0 -49 -29.5 -76t-80.5 -27q-53 0 -81.5 27t-28.5 76q0 48 28.5 73t81.5 25z" />
    <glyph glyph-name="cent" unicode="&#xa2;" horiz-adv-x="481" 
d="M201 649q8 2 10 6t2 9q0 11 -0.5 23t-0.5 22q0 14 8 19.5t19 6.5q8 1 16.5 1h17.5h23.5t22.5 -1q20 -1 20 -18q0 -12 -7 -28t-7 -27q0 -9 11 -12q61 -17 89.5 -63t28.5 -104q0 -21 -10.5 -41t-28 -35.5t-40.5 -25t-49 -9.5q-16 0 -16 16q-1 25 -2.5 49t-6 43t-13.5 30.5
t-26 11.5q-29 0 -46.5 -38t-17.5 -110q0 -30 4 -55.5t13.5 -44.5t25 -29.5t38.5 -10.5t41.5 6.5t33.5 17t27 24.5t23 28q5 7 11 7q5 0 11 -4q14 -10 22.5 -29.5t8.5 -45.5q0 -51 -32.5 -93t-97.5 -59q-15 -4 -15 -17q0 -6 2 -15t4.5 -18.5t4 -17.5t1.5 -12q0 -9 -5 -12.5
t-16 -5.5q-10 -2 -20 -2h-21q-10 0 -20 0.5t-20 1.5q-12 1 -19.5 6t-7.5 15q0 14 2.5 29.5t2.5 29.5q0 12 -15 15q-41 9 -71 31.5t-49.5 56t-28.5 76t-9 90.5q0 68 13 121t36 92t55 63.5t70 35.5z" />
    <glyph glyph-name="sterling" unicode="&#xa3;" horiz-adv-x="585" 
d="M47 438q6 0 11.5 -0.5t12.5 -0.5q9 0 12 5.5t3 13.5q0 12 -2 31.5t-2 48.5q0 51 12.5 95t41 76t75 50.5t115.5 18.5q80 0 134 -22t79 -49q8 -8 10.5 -16t2.5 -16q0 -14 -5 -33t-14 -39t-21 -40.5t-27 -37.5q-9 -10 -17 -10q-7 0 -18 9q-35 29 -67 48t-61 19
q-30 0 -49 -22t-19 -73q0 -35 6 -45t20 -10q26 0 56.5 3t55.5 3q40 0 41 -34q0 -12 -3 -34t-8 -42q-4 -15 -11.5 -21.5t-24.5 -8.5t-33.5 -1.5t-36.5 0.5q-31 0 -40 -16q-5 -11 -7.5 -35t-2.5 -40q0 -11 8 -18.5t26 -7.5q53 0 87 7.5t58 25.5q14 11 21 25.5t15 31.5
q8 12 20 12q11 0 20 -11q20 -23 30.5 -56t10.5 -71q0 -28 -8 -55.5t-25.5 -49.5t-46.5 -35t-71 -13q-9 0 -34.5 1t-59 2.5t-71.5 2.5t-72 1q-27 0 -55 -2t-45 -2t-24.5 7.5t-7.5 18.5q0 10 5 23q11 20 20.5 46t17 55.5t12 59t4.5 56.5q0 21 -5 30t-19 9q-11 0 -22 -0.5
t-19 0.5q-14 2 -19.5 10t-5.5 24q0 9 1 25t4.5 32.5t11 28.5t19.5 12z" />
    <glyph glyph-name="yen" unicode="&#xa5;" horiz-adv-x="615" 
d="M15 346q0 17 1 33t6 31q7 23 33 23q5 0 11 -1t10 -1q20 0 20 13q0 6 -3 12q-23 48 -36 111t-13 142q0 34 11 44.5t37 12.5q11 1 25.5 1h30.5h38t30 -1q23 -2 30 -10t7 -20q0 -9 -5.5 -53t-5.5 -115q0 -70 17 -116t37 -66q10 -10 20 -10q11 0 18 9q10 12 21 35t20 52
t15 61t6 62q0 58 -4 93t-4 52q0 14 6 17.5t17 5.5t27.5 2.5t34.5 0.5q20 0 40 -0.5t34 -2.5q24 -2 32 -9.5t8 -30.5q0 -67 -11 -117t-24.5 -84.5t-25 -55t-11.5 -29.5q0 -8 13 -8q8 0 17.5 1.5t21.5 1.5q18 0 25.5 -8.5t7.5 -23.5q0 -12 -2.5 -26.5t-6.5 -27.5
q-6 -21 -29 -22q-20 -2 -42 -1t-46 2q-24 0 -33 -12q-6 -8 -12 -18.5t-6 -16.5q0 -13 24 -13q13 0 28 0.5t28.5 1t24.5 1t16 0.5q27 0 35 -7.5t8 -26.5q0 -10 -1 -23t-5.5 -24t-12 -19t-21.5 -8q-13 -1 -44 0.5t-64 0.5q-24 0 -30 -11.5t-6 -37.5t3.5 -46.5t3.5 -35.5
q0 -26 -21 -29q-14 -2 -33 -2.5t-40 -0.5q-32 0 -64 1t-53 3q-17 2 -21.5 13.5t-4.5 28.5q0 34 7 61t7 43q0 15 -17 15q-27 0 -61.5 -1.5t-57.5 -1.5q-24 0 -24 22q0 17 1.5 32t6.5 30q2 11 10 17.5t22 6.5q17 1 45 0t60 -1q11 0 19.5 2.5t8.5 11.5q0 6 -7 14.5t-18 19.5
q-9 9 -36 9q-29 0 -54.5 -0.5t-44.5 0.5q-25 1 -25 22z" />
    <glyph glyph-name="brokenbar" unicode="&#xa6;" horiz-adv-x="303" 
d="M65 352q1 22 31 23q11 1 27.5 1.5t41.5 0.5q46 0 67 -3q17 -2 23.5 -9.5t6.5 -16.5q0 -74 -3.5 -160t-8.5 -173q-1 -13 -6.5 -18t-15.5 -7q-18 -1 -38.5 -1.5t-42.5 -0.5h-41.5t-39.5 2q-7 1 -15.5 6.5t-8.5 22.5q0 5 3 35.5t6.5 77t7.5 104t6 116.5zM60 791q0 14 4 19.5
t18 7.5q18 2 35 2h34t34 -0.5t34 -1.5q13 -1 17.5 -6.5t6.5 -18.5q9 -76 14 -161t5 -166q0 -13 -5 -19.5t-20 -8.5q-13 -2 -31 -3t-41 -1t-36.5 0.5t-25.5 1.5q-21 2 -28.5 8.5t-7.5 16.5q0 53 -1 105.5t-2.5 97.5t-2.5 78.5t-1 48.5z" />
    <glyph glyph-name="section" unicode="&#xa7;" horiz-adv-x="496" 
d="M280 701q44 0 84.5 -5t69.5 -13q14 -4 20.5 -13t6.5 -20q0 -10 -2.5 -25.5t-5.5 -33t-7 -35.5t-8 -32q-4 -15 -19 -15q-10 0 -29.5 4.5t-36.5 4.5q-15 0 -22 -7t-7 -17q0 -14 11.5 -28t28 -31t36.5 -37.5t36.5 -47t28 -59.5t11.5 -75q0 -57 -16.5 -100t-47 -72t-73.5 -44
t-95 -15q-61 0 -103 16.5t-67 40.5t-36 51t-11 48q0 14 7.5 19.5t18.5 5.5q14 1 27 -1.5t30 -2.5q19 2 28.5 8t9.5 21t-9.5 30t-24 33t-31.5 39t-31.5 47.5t-24 60t-9.5 75.5q0 58 20 100.5t55.5 70t83.5 41t103 13.5zM135 475q0 -45 21 -79.5t46 -65t46 -60.5t21 -66
q0 -22 -9.5 -35.5t-32.5 -18.5q-14 -5 -14 -16q0 -9 14 -14t29 -5q35 0 62.5 26.5t27.5 76.5q0 53 -21.5 89t-47.5 65.5t-47 57t-21 64.5q0 20 10 37t32 26q15 8 15 19q0 12 -16 12q-23 0 -44 -7t-36.5 -21t-25 -35t-9.5 -50z" />
    <glyph glyph-name="dieresis" unicode="&#xa8;" horiz-adv-x="373" 
d="M288 863q43 0 66.5 -22.5t23.5 -64.5q0 -41 -23.5 -62t-66.5 -21q-41 0 -65 21t-24 62q0 42 24 64.5t65 22.5zM-1 775q0 41 24 63t64 22q42 0 64.5 -22t22.5 -63q0 -40 -22.5 -60.5t-64.5 -20.5q-40 0 -64 20.5t-24 60.5z" />
    <glyph glyph-name="copyright" unicode="&#xa9;" horiz-adv-x="757" 
d="M378 830q91 0 158.5 -33t112 -90t66.5 -134t22 -165q0 -86 -22 -163t-66.5 -134.5t-112 -91.5t-158.5 -34q-90 0 -157.5 34t-112 91.5t-66.5 134.5t-22 163q0 88 22 165t66.5 134t112 90t157.5 33zM378 69q73 0 127 26t90 72.5t54 111t18 141.5q0 76 -18 140t-54 110
t-90 71.5t-127 25.5t-127 -27.5t-90 -75t-53.5 -110.5t-17.5 -134q0 -77 17.5 -141.5t53.5 -111t90 -72.5t127 -26zM384 705q52 0 86.5 -15t55 -38t29 -52t8.5 -58q0 -19 -10 -38t-26.5 -34t-39 -24t-46.5 -9q-15 0 -18 14q-1 20 -2 39.5t-4.5 35t-11.5 25.5t-22 10
q-28 0 -43 -34.5t-15 -98.5q0 -27 3.5 -50t11.5 -40t22 -27t35 -10q44 0 72.5 25t48.5 55q4 8 13 8q7 0 14 -7t12.5 -19t9 -27t3.5 -31q0 -31 -10.5 -61.5t-33.5 -54.5t-58.5 -38.5t-86.5 -14.5q-60 0 -102.5 21t-69 57.5t-39 85.5t-12.5 105q0 65 14 120t42.5 95t70.5 62.5
t99 22.5z" />
    <glyph glyph-name="ordfeminine" unicode="&#xaa;" horiz-adv-x="365" 
d="M184 613q16 2 24 6t8 14q0 14 -9 22t-32 8q-26 0 -53.5 -10.5t-50.5 -33.5q-6 -6 -11 -6q-3 0 -5 1.5t-5 3.5q-11 8 -18.5 25t-7.5 40q0 37 42.5 62t117.5 25q87 0 122 -41.5t35 -118.5q0 -14 -0.5 -33t-1 -40l-1 -42t-0.5 -41q0 -31 2.5 -59.5t2.5 -37.5q0 -18 -17 -21
q-9 -1 -26 -2.5t-37.5 -2t-42.5 -1t-40 -0.5q-78 0 -119 31t-41 100q0 38 13.5 64.5t36 44.5t52.5 28.5t62 14.5zM62 285q21 2 51.5 3t62.5 1q39 0 76.5 -1t60.5 -3q16 -2 23 -8t7 -21q0 -11 -3.5 -32.5t-9.5 -41.5q-3 -10 -9 -16t-18 -7q-19 -2 -44.5 -2.5t-53.5 -0.5
q-43 0 -86 1.5t-72 2.5q-11 2 -18 6.5t-7 16.5q0 10 1.5 27t5.5 33.5t12 28.5t21 13zM192 439q15 0 20 7t5 22v39q0 16 -2.5 21.5t-11.5 5.5q-26 0 -44 -14.5t-18 -39.5q0 -21 13.5 -31t37.5 -10z" />
    <glyph glyph-name="guillemotleft" unicode="&#xab;" horiz-adv-x="519" 
d="M414 355q0 -28 7.5 -58t18.5 -59.5t23.5 -57t23.5 -48.5q7 -13 10 -20.5t3 -13.5q0 -8 -5.5 -14t-15.5 -6q-8 0 -18 7l-28.5 28.5t-43 44t-48 52.5t-44.5 53.5t-33 46.5t-13 32q0 13 13.5 35.5t34 49t46 56t49.5 55t44 46t30 30.5q8 7 18 7q8 0 14 -5t6 -13q0 -6 -3 -14
t-7 -17q-11 -22 -25.5 -49t-27 -55.5t-21 -57.5t-8.5 -55zM205 339q0 -23 8.5 -50t21 -54t26.5 -53t25 -48q13 -26 13 -34t-5.5 -14t-14.5 -6q-10 0 -30.5 15t-46 38.5t-53 52t-52.5 55t-44.5 48t-27.5 30.5q-8 10 -8 22q0 13 8 24q47 65 112.5 130t131.5 119q8 7 19 7
q8 0 14 -5t6 -13q0 -6 -3 -13.5t-7 -15.5q-11 -25 -27 -56.5t-30.5 -64t-25 -63t-10.5 -51.5z" />
    <glyph glyph-name="registered" unicode="&#xae;" horiz-adv-x="757" 
d="M20 408q0 88 22 165t66.5 134t112 90t157.5 33q91 0 158.5 -33t112 -90t66.5 -134t22 -165q0 -86 -22 -163t-66.5 -134.5t-112 -91.5t-158.5 -34q-90 0 -157.5 34t-112 91.5t-66.5 134.5t-22 163zM93 420q0 -76 17.5 -140.5t52.5 -110.5t89 -72t126 -26t125.5 26t89.5 72
t53.5 110.5t17.5 140.5t-17.5 140t-53.5 110t-89.5 71.5t-125.5 25.5t-126 -27.5t-89 -75t-52.5 -110.5t-17.5 -134zM220 397q0 62 1 107.5t3.5 77t5.5 51t6 30.5t7.5 15t9.5 6q8 2 29.5 4.5t43.5 2.5q25 0 38 -3q8 -2 11 -6.5t4 -17.5q1 -9 3 -14.5t9 -5.5q6 0 11 4.5
t10 11.5q14 17 32 27.5t38 10.5q33 0 51.5 -28t18.5 -79q0 -46 -16.5 -80t-30.5 -51q-7 -8 -15 -8q-10 0 -16 15t-14 27t-24 12q-23 0 -33.5 -22.5t-10.5 -79.5q0 -34 5 -73.5t10.5 -74.5t10.5 -60.5t5 -32.5q0 -8 -5.5 -13t-19.5 -6q-12 -1 -26.5 -1.5t-31.5 -0.5h-36.5
t-39.5 2q-21 1 -25 22q-8 33 -13.5 95.5t-5.5 135.5z" />
    <glyph glyph-name="macron" unicode="&#xaf;" horiz-adv-x="336" 
d="M0 772q0 10 1 19.5t2 18.5q3 27 30 28q22 2 51.5 1.5t61.5 -0.5h76.5t61.5 -2q17 -1 27.5 -5t16 -11.5t7 -18.5t1.5 -26q0 -11 -1 -23t-3 -25q-2 -12 -8.5 -18t-23.5 -8q-23 -2 -51.5 -3t-58.5 -1q-39 0 -77.5 1.5t-65.5 3.5q-24 2 -33 7.5t-11 19.5q-2 9 -2.5 20
t-0.5 22z" />
    <glyph glyph-name="degree" unicode="&#xb0;" horiz-adv-x="386" 
d="M17 596q0 85 48 131.5t128 46.5q85 0 130.5 -46.5t45.5 -131.5q0 -83 -45.5 -126t-130.5 -43q-80 0 -128 43t-48 126zM129 597q0 -29 17.5 -46t46.5 -17q32 0 48.5 17t16.5 46q0 67 -65 67q-29 0 -46.5 -17.5t-17.5 -49.5z" />
    <glyph glyph-name="twosuperior" unicode="&#xb2;" horiz-adv-x="394" 
d="M23 682q0 10 7 18q24 29 70.5 51t109.5 22q34 0 62.5 -8.5t49.5 -25t33 -41.5t12 -58q0 -32 -10 -54.5t-28 -38.5t-43 -27.5t-55 -20.5q-32 -13 -46 -21.5t-14 -23.5q0 -7 7.5 -10.5t30.5 -3.5q25 0 42.5 2t29.5 6.5t21 11.5t17 17q6 7 12 7q9 0 16.5 -9.5t12.5 -22
t8 -25.5t3 -20q0 -30 -21 -54.5t-71 -24.5q-32 0 -74 2t-81 2q-19 0 -35.5 -1t-30.5 -1q-19 0 -25 14.5t-6 46.5q0 65 39 106t105 74q33 17 48 30t15 26q0 24 -28 24q-25 0 -53.5 -16.5t-62.5 -39.5q-6 -4 -10 -4q-8 0 -18 11.5t-18.5 27t-14.5 30.5t-6 22z" />
    <glyph glyph-name="threesuperior" unicode="&#xb3;" horiz-adv-x="353" 
d="M15 402q0 8 5.5 22t13.5 27.5t17 23.5t16 10q11 0 21 -11q14 -17 32.5 -26.5t37.5 -9.5t27.5 9.5t8.5 23.5q0 20 -20 33.5t-70 30.5q-9 3 -9 11q0 6 4 10l18 18t26 27t23 26.5t10 16.5q0 8 -9 8q-21 0 -40.5 -5t-35.5 -11t-27 -11t-16 -5q-8 0 -10 9q-19 62 -20 124
q0 7 6 10t12 3q25 2 56.5 2.5t66.5 0.5q44 0 88 -1.5t80 -4.5q18 -1 18 -15q0 -35 -28 -79.5t-76 -92.5q-4 -4 -4 -10q0 -8 7 -9q38 -8 65.5 -37t27.5 -79q0 -52 -41.5 -87t-118.5 -35q-39 0 -69.5 9t-51 22t-31 27.5t-10.5 24.5z" />
    <glyph glyph-name="acute" unicode="&#xb4;" horiz-adv-x="315" 
d="M-2 701q0 9 13 16q47 26 73.5 64t43.5 86q5 11 10 16t16 5q10 0 28 -1.5t39 -4t41.5 -6.5t35.5 -9q13 -5 17 -11t4 -17q0 -16 -15 -43t-45.5 -53t-77.5 -45.5t-110 -19.5q-14 0 -33 1.5t-30 7.5q-10 5 -10 14z" />
    <glyph glyph-name="paragraph" unicode="&#xb6;" horiz-adv-x="701" 
d="M338 -11q0 9 8 40.5t17 83t17 121t8 152.5q0 76 -5.5 137.5t-12 107.5t-12 75t-5.5 39q0 16 19 19q26 4 60 4.5t71 0.5q42 0 83 -2t71 -5q8 -1 14 -6t11 -17.5t7.5 -35t2.5 -57.5q0 -26 -1.5 -42.5t-4 -25.5t-7 -12.5t-10.5 -3.5q-11 1 -22 3.5t-22 2.5q-20 0 -27.5 -8.5
t-7.5 -22.5q0 -7 1.5 -24.5t3 -41.5t2.5 -52.5t1 -58.5q0 -60 -2.5 -118t-6 -107t-7.5 -84t-7 -50q-4 -16 -10 -22t-18 -7q-46 -3 -94 -3q-47 0 -94 3q-21 1 -21 17zM6 495q0 60 14 109.5t42.5 85t72 55t102.5 19.5q21 0 40 -5t26 -25q8 -23 14.5 -58t11.5 -77.5t8 -90
t3 -97.5q0 -58 -4 -115t-15 -108q-3 -14 -9.5 -22.5t-25.5 -8.5q-48 0 -97.5 21t-90 63t-66.5 105.5t-26 148.5z" />
    <glyph glyph-name="periodcentered" unicode="&#xb7;" horiz-adv-x="246" 
d="M13 349q0 49 29.5 76t80.5 27q53 0 81.5 -27t28.5 -76q0 -48 -28.5 -73t-81.5 -25q-51 0 -80.5 25t-29.5 73z" />
    <glyph glyph-name="cedilla" unicode="&#xb8;" horiz-adv-x="244" 
d="M12 -20q17 13 26 21.5t14 14.5t6 9.5t1 6.5q0 5 -6 8.5t-24 9.5l103 28q6 -2 18.5 -5.5t25.5 -8t23.5 -9t12.5 -7.5q-11 -3 -15 -7t-7 -11q-11 -25 -24 -46.5t-27 -38t-28.5 -26t-28.5 -9.5q-8 0 -25 1.5t-34.5 6t-31 11t-13.5 17.5q0 8 9.5 15t24.5 19z" />
    <glyph glyph-name="onesuperior" unicode="&#xb9;" horiz-adv-x="277" 
d="M10 672q0 10 8 18q12 12 30 25.5t40.5 25t47.5 19.5t51 8q17 0 29.5 -7t12.5 -24q0 -6 -1 -24.5t-2.5 -43.5t-3 -55.5t-1.5 -60.5q0 -54 6 -107.5t7 -88.5q0 -13 -5 -18.5t-23 -7.5q-11 0 -24.5 -0.5t-27.5 -0.5h-38.5t-33.5 2q-9 1 -14 5.5t-5 15.5q0 32 4 76.5t4 95.5
q0 56 -12.5 82.5t-37.5 45.5q-11 7 -11 19z" />
    <glyph glyph-name="ordmasculine" unicode="&#xba;" horiz-adv-x="371" 
d="M19 541q0 51 11 92.5t32.5 71t54.5 45.5t76 16q87 0 125.5 -60.5t38.5 -164.5q0 -58 -13.5 -99.5t-37 -68.5t-55 -39.5t-68.5 -12.5q-36 0 -66 12.5t-52 39.5t-34 68.5t-12 99.5zM62 285q23 2 55 3t66 1q39 0 76.5 -1t60.5 -3q16 -2 23 -8t7 -21q0 -11 -3.5 -32.5
t-10.5 -41.5q-2 -10 -8 -16t-18 -7q-19 -2 -44.5 -2.5t-53.5 -0.5q-45 0 -90 1.5t-74 2.5q-12 2 -18.5 6.5t-6.5 16.5q0 10 1 26.5t5 33t12 29t21 13.5zM187 443q25 0 34.5 26t9.5 82q0 57 -11.5 83.5t-32.5 26.5t-32.5 -26.5t-11.5 -83.5t10 -82.5t34 -25.5z" />
    <glyph glyph-name="guillemotright" unicode="&#xbb;" horiz-adv-x="519" 
d="M116 343q0 28 -7.5 58t-18.5 59.5t-23.5 57t-23.5 48.5q-7 13 -10 20.5t-3 13.5q0 8 5.5 14t15.5 6q8 0 18 -7q10 -9 29 -28.5t42.5 -44t48 -52.5t44.5 -53.5t33 -46.5t13 -32q0 -13 -13.5 -35.5t-34 -49t-46 -56t-49.5 -55t-44 -46t-30 -30.5q-8 -7 -18 -7q-8 0 -14 5
t-6 13q0 6 3 14t7 17q11 22 25.5 49t27 55.5t21 57.5t8.5 55zM325 359q0 23 -8.5 50t-21 54t-26.5 53t-25 48q-13 26 -13 34t5.5 14t14.5 6q10 0 30.5 -15t46 -38.5t53 -52t52.5 -55t44.5 -47.5t27.5 -31t8 -22q0 -13 -8 -24q-47 -65 -112.5 -130t-131.5 -119q-8 -7 -19 -7
q-8 0 -14 5t-6 13q0 6 3 13.5t7 15.5q11 25 27 56.5t30.5 64t25 63t10.5 51.5z" />
    <glyph glyph-name="onequarter" unicode="&#xbc;" horiz-adv-x="793" 
d="M123 332q-9 1 -14 5.5t-5 15.5q0 32 4 76.5t4 95.5q0 56 -12.5 82.5t-37.5 45.5q-11 7 -11 19q0 10 8 18q12 12 30 25.5t40.5 25t47.5 19.5t51 8q17 0 29.5 -7t12.5 -24q0 -6 -1 -24.5t-2.5 -43.5t-3 -55.5t-1.5 -60.5q0 -54 6 -107.5t7 -88.5q0 -13 -5 -18.5t-23 -7.5
q-11 0 -24.5 -0.5t-27.5 -0.5q-20 0 -38.5 0.5t-33.5 1.5zM248 22q-6 -11 -15 -18t-25 -7q-12 0 -34.5 4t-46 9.5t-43.5 11t-29 9.5q-17 7 -17 19q0 6 3 12t8 11q23 27 52 59t63 65.5t73.5 66t82.5 60.5q8 4 12 4q16 0 16 -16q0 -18 -9.5 -53t-24 -76.5t-32 -84.5t-34.5 -76
zM505 742q6 11 14.5 18t24.5 7q13 0 35.5 -4t46 -9.5t43.5 -11t29 -9.5q17 -7 17 -20q0 -5 -3 -11t-8 -11q-24 -28 -54 -62t-65.5 -69t-76 -69t-86.5 -62q-5 -4 -13 -4q-16 0 -16 17q0 20 8 51.5t23 70.5t35.5 84.5t45.5 93.5zM713 52q0 -5 1.5 -17.5t1.5 -27.5
q0 -6 -4.5 -10.5t-13.5 -4.5q-8 -1 -17.5 -1h-20.5q-20 0 -40 0.5t-31 1.5t-14.5 4t-3.5 13q0 8 1 18t1 18q0 15 -17 15q-12 0 -31 -0.5t-40 -1t-40.5 -1t-31.5 -0.5q-14 0 -19.5 7t-5.5 17q0 41 11.5 89t28.5 95t35.5 87.5t32.5 65.5q6 11 14 15.5t16 5.5q15 2 33 2.5
t35 0.5q20 0 36 -0.5t24 -2.5q16 -3 16 -13q0 -5 -5 -12q-27 -37 -52 -73t-44 -68.5t-30.5 -59t-11.5 -44.5q0 -8 8 -8q20 0 32 1t18 3.5t8 7.5t3 13q5 34 6.5 58.5t6.5 38.5q6 11 18 21.5t26.5 18.5t29.5 13t26 5q10 0 10 -13q0 -3 -1 -15l-2.5 -30t-3 -40t-2.5 -45
q0 -10 4 -13t12 -4h19q18 0 19 -16q1 -9 2 -21.5t1 -28.5v-16.5t-1 -18.5q-1 -15 -15 -15h-25q-13 0 -13 -14z" />
    <glyph glyph-name="onehalf" unicode="&#xbd;" horiz-adv-x="788" 
d="M624 172q-32 -13 -46 -21.5t-14 -23.5q0 -7 7.5 -10.5t30.5 -3.5q50 0 73 7.5t37 29.5q6 7 12 7q9 0 16.5 -9.5t12.5 -22t8 -25.5t3 -20q0 -30 -21 -54.5t-71 -24.5q-32 0 -74 2t-81 2q-19 0 -35.5 -1t-30.5 -1q-19 0 -25 14.5t-6 46.5q0 65 39 106t105 74q33 17 48 30
t15 26q0 24 -28 24q-25 0 -54.5 -16t-61.5 -40q-6 -4 -10 -4q-8 0 -18 11.5t-18.5 27t-14.5 30.5t-6 22q0 10 7 18q24 29 70.5 51t109.5 22q34 0 62.5 -8.5t49.5 -25t33 -41.5t12 -58q0 -32 -10 -54.5t-28 -38.5t-43 -27.5t-55 -20.5zM123 332q-9 1 -14 5.5t-5 15.5
q0 32 4 76.5t4 95.5q0 56 -12.5 82.5t-37.5 45.5q-11 7 -11 19q0 10 8 18q12 12 30 25.5t40.5 25t47.5 19.5t51 8q17 0 29.5 -7t12.5 -24q0 -6 -1 -24.5t-2.5 -43.5t-3 -55.5t-1.5 -60.5q0 -54 6 -107.5t7 -88.5q0 -13 -5 -18.5t-23 -7.5q-11 0 -24.5 -0.5t-27.5 -0.5
q-20 0 -38.5 0.5t-33.5 1.5zM247 22q-6 -11 -15 -18t-25 -7q-12 0 -34.5 4t-46 9.5t-43.5 11t-29 9.5q-17 7 -17 19q0 6 3 12t8 11q23 27 52 59t63 65.5t73.5 66t82.5 60.5q8 4 12 4q16 0 16 -16q0 -18 -9.5 -53t-24 -76.5t-32 -84.5t-34.5 -76zM504 742q6 11 14.5 18
t24.5 7q13 0 35.5 -4t46 -9.5t43.5 -11t29 -9.5q17 -7 17 -20q0 -5 -3 -11t-8 -11q-24 -28 -54 -62t-65.5 -69t-76 -69t-86.5 -62q-5 -4 -13 -4q-16 0 -16 17q0 20 8 51.5t23 70.5t35.5 84.5t45.5 93.5z" />
    <glyph glyph-name="threequarters" unicode="&#xbe;" horiz-adv-x="798" 
d="M189 319q-39 0 -69.5 9t-51 22t-31 27.5t-10.5 24.5q0 8 5.5 22t13.5 27.5t17 23.5t16 10q8 0 21 -11q17 -14 34 -25t36 -11t27.5 9.5t8.5 23.5q0 20 -20.5 32.5t-69.5 31.5q-9 3 -9 11q0 6 4 10l18 18t26 27t23 26.5t10 16.5q0 8 -9 8q-21 0 -40.5 -5t-35.5 -11t-27 -11
t-16 -5q-8 0 -10 9q-19 62 -20 124q0 7 6 10t12 3q25 2 56.5 2.5t66.5 0.5q44 0 88 -1.5t80 -4.5q18 -1 18 -15q0 -35 -29 -79.5t-75 -92.5q-4 -4 -4 -10q0 -8 7 -9q38 -8 65.5 -37t27.5 -79q0 -52 -41.5 -87t-118.5 -35zM261 22q-6 -11 -15 -18t-25 -7q-12 0 -34.5 4
t-46 9.5t-43.5 11t-29 9.5q-17 7 -17 19q0 6 3 12t8 11q23 27 52 59t63 65.5t73.5 66t82.5 60.5q8 4 12 4q16 0 16 -16q0 -18 -9.5 -53t-24 -76.5t-32 -84.5t-34.5 -76zM518 742q6 11 14.5 18t24.5 7q13 0 35.5 -4t46 -9.5t43.5 -11t29 -9.5q17 -7 17 -20q0 -5 -3 -11
t-8 -11q-24 -28 -54 -62t-65.5 -69t-76 -69t-86.5 -62q-5 -4 -13 -4q-16 0 -16 17q0 20 8 51.5t23 70.5t35.5 84.5t45.5 93.5zM719 52q0 -5 1.5 -17.5t1.5 -27.5q0 -6 -4.5 -10.5t-13.5 -4.5q-8 -1 -17.5 -1h-20.5q-20 0 -40 0.5t-31 1.5t-14.5 4t-3.5 13q0 8 1 18t1 18
q0 15 -17 15q-12 0 -31 -0.5t-40 -1t-40.5 -1t-31.5 -0.5q-14 0 -19.5 7t-5.5 17q0 41 11.5 89t28.5 95t35.5 87.5t32.5 65.5q6 11 14 15.5t16 5.5q15 2 33 2.5t35 0.5q20 0 36 -0.5t24 -2.5q16 -3 16 -13q0 -5 -5 -12q-27 -37 -52 -73t-44 -68.5t-30.5 -59t-11.5 -44.5
q0 -8 8 -8q20 0 32 1t18 3.5t8 7.5t3 13q5 34 6.5 58.5t6.5 38.5q6 11 18 21.5t26.5 18.5t29.5 13t26 5q10 0 10 -13q0 -3 -1 -15l-2.5 -30t-3 -40t-2.5 -45q0 -10 4 -13t12 -4h19q18 0 19 -16q1 -9 2 -21.5t1 -28.5v-16.5t-1 -18.5q-1 -15 -15 -15h-25q-13 0 -13 -14z" />
    <glyph glyph-name="questiondown" unicode="&#xbf;" horiz-adv-x="497" 
d="M13 189q0 47 14.5 82t36.5 61.5t48 46.5t48 36t36.5 30t14.5 29q0 8 -3.5 12.5t-8 7.5t-8.5 6t-4 8q0 10 16 18.5t56 8.5q59 0 85 -23.5t26 -62.5q0 -40 -23 -70t-51 -55.5t-51 -48.5t-23 -49q0 -24 15 -40t47 -16q26 0 44.5 13.5t24.5 35.5q8 19 13 33t14 30q4 7 8 11.5
t12 4.5q11 0 25.5 -7.5t28 -23t23 -39t9.5 -55.5q0 -37 -15 -70.5t-45 -58.5t-74.5 -39.5t-103.5 -14.5q-63 0 -108 16t-73 43t-41 63t-13 77zM267 776q51 0 80.5 -25t29.5 -73q0 -49 -29.5 -76t-80.5 -27q-53 0 -81.5 27t-28.5 76q0 48 28.5 73t81.5 25z" />
    <glyph glyph-name="Agrave" unicode="&#xc0;" horiz-adv-x="637" 
d="M299 774q16 8 24 8q11 0 23 -8q71 -47 120.5 -110t80.5 -140.5t45.5 -167t14.5 -189.5q0 -32 -1.5 -66t-5.5 -70q-2 -16 -10 -21.5t-22 -7.5q-17 -2 -37.5 -2.5t-40.5 -0.5q-25 0 -47.5 0.5t-38.5 2.5q-20 3 -20 21q0 17 8 50t8 79q0 30 -15.5 43.5t-48.5 13.5
q-22 0 -42 -4.5t-35 -14t-24 -25t-9 -36.5q0 -34 5.5 -61t5.5 -47q2 -18 -16 -19q-17 -2 -38.5 -2.5t-45.5 -0.5h-35.5t-33.5 1q-14 1 -21.5 5t-9.5 18q-4 34 -5.5 68.5t-1.5 70.5q0 88 12.5 178t43.5 171.5t82.5 150t130.5 112.5zM142 997q15 5 35.5 9t41.5 6.5t39 4
t28 1.5q11 0 16 -5t10 -16q17 -48 43.5 -86t73.5 -64q13 -7 13 -16t-10 -14q-11 -6 -30 -7.5t-33 -1.5q-63 0 -110 19.5t-77.5 45.5t-45.5 53t-15 43q0 11 4 17t17 11zM242 321q9 0 31.5 8t54.5 11q18 2 30.5 2.5t21.5 2.5q16 4 16 24q0 24 -5 51t-13.5 53t-19.5 49t-24 38
q-8 10 -12 10q-6 0 -15 -10q-18 -22 -32 -51t-23.5 -60t-14.5 -61.5t-5 -54.5q0 -12 10 -12z" />
    <glyph glyph-name="Aacute" unicode="&#xc1;" horiz-adv-x="637" 
d="M30 162q0 88 12 179.5t42 174t82 150.5t133 108q16 8 24 8q11 0 23 -8q71 -47 120.5 -110t80.5 -140.5t45.5 -167t14.5 -189.5q0 -32 -1.5 -66t-5.5 -70q-2 -16 -10 -21.5t-22 -7.5q-17 -2 -37.5 -2.5t-40.5 -0.5q-25 0 -47.5 0.5t-38.5 2.5q-20 3 -20 21q0 17 8 50t8 79
q0 30 -15.5 43.5t-48.5 13.5q-22 0 -42 -4.5t-35 -14t-24 -25t-9 -36.5q0 -34 5.5 -61t5.5 -47q2 -18 -16 -19q-17 -2 -38.5 -2.5t-45.5 -0.5h-35.5t-33.5 1q-14 1 -21.5 5t-9.5 18q-4 34 -5.5 68.5t-1.5 70.5zM188 831q0 9 13 16q47 26 73.5 64t43.5 86q5 11 10 16t16 5
q10 0 28 -1.5t39 -4t41.5 -6.5t35.5 -9q13 -5 17 -11t4 -17q0 -16 -15 -43t-45.5 -53t-77.5 -45.5t-110 -19.5q-14 0 -33 1.5t-30 7.5q-10 5 -10 14zM242 321q9 0 31.5 8t54.5 11q18 2 30.5 2.5t21.5 2.5q16 4 16 24q0 24 -5 51t-13.5 53t-19.5 49t-24 38q-8 10 -12 10
q-6 0 -15 -10q-18 -22 -32 -51t-23.5 -60t-14.5 -61.5t-5 -54.5q0 -12 10 -12z" />
    <glyph glyph-name="Acircumflex" unicode="&#xc2;" horiz-adv-x="637" 
d="M299 774q16 8 24 8q11 0 23 -8q71 -47 120.5 -110t80.5 -140.5t45.5 -167t14.5 -189.5q0 -32 -1.5 -66t-5.5 -70q-2 -16 -10 -21.5t-22 -7.5q-17 -2 -37.5 -2.5t-40.5 -0.5q-25 0 -47.5 0.5t-38.5 2.5q-20 3 -20 21q0 17 8 50t8 79q0 30 -15.5 43.5t-48.5 13.5
q-22 0 -42 -4.5t-35 -14t-24 -25t-9 -36.5q0 -34 5.5 -61t5.5 -47q2 -18 -16 -19q-17 -2 -38.5 -2.5t-45.5 -0.5h-35.5t-33.5 1q-14 1 -21.5 5t-9.5 18q-4 34 -5.5 68.5t-1.5 70.5q0 88 12.5 178t43.5 171.5t82.5 150t130.5 112.5zM293 1014q7 5 13 6t11 1q18 0 45 -20
t54.5 -46.5t51 -53t33.5 -40.5q4 -5 4 -12q0 -9 -13.5 -17t-31.5 -13.5t-35 -9t-23 -3.5q-8 0 -13 3.5t-11 11.5q-15 18 -24.5 29t-16 16.5t-11 7t-9.5 1.5q-4 0 -9 -1.5t-11.5 -6.5t-16 -16t-23.5 -30q-10 -15 -24 -15q-6 0 -23 3t-35 9t-31.5 14t-13.5 17q0 14 21 38.5
t49 50t54.5 47t38.5 29.5zM242 321q9 0 31.5 8t54.5 11q18 2 30.5 2.5t21.5 2.5q16 4 16 24q0 24 -5 51t-13.5 53t-19.5 49t-24 38q-8 10 -12 10q-6 0 -15 -10q-18 -22 -32 -51t-23.5 -60t-14.5 -61.5t-5 -54.5q0 -12 10 -12z" />
    <glyph glyph-name="Atilde" unicode="&#xc3;" horiz-adv-x="637" 
d="M30 162q0 88 12 179.5t42 174t82 150.5t133 108q16 8 24 8q11 0 23 -8q71 -47 120.5 -110t80.5 -140.5t45.5 -167t14.5 -189.5q0 -32 -1.5 -66t-5.5 -70q-2 -16 -10 -21.5t-22 -7.5q-17 -2 -37.5 -2.5t-40.5 -0.5q-25 0 -47.5 0.5t-38.5 2.5q-20 3 -20 21q0 17 8 50t8 79
q0 30 -15.5 43.5t-48.5 13.5q-22 0 -42 -4.5t-35 -14t-24 -25t-9 -36.5q0 -34 5.5 -61t5.5 -47q2 -18 -16 -19q-17 -2 -38.5 -2.5t-45.5 -0.5h-35.5t-33.5 1q-14 1 -21.5 5t-9.5 18q-4 34 -5.5 68.5t-1.5 70.5zM248 980q14 0 36 -3.5t45.5 -8t45.5 -8t36 -3.5q23 0 39.5 8
t27.5 20q7 5 11 5q13 0 13 -23q0 -28 -5.5 -55.5t-18 -49t-32.5 -34.5t-49 -13q-19 0 -43.5 6t-50 12.5t-50 12.5t-42.5 6q-16 0 -27 -4.5t-23 -13.5l-9 -4.5t-8 -1.5q-11 0 -11 14q0 25 8 50t23 44.5t36.5 31.5t47.5 12zM242 321q9 0 31.5 8t54.5 11q18 2 30.5 2.5
t21.5 2.5q16 4 16 24q0 24 -5 51t-13.5 53t-19.5 49t-24 38q-8 10 -12 10q-6 0 -15 -10q-18 -22 -32 -51t-23.5 -60t-14.5 -61.5t-5 -54.5q0 -12 10 -12z" />
    <glyph glyph-name="Adieresis" unicode="&#xc4;" horiz-adv-x="637" 
d="M299 774q16 8 24 8q11 0 23 -8q71 -47 120.5 -110t80.5 -140.5t45.5 -167t14.5 -189.5q0 -32 -1.5 -66t-5.5 -70q-2 -16 -10 -21.5t-22 -7.5q-17 -2 -37.5 -2.5t-40.5 -0.5q-25 0 -47.5 0.5t-38.5 2.5q-20 3 -20 21q0 17 8 50t8 79q0 30 -15.5 43.5t-48.5 13.5
q-22 0 -42 -4.5t-35 -14t-24 -25t-9 -36.5q0 -34 5.5 -61t5.5 -47q2 -18 -16 -19q-17 -2 -38.5 -2.5t-45.5 -0.5h-35.5t-33.5 1q-14 1 -21.5 5t-9.5 18q-4 34 -5.5 68.5t-1.5 70.5q0 88 12.5 178t43.5 171.5t82.5 150t130.5 112.5zM242 321q9 0 31.5 8t54.5 11
q18 2 30.5 2.5t21.5 2.5q16 4 16 24q0 24 -5 51t-13.5 53t-19.5 49t-24 38q-8 10 -12 10q-6 0 -15 -10q-18 -22 -32 -51t-23.5 -60t-14.5 -61.5t-5 -54.5q0 -12 10 -12zM421 993q43 0 66.5 -22.5t23.5 -64.5q0 -41 -23.5 -62t-66.5 -21q-41 0 -65 21t-24 62q0 42 24 64.5
t65 22.5zM220 990q42 0 64.5 -22t22.5 -63q0 -40 -22.5 -60.5t-64.5 -20.5q-40 0 -64 20.5t-24 60.5q0 41 24 63t64 22z" />
    <glyph glyph-name="Aring" unicode="&#xc5;" horiz-adv-x="637" 
d="M30 162q0 88 12 179.5t42 174t82 150.5t133 108q16 8 24 8q11 0 23 -8q71 -47 120.5 -110t80.5 -140.5t45.5 -167t14.5 -189.5q0 -32 -1.5 -66t-5.5 -70q-2 -16 -10 -21.5t-22 -7.5q-17 -2 -37.5 -2.5t-40.5 -0.5q-25 0 -47.5 0.5t-38.5 2.5q-20 3 -20 21q0 17 8 50t8 79
q0 30 -15.5 43.5t-48.5 13.5q-22 0 -42 -4.5t-35 -14t-24 -25t-9 -36.5q0 -34 5.5 -61t5.5 -47q2 -18 -16 -19q-17 -2 -38.5 -2.5t-45.5 -0.5h-35.5t-33.5 1q-14 1 -21.5 5t-9.5 18q-4 34 -5.5 68.5t-1.5 70.5zM190 919q0 55 35 85t94 30q63 0 96 -30t33 -85q0 -54 -33 -82
t-96 -28q-59 0 -94 28t-35 82zM232 333q0 -12 10 -12q9 0 31.5 8t54.5 11q18 2 30.5 2.5t21.5 2.5q16 4 16 24q0 24 -5 51t-13.5 53t-19.5 49t-24 38q-8 10 -12 10q-6 0 -15 -10q-18 -22 -32 -51t-23.5 -60t-14.5 -61.5t-5 -54.5zM275 919q0 -18 12 -27.5t32 -9.5
q45 0 45 37q0 41 -45 41q-20 0 -32 -10.5t-12 -30.5z" />
    <glyph glyph-name="AE" unicode="&#xc6;" horiz-adv-x="910" 
d="M35 168q0 68 6.5 136t23 131t44.5 118t71 98q28 28 64 50t85.5 37.5t116 23.5t155.5 8q37 0 75.5 -0.5t75 -1t69 -2t57.5 -3.5q19 -1 19 -14q0 -5 -4.5 -22.5t-11 -39.5t-14 -45t-13.5 -38q-5 -11 -18 -11q-6 0 -21 5q-25 8 -63 16t-81 8q-38 0 -56.5 -12t-21.5 -36
q-5 -17 -2 -43.5t11 -46.5q17 -7 37 -4t49 3q17 0 40 1.5t53 -0.5q17 -2 28.5 -8t11.5 -15q0 -7 -3 -24t-8 -36.5t-10.5 -39t-10.5 -32.5q-4 -10 -7.5 -13t-9.5 -3q-5 0 -16.5 2.5t-25.5 5.5t-30.5 5.5t-31.5 2.5q-49 0 -69 -19.5t-20 -58.5q0 -50 14.5 -66.5t52.5 -16.5
q35 0 64 5t53.5 12.5t43.5 16t32 15.5q8 4 15 4t12.5 -12.5t10.5 -32t8.5 -42.5t6 -44.5t4 -38.5t1.5 -23q0 -26 -30 -28q-48 -2 -103 -3t-111 -1q-33 0 -67 0.5t-66 1t-60 1.5t-48 2q-25 2 -25 22q0 8 2 22.5t4.5 32t4.5 37t2 37.5q0 31 -16 44t-49 13q-21 0 -40 -4.5
t-33.5 -14t-23 -24.5t-8.5 -37q0 -33 5.5 -60.5t6.5 -46.5q0 -9 -3 -14t-14 -6q-16 -2 -37.5 -2.5t-45.5 -0.5h-35t-35 1q-11 0 -19.5 4.5t-10.5 18.5q-4 35 -5.5 71t-1.5 74zM229 333q0 -12 10 -12q8 0 29.5 8.5t50.5 12.5q23 3 38 3t26 1q10 1 13 5.5t3 15.5
q0 33 2.5 62.5t5 55t4.5 45t1 32.5q0 17 -17 17q-33 0 -63.5 -23.5t-53 -59.5t-36 -79.5t-13.5 -83.5z" />
    <glyph glyph-name="Ccedilla" unicode="&#xc7;" horiz-adv-x="579" 
d="M19 359q0 83 20 159.5t59 134.5t96.5 92.5t132.5 34.5q60 0 102.5 -19.5t70 -51t40.5 -71.5t13 -80q0 -21 -6 -35.5t-20 -28.5q-10 -12 -28 -26.5t-38 -26.5t-39 -20t-32 -8q-15 0 -15 21q0 11 1 25t1 27q0 23 -3 45t-10.5 39.5t-20 28.5t-31.5 11q-42 0 -64 -53.5
t-22 -150.5q0 -48 7.5 -81t21.5 -53.5t35.5 -29t48.5 -8.5q54 0 93.5 30.5t68.5 78.5q8 9 16 9q17 0 30 -30t13 -78q0 -34 -10.5 -65t-31.5 -57.5t-53 -46.5t-74 -32q-15 -4 -19 -16q-11 -24 -24.5 -44.5t-27.5 -36t-28.5 -24.5t-28.5 -9q-7 0 -24 1.5t-35 5t-31.5 10
t-13.5 16.5q0 8 9 14.5t26 18.5q16 11 25 19t13 13t5 8.5t1 6.5q0 6 -5.5 10.5t-22.5 9.5q-92 28 -141.5 105t-49.5 208z" />
    <glyph glyph-name="Egrave" unicode="&#xc8;" horiz-adv-x="571" 
d="M38 173q0 67 3 139t9 144.5t15.5 144t22.5 136.5q3 11 9.5 18.5t17.5 8.5q28 2 81 3.5t113 1.5q66 0 126.5 -2t98.5 -4q11 -1 15 -5t4 -9t-4.5 -22t-11 -39t-14 -44.5t-13.5 -39.5q-4 -11 -16 -11q-6 0 -13 2t-18 6q-23 8 -56.5 14.5t-78.5 6.5q-25 0 -40 -4t-24 -15
q-11 -13 -17 -42t-6 -58q0 -30 27 -30q26 0 60.5 8t77.5 8q31 0 51 -5.5t20 -19.5q0 -8 -3.5 -25t-8 -37.5t-10 -40t-10.5 -33.5q-3 -9 -6.5 -12t-9.5 -3q-11 0 -40 8t-64 8q-50 0 -69.5 -19.5t-19.5 -57.5q0 -26 3.5 -42.5t11 -25.5t20.5 -12.5t32 -3.5q67 0 114 15.5
t74 29.5q8 4 11 6t8 2q9 0 13 -10q5 -12 10.5 -37t10 -52.5t7 -53.5t2.5 -40q0 -26 -29 -28q-49 -2 -104.5 -3t-111.5 -1q-66 0 -126.5 1t-105.5 3q-17 1 -25.5 6t-9.5 23q-3 66 -3 144zM121 965q0 11 4 17t17 11q15 5 35.5 9t41.5 6.5t39 4t28 1.5q11 0 16 -5t10 -16
q17 -48 43.5 -86t73.5 -64q13 -7 13 -16t-10 -14q-11 -6 -30 -7.5t-33 -1.5q-63 0 -110 19.5t-77.5 45.5t-45.5 53t-15 43z" />
    <glyph glyph-name="Eacute" unicode="&#xc9;" horiz-adv-x="571" 
d="M88 737q3 11 9.5 18.5t17.5 8.5q28 2 81 3.5t113 1.5q66 0 126.5 -2t98.5 -4q11 -1 15 -5t4 -9t-4.5 -22t-11 -39t-14 -44.5t-13.5 -39.5q-4 -11 -16 -11q-6 0 -13 2t-18 6q-23 8 -56.5 14.5t-78.5 6.5q-25 0 -40 -4t-24 -15q-11 -13 -17 -42t-6 -58q0 -30 27 -30
q26 0 60.5 8t77.5 8q31 0 51 -5.5t20 -19.5q0 -8 -3.5 -25t-8 -37.5t-10 -40t-10.5 -33.5q-3 -9 -6.5 -12t-9.5 -3q-11 0 -40 8t-64 8q-50 0 -69.5 -19.5t-19.5 -57.5q0 -26 3.5 -42.5t11 -25.5t20.5 -12.5t32 -3.5q67 0 114 15.5t74 29.5q8 4 11 6t8 2q9 0 13 -10
q5 -12 10.5 -37t10 -52.5t7 -53.5t2.5 -40q0 -26 -29 -28q-49 -2 -104.5 -3t-111.5 -1q-66 0 -126.5 1t-105.5 3q-17 1 -25.5 6t-9.5 23q-3 66 -3 144q0 67 3 139t9 144.5t15.5 144t22.5 136.5zM201 843q47 26 73.5 64t43.5 86q5 11 10 16t16 5q10 0 28 -1.5t39 -4
t41.5 -6.5t35.5 -9q13 -5 17 -11t4 -17q0 -16 -15 -43t-45.5 -53t-77.5 -45.5t-110 -19.5q-14 0 -33 1.5t-30 7.5q-10 5 -10 14t13 16z" />
    <glyph glyph-name="Ecircumflex" unicode="&#xca;" horiz-adv-x="571" 
d="M38 173q0 67 3 139t9 144.5t15.5 144t22.5 136.5q3 11 9.5 18.5t17.5 8.5q28 2 81 3.5t113 1.5q66 0 126.5 -2t98.5 -4q11 -1 15 -5t4 -9t-4.5 -22t-11 -39t-14 -44.5t-13.5 -39.5q-4 -11 -16 -11q-6 0 -13 2t-18 6q-23 8 -56.5 14.5t-78.5 6.5q-25 0 -40 -4t-24 -15
q-11 -13 -17 -42t-6 -58q0 -30 27 -30q26 0 60.5 8t77.5 8q31 0 51 -5.5t20 -19.5q0 -8 -3.5 -25t-8 -37.5t-10 -40t-10.5 -33.5q-3 -9 -6.5 -12t-9.5 -3q-11 0 -40 8t-64 8q-50 0 -69.5 -19.5t-19.5 -57.5q0 -26 3.5 -42.5t11 -25.5t20.5 -12.5t32 -3.5q67 0 114 15.5
t74 29.5q8 4 11 6t8 2q9 0 13 -10q5 -12 10.5 -37t10 -52.5t7 -53.5t2.5 -40q0 -26 -29 -28q-49 -2 -104.5 -3t-111.5 -1q-66 0 -126.5 1t-105.5 3q-17 1 -25.5 6t-9.5 23q-3 66 -3 144zM130 845q0 13 21 37.5t49 50.5t54.5 48t38.5 29q7 5 13 6t11 1q18 0 45 -20
t54.5 -46.5t51 -53t33.5 -40.5q4 -5 4 -12q0 -9 -13.5 -17t-31.5 -13.5t-35 -9t-23 -3.5q-8 0 -13 3.5t-11 11.5q-15 18 -24.5 29t-16 16.5t-11 7t-9.5 1.5q-4 0 -9 -1.5t-11.5 -6.5t-16 -16t-23.5 -30q-10 -15 -24 -15q-6 0 -23 3t-35 9t-31.5 14t-13.5 17z" />
    <glyph glyph-name="Edieresis" unicode="&#xcb;" horiz-adv-x="571" 
d="M38 173q0 67 3 139t9 144.5t15.5 144t22.5 136.5q3 11 9.5 18.5t17.5 8.5q28 2 81 3.5t113 1.5q66 0 126.5 -2t98.5 -4q11 -1 15 -5t4 -9t-4.5 -22t-11 -39t-14 -44.5t-13.5 -39.5q-4 -11 -16 -11q-6 0 -13 2t-18 6q-23 8 -56.5 14.5t-78.5 6.5q-25 0 -40 -4t-24 -15
q-11 -13 -17 -42t-6 -58q0 -30 27 -30q26 0 60.5 8t77.5 8q31 0 51 -5.5t20 -19.5q0 -8 -3.5 -25t-8 -37.5t-10 -40t-10.5 -33.5q-3 -9 -6.5 -12t-9.5 -3q-11 0 -40 8t-64 8q-50 0 -69.5 -19.5t-19.5 -57.5q0 -26 3.5 -42.5t11 -25.5t20.5 -12.5t32 -3.5q67 0 114 15.5
t74 29.5q8 4 11 6t8 2q9 0 13 -10q5 -12 10.5 -37t10 -52.5t7 -53.5t2.5 -40q0 -26 -29 -28q-49 -2 -104.5 -3t-111.5 -1q-66 0 -126.5 1t-105.5 3q-17 1 -25.5 6t-9.5 23q-3 66 -3 144zM332 902q0 42 24 64.5t65 22.5q43 0 66.5 -22.5t23.5 -64.5q0 -41 -23.5 -62
t-66.5 -21q-41 0 -65 21t-24 62zM220 986q42 0 64.5 -22t22.5 -63q0 -40 -22.5 -60.5t-64.5 -20.5q-40 0 -64 20.5t-24 60.5q0 41 24 63t64 22z" />
    <glyph glyph-name="Igrave" unicode="&#xcc;" horiz-adv-x="338" 
d="M81 738q3 14 10 19t17 7q42 3 88 3q50 0 92 -3q18 -2 17 -18q0 -10 -7 -39.5t-16 -76t-16 -109.5t-7 -140q0 -75 6.5 -138t14 -110.5t14 -76.5t6.5 -37q0 -9 -4.5 -12t-13.5 -5q-23 -4 -47 -4h-48q-25 0 -49 0.5t-47 3.5q-11 2 -16 6.5t-9 17.5q-3 15 -6.5 45t-6.5 70.5
t-4.5 88t-1.5 97.5q0 171 13 275t21 136zM-6 965q0 11 4 17t17 11q15 5 35.5 9t41.5 6.5t39 4t28 1.5q11 0 16 -5t10 -16q17 -48 43.5 -86t73.5 -64q13 -7 13 -16t-10 -14q-11 -6 -30 -7.5t-33 -1.5q-63 0 -110 19.5t-77.5 45.5t-45.5 53t-15 43z" />
    <glyph glyph-name="Iacute" unicode="&#xcd;" horiz-adv-x="338" 
d="M81 738q3 14 10 19t17 7q42 3 88 3q50 0 92 -3q18 -2 17 -18q0 -10 -7 -39.5t-16 -76t-16 -109.5t-7 -140q0 -75 6.5 -138t14 -110.5t14 -76.5t6.5 -37q0 -9 -4.5 -12t-13.5 -5q-23 -4 -47 -4h-48q-25 0 -49 0.5t-47 3.5q-11 2 -16 6.5t-9 17.5q-3 15 -6.5 45t-6.5 70.5
t-4.5 88t-1.5 97.5q0 171 13 275t21 136zM74 843q47 26 73.5 64t43.5 86q5 11 10 16t16 5q10 0 28 -1.5t39 -4t41.5 -6.5t35.5 -9q13 -5 17 -11t4 -17q0 -16 -15 -43t-45.5 -53t-77.5 -45.5t-110 -19.5q-14 0 -33 1.5t-30 7.5q-10 5 -10 14t13 16z" />
    <glyph glyph-name="Icircumflex" unicode="&#xce;" horiz-adv-x="338" 
d="M81 738q3 14 10 19t17 7q42 3 88 3q50 0 92 -3q18 -2 17 -18q0 -10 -7 -39.5t-16 -76t-16 -109.5t-7 -140q0 -75 6.5 -138t14 -110.5t14 -76.5t6.5 -37q0 -9 -4.5 -12t-13.5 -5q-23 -4 -47 -4h-48q-25 0 -49 0.5t-47 3.5q-11 2 -16 6.5t-9 17.5q-3 15 -6.5 45t-6.5 70.5
t-4.5 88t-1.5 97.5q0 171 13 275t21 136zM166 1010q7 5 13 6t11 1q18 0 45 -20t54.5 -46.5t51 -53t33.5 -40.5q4 -5 4 -12q0 -9 -13.5 -17t-31.5 -13.5t-35 -9t-23 -3.5q-8 0 -13 3.5t-11 11.5q-15 18 -24.5 29t-16 16.5t-11 7t-9.5 1.5q-4 0 -9 -1.5t-11.5 -6.5t-16 -16
t-23.5 -30q-10 -15 -24 -15q-6 0 -23 3t-35 9t-31.5 14t-13.5 17q0 14 21 38.5t49 50t54.5 47t38.5 29.5z" />
    <glyph glyph-name="Idieresis" unicode="&#xcf;" horiz-adv-x="338" 
d="M47 327q0 171 13.5 275t20.5 136q3 14 10 19t17 7q42 3 88 3q50 0 92 -3q18 -2 17 -18q0 -10 -7 -39.5t-16 -76t-16 -109.5t-7 -140q0 -75 6.5 -138t14 -110.5t14 -76.5t6.5 -37q0 -9 -4.5 -12t-13.5 -5q-23 -4 -47 -4h-48q-25 0 -49 0.5t-47 3.5q-11 2 -16 6.5t-9 17.5
q-3 15 -6.5 45t-6.5 70.5t-4.5 88t-1.5 97.5zM294 989q43 0 66.5 -22.5t23.5 -64.5q0 -41 -23.5 -62t-66.5 -21q-41 0 -65 21t-24 62q0 42 24 64.5t65 22.5zM93 986q42 0 64.5 -22t22.5 -63q0 -40 -22.5 -60.5t-64.5 -20.5q-40 0 -64 20.5t-24 60.5q0 41 24 63t64 22z" />
    <glyph glyph-name="Eth" unicode="&#xd0;" horiz-adv-x="668" 
d="M3 373q0 11 -0.5 20.5t1.5 19.5q2 11 7.5 15t16.5 6q12 2 18.5 6.5t8.5 16.5q4 101 12.5 169.5t18.5 113.5q7 23 23 23q56 3 112 3q93 0 170 -17t132.5 -66t86 -137t30.5 -230q0 -77 -16 -136.5t-55 -100t-104 -61t-163 -20.5q-84 0 -131 1t-64 2q-23 1 -30 15
q-10 20 -17.5 90t-7.5 193q0 11 -5 16t-19 5q-13 0 -18 2.5t-6 13.5q-1 9 -1 18v19zM259 435q17 0 34.5 0.5t35.5 -0.5q19 0 21 -14q1 -10 2 -22t1 -24v-23.5t-2 -21.5q-2 -11 -6 -15t-18 -4q-10 0 -30.5 1.5t-38.5 1.5q-17 0 -17 -23q0 -91 26 -119q8 -9 19.5 -12t24.5 -3
q32 0 57.5 10.5t43.5 33.5t27.5 59.5t9.5 89.5q0 64 -12.5 110.5t-33.5 77t-48 45t-56 14.5q-22 0 -34 -16.5t-17.5 -39t-6.5 -46t-1 -38.5q0 -9 4 -15.5t15 -6.5z" />
    <glyph glyph-name="Ntilde" unicode="&#xd1;" horiz-adv-x="699" 
d="M44 359q0 65 2 126t6 112t10 88.5t13 55.5q8 21 28 24q15 1 32 1.5t34 0.5h32.5t28.5 -2q15 -1 26 -17q32 -43 81 -148.5t130 -266.5q4 -8 10 -8q11 0 11 15q0 79 -8.5 147.5t-18 121.5t-18 88t-8.5 48q0 18 18 20q16 2 38 2.5t45 0.5q20 0 38.5 -1t32.5 -2
q11 -1 17.5 -6t8.5 -17q7 -38 12 -86.5t8.5 -103t5 -113t1.5 -116.5q0 -83 -3.5 -160t-11.5 -134q-2 -15 -9.5 -21t-22.5 -8q-16 -2 -40 -2h-48h-31t-25 2q-17 2 -23 7t-10 21q-36 117 -78 214.5t-92 172.5q-9 13 -16 13t-10 -7t-3 -16q-1 -63 4.5 -129t12.5 -121
t13.5 -92.5t6.5 -42.5q0 -11 -5.5 -15t-14.5 -5q-15 -2 -37.5 -2.5t-45.5 -0.5t-43.5 1t-36.5 2q-23 2 -26 21q-11 77 -16 164.5t-5 173.5zM282 976q14 0 36 -3.5t45.5 -8t45.5 -8t36 -3.5q23 0 39.5 8t27.5 20q7 5 11 5q13 0 13 -23q0 -28 -5.5 -55.5t-18 -49t-32.5 -34.5
t-49 -13q-19 0 -43.5 6t-50 12.5t-50 12.5t-42.5 6q-16 0 -27 -4.5t-23 -13.5l-9 -4.5t-8 -1.5q-11 0 -11 14q0 25 8 50t23 44.5t36.5 31.5t47.5 12z" />
    <glyph glyph-name="Ograve" unicode="&#xd2;" 
d="M316 781q73 0 128 -41t92 -110t55.5 -158.5t18.5 -185.5q0 -63 -14.5 -117.5t-48.5 -95.5t-90 -64.5t-139 -23.5q-84 0 -141 23.5t-91.5 64.5t-49 95.5t-14.5 117.5q0 96 19 185.5t56 158.5t92 110t127 41zM317 179q46 0 70 33.5t24 111.5q0 60 -7 110.5t-20 87t-30 57
t-38 20.5q-22 0 -39.5 -20.5t-29.5 -57t-18.5 -87t-6.5 -109.5q0 -79 24.5 -112.5t70.5 -33.5zM118 969q0 11 4 17t17 11q15 5 35.5 9t41.5 6.5t39 4t28 1.5q11 0 16 -5t10 -16q17 -48 43.5 -86t73.5 -64q13 -7 13 -16t-10 -14q-11 -6 -30 -7.5t-33 -1.5q-63 0 -110 19.5
t-77.5 45.5t-45.5 53t-15 43z" />
    <glyph glyph-name="Oacute" unicode="&#xd3;" 
d="M316 781q73 0 128 -41t92 -110t55.5 -158.5t18.5 -185.5q0 -63 -14.5 -117.5t-48.5 -95.5t-90 -64.5t-139 -23.5q-84 0 -141 23.5t-91.5 64.5t-49 95.5t-14.5 117.5q0 96 19 185.5t56 158.5t92 110t127 41zM222 325q0 -79 24.5 -112.5t70.5 -33.5t70 33.5t24 111.5
q0 60 -7 110.5t-20 87t-30 57t-38 20.5q-22 0 -39.5 -20.5t-29.5 -57t-18.5 -87t-6.5 -109.5zM199 847q47 26 73.5 64t43.5 86q5 11 10 16t16 5q10 0 28 -1.5t39 -4t41.5 -6.5t35.5 -9q13 -5 17 -11t4 -17q0 -16 -15 -43t-45.5 -53t-77.5 -45.5t-110 -19.5q-14 0 -33 1.5
t-30 7.5q-10 5 -10 14t13 16z" />
    <glyph glyph-name="Ocircumflex" unicode="&#xd4;" 
d="M316 781q73 0 128 -41t92 -110t55.5 -158.5t18.5 -185.5q0 -63 -14.5 -117.5t-48.5 -95.5t-90 -64.5t-139 -23.5q-84 0 -141 23.5t-91.5 64.5t-49 95.5t-14.5 117.5q0 96 19 185.5t56 158.5t92 110t127 41zM222 325q0 -79 24.5 -112.5t70.5 -33.5t70 33.5t24 111.5
q0 60 -7 110.5t-20 87t-30 57t-38 20.5q-22 0 -39.5 -20.5t-29.5 -57t-18.5 -87t-6.5 -109.5zM128 849q0 13 21 37.5t49 50.5t54.5 48t38.5 29q7 5 13 6t11 1q18 0 45 -20t54.5 -46.5t51 -53t33.5 -40.5q4 -5 4 -12q0 -9 -13.5 -17t-31.5 -13.5t-35 -9t-23 -3.5
q-8 0 -13 3.5t-11 11.5q-15 18 -24.5 29t-16 16.5t-11 7t-9.5 1.5q-4 0 -9 -1.5t-11.5 -6.5t-16 -16t-23.5 -30q-10 -15 -24 -15q-6 0 -23 3t-35 9t-31.5 14t-13.5 17z" />
    <glyph glyph-name="Otilde" unicode="&#xd5;" 
d="M316 781q73 0 128 -41t92 -110t55.5 -158.5t18.5 -185.5q0 -63 -14.5 -117.5t-48.5 -95.5t-90 -64.5t-139 -23.5q-84 0 -141 23.5t-91.5 64.5t-49 95.5t-14.5 117.5q0 96 19 185.5t56 158.5t92 110t127 41zM317 179q46 0 70 33.5t24 111.5q0 60 -7 110.5t-20 87t-30 57
t-38 20.5q-22 0 -39.5 -20.5t-29.5 -57t-18.5 -87t-6.5 -109.5q0 -79 24.5 -112.5t70.5 -33.5zM246 980q14 0 36 -3.5t45.5 -8t45.5 -8t36 -3.5q23 0 39.5 8t27.5 20q7 5 11 5q13 0 13 -23q0 -28 -5.5 -55.5t-18 -49t-32.5 -34.5t-49 -13q-19 0 -43.5 6t-50 12.5t-50 12.5
t-42.5 6q-16 0 -27 -4.5t-23 -13.5l-9 -4.5t-8 -1.5q-11 0 -11 14q0 25 8 50t23 44.5t36.5 31.5t47.5 12z" />
    <glyph glyph-name="Odieresis" unicode="&#xd6;" 
d="M316 781q73 0 128 -41t92 -110t55.5 -158.5t18.5 -185.5q0 -63 -14.5 -117.5t-48.5 -95.5t-90 -64.5t-139 -23.5q-84 0 -141 23.5t-91.5 64.5t-49 95.5t-14.5 117.5q0 96 19 185.5t56 158.5t92 110t127 41zM222 325q0 -79 24.5 -112.5t70.5 -33.5t70 33.5t24 111.5
q0 60 -7 110.5t-20 87t-30 57t-38 20.5q-22 0 -39.5 -20.5t-29.5 -57t-18.5 -87t-6.5 -109.5zM330 906q0 42 24 64.5t65 22.5q43 0 66.5 -22.5t23.5 -64.5q0 -41 -23.5 -62t-66.5 -21q-41 0 -65 21t-24 62zM218 990q42 0 64.5 -22t22.5 -63q0 -40 -22.5 -60.5t-64.5 -20.5
q-40 0 -64 20.5t-24 60.5q0 41 24 63t64 22z" />
    <glyph glyph-name="multiply" unicode="&#xd7;" horiz-adv-x="519" 
d="M21 243q29 24 57.5 46t54.5 48q11 11 11 21t-9 20q-25 29 -53 53t-50 50q-8 10 -8 18q0 6 13.5 23.5t31.5 36t35.5 33t25.5 14.5t15 -10q20 -29 44 -57.5t50 -57.5q9 -10 18 -10q12 0 23 13q25 28 46 56.5t41 55.5q7 10 15 10q6 0 23.5 -13t36 -30.5t33.5 -35.5t15 -27
q0 -10 -8 -18q-23 -23 -47.5 -49.5t-50.5 -52.5q-10 -10 -10 -22q0 -10 11 -21q26 -26 55.5 -45.5t54.5 -44.5q8 -8 8 -17q0 -8 -6 -17q-6 -7 -21 -23.5t-32 -34t-33.5 -30.5t-24.5 -13t-18 10q-22 22 -42.5 48t-44.5 53q-10 11 -21 11q-10 0 -19 -10q-25 -29 -48 -55
t-44 -50q-9 -10 -20 -10q-8 0 -13 5q-22 22 -49.5 47t-47.5 48q-6 9 -6 17q0 9 8 17z" />
    <glyph glyph-name="Oslash" unicode="&#xd8;" 
d="M7 35q0 8 9 20q7 9 15.5 19t16.5 21q6 9 6 19q0 9 -3 16q-14 35 -21.5 74t-7.5 82q0 96 19 185t56 157.5t92 109.5t127 41q49 0 89 -19.5t75 -54.5q8 -8 13 -8q7 0 14 9q9 11 15 20t10 14q11 15 25 15q6 0 15.5 -3t18.5 -8t15.5 -11.5t6.5 -14.5q0 -4 -1 -8.5t-5 -9.5
q-10 -14 -22 -32t-28 -40q-8 -11 -8 -22q0 -6 4 -14q33 -66 45 -143.5t12 -162.5q0 -63 -14.5 -117.5t-48.5 -95.5t-90 -64.5t-139 -23.5q-56 0 -99 12t-78 29q-6 3 -12 3q-11 0 -18 -10l-8 -10t-7 -10q-10 -15 -22 -15q-7 0 -18 5t-22 12.5t-19 16.5t-8 17zM215 382
q0 -22 3 -39q3 -7 7 -7q7 0 13 8q36 46 72.5 96t68.5 94q7 10 7 21t-5.5 24t-15.5 24.5t-22.5 19.5t-26.5 8q-45 0 -73 -64.5t-28 -184.5zM239 184q0 -12 9 -21t21 -14.5t25.5 -8.5t22.5 -3q50 0 76.5 37t26.5 121v24.5t-1.5 38.5t-5 35.5t-9.5 15.5q-4 0 -10 -7
q-37 -47 -79 -98t-70 -100q-6 -10 -6 -20z" />
    <glyph glyph-name="Ugrave" unicode="&#xd9;" 
d="M71 744q2 9 8 13.5t11 5.5q14 2 37 2h49h43t34 -2q8 -1 12.5 -6t3.5 -14q-1 -16 -6.5 -55t-10.5 -91t-9.5 -111t-4.5 -115q0 -103 21.5 -145.5t62.5 -42.5q21 0 36.5 9.5t25 31t14 56.5t4.5 87q0 63 -3 124t-7 111t-7.5 87t-4.5 52q-1 10 1.5 15t12.5 7q12 2 30.5 2.5
t38.5 0.5h46.5t37.5 -2q16 -3 21 -17t11.5 -43t11.5 -76t8.5 -113t3.5 -155q0 -86 -13.5 -155t-46 -117.5t-87.5 -74.5t-139 -26q-146 0 -216.5 87.5t-70.5 268.5q0 88 5 155.5t11.5 116.5t13.5 81t11 48zM140 993q15 5 35.5 9t41.5 6.5t39 4t28 1.5q11 0 16 -5t10 -16
q17 -48 43.5 -86t73.5 -64q13 -7 13 -16t-10 -14q-11 -6 -30 -7.5t-33 -1.5q-63 0 -110 19.5t-77.5 45.5t-45.5 53t-15 43q0 11 4 17t17 11z" />
    <glyph glyph-name="Uacute" unicode="&#xda;" 
d="M71 744q2 9 8 13.5t11 5.5q14 2 37 2h49h43t34 -2q8 -1 12.5 -6t3.5 -14q-1 -16 -6.5 -55t-10.5 -91t-9.5 -111t-4.5 -115q0 -103 21.5 -145.5t62.5 -42.5q21 0 36.5 9.5t25 31t14 56.5t4.5 87q0 63 -3 124t-7 111t-7.5 87t-4.5 52q-1 10 1.5 15t12.5 7q12 2 30.5 2.5
t38.5 0.5h46.5t37.5 -2q16 -3 21 -17t11.5 -43t11.5 -76t8.5 -113t3.5 -155q0 -86 -13.5 -155t-46 -117.5t-87.5 -74.5t-139 -26q-146 0 -216.5 87.5t-70.5 268.5q0 88 5 155.5t11.5 116.5t13.5 81t11 48zM187 827q0 9 13 16q47 26 73.5 64t43.5 86q5 11 10 16t16 5
q10 0 28 -1.5t39 -4t41.5 -6.5t35.5 -9q13 -5 17 -11t4 -17q0 -16 -15 -43t-45.5 -53t-77.5 -45.5t-110 -19.5q-14 0 -33 1.5t-30 7.5q-10 5 -10 14z" />
    <glyph glyph-name="Ucircumflex" unicode="&#xdb;" 
d="M30 343q0 88 5 155.5t11.5 116.5t13.5 81t11 48q2 9 8 13.5t11 5.5q14 2 37 2h49h43t34 -2q8 -1 12.5 -6t3.5 -14q-1 -16 -6.5 -55t-10.5 -91t-9.5 -111t-4.5 -115q0 -103 21.5 -145.5t62.5 -42.5q21 0 36.5 9.5t25 31t14 56.5t4.5 87q0 63 -3 124t-7 111t-7.5 87
t-4.5 52q-1 10 1.5 15t12.5 7q12 2 30.5 2.5t38.5 0.5h46.5t37.5 -2q16 -3 21 -17t11.5 -43t11.5 -76t8.5 -113t3.5 -155q0 -86 -13.5 -155t-46 -117.5t-87.5 -74.5t-139 -26q-146 0 -216.5 87.5t-70.5 268.5zM129 845q0 13 21 37.5t49 50.5t54.5 48t38.5 29q7 5 13 6t11 1
q18 0 45 -20t54.5 -46.5t51 -53t33.5 -40.5q4 -5 4 -12q0 -9 -13.5 -17t-31.5 -13.5t-35 -9t-23 -3.5q-8 0 -13 3.5t-11 11.5q-15 18 -24.5 29t-16 16.5t-11 7t-9.5 1.5q-4 0 -9 -1.5t-11.5 -6.5t-16 -16t-23.5 -30q-10 -15 -24 -15q-6 0 -23 3t-35 9t-31.5 14t-13.5 17z
" />
    <glyph glyph-name="Udieresis" unicode="&#xdc;" 
d="M30 343q0 88 5 155.5t11.5 116.5t13.5 81t11 48q2 9 8 13.5t11 5.5q14 2 37 2h49h43t34 -2q8 -1 12.5 -6t3.5 -14q-1 -16 -6.5 -55t-10.5 -91t-9.5 -111t-4.5 -115q0 -103 21.5 -145.5t62.5 -42.5q21 0 36.5 9.5t25 31t14 56.5t4.5 87q0 63 -3 124t-7 111t-7.5 87
t-4.5 52q-1 10 1.5 15t12.5 7q12 2 30.5 2.5t38.5 0.5h46.5t37.5 -2q16 -3 21 -17t11.5 -43t11.5 -76t8.5 -113t3.5 -155q0 -86 -13.5 -155t-46 -117.5t-87.5 -74.5t-139 -26q-146 0 -216.5 87.5t-70.5 268.5zM420 989q43 0 66.5 -22.5t23.5 -64.5q0 -41 -23.5 -62
t-66.5 -21q-41 0 -65 21t-24 62q0 42 24 64.5t65 22.5zM131 901q0 41 24 63t64 22q42 0 64.5 -22t22.5 -63q0 -40 -22.5 -60.5t-64.5 -20.5q-40 0 -64 20.5t-24 60.5z" />
    <glyph glyph-name="Yacute" unicode="&#xdd;" horiz-adv-x="607" 
d="M18 728q0 22 7.5 28t23.5 8q18 2 38.5 2.5t42.5 0.5t41 -0.5t32 -1.5q26 -2 32 -10.5t4 -21.5q-3 -15 -6.5 -49.5t-3.5 -73.5q0 -37 6 -69t15 -58t20.5 -45t21.5 -30q10 -10 19 -10q6 0 15 7q11 12 22 36.5t19 55.5t13 66t5 69q0 46 -3 71t-3 38q0 21 22 23q11 1 29 1.5
t38 0.5q24 0 47 -1t38 -2q24 -2 31.5 -9.5t7.5 -30.5q0 -58 -10 -106t-25.5 -88.5t-35.5 -76t-40 -70.5q-18 -31 -35 -62.5t-30 -66t-21 -73.5t-8 -86q0 -22 3 -39.5t3 -31.5q0 -8 -5 -15t-22 -8q-18 -1 -44.5 -1.5t-55.5 -0.5t-56 0.5t-47 1.5t-25.5 12.5t-5.5 28.5
q0 36 7 67.5t17 58.5t19.5 48.5t14.5 36.5q3 9 3 16q0 9 -12 24q-18 22 -45.5 57.5t-53.5 88.5t-45 124.5t-19 165.5zM188 843q47 26 73.5 64t43.5 86q5 11 10 16t16 5q10 0 28 -1.5t39 -4t41.5 -6.5t35.5 -9q13 -5 17 -11t4 -17q0 -16 -15 -43t-45.5 -53t-77.5 -45.5
t-110 -19.5q-14 0 -33 1.5t-30 7.5q-10 5 -10 14t13 16z" />
    <glyph glyph-name="Thorn" unicode="&#xde;" horiz-adv-x="599" 
d="M81 738q3 14 10 19t17 7q44 3 91 3t89 -3q17 -1 17 -18q0 -7 -2.5 -18.5t-2.5 -19.5q0 -10 7 -14t29 -6q69 -5 116.5 -23t77 -48.5t43 -74t13.5 -99.5q0 -82 -26.5 -136t-65.5 -90.5t-84.5 -61t-83.5 -47.5q-22 -10 -28 -16.5t-6 -20.5t4.5 -29.5t4.5 -21.5
q0 -16 -19 -18q-23 -2 -47 -3t-48 -1q-25 0 -49 1t-47 3q-11 1 -16 6t-9 18q-3 15 -6.5 45t-6.5 70.5t-4.5 88t-1.5 97.5q0 171 13 275t21 136zM248 286q4 -20 21 -20q14 0 35 13t40.5 37t33 58.5t13.5 77.5q0 46 -18 71.5t-63 25.5q-15 0 -23 -2.5t-13 -7.5
q-17 -17 -24.5 -63.5t-7.5 -109.5q0 -26 1.5 -44.5t4.5 -35.5z" />
    <glyph glyph-name="germandbls" unicode="&#xdf;" horiz-adv-x="591" 
d="M43 545q6 76 25 130t52 88.5t81 50.5t112 16q50 0 90.5 -12.5t70 -37.5t45.5 -60.5t16 -82.5q0 -64 -23 -101.5t-59 -61.5q-9 -6 -9 -14q0 -9 11 -20q49 -49 83.5 -110.5t34.5 -136.5q0 -97 -46.5 -152t-127.5 -55q-30 0 -53 8t-39 20.5t-24.5 28t-8.5 30.5q0 17 14 17
q7 0 14 -7t20 -7q22 0 32 23.5t10 87.5q0 27 -6.5 52.5t-17 51t-25 51.5t-29.5 55q-8 14 -10.5 27t-2.5 24q0 20 7 35t19 29q20 24 34.5 52.5t14.5 66.5q0 37 -14 62.5t-40 25.5q-25 0 -39 -21t-22 -67q-3 -16 -5.5 -46t-4.5 -66.5t-3 -75.5t-1 -74q0 -69 4 -126.5t9 -102
t9 -75.5t4 -46q0 -9 -5.5 -13.5t-13.5 -5.5q-33 -3 -77 -3q-20 0 -40 0.5t-37 2.5q-8 1 -17 6.5t-11 22.5q-7 54 -9.5 114t-2.5 123q0 75 3 146.5t8 132.5z" />
    <glyph glyph-name="agrave" unicode="&#xe0;" horiz-adv-x="516" 
d="M17 189q0 54 20 92.5t53.5 65t77.5 41.5t93 23q23 4 34.5 10t11.5 20q0 23 -14.5 37t-50.5 14q-39 0 -78 -15t-73 -49q-9 -9 -17 -9q-7 0 -13 6q-14 14 -25.5 37t-11.5 54q0 27 16 50t45.5 40t72 26.5t96.5 9.5q63 0 106.5 -15.5t70 -45t38.5 -73t12 -99.5
q0 -23 -1 -51.5t-1.5 -59t-1.5 -61.5t-1 -59q0 -22 1.5 -44t3 -41.5t2.5 -34t1 -20.5q0 -25 -25 -31q-12 -3 -36.5 -4.5t-54.5 -2.5t-61 -1h-56q-115 0 -174.5 45t-59.5 145zM51 839q0 11 4 17t17 11q15 5 35.5 9t41.5 6.5t39 4t28 1.5q11 0 16 -5t10 -16q17 -48 43.5 -86
t73.5 -64q13 -7 13 -16t-10 -14q-11 -6 -30 -7.5t-33 -1.5q-63 0 -110 19.5t-77.5 45.5t-45.5 53t-15 43zM187 214q0 -33 21.5 -48t59.5 -15q24 0 32 10.5t8 33.5v65q0 23 -4 30.5t-17 7.5q-42 0 -71 -22.5t-29 -61.5z" />
    <glyph glyph-name="aacute" unicode="&#xe1;" horiz-adv-x="516" 
d="M17 189q0 54 20 92.5t53.5 65t77.5 41.5t93 23q23 4 34.5 10t11.5 20q0 23 -14.5 37t-50.5 14q-39 0 -78 -15t-73 -49q-9 -9 -17 -9q-7 0 -13 6q-14 14 -25.5 37t-11.5 54q0 27 16 50t45.5 40t72 26.5t96.5 9.5q63 0 106.5 -15.5t70 -45t38.5 -73t12 -99.5
q0 -23 -1 -51.5t-1.5 -59t-1.5 -61.5t-1 -59q0 -22 1.5 -44t3 -41.5t2.5 -34t1 -20.5q0 -25 -25 -31q-12 -3 -36.5 -4.5t-54.5 -2.5t-61 -1h-56q-115 0 -174.5 45t-59.5 145zM137 717q47 26 73.5 64t43.5 86q5 11 10 16t16 5q10 0 28 -1.5t39 -4t41.5 -6.5t35.5 -9
q13 -5 17 -11t4 -17q0 -16 -15 -43t-45.5 -53t-77.5 -45.5t-110 -19.5q-14 0 -33 1.5t-30 7.5q-10 5 -10 14t13 16zM187 214q0 -33 21.5 -48t59.5 -15q24 0 32 10.5t8 33.5v65q0 23 -4 30.5t-17 7.5q-42 0 -71 -22.5t-29 -61.5z" />
    <glyph glyph-name="acircumflex" unicode="&#xe2;" horiz-adv-x="516" 
d="M17 189q0 54 20 92.5t53.5 65t77.5 41.5t93 23q23 4 34.5 10t11.5 20q0 23 -14.5 37t-50.5 14q-39 0 -78 -15t-73 -49q-9 -9 -17 -9q-7 0 -13 6q-14 14 -25.5 37t-11.5 54q0 27 16 50t45.5 40t72 26.5t96.5 9.5q63 0 106.5 -15.5t70 -45t38.5 -73t12 -99.5
q0 -23 -1 -51.5t-1.5 -59t-1.5 -61.5t-1 -59q0 -22 1.5 -44t3 -41.5t2.5 -34t1 -20.5q0 -25 -25 -31q-12 -3 -36.5 -4.5t-54.5 -2.5t-61 -1h-56q-115 0 -174.5 45t-59.5 145zM66 719q0 13 21 37.5t49 50.5t54.5 48t38.5 29q7 5 13 6t11 1q18 0 45 -20t54.5 -46.5t51 -53
t33.5 -40.5q4 -5 4 -12q0 -9 -13.5 -17t-31.5 -13.5t-35 -9t-23 -3.5q-8 0 -13 3.5t-11 11.5q-15 18 -24.5 29t-16 16.5t-11 7t-9.5 1.5q-4 0 -9 -1.5t-11.5 -6.5t-16 -16t-23.5 -30q-10 -15 -24 -15q-6 0 -23 3t-35 9t-31.5 14t-13.5 17zM187 214q0 -33 21.5 -48t59.5 -15
q24 0 32 10.5t8 33.5v65q0 23 -4 30.5t-17 7.5q-42 0 -71 -22.5t-29 -61.5z" />
    <glyph glyph-name="atilde" unicode="&#xe3;" horiz-adv-x="516" 
d="M17 189q0 54 20 92.5t53.5 65t77.5 41.5t93 23q23 4 34.5 10t11.5 20q0 23 -14.5 37t-50.5 14q-39 0 -78 -15t-73 -49q-9 -9 -17 -9q-7 0 -13 6q-14 14 -25.5 37t-11.5 54q0 27 16 50t45.5 40t72 26.5t96.5 9.5q63 0 106.5 -15.5t70 -45t38.5 -73t12 -99.5
q0 -23 -1 -51.5t-1.5 -59t-1.5 -61.5t-1 -59q0 -22 1.5 -44t3 -41.5t2.5 -34t1 -20.5q0 -25 -25 -31q-12 -3 -36.5 -4.5t-54.5 -2.5t-61 -1h-56q-115 0 -174.5 45t-59.5 145zM185 850q14 0 36 -3.5t45.5 -8t45.5 -8t36 -3.5q23 0 39.5 8t27.5 20q7 5 11 5q13 0 13 -23
q0 -28 -5.5 -55.5t-18 -49t-32.5 -34.5t-49 -13q-19 0 -43.5 6t-50 12.5t-50 12.5t-42.5 6q-16 0 -27 -4.5t-23 -13.5l-9 -4.5t-8 -1.5q-11 0 -11 14q0 25 8 50t23 44.5t36.5 31.5t47.5 12zM268 151q24 0 32 10.5t8 33.5v65q0 23 -4 30.5t-17 7.5q-42 0 -71 -22.5t-29 -61.5
q0 -33 21.5 -48t59.5 -15z" />
    <glyph glyph-name="adieresis" unicode="&#xe4;" horiz-adv-x="516" 
d="M17 189q0 54 20 92.5t53.5 65t77.5 41.5t93 23q23 4 34.5 10t11.5 20q0 23 -14.5 37t-50.5 14q-39 0 -78 -15t-73 -49q-9 -9 -17 -9q-7 0 -13 6q-14 14 -25.5 37t-11.5 54q0 27 16 50t45.5 40t72 26.5t96.5 9.5q63 0 106.5 -15.5t70 -45t38.5 -73t12 -99.5
q0 -23 -1 -51.5t-1.5 -59t-1.5 -61.5t-1 -59q0 -22 1.5 -44t3 -41.5t2.5 -34t1 -20.5q0 -25 -25 -31q-12 -3 -36.5 -4.5t-54.5 -2.5t-61 -1h-56q-115 0 -174.5 45t-59.5 145zM356 863q43 0 66.5 -22.5t23.5 -64.5q0 -41 -23.5 -62t-66.5 -21q-41 0 -65 21t-24 62
q0 42 24 64.5t65 22.5zM67 775q0 41 24 63t64 22q42 0 64.5 -22t22.5 -63q0 -40 -22.5 -60.5t-64.5 -20.5q-40 0 -64 20.5t-24 60.5zM268 151q24 0 32 10.5t8 33.5v65q0 23 -4 30.5t-17 7.5q-42 0 -71 -22.5t-29 -61.5q0 -33 21.5 -48t59.5 -15z" />
    <glyph glyph-name="aring" unicode="&#xe5;" horiz-adv-x="516" 
d="M17 189q0 54 20 92.5t53.5 65t77.5 41.5t93 23q23 4 34.5 10t11.5 20q0 23 -14.5 37t-50.5 14q-39 0 -78 -15t-73 -49q-9 -9 -17 -9q-7 0 -13 6q-14 14 -25.5 37t-11.5 54q0 27 16 50t45.5 40t72 26.5t96.5 9.5q63 0 106.5 -15.5t70 -45t38.5 -73t12 -99.5
q0 -23 -1 -51.5t-1.5 -59t-1.5 -61.5t-1 -59q0 -22 1.5 -44t3 -41.5t2.5 -34t1 -20.5q0 -25 -25 -31q-12 -3 -36.5 -4.5t-54.5 -2.5t-61 -1h-56q-115 0 -174.5 45t-59.5 145zM124 783q0 55 35 85t94 30q63 0 96 -30t33 -85q0 -54 -33 -82t-96 -28q-59 0 -94 28t-35 82z
M187 214q0 -33 21.5 -48t59.5 -15q24 0 32 10.5t8 33.5v65q0 23 -4 30.5t-17 7.5q-42 0 -71 -22.5t-29 -61.5zM209 783q0 -18 12 -27.5t32 -9.5q45 0 45 37q0 41 -45 41q-20 0 -32 -10.5t-12 -30.5z" />
    <glyph glyph-name="ae" unicode="&#xe6;" horiz-adv-x="784" 
d="M258 411q20 4 32.5 9.5t12.5 19.5q0 23 -15 37.5t-51 14.5q-35 0 -71.5 -13.5t-67.5 -44.5q-9 -9 -17 -9q-7 0 -14 7q-13 13 -24.5 34t-11.5 50q0 27 15 50t42.5 40t67 26.5t87.5 9.5q59 0 96.5 -17.5t63.5 -39.5q8 -7 15 -7q4 0 16 7q32 24 69.5 40t85.5 16
q36 0 67.5 -10t54.5 -31t36.5 -52t13.5 -73q0 -64 -23.5 -103t-58.5 -62.5t-75.5 -37t-74.5 -27.5q-25 -8 -36 -16.5t-11 -28.5q0 -44 59 -44q26 0 52.5 5.5t51 16t45.5 25.5t36 34q8 7 15 7q9 0 13.5 -8.5t7 -19.5t3 -22.5t0.5 -16.5q0 -56 -28 -91.5t-76 -56t-113.5 -28.5
t-140.5 -8q-81 0 -152.5 5.5t-125 25t-84.5 58t-31 103.5q0 56 20 95.5t53.5 66t77.5 42t93 22.5zM184 214q0 -32 21.5 -48t60.5 -16q27 0 33 12t6 32v71q0 15 -4 24t-18 9q-41 0 -70 -22.5t-29 -61.5zM466 371q0 -7 2 -12t9 -5q4 0 8.5 1t11.5 5q15 9 34 18.5t35 21
t27 25.5t11 32q0 20 -11.5 32.5t-33.5 12.5q-24 0 -41.5 -12t-29 -31t-17 -42t-5.5 -46z" />
    <glyph glyph-name="ccedilla" unicode="&#xe7;" horiz-adv-x="470" 
d="M276 642q44 0 76.5 -14t54.5 -38t32.5 -56.5t10.5 -69.5q0 -24 -12 -44t-30 -35t-40 -23.5t-42 -8.5t-21 16q-2 23 -3.5 44.5t-5.5 38.5t-12.5 27.5t-23.5 10.5q-28 0 -45.5 -40t-17.5 -115q0 -31 3.5 -57t13 -45t25.5 -29.5t40 -10.5t43 8t34 21t26 29.5t19 32.5
q4 8 13 8q6 0 9 -4q11 -17 22 -38t11 -53q0 -55 -30 -99t-88 -64q-9 -4 -13.5 -9t-6.5 -11q-9 -26 -21.5 -47.5t-26 -38t-28 -25.5t-27.5 -9q-7 0 -26 2t-38 6.5t-34 11t-15 16.5q0 8 10.5 15.5t27.5 19.5q16 12 25 20t13.5 13.5t5.5 9t1 6.5q0 5 -3.5 9t-19.5 9
q-37 11 -64 35t-45 58.5t-27 78t-9 92.5q0 89 20 154.5t54.5 108t82 63t102.5 20.5z" />
    <glyph glyph-name="egrave" unicode="&#xe8;" horiz-adv-x="497" 
d="M293 641q38 0 71 -10t57 -31t38 -52t14 -73q0 -64 -23.5 -102.5t-59 -62t-75.5 -37t-73 -28.5q-23 -8 -33.5 -16t-10.5 -21q0 -22 16.5 -37t52.5 -15q52 0 97 21.5t74 59.5q10 8 15 8q11 0 18 -19t7 -54q0 -43 -18 -77.5t-48.5 -58.5t-70.5 -36.5t-84 -12.5
q-67 0 -113 24t-74.5 66t-40.5 97.5t-12 118.5q0 93 22 159t59.5 108t88 61.5t106.5 19.5zM83 867q15 5 35.5 9t41.5 6.5t39 4t28 1.5q11 0 16 -5t10 -16q17 -48 43.5 -86t73.5 -64q13 -7 13 -16t-10 -14q-11 -6 -30 -7.5t-33 -1.5q-63 0 -110 19.5t-77.5 45.5t-45.5 53
t-15 43q0 11 4 17t17 11zM190 355q9 0 19 5q16 8 34.5 17.5t35 21t27.5 26t11 32.5q0 20 -12 32.5t-34 12.5q-21 0 -38 -10.5t-29 -28t-19 -41t-7 -49.5q0 -8 2.5 -13t9.5 -5z" />
    <glyph glyph-name="eacute" unicode="&#xe9;" horiz-adv-x="497" 
d="M293 641q38 0 71 -10t57 -31t38 -52t14 -73q0 -64 -23.5 -102.5t-59 -62t-75.5 -37t-73 -28.5q-23 -8 -33.5 -16t-10.5 -21q0 -22 16.5 -37t52.5 -15q52 0 97 21.5t74 59.5q10 8 15 8q11 0 18 -19t7 -54q0 -43 -18 -77.5t-48.5 -58.5t-70.5 -36.5t-84 -12.5
q-67 0 -113 24t-74.5 66t-40.5 97.5t-12 118.5q0 93 22 159t59.5 108t88 61.5t106.5 19.5zM147 701q0 9 13 16q47 26 73.5 64t43.5 86q5 11 10 16t16 5q10 0 28 -1.5t39 -4t41.5 -6.5t35.5 -9q13 -5 17 -11t4 -17q0 -16 -15 -43t-45.5 -53t-77.5 -45.5t-110 -19.5
q-14 0 -33 1.5t-30 7.5q-10 5 -10 14zM190 355q9 0 19 5q16 8 34.5 17.5t35 21t27.5 26t11 32.5q0 20 -12 32.5t-34 12.5q-21 0 -38 -10.5t-29 -28t-19 -41t-7 -49.5q0 -8 2.5 -13t9.5 -5z" />
    <glyph glyph-name="ecircumflex" unicode="&#xea;" horiz-adv-x="497" 
d="M293 641q38 0 71 -10t57 -31t38 -52t14 -73q0 -64 -23.5 -102.5t-59 -62t-75.5 -37t-73 -28.5q-23 -8 -33.5 -16t-10.5 -21q0 -22 16.5 -37t52.5 -15q52 0 97 21.5t74 59.5q10 8 15 8q11 0 18 -19t7 -54q0 -43 -18 -77.5t-48.5 -58.5t-70.5 -36.5t-84 -12.5
q-67 0 -113 24t-74.5 66t-40.5 97.5t-12 118.5q0 93 22 159t59.5 108t88 61.5t106.5 19.5zM248 884q7 5 13 6t11 1q18 0 45 -20t54.5 -46.5t51 -53t33.5 -40.5q4 -5 4 -12q0 -9 -13.5 -17t-31.5 -13.5t-35 -9t-23 -3.5q-8 0 -13 3.5t-11 11.5q-15 18 -24.5 29t-16 16.5
t-11 7t-9.5 1.5q-4 0 -9 -1.5t-11.5 -6.5t-16 -16t-23.5 -30q-10 -15 -24 -15q-6 0 -23 3t-35 9t-31.5 14t-13.5 17q0 14 21 38.5t49 50t54.5 47t38.5 29.5zM190 355q9 0 19 5q16 8 34.5 17.5t35 21t27.5 26t11 32.5q0 20 -12 32.5t-34 12.5q-21 0 -38 -10.5t-29 -28
t-19 -41t-7 -49.5q0 -8 2.5 -13t9.5 -5z" />
    <glyph glyph-name="edieresis" unicode="&#xeb;" horiz-adv-x="497" 
d="M293 641q38 0 71 -10t57 -31t38 -52t14 -73q0 -64 -23.5 -102.5t-59 -62t-75.5 -37t-73 -28.5q-23 -8 -33.5 -16t-10.5 -21q0 -22 16.5 -37t52.5 -15q52 0 97 21.5t74 59.5q10 8 15 8q11 0 18 -19t7 -54q0 -43 -18 -77.5t-48.5 -58.5t-70.5 -36.5t-84 -12.5
q-67 0 -113 24t-74.5 66t-40.5 97.5t-12 118.5q0 93 22 159t59.5 108t88 61.5t106.5 19.5zM287 776q0 42 24 64.5t65 22.5q43 0 66.5 -22.5t23.5 -64.5q0 -41 -23.5 -62t-66.5 -21q-41 0 -65 21t-24 62zM87 775q0 41 24 63t64 22q42 0 64.5 -22t22.5 -63q0 -40 -22.5 -60.5
t-64.5 -20.5q-40 0 -64 20.5t-24 60.5zM190 355q9 0 19 5q16 8 34.5 17.5t35 21t27.5 26t11 32.5q0 20 -12 32.5t-34 12.5q-21 0 -38 -10.5t-29 -28t-19 -41t-7 -49.5q0 -8 2.5 -13t9.5 -5z" />
    <glyph glyph-name="igrave" unicode="&#xec;" horiz-adv-x="281" 
d="M36 254q0 91 5 182.5t20 166.5q3 15 10.5 19.5t17.5 5.5q17 2 32 2h29q15 0 30 -0.5t32 -1.5q23 -2 23 -20q0 -8 -1 -28.5t-2.5 -49.5t-2.5 -65t-1 -76q0 -75 4 -137t9.5 -110t9.5 -79.5t4 -44.5q0 -9 -5.5 -13t-13.5 -5q-36 -3 -81 -3q-44 0 -82 3q-8 1 -15.5 5.5
t-9.5 20.5q-8 51 -10 108.5t-2 119.5zM28 861q22 8 50 13t54 5q11 0 16 -5t10 -17q12 -44 29 -80.5t50 -58.5q13 -9 13 -17q0 -9 -9 -13.5t-21 -6.5t-24 -2.5t-18 -0.5q-44 0 -76 18.5t-53 44t-31.5 51.5t-10.5 41q0 11 4.5 17t16.5 11z" />
    <glyph glyph-name="iacute" unicode="&#xed;" horiz-adv-x="281" 
d="M61 603q2 15 10 19.5t18 5.5q17 2 32 2h29q15 0 30 -0.5t32 -1.5q23 -2 23 -20q0 -8 -1 -28.5t-2.5 -49.5t-2.5 -65t-1 -76q0 -75 4 -137t9.5 -110t9.5 -79.5t4 -44.5q0 -9 -5.5 -13t-13.5 -5q-36 -3 -81 -3q-44 0 -82 3q-8 1 -15.5 5.5t-9.5 20.5q-8 51 -10 108.5
t-2 119.5q0 91 5.5 182t19.5 167zM60 701q0 8 13 17q33 22 50 58.5t29 80.5q5 12 10 17t16 5q26 0 54 -5t50 -13q12 -5 16.5 -11t4.5 -17q0 -15 -10 -41t-31 -51.5t-53 -44t-76 -18.5q-14 0 -33 1.5t-30 7.5q-10 5 -10 14z" />
    <glyph glyph-name="icircumflex" unicode="&#xee;" horiz-adv-x="281" 
d="M61 603q2 15 10 19.5t18 5.5q17 2 32 2h29q15 0 30 -0.5t32 -1.5q23 -2 23 -20q0 -8 -1 -28.5t-2.5 -49.5t-2.5 -65t-1 -76q0 -75 4 -137t9.5 -110t9.5 -79.5t4 -44.5q0 -9 -5.5 -13t-13.5 -5q-36 -3 -81 -3q-44 0 -82 3q-8 1 -15.5 5.5t-9.5 20.5q-8 51 -10 108.5
t-2 119.5q0 91 5.5 182t19.5 167zM130 873q6 5 11 6t9 1q13 0 37 -20t48 -47t42 -54t18 -40q0 -9 -10.5 -16.5t-24 -13.5t-27 -9.5t-19.5 -3.5t-11.5 5t-16.5 22q-17 20 -23 26t-13 6q-6 0 -12 -6t-24 -26q-10 -16 -15.5 -21t-11.5 -5t-19.5 3.5t-27 9.5t-24 13.5
t-10.5 16.5q0 13 15.5 35.5t36 46t41.5 43.5t31 28z" />
    <glyph glyph-name="idieresis" unicode="&#xef;" horiz-adv-x="281" 
d="M61 603q2 15 10 19.5t18 5.5q17 2 32 2h29q15 0 30 -0.5t32 -1.5q23 -2 23 -20q0 -8 -1 -28.5t-2.5 -49.5t-2.5 -65t-1 -76q0 -75 4 -137t9.5 -110t9.5 -79.5t4 -44.5q0 -9 -5.5 -13t-13.5 -5q-36 -3 -81 -3q-44 0 -82 3q-8 1 -15.5 5.5t-9.5 20.5q-8 51 -10 108.5
t-2 119.5q0 91 5.5 182t19.5 167zM166 767q0 35 18 54t49 19q32 0 49 -19t17 -54t-17 -52.5t-49 -17.5q-31 0 -49 17.5t-18 52.5zM84 838q31 0 48 -19t17 -53q0 -33 -17 -50.5t-48 -17.5q-29 0 -46.5 17.5t-17.5 50.5q0 34 17.5 53t46.5 19z" />
    <glyph glyph-name="eth" unicode="&#xf0;" horiz-adv-x="557" 
d="M26 260q0 72 13 128t36 94.5t56 58.5t72 20q38 0 67 -17.5t47 -35.5q4 -4 9 -4q11 0 11 13q0 10 -7.5 29.5t-18.5 39t-24.5 34t-24.5 14.5q-12 0 -30.5 -4.5t-36.5 -10.5t-33 -10.5t-21 -4.5q-8 0 -13.5 5.5t-9 13.5t-5 17t-1.5 16q0 12 6 17t23 9q26 6 37 9t11 8
q0 7 -14 13t-46 17t-40.5 16.5t-8.5 12.5q0 22 55 44q16 8 33 11t34 3q8 0 16.5 -2t16.5 -4q29 -9 49 -24t32 -15q13 0 24.5 7.5t22.5 15.5q13 10 21.5 16t18.5 6q11 0 24.5 -6t24.5 -15.5t18.5 -22t7.5 -26.5q0 -8 -7.5 -14.5t-33.5 -20.5q-8 -4 -14 -7.5t-6 -10.5
q0 -4 2 -7t5 -8q53 -62 77.5 -143t24.5 -172q0 -82 -11 -150.5t-39 -118.5t-75 -78t-119 -28q-133 0 -194.5 70.5t-61.5 201.5zM281 129q29 0 45.5 37.5t16.5 116.5q0 72 -19 104.5t-48 32.5t-46 -32.5t-17 -110.5q0 -82 17.5 -115t50.5 -33z" />
    <glyph glyph-name="ntilde" unicode="&#xf1;" horiz-adv-x="549" 
d="M45 584q2 24 14.5 32.5t32.5 10.5q14 1 29 1.5t30 0.5q13 0 25 -0.5t21 -1.5q25 -1 25 -23q0 -19 14 -19q11 0 24.5 8.5t30.5 18t38.5 18t49.5 8.5q36 0 62 -13.5t43.5 -44t26 -79t8.5 -118.5q0 -57 -2.5 -113.5t-5.5 -104.5t-6.5 -84t-6.5 -52q-4 -26 -28 -29
q-12 -2 -28 -2h-33q-19 0 -36.5 0.5t-33.5 1.5q-22 3 -22 21q0 17 2.5 54.5t5 85.5t5 101.5t2.5 102.5q0 54 -10.5 79.5t-38.5 25.5t-46 -18q-13 -13 -18.5 -37.5t-5.5 -79.5q0 -56 2 -107t5 -92.5t5 -70t2 -39.5q0 -25 -26 -26q-14 -1 -28 -1.5t-28 -0.5q-19 0 -36 0.5
t-31 1.5q-13 1 -20.5 6.5t-9.5 25.5q-5 58 -8.5 130.5t-3.5 157.5q0 61 2 127t7 137zM208 850q14 0 36 -3.5t45.5 -8t45.5 -8t36 -3.5q23 0 39.5 8t27.5 20q7 5 11 5q13 0 13 -23q0 -28 -5.5 -55.5t-18 -49t-32.5 -34.5t-49 -13q-19 0 -43.5 6t-50 12.5t-50 12.5t-42.5 6
q-16 0 -27 -4.5t-23 -13.5l-9 -4.5t-8 -1.5q-11 0 -11 14q0 25 8 50t23 44.5t36.5 31.5t47.5 12z" />
    <glyph glyph-name="ograve" unicode="&#xf2;" horiz-adv-x="529" 
d="M18 310q0 74 16 135.5t47.5 105t79.5 67.5t111 24t108.5 -23t74.5 -66.5t42.5 -104.5t13.5 -138q0 -85 -19.5 -146t-53.5 -100.5t-80 -58t-100 -18.5q-53 0 -97 18.5t-76 58t-49.5 100.5t-17.5 146zM264 160q39 0 55 39.5t16 124.5q0 87 -18.5 128t-51.5 41
q-35 0 -53.5 -41t-18.5 -128q0 -86 16.5 -125t54.5 -39zM90 867q15 5 35.5 9t41.5 6.5t39 4t28 1.5q11 0 16 -5t10 -16q17 -48 43.5 -86t73.5 -64q13 -7 13 -16t-10 -14q-11 -6 -30 -7.5t-33 -1.5q-63 0 -110 19.5t-77.5 45.5t-45.5 53t-15 43q0 11 4 17t17 11z" />
    <glyph glyph-name="oacute" unicode="&#xf3;" horiz-adv-x="529" 
d="M272 642q63 0 108.5 -23t74.5 -66.5t42.5 -104.5t13.5 -138q0 -85 -19.5 -146t-53.5 -100.5t-80 -58t-100 -18.5q-53 0 -97 18.5t-76 58t-49.5 100.5t-17.5 146q0 74 16 135.5t47.5 105t79.5 67.5t111 24zM193 324q0 -86 16.5 -125t54.5 -39q39 0 55 39.5t16 124.5
q0 87 -18.5 128t-51.5 41q-35 0 -53.5 -41t-18.5 -128zM149 717q47 26 73.5 64t43.5 86q5 11 10 16t16 5q10 0 28 -1.5t39 -4t41.5 -6.5t35.5 -9q13 -5 17 -11t4 -17q0 -16 -15 -43t-45.5 -53t-77.5 -45.5t-110 -19.5q-14 0 -33 1.5t-30 7.5q-10 5 -10 14t13 16z" />
    <glyph glyph-name="ocircumflex" unicode="&#xf4;" horiz-adv-x="529" 
d="M272 642q63 0 108.5 -23t74.5 -66.5t42.5 -104.5t13.5 -138q0 -85 -19.5 -146t-53.5 -100.5t-80 -58t-100 -18.5q-53 0 -97 18.5t-76 58t-49.5 100.5t-17.5 146q0 74 16 135.5t47.5 105t79.5 67.5t111 24zM78 719q0 13 21 37.5t49 50.5t54.5 48t38.5 29q7 5 13 6t11 1
q18 0 45 -20t54.5 -46.5t51 -53t33.5 -40.5q4 -5 4 -12q0 -9 -13.5 -17t-31.5 -13.5t-35 -9t-23 -3.5q-8 0 -13 3.5t-11 11.5q-15 18 -24.5 29t-16 16.5t-11 7t-9.5 1.5q-4 0 -9 -1.5t-11.5 -6.5t-16 -16t-23.5 -30q-10 -15 -24 -15q-6 0 -23 3t-35 9t-31.5 14t-13.5 17z
M264 160q39 0 55 39.5t16 124.5q0 87 -18.5 128t-51.5 41q-35 0 -53.5 -41t-18.5 -128q0 -86 16.5 -125t54.5 -39z" />
    <glyph glyph-name="otilde" unicode="&#xf5;" horiz-adv-x="529" 
d="M18 310q0 74 16 135.5t47.5 105t79.5 67.5t111 24t108.5 -23t74.5 -66.5t42.5 -104.5t13.5 -138q0 -85 -19.5 -146t-53.5 -100.5t-80 -58t-100 -18.5q-53 0 -97 18.5t-76 58t-49.5 100.5t-17.5 146zM196 850q14 0 36 -3.5t45.5 -8t45.5 -8t36 -3.5q23 0 39.5 8t27.5 20
q7 5 11 5q13 0 13 -23q0 -28 -5.5 -55.5t-18 -49t-32.5 -34.5t-49 -13q-19 0 -43.5 6t-50 12.5t-50 12.5t-42.5 6q-16 0 -27 -4.5t-23 -13.5l-9 -4.5t-8 -1.5q-11 0 -11 14q0 25 8 50t23 44.5t36.5 31.5t47.5 12zM193 324q0 -86 16.5 -125t54.5 -39q39 0 55 39.5t16 124.5
q0 87 -18.5 128t-51.5 41q-35 0 -53.5 -41t-18.5 -128z" />
    <glyph glyph-name="odieresis" unicode="&#xf6;" horiz-adv-x="529" 
d="M18 310q0 74 16 135.5t47.5 105t79.5 67.5t111 24t108.5 -23t74.5 -66.5t42.5 -104.5t13.5 -138q0 -85 -19.5 -146t-53.5 -100.5t-80 -58t-100 -18.5q-53 0 -97 18.5t-76 58t-49.5 100.5t-17.5 146zM193 324q0 -86 16.5 -125t54.5 -39q39 0 55 39.5t16 124.5
q0 87 -18.5 128t-51.5 41q-35 0 -53.5 -41t-18.5 -128zM369 863q43 0 66.5 -22.5t23.5 -64.5q0 -41 -23.5 -62t-66.5 -21q-41 0 -65 21t-24 62q0 42 24 64.5t65 22.5zM168 860q42 0 64.5 -22t22.5 -63q0 -40 -22.5 -60.5t-64.5 -20.5q-40 0 -64 20.5t-24 60.5q0 41 24 63
t64 22z" />
    <glyph glyph-name="divide" unicode="&#xf7;" horiz-adv-x="499" 
d="M29 420q4 21 26 21q9 0 28 -0.5t45 -2t57 -2.5t63 -1q75 0 129 3.5t74 2.5q18 0 25 -9t7 -27q0 -8 -0.5 -22t-2 -29.5l-3 -31t-4.5 -27.5q-3 -14 -8.5 -21.5t-16.5 -7.5q-16 -1 -66 4t-128 5q-85 0 -137.5 -5t-71.5 -4q-28 0 -28 37q0 29 2 57.5t10 59.5zM151 158
q0 36 28 56.5t76 20.5q49 0 76 -20.5t27 -56.5t-27 -55t-76 -19q-48 0 -76 19t-28 55zM255 622q49 0 76 -20.5t27 -56.5t-27 -55t-76 -19q-48 0 -76 19t-28 55t28 56.5t76 20.5z" />
    <glyph glyph-name="oslash" unicode="&#xf8;" horiz-adv-x="529" 
d="M10 52q8 11 18 21t18 24q5 8 5 16q0 7 -3 14q-14 36 -22 81t-8 102q0 74 16 135.5t47.5 105t79.5 67.5t111 24q39 0 69.5 -11.5t58.5 -25.5q6 -3 10 -3q8 0 14 8q8 9 13 16.5t9 12.5q10 14 22 14q6 0 15.5 -3t18.5 -8t16 -11.5t7 -13.5t-7 -17q-8 -12 -18.5 -27
t-22.5 -32q-4 -10 -4 -15q0 -6 3 -12q20 -40 27.5 -91.5t7.5 -112.5q0 -85 -19.5 -146t-53.5 -100.5t-80 -58t-100 -18.5q-37 0 -70.5 8.5t-60.5 28.5q-5 4 -11 4t-10 -6q-5 -9 -16.5 -24t-22.5 -15q-4 0 -12 3q-6 2 -15 7t-17.5 12t-14.5 14.5t-6 14.5q0 9 8 18zM177 335
v-19t2 -17q1 -6 6 -6t9 6q32 42 65 85t59 82q5 8 5 16q0 10 -6 17.5t-15 12.5t-19 7.5t-18 2.5q-42 0 -65 -45.5t-23 -141.5zM267 128q44 0 64 40.5t20 126.5q0 11 -0.5 20.5t-2.5 17.5q-2 7 -6 7q-3 0 -7 -5q-32 -42 -60 -83.5t-56 -78.5q-5 -6 -6 -9.5t-1 -7.5
q0 -11 17.5 -19.5t37.5 -8.5z" />
    <glyph glyph-name="ugrave" unicode="&#xf9;" horiz-adv-x="559" 
d="M35 308q0 32 2.5 74.5t6 84.5t7 77.5t5.5 51.5q4 29 28 32q15 1 33 1.5t36 0.5h32.5t28.5 -2t17.5 -7.5t4.5 -15.5q0 -12 -2.5 -47.5t-5 -83t-5 -101.5t-2.5 -103q0 -62 13.5 -85.5t38.5 -23.5q26 0 39.5 14.5t20.5 35.5t8 44.5t1 41.5q0 134 -7.5 211t-8.5 91
q-1 15 5.5 21t20.5 8q11 2 25 2h29q19 0 36.5 -0.5t31.5 -1.5t22.5 -7.5t10.5 -27.5q7 -61 10.5 -125.5t3.5 -136.5q0 -66 -4 -137t-9 -151q-2 -23 -14.5 -31t-29.5 -10q-12 -2 -26 -2h-28h-20.5t-17.5 1q-24 3 -24 25q0 19 -16 19q-12 0 -26.5 -8.5t-32 -18.5t-39 -18.5
t-48.5 -8.5q-42 0 -71 16t-46.5 53t-25.5 97.5t-8 150.5zM102 867q15 5 35.5 9t41.5 6.5t39 4t28 1.5q11 0 16 -5t10 -16q17 -48 43.5 -86t73.5 -64q13 -7 13 -16t-10 -14q-11 -6 -30 -7.5t-33 -1.5q-63 0 -110 19.5t-77.5 45.5t-45.5 53t-15 43q0 11 4 17t17 11z" />
    <glyph glyph-name="uacute" unicode="&#xfa;" horiz-adv-x="559" 
d="M35 308q0 32 2.5 74.5t6 84.5t7 77.5t5.5 51.5q4 29 28 32q15 1 33 1.5t36 0.5h32.5t28.5 -2t17.5 -7.5t4.5 -15.5q0 -12 -2.5 -47.5t-5 -83t-5 -101.5t-2.5 -103q0 -62 13.5 -85.5t38.5 -23.5q26 0 39.5 14.5t20.5 35.5t8 44.5t1 41.5q0 134 -7.5 211t-8.5 91
q-1 15 5.5 21t20.5 8q11 2 25 2h29q19 0 36.5 -0.5t31.5 -1.5t22.5 -7.5t10.5 -27.5q7 -61 10.5 -125.5t3.5 -136.5q0 -66 -4 -137t-9 -151q-2 -23 -14.5 -31t-29.5 -10q-12 -2 -26 -2h-28h-20.5t-17.5 1q-24 3 -24 25q0 19 -16 19q-12 0 -26.5 -8.5t-32 -18.5t-39 -18.5
t-48.5 -8.5q-42 0 -71 16t-46.5 53t-25.5 97.5t-8 150.5zM161 717q47 26 73.5 64t43.5 86q5 11 10 16t16 5q10 0 28 -1.5t39 -4t41.5 -6.5t35.5 -9q13 -5 17 -11t4 -17q0 -16 -15 -43t-45.5 -53t-77.5 -45.5t-110 -19.5q-14 0 -33 1.5t-30 7.5q-10 5 -10 14t13 16z" />
    <glyph glyph-name="ucircumflex" unicode="&#xfb;" horiz-adv-x="559" 
d="M35 308q0 32 2.5 74.5t6 84.5t7 77.5t5.5 51.5q4 29 28 32q15 1 33 1.5t36 0.5h32.5t28.5 -2t17.5 -7.5t4.5 -15.5q0 -12 -2.5 -47.5t-5 -83t-5 -101.5t-2.5 -103q0 -62 13.5 -85.5t38.5 -23.5q26 0 39.5 14.5t20.5 35.5t8 44.5t1 41.5q0 134 -7.5 211t-8.5 91
q-1 15 5.5 21t20.5 8q11 2 25 2h29q19 0 36.5 -0.5t31.5 -1.5t22.5 -7.5t10.5 -27.5q7 -61 10.5 -125.5t3.5 -136.5q0 -66 -4 -137t-9 -151q-2 -23 -14.5 -31t-29.5 -10q-12 -2 -26 -2h-28h-20.5t-17.5 1q-24 3 -24 25q0 19 -16 19q-12 0 -26.5 -8.5t-32 -18.5t-39 -18.5
t-48.5 -8.5q-42 0 -71 16t-46.5 53t-25.5 97.5t-8 150.5zM91 719q0 13 21 37.5t49 50.5t54.5 48t38.5 29q7 5 13 6t11 1q18 0 45 -20t54.5 -46.5t51 -53t33.5 -40.5q4 -5 4 -12q0 -9 -13.5 -17t-31.5 -13.5t-35 -9t-23 -3.5q-8 0 -13 3.5t-11 11.5q-15 18 -24.5 29t-16 16.5
t-11 7t-9.5 1.5q-4 0 -9 -1.5t-11.5 -6.5t-16 -16t-23.5 -30q-10 -15 -24 -15q-6 0 -23 3t-35 9t-31.5 14t-13.5 17z" />
    <glyph glyph-name="udieresis" unicode="&#xfc;" horiz-adv-x="559" 
d="M35 308q0 32 2.5 74.5t6 84.5t7 77.5t5.5 51.5q4 29 28 32q15 1 33 1.5t36 0.5h32.5t28.5 -2t17.5 -7.5t4.5 -15.5q0 -12 -2.5 -47.5t-5 -83t-5 -101.5t-2.5 -103q0 -62 13.5 -85.5t38.5 -23.5q26 0 39.5 14.5t20.5 35.5t8 44.5t1 41.5q0 134 -7.5 211t-8.5 91
q-1 15 5.5 21t20.5 8q11 2 25 2h29q19 0 36.5 -0.5t31.5 -1.5t22.5 -7.5t10.5 -27.5q7 -61 10.5 -125.5t3.5 -136.5q0 -66 -4 -137t-9 -151q-2 -23 -14.5 -31t-29.5 -10q-12 -2 -26 -2h-28h-20.5t-17.5 1q-24 3 -24 25q0 19 -16 19q-12 0 -26.5 -8.5t-32 -18.5t-39 -18.5
t-48.5 -8.5q-42 0 -71 16t-46.5 53t-25.5 97.5t-8 150.5zM292 776q0 42 24 64.5t65 22.5q43 0 66.5 -22.5t23.5 -64.5q0 -41 -23.5 -62t-66.5 -21q-41 0 -65 21t-24 62zM180 860q42 0 64.5 -22t22.5 -63q0 -40 -22.5 -60.5t-64.5 -20.5q-40 0 -64 20.5t-24 60.5q0 41 24 63
t64 22z" />
    <glyph glyph-name="yacute" unicode="&#xfd;" horiz-adv-x="512" 
d="M18 63q0 23 1.5 47t3.5 46q3 25 27 25q21 0 47 -3t50 -4q27 0 45 5t18 21q0 9 -13 15q-44 22 -76.5 52t-54 73.5t-32 104.5t-10.5 145q0 20 7 28t26 10q27 3 64 3q18 0 37.5 -0.5t37.5 -2.5q8 -1 14.5 -4t6.5 -14q0 -8 -2 -28.5t-2 -43.5q0 -47 7.5 -88t19.5 -71
t26 -47.5t27 -17.5q11 0 15 14q8 26 12.5 71t4.5 93q0 19 -1 37.5t-2.5 34.5t-2.5 28t-1 16q0 10 6.5 14.5t14.5 5.5q13 2 31 2h35h34t26 -2q21 -3 28.5 -17.5t7.5 -37.5q0 -86 -6.5 -163.5t-24.5 -143t-49.5 -118t-81 -89.5t-119.5 -56.5t-165 -19.5q-20 0 -26.5 8t-8.5 24
q-1 11 -1.5 22.5t-0.5 25.5zM149 717q47 26 73.5 64t43.5 86q5 11 10 16t16 5q10 0 28 -1.5t39 -4t41.5 -6.5t35.5 -9q13 -5 17 -11t4 -17q0 -16 -15 -43t-45.5 -53t-77.5 -45.5t-110 -19.5q-14 0 -33 1.5t-30 7.5q-10 5 -10 14t13 16z" />
    <glyph glyph-name="thorn" unicode="&#xfe;" horiz-adv-x="530" 
d="M67 792q2 16 9.5 20.5t17.5 5.5q15 2 30.5 2h31.5h31t30 -2q10 -1 16.5 -5.5t6.5 -15.5q0 -3 -2 -20.5t-5 -40.5t-5 -46t-2 -37q0 -16 13 -16q5 0 15.5 1t21.5 1q67 -1 113 -19.5t74 -50t40 -73t12 -88.5q0 -81 -18.5 -141.5t-46 -101t-60 -61t-61.5 -20.5q-12 0 -23 6
t-20.5 14.5t-18 18.5t-16.5 17q-9 9 -17 9q-12 0 -12 -15q0 -12 2 -30.5t5 -36.5t5 -32.5t2 -20.5q0 -11 -7 -15t-18 -5t-25 -1.5t-30 -0.5t-33 0.5t-35 1.5q-14 1 -23 8.5t-12 36.5q-4 33 -7 74t-5.5 83t-3.5 83.5t-1 75.5q0 120 8 225.5t23 211.5zM214 358q0 -37 3.5 -62
t10.5 -39t17.5 -20t23.5 -6q33 0 50.5 49.5t17.5 131.5q0 51 -18.5 73.5t-51.5 22.5q-15 0 -25.5 -5.5t-16.5 -22t-8.5 -45.5t-2.5 -77z" />
    <glyph glyph-name="ydieresis" unicode="&#xff;" horiz-adv-x="512" 
d="M18 63q0 23 1.5 47t3.5 46q3 25 27 25q21 0 47 -3t50 -4q27 0 45 5t18 21q0 9 -13 15q-44 22 -76.5 52t-54 73.5t-32 104.5t-10.5 145q0 20 7 28t26 10q27 3 64 3q18 0 37.5 -0.5t37.5 -2.5q8 -1 14.5 -4t6.5 -14q0 -8 -2 -28.5t-2 -43.5q0 -47 7.5 -88t19.5 -71
t26 -47.5t27 -17.5q11 0 15 14q8 26 12.5 71t4.5 93q0 19 -1 37.5t-2.5 34.5t-2.5 28t-1 16q0 10 6.5 14.5t14.5 5.5q13 2 31 2h35h34t26 -2q21 -3 28.5 -17.5t7.5 -37.5q0 -86 -6.5 -163.5t-24.5 -143t-49.5 -118t-81 -89.5t-119.5 -56.5t-165 -19.5q-20 0 -26.5 8t-8.5 24
q-1 11 -1.5 22.5t-0.5 25.5zM369 863q43 0 66.5 -22.5t23.5 -64.5q0 -41 -23.5 -62t-66.5 -21q-41 0 -65 21t-24 62q0 42 24 64.5t65 22.5zM80 775q0 41 24 63t64 22q42 0 64.5 -22t22.5 -63q0 -40 -22.5 -60.5t-64.5 -20.5q-40 0 -64 20.5t-24 60.5z" />
    <glyph glyph-name="Amacron" unicode="&#x100;" horiz-adv-x="637" 
d="M30 162q0 88 12 179.5t42 174t82 150.5t133 108q16 8 24 8q11 0 23 -8q71 -47 120.5 -110t80.5 -140.5t45.5 -167t14.5 -189.5q0 -32 -1.5 -66t-5.5 -70q-2 -16 -10 -21.5t-22 -7.5q-17 -2 -37.5 -2.5t-40.5 -0.5q-25 0 -47.5 0.5t-38.5 2.5q-20 3 -20 21q0 17 8 50t8 79
q0 30 -15.5 43.5t-48.5 13.5q-22 0 -42 -4.5t-35 -14t-24 -25t-9 -36.5q0 -34 5.5 -61t5.5 -47q2 -18 -16 -19q-17 -2 -38.5 -2.5t-45.5 -0.5h-35.5t-33.5 1q-14 1 -21.5 5t-9.5 18q-4 34 -5.5 68.5t-1.5 70.5zM150 902q0 10 1 19.5t2 18.5q3 27 30 28q22 2 51.5 1.5
t61.5 -0.5h76.5t61.5 -2q17 -1 27.5 -5t16 -11.5t7 -18.5t1.5 -26q0 -11 -1 -23t-3 -25q-2 -12 -8.5 -18t-23.5 -8q-23 -2 -51.5 -3t-58.5 -1q-39 0 -77.5 1.5t-65.5 3.5q-24 2 -33 7.5t-11 19.5q-2 9 -2.5 20t-0.5 22zM242 321q9 0 31.5 8t54.5 11q18 2 30.5 2.5t21.5 2.5
q16 4 16 24q0 24 -5 51t-13.5 53t-19.5 49t-24 38q-8 10 -12 10q-6 0 -15 -10q-18 -22 -32 -51t-23.5 -60t-14.5 -61.5t-5 -54.5q0 -12 10 -12z" />
    <glyph glyph-name="amacron" unicode="&#x101;" horiz-adv-x="516" 
d="M17 189q0 54 20 92.5t53.5 65t77.5 41.5t93 23q23 4 34.5 10t11.5 20q0 23 -14.5 37t-50.5 14q-39 0 -78 -15t-73 -49q-9 -9 -17 -9q-7 0 -13 6q-14 14 -25.5 37t-11.5 54q0 27 16 50t45.5 40t72 26.5t96.5 9.5q63 0 106.5 -15.5t70 -45t38.5 -73t12 -99.5
q0 -23 -1 -51.5t-1.5 -59t-1.5 -61.5t-1 -59q0 -22 1.5 -44t3 -41.5t2.5 -34t1 -20.5q0 -25 -25 -31q-12 -3 -36.5 -4.5t-54.5 -2.5t-61 -1h-56q-115 0 -174.5 45t-59.5 145zM91 810q3 27 30 28q22 2 51.5 1.5t61.5 -0.5h76.5t61.5 -2q17 -1 27.5 -5t16 -11.5t7 -18.5
t1.5 -26q0 -11 -1 -23t-3 -25q-2 -12 -8.5 -18t-23.5 -8q-23 -2 -51.5 -3t-58.5 -1q-39 0 -77.5 1.5t-65.5 3.5q-24 2 -33 7.5t-11 19.5q-2 9 -2.5 20t-0.5 22q0 20 3 38zM268 151q24 0 32 10.5t8 33.5v65q0 23 -4 30.5t-17 7.5q-42 0 -71 -22.5t-29 -61.5q0 -33 21.5 -48
t59.5 -15z" />
    <glyph glyph-name="Abreve" unicode="&#x102;" horiz-adv-x="637" 
d="M30 162q0 88 12 179.5t42 174t82 150.5t133 108q16 8 24 8q11 0 23 -8q71 -47 120.5 -110t80.5 -140.5t45.5 -167t14.5 -189.5q0 -32 -1.5 -66t-5.5 -70q-2 -16 -10 -21.5t-22 -7.5q-17 -2 -37.5 -2.5t-40.5 -0.5q-25 0 -47.5 0.5t-38.5 2.5q-20 3 -20 21q0 17 8 50t8 79
q0 30 -15.5 43.5t-48.5 13.5q-22 0 -42 -4.5t-35 -14t-24 -25t-9 -36.5q0 -34 5.5 -61t5.5 -47q2 -18 -16 -19q-17 -2 -38.5 -2.5t-45.5 -0.5h-35.5t-33.5 1q-14 1 -21.5 5t-9.5 18q-4 34 -5.5 68.5t-1.5 70.5zM199 996q32 0 42.5 -4.5t14.5 -21.5q4 -19 17.5 -28.5
t43.5 -9.5q32 0 46.5 10t19.5 28q5 17 15.5 20t36.5 3q34 0 45.5 -5.5t11.5 -25.5q0 -33 -8.5 -60t-28.5 -46.5t-54 -30t-84 -10.5q-48 0 -81 10t-54 29t-30 47t-9 63q0 20 12 26t44 6zM232 333q0 -12 10 -12q9 0 31.5 8t54.5 11q18 2 30.5 2.5t21.5 2.5q16 4 16 24
q0 24 -5 51t-13.5 53t-19.5 49t-24 38q-8 10 -12 10q-6 0 -15 -10q-18 -22 -32 -51t-23.5 -60t-14.5 -61.5t-5 -54.5z" />
    <glyph glyph-name="abreve" unicode="&#x103;" horiz-adv-x="516" 
d="M17 189q0 54 20 92.5t53.5 65t77.5 41.5t93 23q23 4 34.5 10t11.5 20q0 23 -14.5 37t-50.5 14q-39 0 -78 -15t-73 -49q-9 -9 -17 -9q-7 0 -13 6q-14 14 -25.5 37t-11.5 54q0 27 16 50t45.5 40t72 26.5t96.5 9.5q63 0 106.5 -15.5t70 -45t38.5 -73t12 -99.5
q0 -23 -1 -51.5t-1.5 -59t-1.5 -61.5t-1 -59q0 -22 1.5 -44t3 -41.5t2.5 -34t1 -20.5q0 -25 -25 -31q-12 -3 -36.5 -4.5t-54.5 -2.5t-61 -1h-56q-115 0 -174.5 45t-59.5 145zM85 828q0 20 12 26t44 6t42.5 -4.5t14.5 -21.5q4 -19 17.5 -28.5t43.5 -9.5q32 0 46.5 10t19.5 28
q5 17 15.5 20t36.5 3q34 0 45.5 -5.5t11.5 -25.5q0 -33 -8.5 -60t-28.5 -46.5t-54 -30t-84 -10.5q-48 0 -81 10t-54 29t-30 47t-9 63zM268 151q24 0 32 10.5t8 33.5v65q0 23 -4 30.5t-17 7.5q-42 0 -71 -22.5t-29 -61.5q0 -33 21.5 -48t59.5 -15z" />
    <glyph glyph-name="Aogonek" unicode="&#x104;" horiz-adv-x="637" 
d="M30 164q0 88 12 179.5t42 174t82 149.5t132 107q8 4 13.5 6t11.5 2q8 0 22 -8q73 -40 123 -99.5t80.5 -133.5t43.5 -160t13 -180q0 -26 -1 -54t-4 -53q-2 -12 -6.5 -18t-12.5 -9q-65 -26 -65 -65q0 -14 8 -22.5t28 -8.5q15 0 24.5 4t17.5 4t12 -4.5t4 -10.5
q0 -20 -32 -39.5t-86 -19.5q-53 0 -77 19.5t-24 48.5q0 18 7.5 30.5t16 21.5t16 15.5t7.5 11.5q0 8 -10 10.5t-19 3.5q-13 1 -20 4.5t-7 14.5q0 14 9 35t9 44q0 24 -16 34.5t-49 10.5q-22 0 -42 -4.5t-35 -14t-23.5 -25t-8.5 -36.5q0 -33 5 -60.5t6 -46.5q0 -9 -3 -14
t-14 -6q-16 -2 -37.5 -2.5t-45.5 -0.5h-34.5t-35.5 1q-11 0 -19.5 4.5t-10.5 18.5q-4 34 -5.5 69.5t-1.5 71.5zM241 321q8 0 29 7.5t52 9.5q19 2 33 3t25 4q15 4 15 24q0 24 -5.5 50.5t-14.5 52t-20 49t-22 39.5q-7 10 -13 10q-5 0 -14 -10q-18 -22 -32 -51t-23.5 -60
t-14.5 -61.5t-5 -54.5q0 -12 10 -12z" />
    <glyph glyph-name="aogonek" unicode="&#x105;" horiz-adv-x="516" 
d="M261 427q23 3 34.5 9t11.5 20q0 18 -14.5 28.5t-50.5 10.5q-39 0 -77 -16.5t-74 -46.5q-8 -7 -17 -7q-6 0 -13 5q-16 12 -26.5 35.5t-10.5 52.5q0 54 61 89t169 35q63 0 106.5 -14.5t70 -42t38.5 -68t12 -92.5q0 -21 -1 -47t-1.5 -54.5t-1.5 -57t-1 -54.5q0 -41 4 -71.5
t4 -43.5q0 -22 -22 -29q-33 -9 -52 -28t-19 -38q0 -14 8 -22.5t28 -8.5q15 0 24.5 4t17.5 4t12 -4.5t4 -10.5q0 -10 -8.5 -20.5t-24 -19t-37.5 -14t-48 -5.5q-53 0 -76.5 15t-23.5 40q0 15 7 26t15.5 19.5t15.5 14.5t7 12q0 9 -12 9q-13 0 -25 -1t-24 -1q-115 0 -174.5 43
t-59.5 140q0 51 20 86.5t53.5 59.5t77.5 38t93 21zM268 188q27 0 33.5 11t6.5 31v57q0 13 -3.5 21t-17.5 8q-42 0 -71 -19t-29 -51q0 -31 21.5 -44.5t59.5 -13.5z" />
    <glyph glyph-name="Cacute" unicode="&#x106;" horiz-adv-x="579" 
d="M19 332q0 89 20 170t59 142.5t96.5 98.5t132.5 37q60 0 102.5 -21t70 -54.5t40.5 -75.5t13 -85q0 -23 -6 -39t-20 -30q-10 -13 -28 -28t-38 -28t-39 -21.5t-32 -8.5q-15 0 -15 23q0 11 1 26t1 29q0 24 -3 48t-10.5 43t-20 30.5t-31.5 11.5q-42 0 -64 -57t-22 -161
q0 -52 7.5 -87.5t21.5 -57t35.5 -30.5t48.5 -9q54 0 93.5 32.5t68.5 83.5q7 10 16 10q17 0 30 -32t13 -82q0 -43 -15 -83.5t-45.5 -72t-77.5 -50.5t-112 -19q-139 0 -215 87.5t-76 259.5zM197 847q47 26 73.5 64t43.5 86q5 11 10 16t16 5q10 0 28 -1.5t39 -4t41.5 -6.5
t35.5 -9q13 -5 17 -11t4 -17q0 -16 -15 -43t-45.5 -53t-77.5 -45.5t-110 -19.5q-14 0 -33 1.5t-30 7.5q-10 5 -10 14t13 16z" />
    <glyph glyph-name="cacute" unicode="&#x107;" horiz-adv-x="470" 
d="M17 279q0 93 20 161.5t54.5 113.5t82 66.5t102.5 21.5q44 0 76.5 -14.5t54.5 -39.5t32.5 -59t10.5 -73q0 -25 -12 -46.5t-30 -37.5t-40 -25t-42 -9t-21 16q-2 24 -3.5 46.5t-5.5 40.5t-12.5 28.5t-23.5 10.5q-28 0 -45.5 -41.5t-17.5 -119.5q0 -32 3.5 -59t13 -46.5
t25.5 -30.5t40 -11t43 8.5t33.5 22t25.5 30.5t20 34q5 9 13 9q5 0 11 -7q11 -14 21 -37.5t10 -56.5q0 -39 -13.5 -73t-39.5 -59.5t-65.5 -40.5t-92.5 -15q-60 0 -103 21.5t-71 60.5t-41 92.5t-13 117.5zM140 717q47 26 73.5 64t43.5 86q5 11 10 16t16 5q10 0 28 -1.5t39 -4
t41.5 -6.5t35.5 -9q13 -5 17 -11t4 -17q0 -16 -15 -43t-45.5 -53t-77.5 -45.5t-110 -19.5q-14 0 -33 1.5t-30 7.5q-10 5 -10 14t13 16z" />
    <glyph glyph-name="Ccircumflex" unicode="&#x108;" horiz-adv-x="579" 
d="M19 332q0 89 20 170t59 142.5t96.5 98.5t132.5 37q60 0 102.5 -21t70 -54.5t40.5 -75.5t13 -85q0 -23 -6 -39t-20 -30q-10 -13 -28 -28t-38 -28t-39 -21.5t-32 -8.5q-15 0 -15 23q0 11 1 26t1 29q0 24 -3 48t-10.5 43t-20 30.5t-31.5 11.5q-42 0 -64 -57t-22 -161
q0 -52 7.5 -87.5t21.5 -57t35.5 -30.5t48.5 -9q54 0 93.5 32.5t68.5 83.5q7 10 16 10q17 0 30 -32t13 -82q0 -43 -15 -83.5t-45.5 -72t-77.5 -50.5t-112 -19q-139 0 -215 87.5t-76 259.5zM126 849q0 13 21 37.5t49 50.5t54.5 48t38.5 29q7 5 13 6t11 1q18 0 45 -20
t54.5 -46.5t51 -53t33.5 -40.5q4 -5 4 -12q0 -9 -13.5 -17t-31.5 -13.5t-35 -9t-23 -3.5q-8 0 -13 3.5t-11 11.5q-15 18 -24.5 29t-16 16.5t-11 7t-9.5 1.5q-4 0 -9 -1.5t-11.5 -6.5t-16 -16t-23.5 -30q-10 -15 -24 -15q-6 0 -23 3t-35 9t-31.5 14t-13.5 17z" />
    <glyph glyph-name="ccircumflex" unicode="&#x109;" horiz-adv-x="470" 
d="M17 279q0 93 20 161.5t54.5 113.5t82 66.5t102.5 21.5q44 0 76.5 -14.5t54.5 -39.5t32.5 -59t10.5 -73q0 -25 -12 -46.5t-30 -37.5t-40 -25t-42 -9t-21 16q-2 24 -3.5 46.5t-5.5 40.5t-12.5 28.5t-23.5 10.5q-28 0 -45.5 -41.5t-17.5 -119.5q0 -32 3.5 -59t13 -46.5
t25.5 -30.5t40 -11t43 8.5t33.5 22t25.5 30.5t20 34q5 9 13 9q5 0 11 -7q11 -14 21 -37.5t10 -56.5q0 -39 -13.5 -73t-39.5 -59.5t-65.5 -40.5t-92.5 -15q-60 0 -103 21.5t-71 60.5t-41 92.5t-13 117.5zM233 884q7 5 13 6t11 1q18 0 45 -20t54.5 -46.5t51 -53t33.5 -40.5
q4 -5 4 -12q0 -9 -13.5 -17t-31.5 -13.5t-35 -9t-23 -3.5q-8 0 -13 3.5t-11 11.5q-15 18 -24.5 29t-16 16.5t-11 7t-9.5 1.5q-4 0 -9 -1.5t-11.5 -6.5t-16 -16t-23.5 -30q-10 -15 -24 -15q-6 0 -23 3t-35 9t-31.5 14t-13.5 17q0 14 21 38.5t49 50t54.5 47t38.5 29.5z" />
    <glyph glyph-name="Cdotaccent" unicode="&#x10a;" horiz-adv-x="579" 
d="M19 332q0 89 20 170t59 142.5t96.5 98.5t132.5 37q60 0 102.5 -21t70 -54.5t40.5 -75.5t13 -85q0 -23 -6 -39t-20 -30q-10 -13 -28 -28t-38 -28t-39 -21.5t-32 -8.5q-15 0 -15 23q0 11 1 26t1 29q0 24 -3 48t-10.5 43t-20 30.5t-31.5 11.5q-42 0 -64 -57t-22 -161
q0 -52 7.5 -87.5t21.5 -57t35.5 -30.5t48.5 -9q54 0 93.5 32.5t68.5 83.5q7 10 16 10q17 0 30 -32t13 -82q0 -43 -15 -83.5t-45.5 -72t-77.5 -50.5t-112 -19q-139 0 -215 87.5t-76 259.5zM218 906q0 43 26.5 66.5t71.5 23.5q48 0 73 -23.5t25 -66.5q0 -42 -25 -63.5
t-73 -21.5q-45 0 -71.5 21.5t-26.5 63.5z" />
    <glyph glyph-name="cdotaccent" unicode="&#x10b;" horiz-adv-x="470" 
d="M17 279q0 93 20 161.5t54.5 113.5t82 66.5t102.5 21.5q44 0 76.5 -14.5t54.5 -39.5t32.5 -59t10.5 -73q0 -25 -12 -46.5t-30 -37.5t-40 -25t-42 -9t-21 16q-2 24 -3.5 46.5t-5.5 40.5t-12.5 28.5t-23.5 10.5q-28 0 -45.5 -41.5t-17.5 -119.5q0 -32 3.5 -59t13 -46.5
t25.5 -30.5t40 -11t43 8.5t33.5 22t25.5 30.5t20 34q5 9 13 9q5 0 11 -7q11 -14 21 -37.5t10 -56.5q0 -39 -13.5 -73t-39.5 -59.5t-65.5 -40.5t-92.5 -15q-60 0 -103 21.5t-71 60.5t-41 92.5t-13 117.5zM265 866q48 0 73 -23.5t25 -66.5q0 -42 -25 -63.5t-73 -21.5
q-45 0 -71.5 21.5t-26.5 63.5q0 43 26.5 66.5t71.5 23.5z" />
    <glyph glyph-name="Ccaron" unicode="&#x10c;" horiz-adv-x="579" 
d="M19 332q0 89 20 170t59 142.5t96.5 98.5t132.5 37q60 0 102.5 -21t70 -54.5t40.5 -75.5t13 -85q0 -23 -6 -39t-20 -30q-10 -13 -28 -28t-38 -28t-39 -21.5t-32 -8.5q-15 0 -15 23q0 11 1 26t1 29q0 24 -3 48t-10.5 43t-20 30.5t-31.5 11.5q-42 0 -64 -57t-22 -161
q0 -52 7.5 -87.5t21.5 -57t35.5 -30.5t48.5 -9q54 0 93.5 32.5t68.5 83.5q7 10 16 10q17 0 30 -32t13 -82q0 -43 -15 -83.5t-45.5 -72t-77.5 -50.5t-112 -19q-139 0 -215 87.5t-76 259.5zM129 978q0 9 13.5 16.5t31.5 13t35 9t23 3.5q8 0 13.5 -3t11.5 -11q26 -36 39 -45.5
t20 -9.5q5 0 9.5 1.5t11.5 7.5t16.5 17t23.5 30q5 6 10.5 9.5t13.5 3.5q6 0 23 -3.5t35 -9t31.5 -13.5t13.5 -17q0 -5 -4 -12q-9 -15 -32 -41.5t-50.5 -53t-55.5 -46t-46 -19.5t-45.5 19.5t-55 46t-50.5 53t-32 41.5q-4 7 -4 13z" />
    <glyph glyph-name="ccaron" unicode="&#x10d;" horiz-adv-x="470" 
d="M17 279q0 93 20 161.5t54.5 113.5t82 66.5t102.5 21.5q44 0 76.5 -14.5t54.5 -39.5t32.5 -59t10.5 -73q0 -25 -12 -46.5t-30 -37.5t-40 -25t-42 -9t-21 16q-2 24 -3.5 46.5t-5.5 40.5t-12.5 28.5t-23.5 10.5q-28 0 -45.5 -41.5t-17.5 -119.5q0 -32 3.5 -59t13 -46.5
t25.5 -30.5t40 -11t43 8.5t33.5 22t25.5 30.5t20 34q5 9 13 9q5 0 11 -7q11 -14 21 -37.5t10 -56.5q0 -39 -13.5 -73t-39.5 -59.5t-65.5 -40.5t-92.5 -15q-60 0 -103 21.5t-71 60.5t-41 92.5t-13 117.5zM77 851q0 9 13.5 16.5t31.5 13t35 9t23 3.5q8 0 13.5 -3t11.5 -11
q26 -36 39 -45.5t20 -9.5q5 0 9.5 1.5t11.5 7.5t16.5 17t23.5 30q5 6 10.5 9.5t13.5 3.5q6 0 23 -3.5t35 -9t31.5 -13.5t13.5 -17q0 -5 -4 -12q-9 -15 -32 -41.5t-50.5 -53t-55.5 -46t-46 -19.5t-45.5 19.5t-55 46t-50.5 53t-32 41.5q-4 7 -4 13z" />
    <glyph glyph-name="Dcaron" unicode="&#x10e;" horiz-adv-x="658" 
d="M46 327q0 157 10 257.5t24 157.5q3 12 9 17t14 6q25 2 54.5 2.5t57.5 0.5q93 0 170 -20t132 -71t85.5 -138.5t30.5 -222.5q0 -77 -15 -136t-54 -99.5t-106.5 -61.5t-172.5 -21h-47.5t-56 0.5t-50 1t-30.5 0.5q-23 1 -30 15q-5 11 -9.5 32t-8 57t-5.5 90.5t-2 132.5z
M275 168q7 -7 14 -9t14 -2q29 0 53 10.5t41 33.5t27 59.5t10 89.5q0 64 -11.5 110.5t-31 77t-44.5 45t-52 14.5q-5 0 -11.5 -2t-11.5 -7q-14 -14 -19 -69t-5 -145q0 -94 6.5 -143t20.5 -63zM134 967q0 9 13.5 16.5t31.5 13t35 9t23 3.5q8 0 13.5 -3t11.5 -11
q26 -36 39 -45.5t20 -9.5q5 0 9.5 1.5t11.5 7.5t16.5 17t23.5 30q5 6 10.5 9.5t13.5 3.5q6 0 23 -3.5t35 -9t31.5 -13.5t13.5 -17q0 -5 -4 -12q-9 -15 -32 -41.5t-50.5 -53t-55.5 -46t-46 -19.5t-45.5 19.5t-55 46t-50.5 53t-32 41.5q-4 7 -4 13z" />
    <glyph glyph-name="dcaron" unicode="&#x10f;" horiz-adv-x="647" 
d="M26 282q0 86 13 153t36 113t56 69.5t72 23.5q38 0 66 -17.5t45 -34.5q4 -4 10 -4q10 0 10 14q0 23 -4 53.5t-8.5 59t-8.5 51.5t-4 31q0 11 6.5 16t17.5 6q14 1 28 1.5t28 0.5q20 0 40.5 -0.5t40.5 -2.5q13 -2 20.5 -8t10.5 -26q5 -31 9 -79t7 -105.5t4.5 -121t1.5 -126.5
q0 -85 -4 -161.5t-12 -131.5q-2 -11 -9.5 -21t-21.5 -15q-24 -9 -72 -17.5t-128 -8.5q-133 0 -191.5 69t-58.5 219zM281 133q18 0 30 7t18.5 29.5t9.5 64.5t3 112q0 41 -5 69.5t-14 46t-21 25.5t-26 8q-15 0 -26.5 -9.5t-19.5 -31t-12.5 -58t-4.5 -90.5q0 -50 4.5 -83.5
t13 -53.5t21.5 -28t29 -8zM540 732q0 9 9.5 24.5t23 30t28.5 25.5t26 11q17 0 34.5 -29.5t17.5 -82.5q0 -47 -13.5 -79.5t-31.5 -53t-35.5 -30t-25.5 -9.5q-14 0 -14 16q0 9 5 25t5 36q0 24 -5.5 49t-18.5 50q-5 10 -5 17z" />
    <glyph glyph-name="Dcroat" unicode="&#x110;" horiz-adv-x="665" 
d="M3 373q0 11 -0.5 20.5t1.5 19.5q2 11 7.5 15t16.5 6q12 2 18.5 6.5t8.5 16.5q4 101 12.5 169.5t18.5 113.5q7 23 23 23q56 3 112 3q93 0 170 -17t132.5 -66t86 -137t30.5 -230q0 -77 -16 -136.5t-55 -100t-104 -61t-163 -20.5q-84 0 -131 1t-64 2q-23 1 -30 15
q-10 20 -17.5 90t-7.5 193q0 11 -5 16t-19 5q-13 0 -18 2.5t-6 13.5q-1 9 -1 18v19zM259 435q17 0 34.5 0.5t35.5 -0.5q19 0 21 -14q1 -10 2 -22t1 -24v-23.5t-2 -21.5q-2 -11 -6 -15t-18 -4q-10 0 -30.5 1.5t-38.5 1.5q-17 0 -17 -23q0 -91 26 -119q8 -9 19.5 -12t24.5 -3
q32 0 57.5 10.5t43.5 33.5t27.5 59.5t9.5 89.5q0 64 -12.5 110.5t-33.5 77t-48 45t-56 14.5q-22 0 -34 -16.5t-17.5 -39t-6.5 -46t-1 -38.5q0 -9 4 -15.5t15 -6.5z" />
    <glyph glyph-name="dcroat" unicode="&#x111;" horiz-adv-x="562" 
d="M26 282q0 156 49 240t129 84q38 0 66 -17.5t45 -34.5q4 -4 10 -4q10 0 10 15v31.5t-2 32.5q0 12 -3 18t-16 6q-26 0 -51 -1t-36 -1q-23 0 -26 19q-1 6 -1 13v15q0 11 1 22.5t3 22.5q4 19 24 19q10 0 23.5 -0.5t46.5 -0.5q15 0 15 15q0 8 -2 16.5t-2 13.5q0 11 6.5 14.5
t17.5 4.5q13 1 27 1.5t28 0.5q21 0 41.5 -0.5t40.5 -2.5q26 -3 29 -22q1 -5 2 -10.5t2 -13.5q1 -20 20 -20h19q15 0 19.5 -13t4.5 -36q0 -26 -4 -38t-14 -15q-5 -2 -10 -2h-8q-9 0 -12.5 -2.5t-3.5 -13.5q0 -13 1.5 -39t3 -61.5t2.5 -79.5t1 -92q0 -89 -3.5 -170.5
t-11.5 -139.5q-2 -11 -9.5 -21t-21.5 -15q-24 -9 -72 -17.5t-128 -8.5q-133 0 -191.5 69t-58.5 219zM281 133q18 0 30 6.5t18.5 26.5t9.5 56.5t3 95.5q0 41 -5 68t-14 43.5t-21 23.5t-25 7q-15 0 -27 -8t-20 -27.5t-12.5 -52t-4.5 -80.5q0 -46 4.5 -76.5t13 -49t21.5 -26
t29 -7.5z" />
    <glyph glyph-name="Emacron" unicode="&#x112;" horiz-adv-x="571" 
d="M38 173q0 67 3 139t9 144.5t15.5 144t22.5 136.5q3 11 9.5 18.5t17.5 8.5q28 2 81 3.5t113 1.5q66 0 126.5 -2t98.5 -4q11 -1 15 -5t4 -9t-4.5 -22t-11 -39t-14 -44.5t-13.5 -39.5q-4 -11 -16 -11q-6 0 -13 2t-18 6q-23 8 -56.5 14.5t-78.5 6.5q-25 0 -40 -4t-24 -15
q-11 -13 -17 -42t-6 -58q0 -30 27 -30q26 0 60.5 8t77.5 8q31 0 51 -5.5t20 -19.5q0 -8 -3.5 -25t-8 -37.5t-10 -40t-10.5 -33.5q-3 -9 -6.5 -12t-9.5 -3q-11 0 -40 8t-64 8q-50 0 -69.5 -19.5t-19.5 -57.5q0 -26 3.5 -42.5t11 -25.5t20.5 -12.5t32 -3.5q67 0 114 15.5
t74 29.5q8 4 11 6t8 2q9 0 13 -10q5 -12 10.5 -37t10 -52.5t7 -53.5t2.5 -40q0 -26 -29 -28q-49 -2 -104.5 -3t-111.5 -1q-66 0 -126.5 1t-105.5 3q-17 1 -25.5 6t-9.5 23q-3 66 -3 144zM153 936q3 27 30 28q22 2 51.5 1.5t61.5 -0.5h76.5t61.5 -2q17 -1 27.5 -5t16 -11.5
t7 -18.5t1.5 -26q0 -11 -1 -23t-3 -25q-2 -12 -8.5 -18t-23.5 -8q-23 -2 -51.5 -3t-58.5 -1q-39 0 -77.5 1.5t-65.5 3.5q-24 2 -33 7.5t-11 19.5q-2 9 -2.5 20t-0.5 22q0 20 3 38z" />
    <glyph glyph-name="emacron" unicode="&#x113;" horiz-adv-x="497" 
d="M293 641q38 0 71 -10t57 -31t38 -52t14 -73q0 -64 -23.5 -102.5t-59 -62t-75.5 -37t-73 -28.5q-23 -8 -33.5 -16t-10.5 -21q0 -22 16.5 -37t52.5 -15q52 0 97 21.5t74 59.5q10 8 15 8q11 0 18 -19t7 -54q0 -43 -18 -77.5t-48.5 -58.5t-70.5 -36.5t-84 -12.5
q-67 0 -113 24t-74.5 66t-40.5 97.5t-12 118.5q0 93 22 159t59.5 108t88 61.5t106.5 19.5zM106 810q3 27 30 28q22 2 51.5 1.5t61.5 -0.5h76.5t61.5 -2q17 -1 27.5 -5t16 -11.5t7 -18.5t1.5 -26q0 -11 -1 -23t-3 -25q-2 -12 -8.5 -18t-23.5 -8q-23 -2 -51.5 -3t-58.5 -1
q-39 0 -77.5 1.5t-65.5 3.5q-24 2 -33 7.5t-11 19.5q-2 9 -2.5 20t-0.5 22q0 20 3 38zM190 355q9 0 19 5q16 8 34.5 17.5t35 21t27.5 26t11 32.5q0 20 -12 32.5t-34 12.5q-21 0 -38 -10.5t-29 -28t-19 -41t-7 -49.5q0 -8 2.5 -13t9.5 -5z" />
    <glyph glyph-name="Ebreve" unicode="&#x114;" horiz-adv-x="571" 
d="M88 737q3 11 9.5 18.5t17.5 8.5q28 2 81 3.5t113 1.5q66 0 126.5 -2t98.5 -4q11 -1 15 -5t4 -9t-4.5 -22t-11 -39t-14 -44.5t-13.5 -39.5q-4 -11 -16 -11q-6 0 -13 2t-18 6q-23 8 -56.5 14.5t-78.5 6.5q-25 0 -40 -4t-24 -15q-11 -13 -17 -42t-6 -58q0 -30 27 -30
q26 0 60.5 8t77.5 8q31 0 51 -5.5t20 -19.5q0 -8 -3.5 -25t-8 -37.5t-10 -40t-10.5 -33.5q-3 -9 -6.5 -12t-9.5 -3q-11 0 -40 8t-64 8q-50 0 -69.5 -19.5t-19.5 -57.5q0 -26 3.5 -42.5t11 -25.5t20.5 -12.5t32 -3.5q67 0 114 15.5t74 29.5q8 4 11 6t8 2q9 0 13 -10
q5 -12 10.5 -37t10 -52.5t7 -53.5t2.5 -40q0 -26 -29 -28q-49 -2 -104.5 -3t-111.5 -1q-66 0 -126.5 1t-105.5 3q-17 1 -25.5 6t-9.5 23q-3 66 -3 144q0 67 3 139t9 144.5t15.5 144t22.5 136.5zM144 954q0 20 12 26t44 6t42.5 -4.5t14.5 -21.5q4 -19 17.5 -28.5t43.5 -9.5
q32 0 46.5 10t19.5 28q5 17 15.5 20t36.5 3q34 0 45.5 -5.5t11.5 -25.5q0 -33 -8.5 -60t-28.5 -46.5t-54 -30t-84 -10.5q-48 0 -81 10t-54 29t-30 47t-9 63z" />
    <glyph glyph-name="ebreve" unicode="&#x115;" horiz-adv-x="497" 
d="M293 641q38 0 71 -10t57 -31t38 -52t14 -73q0 -64 -23.5 -102.5t-59 -62t-75.5 -37t-73 -28.5q-23 -8 -33.5 -16t-10.5 -21q0 -22 16.5 -37t52.5 -15q52 0 97 21.5t74 59.5q10 8 15 8q11 0 18 -19t7 -54q0 -43 -18 -77.5t-48.5 -58.5t-70.5 -36.5t-84 -12.5
q-67 0 -113 24t-74.5 66t-40.5 97.5t-12 118.5q0 93 22 159t59.5 108t88 61.5t106.5 19.5zM157 865q32 0 42.5 -4.5t14.5 -21.5q4 -19 17.5 -28.5t43.5 -9.5q32 0 46.5 10t19.5 28q5 17 15.5 20t36.5 3q34 0 45.5 -5.5t11.5 -25.5q0 -33 -8.5 -60t-28.5 -46.5t-54 -30
t-84 -10.5q-48 0 -81 10t-54 29t-30 47t-9 63q0 20 12 26t44 6zM190 355q9 0 19 5q16 8 34.5 17.5t35 21t27.5 26t11 32.5q0 20 -12 32.5t-34 12.5q-21 0 -38 -10.5t-29 -28t-19 -41t-7 -49.5q0 -8 2.5 -13t9.5 -5z" />
    <glyph glyph-name="Edotaccent" unicode="&#x116;" horiz-adv-x="571" 
d="M88 737q3 11 9.5 18.5t17.5 8.5q28 2 81 3.5t113 1.5q66 0 126.5 -2t98.5 -4q11 -1 15 -5t4 -9t-4.5 -22t-11 -39t-14 -44.5t-13.5 -39.5q-4 -11 -16 -11q-6 0 -13 2t-18 6q-23 8 -56.5 14.5t-78.5 6.5q-25 0 -40 -4t-24 -15q-11 -13 -17 -42t-6 -58q0 -30 27 -30
q26 0 60.5 8t77.5 8q31 0 51 -5.5t20 -19.5q0 -8 -3.5 -25t-8 -37.5t-10 -40t-10.5 -33.5q-3 -9 -6.5 -12t-9.5 -3q-11 0 -40 8t-64 8q-50 0 -69.5 -19.5t-19.5 -57.5q0 -26 3.5 -42.5t11 -25.5t20.5 -12.5t32 -3.5q67 0 114 15.5t74 29.5q8 4 11 6t8 2q9 0 13 -10
q5 -12 10.5 -37t10 -52.5t7 -53.5t2.5 -40q0 -26 -29 -28q-49 -2 -104.5 -3t-111.5 -1q-66 0 -126.5 1t-105.5 3q-17 1 -25.5 6t-9.5 23q-3 66 -3 144q0 67 3 139t9 144.5t15.5 144t22.5 136.5zM320 992q48 0 73 -23.5t25 -66.5q0 -42 -25 -63.5t-73 -21.5q-45 0 -71.5 21.5
t-26.5 63.5q0 43 26.5 66.5t71.5 23.5z" />
    <glyph glyph-name="edotaccent" unicode="&#x117;" horiz-adv-x="497" 
d="M293 641q38 0 71 -10t57 -31t38 -52t14 -73q0 -64 -23.5 -102.5t-59 -62t-75.5 -37t-73 -28.5q-23 -8 -33.5 -16t-10.5 -21q0 -22 16.5 -37t52.5 -15q52 0 97 21.5t74 59.5q10 8 15 8q11 0 18 -19t7 -54q0 -43 -18 -77.5t-48.5 -58.5t-70.5 -36.5t-84 -12.5
q-67 0 -113 24t-74.5 66t-40.5 97.5t-12 118.5q0 93 22 159t59.5 108t88 61.5t106.5 19.5zM282 866q48 0 73 -23.5t25 -66.5q0 -42 -25 -63.5t-73 -21.5q-45 0 -71.5 21.5t-26.5 63.5q0 43 26.5 66.5t71.5 23.5zM190 355q9 0 19 5q16 8 34.5 17.5t35 21t27.5 26t11 32.5
q0 20 -12 32.5t-34 12.5q-21 0 -38 -10.5t-29 -28t-19 -41t-7 -49.5q0 -8 2.5 -13t9.5 -5z" />
    <glyph glyph-name="Eogonek" unicode="&#x118;" horiz-adv-x="571" 
d="M88 737q3 11 9.5 18.5t17.5 8.5q29 2 82.5 3.5t113.5 1.5q64 0 124.5 -2t98.5 -4q11 -1 15 -5t4 -9q0 -9 -4 -27t-10.5 -39t-14 -42.5t-14.5 -36.5q-5 -11 -18 -11q-5 0 -13 3q-25 10 -65.5 18t-85.5 8q-26 0 -40.5 -5t-23.5 -15q-11 -12 -17 -41t-6 -58q0 -30 27 -30
q26 0 56.5 8t74.5 8q6 0 18.5 -0.5t26 -3t23.5 -7.5t10 -14q0 -6 -3.5 -22.5t-8 -37.5t-10 -41.5t-10.5 -34.5q-3 -9 -6.5 -12t-9.5 -3q-5 0 -16.5 2.5t-26 5.5t-30.5 5.5t-31 2.5q-50 0 -69.5 -19.5t-19.5 -57.5q0 -26 3.5 -42.5t11 -25.5t20.5 -12t32 -3q31 0 59 7
t52.5 17.5t45 23.5t35.5 26q8 7 15 7q8 0 16 -21t14 -48t9.5 -51.5t3.5 -32.5q0 -17 -17 -26q-36 -20 -53 -36t-17 -33q0 -14 8 -22.5t28 -8.5q15 0 24.5 4t17.5 4t12.5 -4.5t4.5 -10.5q0 -20 -33.5 -39.5t-92.5 -19.5q-94 0 -94 56q0 12 5 21t11 15.5t11 11.5t5 10
q0 10 -11 10q-9 0 -38.5 -4.5t-70.5 -10t-88 -10t-90 -4.5q-16 0 -24.5 6t-9.5 23q-3 65 -3 140q0 68 3 140.5t9 145.5t15.5 144.5t22.5 137.5z" />
    <glyph glyph-name="eogonek" unicode="&#x119;" horiz-adv-x="497" 
d="M17 317q0 87 22 148.5t59.5 100.5t88 57t106.5 18q38 0 71 -10t57 -30t38 -50t14 -71q0 -58 -23.5 -93.5t-58.5 -57t-75.5 -34t-73.5 -25.5q-24 -8 -34 -15.5t-10 -20.5q0 -19 16.5 -32t52.5 -13q52 0 97 21t74 59q8 7 15 7q11 0 18 -19t7 -51q0 -45 -16 -74.5t-35 -51.5
t-35 -40.5t-16 -40.5q0 -11 8 -19.5t28 -8.5q15 0 24.5 4t17.5 4t12 -4.5t4 -10.5q0 -10 -8.5 -20.5t-24 -19t-37.5 -14t-48 -5.5q-50 0 -73 15t-23 36q0 12 5 20t10.5 14t10.5 11t5 12q0 12 -17 12q-71 0 -119.5 22.5t-78 61.5t-42.5 92.5t-13 115.5zM178 391
q0 -8 2.5 -13.5t9.5 -5.5q5 0 17 5q15 6 34 14.5t36 19.5t28.5 24.5t11.5 29.5q0 20 -12 32.5t-34 12.5q-23 0 -40.5 -11t-29 -28t-17.5 -38.5t-6 -41.5z" />
    <glyph glyph-name="Ecaron" unicode="&#x11a;" horiz-adv-x="571" 
d="M38 173q0 67 3 139t9 144.5t15.5 144t22.5 136.5q3 11 9.5 18.5t17.5 8.5q28 2 81 3.5t113 1.5q66 0 126.5 -2t98.5 -4q11 -1 15 -5t4 -9t-4.5 -22t-11 -39t-14 -44.5t-13.5 -39.5q-4 -11 -16 -11q-6 0 -13 2t-18 6q-23 8 -56.5 14.5t-78.5 6.5q-25 0 -40 -4t-24 -15
q-11 -13 -17 -42t-6 -58q0 -30 27 -30q26 0 60.5 8t77.5 8q31 0 51 -5.5t20 -19.5q0 -8 -3.5 -25t-8 -37.5t-10 -40t-10.5 -33.5q-3 -9 -6.5 -12t-9.5 -3q-11 0 -40 8t-64 8q-50 0 -69.5 -19.5t-19.5 -57.5q0 -26 3.5 -42.5t11 -25.5t20.5 -12.5t32 -3.5q67 0 114 15.5
t74 29.5q8 4 11 6t8 2q9 0 13 -10q5 -12 10.5 -37t10 -52.5t7 -53.5t2.5 -40q0 -26 -29 -28q-49 -2 -104.5 -3t-111.5 -1q-66 0 -126.5 1t-105.5 3q-17 1 -25.5 6t-9.5 23q-3 66 -3 144zM234 1009q8 0 13.5 -3t11.5 -11q26 -36 39 -45.5t20 -9.5q5 0 9.5 1.5t11.5 7.5
t16.5 17t23.5 30q5 6 10.5 9.5t13.5 3.5q6 0 23 -3.5t35 -9t31.5 -13.5t13.5 -17q0 -5 -4 -12q-9 -15 -32 -41.5t-50.5 -53t-55.5 -46t-46 -19.5t-45.5 19.5t-55 46t-50.5 53t-32 41.5q-4 7 -4 13q0 9 13.5 16.5t31.5 13t35 9t23 3.5z" />
    <glyph glyph-name="ecaron" unicode="&#x11b;" horiz-adv-x="497" 
d="M293 641q38 0 71 -10t57 -31t38 -52t14 -73q0 -64 -23.5 -102.5t-59 -62t-75.5 -37t-73 -28.5q-23 -8 -33.5 -16t-10.5 -21q0 -22 16.5 -37t52.5 -15q52 0 97 21.5t74 59.5q10 8 15 8q11 0 18 -19t7 -54q0 -43 -18 -77.5t-48.5 -58.5t-70.5 -36.5t-84 -12.5
q-67 0 -113 24t-74.5 66t-40.5 97.5t-12 118.5q0 93 22 159t59.5 108t88 61.5t106.5 19.5zM191 894q8 0 13.5 -3t11.5 -11q26 -36 39 -45.5t20 -9.5q5 0 9.5 1.5t11.5 7.5t16.5 17t23.5 30q5 6 10.5 9.5t13.5 3.5q6 0 23 -3.5t35 -9t31.5 -13.5t13.5 -17q0 -5 -4 -12
q-9 -15 -32 -41.5t-50.5 -53t-55.5 -46t-46 -19.5t-45.5 19.5t-55 46t-50.5 53t-32 41.5q-4 7 -4 13q0 9 13.5 16.5t31.5 13t35 9t23 3.5zM190 355q9 0 19 5q16 8 34.5 17.5t35 21t27.5 26t11 32.5q0 20 -12 32.5t-34 12.5q-21 0 -38 -10.5t-29 -28t-19 -41t-7 -49.5
q0 -8 2.5 -13t9.5 -5z" />
    <glyph glyph-name="Gcircumflex" unicode="&#x11c;" horiz-adv-x="627" 
d="M23 323q0 93 21 176t64 144.5t108 97.5t152 36q57 0 97 -14.5t65.5 -39t37.5 -57t12 -67.5q0 -17 -6.5 -29t-17.5 -23q-14 -14 -35.5 -29t-44 -27t-43 -20t-31.5 -8q-16 0 -16 17q0 7 0.5 14.5t0.5 15.5q0 15 -3 31.5t-10 30t-18 22t-28 8.5q-45 0 -73 -58.5t-28 -171.5
q0 -60 8 -100t22.5 -64t34.5 -34.5t45 -10.5q38 0 57.5 21t19.5 59q0 29 -11.5 44.5t-37.5 23.5q-14 4 -14 19q0 10 4.5 14.5t21.5 9.5q22 9 50.5 21t56 23t49.5 18.5t30 7.5q17 0 20 -22q4 -51 8 -101.5t4 -104.5q0 -99 -67.5 -156.5t-196.5 -57.5q-149 0 -228.5 90
t-79.5 251zM152 849q0 13 21 37.5t49 50.5t54.5 48t38.5 29q7 5 13 6t11 1q18 0 45 -20t54.5 -46.5t51 -53t33.5 -40.5q4 -5 4 -12q0 -9 -13.5 -17t-31.5 -13.5t-35 -9t-23 -3.5q-8 0 -13 3.5t-11 11.5q-15 18 -24.5 29t-16 16.5t-11 7t-9.5 1.5q-4 0 -9 -1.5t-11.5 -6.5
t-16 -16t-23.5 -30q-10 -15 -24 -15q-6 0 -23 3t-35 9t-31.5 14t-13.5 17z" />
    <glyph glyph-name="gcircumflex" unicode="&#x11d;" horiz-adv-x="540" 
d="M15 112q0 26 6.5 47.5t17 39.5t22.5 32t24 26q11 11 11 18t-8 15q-20 20 -40 57t-20 93q0 47 16.5 84.5t47 63.5t73.5 40t95 14q50 0 78 -8.5t50 -18.5q11 -3 18 -3q8 0 14.5 4.5t17.5 15.5q13 13 25 13q7 0 20 -7.5t25.5 -18.5t22 -22.5t9.5 -19.5q0 -10 -10 -19
q-19 -16 -24.5 -24t-5.5 -21q0 -11 5 -30t5 -51q0 -43 -14 -79t-43 -61.5t-73 -39.5t-105 -14q-32 0 -53.5 -5.5t-34 -14.5t-17.5 -20.5t-5 -22.5q0 -29 34 -29q17 0 39.5 7t48.5 15t55 15t60 7q14 0 33.5 -2.5t37.5 -9t31 -18t13 -30.5q0 -12 -3 -28t-8.5 -33t-11.5 -33
t-12 -28q-5 -11 -11.5 -14.5t-13.5 -3.5q-9 0 -14 4q-22 11 -44 17t-47 6q-23 0 -44 -5t-43 -11t-47 -11t-57 -5q-70 0 -108 32.5t-38 94.5zM253 884q7 5 13 6t11 1q18 0 45 -20t54.5 -46.5t51 -53t33.5 -40.5q4 -5 4 -12q0 -9 -13.5 -17t-31.5 -13.5t-35 -9t-23 -3.5
q-8 0 -13 3.5t-11 11.5q-15 18 -24.5 29t-16 16.5t-11 7t-9.5 1.5q-4 0 -9 -1.5t-11.5 -6.5t-16 -16t-23.5 -30q-10 -15 -24 -15q-6 0 -23 3t-35 9t-31.5 14t-13.5 17q0 14 21 38.5t49 50t54.5 47t38.5 29.5zM204 449q0 -29 18.5 -48t49.5 -19q29 0 49.5 18t20.5 49
q0 29 -19 47.5t-50 18.5q-32 0 -50.5 -18.5t-18.5 -47.5z" />
    <glyph glyph-name="Gbreve" unicode="&#x11e;" horiz-adv-x="627" 
d="M368 777q57 0 97 -14.5t65.5 -39t37.5 -57t12 -67.5q0 -17 -6.5 -29t-17.5 -23q-14 -14 -35.5 -29t-44 -27t-43 -20t-31.5 -8q-16 0 -16 17q0 7 0.5 14.5t0.5 15.5q0 15 -3 31.5t-10 30t-18 22t-28 8.5q-45 0 -73 -58.5t-28 -171.5q0 -60 8 -100t22.5 -64t34.5 -34.5
t45 -10.5q38 0 57.5 21t19.5 59q0 29 -11.5 44.5t-37.5 23.5q-14 4 -14 19q0 10 4.5 14.5t21.5 9.5q22 9 50.5 21t56 23t49.5 18.5t30 7.5q17 0 20 -22q4 -51 8 -101.5t4 -104.5q0 -99 -67.5 -156.5t-196.5 -57.5q-149 0 -228.5 90t-79.5 251q0 93 21 176t64 144.5t108 97.5
t152 36zM165 960q0 20 12 26t44 6t42.5 -4.5t14.5 -21.5q4 -19 17.5 -28.5t43.5 -9.5q32 0 46.5 10t19.5 28q5 17 15.5 20t36.5 3q34 0 45.5 -5.5t11.5 -25.5q0 -33 -8.5 -60t-28.5 -46.5t-54 -30t-84 -10.5q-48 0 -81 10t-54 29t-30 47t-9 63z" />
    <glyph glyph-name="gbreve" unicode="&#x11f;" horiz-adv-x="540" 
d="M15 112q0 26 6.5 47.5t17 39.5t22.5 32t24 26q11 11 11 18t-8 15q-20 20 -40 57t-20 93q0 47 16.5 84.5t47 63.5t73.5 40t95 14q50 0 78 -8.5t50 -18.5q11 -3 18 -3q8 0 14.5 4.5t17.5 15.5q13 13 25 13q7 0 20 -7.5t25.5 -18.5t22 -22.5t9.5 -19.5q0 -10 -10 -19
q-19 -16 -24.5 -24t-5.5 -21q0 -11 5 -30t5 -51q0 -43 -14 -79t-43 -61.5t-73 -39.5t-105 -14q-32 0 -53.5 -5.5t-34 -14.5t-17.5 -20.5t-5 -22.5q0 -29 34 -29q17 0 39.5 7t48.5 15t55 15t60 7q14 0 33.5 -2.5t37.5 -9t31 -18t13 -30.5q0 -12 -3 -28t-8.5 -33t-11.5 -33
t-12 -28q-5 -11 -11.5 -14.5t-13.5 -3.5q-9 0 -14 4q-22 11 -44 17t-47 6q-23 0 -44 -5t-43 -11t-47 -11t-57 -5q-70 0 -108 32.5t-38 94.5zM103 828q0 20 12 26t44 6t42.5 -4.5t14.5 -21.5q4 -19 17.5 -28.5t43.5 -9.5q32 0 46.5 10t19.5 28q5 17 15.5 20t36.5 3
q34 0 45.5 -5.5t11.5 -25.5q0 -33 -8.5 -60t-28.5 -46.5t-54 -30t-84 -10.5q-48 0 -81 10t-54 29t-30 47t-9 63zM204 449q0 -29 18.5 -48t49.5 -19q29 0 49.5 18t20.5 49q0 29 -19 47.5t-50 18.5q-32 0 -50.5 -18.5t-18.5 -47.5z" />
    <glyph glyph-name="Gdotaccent" unicode="&#x120;" horiz-adv-x="627" 
d="M368 777q57 0 97 -14.5t65.5 -39t37.5 -57t12 -67.5q0 -17 -6.5 -29t-17.5 -23q-14 -14 -35.5 -29t-44 -27t-43 -20t-31.5 -8q-16 0 -16 17q0 7 0.5 14.5t0.5 15.5q0 15 -3 31.5t-10 30t-18 22t-28 8.5q-45 0 -73 -58.5t-28 -171.5q0 -60 8 -100t22.5 -64t34.5 -34.5
t45 -10.5q38 0 57.5 21t19.5 59q0 29 -11.5 44.5t-37.5 23.5q-14 4 -14 19q0 10 4.5 14.5t21.5 9.5q22 9 50.5 21t56 23t49.5 18.5t30 7.5q17 0 20 -22q4 -51 8 -101.5t4 -104.5q0 -99 -67.5 -156.5t-196.5 -57.5q-149 0 -228.5 90t-79.5 251q0 93 21 176t64 144.5t108 97.5
t152 36zM244 906q0 43 26.5 66.5t71.5 23.5q48 0 73 -23.5t25 -66.5q0 -42 -25 -63.5t-73 -21.5q-45 0 -71.5 21.5t-26.5 63.5z" />
    <glyph glyph-name="gdotaccent" unicode="&#x121;" horiz-adv-x="540" 
d="M15 112q0 26 6.5 47.5t17 39.5t22.5 32t24 26q11 11 11 18t-8 15q-20 20 -40 57t-20 93q0 47 16.5 84.5t47 63.5t73.5 40t95 14q50 0 78 -8.5t50 -18.5q11 -3 18 -3q8 0 14.5 4.5t17.5 15.5q13 13 25 13q7 0 20 -7.5t25.5 -18.5t22 -22.5t9.5 -19.5q0 -10 -10 -19
q-19 -16 -24.5 -24t-5.5 -21q0 -11 5 -30t5 -51q0 -43 -14 -79t-43 -61.5t-73 -39.5t-105 -14q-32 0 -53.5 -5.5t-34 -14.5t-17.5 -20.5t-5 -22.5q0 -29 34 -29q17 0 39.5 7t48.5 15t55 15t60 7q14 0 33.5 -2.5t37.5 -9t31 -18t13 -30.5q0 -12 -3 -28t-8.5 -33t-11.5 -33
t-12 -28q-5 -11 -11.5 -14.5t-13.5 -3.5q-9 0 -14 4q-22 11 -44 17t-47 6q-23 0 -44 -5t-43 -11t-47 -11t-57 -5q-70 0 -108 32.5t-38 94.5zM280 866q48 0 73 -23.5t25 -66.5q0 -42 -25 -63.5t-73 -21.5q-45 0 -71.5 21.5t-26.5 63.5q0 43 26.5 66.5t71.5 23.5zM272 382
q29 0 49.5 18t20.5 49q0 29 -19 47.5t-50 18.5q-32 0 -50.5 -18.5t-18.5 -47.5t18.5 -48t49.5 -19z" />
    <glyph glyph-name="uni0122" unicode="&#x122;" horiz-adv-x="627" 
d="M23 395q0 79 21 148.5t63 121.5t105 82t147 30q60 0 102 -12.5t68.5 -33t38.5 -47.5t12 -57q0 -14 -6.5 -24t-17.5 -19q-15 -13 -37.5 -25t-45.5 -22t-42.5 -16t-28.5 -6q-16 0 -16 15q0 6 0.5 12t0.5 12q0 13 -3 27t-10 25.5t-18 19t-28 7.5q-45 0 -73 -50.5t-28 -147.5
q0 -50 8 -84t22.5 -54.5t34.5 -29t45 -8.5q78 0 78 67q0 21 -9.5 34t-31.5 25q-7 4 -9.5 7t-2.5 9q0 11 15 18q18 8 45.5 18.5t55 19.5t51 15.5t33.5 6.5q18 0 21 -18q4 -42 8 -84.5t4 -87.5q0 -84 -67.5 -132t-196.5 -48q-149 0 -228.5 68.5t-79.5 217.5zM325 56
q47 0 69.5 -19t22.5 -49q0 -17 -8 -33t-24.5 -28.5t-42.5 -20.5t-61 -8q-23 0 -23 17q0 4 4 9.5t8.5 11.5t8.5 13.5t4 16.5q0 14 -6 23t-16 17q-16 13 -16 20q0 12 22.5 21t57.5 9z" />
    <glyph glyph-name="uni0123" unicode="&#x123;" horiz-adv-x="540" 
d="M15 112q0 26 6.5 47.5t17 39.5t22.5 32t24 26q11 11 11 18t-8 15q-20 20 -40 57t-20 93q0 47 16.5 84.5t47 63.5t73.5 40t95 14q50 0 78 -8.5t50 -18.5q11 -3 18 -3q8 0 14.5 4.5t17.5 15.5q13 13 25 13q7 0 20 -7.5t25.5 -18.5t22 -22.5t9.5 -19.5q0 -10 -10 -19
q-19 -16 -24.5 -24t-5.5 -21q0 -11 5 -30t5 -51q0 -43 -14 -79t-43 -61.5t-73 -39.5t-105 -14q-32 0 -53.5 -5.5t-34 -14.5t-17.5 -20.5t-5 -22.5q0 -29 34 -29q17 0 39.5 7t48.5 15t55 15t60 7q14 0 33.5 -2.5t37.5 -9t31 -18t13 -30.5q0 -12 -3 -28t-8.5 -33t-11.5 -33
t-12 -28q-5 -11 -11.5 -14.5t-13.5 -3.5q-9 0 -14 4q-22 11 -44 17t-47 6q-23 0 -44 -5t-43 -11t-47 -11t-57 -5q-70 0 -108 32.5t-38 94.5zM183 759q0 17 8 33t24.5 28.5t42.5 20.5t61 8q23 0 23 -17q0 -4 -4 -9.5t-8.5 -11.5t-8.5 -13.5t-4 -16.5q0 -14 6 -23t16 -17
q16 -13 16 -20q0 -12 -22.5 -21t-57.5 -9q-47 0 -69.5 19t-22.5 49zM272 382q29 0 49.5 18t20.5 49q0 29 -19 47.5t-50 18.5q-32 0 -50.5 -18.5t-18.5 -47.5t18.5 -48t49.5 -19z" />
    <glyph glyph-name="Hcircumflex" unicode="&#x124;" horiz-adv-x="696" 
d="M46 327q0 171 13.5 275t22.5 136q4 14 10.5 19t14.5 6q19 2 39.5 3t40.5 1q44 0 81 -3q16 -3 16 -19q0 -8 -4.5 -29.5t-9.5 -53.5t-9.5 -75t-4.5 -94q0 -17 4 -26t11 -14q11 -5 29 -2.5t47 2.5q32 0 50.5 -1.5t28.5 3.5q15 11 15 40q0 44 -4.5 85t-10.5 74.5t-10.5 57.5
t-4.5 33q0 16 16 19q18 2 38 2.5t40 0.5q42 0 84 -3q10 -1 17 -6.5t10 -19.5q9 -32 22 -136t13 -275q0 -51 -2 -98.5t-5 -86.5t-6.5 -68t-6.5 -43q-4 -17 -10 -22.5t-18 -7.5q-21 -1 -42.5 -2t-42.5 -1q-42 0 -86 3q-10 2 -14.5 5.5t-4.5 12.5q0 10 4 36t9.5 57.5t9.5 65
t4 58.5q0 38 -19.5 54.5t-60.5 16.5q-57 0 -80 -22t-23 -67q0 -29 4.5 -60.5t9.5 -59t9.5 -49t4.5 -30.5q0 -17 -18 -18q-42 -3 -88 -3q-22 0 -44.5 1t-43.5 3q-11 2 -16.5 7.5t-8.5 21.5q-3 14 -6.5 43t-6.5 68t-5 86.5t-2 98.5zM324 1010q7 5 13 6t11 1q18 0 45 -20
t54.5 -46.5t51 -53t33.5 -40.5q4 -5 4 -12q0 -9 -13.5 -17t-31.5 -13.5t-35 -9t-23 -3.5q-8 0 -13 3.5t-11 11.5q-15 18 -24.5 29t-16 16.5t-11 7t-9.5 1.5q-4 0 -9 -1.5t-11.5 -6.5t-16 -16t-23.5 -30q-10 -15 -24 -15q-6 0 -23 3t-35 9t-31.5 14t-13.5 17q0 14 21 38.5
t49 50t54.5 47t38.5 29.5z" />
    <glyph glyph-name="hcircumflex" unicode="&#x125;" horiz-adv-x="561" 
d="M71 783q2 15 10 22.5t16 8.5q18 2 38.5 3t41.5 1h35.5t33.5 -3q15 -3 15 -21q0 -9 -6 -27.5t-12.5 -42.5t-12.5 -50.5t-6 -50.5t16 -24q8 0 20 6.5t29.5 15t40 15t50.5 6.5q36 0 64.5 -13t48.5 -43.5t30.5 -81t10.5 -125.5q0 -54 -2.5 -107t-6 -100t-8 -84.5t-7.5 -60.5
q-4 -26 -27 -28q-9 0 -24.5 -0.5t-33.5 -0.5q-20 0 -41.5 0.5t-38.5 2.5q-10 1 -17 5t-7 18q0 9 4 40.5t9 75.5t9 94.5t4 96.5q0 42 -3 68.5t-9 41.5t-16 20.5t-24 5.5q-16 0 -29 -7.5t-22.5 -25t-15 -46t-5.5 -70.5q0 -118 5 -195t5 -98q0 -14 -8 -18.5t-18 -6.5
q-14 -1 -31 -1.5t-36 -0.5h-38.5t-34.5 2q-8 1 -14.5 5.5t-9.5 18.5q-4 32 -6.5 93.5t-2.5 142.5q0 60 1.5 126t6 134t11.5 135t18 128zM-13 887q0 13 21 37.5t49 50.5t54.5 48t38.5 29q7 5 13 6t11 1q18 0 45 -20t54.5 -46.5t51 -53t33.5 -40.5q4 -5 4 -12q0 -9 -13.5 -17
t-31.5 -13.5t-35 -9t-23 -3.5q-8 0 -13 3.5t-11 11.5q-15 18 -24.5 29t-16 16.5t-11 7t-9.5 1.5q-4 0 -9 -1.5t-11.5 -6.5t-16 -16t-23.5 -30q-10 -15 -24 -15q-6 0 -23 3t-35 9t-31.5 14t-13.5 17z" />
    <glyph glyph-name="Hbar" unicode="&#x126;" horiz-adv-x="702" 
d="M1 604q2 17 18 17q8 1 16 0.5t16 -0.5q9 0 12.5 6.5t5.5 14.5q4 35 8.5 59t8.5 37q4 14 10.5 19t15.5 6q20 2 40.5 3t41.5 1q20 0 40.5 -0.5t37.5 -2.5q9 -2 12 -6.5t3 -14.5q0 -6 -2 -20.5t-4 -30t-4 -29.5t-2 -20q0 -15 18 -15h115q21 0 21 19q0 8 -2 21.5t-5 28.5
t-5 28t-2 20q0 16 17 19q36 3 79 3q42 0 82 -3q10 -1 17.5 -6.5t10.5 -19.5q3 -13 7 -36t9 -57q2 -10 6 -16.5t16 -7.5h23q19 -1 20 -14q1 -10 1.5 -21t0.5 -23q0 -24 -3 -45q-1 -6 -5 -10.5t-14 -4.5q-2 0 -8 0.5t-11 0.5q-12 0 -12 -15q1 -23 2.5 -67.5t1.5 -94.5
q0 -51 -2 -98.5t-5 -86.5t-6.5 -68t-6.5 -43q-4 -17 -10 -22.5t-17 -7.5q-43 -3 -86 -3t-85 3q-20 3 -20 19q0 9 4 35.5t9.5 59t9.5 66t4 57.5q0 66 -78 66q-56 0 -80 -21.5t-24 -65.5q0 -27 4.5 -58t9.5 -59t9.5 -49.5t4.5 -30.5q0 -16 -19 -19q-40 -3 -87 -3q-23 0 -45 1
t-44 3q-11 2 -16.5 7.5t-8.5 21.5q-3 14 -6.5 43t-6.5 68t-5 86.5t-2 98.5q0 46 2.5 91t2.5 73q0 21 -21 21h-12q-13 0 -16.5 5.5t-5.5 16.5q-1 7 -1 14v14q0 11 0.5 21t1.5 21zM278 417q13 -1 31 0.5t45 1.5q22 0 42.5 -1.5t30.5 0.5q15 2 19.5 9t6.5 18v43q0 26 -29 29
q-20 2 -44 2h-50h-23.5t-25.5 -1q-14 -1 -18.5 -6t-6.5 -16q-2 -13 -3 -28.5t-1 -29.5q0 -11 6.5 -15.5t19.5 -5.5z" />
    <glyph glyph-name="hbar" unicode="&#x127;" horiz-adv-x="561" 
d="M0 711q0 28 6.5 37t23.5 9h15q20 0 23 15q1 5 1.5 10t1.5 11q3 29 26 31q39 3 79 3h36t34 -2q15 -1 15 -21q0 -5 -2.5 -16.5t-2.5 -17.5q0 -10 12 -11q20 0 39.5 0.5t30.5 0.5q17 -1 20.5 -13t3.5 -37q0 -35 -6 -46.5t-19 -11.5q-17 0 -43 0.5t-48 0.5q-16 0 -19 -21
q-3 -24 -3 -45q0 -24 16 -24q8 0 20 6.5t29.5 15t40 15t51.5 6.5q36 0 64 -11.5t48 -39t30.5 -72.5t10.5 -112q0 -52 -2.5 -104.5t-6 -98t-8 -82.5t-7.5 -59q-4 -26 -27 -28q-9 0 -24.5 -0.5t-33.5 -0.5q-22 0 -45 0.5t-41 2.5q-10 1 -17 4.5t-7 14.5q0 7 5 35.5t11 69
t11 87t5 88.5q0 41 -3 66.5t-9 40t-16 19.5t-24 5q-31 0 -51.5 -30.5t-20.5 -109.5q0 -118 5 -184t5 -86q0 -12 -8 -15.5t-18 -5.5q-14 -1 -31 -1.5t-36 -0.5h-38.5t-34.5 2q-8 1 -14.5 5.5t-9.5 18.5q-5 30 -7 92.5t-2 144.5q0 186 8.5 279.5t8.5 101.5q0 11 -15 11h-14
q-15 1 -18.5 13.5t-3.5 44.5z" />
    <glyph glyph-name="Itilde" unicode="&#x128;" horiz-adv-x="338" 
d="M47 327q0 171 13.5 275t20.5 136q3 14 10 19t17 7q42 3 88 3q50 0 92 -3q18 -2 17 -18q0 -10 -7 -39.5t-16 -76t-16 -109.5t-7 -140q0 -75 6.5 -138t14 -110.5t14 -76.5t6.5 -37q0 -9 -4.5 -12t-13.5 -5q-23 -4 -47 -4h-48q-25 0 -49 0.5t-47 3.5q-11 2 -16 6.5t-9 17.5
q-3 15 -6.5 45t-6.5 70.5t-4.5 88t-1.5 97.5zM121 976q14 0 36 -3.5t45.5 -8t45.5 -8t36 -3.5q23 0 39.5 8t27.5 20q7 5 11 5q13 0 13 -23q0 -28 -5.5 -55.5t-18 -49t-32.5 -34.5t-49 -13q-19 0 -43.5 6t-50 12.5t-50 12.5t-42.5 6q-16 0 -27 -4.5t-23 -13.5l-9 -4.5
t-8 -1.5q-11 0 -11 14q0 25 8 50t23 44.5t36.5 31.5t47.5 12z" />
    <glyph glyph-name="itilde" unicode="&#x129;" horiz-adv-x="281" 
d="M61 603q2 15 10 19.5t18 5.5q17 2 32 2h29q15 0 30 -0.5t32 -1.5q23 -2 23 -20q0 -8 -1 -28.5t-2.5 -49.5t-2.5 -65t-1 -76q0 -75 4 -137t9.5 -110t9.5 -79.5t4 -44.5q0 -9 -5.5 -13t-13.5 -5q-36 -3 -81 -3q-44 0 -82 3q-8 1 -15.5 5.5t-9.5 20.5q-8 51 -10 108.5
t-2 119.5q0 91 5.5 182t19.5 167zM28 706q0 25 6.5 49t18 43.5t28 31.5t37.5 12q9 0 23.5 -2.5t30 -5.5t30 -5.5t23.5 -2.5q16 0 27.5 6t19.5 14q5 5 8 5q5 0 8.5 -4.5t3.5 -14.5q0 -27 -4.5 -53t-13.5 -46.5t-23.5 -33.5t-35.5 -13q-12 0 -28.5 4.5t-33.5 10.5t-33 10.5
t-28 4.5q-23 0 -43 -20q-5 -5 -10 -5q-11 0 -11 15z" />
    <glyph glyph-name="Imacron" unicode="&#x12a;" horiz-adv-x="338" 
d="M81 738q3 14 10 19t17 7q42 3 88 3q50 0 92 -3q18 -2 17 -18q0 -10 -7 -39.5t-16 -76t-16 -109.5t-7 -140q0 -75 6.5 -138t14 -110.5t14 -76.5t6.5 -37q0 -9 -4.5 -12t-13.5 -5q-23 -4 -47 -4h-48q-25 0 -49 0.5t-47 3.5q-11 2 -16 6.5t-9 17.5q-3 15 -6.5 45t-6.5 70.5
t-4.5 88t-1.5 97.5q0 171 13 275t21 136zM23 898q0 10 1 19.5t2 18.5q3 27 30 28q22 2 51.5 1.5t61.5 -0.5h76.5t61.5 -2q17 -1 27.5 -5t16 -11.5t7 -18.5t1.5 -26q0 -11 -1 -23t-3 -25q-2 -12 -8.5 -18t-23.5 -8q-23 -2 -51.5 -3t-58.5 -1q-39 0 -77.5 1.5t-65.5 3.5
q-24 2 -33 7.5t-11 19.5q-2 9 -2.5 20t-0.5 22z" />
    <glyph glyph-name="imacron" unicode="&#x12b;" horiz-adv-x="281" 
d="M61 603q2 15 10 19.5t18 5.5q17 2 32 2h29q15 0 30 -0.5t32 -1.5q23 -2 23 -20q0 -8 -1 -28.5t-2.5 -49.5t-2.5 -65t-1 -76q0 -75 4 -137t9.5 -110t9.5 -79.5t4 -44.5q0 -9 -5.5 -13t-13.5 -5q-36 -3 -81 -3q-44 0 -82 3q-8 1 -15.5 5.5t-9.5 20.5q-8 51 -10 108.5
t-2 119.5q0 91 5.5 182t19.5 167zM25 768q0 11 0.5 20.5t1.5 18.5q1 25 31 27q16 1 38 1.5t46 0.5t47 -0.5t38 -1.5q19 -2 29 -6.5t15 -13t6 -20t1 -27.5q0 -23 -4 -42q-2 -12 -8.5 -18.5t-23.5 -8.5q-16 -2 -36 -2.5t-42 -0.5q-26 0 -50.5 1t-42.5 3q-24 2 -32.5 8
t-10.5 20q-2 9 -2.5 19.5t-0.5 21.5z" />
    <glyph glyph-name="Ibreve" unicode="&#x12c;" horiz-adv-x="338" 
d="M47 327q0 171 13.5 275t20.5 136q3 14 10 19t17 7q42 3 88 3q50 0 92 -3q18 -2 17 -18q0 -10 -7 -39.5t-16 -76t-16 -109.5t-7 -140q0 -75 6.5 -138t14 -110.5t14 -76.5t6.5 -37q0 -9 -4.5 -12t-13.5 -5q-23 -4 -47 -4h-48q-25 0 -49 0.5t-47 3.5q-11 2 -16 6.5t-9 17.5
q-3 15 -6.5 45t-6.5 70.5t-4.5 88t-1.5 97.5zM17 954q0 20 12 26t44 6t42.5 -4.5t14.5 -21.5q4 -19 17.5 -28.5t43.5 -9.5q32 0 46.5 10t19.5 28q5 17 15.5 20t36.5 3q34 0 45.5 -5.5t11.5 -25.5q0 -33 -8.5 -60t-28.5 -46.5t-54 -30t-84 -10.5q-48 0 -81 10t-54 29t-30 47
t-9 63z" />
    <glyph glyph-name="ibreve" unicode="&#x12d;" horiz-adv-x="281" 
d="M36 254q0 91 5 182.5t20 166.5q3 15 10.5 19.5t17.5 5.5q17 2 32 2h29q15 0 30 -0.5t32 -1.5q23 -2 23 -20q0 -8 -1 -28.5t-2.5 -49.5t-2.5 -65t-1 -76q0 -75 4 -137t9.5 -110t9.5 -79.5t4 -44.5q0 -9 -5.5 -13t-13.5 -5q-36 -3 -81 -3q-44 0 -82 3q-8 1 -15.5 5.5
t-9.5 20.5q-8 51 -10 108.5t-2 119.5zM5 819q0 19 12 25t44 6q31 0 42.5 -4.5t14.5 -21.5q3 -16 9 -24.5t23 -8.5t23.5 9t11.5 24q5 17 15.5 20t36.5 3q34 0 45 -5.5t11 -24.5q0 -32 -7 -58.5t-23.5 -45t-44 -28.5t-69.5 -10q-80 0 -112 37.5t-32 106.5z" />
    <glyph glyph-name="Iogonek" unicode="&#x12e;" horiz-adv-x="338" 
d="M81 739q3 13 10 18t17 7q22 1 45 1.5t46 0.5h45.5t43.5 -2q17 -1 17 -17q0 -10 -7 -38.5t-16 -73.5t-16 -105t-7 -134q0 -66 6.5 -118t14 -90.5t13.5 -62t6 -31.5t-2.5 -12t-7.5 -7q-30 -17 -47 -35t-17 -38q0 -14 8 -22.5t28 -8.5q15 0 24.5 4t17.5 4t12 -4.5t4 -10.5
q0 -10 -8.5 -20.5t-24 -19t-37.5 -14t-48 -5.5q-53 0 -77.5 16t-24.5 41q0 16 8 27.5t17.5 19.5t17.5 14t8 11q0 7 -10 9t-35 2q-14 1 -25 4t-14 17t-6.5 41.5t-6 64.5t-4.5 81.5t-2 90.5q0 165 13 264.5t21 130.5z" />
    <glyph glyph-name="iogonek" unicode="&#x12f;" horiz-adv-x="281" 
d="M35 271q0 87 5.5 173.5t19.5 158.5q3 15 10 19.5t17 5.5q17 2 32 2h30q14 0 29 -0.5t32 -1.5q11 -1 17 -5.5t6 -15.5q0 -20 -3 -70t-3 -121q0 -70 4 -129.5t9 -103t9 -70t4 -32.5q0 -10 -5 -13t-14 -5q-27 -10 -46.5 -26.5t-19.5 -37.5q0 -11 8.5 -19.5t28.5 -8.5
q14 0 23.5 4t17.5 4t12.5 -4.5t4.5 -10.5q0 -10 -8.5 -20.5t-24 -19t-37.5 -14t-48 -5.5q-53 0 -77.5 17t-24.5 42q0 17 7 28t15.5 18.5t15.5 12.5t7 10q0 10 -18 10q-10 1 -16 6t-8 20q-5 45 -8 96t-3 106zM41 750q0 40 26.5 63t82.5 23q59 0 84 -23t25 -63
q0 -39 -25 -60.5t-84 -21.5q-56 0 -82.5 21.5t-26.5 60.5z" />
    <glyph glyph-name="Idotaccent" unicode="&#x130;" horiz-adv-x="338" 
d="M47 327q0 171 13.5 275t20.5 136q3 14 10 19t17 7q42 3 88 3q50 0 92 -3q18 -2 17 -18q0 -10 -7 -39.5t-16 -76t-16 -109.5t-7 -140q0 -75 6.5 -138t14 -110.5t14 -76.5t6.5 -37q0 -9 -4.5 -12t-13.5 -5q-23 -4 -47 -4h-48q-25 0 -49 0.5t-47 3.5q-11 2 -16 6.5t-9 17.5
q-3 15 -6.5 45t-6.5 70.5t-4.5 88t-1.5 97.5zM204 992q48 0 73 -23.5t25 -66.5q0 -42 -25 -63.5t-73 -21.5q-45 0 -71.5 21.5t-26.5 63.5q0 43 26.5 66.5t71.5 23.5z" />
    <glyph glyph-name="dotlessi" unicode="&#x131;" horiz-adv-x="281" 
d="M61 603q2 15 10 19.5t18 5.5q17 2 32 2h29q15 0 30 -0.5t32 -1.5q23 -2 23 -20q0 -8 -1 -28.5t-2.5 -49.5t-2.5 -65t-1 -76q0 -75 4 -137t9.5 -110t9.5 -79.5t4 -44.5q0 -9 -5.5 -13t-13.5 -5q-36 -3 -81 -3q-44 0 -82 3q-8 1 -15.5 5.5t-9.5 20.5q-8 51 -10 108.5
t-2 119.5q0 91 5.5 182t19.5 167z" />
    <glyph glyph-name="IJ" unicode="&#x132;" horiz-adv-x="662" 
d="M44 90q0 9 6 22.5t15.5 30.5t23 36.5t28.5 39.5q8 11 20 11q10 0 23 -10q20 -15 47 -25.5t64 -10.5q39 0 65 15.5t41 42.5t21.5 64.5t6.5 81.5q0 66 -4 126t-8.5 108t-8.5 79.5t-4 38.5q0 14 6 18t17 6q14 2 36 2h46h47t39 -2q10 -1 16.5 -5.5t9.5 -16.5q4 -16 8 -59
t7 -95t4.5 -106t1.5 -93q0 -114 -19 -191.5t-58 -125t-97.5 -67.5t-136.5 -20q-51 0 -92 8t-72.5 20.5t-54 28t-36.5 29.5q-8 8 -8 19zM66 738q4 14 10.5 19t16.5 7q41 3 84 3q45 0 84 -3q16 -1 16 -18q0 -9 -3 -31t-6 -53t-6 -67.5t-3 -75.5q0 -35 2.5 -70.5t5.5 -65.5
t5.5 -51t2.5 -26q0 -9 -3.5 -13t-14.5 -5q-42 -3 -89 -3q-46 0 -88 3q-11 1 -17 6t-8 19q-4 15 -6 51.5t-2 76.5q0 45 2 92.5t4.5 89t6 72.5t6.5 43z" />
    <glyph glyph-name="ij" unicode="&#x133;" horiz-adv-x="586" 
d="M279 28q0 13 1 30t3 34t4.5 31.5t4.5 22.5q4 14 16 17q8 1 13 0t12 1q12 4 16.5 23.5t4.5 61.5q0 57 -1.5 113t-3.5 103t-3.5 80t-1.5 45q0 13 4 20.5t16 11.5q11 4 32.5 5t45.5 1q18 0 34.5 -0.5t29.5 -2.5q14 -2 19 -8.5t7 -18.5q8 -68 12 -142t4 -138
q0 -100 -9.5 -164.5t-29.5 -102t-49.5 -52t-70.5 -14.5q-42 0 -66.5 6.5t-32.5 11.5q-11 6 -11 25zM60 603q2 15 9.5 19.5t17.5 5.5q17 2 32 2h30q14 0 29 -0.5t32 -1.5q23 -2 23 -20q0 -8 -1 -28.5t-2.5 -49.5t-2.5 -65t-1 -76q0 -75 2 -137t4 -110t4 -79.5t2 -44.5
q0 -9 -5.5 -13t-13.5 -5q-28 -3 -66 -3q-45 0 -81 3q-8 1 -16 5.5t-10 20.5q-5 51 -8 108.5t-3 119.5q0 91 5.5 182t19.5 167zM439 836q59 0 84 -23t25 -63q0 -39 -25 -60.5t-84 -21.5q-56 0 -82.5 21.5t-26.5 60.5q0 40 26.5 63t82.5 23zM150 836q58 0 83.5 -23t25.5 -63
q0 -39 -25.5 -60.5t-83.5 -21.5q-56 0 -82.5 21.5t-26.5 60.5q0 40 26.5 63t82.5 23z" />
    <glyph glyph-name="Jcircumflex" unicode="&#x134;" horiz-adv-x="400" 
d="M39 225q2 7 6.5 9.5t8.5 2.5q6 0 10.5 -3.5t10.5 -9.5q5 -5 12.5 -9t18.5 -4q29 0 40 40t11 105q0 74 -6 140t-13.5 118t-13.5 85.5t-6 40.5q0 14 6 18.5t17 5.5q15 1 37.5 1.5t46.5 0.5h49t41 -2q10 -1 16.5 -5.5t9.5 -16.5q4 -16 8 -57t7 -91.5t4.5 -103.5t1.5 -93
q0 -117 -16.5 -196t-46 -127t-70.5 -68.5t-90 -20.5q-57 0 -87.5 16.5t-42.5 33.5q-7 7 -7 19q0 11 2.5 29.5t7.5 42t12 49.5t15 50zM48 845q0 13 21 37.5t49 50.5t54.5 48t38.5 29q7 5 13 6t11 1q18 0 45 -20t54.5 -46.5t51 -53t33.5 -40.5q4 -5 4 -12q0 -9 -13.5 -17
t-31.5 -13.5t-35 -9t-23 -3.5q-8 0 -13 3.5t-11 11.5q-15 18 -24.5 29t-16 16.5t-11 7t-9.5 1.5q-4 0 -9 -1.5t-11.5 -6.5t-16 -16t-23.5 -30q-10 -15 -24 -15q-6 0 -23 3t-35 9t-31.5 14t-13.5 17z" />
    <glyph glyph-name="jcircumflex" unicode="&#x135;" horiz-adv-x="308" 
d="M1 28q0 13 1 30t3 34t4.5 31.5t4.5 22.5q4 14 16 17q8 1 13 0t12 1q12 4 16.5 23.5t4.5 61.5q0 57 -1.5 113t-3.5 103t-3.5 80t-1.5 45q0 13 4 20.5t16 11.5q11 4 32.5 5t45.5 1q18 0 34.5 -0.5t29.5 -2.5q14 -2 19 -8.5t7 -18.5q8 -68 12 -142t4 -138
q0 -100 -9.5 -164.5t-29.5 -102t-49.5 -52t-70.5 -14.5q-42 0 -66.5 6.5t-32.5 11.5q-11 6 -11 25zM22 719q0 12 16.5 38.5t39 53.5t45.5 48t36 21q9 0 22.5 -9.5t29 -24.5t31 -33.5t28 -36.5t20.5 -33.5t8 -24.5q0 -8 -10 -15.5t-22.5 -13.5t-25.5 -9.5t-19 -3.5t-10.5 3.5
t-12.5 13.5q-21 28 -27 35t-12 7q-3 0 -5.5 -1t-6.5 -5.5t-10.5 -13t-17.5 -22.5q-6 -8 -10.5 -12t-10.5 -4t-18.5 3.5t-25.5 9.5t-22.5 13.5t-9.5 15.5z" />
    <glyph glyph-name="uni0136" unicode="&#x136;" horiz-adv-x="664" 
d="M70 722q4 25 11.5 33t25.5 9q15 1 35 1.5t42 0.5q19 0 38.5 -0.5t39.5 -1.5q14 -1 20.5 -5.5t6.5 -18.5q0 -12 -6 -40.5t-12.5 -64t-12.5 -73t-6 -68.5q0 -14 9 -14q8 0 15 6q24 14 46 42.5t40 63.5t32.5 73t23.5 72q7 26 27 27q17 1 37 2t40 1q22 0 41.5 -1t33.5 -2
q23 -1 23 -21q0 -26 -9 -61t-26 -73.5t-42 -77t-58 -71.5q-9 -9 -9 -19t9 -18q33 -27 60.5 -62t47 -73t30.5 -78.5t11 -79.5q0 -28 -26 -31q-17 -2 -37.5 -2h-43.5q-20 0 -40 0.5t-40 1.5q-17 2 -23.5 10.5t-8.5 26.5q-13 105 -44 149t-69 44q-19 0 -33 -14t-14 -40
q0 -18 3 -39.5t7 -41.5t7 -37.5t3 -26.5q0 -29 -29 -32q-17 -1 -40 -1h-47q-20 0 -39 -0.5t-33 1.5q-15 2 -23.5 10t-10.5 30q-5 42 -6.5 89t-1.5 97q0 57 2 114t5.5 109t8 97t9.5 78zM333 56q47 0 69.5 -19t22.5 -49q0 -17 -8 -33t-24.5 -28.5t-42.5 -20.5t-61 -8
q-23 0 -23 17q0 4 4 9.5t8.5 11.5t8.5 13.5t4 16.5q0 14 -6 23t-16 17q-16 13 -16 20q0 12 22.5 21t57.5 9z" />
    <glyph glyph-name="uni0137" unicode="&#x137;" horiz-adv-x="568" 
d="M38 349q0 112 6 227t20 216q2 16 10.5 20.5t16.5 5.5q16 2 33 2h35h35t35 -2q11 -1 17.5 -5.5t6.5 -14.5q0 -9 -6 -48t-13 -91t-13 -108.5t-6 -101.5q0 -24 16 -24q24 0 43.5 14.5t34 39.5t23 57.5t10.5 68.5q1 13 7 17.5t17 5.5t29 1h38h46t33 -1q9 -1 15.5 -5.5
t6.5 -19.5q0 -34 -13 -65.5t-31.5 -58.5t-38 -48t-31.5 -33q-10 -10 -10 -16q0 -7 10 -15q23 -19 46.5 -38.5t42.5 -46.5t31 -63.5t12 -90.5q0 -17 -4.5 -23.5t-21.5 -8.5q-12 -1 -29.5 -1.5t-37.5 -0.5h-36t-34 2q-19 2 -25 6.5t-7 23.5q-3 85 -31.5 134t-70.5 49
q-17 0 -25 -12t-8 -30q0 -22 4.5 -45.5t10.5 -44.5t10.5 -37.5t4.5 -24.5q0 -17 -20 -19q-17 -2 -37.5 -2h-41.5h-42t-39 2q-8 1 -17 6.5t-11 22.5q-5 50 -5.5 106.5t-0.5 117.5zM207 46q0 12 22.5 21t57.5 9q47 0 69.5 -19t22.5 -49q0 -17 -8 -33t-24.5 -28.5t-42.5 -20.5
t-61 -8q-23 0 -23 17q0 4 4 9.5t8.5 11.5t8.5 13.5t4 16.5q0 14 -6 23t-16 17q-16 13 -16 20z" />
    <glyph glyph-name="Lacute" unicode="&#x139;" horiz-adv-x="476" 
d="M83 740q5 23 24 24q14 1 36.5 2t49.5 1q29 0 57.5 -1t45.5 -3q11 -1 15 -5t4 -11q0 -6 -6 -33.5t-14.5 -69.5t-19 -94t-19 -106.5t-14.5 -108.5t-6 -99q0 -41 10 -53t36 -12q32 0 65 12.5t58 27.5q10 6 15 8t9 2q10 0 14 -10q5 -13 10.5 -37.5t10 -51.5t7.5 -52t3 -40
q0 -28 -32 -30q-37 -2 -79.5 -3t-85.5 -1q-57 0 -109.5 1t-90.5 3q-17 1 -25.5 6t-9.5 23q-3 65 -3 141q0 68 2 141t7.5 146.5t14 145t20.5 137.5zM110 843q47 26 73.5 64t43.5 86q5 11 10 16t16 5q10 0 28 -1.5t39 -4t41.5 -6.5t35.5 -9q13 -5 17 -11t4 -17q0 -16 -15 -43
t-45.5 -53t-77.5 -45.5t-110 -19.5q-14 0 -33 1.5t-30 7.5q-10 5 -10 14t13 16z" />
    <glyph glyph-name="lacute" unicode="&#x13a;" horiz-adv-x="296" 
d="M76 757q2 15 9.5 19t17.5 6q17 1 34 1.5t34 0.5t34 -0.5t33 -1.5q23 -2 23 -20q0 -6 -3 -38.5t-6 -82t-6 -111.5t-3 -128q0 -69 3.5 -134t7 -116.5t7 -86.5t3.5 -46q0 -17 -19 -19q-17 -2 -37 -2h-41h-42t-39 2q-8 1 -17 6t-11 22q-5 59 -8.5 126t-3.5 139q0 118 7.5 238
t22.5 226zM87 860q47 26 73.5 64t43.5 86q5 11 10 16t16 5q10 0 28 -1.5t39 -4t41.5 -6.5t35.5 -9q13 -5 17 -11t4 -17q0 -16 -15 -43t-45.5 -53t-77.5 -45.5t-110 -19.5q-14 0 -33 1.5t-30 7.5q-10 5 -10 14t13 16z" />
    <glyph glyph-name="uni013B" unicode="&#x13b;" horiz-adv-x="479" 
d="M40 250q0 57 1.5 120t6 126.5t13 126t22.5 118.5q2 9 8 16t16 8q12 1 35.5 1.5t50.5 0.5q29 0 57.5 -0.5t45.5 -2.5q11 -1 15 -5.5t4 -10.5t-6 -28.5t-14.5 -55t-19 -74t-19 -85t-14.5 -88t-6 -83.5q0 -29 10 -40.5t35 -11.5q35 0 69 11.5t67 36.5q5 4 12 4q9 0 14 -11
q5 -12 10.5 -36.5t10 -51.5t7.5 -52.5t3 -40.5q0 -28 -32 -30q-36 -2 -78 -2.5t-85 -0.5q-57 0 -110.5 0.5t-91.5 2.5q-17 1 -25.5 6t-9.5 23q-1 26 -1.5 53t-0.5 56zM252 56q47 0 69.5 -19t22.5 -49q0 -17 -8 -33t-24.5 -28.5t-42.5 -20.5t-61 -8q-23 0 -23 17q0 4 4 9.5
t8.5 11.5t8.5 13.5t4 16.5q0 14 -6 23t-16 17q-16 13 -16 20q0 12 22.5 21t57.5 9z" />
    <glyph glyph-name="uni013C" unicode="&#x13c;" horiz-adv-x="296" 
d="M48 365q0 108 7.5 219t21.5 208q2 16 9.5 20.5t17.5 5.5q17 2 34 2h34t34 -0.5t33 -1.5q11 -1 17.5 -5.5t6.5 -15.5q0 -6 -3 -36t-6.5 -75.5t-6.5 -102t-3 -115.5q0 -54 3 -108t7 -99t7 -76.5t3 -40.5t-5.5 -15t-13.5 -6q-18 -1 -39 -1.5t-44 -0.5h-39.5t-36.5 2
q-11 1 -18.5 7.5t-9.5 21.5q-5 48 -7.5 102t-2.5 111zM160 76q47 0 69.5 -19t22.5 -49q0 -17 -8 -33t-24.5 -28.5t-42.5 -20.5t-61 -8q-23 0 -23 17q0 4 4 9.5t8.5 11.5t8.5 13.5t4 16.5q0 14 -6 23t-16 17q-16 13 -16 20q0 12 22.5 21t57.5 9z" />
    <glyph glyph-name="Lcaron" unicode="&#x13d;" horiz-adv-x="493" 
d="M83 740q5 23 24 24q14 1 36.5 2t49.5 1q29 0 57.5 -1t45.5 -3q11 -1 15 -5t4 -11q0 -6 -6 -33.5t-14.5 -69.5t-19 -94t-19 -106.5t-14.5 -108.5t-6 -99q0 -41 10 -53t36 -12q32 0 65 12.5t58 27.5q10 6 15 8t9 2q10 0 14 -10q5 -13 10.5 -37.5t10 -51.5t7.5 -52t3 -40
q0 -28 -32 -30q-37 -2 -79.5 -3t-85.5 -1q-57 0 -109.5 1t-90.5 3q-17 1 -25.5 6t-9.5 23q-3 65 -3 141q0 68 2 141t7.5 146.5t14 145t20.5 137.5zM346 732q0 9 9.5 24t23 30t28.5 26t26 11q17 0 34.5 -29.5t17.5 -82.5q0 -47 -13.5 -79.5t-31.5 -53t-35.5 -30t-25.5 -9.5
q-14 0 -14 16q0 9 5 25t5 36q0 24 -5.5 49t-18.5 50q-5 10 -5 17z" />
    <glyph glyph-name="lcaron" unicode="&#x13e;" horiz-adv-x="393" 
d="M46 307q0 123 7 249t23 236q2 16 9.5 20t17.5 6q17 1 34 1.5t34 0.5t34 -0.5t33 -1.5q23 -2 23 -21q0 -6 -3 -40t-6 -85.5t-6 -116.5t-3 -134q0 -73 3.5 -140.5t7 -122t7 -91t3.5 -47.5q0 -18 -19 -20q-17 -2 -37 -2h-41h-42t-39 2q-8 1 -17 6.5t-11 22.5
q-5 62 -8.5 132.5t-3.5 145.5zM282 732q0 9 9.5 24.5t23 30t28.5 25.5t26 11q17 0 34.5 -29.5t17.5 -82.5q0 -47 -13.5 -79.5t-31.5 -53t-35.5 -30t-25.5 -9.5q-14 0 -14 16q0 9 5 25t5 36q0 24 -5.5 49t-18.5 50q-5 10 -5 17z" />
    <glyph glyph-name="Ldot" unicode="&#x13f;" horiz-adv-x="482" 
d="M83 740q5 23 24 24q14 1 36.5 2t49.5 1q29 0 57.5 -1t45.5 -3q11 -1 15 -5t4 -11q0 -6 -6 -33.5t-14.5 -69.5t-19 -94t-19 -106.5t-14.5 -108.5t-6 -99q0 -41 10 -53t36 -12q32 0 65 12.5t58 27.5q10 6 15 8t9 2q10 0 14 -10q5 -13 10.5 -37.5t10 -51.5t7.5 -52t3 -40
q0 -28 -32 -30q-37 -2 -79.5 -3t-85.5 -1q-57 0 -109.5 1t-90.5 3q-17 1 -25.5 6t-9.5 23q-3 65 -3 141q0 68 2 141t7.5 146.5t14 145t20.5 137.5zM297 420q0 47 23.5 72.5t63.5 25.5q42 0 64.5 -25.5t22.5 -72.5q0 -45 -22.5 -68.5t-64.5 -23.5q-40 0 -63.5 23.5
t-23.5 68.5z" />
    <glyph glyph-name="ldot" unicode="&#x140;" horiz-adv-x="404" 
d="M76 792q2 16 9.5 20t17.5 6q17 1 34 1.5t34 0.5t34 -0.5t33 -1.5q23 -2 23 -21q0 -6 -3 -40t-6 -85.5t-6 -116.5t-3 -134q0 -73 3.5 -140.5t7 -122t7 -91t3.5 -47.5q0 -18 -19 -20q-17 -2 -37 -2h-41h-42t-39 2q-8 1 -17 6.5t-11 22.5q-5 62 -8.5 132.5t-3.5 145.5
q0 123 7.5 249t22.5 236zM267 373q0 42 20.5 65t55.5 23q36 0 56 -23t20 -65t-20 -63.5t-56 -21.5q-35 0 -55.5 21.5t-20.5 63.5z" />
    <glyph glyph-name="Lslash" unicode="&#x141;" horiz-adv-x="493" 
d="M6 367q0 7 3 10.5t13 8.5q5 2 9 3.5t9 3.5q16 5 16 26q4 87 14 166.5t24 155.5q2 13 8 18t16 6q13 1 36 1.5t49 0.5q29 0 58 -1t46 -2q12 -1 16 -6t4 -13q0 -7 -7 -38t-16 -70.5t-17 -81t-10 -68.5q0 -15 12 -15q5 0 15.5 3t22.5 6t22.5 6t16.5 3t8.5 -2t5.5 -8
q5 -10 9.5 -22.5t8 -25t5.5 -23.5t2 -18q0 -6 -5 -11.5t-21 -9.5q-21 -5 -47 -10.5t-52 -13.5q-26 -7 -29 -33q-2 -24 -3 -47t-1 -45q0 -29 10 -40.5t35 -11.5q70 0 135 49q5 4 13 4q9 0 14 -11q5 -12 10.5 -37t10 -52.5t7.5 -53t3 -40.5q0 -26 -32 -28q-37 -2 -78.5 -3
t-84.5 -1q-57 0 -110.5 1t-91.5 3q-17 1 -25.5 6t-9.5 23q-2 33 -3 69.5t-1 75.5q0 27 0.5 49t1.5 42q0 12 -8 12q-3 0 -8 -2t-8 -2q-8 0 -10 10q-4 23 -7 43.5t-4 40.5z" />
    <glyph glyph-name="lslash" unicode="&#x142;" horiz-adv-x="330" 
d="M1 374q0 7 2 11t13 8q9 3 17.5 5.5t16.5 6.5q10 5 12.5 9.5t2.5 13.5q1 44 3.5 91t6.5 94t9 92.5t11 86.5q2 16 9.5 20.5t17.5 5.5q17 2 33.5 2h33.5q18 0 35 -0.5t33 -1.5q23 -2 23 -21q0 -6 -3.5 -37.5t-7 -76.5t-7 -98.5t-3.5 -105.5q0 -12 10 -12q5 0 17.5 4t18.5 4
q9 0 14 -14t7.5 -31.5t3 -34.5t0.5 -23q0 -9 -4 -13.5t-18 -8.5q-5 -2 -10.5 -3t-11.5 -3q-26 -7 -26 -27q0 -49 4 -98t8.5 -89.5t8 -70t3.5 -40.5q0 -17 -19 -19q-17 -2 -39 -3t-45 -1q-20 0 -40.5 1t-37.5 3q-11 2 -18.5 7t-9.5 22q-5 52 -8 110.5t-3 121.5q0 12 -9 12
q-6 0 -15.5 -4.5t-16.5 -4.5q-12 0 -14 11q-3 23 -5.5 52.5t-2.5 46.5z" />
    <glyph glyph-name="Nacute" unicode="&#x143;" horiz-adv-x="699" 
d="M44 359q0 65 2 126t6 112t10 88.5t13 55.5q8 21 28 24q15 1 32 1.5t34 0.5h32.5t28.5 -2q15 -1 26 -17q32 -43 81 -148.5t130 -266.5q4 -8 10 -8q11 0 11 15q0 79 -8.5 147.5t-18 121.5t-18 88t-8.5 48q0 18 18 20q16 2 38 2.5t45 0.5q20 0 38.5 -1t32.5 -2
q11 -1 17.5 -6t8.5 -17q7 -38 12 -86.5t8.5 -103t5 -113t1.5 -116.5q0 -83 -3.5 -160t-11.5 -134q-2 -15 -9.5 -21t-22.5 -8q-16 -2 -40 -2h-48h-31t-25 2q-17 2 -23 7t-10 21q-36 117 -78 214.5t-92 172.5q-9 13 -16 13t-10 -7t-3 -16q-1 -63 4.5 -129t12.5 -121
t13.5 -92.5t6.5 -42.5q0 -11 -5.5 -15t-14.5 -5q-15 -2 -37.5 -2.5t-45.5 -0.5t-43.5 1t-36.5 2q-23 2 -26 21q-11 77 -16 164.5t-5 173.5zM235 843q47 26 73.5 64t43.5 86q5 11 10 16t16 5q10 0 28 -1.5t39 -4t41.5 -6.5t35.5 -9q13 -5 17 -11t4 -17q0 -16 -15 -43
t-45.5 -53t-77.5 -45.5t-110 -19.5q-14 0 -33 1.5t-30 7.5q-10 5 -10 14t13 16z" />
    <glyph glyph-name="nacute" unicode="&#x144;" horiz-adv-x="549" 
d="M45 584q2 24 14.5 32.5t32.5 10.5q14 1 29 1.5t30 0.5q13 0 25 -0.5t21 -1.5q25 -1 25 -23q0 -19 14 -19q11 0 24.5 8.5t30.5 18t38.5 18t49.5 8.5q36 0 62 -13.5t43.5 -44t26 -79t8.5 -118.5q0 -57 -2.5 -113.5t-5.5 -104.5t-6.5 -84t-6.5 -52q-4 -26 -28 -29
q-12 -2 -28 -2h-33q-19 0 -36.5 0.5t-33.5 1.5q-22 3 -22 21q0 17 2.5 54.5t5 85.5t5 101.5t2.5 102.5q0 54 -10.5 79.5t-38.5 25.5t-46 -18q-13 -13 -18.5 -37.5t-5.5 -79.5q0 -56 2 -107t5 -92.5t5 -70t2 -39.5q0 -25 -26 -26q-14 -1 -28 -1.5t-28 -0.5q-19 0 -36 0.5
t-31 1.5q-13 1 -20.5 6.5t-9.5 25.5q-5 58 -8.5 130.5t-3.5 157.5q0 61 2 127t7 137zM161 717q47 26 73.5 64t43.5 86q5 11 10 16t16 5q10 0 28 -1.5t39 -4t41.5 -6.5t35.5 -9q13 -5 17 -11t4 -17q0 -16 -15 -43t-45.5 -53t-77.5 -45.5t-110 -19.5q-14 0 -33 1.5t-30 7.5
q-10 5 -10 14t13 16z" />
    <glyph glyph-name="uni0145" unicode="&#x145;" horiz-adv-x="699" 
d="M75 741q8 21 28 24q15 1 32 1.5t34 0.5h32.5t28.5 -2q15 -1 26 -17q15 -20 37 -51t49.5 -73.5t59 -97t65.5 -122.5q4 -8 10 -8q11 0 11 15q0 64 -8.5 120.5t-18.5 101t-18.5 74.5t-8.5 39q0 17 19 19q17 2 38.5 2.5t44.5 0.5q20 0 38.5 -1t32.5 -2q11 -1 17.5 -6t8.5 -17
q6 -34 11 -77.5t8 -92t4.5 -101t1.5 -103.5q0 -63 -3 -120.5t-10 -100.5q-2 -15 -11.5 -22t-20.5 -7q-14 -1 -35 -1.5t-44 -0.5q-19 0 -36 0.5t-29 1.5q-14 1 -21 5.5t-12 20.5q-35 94 -77 175t-87 141q-9 12 -17 12q-12 0 -12 -17q-1 -52 3.5 -104.5t10.5 -96.5t11.5 -75
t5.5 -40q0 -11 -6.5 -15.5t-17.5 -5.5q-15 -1 -37 -2t-45 -1q-21 0 -41.5 1t-35.5 2q-23 2 -26 21q-8 60 -13 128t-5 135q0 58 2.5 111.5t6 98.5t8.5 78.5t11 50.5zM355 56q47 0 69.5 -19t22.5 -49q0 -17 -8 -33t-24.5 -28.5t-42.5 -20.5t-61 -8q-23 0 -23 17q0 4 4 9.5
t8.5 11.5t8.5 13.5t4 16.5q0 14 -6 23t-16 17q-16 13 -16 20q0 12 22.5 21t57.5 9z" />
    <glyph glyph-name="uni0146" unicode="&#x146;" horiz-adv-x="549" 
d="M37 366q0 51 2 105t6 113q2 24 14.5 32.5t32.5 10.5q14 1 29 1.5t30 0.5q13 0 25 -0.5t21 -1.5q25 -1 25 -23q0 -19 14 -19q11 0 24.5 8.5t30.5 18t38.5 18t49.5 8.5q36 0 62 -13.5t43.5 -44t26 -79t8.5 -118.5q0 -41 -2.5 -81.5t-6 -75.5t-7 -61.5t-5.5 -38.5
q-4 -26 -28 -28q-12 -1 -28 -1.5t-33 -0.5q-18 0 -36 0.5t-33 1.5q-22 1 -22 21q0 9 2 34.5t5 60t5 74.5t2 77q0 54 -10.5 79.5t-38.5 25.5q-26 0 -40 -14t-21 -34.5t-8 -44t-1 -42.5q0 -37 2.5 -71.5t5 -63t5 -48.5t2.5 -28q0 -25 -26 -26q-14 -1 -28.5 -1.5t-28.5 -0.5
q-19 0 -36 0.5t-31 1.5q-13 1 -20.5 6.5t-9.5 25.5q-4 48 -7.5 107t-3.5 129zM273 76q47 0 69.5 -19t22.5 -49q0 -17 -8 -33t-24.5 -28.5t-42.5 -20.5t-61 -8q-23 0 -23 17q0 4 4 9.5t8.5 11.5t8.5 13.5t4 16.5q0 14 -6 23t-16 17q-16 13 -16 20q0 12 22.5 21t57.5 9z" />
    <glyph glyph-name="Ncaron" unicode="&#x147;" horiz-adv-x="699" 
d="M44 359q0 65 2 126t6 112t10 88.5t13 55.5q8 21 28 24q15 1 32 1.5t34 0.5h32.5t28.5 -2q15 -1 26 -17q32 -43 81 -148.5t130 -266.5q4 -8 10 -8q11 0 11 15q0 79 -8.5 147.5t-18 121.5t-18 88t-8.5 48q0 18 18 20q16 2 38 2.5t45 0.5q20 0 38.5 -1t32.5 -2
q11 -1 17.5 -6t8.5 -17q7 -38 12 -86.5t8.5 -103t5 -113t1.5 -116.5q0 -83 -3.5 -160t-11.5 -134q-2 -15 -9.5 -21t-22.5 -8q-16 -2 -40 -2h-48h-31t-25 2q-17 2 -23 7t-10 21q-36 117 -78 214.5t-92 172.5q-9 13 -16 13t-10 -7t-3 -16q-1 -63 4.5 -129t12.5 -121
t13.5 -92.5t6.5 -42.5q0 -11 -5.5 -15t-14.5 -5q-15 -2 -37.5 -2.5t-45.5 -0.5t-43.5 1t-36.5 2q-23 2 -26 21q-11 77 -16 164.5t-5 173.5zM164 967q0 9 13.5 16.5t31.5 13t35 9t23 3.5q8 0 13.5 -3t11.5 -11q26 -36 39 -45.5t20 -9.5q5 0 9.5 1.5t11.5 7.5t16.5 17t23.5 30
q5 6 10.5 9.5t13.5 3.5q6 0 23 -3.5t35 -9t31.5 -13.5t13.5 -17q0 -5 -4 -12q-9 -15 -32 -41.5t-50.5 -53t-55.5 -46t-46 -19.5t-45.5 19.5t-55 46t-50.5 53t-32 41.5q-4 7 -4 13z" />
    <glyph glyph-name="ncaron" unicode="&#x148;" horiz-adv-x="549" 
d="M36 320q0 123 9 264q2 24 14.5 32.5t32.5 10.5q14 1 29 1.5t30 0.5q13 0 25 -0.5t21 -1.5q25 -1 25 -23q0 -19 14 -19q11 0 24.5 8.5t30.5 18t38.5 18t49.5 8.5q36 0 62 -13.5t43.5 -44t26 -79t8.5 -118.5q0 -57 -2.5 -113.5t-5.5 -104.5t-6.5 -84t-6.5 -52
q-4 -26 -28 -29q-12 -2 -28 -2h-33q-19 0 -36.5 0.5t-33.5 1.5q-22 3 -22 21q0 17 2.5 54.5t5 85.5t5 101.5t2.5 102.5q0 54 -10.5 79.5t-38.5 25.5t-46 -18q-13 -13 -18.5 -37.5t-5.5 -79.5q0 -56 2 -107t5 -92.5t5 -70t2 -39.5q0 -25 -26 -26q-14 -1 -28 -1.5t-28 -0.5
q-19 0 -36 0.5t-31 1.5q-13 1 -20.5 6.5t-9.5 25.5q-5 58 -8.5 130.5t-3.5 157.5zM193 883q8 0 13.5 -3t11.5 -11q26 -36 39 -45.5t20 -9.5q5 0 9.5 1.5t11.5 7.5t16.5 17t23.5 30q5 6 10.5 9.5t13.5 3.5q6 0 23 -3.5t35 -9t31.5 -13.5t13.5 -17q0 -5 -4 -12
q-9 -15 -32 -41.5t-50.5 -53t-55.5 -46t-46 -19.5t-45.5 19.5t-55 46t-50.5 53t-32 41.5q-4 7 -4 13q0 9 13.5 16.5t31.5 13t35 9t23 3.5z" />
    <glyph glyph-name="napostrophe" unicode="&#x149;" horiz-adv-x="627" 
d="M114 320q0 123 9 264q2 24 14.5 32.5t32.5 10.5q14 1 29 1.5t30 0.5q13 0 25 -0.5t21 -1.5q25 -1 25 -23q0 -19 14 -19q11 0 24.5 8.5t30.5 18t38.5 18t49.5 8.5q36 0 62 -13.5t43.5 -44t26 -79t8.5 -118.5q0 -57 -2.5 -113.5t-5.5 -104.5t-6.5 -84t-6.5 -52
q-4 -26 -28 -29q-12 -2 -28 -2h-33q-19 0 -36.5 0.5t-33.5 1.5q-22 3 -22 21q0 17 2.5 54.5t5 85.5t5 101.5t2.5 102.5q0 54 -10.5 79.5t-38.5 25.5t-46 -18q-13 -13 -18.5 -37.5t-5.5 -79.5q0 -56 2 -107t5 -92.5t5 -70t2 -39.5q0 -25 -26 -26q-14 -1 -28 -1.5t-28 -0.5
q-19 0 -36 0.5t-31 1.5q-13 1 -20.5 6.5t-9.5 25.5q-5 58 -8.5 130.5t-3.5 157.5zM-1 782q0 9 13 24t31 29.5t36.5 24.5t30.5 10q11 0 22.5 -7.5t21 -21.5t15.5 -34.5t6 -47.5q0 -42 -16 -73t-38.5 -51t-45.5 -30t-38 -10q-6 0 -10.5 4.5t-4.5 12.5q0 11 3.5 22t3.5 28
q0 29 -4.5 49t-10.5 33.5t-10.5 22t-4.5 15.5z" />
    <glyph glyph-name="Eng" unicode="&#x14a;" horiz-adv-x="698" 
d="M75 741q8 21 28 24q15 1 32 1.5t34 0.5h32.5t28.5 -2q15 -1 26 -17q15 -17 37 -45.5t50 -68.5t59.5 -92.5t64.5 -118.5q4 -8 10 -8q11 0 11 15q0 57 -8.5 109.5t-18 94.5t-18 71t-8.5 40q0 18 18 20q17 2 39 2.5t45 0.5q20 0 38 -1t32 -2q11 -1 17.5 -6t8.5 -17
q8 -40 13 -91t8 -104.5t4.5 -105t1.5 -92.5q0 -105 -15 -175t-41.5 -112t-61.5 -59.5t-75 -17.5q-16 0 -40.5 4.5t-47 14.5t-39 25.5t-16.5 37.5q0 7 1.5 22.5t4.5 34.5t7 39t8 35q4 10 13 10q7 0 14 -10q17 -23 31.5 -36t31.5 -13q15 0 24.5 11t9.5 29q0 19 -21.5 52.5
t-53 70.5t-68 72t-67.5 57q-11 8 -16 8q-10 0 -12 -18q0 -14 -0.5 -28t-0.5 -28q0 -57 5.5 -117t12 -111t11.5 -86.5t5 -41.5q0 -11 -6.5 -14t-17.5 -5q-14 -2 -34.5 -2.5t-42.5 -0.5q-20 0 -39 1t-33 2q-23 2 -26 21q-11 77 -16 164.5t-5 173.5q0 65 2.5 126t6.5 111.5
t10 88t12 56.5z" />
    <glyph glyph-name="eng" unicode="&#x14b;" horiz-adv-x="549" 
d="M45 584q2 24 14.5 32.5t32.5 10.5q14 1 29 1.5t30 0.5q13 0 25 -0.5t21 -1.5q15 -2 20.5 -7.5t4.5 -17.5q-1 -17 14 -17q11 0 24 8.5t30 18t38 18t49 8.5q38 0 64.5 -15t44 -50t25.5 -92.5t8 -142.5q0 -112 -10 -182t-29.5 -109t-48.5 -52.5t-67 -13.5q-35 0 -59 10
t-39 24.5t-21.5 31.5t-6.5 32t14 15q10 0 19 -7t25 -7q12 0 19.5 7.5t11.5 28t5.5 56.5t1.5 93q0 107 -10.5 156t-43.5 49q-24 0 -37.5 -13.5t-20 -33.5t-8 -42.5t-1.5 -39.5q0 -34 2.5 -65.5t6 -56.5t6 -42.5t2.5 -22.5q0 -15 -5.5 -22t-20.5 -8q-14 -1 -29.5 -1.5
t-30.5 -0.5q-19 0 -36 0.5t-31 1.5q-13 1 -20.5 6.5t-9.5 25.5q-5 42 -7.5 95t-2.5 115q0 51 1.5 105t6.5 113z" />
    <glyph glyph-name="Omacron" unicode="&#x14c;" 
d="M316 781q73 0 128 -41t92 -110t55.5 -158.5t18.5 -185.5q0 -63 -14.5 -117.5t-48.5 -95.5t-90 -64.5t-139 -23.5q-84 0 -141 23.5t-91.5 64.5t-49 95.5t-14.5 117.5q0 96 19 185.5t56 158.5t92 110t127 41zM317 179q46 0 70 33.5t24 111.5q0 60 -7 110.5t-20 87t-30 57
t-38 20.5q-22 0 -39.5 -20.5t-29.5 -57t-18.5 -87t-6.5 -109.5q0 -79 24.5 -112.5t70.5 -33.5zM148 902q0 10 1 19.5t2 18.5q3 27 30 28q22 2 51.5 1.5t61.5 -0.5h76.5t61.5 -2q17 -1 27.5 -5t16 -11.5t7 -18.5t1.5 -26q0 -11 -1 -23t-3 -25q-2 -12 -8.5 -18t-23.5 -8
q-23 -2 -51.5 -3t-58.5 -1q-39 0 -77.5 1.5t-65.5 3.5q-24 2 -33 7.5t-11 19.5q-2 9 -2.5 20t-0.5 22z" />
    <glyph glyph-name="omacron" unicode="&#x14d;" horiz-adv-x="529" 
d="M18 310q0 74 16 135.5t47.5 105t79.5 67.5t111 24t108.5 -23t74.5 -66.5t42.5 -104.5t13.5 -138q0 -85 -19.5 -146t-53.5 -100.5t-80 -58t-100 -18.5q-53 0 -97 18.5t-76 58t-49.5 100.5t-17.5 146zM101 810q3 27 30 28q22 2 51.5 1.5t61.5 -0.5h76.5t61.5 -2
q17 -1 27.5 -5t16 -11.5t7 -18.5t1.5 -26q0 -11 -1 -23t-3 -25q-2 -12 -8.5 -18t-23.5 -8q-23 -2 -51.5 -3t-58.5 -1q-39 0 -77.5 1.5t-65.5 3.5q-24 2 -33 7.5t-11 19.5q-2 9 -2.5 20t-0.5 22q0 20 3 38zM193 324q0 -86 16.5 -125t54.5 -39q39 0 55 39.5t16 124.5
q0 87 -18.5 128t-51.5 41q-35 0 -53.5 -41t-18.5 -128z" />
    <glyph glyph-name="Obreve" unicode="&#x14e;" 
d="M316 781q73 0 128 -41t92 -110t55.5 -158.5t18.5 -185.5q0 -63 -14.5 -117.5t-48.5 -95.5t-90 -64.5t-139 -23.5q-84 0 -141 23.5t-91.5 64.5t-49 95.5t-14.5 117.5q0 96 19 185.5t56 158.5t92 110t127 41zM317 179q46 0 70 33.5t24 111.5q0 60 -7 110.5t-20 87t-30 57
t-38 20.5q-22 0 -39.5 -20.5t-29.5 -57t-18.5 -87t-6.5 -109.5q0 -79 24.5 -112.5t70.5 -33.5zM197 990q32 0 42.5 -4.5t14.5 -21.5q4 -19 17.5 -28.5t43.5 -9.5q32 0 46.5 10t19.5 28q5 17 15.5 20t36.5 3q34 0 45.5 -5.5t11.5 -25.5q0 -33 -8.5 -60t-28.5 -46.5t-54 -30
t-84 -10.5q-48 0 -81 10t-54 29t-30 47t-9 63q0 20 12 26t44 6z" />
    <glyph glyph-name="obreve" unicode="&#x14f;" horiz-adv-x="529" 
d="M18 310q0 74 16 135.5t47.5 105t79.5 67.5t111 24t108.5 -23t74.5 -66.5t42.5 -104.5t13.5 -138q0 -85 -19.5 -146t-53.5 -100.5t-80 -58t-100 -18.5q-53 0 -97 18.5t-76 58t-49.5 100.5t-17.5 146zM148 860q32 0 42.5 -4.5t14.5 -21.5q4 -19 17.5 -28.5t43.5 -9.5
q32 0 46.5 10t19.5 28q5 17 15.5 20t36.5 3q34 0 45.5 -5.5t11.5 -25.5q0 -33 -8.5 -60t-28.5 -46.5t-54 -30t-84 -10.5q-48 0 -81 10t-54 29t-30 47t-9 63q0 20 12 26t44 6zM264 160q39 0 55 39.5t16 124.5q0 87 -18.5 128t-51.5 41q-35 0 -53.5 -41t-18.5 -128
q0 -86 16.5 -125t54.5 -39z" />
    <glyph glyph-name="Ohungarumlaut" unicode="&#x150;" 
d="M316 781q73 0 128 -41t92 -110t55.5 -158.5t18.5 -185.5q0 -63 -14.5 -117.5t-48.5 -95.5t-90 -64.5t-139 -23.5q-84 0 -141 23.5t-91.5 64.5t-49 95.5t-14.5 117.5q0 96 19 185.5t56 158.5t92 110t127 41zM317 179q46 0 70 33.5t24 111.5q0 60 -7 110.5t-20 87t-30 57
t-38 20.5q-22 0 -39.5 -20.5t-29.5 -57t-18.5 -87t-6.5 -109.5q0 -79 24.5 -112.5t70.5 -33.5zM352 831q0 38 15 80.5t32 78.5q9 19 27.5 28t42.5 9q42 0 59 -7t17 -21q0 -21 -18.5 -57.5t-55.5 -84.5q-22 -26 -43 -42.5t-46 -16.5q-16 0 -23 5.5t-7 27.5zM175 827
q0 20 3 41.5t8 43t12 41t14 34.5q11 20 28.5 26.5t40.5 6.5q41 0 56.5 -6t15.5 -20q0 -20 -16.5 -55.5t-50.5 -83.5q-21 -29 -39.5 -43t-41.5 -14q-16 0 -23 5.5t-7 23.5z" />
    <glyph glyph-name="ohungarumlaut" unicode="&#x151;" horiz-adv-x="529" 
d="M18 310q0 74 16 135.5t47.5 105t79.5 67.5t111 24t108.5 -23t74.5 -66.5t42.5 -104.5t13.5 -138q0 -85 -19.5 -146t-53.5 -100.5t-80 -58t-100 -18.5q-53 0 -97 18.5t-76 58t-49.5 100.5t-17.5 146zM264 160q39 0 55 39.5t16 124.5q0 87 -18.5 128t-51.5 41
q-35 0 -53.5 -41t-18.5 -128q0 -86 16.5 -125t54.5 -39zM315 701q0 38 15 80.5t32 78.5q9 19 27.5 28t42.5 9q42 0 59 -7t17 -21q0 -21 -18.5 -57.5t-55.5 -84.5q-22 -26 -43 -42.5t-46 -16.5q-16 0 -23 5.5t-7 27.5zM138 697q0 20 3 41.5t8 43t12 41t14 34.5
q11 20 28.5 26.5t40.5 6.5q41 0 56.5 -6t15.5 -20q0 -20 -16.5 -55.5t-50.5 -83.5q-21 -29 -39.5 -43t-41.5 -14q-16 0 -23 5.5t-7 23.5z" />
    <glyph glyph-name="OE" unicode="&#x152;" horiz-adv-x="915" 
d="M22 294q0 111 23.5 200t74.5 150.5t130.5 94.5t191.5 33q45 0 103.5 -0.5t118 -2t114.5 -3.5t94 -5q11 -1 15 -5t4 -10q0 -7 -4 -25t-10.5 -39.5t-14 -43.5t-14.5 -37q-5 -11 -18 -11q-4 0 -10 2t-14 5q-23 7 -58 16t-83 9q-44 0 -62 -18q-13 -13 -18.5 -42.5t-5.5 -58.5
q0 -30 27 -30q26 0 56.5 8t74.5 8q6 0 19 -0.5t26 -3t23 -8t10 -15.5q0 -9 -3.5 -26t-8 -36.5t-10 -38.5t-10.5 -33q-3 -9 -6.5 -12t-9.5 -3q-5 0 -16.5 2.5t-26 5.5t-30.5 5.5t-31 2.5q-50 0 -70 -19.5t-20 -57.5q0 -26 3.5 -42.5t11.5 -25.5t21 -12.5t32 -3.5q35 0 64 5.5
t53 13.5t42.5 16.5t32.5 14.5q5 2 8.5 3.5t6.5 1.5q9 0 13 -11q5 -13 10 -37.5t9.5 -52t7.5 -53t3 -40.5q0 -24 -29 -27q-52 -5 -99.5 -7.5t-94 -3.5t-93.5 -0.5t-97 0.5q-131 0 -218.5 16.5t-140.5 52.5t-75 93.5t-22 140.5zM335 184q28 0 38 34q2 14 3 30.5t2 36.5
q2 49 6 96t8 87l7 70t3 44q0 16 -6.5 26.5t-23.5 10.5q-33 0 -61.5 -23t-48.5 -62.5t-31.5 -93.5t-11.5 -117q0 -70 28 -104.5t88 -34.5z" />
    <glyph glyph-name="oe" unicode="&#x153;" horiz-adv-x="805" 
d="M18 310q0 74 15.5 135.5t47 105t78.5 67.5t110 24q46 0 79.5 -15t63.5 -45q8 -8 17 -8t16 7q32 32 72 46t85 14q38 0 71 -10t57 -31t38 -52t14 -73q0 -64 -23.5 -102.5t-58 -62t-74 -37t-72.5 -28.5q-23 -8 -33 -16t-10 -21q0 -22 16 -37t52 -15q51 0 95 21.5t73 59.5
q8 7 15 7q9 0 17 -16.5t8 -55.5q0 -43 -17.5 -77.5t-47.5 -58.5t-69.5 -36.5t-83.5 -12.5q-91 0 -145 54q-6 6 -13 6t-12 -6q-63 -54 -144 -54q-52 0 -95.5 18.5t-75 58t-49 100.5t-17.5 146zM261 160q37 0 52.5 39.5t15.5 124.5q0 87 -17.5 128t-49.5 41q-34 0 -51.5 -41
t-17.5 -128q0 -86 15.5 -125t52.5 -39zM490 373q0 -8 2.5 -13t9.5 -5q8 0 17 4q15 6 33.5 15.5t35 22t27.5 27.5t11 33q0 20 -12 32.5t-34 12.5t-39 -12t-28.5 -30.5t-17 -41.5t-5.5 -45z" />
    <glyph glyph-name="Racute" unicode="&#x154;" horiz-adv-x="644" 
d="M46 322q0 97 5.5 202.5t28.5 214.5q2 11 8 15t17 6q14 2 41.5 3.5t58 3t59 2.5t44.5 1q66 0 121 -10t95.5 -34t63 -63.5t22.5 -98.5q0 -71 -31 -122t-83 -93q-7 -6 -7 -14t7 -12q27 -16 48 -42t37 -56t27 -62t18 -59.5t10 -49t3 -30.5q0 -22 -24 -24q-14 -1 -37 -1.5
t-49 -0.5q-21 0 -41.5 0.5t-34.5 1.5q-16 1 -22.5 5.5t-8.5 15.5q-16 111 -45 169t-71 58q-53 0 -53 -71q0 -20 3 -45.5t6.5 -49t6.5 -41.5t3 -23q0 -15 -19 -17q-17 -2 -38.5 -2h-45.5h-39.5t-38.5 2q-11 1 -19 5t-10 19q-6 62 -11 137t-5 160zM200 844q47 26 73.5 64
t43.5 86q5 11 10 16t16 5q10 0 28 -1.5t39 -4t41.5 -6.5t35.5 -9q13 -5 17 -11t4 -17q0 -16 -15 -43t-45.5 -53t-77.5 -45.5t-110 -19.5q-14 0 -33 1.5t-30 7.5q-10 5 -10 14t13 16zM265 369q21 0 45 15.5t44.5 41t33.5 58.5t13 68q0 42 -22.5 60.5t-57.5 18.5q-15 0 -28 -3
t-20 -10t-13 -24t-10 -41.5t-6 -55t-2 -63.5q0 -40 5 -52.5t18 -12.5z" />
    <glyph glyph-name="racute" unicode="&#x155;" horiz-adv-x="340" 
d="M35 314q0 65 1.5 113.5t4 82.5t5.5 56t6 34q5 22 19 25q9 2 31 4t45 2q27 0 45 -3q8 -2 11 -7t4 -14q1 -16 11 -16q6 0 17 8q15 14 30.5 24.5t32.5 10.5q14 0 22 -21.5t8 -80.5q0 -28 -2 -52t-6 -38q-4 -13 -9.5 -17t-12.5 -4q-9 0 -21 4.5t-26 4.5q-7 0 -13.5 -4
t-11 -15t-7.5 -30t-3 -48q0 -47 6.5 -98.5t14.5 -95.5t14.5 -75t6.5 -39q0 -10 -5.5 -16.5t-20.5 -7.5q-14 -1 -31 -1.5t-37 -0.5h-40t-41 2q-22 2 -28 27q-9 38 -14.5 113.5t-5.5 172.5zM65 717q47 26 73.5 64t43.5 86q5 11 10 16t16 5q10 0 28 -1.5t39 -4t41.5 -6.5
t35.5 -9q13 -5 17 -11t4 -17q0 -16 -15 -43t-45.5 -53t-77.5 -45.5t-110 -19.5q-14 0 -33 1.5t-30 7.5q-10 5 -10 14t13 16z" />
    <glyph glyph-name="uni0156" unicode="&#x156;" horiz-adv-x="650" 
d="M49 367q0 85 7 178.5t24 193.5q2 11 8 15t17 6q14 2 41.5 3.5t58 3t59 2.5t44.5 1q66 0 121 -10t95.5 -32t63 -58t22.5 -87q0 -68 -32 -110.5t-82 -73.5q-7 -6 -7 -14q0 -7 7 -13q34 -27 60.5 -61t45 -68.5t28 -66t9.5 -55.5q0 -22 -24 -24q-16 -1 -37 -1.5t-43 -0.5
q-23 0 -44 0.5t-38 1.5q-16 1 -22.5 5.5t-8.5 15.5q-13 89 -43.5 134.5t-72.5 45.5q-27 0 -40 -16.5t-13 -45.5q0 -16 3 -35t6.5 -36.5t6.5 -31t3 -18.5q0 -15 -19 -17q-15 -2 -35 -2.5t-42 -0.5q-44 0 -85 3q-11 1 -19 5t-10 19q-5 51 -9 113t-4 132zM242 450
q0 -29 5 -40.5t18 -11.5q21 0 45 13t44.5 34.5t33.5 49t13 57.5q0 42 -22.5 60.5t-57.5 18.5q-17 0 -30 -2.5t-21 -10.5q-6 -6 -11.5 -22t-9 -38.5t-5.5 -50t-2 -57.5zM253 26q0 12 22.5 21t57.5 9q47 0 69.5 -19t22.5 -49q0 -17 -8 -33t-24.5 -28.5t-42.5 -20.5t-61 -8
q-23 0 -23 17q0 4 4 9.5t8.5 11.5t8.5 13.5t4 16.5q0 14 -6 23t-16 17q-16 13 -16 20z" />
    <glyph glyph-name="uni0157" unicode="&#x157;" horiz-adv-x="340" 
d="M35 360q0 96 5.5 155.5t11.5 84.5q5 22 19 25q9 2 31 4t45 2q27 0 45 -3q8 -2 11 -7t4 -14q1 -16 11 -16q6 0 17 8q15 14 30.5 24.5t32.5 10.5q14 0 22 -21.5t8 -80.5q0 -28 -2 -52t-6 -38q-4 -13 -9.5 -17t-12.5 -4q-9 0 -21 4.5t-26 4.5q-6 0 -12 -3.5t-10.5 -13
t-7 -26t-2.5 -42.5q0 -34 6 -66.5t13 -59t13 -45.5t6 -27q0 -13 -6 -20t-21 -8q-14 -1 -31 -1.5t-37 -0.5h-40t-41 2q-22 2 -28 27q-8 31 -13 88t-5 126zM156 76q47 0 69.5 -19t22.5 -49q0 -17 -8 -33t-24.5 -28.5t-42.5 -20.5t-61 -8q-23 0 -23 17q0 4 4 9.5t8.5 11.5
t8.5 13.5t4 16.5q0 14 -6 23t-16 17q-16 13 -16 20q0 12 22.5 21t57.5 9z" />
    <glyph glyph-name="Rcaron" unicode="&#x158;" horiz-adv-x="644" 
d="M80 739q2 11 8 15t17 6q14 2 41.5 3.5t58 3t59 2.5t44.5 1q66 0 121 -10t95.5 -34t63 -63.5t22.5 -98.5q0 -71 -31 -122t-83 -93q-7 -6 -7 -14t7 -12q27 -16 48 -42t37 -56t27 -62t18 -59.5t10 -49t3 -30.5q0 -22 -24 -24q-14 -1 -37 -1.5t-49 -0.5q-21 0 -41.5 0.5
t-34.5 1.5q-16 1 -22.5 5.5t-8.5 15.5q-16 111 -45 169t-71 58q-53 0 -53 -71q0 -20 3 -45.5t6.5 -49t6.5 -41.5t3 -23q0 -15 -19 -17q-17 -2 -38.5 -2h-45.5h-39.5t-38.5 2q-11 1 -19 5t-10 19q-6 62 -11 137t-5 160q0 97 7 202t27 215zM129 968q0 9 13.5 16.5t31.5 13
t35 9t23 3.5q8 0 13.5 -3t11.5 -11q26 -36 39 -45.5t20 -9.5q5 0 9.5 1.5t11.5 7.5t16.5 17t23.5 30q5 6 10.5 9.5t13.5 3.5q6 0 23 -3.5t35 -9t31.5 -13.5t13.5 -17q0 -5 -4 -12q-9 -15 -32 -41.5t-50.5 -53t-55.5 -46t-46 -19.5t-45.5 19.5t-55 46t-50.5 53t-32 41.5
q-4 7 -4 13zM265 369q21 0 45 15.5t44.5 41t33.5 58.5t13 68q0 42 -22.5 60.5t-57.5 18.5q-15 0 -28 -3t-20 -10t-13 -24t-10 -41.5t-6 -55t-2 -63.5q0 -40 5 -52.5t18 -12.5z" />
    <glyph glyph-name="rcaron" unicode="&#x159;" horiz-adv-x="340" 
d="M35 314q0 65 1.5 113.5t4 82.5t5.5 56t6 34q5 22 19 25q9 2 31 4t45 2q27 0 45 -3q8 -2 11 -7t4 -14q1 -16 11 -16q6 0 17 8q15 14 30.5 24.5t32.5 10.5q14 0 22 -21.5t8 -80.5q0 -28 -2 -52t-6 -38q-4 -13 -9.5 -17t-12.5 -4q-9 0 -21 4.5t-26 4.5q-7 0 -13.5 -4
t-11 -15t-7.5 -30t-3 -48q0 -47 6.5 -98.5t14.5 -95.5t14.5 -75t6.5 -39q0 -10 -5.5 -16.5t-20.5 -7.5q-14 -1 -31 -1.5t-37 -0.5h-40t-41 2q-22 2 -28 27q-9 38 -14.5 113.5t-5.5 172.5zM-5 841q0 9 13.5 16.5t31.5 13t35 9t23 3.5q8 0 13.5 -3t11.5 -11q26 -36 39 -45.5
t20 -9.5q5 0 9.5 1.5t11.5 7.5t16.5 17t23.5 30q5 6 10.5 9.5t13.5 3.5q6 0 23 -3.5t35 -9t31.5 -13.5t13.5 -17q0 -5 -4 -12q-9 -15 -32 -41.5t-50.5 -53t-55.5 -46t-46 -19.5t-45.5 19.5t-55 46t-50.5 53t-32 41.5q-4 7 -4 13z" />
    <glyph glyph-name="Sacute" unicode="&#x15a;" horiz-adv-x="591" 
d="M22 194q0 40 11.5 66.5t25.5 43.5q6 7 12 7q8 0 15 -10q40 -59 92.5 -98t109.5 -39q38 0 60 13.5t22 42.5q0 28 -24.5 46t-81.5 37q-47 16 -88 36.5t-71.5 49.5t-48 67.5t-17.5 90.5q0 48 17 90.5t50 74t82.5 49.5t113.5 18q72 0 131.5 -18.5t100.5 -50.5q13 -10 13 -24
q0 -10 -8.5 -33.5t-20.5 -48t-25.5 -43.5t-24.5 -19q-8 0 -14 6q-37 37 -77 56t-74 19q-35 0 -51 -16.5t-16 -39.5q0 -32 23 -51.5t77 -38.5q59 -21 102.5 -44.5t72.5 -53.5t43 -67.5t14 -87.5q0 -48 -16.5 -91.5t-51 -75.5t-87.5 -51t-126 -19q-60 0 -109 14t-83.5 41
t-53.5 65.5t-19 86.5zM179 847q47 26 73.5 64t43.5 86q5 11 10 16t16 5q10 0 28 -1.5t39 -4t41.5 -6.5t35.5 -9q13 -5 17 -11t4 -17q0 -16 -15 -43t-45.5 -53t-77.5 -45.5t-110 -19.5q-14 0 -33 1.5t-30 7.5q-10 5 -10 14t13 16z" />
    <glyph glyph-name="sacute" unicode="&#x15b;" horiz-adv-x="460" 
d="M15 154q0 6 1.5 22t5 32.5t10.5 29t17 12.5q9 0 13 -8q10 -19 26.5 -38t37.5 -33.5t45.5 -23.5t50.5 -9q50 0 50 39q0 19 -16 34t-57 34q-36 17 -67.5 34.5t-55.5 40.5t-37.5 54t-13.5 75q0 91 62.5 142t169.5 51q48 0 93 -10.5t71 -25.5q11 -7 15 -14.5t4 -18.5
q0 -14 -3 -31.5t-8 -35.5t-11 -34.5t-12 -29.5q-5 -12 -16 -12q-8 0 -14 6q-13 13 -30 24.5t-36 20t-38.5 13.5t-37.5 5q-24 0 -36 -10t-12 -26q0 -20 16 -32t59 -32q33 -15 66.5 -32.5t60.5 -41.5t44 -57t17 -80q0 -50 -15.5 -88t-44 -63t-68.5 -37.5t-89 -12.5
q-101 0 -159 44.5t-58 122.5zM119 717q47 26 73.5 64t43.5 86q5 11 10 16t16 5q10 0 28 -1.5t39 -4t41.5 -6.5t35.5 -9q13 -5 17 -11t4 -17q0 -16 -15 -43t-45.5 -53t-77.5 -45.5t-110 -19.5q-14 0 -33 1.5t-30 7.5q-10 5 -10 14t13 16z" />
    <glyph glyph-name="Scircumflex" unicode="&#x15c;" horiz-adv-x="591" 
d="M22 194q0 40 11.5 66.5t25.5 43.5q6 7 12 7q8 0 15 -10q40 -59 92.5 -98t109.5 -39q38 0 60 13.5t22 42.5q0 28 -24.5 46t-81.5 37q-47 16 -88 36.5t-71.5 49.5t-48 67.5t-17.5 90.5q0 48 17 90.5t50 74t82.5 49.5t113.5 18q72 0 131.5 -18.5t100.5 -50.5q13 -10 13 -24
q0 -10 -8.5 -33.5t-20.5 -48t-25.5 -43.5t-24.5 -19q-8 0 -14 6q-37 37 -77 56t-74 19q-35 0 -51 -16.5t-16 -39.5q0 -32 23 -51.5t77 -38.5q59 -21 102.5 -44.5t72.5 -53.5t43 -67.5t14 -87.5q0 -48 -16.5 -91.5t-51 -75.5t-87.5 -51t-126 -19q-60 0 -109 14t-83.5 41
t-53.5 65.5t-19 86.5zM109 849q0 13 21 37.5t49 50.5t54.5 48t38.5 29q7 5 13 6t11 1q18 0 45 -20t54.5 -46.5t51 -53t33.5 -40.5q4 -5 4 -12q0 -9 -13.5 -17t-31.5 -13.5t-35 -9t-23 -3.5q-8 0 -13 3.5t-11 11.5q-15 18 -24.5 29t-16 16.5t-11 7t-9.5 1.5q-4 0 -9 -1.5
t-11.5 -6.5t-16 -16t-23.5 -30q-10 -15 -24 -15q-6 0 -23 3t-35 9t-31.5 14t-13.5 17z" />
    </font>
</defs>
</svg>
