<svg xmlns="http://www.w3.org/2000/svg">
<defs>
<font id="Hobeaux-Light" horiz-adv-x="610" >
  <font-face 
    font-family="Hobeaux"
    font-weight="300"
    font-stretch="normal"
    units-per-em="1000"
    panose-1="4 2 3 5 4 1 2 2 1 0"
    ascent="818"
    descent="-182"
    x-height="604"
    cap-height="766"
    bbox="-26 -192 1180 1063"
    underline-thickness="0"
    underline-position="0"
    unicode-range="U+0020-FB02"
  />
<missing-glyph horiz-adv-x="706" 
d="M17 529q-7 -26 1 -79.5t22 -110t31 -105.5t29 -65q9 -12 26 -22.5t36.5 -18.5t41 -14.5t39.5 -9.5q12 -3 18.5 -8t9.5 -12q29 -63 63.5 -81.5t103.5 -18.5q25 0 59.5 4t66.5 9t56.5 10t30.5 8q13 5 20.5 16.5t3.5 30.5q-2 11 -12 36t-11 34q-2 15 0 30t-1 30
q-5 27 -12.5 40t-9.5 32q-1 13 6.5 22.5t27.5 11.5q12 1 24.5 10.5t12.5 33.5q0 18 -3 42.5t-6.5 49.5t-6.5 47.5t-4 35.5q-1 15 -8 26.5t-22 18.5q-7 4 -14.5 10t-11.5 16q-19 43 -41 86.5t-50 66.5q-16 13 -56 21.5t-85.5 11.5t-88 1t-63.5 -8t-56 -34.5t-69.5 -65
t-62.5 -74.5t-35 -64zM238 437q0 19 8 40.5t24.5 39.5t42.5 30t63 12q40 0 64.5 -26t24.5 -60q0 -72 -37 -111.5t-100 -39.5q-24 0 -41.5 12t-28 29.5t-15.5 37.5t-5 36zM629 348q-14 0 -25.5 16t-21 35.5t-18 35.5t-16.5 16q-7 0 -7 -9t2.5 -19.5t2.5 -19.5t-7 -9
q-9 0 -18.5 10.5t-17.5 26.5t-13 35.5t-5 38.5q0 31 11 49.5t31 18.5q17 0 29.5 -12t22 -26.5t17.5 -26.5t17 -12q6 0 4 9.5t-5.5 20.5t-4.5 20.5t6 9.5q8 0 18.5 -12.5t19.5 -32.5t15.5 -46t6.5 -52q0 -25 -11 -45t-33 -20zM351 463q11 2 13 8t2 13t0.5 13t8.5 9
q10 4 17 -14.5t11 -43.5t2.5 -37.5t-10.5 -13.5q-8 -2 -11.5 2t-6.5 9t-6.5 10t-12.5 4q-8 -1 -10.5 -7.5t-3.5 -13t-3 -13t-9 -7.5q-13 -3 -21 8t-12 35q-4 29 -4 47.5t16 20.5q6 2 9 -3t6 -11.5t8.5 -11.5t16.5 -3zM564 509q11 0 24 -12t21 -27t7.5 -27.5t-16.5 -12.5
q-15 0 -27 12t-17.5 27t-4 27.5t12.5 12.5z" />
    <glyph glyph-name="uni2190" unicode="&#x2d;&#x3c;" horiz-adv-x="664" 
d="M255 170q2 -3 3.5 -6t1.5 -6q0 -5 -4 -9t-10 -4q-8 0 -19 6.5t-34 27t-64 60.5t-108 106q-7 7 -9 12.5t-2 11.5t2.5 13t9.5 14q104 113 153 156.5t63 43.5q7 0 11.5 -4t4.5 -10q0 -2 -1 -5t-3 -5q-61 -75 -82.5 -105t-21.5 -43q0 -7 5.5 -9.5t15.5 -2.5q9 0 34 1.5t58 3
t69.5 3t67.5 1.5q61 1 117 0t93 -5q18 -1 23 -7.5t5 -23.5q0 -10 -1.5 -19.5t-2.5 -16.5q-2 -13 -9.5 -19t-20.5 -6q-30 -1 -84 -1.5t-114 -0.5q-32 0 -68.5 1t-69.5 2.5t-58.5 2.5t-35.5 1t-15 -3t-5 -10q0 -17 32.5 -58.5t72.5 -87.5z" />
    <glyph glyph-name="arrowup" unicode="&#x2d;^" horiz-adv-x="567" 
d="M83 473q-2 -2 -6 -4t-9 -2q-6 0 -10 3t-4 9t7.5 18t29 37t61 66t103.5 104q6 6 12 8.5t12 2.5t13 -2.5t14 -9.5q71 -70 111.5 -111.5t60 -63t24 -30t4.5 -12.5q0 -6 -4 -10t-10 -4q-4 0 -8.5 3t-8.5 6q-39 31 -64.5 50t-40.5 29.5t-23 14.5t-13 4q-7 0 -9.5 -5.5
t-2.5 -15.5q0 -54 4 -124t4 -148q0 -50 -0.5 -94.5t-1.5 -72.5q-1 -12 -3.5 -17.5t-9.5 -8.5q-4 -1 -10 -1.5t-10 -0.5q-10 0 -19.5 1.5t-16.5 2.5q-13 2 -17.5 9t-5.5 19q-1 25 -1.5 67.5t-0.5 92.5q0 74 2.5 145t2.5 127q0 10 -3 15t-10 5q-17 0 -56 -30.5t-87 -71.5z" />
    <glyph glyph-name="uni2192" unicode="&#x2d;&#x3e;" horiz-adv-x="664" 
d="M409 592q-2 3 -3.5 6t-1.5 6q0 5 4 9t10 4q8 0 19 -6.5t34 -27t64 -60.5t108 -106q7 -7 9 -12.5t2 -11.5t-2.5 -13t-9.5 -14q-104 -113 -153 -156.5t-63 -43.5q-7 0 -11.5 4t-4.5 10q0 2 1 5t3 5q61 75 82.5 105t21.5 43q0 7 -5.5 9.5t-15.5 2.5q-9 0 -34 -1.5t-58 -3
t-69.5 -3t-67.5 -1.5q-61 -1 -117 0t-93 5q-18 1 -23 7.5t-5 23.5q0 10 1.5 19.5t2.5 16.5q2 13 9.5 19t20.5 6q30 1 84 1.5t114 0.5q32 0 68.5 -1t69.5 -2.5t58.5 -2.5t35.5 -1t15 3t5 10q0 17 -32.5 58.5t-72.5 87.5z" />
    <glyph glyph-name="arrowdown" unicode="&#x2d;&#x2e;" horiz-adv-x="567" 
d="M484 307q2 2 6 4t9 2q6 0 10 -3t4 -9t-7.5 -18t-29 -37t-61 -66t-103.5 -104q-6 -6 -12 -8.5t-12 -2.5t-13 2.5t-14 9.5q-71 70 -111.5 111.5t-60 63t-24 30t-4.5 12.5q0 6 4 10t10 4q4 0 8.5 -3t8.5 -6q39 -31 64.5 -50t40.5 -29.5t23 -14.5t13 -4q7 0 9.5 5.5t2.5 15.5
q0 54 -4 124t-4 148q0 50 0.5 94.5t1.5 72.5q1 12 3.5 17.5t9.5 8.5q4 1 10 1.5t10 0.5q10 0 19.5 -1.5t16.5 -2.5q13 -2 17.5 -9t5.5 -19q1 -25 1.5 -67.5t0.5 -92.5q0 -74 -2.5 -145t-2.5 -127q0 -10 3 -15t10 -5q17 0 56 30.5t87 71.5z" />
    <glyph glyph-name="uni2196" unicode="&#x3c;\" horiz-adv-x="563" 
d="M99 305q0 -3 -1 -7t-5 -8t-9.5 -4.5t-9.5 3.5t-7 17.5t-5.5 46.5t-3.5 90t0 147q0 8 2.5 14.5t6.5 10.5t10.5 7t16.5 3q100 1 158 0.5t87 -2t38 -4.5t12 -6q4 -4 4 -9.5t-4 -9.5q-2 -3 -8 -4t-10 -2q-49 -6 -80.5 -10t-50 -7.5t-27 -6.5t-11.5 -6q-5 -5 -3 -11t9 -13
q39 -38 91 -84.5t107 -101.5q35 -36 66.5 -67.5t50.5 -52.5q7 -9 9.5 -15t-0.5 -13q-1 -3 -5.5 -7.5l-7.5 -7.5q-7 -7 -14.5 -13t-13.5 -10q-10 -7 -18.5 -5.5t-17.5 9.5q-19 16 -49 46l-66 66q-52 52 -100 103.5t-88 91.5q-7 7 -13 8.5t-11 -3.5q-12 -12 -18 -61t-11 -112z
" />
    <glyph glyph-name="uni2197" unicode="&#x2f;&#x3e;" horiz-adv-x="558" 
d="M181 584q-3 0 -7 1t-8 5t-4.5 9.5t3.5 9.5t17.5 7t46.5 5.5t90 3.5t147 0q8 0 14.5 -2.5t10.5 -6.5t7 -10.5t3 -16.5q1 -100 0.5 -158t-2 -87t-4.5 -38t-6 -12q-4 -4 -9.5 -4t-9.5 4q-3 2 -4 8t-2 10q-6 49 -10 80.5t-7.5 50t-6.5 27t-6 11.5q-5 5 -11 3t-13 -9
q-38 -39 -84.5 -91t-101.5 -107q-36 -35 -67.5 -66.5t-52.5 -50.5q-9 -7 -15 -9.5t-13 0.5q-3 1 -7.5 5.5l-7.5 7.5q-7 7 -13 14.5t-10 13.5q-7 10 -5.5 18.5t9.5 17.5q16 19 46 49l66 66q52 52 103.5 100t91.5 88q7 7 8.5 13t-3.5 11q-12 12 -61 18t-112 11z" />
    <glyph glyph-name="uni2198" unicode="\&#x3e;" horiz-adv-x="563" 
d="M466 478q0 3 1 7t5 8t9.5 4.5t9.5 -3.5t7 -17.5t5.5 -46.5t3.5 -90t0 -147q0 -8 -2.5 -14.5t-6.5 -10.5t-10.5 -7t-16.5 -3q-100 -1 -158 -0.5t-87 2t-38 4.5t-12 6q-4 4 -4 9.5t4 9.5q2 3 8 4t10 2q49 6 80.5 10t50 7.5t27 6.5t11.5 6q5 5 3 11t-9 13q-39 38 -91 84.5
t-107 101.5q-35 36 -66.5 67.5t-50.5 52.5q-7 9 -9.5 15t0.5 13q1 3 5.5 7.5l7.5 7.5q7 7 14.5 13t13.5 10q10 7 18.5 5.5t17.5 -9.5q19 -16 49 -46l66 -66q52 -52 100 -103.5t88 -91.5q7 -7 13 -8.5t11 3.5q12 12 18 61t11 112z" />
    <glyph glyph-name="uni2199" unicode="&#x3c;&#x2f;" horiz-adv-x="558" 
d="M379 198q3 0 7 -1t8 -5t4.5 -9.5t-3.5 -9.5t-17.5 -7t-46.5 -5.5t-90 -3.5t-147 0q-8 0 -14.5 2.5t-10.5 6.5t-7 10.5t-3 16.5q-1 100 -0.5 158t2 87t4.5 38t6 12q4 4 9.5 4t9.5 -4q3 -2 4 -8t2 -10q6 -49 10 -80.5t7.5 -50t6.5 -27t6 -11.5q5 -5 11 -3t13 9
q38 39 84.5 91t101.5 107q36 35 67.5 66.5t52.5 50.5q9 7 15 9.5t13 -0.5q3 -1 7.5 -5.5l7.5 -7.5q7 -7 13 -14.5t10 -13.5q7 -10 5.5 -18.5t-9.5 -17.5q-16 -19 -46 -49l-66 -66q-52 -52 -103.5 -100t-91.5 -88q-7 -7 -8.5 -13t3.5 -11q12 -12 61 -18t112 -11z" />
    <glyph glyph-name=".notdef" horiz-adv-x="706" 
d="M17 529q-7 -26 1 -79.5t22 -110t31 -105.5t29 -65q9 -12 26 -22.5t36.5 -18.5t41 -14.5t39.5 -9.5q12 -3 18.5 -8t9.5 -12q29 -63 63.5 -81.5t103.5 -18.5q25 0 59.5 4t66.5 9t56.5 10t30.5 8q13 5 20.5 16.5t3.5 30.5q-2 11 -12 36t-11 34q-2 15 0 30t-1 30
q-5 27 -12.5 40t-9.5 32q-1 13 6.5 22.5t27.5 11.5q12 1 24.5 10.5t12.5 33.5q0 18 -3 42.5t-6.5 49.5t-6.5 47.5t-4 35.5q-1 15 -8 26.5t-22 18.5q-7 4 -14.5 10t-11.5 16q-19 43 -41 86.5t-50 66.5q-16 13 -56 21.5t-85.5 11.5t-88 1t-63.5 -8t-56 -34.5t-69.5 -65
t-62.5 -74.5t-35 -64zM238 437q0 19 8 40.5t24.5 39.5t42.5 30t63 12q40 0 64.5 -26t24.5 -60q0 -72 -37 -111.5t-100 -39.5q-24 0 -41.5 12t-28 29.5t-15.5 37.5t-5 36zM629 348q-14 0 -25.5 16t-21 35.5t-18 35.5t-16.5 16q-7 0 -7 -9t2.5 -19.5t2.5 -19.5t-7 -9
q-9 0 -18.5 10.5t-17.5 26.5t-13 35.5t-5 38.5q0 31 11 49.5t31 18.5q17 0 29.5 -12t22 -26.5t17.5 -26.5t17 -12q6 0 4 9.5t-5.5 20.5t-4.5 20.5t6 9.5q8 0 18.5 -12.5t19.5 -32.5t15.5 -46t6.5 -52q0 -25 -11 -45t-33 -20zM351 463q11 2 13 8t2 13t0.5 13t8.5 9
q10 4 17 -14.5t11 -43.5t2.5 -37.5t-10.5 -13.5q-8 -2 -11.5 2t-6.5 9t-6.5 10t-12.5 4q-8 -1 -10.5 -7.5t-3.5 -13t-3 -13t-9 -7.5q-13 -3 -21 8t-12 35q-4 29 -4 47.5t16 20.5q6 2 9 -3t6 -11.5t8.5 -11.5t16.5 -3zM564 509q11 0 24 -12t21 -27t7.5 -27.5t-16.5 -12.5
q-15 0 -27 12t-17.5 27t-4 27.5t12.5 12.5z" />
    <glyph glyph-name=".null" horiz-adv-x="0" 
 />
    <glyph glyph-name="nonmarkingreturn" horiz-adv-x="333" 
 />
    <glyph glyph-name="space" unicode=" " horiz-adv-x="181" 
 />
    <glyph glyph-name="exclam" unicode="!" horiz-adv-x="204" 
d="M109 765q10 0 20 -1l20 -2q9 -1 13 -6.5t4 -12.5t-5 -32t-11 -81.5t-11 -154t-5 -249.5q0 -13 -5.5 -19.5t-21.5 -8.5q-4 -1 -8 -1h-7q-10 0 -14.5 4.5t-5.5 17.5q-10 69 -15 165t-5 195q0 40 1 79.5t2 76.5q1 11 5.5 19t20.5 9q7 1 14 1.5t14 0.5zM104 -10
q-28 0 -44 16.5t-16 47.5q0 32 16 50t44 18t43.5 -18t15.5 -50q0 -31 -15.5 -47.5t-43.5 -16.5z" />
    <glyph glyph-name="quotedbl" unicode="&#x22;" horiz-adv-x="253" 
d="M65 575q-10 0 -15 4t-7 15q-3 15 -6.5 39.5t-7.5 50.5t-6.5 50.5t-2.5 40.5q0 21 8 32t39 11q24 0 30 -11t6 -32q0 -16 -1.5 -40.5t-4 -50.5t-5.5 -50.5t-6 -39.5q-3 -10 -7 -14.5t-14 -4.5zM185 575q-10 0 -15 4t-7 15q-1 15 -3.5 39.5t-4.5 50.5t-3.5 50.5t-1.5 40.5
q0 21 6 32t31 11q31 0 38.5 -11t7.5 -32q0 -16 -2.5 -40.5t-6.5 -50.5t-9 -50.5t-9 -39.5q-3 -10 -7 -14.5t-14 -4.5z" />
    <glyph glyph-name="numbersign" unicode="#" horiz-adv-x="638" 
d="M158 18q-1 8 -2.5 27t-1.5 41q-1 28 0 53t1 33q0 11 -3.5 15.5t-20.5 4.5h-102q-8 0 -13 4t-5 14q0 8 2 16.5t3 16.5q2 9 8.5 14t15.5 5q19 0 43 0.5t49 0.5q10 0 15 5t5 15q1 24 4 50.5t5.5 49l4.5 40.5t2 25t-4.5 9t-17.5 2h-87q-8 0 -13 4t-5 14q0 9 2 18t3 18
q2 9 8.5 14t15.5 5q20 0 44 0.5t51 0.5q9 0 17 5.5t11 15.5q10 45 18 76.5t13 44.5t13 19t18 7h11h15.5t12.5 -1q7 -1 11 -3.5t4 -7.5t-6.5 -25t-15 -43.5t-15 -44.5t-6.5 -29q0 -9 14 -11t62 -2q52 0 65.5 3.5t17.5 17.5q12 46 20 76.5t13 43.5t10 19t15 7q4 1 10.5 1h12.5
h11.5t8.5 -1q9 -1 14 -4.5t5 -10.5q0 -6 -6.5 -26t-15 -42.5t-15 -42.5t-6.5 -26q0 -8 7 -11.5t17 -3.5h73q13 0 17.5 -3.5t4.5 -12.5q0 -8 -1.5 -19.5t-3.5 -18.5q-4 -10 -11 -15t-22 -6q-15 0 -34.5 0.5t-46.5 0.5q-12 0 -17 -5t-7 -20q-5 -38 -10.5 -78t-5.5 -77
q0 -10 3.5 -14t13.5 -4q25 0 48 1t42 1q13 0 17.5 -3.5t4.5 -12.5q0 -7 -1.5 -17.5t-3.5 -17.5q-4 -10 -11 -15t-22 -6h-73q-13 0 -15.5 -5t-2.5 -17q0 -17 2.5 -41.5t5 -48t5 -42t2.5 -23.5q0 -7 -4.5 -9.5t-14.5 -3.5q-6 0 -12.5 -0.5t-13.5 -0.5t-13 0.5t-11 0.5
q-11 1 -16.5 4.5t-7.5 12.5q-1 19 -3.5 59.5t-2.5 94.5q0 13 -9 16t-58 3q-56 0 -68 -3.5t-12 -16.5q0 -70 6.5 -107t6.5 -46t-4 -12.5t-12 -4.5q-6 -1 -12 -1h-11h-13t-11 1q-11 1 -16 4t-7 12zM327 468q-41 0 -55 -3t-22 -11q-7 -7 -12 -25.5t-8 -40.5t-4 -45t-1 -39
q0 -35 16.5 -42t65.5 -7q38 0 51 2.5t20 9.5q6 6 11 21.5t9.5 37.5t7 48t2.5 51q0 30 -17.5 36.5t-63.5 6.5z" />
    <glyph glyph-name="dollar" unicode="$" horiz-adv-x="555" 
d="M241 -39q-10 1 -15.5 5.5t-6.5 15.5q0 10 2.5 26t2.5 26q0 7 -4.5 11t-17.5 7q-69 14 -106 57.5t-37 98.5q0 20 3.5 36t10.5 30q2 4 5.5 6.5t6.5 2.5q4 0 8 -3t5 -8q16 -63 60 -101.5t107 -38.5q57 0 96.5 25t39.5 79q0 44 -36 68.5t-85 41.5q-36 13 -72.5 28t-65 37.5
t-46.5 55.5t-18 82q0 62 36.5 111.5t110.5 63.5q10 1 13.5 7t3.5 14q0 13 -0.5 25t-0.5 22t5.5 14t13.5 5q6 1 12 1h12h13t12 -1q13 -1 19.5 -5.5t6.5 -12.5t-8.5 -26.5t-8.5 -29.5q1 -5 4 -8t10 -4q46 -10 74 -22.5t50 -30.5q7 -7 10 -12t3 -12t-9 -25.5t-27 -37.5
q-4 -4 -8.5 -6.5t-8.5 -2.5q-3 0 -6 1.5t-6 5.5q-24 29 -58.5 45t-70.5 16q-54 0 -81.5 -25t-27.5 -64q0 -47 37.5 -73.5t92.5 -45.5q34 -12 69.5 -27t63 -37t45.5 -53.5t18 -75.5q0 -69 -40 -123t-128 -69q-9 -1 -13.5 -6.5t-4.5 -13.5q0 -10 6.5 -25t6.5 -25t-6 -14.5
t-19 -5.5q-5 -1 -11 -1h-11h-16t-15 1z" />
    <glyph glyph-name="percent" unicode="%" horiz-adv-x="759" 
d="M204 397q43 0 61.5 40t18.5 114q0 70 -21 109t-58 39q-39 0 -61 -39t-22 -109q0 -74 19 -114t63 -40zM200 322q-76 0 -116.5 52.5t-40.5 165.5q0 104 41 169t122 65q85 0 122.5 -63t37.5 -171q0 -113 -45.5 -165.5t-120.5 -52.5zM554 65q43 0 61.5 40t18.5 114
q0 70 -20 109t-57 39q-40 0 -62.5 -39t-22.5 -109q0 -74 19 -114t63 -40zM550 -10q-76 0 -116.5 52.5t-40.5 165.5q0 104 41 169t122 65q85 0 122.5 -63t37.5 -171q0 -113 -45.5 -165.5t-120.5 -52.5zM191 25q-7 -10 -14.5 -16.5t-21.5 -6.5q-8 0 -26.5 6.5t-25.5 10.5
q-9 4 -13.5 9.5t-4.5 10.5q0 4 1.5 7t4.5 7q22 25 54 61.5t66 75t66 75t53 61.5q3 2 6 3.5t7 1.5q6 0 10.5 -3.5t4.5 -10.5t-17 -40.5t-42 -77t-54.5 -91t-53.5 -83.5zM577 743q6 10 14 16.5t22 6.5q8 0 26.5 -6.5t25.5 -10.5q9 -4 13.5 -9.5t4.5 -10.5q0 -4 -1.5 -7
t-4.5 -7q-22 -25 -54.5 -63.5t-67 -78.5t-67.5 -77.5t-57 -61.5q-2 -2 -5.5 -3.5t-7.5 -1.5q-5 0 -9 3.5t-4 9.5q0 7 8.5 25t28 52.5t53 89t82.5 134.5z" />
    <glyph glyph-name="ampersand" unicode="&#x26;" horiz-adv-x="829" 
d="M244 -12q-102 0 -151 50.5t-49 129.5q0 72 38 126t101 91q7 3 10 8t3 11q0 3 -1 6l-2 6q-13 36 -20 72t-7 70q0 97 50.5 156.5t148.5 59.5q51 0 85.5 -13.5t55.5 -36t30 -51.5t9 -60q0 -73 -58.5 -126.5t-159.5 -101.5q-7 -4 -11.5 -8.5t-4.5 -10.5q0 -3 1 -6l2 -6
q19 -37 44 -72t53 -66q4 -4 7 -5.5t7 -1.5t7.5 3t6.5 8q28 43 54.5 88.5t54.5 82.5t60.5 60.5t70.5 23.5q54 0 76.5 -29t22.5 -57q0 -8 -1.5 -15.5t-4.5 -12.5t-6.5 -8t-7.5 -3t-7.5 2t-6.5 5q-8 9 -23.5 18t-37.5 9q-27 0 -50.5 -19.5t-45 -50.5t-43.5 -70t-46 -79
q-2 -4 -3.5 -7.5t-1.5 -6.5q0 -5 3 -10t8 -9q37 -25 75.5 -39t75.5 -14q19 0 38 6t36 17q4 3 7 4t6 1q2 0 5 -1.5t4 -3.5q2 -4 3 -8t1 -10q0 -36 -26 -65t-79 -29q-46 0 -97 21.5t-102 58.5l-5 2.5t-6 1.5q-4 0 -9 -2.5t-9 -6.5q-34 -34 -78 -55.5t-100 -21.5zM137 179
q0 -44 29 -76.5t82 -32.5q26 0 48.5 8t38.5 18.5t25 21.5t9 17q0 4 -2 8.5t-6 8.5q-35 37 -67 80t-57 88q-3 4 -6.5 6.5t-7.5 2.5q-9 0 -23.5 -10.5t-28.5 -30t-24 -47.5t-10 -62zM362 701q-51 0 -81 -35t-30 -99q0 -20 1.5 -42t5.5 -40.5t10.5 -30.5t16.5 -12q12 0 40.5 14
t58 37t52 54.5t22.5 65.5q0 37 -23.5 62.5t-72.5 25.5z" />
    <glyph glyph-name="quotesingle" unicode="'" horiz-adv-x="133" 
d="M65 575q-10 0 -15 4t-7 15q-3 15 -6.5 39.5t-7.5 50.5t-6.5 50.5t-2.5 40.5q0 21 8 32t39 11t38.5 -11t7.5 -32q0 -16 -2.5 -40.5t-6.5 -50.5t-9 -50.5t-9 -39.5q-3 -10 -7 -14.5t-14 -4.5z" />
    <glyph glyph-name="parenleft" unicode="(" horiz-adv-x="253" 
d="M159 -4q-20 21 -39.5 64.5t-35 101.5t-25 129t-9.5 145q0 89 11.5 165t31.5 130.5t48.5 85t62.5 30.5q27 0 43.5 -15t16.5 -24q0 -5 -2 -11t-11 -8q-28 -12 -49.5 -44.5t-36 -80.5t-22 -109t-7.5 -130q0 -71 7.5 -127t20 -102.5t28 -87t31.5 -80.5q1 -4 2 -6.5t1 -4.5
q0 -5 -2.5 -8t-7.5 -7q-7 -5 -19 -10.5t-17 -5.5t-10.5 2t-10.5 8z" />
    <glyph glyph-name="parenright" unicode=")" horiz-adv-x="253" 
d="M104 837q20 -21 39.5 -64.5t35 -101.5t25 -129t9.5 -145q0 -89 -11.5 -165t-31.5 -130.5t-48.5 -85t-62.5 -30.5q-27 0 -43.5 15t-16.5 24q0 5 2 11t11 8q28 12 49.5 44.5t36 80.5t22 109t7.5 130q0 71 -7.5 127t-20 102.5t-28 87t-31.5 80.5q-1 4 -2 6.5t-1 4.5
q0 5 2.5 8t7.5 7q7 5 19 10.5t17 5.5t10.5 -2t10.5 -8z" />
    <glyph glyph-name="asterisk" unicode="*" horiz-adv-x="524" 
d="M302 582q6 0 33.5 6.5t60 14.5t61.5 14.5t38 6.5q7 0 11.5 -3.5t7.5 -11.5q5 -14 7 -35t2 -31q0 -12 -6 -17.5t-21 -5.5q-14 0 -42 2.5t-57 5.5t-54 5.5t-33 2.5q-4 0 -6.5 -2t-2.5 -5q0 -1 0.5 -3t1.5 -3q5 -8 22 -31t35.5 -48.5t34.5 -47.5t19 -29q2 -3 3 -6.5t1 -6.5
q0 -5 -2.5 -9.5t-7.5 -7.5q-10 -8 -31.5 -17.5t-37.5 -9.5q-7 0 -11.5 2.5t-8.5 9.5q-4 8 -11.5 34t-15.5 55t-15 55t-11 35q-1 4 -3.5 5.5t-3.5 1.5t-3.5 -1t-3.5 -4q-6 -9 -20.5 -30.5t-30.5 -45t-31 -44t-21 -27.5q-4 -4 -8.5 -6t-8.5 -2q-2 0 -4.5 1t-4.5 2q-4 1 -24 18
t-28 27q-2 2 -3 5t-1 6q0 4 2.5 9t7.5 9q7 6 27.5 22t44 33.5t44.5 33.5t28 23q2 1 3 3.5t1 4.5q0 3 -2 5t-5 3q-9 2 -33 7.5t-51 11.5t-52.5 12.5t-38.5 11.5q-8 4 -12 7.5t-4 8.5q0 8 11 32t18 35q3 5 7.5 7.5t8.5 2.5q8 0 30.5 -12.5t48 -28.5t50.5 -31.5t38 -22.5
q3 -1 4 -1.5t2 -0.5q2 0 3.5 2t2.5 6q1 8 2.5 31.5t2.5 51.5t2.5 56t2.5 45q1 10 7.5 15t16.5 5t27 -3t33 -7q8 -2 12.5 -6.5t4.5 -11.5q0 -10 -11 -38.5t-23.5 -60t-23.5 -58t-11 -30.5t2.5 -5.5t6.5 -1.5z" />
    <glyph glyph-name="plus" unicode="+" horiz-adv-x="506" 
d="M305 118q0 -9 -5 -13t-14 -5q-7 0 -14.5 -0.5t-14.5 -0.5t-15 0.5t-15 0.5q-9 1 -15 5t-6 17q0 16 1.5 41.5t3.5 51t3.5 47t1.5 31.5q0 13 -5.5 18.5t-20.5 5.5q-33 0 -72 -3t-64 -3q-13 0 -18 3.5t-5 15.5q0 7 3 22t6 25q4 13 10.5 16.5t19.5 3.5q19 0 53 -3t65 -3
q11 0 17.5 6t7.5 18q1 38 2 80t2 76q1 15 9.5 19.5t18.5 5.5q4 1 7.5 1h7.5h8t8 -1q13 -1 18.5 -5.5t5.5 -14.5q0 -35 -4.5 -78.5t-4.5 -80.5q0 -11 4 -17.5t17 -6.5q39 0 71 1.5t60 1.5q18 -1 25 -5t7 -20q0 -6 -1.5 -18t-2.5 -18q-2 -13 -9 -19t-20 -6q-26 0 -61 4.5
t-66 4.5q-11 0 -16 -8t-5 -21q0 -22 1.5 -49.5t4 -53t4 -45t1.5 -24.5z" />
    <glyph glyph-name="comma" unicode="," horiz-adv-x="175" 
d="M31 82q0 4 2 8.5t7 9.5q7 7 14.5 13t15.5 12q7 4 12.5 6.5t11.5 2.5q16 0 35.5 -21t19.5 -58q0 -31 -8.5 -56t-21 -41.5t-28 -25.5t-29.5 -9q-5 0 -9 4t-4 11q0 9 4.5 23.5t4.5 35.5q0 16 -4 32.5t-14 31.5q-4 6 -6.5 11.5t-2.5 9.5z" />
    <glyph glyph-name="hyphen" unicode="-" horiz-adv-x="337" 
d="M302 307q-2 -7 -8.5 -12t-18.5 -6q-11 -1 -25 -1h-29q-46 0 -95.5 2t-77.5 3q-8 1 -12.5 5t-4.5 13q0 6 1 17.5t5 26.5q3 11 8.5 14t15.5 4q15 1 34.5 1.5t40.5 0.5q40 0 81.5 -1.5t67.5 -2.5q13 -1 17.5 -7.5t4.5 -15.5t-1 -20t-4 -21z" />
    <glyph glyph-name="period" unicode="." horiz-adv-x="179" 
d="M90 -10q-28 0 -44 16.5t-16 47.5q0 32 16 50t44 18t43.5 -18t15.5 -50q0 -31 -15.5 -47.5t-43.5 -16.5z" />
    <glyph glyph-name="slash" unicode="/" horiz-adv-x="303" 
d="M97 28q-4 -13 -9 -19.5t-16 -7.5q-7 -1 -12 -1h-10h-11t-13 1q-11 1 -15 7t-4 14q0 25 32.5 114.5t81.5 261.5q42 149 63 253.5t28 145.5q1 11 6.5 15.5t11.5 5.5q5 1 11 1h12q8 0 15.5 -0.5t11.5 -1.5q9 -1 13 -5t4 -12q0 -15 -21.5 -113t-52.5 -221.5t-65.5 -247
t-60.5 -190.5z" />
    <glyph glyph-name="zero" unicode="0" horiz-adv-x="597" 
d="M297 70q91 0 126.5 79.5t35.5 227.5q0 159 -40 240.5t-115 81.5q-81 0 -124 -83.5t-43 -243.5q0 -146 36.5 -224t123.5 -78zM291 -15q-119 0 -183 89.5t-64 291.5q0 92 16.5 168.5t48.5 130.5t81 84t114 30t112.5 -29t77.5 -82.5t44.5 -130t14.5 -171.5
q0 -204 -72 -292.5t-190 -88.5z" />
    <glyph glyph-name="one" unicode="1" horiz-adv-x="332" 
d="M164 -2h-14t-12 1q-10 1 -15.5 6t-5.5 17q0 60 1.5 127t4 137.5t4 144.5t1.5 146q0 57 -7 78.5t-35 32.5q-9 4 -13.5 9.5t-4.5 11.5q0 4 2.5 9t7.5 9q24 18 62.5 33.5t63.5 15.5q8 0 14.5 -5.5t6.5 -18.5t-2 -49.5t-5 -86t-5 -108.5t-2 -118q0 -50 1.5 -101t3 -97.5
t3 -88.5t2.5 -75q0 -13 -4 -19t-20 -9q-8 -1 -15.5 -1.5t-17.5 -0.5z" />
    <glyph glyph-name="two" unicode="2" horiz-adv-x="537" 
d="M65 0q-19 0 -26.5 23.5t-7.5 71.5q0 57 16.5 100.5t45.5 79t70 66.5t90 63q76 51 112 89t36 93q0 43 -31.5 73.5t-85.5 30.5q-48 0 -95.5 -23t-90.5 -74q-4 -4 -8 -6.5t-8 -2.5q-5 0 -10.5 3t-9.5 8q-10 13 -18.5 26.5t-8.5 23.5q0 6 2 11.5t6 9.5q40 46 102.5 78.5
t142.5 32.5q94 0 148.5 -52t54.5 -140q0 -43 -11 -76.5t-34.5 -62.5t-60.5 -57.5t-87 -60.5q-98 -63 -140 -110.5t-42 -109.5q0 -9 7 -14.5t21 -5.5q70 0 117.5 1t77.5 3.5t47.5 8t28.5 14.5q19 16 26.5 45t10.5 66q1 8 6 13t12 5q4 0 9 -3t9 -9q7 -13 13 -31t6 -43
q0 -29 -6.5 -57.5t-23.5 -50.5t-46.5 -36t-75.5 -14q-28 0 -81 3t-106 3q-30 0 -58 -3t-45 -3z" />
    <glyph glyph-name="three" unicode="3" horiz-adv-x="536" 
d="M253 -15q-50 0 -90 10.5t-69.5 26.5t-49.5 34.5t-31 34.5q-2 3 -3 6.5t-1 7.5t1.5 8.5t3.5 8.5q6 11 17.5 24.5t16.5 18.5q4 4 8 6t7 2t6 -1.5t5 -4.5q31 -42 70 -70.5t108 -28.5q66 0 103 38t37 101q0 68 -53.5 111t-169.5 82q-6 2 -9.5 6t-3.5 8q0 3 1.5 5.5t3.5 5.5
q10 14 39 49t61 73.5t60 73t36 47.5q1 3 2 5.5t1 4.5q0 5 -3 8t-9 3q-26 0 -63.5 -2t-77 -6t-77.5 -10t-66 -14q-2 -1 -4 -1h-4q-5 0 -8.5 2.5t-4.5 7.5q-5 19 -6.5 39t-1.5 34q0 10 6.5 14t15.5 5q46 4 108.5 6t125.5 2q48 0 94 -1.5t84 -4.5q10 -1 13.5 -6.5t3.5 -12.5
q0 -21 -25 -61t-57.5 -83t-64.5 -81.5t-45 -56.5q-4 -4 -6 -8.5t-2 -8.5t2 -7t6 -4q31 -12 65 -30t62 -45t46.5 -64t18.5 -87q0 -45 -15 -85t-44 -70t-73 -47.5t-101 -17.5z" />
    <glyph glyph-name="four" unicode="4" horiz-adv-x="558" 
d="M438 152q0 -26 2 -59t3 -76q0 -9 -4.5 -15.5t-13.5 -7.5q-5 0 -11 -0.5t-13 -0.5q-10 0 -18.5 0.5t-14.5 1.5q-13 2 -17.5 6t-4.5 18q0 25 2 58t2 66q0 15 -7.5 20.5t-20.5 5.5q-22 0 -54.5 -1t-67 -1.5t-67 -1.5t-53.5 -1q-22 0 -31.5 12.5t-9.5 31.5q0 68 13 146.5
t32.5 153t42 139.5t41.5 105q7 13 13.5 19t18.5 7q7 1 13 1.5t12 0.5q10 0 18 -0.5t15 -1.5q10 -1 14.5 -5t4.5 -10q0 -3 -1.5 -6l-3.5 -7q-37 -64 -63.5 -137.5t-43 -142t-24 -125t-7.5 -87.5q0 -6 3 -8.5t9 -2.5q67 0 104.5 0.5t56 2t24 3.5t9.5 6t6 12.5t2 17.5
q2 76 4 130.5t5 92.5q4 34 9 48.5t16 33.5q10 16 26 36.5t28 20.5q5 0 9 -4.5t4 -15.5q0 -3 -1.5 -35t-4 -81t-4 -109t-1.5 -118q0 -19 4.5 -25t12.5 -6q14 0 33 2t31 2q10 0 16.5 -3.5t7.5 -14.5q1 -7 1.5 -13.5t0.5 -13.5t-0.5 -14t-1.5 -14q-1 -10 -5 -15t-15 -5
q-18 0 -32 3t-37 3q-7 0 -11.5 -5t-4.5 -17z" />
    <glyph glyph-name="five" unicode="5" horiz-adv-x="542" 
d="M98 740q3 10 9.5 16t16.5 6q30 1 65.5 1.5t73.5 0.5q49 0 99 -1t93 -3q14 -1 19.5 -8t5.5 -13q0 -8 -2 -24t-5 -28q-4 -14 -9 -20t-12 -6q-3 0 -6.5 1t-7.5 2q-15 4 -39.5 9t-54 9.5t-62 7.5t-61.5 3q-19 0 -28 -3.5t-13 -8.5q-11 -9 -19 -40.5t-13.5 -70t-8.5 -77
t-3 -62.5q0 -9 3 -14.5t10 -5.5q10 0 24 8.5t33.5 18t47.5 18t66 8.5q94 0 143.5 -61t49.5 -155q0 -131 -61.5 -197t-172.5 -66q-79 0 -134.5 22.5t-82.5 40.5q-12 7 -17 13.5t-5 15.5q0 11 7 29t17 36q4 7 8.5 11.5t11.5 4.5t18.5 -9.5t25.5 -22.5q23 -17 59.5 -34
t90.5 -17q28 0 54.5 9t46.5 28.5t32 52t12 78.5q0 63 -30.5 102.5t-88.5 39.5q-31 0 -58.5 -7.5t-51.5 -17t-44 -17t-35 -7.5q-7 0 -17 3t-19 7q-16 7 -22 14t-6 17q0 43 4.5 95t11.5 102t15.5 94.5t15.5 71.5z" />
    <glyph glyph-name="six" unicode="6" horiz-adv-x="562" 
d="M140 235q0 -33 10.5 -63.5t30 -54t48.5 -37.5t66 -14q69 0 108 47.5t39 126.5q0 75 -34.5 115.5t-91.5 40.5q-38 0 -70.5 -13t-56 -35t-36.5 -51.5t-13 -61.5zM40 357q0 219 86 318.5t234 99.5q37 0 66.5 -7t45.5 -14q10 -4 13 -10.5t3 -13.5q0 -10 -3.5 -24.5
t-10.5 -30.5q-1 -4 -5.5 -6.5t-8.5 -2.5q-6 0 -14 5.5t-20.5 11.5t-32 11.5t-47.5 5.5q-58 0 -100 -26.5t-69.5 -69t-40.5 -97.5t-13 -111q0 -6 3.5 -11t9.5 -5q2 0 4.5 1t5.5 3q46 43 94 64t91 21q92 0 145 -59t53 -170q0 -125 -63 -190t-168 -65q-67 0 -116 26.5
t-80.5 74.5t-46.5 117t-15 154z" />
    <glyph glyph-name="seven" unicode="7" horiz-adv-x="433" 
d="M240 -15q-68 0 -101.5 37.5t-33.5 112.5t36.5 159.5t80 160.5t80 135t36.5 83q0 8 -4 11.5t-11 3.5q-85 0 -150 -6.5t-105 -14.5q-15 -3 -29.5 -7t-20.5 -4q-5 0 -10 3t-6 13q-1 11 -1.5 23t-0.5 16v13t1 12q1 12 7 17.5t19 6.5q47 3 94.5 4t92.5 1q53 0 100.5 -1.5
t84.5 -2.5q16 -1 22 -6t7 -21q1 -12 1.5 -23.5t0.5 -19.5q0 -26 -6 -42t-16 -33q-45 -74 -83.5 -143.5t-66 -130.5t-43 -112t-15.5 -89q0 -42 21 -57.5t75 -15.5q8 0 11.5 -3t3.5 -13q0 -31 -17.5 -49t-53.5 -18z" />
    <glyph glyph-name="eight" unicode="8" horiz-adv-x="582" 
d="M542 194q0 -89 -61.5 -146.5t-189.5 -57.5q-122 0 -186.5 57t-64.5 145q0 43 12.5 75t30.5 55t37.5 39t33.5 27q4 2 5.5 6t1.5 8t-1.5 8t-5.5 6q-11 9 -26 23.5t-28 34.5t-22.5 46.5t-9.5 59.5q0 48 18 84.5t49 60.5t72.5 36.5t88.5 12.5q45 0 84 -11.5t67 -34.5
t44 -57.5t16 -79.5q0 -40 -9.5 -67.5t-23.5 -46.5t-30 -32.5t-29 -24.5q-4 -3 -6.5 -6.5t-2.5 -7.5t2.5 -7.5t6.5 -4.5q15 -7 37 -20.5t41.5 -37.5t34 -58.5t14.5 -83.5zM129 203q0 -61 41.5 -97.5t121.5 -36.5q74 0 116 36t42 93q0 39 -14 70t-37 52.5t-51.5 33t-57.5 11.5
q-35 0 -65 -15t-51 -38t-33 -52t-12 -57zM420 576q0 51 -34 85.5t-90 34.5q-68 0 -105 -36t-37 -87q0 -28 11.5 -53.5t30 -44.5t42.5 -30.5t49 -11.5t49.5 12.5t42.5 32t29.5 45.5t11.5 53z" />
    <glyph glyph-name="nine" unicode="9" horiz-adv-x="582" 
d="M438 529q0 71 -43.5 118.5t-112.5 47.5t-106 -48t-37 -124q0 -72 30.5 -116t90.5 -44q75 0 126.5 45.5t51.5 120.5zM540 394q0 -101 -21.5 -177.5t-60.5 -126.5t-93.5 -75t-120.5 -25q-56 0 -90.5 10t-52.5 18q-7 4 -10.5 8.5t-3.5 9.5q0 13 4.5 33t11.5 40q2 6 6.5 9
t8.5 3q3 0 5.5 -1t5.5 -3q23 -15 52.5 -28t68.5 -13q51 0 89.5 22t64 60.5t38.5 90t13 110.5q0 10 -4.5 14.5t-9.5 4.5q-2 0 -5 -1t-6 -5q-42 -42 -89 -62.5t-104 -20.5q-38 0 -72.5 13.5t-60 40t-40.5 68t-15 96.5q0 66 18 117t49.5 85t75.5 52t97 18q63 0 110.5 -26.5
t78.5 -76t46.5 -121t15.5 -161.5z" />
    <glyph glyph-name="colon" unicode=":" horiz-adv-x="179" 
d="M90 38q-28 0 -44 16.5t-16 47.5q0 32 16 50t44 18t43.5 -18t15.5 -50q0 -31 -15.5 -47.5t-43.5 -16.5zM90 355q-28 0 -44 16.5t-16 47.5q0 32 16 50t44 18t43.5 -18t15.5 -50q0 -31 -15.5 -47.5t-43.5 -16.5z" />
    <glyph glyph-name="semicolon" unicode=";" horiz-adv-x="175" 
d="M31 82q0 4 2 8.5t7 9.5q7 7 14.5 13t15.5 12q7 4 12.5 6.5t11.5 2.5q16 0 35.5 -21t19.5 -58q0 -31 -8.5 -56t-21 -41.5t-28 -25.5t-29.5 -9q-5 0 -9 4t-4 11q0 9 4.5 23.5t4.5 35.5q0 16 -4 32.5t-14 31.5q-4 6 -6.5 11.5t-2.5 9.5zM90 355q-28 0 -44 16.5t-16 47.5
q0 32 16 50t44 18t43.5 -18t15.5 -50q0 -31 -15.5 -47.5t-43.5 -16.5z" />
    <glyph glyph-name="less" unicode="&#x3c;" horiz-adv-x="284" 
d="M17 330q-4 7 -5.5 13.5t-1.5 10.5q0 7 1.5 13.5t5.5 12.5q36 66 77 125t80 107q7 9 13 13.5t13 4.5q10 0 24.5 -7t24.5 -14q7 -4 10 -8.5t3 -8.5t-3 -8.5t-8 -10.5q-37 -44 -74.5 -91t-72.5 -102q-4 -7 -7 -13.5t-3 -11.5q0 -4 2.5 -10.5t7.5 -14.5q32 -49 71 -95.5
t80 -95.5q3 -3 4.5 -6t1.5 -7t-2 -8t-6 -9q-8 -10 -21.5 -20.5t-22.5 -10.5q-5 0 -10.5 3t-11.5 9q-54 58 -95.5 117.5t-74.5 122.5z" />
    <glyph glyph-name="equal" unicode="=" horiz-adv-x="414" 
d="M377 424q-2 -7 -8 -12t-16 -5q-31 -1 -70.5 -1h-80.5h-80.5t-70.5 1q-9 0 -14.5 4.5t-5.5 14.5t1.5 24t2.5 22q4 14 11.5 19t17.5 6q28 1 65 1.5t75 0.5q44 0 86.5 -1t71.5 -2q12 -1 16.5 -7t4.5 -17q0 -10 -1.5 -22.5t-4.5 -25.5zM377 233q-2 -7 -8 -12t-16 -5
q-31 -1 -70.5 -1h-80.5h-80.5t-70.5 1q-9 0 -14.5 4.5t-5.5 14.5q0 11 1.5 25.5t2.5 22.5q4 14 11.5 19t17.5 6q28 1 65 1.5t75 0.5q44 0 86.5 -1t71.5 -2q12 -1 16.5 -7t4.5 -17q0 -10 -1.5 -23.5t-4.5 -26.5z" />
    <glyph glyph-name="greater" unicode="&#x3e;" horiz-adv-x="284" 
d="M267 378q4 -7 5.5 -13.5t1.5 -10.5q0 -7 -1.5 -13.5t-5.5 -12.5q-36 -66 -77 -125t-80 -107q-7 -9 -13 -13.5t-13 -4.5q-10 0 -24.5 7t-24.5 14q-7 4 -10 8.5t-3 8.5t3 8.5t8 10.5q37 44 74.5 91t72.5 102q4 7 7 13.5t3 11.5q0 4 -2.5 10.5t-7.5 14.5q-32 49 -71 95.5
t-80 95.5q-3 3 -4.5 6t-1.5 7t2 8t6 9q8 10 21.5 20.5t22.5 10.5q5 0 10.5 -3t11.5 -9q54 -58 95.5 -117.5t74.5 -122.5z" />
    <glyph glyph-name="question" unicode="?" horiz-adv-x="489" 
d="M295 209q0 -10 -15 -18.5t-40 -8.5q-38 0 -57 20t-19 54q0 51 34 88.5t75 71t75 70.5t34 87q0 55 -34 92.5t-105 37.5q-65 0 -103 -36.5t-38 -92.5q0 -43 14.5 -59.5t14.5 -27.5q0 -7 -7 -10.5t-17 -3.5q-28 0 -57.5 25t-29.5 88q0 41 15.5 76.5t44 62t70.5 41.5t93 15
q59 0 101.5 -15.5t70 -42.5t41 -64t13.5 -79q0 -73 -35 -120t-77 -80t-77 -60t-35 -62q0 -15 8 -22.5t17 -11.5t17 -6.5t8 -8.5zM228 -10q-28 0 -44 16.5t-16 47.5q0 32 16 50t44 18t43.5 -18t15.5 -50q0 -31 -15.5 -47.5t-43.5 -16.5z" />
    <glyph glyph-name="at" unicode="@" horiz-adv-x="997" 
d="M424 -11q-50 0 -84.5 55.5t-34.5 198.5q0 86 14.5 143.5t41 91.5t64 48.5t83.5 14.5q47 0 74.5 -5.5t49.5 -12.5q13 -3 22 -12t9 -22q0 -50 -1.5 -109.5t-3.5 -114t-3.5 -100t-1.5 -69.5q0 -7 3.5 -11.5t9.5 -4.5q31 0 58.5 20.5t47 56.5t31 87t11.5 112
q0 77 -17.5 141.5t-54.5 110.5t-96 71.5t-142 25.5q-93 0 -158.5 -34.5t-106 -89.5t-58.5 -125.5t-18 -141.5q0 -49 7.5 -93.5t18 -81t22.5 -65t20 -45.5q2 -5 3 -9t1 -8q0 -6 -4 -10t-13 -7q-8 -3 -22 -6t-23 -3t-13.5 4t-11.5 14q-19 36 -42 117t-23 186q0 100 26.5 186
t79.5 149t133 99t186 36q98 0 171 -30.5t121 -85t71.5 -131t23.5 -167.5q0 -101 -22.5 -171t-60.5 -113t-88 -62t-104 -19h-10.5t-8.5 1q-10 1 -14.5 6t-5.5 14q-1 15 -1.5 36.5t-0.5 30.5q0 7 -3 10t-7 3q-2 0 -5 -1.5t-6 -5.5q-10 -13 -25 -31t-32 -34t-36.5 -27
t-40.5 -11zM445 78q29 0 54 28.5t42.5 74t27.5 104t10 117.5q0 33 -15.5 47t-58.5 14q-25 0 -45.5 -9t-34.5 -32.5t-21.5 -65.5t-7.5 -108q0 -79 11 -124.5t38 -45.5z" />
    <glyph glyph-name="A" unicode="A" horiz-adv-x="624" 
d="M117 -1h-14t-14 1q-10 1 -16.5 5.5t-7.5 17.5q-4 40 -6.5 81t-2.5 82q0 79 10.5 158t37 153.5t72 143t116.5 126.5q7 5 12.5 7.5t11.5 2.5t11.5 -2.5t11.5 -7.5q131 -116 179.5 -257.5t48.5 -323.5q0 -39 -2 -80t-7 -86q-1 -10 -7.5 -13.5t-16.5 -4.5q-7 -1 -14 -1.5
t-15 -0.5t-15 0.5t-11 1.5q-7 2 -10 7t-3 13q0 20 8 52.5t8 78.5q0 50 -31 72t-99 22q-41 0 -79.5 -7.5t-67 -23t-46 -38.5t-17.5 -54q0 -29 9.5 -55.5t10.5 -44.5q1 -9 -2 -14t-10 -8q-6 -1 -14.5 -2t-18.5 -1zM161 283q8 0 24.5 6.5t40 14t54.5 14t68 6.5q41 0 65.5 -2.5
t37.5 -2.5q11 0 14 6t3 16q0 44 -12 91t-31.5 89.5t-44 79.5t-49.5 61q-5 4 -8.5 7.5t-7.5 3.5t-7.5 -3t-10.5 -8q-35 -29 -62.5 -75.5t-46.5 -97.5t-29 -102t-10 -90q0 -7 3.5 -10.5t8.5 -3.5z" />
    <glyph glyph-name="B" unicode="B" horiz-adv-x="600" 
d="M200 -4q-25 0 -47.5 1t-39.5 2q-9 1 -17 5.5t-9 17.5q-9 80 -12 158.5t-3 152.5q0 112 7.5 214t21.5 193q1 12 9 17.5t19 6.5q21 2 61.5 3.5t83.5 1.5q81 0 138 -12t90 -45q18 -18 27.5 -43t9.5 -57q0 -53 -23.5 -92t-58.5 -67q-6 -5 -9.5 -9.5t-3.5 -8.5t2.5 -7t6.5 -7
q59 -42 86.5 -90.5t27.5 -108.5q0 -120 -84 -173t-283 -53zM182 417q53 0 101.5 14.5t85 39.5t58 59.5t21.5 73.5q0 54 -44 73.5t-110 19.5q-38 0 -69 -3t-43 -16q-6 -7 -10 -31t-6.5 -57t-3.5 -70.5t-1 -70.5q0 -15 4 -23.5t17 -8.5zM278 81q41 0 78 7.5t64 24t43 43.5
t16 66q0 31 -12 58.5t-30.5 48t-41 33t-44.5 12.5q-19 0 -57.5 -9.5t-81.5 -27.5q-36 -14 -46 -29.5t-10 -49.5q0 -54 4.5 -95t20.5 -60q12 -13 29.5 -17.5t67.5 -4.5z" />
    <glyph glyph-name="C" unicode="C" horiz-adv-x="555" 
d="M293 -15q-124 0 -189.5 85.5t-65.5 245.5q0 100 17.5 185.5t51.5 147t84.5 96.5t115.5 35q59 0 99 -26.5t64.5 -68t35.5 -92.5t11 -100q0 -14 -7 -26.5t-23 -21.5q-4 -4 -21.5 -9t-24.5 -5t-10.5 4.5t-3.5 12.5q0 7 0.5 15.5t0.5 14.5q0 37 -6 75.5t-20 70t-38 52
t-60 20.5q-40 0 -72.5 -27.5t-55 -76t-34.5 -115.5t-12 -145q0 -119 40.5 -187.5t133.5 -68.5q76 0 122 48t62 128q1 6 5 9.5t8 3.5q13 0 21.5 -15.5t8.5 -50.5q0 -40 -13 -79t-41 -68.5t-73.5 -48t-110.5 -18.5z" />
    <glyph glyph-name="D" unicode="D" horiz-adv-x="627" 
d="M265 -2q-58 0 -93.5 0.5t-48.5 1.5t-19.5 4.5t-10.5 10.5q-5 11 -9.5 32t-8 57t-5.5 90.5t-2 132.5q0 155 11.5 255t22.5 157q2 11 8.5 16.5t14.5 6.5q16 1 36.5 2t39.5 1q187 0 284 -106t97 -333q0 -68 -18 -128.5t-56.5 -104.5t-98.5 -69.5t-144 -25.5zM238 82
q127 0 190 63t63 191q0 176 -71.5 259.5t-187.5 83.5q-8 0 -18.5 -3t-17.5 -10q-11 -11 -18.5 -39.5t-12 -70t-6 -95t-1.5 -113.5q0 -93 4.5 -161.5t26.5 -89.5q10 -10 23 -12.5t26 -2.5z" />
    <glyph glyph-name="E" unicode="E" horiz-adv-x="547" 
d="M311 -3q-57 0 -110.5 1t-94.5 2q-16 1 -25 6t-10 23q-1 37 -2 77t-1 83q0 66 2.5 136.5t8.5 140.5t15.5 138.5t23.5 131.5q3 13 10 19.5t17 7.5q22 2 63 3t87 1q57 0 113 -1t92 -4q10 -1 14.5 -5t4.5 -9q0 -10 -6 -33.5t-12 -37.5q-2 -5 -6 -8t-10 -3q-4 0 -9 2t-11 3
q-26 7 -70 14t-116 7q-33 0 -48.5 -5t-24.5 -15q-9 -11 -16 -34.5t-11 -54t-6.5 -64t-2.5 -63.5q0 -19 6 -26.5t22 -7.5q27 0 67.5 9t98.5 9q35 0 61 -7.5t26 -23.5q0 -10 -3.5 -25t-7.5 -27q-4 -9 -8 -11.5t-10 -2.5q-11 0 -45 9.5t-78 9.5q-77 0 -110 -26.5t-33 -103.5
q0 -54 3 -85.5t11 -47.5t23 -20.5t40 -4.5q75 0 140 6.5t105 19.5q7 2 12 3.5t9 1.5q5 0 9 -3t7 -10q4 -11 7 -35t3 -34t-6.5 -15.5t-18.5 -6.5q-44 -2 -92.5 -2.5t-96.5 -1.5z" />
    <glyph glyph-name="F" unicode="F" horiz-adv-x="461" 
d="M139 -2q-6 0 -12 0.5t-8 1.5q-7 1 -16 5.5t-13 18.5q-4 16 -8 46.5t-7 71t-5 89.5t-2 103q0 50 2 103t6.5 105.5t12 103t17.5 95.5q2 10 9.5 15t15.5 6q34 2 76.5 3t85.5 1q41 0 79.5 -1.5t65.5 -2.5q13 -1 16.5 -7t3.5 -13q0 -15 -3.5 -33t-9.5 -32q-2 -5 -6 -7t-8 -2
t-8.5 0.5t-8.5 1.5q-16 4 -49.5 9.5t-85.5 5.5q-40 0 -59.5 -4t-29.5 -14q-9 -9 -14.5 -34t-9.5 -59.5t-5.5 -75.5t-1.5 -81q0 -31 9 -42t36 -11q39 0 91 10t113 10q10 0 18 -4t8 -14q0 -15 -3 -35.5t-9 -34.5q-3 -7 -7.5 -10t-11.5 -3q-19 0 -61.5 3.5t-102.5 3.5
q-42 0 -62.5 -12t-20.5 -46q0 -27 5 -61.5t11.5 -65.5t11.5 -54.5t5 -29.5q0 -10 -7 -15t-20 -6q-3 -1 -10 -1.5t-13 -0.5z" />
    <glyph glyph-name="G" unicode="G" horiz-adv-x="629" 
d="M342 693q-40 0 -76 -26.5t-63.5 -75t-43.5 -119t-16 -157.5q0 -134 52.5 -188t136.5 -54q76 0 113.5 34t37.5 104q0 39 -14.5 57t-61.5 18q-12 0 -18 6t-6 16q0 19 7.5 25.5t47.5 13.5q54 10 74 18.5t35 8.5q8 0 14 -5t6 -15q0 -38 1.5 -79t1.5 -84q0 -93 -61 -148
t-181 -55q-141 0 -209 83t-68 226q0 99 20 187t57.5 152.5t92.5 102.5t123 38q46 0 82.5 -17t60.5 -43.5t37 -59t13 -61.5q0 -16 -6.5 -27t-16.5 -21t-24.5 -19.5t-22.5 -9.5q-7 0 -11.5 4.5t-4.5 11.5t0.5 12.5t0.5 10.5q0 20 -6 44t-19.5 44t-34.5 33.5t-50 13.5z" />
    <glyph glyph-name="H" unicode="H" horiz-adv-x="666" 
d="M140 -1q-7 0 -15.5 1.5t-16.5 2.5q-8 2 -13 7t-7 20q-3 14 -6.5 43.5t-6.5 68.5t-5 86.5t-2 98.5q0 169 13.5 273.5t22.5 136.5q4 13 8 18t11 7t16.5 3t17.5 1q9 0 18 -1t13 -2q5 -2 7.5 -6.5t2.5 -12.5q0 -9 -6 -42.5t-13 -79t-13 -98.5t-6 -101q0 -10 5.5 -14t13.5 -4
q22 0 61 10t105 10q65 0 99.5 -11.5t47.5 -11.5q8 0 11.5 5.5t3.5 18.5q0 59 -4.5 111.5t-10 94t-10 71t-4.5 42.5q0 7 2.5 11.5t9.5 6.5q6 1 12.5 2t12.5 1q7 0 14 -0.5t15 -1.5q10 -1 15 -7t8 -19q9 -31 20 -136.5t11 -274.5q0 -51 -2 -98.5t-5 -86.5t-6.5 -68.5
t-6.5 -43.5q-4 -16 -9.5 -22.5t-16.5 -7.5q-7 -1 -14 -1.5t-13 -0.5t-13 0.5t-15 1.5t-12.5 5t-4.5 14q0 11 3.5 39.5t7.5 63.5t7.5 71.5t3.5 61.5q0 44 -38 69t-113 25q-111 0 -151.5 -27.5t-40.5 -76.5q0 -34 4 -70.5t8 -68t8 -55t4 -32.5q0 -10 -3.5 -14t-10.5 -5
q-8 -1 -15 -1h-14z" />
    <glyph glyph-name="I" unicode="I" horiz-adv-x="243" 
d="M169 1q-7 -1 -15 -1.5t-16 -0.5q-7 0 -15 0.5t-15 1.5t-11.5 4.5t-6.5 11.5q-4 15 -7.5 47.5t-6 75t-4 91.5t-1.5 96q0 169 12 274t19 137q2 13 7.5 18.5t15.5 7.5q5 1 12 1.5t14 0.5t15.5 -0.5t15.5 -1.5q6 -1 8.5 -4.5t2.5 -10.5q0 -10 -5.5 -38.5t-11.5 -75
t-11.5 -113t-5.5 -151.5q0 -71 3.5 -132.5t8 -108t8 -76t3.5 -36.5q0 -9 -3 -12.5t-10 -4.5z" />
    <glyph glyph-name="J" unicode="J" horiz-adv-x="335" 
d="M108 -15q-35 0 -61.5 11.5t-38.5 25.5q-4 4 -5.5 8.5t-1.5 9.5q0 9 7 28.5t14 35.5q3 5 7.5 7.5t8.5 2.5q6 0 10 -5t11 -13q6 -7 16.5 -12.5t23.5 -5.5q44 0 62 68t18 177q0 89 -4.5 163t-10.5 128t-10.5 86.5t-4.5 39.5q0 14 4.5 19t12.5 6q5 1 12 1h14q8 0 16 -0.5
t15 -1.5q10 -1 16.5 -5.5t9.5 -16.5q5 -19 9 -72.5t6.5 -116t4 -122.5t1.5 -93q0 -101 -11.5 -169.5t-32.5 -109t-51 -57.5t-67 -17z" />
    <glyph glyph-name="K" unicode="K" horiz-adv-x="626" 
d="M135 -1h-13t-10 1q-15 1 -23.5 9t-10.5 30q-4 50 -6.5 106.5t-2.5 113.5q0 67 2.5 135t7 129t9.5 114.5t11 92.5q2 20 7.5 26t17.5 8q4 1 12.5 1.5t16.5 0.5q7 0 14.5 -0.5t13.5 -1.5q12 -1 17 -6.5t5 -20.5q0 -14 -6.5 -48t-14.5 -79t-14.5 -98.5t-6.5 -106.5
q0 -7 2.5 -10.5t6.5 -3.5t8 1.5t11 4.5q99 41 166 134.5t91 213.5q1 10 6 14t12 5t17.5 1.5t20.5 0.5q7 0 14 -0.5t11 -1.5q9 -1 13 -6t4 -14q0 -30 -14.5 -73.5t-39.5 -89t-59.5 -90.5t-72.5 -78q-5 -4 -7.5 -8t-2.5 -8t2.5 -8t7.5 -6q38 -20 72.5 -57t61 -84t42.5 -101.5
t16 -108.5q0 -15 -5.5 -22.5t-15.5 -8.5q-5 -1 -12.5 -1.5t-14.5 -0.5t-13.5 1t-13.5 2q-13 3 -18 9t-6 20q-20 158 -79.5 232.5t-128.5 74.5q-27 0 -54.5 -19.5t-27.5 -73.5q0 -30 3.5 -63t7 -63.5t7 -55.5t3.5 -38q0 -12 -5 -18t-14 -7q-5 -1 -12.5 -1h-15.5z" />
    <glyph glyph-name="L" unicode="L" horiz-adv-x="411" 
d="M373 112q4 0 8 -3t6 -8q5 -10 9.5 -35t4.5 -36q0 -13 -8 -21t-24 -9q-21 -1 -45.5 -2t-49.5 -1q-47 0 -91.5 1t-75.5 2q-16 1 -25 6t-10 23q-1 29 -2 61.5t-1 66.5q0 69 2.5 145t8 152t14 151t20.5 141q1 8 5.5 12.5t11.5 5.5q5 1 15 1.5t21 0.5q7 0 14.5 -0.5t11.5 -1.5
q11 -1 15 -6t4 -12q0 -8 -9 -61.5t-19 -135t-19 -184.5t-9 -210q0 -49 10.5 -62.5t39.5 -13.5q36 0 75 7.5t73 20.5q9 3 13 4t6 1z" />
    <glyph glyph-name="M" unicode="M" horiz-adv-x="825" 
d="M198 16q0 -7 -5 -10.5t-13 -4.5q-6 -1 -13 -1.5t-19 -0.5q-9 0 -17.5 0.5t-15.5 1.5q-8 1 -13 5.5t-6 11.5q-14 75 -21 156t-7 168q0 93 8 194.5t23 206.5q1 12 7 16t11 5q7 1 16 1.5t19 0.5q13 0 24 -1t19 -2q9 -3 15.5 -8t10.5 -15q45 -83 88.5 -181.5t92.5 -223.5
q2 -5 4.5 -7.5t6.5 -2.5t7 3t4 7q49 121 91.5 220.5t82.5 180.5q4 10 11.5 17.5t18.5 9.5q7 1 16 1.5t18 0.5q7 0 14.5 -0.5t16.5 -1.5t15.5 -6.5t8.5 -17.5q17 -87 28.5 -180.5t11.5 -193.5q0 -81 -6 -166t-18 -174q-1 -12 -8 -18t-16 -7q-6 -1 -18.5 -1.5t-24.5 -0.5
q-7 0 -13.5 0.5t-10.5 1.5q-8 1 -13 5t-5 11q0 9 6.5 45.5t13.5 92.5t13.5 128.5t6.5 152.5q0 50 -3 104t-10 98q-1 4 -3 6t-5 2t-5.5 -1.5t-3.5 -4.5q-45 -113 -91 -229.5t-106 -218.5q-4 -7 -10 -11.5t-12 -4.5t-12.5 4t-11.5 12q-31 53 -62 114t-58 120.5t-49.5 114.5
t-37.5 95q-1 4 -3.5 5.5t-5.5 1.5q-4 0 -6 -2.5t-3 -6.5q-4 -46 -7 -104t-3 -121q0 -97 6.5 -166.5t14.5 -116t14.5 -72.5t6.5 -37z" />
    <glyph glyph-name="N" unicode="N" horiz-adv-x="679" 
d="M141 -2q-7 0 -14 0.5t-12 1.5q-11 1 -18 6t-8 15q-11 76 -16 164.5t-5 173.5q0 65 2.5 126t6.5 111t10 87.5t12 56.5q4 10 11 16.5t17 7.5q6 1 13 1.5t13 0.5q7 0 14.5 -0.5t12.5 -1.5q7 -1 13.5 -5t12.5 -12q26 -35 63.5 -96t79.5 -139.5t84.5 -172t78.5 -193.5
q1 -4 4 -6t7 -2t7 4t3 11q0 127 -6.5 230.5t-14.5 179t-14.5 122.5t-6.5 62q0 7 4.5 12t11.5 6q5 1 12 1.5t14 0.5q8 0 16 -0.5t14 -1.5q10 -1 17 -6t9 -17q6 -33 10 -75.5t6.5 -90t4 -99t1.5 -103.5q0 -96 -4.5 -188t-12.5 -157q-2 -15 -9 -21.5t-23 -7.5q-4 -1 -11 -1h-14
h-14t-11 1q-13 2 -19 7t-12 19q-38 86 -77 169t-76.5 159.5t-73 145.5t-67.5 127q-4 7 -7.5 10t-6.5 3q-5 0 -8.5 -5t-4.5 -13q-5 -124 -1 -231.5t10.5 -187t12.5 -128.5t6 -56q0 -10 -6.5 -14t-17.5 -5q-4 -1 -10 -1.5t-13 -0.5z" />
    <glyph glyph-name="O" unicode="O" 
d="M572 298q0 -67 -13 -124.5t-44 -99t-82 -65.5t-126 -24q-76 0 -128 24t-83 65.5t-44.5 99t-13.5 123.5q0 91 17 178.5t50.5 154.5t84 108t115.5 41t115.5 -41t84 -108t50.5 -154t17 -178zM306 73q85 0 130.5 55.5t45.5 180.5q0 73 -13 142.5t-36 123t-56 86t-72 32.5
q-41 0 -74 -33.5t-56 -87.5t-35 -122.5t-12 -137.5q0 -128 46.5 -183.5t131.5 -55.5z" />
    <glyph glyph-name="P" unicode="P" horiz-adv-x="540" 
d="M181 271q17 0 42 5t53 16t56.5 28t52.5 41q29 29 45 70.5t16 89.5q0 75 -36.5 124.5t-142.5 49.5q-37 0 -51.5 -3.5t-23.5 -12.5q-12 -12 -19.5 -44.5t-12 -76.5t-6 -97t-1.5 -105q0 -43 4.5 -64t23.5 -21zM143 -1h-12.5t-11.5 1q-10 1 -18.5 5t-10.5 20q-9 58 -15.5 141
t-6.5 176q0 97 8.5 201t29.5 200q2 9 8.5 14.5t17.5 6.5q21 1 51 2t61 1q82 0 139.5 -17.5t92.5 -52.5q29 -29 44 -74t15 -102q0 -126 -70 -194t-195 -110q-35 -12 -55.5 -20t-31.5 -16t-14 -17.5t-3 -23.5q0 -16 3 -34.5t7 -36t7 -31.5t3 -20q0 -9 -5 -13t-13 -5
q-4 -1 -11 -1h-14z" />
    <glyph glyph-name="Q" unicode="Q" horiz-adv-x="616" 
d="M606 18q0 -16 -7.5 -31t-22.5 -15q-6 0 -11.5 3t-12.5 8q-14 11 -28.5 22t-28.5 22q-4 3 -7 4.5t-7 1.5t-7.5 -2t-7.5 -5q-30 -19 -69 -30t-90 -11q-76 0 -128 24t-83 65.5t-44.5 99t-13.5 123.5q0 91 17 178.5t50.5 154.5t84 108t115.5 41t115.5 -41t84 -108t50.5 -154
t17 -178q0 -50 -7.5 -95t-23.5 -82q-1 -4 -2 -7.5t-1 -6.5q0 -5 2 -9t6 -7q39 -31 49.5 -45t10.5 -28zM482 309q0 73 -13 142.5t-36 123t-56 86t-72 32.5q-41 0 -74 -33.5t-56 -87.5t-35 -122.5t-12 -137.5q0 -131 46.5 -188t131.5 -57q37 0 68 10.5t31 22.5q0 8 -12 23
t-27 35t-27 43.5t-12 49.5q0 8 4.5 13t11.5 5q8 0 22 -16t29.5 -34.5t31 -34.5t25.5 -16q9 0 15 13t9.5 33t5 45.5t1.5 49.5z" />
    <glyph glyph-name="R" unicode="R" horiz-adv-x="622" 
d="M102 739q1 10 8 15t17 6q12 2 35.5 3.5t50 3t51 2.5t37.5 1q56 0 103.5 -10.5t82 -34t54 -63.5t19.5 -98q0 -79 -45 -141t-117 -105q-4 -2 -5.5 -5t-1.5 -6t1.5 -6t5.5 -4q45 -22 81 -55t60.5 -70.5t37.5 -76t13 -71.5q0 -11 -6.5 -17t-17.5 -7q-4 -1 -11 -1h-15h-15
t-15 1q-13 1 -18.5 6t-6.5 15q-7 59 -29 103t-52.5 73.5t-67 44.5t-73.5 15q-52 0 -75 -19t-23 -65q0 -15 3 -39t6.5 -48t6.5 -43.5t3 -24.5q0 -8 -5 -12t-14 -5q-5 0 -12 -0.5t-14 -0.5t-14.5 0.5t-14.5 0.5q-10 1 -19 5t-10 19q-6 54 -9.5 120t-3.5 138q0 103 8 219.5
t26 236.5zM156 356q0 -20 6 -26.5t19 -6.5q49 0 100 19t93 51.5t69 77t27 94.5q0 72 -48.5 104t-126.5 32q-34 0 -60.5 -4.5t-36.5 -14.5t-17.5 -43t-13 -79t-8.5 -100t-3 -104z" />
    <glyph glyph-name="S" unicode="S" horiz-adv-x="557" 
d="M426 623q-23 34 -62 52.5t-78 18.5q-67 0 -101.5 -33.5t-34.5 -84.5q0 -56 35.5 -88.5t114.5 -62.5q96 -35 158 -85t62 -143q0 -43 -14 -80.5t-44 -65.5t-77 -44.5t-113 -16.5q-54 0 -97 14.5t-72.5 39.5t-45 58.5t-15.5 70.5q0 20 3.5 36t10.5 30q2 4 5 6.5t7 2.5
q5 0 8.5 -3t4.5 -8q19 -73 70.5 -117t124.5 -44q65 0 109 27.5t44 86.5q0 52 -39 86t-108 58q-99 36 -159.5 86t-60.5 150q0 42 14 80t42 66.5t71 45.5t100 17q56 0 106.5 -16t82.5 -41q7 -4 10.5 -10t3.5 -13q0 -13 -12 -35.5t-25 -38.5q-3 -4 -7 -6.5t-9 -2.5
q-3 0 -6.5 1.5t-6.5 5.5z" />
    <glyph glyph-name="T" unicode="T" horiz-adv-x="504" 
d="M253 -2q-10 0 -18.5 0.5t-18.5 3.5q-8 2 -14 7.5t-7 19.5q-5 49 -8 102.5t-3 107.5q0 101 4 173.5t9.5 123t9.5 84.5t4 59q0 9 -4 13t-14 4q-31 0 -58 -6.5t-48.5 -15t-37 -15t-22.5 -6.5q-6 0 -10 4t-4 14q0 11 3 28t5 24q3 12 9.5 18.5t17.5 10.5q22 7 77 15t126 8
q81 0 136 -9t89 -26q13 -7 17 -15t4 -18q0 -9 -3 -20.5t-9 -24.5q-4 -7 -8 -11t-10 -4q-10 0 -23 7.5t-30.5 16.5t-39.5 16.5t-49 7.5q-13 0 -19.5 -5.5t-8.5 -21.5q-9 -63 -14 -139.5t-5 -157.5q0 -62 4 -121t8 -106.5t8 -79t4 -38.5q-1 -9 -4 -14.5t-10 -8.5
q-6 -2 -14 -3.5t-21 -1.5z" />
    <glyph glyph-name="U" unicode="U" horiz-adv-x="600" 
d="M438 762q7 1 13 2t12 1q8 0 15 -0.5t14 -1.5t12 -5t8 -11q10 -28 22 -135t12 -275q0 -78 -11.5 -142t-40 -109.5t-76 -70.5t-119.5 -25q-122 0 -183.5 86t-61.5 260q0 76 5 143.5t11.5 120.5t13.5 90t11 54q2 9 7.5 13.5t11.5 5.5q7 1 14.5 1h14.5h15t16 -1q7 -1 12 -6
t4 -14q-1 -17 -8.5 -53t-15 -87t-14 -116.5t-6.5 -139.5q0 -151 40.5 -213.5t115.5 -62.5q81 0 117 62.5t36 213.5q0 166 -14 264t-17 130q-1 9 1.5 14t12.5 7z" />
    <glyph glyph-name="V" unicode="V" horiz-adv-x="614" 
d="M444 764q8 1 14.5 1.5t11.5 0.5t15 -1t17 -2q10 -2 16 -8t10 -23q13 -51 19 -105t6 -108q0 -81 -14 -160t-41.5 -148.5t-69 -126.5t-96.5 -94q-4 -3 -9 -4.5t-11 -1.5q-4 0 -10 1.5t-10 4.5q-56 34 -99 88.5t-72 121.5t-43.5 144.5t-14.5 158.5q0 60 8 121t24 119
q3 10 8 14.5t18 6.5q5 1 11 1h12q7 0 15.5 -0.5t17.5 -1.5t13.5 -5t4.5 -11t-5.5 -25.5t-11.5 -49.5t-11.5 -76t-5.5 -104q0 -52 7.5 -108t24 -108t42.5 -99t63 -81q4 -4 8 -6t8 -2q3 0 6.5 2t7.5 6q60 68 94 175.5t34 246.5q0 111 -14.5 162t-14.5 68q0 8 5 11.5t12 4.5z
" />
    <glyph glyph-name="W" unicode="W" horiz-adv-x="835" 
d="M555 -13q-13 11 -31 32.5t-36.5 50t-35 63t-27.5 69.5q-2 7 -4 11.5t-6 4.5t-6.5 -4.5t-4.5 -11.5q-11 -31 -27.5 -64.5t-34 -63t-35 -52.5t-30.5 -34q-6 -5 -11.5 -7.5t-11.5 -2.5t-13 2.5t-15 8.5q-84 69 -138 204.5t-54 316.5q0 70 3 125.5t10 109.5q1 10 8.5 15
t15.5 6q6 1 12 1h11h11.5t9.5 -1q13 -1 18.5 -7t5.5 -16q0 -5 -2.5 -27.5t-5 -58t-5 -81.5t-2.5 -97q0 -68 10.5 -126.5t27 -105.5t37 -83t41.5 -61q4 -4 7.5 -7t6.5 -3t5.5 3t5.5 7q31 52 52.5 95.5t34 86t18 90t5.5 107.5q0 104 -3.5 176t-3.5 87q0 10 4 14.5t15 5.5
q7 1 15.5 1.5t15.5 0.5q8 0 15.5 -0.5t13.5 -1.5q12 -1 16.5 -6.5t4.5 -15.5q0 -15 -4 -75.5t-4 -185.5q0 -60 6 -107.5t18.5 -90.5t32 -86.5t47.5 -96.5q3 -5 6 -7.5t6 -2.5q4 0 7 3l7 7q18 22 39.5 59t40 84.5t31 107t12.5 126.5q0 51 -3 96.5t-6 80.5t-6 58.5t-3 30.5
q0 9 4.5 13.5t15.5 5.5q4 1 9.5 1h10.5h13.5t11.5 -1q11 -1 18 -8.5t8 -24.5q7 -52 10.5 -104.5t3.5 -114.5q0 -187 -54.5 -320.5t-141.5 -203.5q-6 -4 -12 -6.5t-12 -2.5q-7 0 -13 2.5t-12 6.5z" />
    <glyph glyph-name="X" unicode="X" horiz-adv-x="633" 
d="M578 27q0 -14 -6.5 -20t-21.5 -7q-10 -1 -13 -1h-5h-7.5t-19.5 1q-13 1 -18.5 6.5t-6.5 15.5q-10 95 -50.5 173.5t-84.5 119.5q-7 7 -13.5 11t-13.5 4q-6 0 -13 -4t-16 -12q-22 -20 -44.5 -49t-41.5 -65.5t-32.5 -81t-16.5 -95.5q-1 -13 -8 -17t-15 -5q-5 -1 -11 -1h-12
h-15.5t-14.5 1q-12 1 -17 5t-5 17q0 62 17 113t44 93.5t60 78.5t65 68q3 3 4.5 6t1.5 5t-1.5 4.5t-4.5 5.5q-35 36 -66.5 71.5t-55.5 75.5t-38.5 88t-14.5 108q0 12 5 18t14 7q7 1 14.5 1.5t14.5 0.5q8 0 15.5 -0.5t13.5 -1.5q11 -1 16 -7.5t5 -16.5q0 -47 12 -91t31 -81.5
t44.5 -67.5t52.5 -50q4 -3 7.5 -4.5t7.5 -1.5t7.5 1.5t7.5 4.5q27 19 53 50t47 69t33.5 81.5t12.5 87.5q0 10 6 16.5t17 7.5q6 1 12 1h12h15.5t13.5 -1q16 -1 22 -9t6 -23q0 -100 -52.5 -176t-136.5 -152q-4 -4 -6.5 -7t-2.5 -7q0 -2 1.5 -5t5.5 -7q28 -27 60.5 -60.5
t59.5 -75.5t45.5 -95t18.5 -119z" />
    <glyph glyph-name="Y" unicode="Y" horiz-adv-x="582" 
d="M272 -1h-17.5t-17.5 1q-20 1 -25.5 14.5t-5.5 38.5q0 67 17.5 109.5t27.5 70.5q2 5 3 10.5t1 9.5q0 9 -6.5 18t-17.5 20q-21 21 -53 52t-62.5 81.5t-52 127t-21.5 185.5q0 15 4 21t16 7q6 1 12.5 1.5t13.5 0.5t14 -0.5t14 -1.5q16 -2 19.5 -9.5t3.5 -21.5q0 -7 -1 -25.5
t-1 -39.5q0 -60 13 -109t32.5 -86t42 -63t41.5 -42q9 -7 16 -11t14 -4q6 0 12 2.5t12 8.5q20 21 42.5 59.5t41.5 85t31.5 97.5t12.5 97q0 13 -0.5 24t-0.5 17q0 11 5 15t13 5q4 1 9.5 1h11.5q9 0 18 -0.5t16 -1.5q12 -1 16 -7.5t4 -21.5q0 -63 -11.5 -115.5t-30 -97.5
t-42 -84.5t-46.5 -76.5q-37 -60 -66.5 -121.5t-29.5 -136.5q0 -25 3 -47t3 -32q0 -11 -6.5 -17t-16.5 -7q-6 -1 -12.5 -1h-12.5z" />
    <glyph glyph-name="Z" unicode="Z" horiz-adv-x="532" 
d="M258 -2q-57 0 -111.5 0.5t-94.5 1.5q-19 0 -26 10t-7 28q0 85 48.5 172t143.5 203q56 69 93.5 116t59 76t30 45t8.5 24q0 7 -4 11t-14 4q-76 0 -128 -5t-86.5 -11t-55.5 -11t-35 -5q-4 0 -8 2.5t-7 8.5q-4 19 -7.5 39.5t-3.5 33.5q0 12 7.5 17.5t24.5 6.5q31 1 74 1.5
t89 0.5q63 0 126 -1t103 -3q19 -1 24 -6t5 -23q0 -67 -58 -151.5t-148 -196.5q-104 -131 -140 -194.5t-36 -92.5q0 -8 6.5 -13t18.5 -5q85 0 142 6t93.5 13t57 13t33.5 6q6 0 11 -3t6 -11q4 -19 6 -39t2 -38q0 -16 -7 -21t-22 -6q-43 -2 -99.5 -2.5t-113.5 -0.5z" />
    <glyph glyph-name="bracketleft" unicode="[" horiz-adv-x="266" 
d="M212 14q0 -5 -3.5 -9t-11.5 -5q-13 -1 -26 -1.5t-26 -0.5t-26.5 0.5t-26.5 1.5q-10 1 -16 5.5t-6 15.5q0 37 4 132.5t4 230.5q0 142 -2 237.5t-2 119.5q0 12 5 16.5t14 5.5q14 1 28.5 1.5t28.5 0.5q12 0 23.5 -0.5t22.5 -1.5q7 -1 10 -4.5t3 -7.5q0 -6 -3.5 -10.5
t-13.5 -10.5q-14 -9 -21.5 -21.5t-10.5 -47t-3.5 -101t-0.5 -181.5t1 -180t5 -98t11.5 -44t20.5 -20q10 -7 14 -11.5t4 -11.5z" />
    <glyph glyph-name="backslash" unicode="\" horiz-adv-x="303" 
d="M278 1q-6 -1 -13 -1h-15h-15t-17 1q-13 1 -18 7t-9 19q-20 66 -52.5 186t-62.5 241.5t-52 220.5t-22 124q0 9 4 13t12 5q7 1 13 1h13t14 -0.5t14 -1.5q6 -1 11.5 -5.5t6.5 -15.5q7 -41 28 -144t63 -253q48 -172 82 -264.5t34 -112.5q0 -9 -4.5 -14t-14.5 -6z" />
    <glyph glyph-name="bracketright" unicode="]" horiz-adv-x="266" 
d="M54 751q0 5 3.5 9t11.5 5q13 1 26 1.5t26 0.5t26.5 -0.5t26.5 -1.5q10 -1 16 -5.5t6 -15.5q0 -37 -4 -132.5t-4 -230.5q0 -142 2 -237.5t2 -119.5q0 -12 -5 -16.5t-14 -5.5q-14 -1 -28.5 -1.5t-28.5 -0.5q-12 0 -23.5 0.5t-22.5 1.5q-7 1 -10 4.5t-3 7.5q0 6 3.5 10.5
t13.5 10.5q14 9 21.5 21.5t10.5 47t3.5 101t0.5 181.5t-1 180t-5 98t-11.5 44t-20.5 20q-10 7 -14 11.5t-4 11.5z" />
    <glyph glyph-name="asciicircum" unicode="^" horiz-adv-x="491" 
d="M400 300q-40 45 -66.5 71.5t-44 40t-28 17t-16.5 3.5t-15.5 -3.5t-27 -17t-45.5 -40t-70 -71.5q-7 -7 -12.5 -11.5t-12.5 -4.5q-10 0 -19.5 4t-20.5 10q-7 4 -9.5 9t-2.5 11q0 3 1.5 7t3.5 8q16 26 39.5 59.5t50.5 66.5t55 64t52 53q10 9 18 12t15 3t15.5 -3t18.5 -12
q24 -22 52 -52.5t55 -64t50.5 -66.5t39.5 -59q2 -4 4 -9t2 -9q0 -5 -3 -9.5t-10 -8.5q-13 -6 -21 -10t-20 -4q-8 0 -14 3t-14 13z" />
    <glyph glyph-name="underscore" unicode="_" horiz-adv-x="382" 
d="M363 1q-4 -10 -11 -14.5t-22 -5.5q-11 -1 -30.5 -1.5t-43.5 -0.5q-30 0 -65 0.5t-67 1.5t-58 2t-39 2q-9 1 -14.5 6t-5.5 14q0 8 2.5 20.5t8.5 29.5q4 7 10 11t17 5q15 1 41 1.5t57 0.5q29 0 60.5 -0.5t60 -1t52 -1t36.5 -1.5q11 -1 15 -6t4 -12q0 -11 -2 -24t-6 -26z
" />
    <glyph glyph-name="grave" unicode="`" horiz-adv-x="241" 
d="M241 684q0 3 -2.5 6.5t-8.5 6.5q-49 28 -82 70t-58 102q-3 6 -8 8t-12 2q-10 0 -24 -2t-27 -5q-11 -3 -15 -7.5t-4 -11.5q0 -18 18.5 -48.5t49 -59.5t71 -50t83.5 -21q3 0 6.5 0.5t6.5 1.5q2 1 4 3t2 5z" />
    <glyph glyph-name="a" unicode="a" horiz-adv-x="486" 
d="M249 -1q-109 0 -161 43t-52 125q0 96 75 147.5t201 67.5q18 3 23.5 13t5.5 26q0 55 -27.5 83.5t-85.5 28.5q-39 0 -72 -16.5t-59 -44.5q-4 -4 -7 -5.5t-7 -1.5q-3 0 -6 1.5t-7 5.5q-6 7 -10 17.5t-4 19.5q0 40 50.5 72.5t129.5 32.5q104 0 146 -57.5t42 -161.5
q0 -82 -2.5 -141t-2.5 -96q0 -18 1.5 -38.5t3 -38t3 -30.5t1.5 -16q0 -11 -5 -18t-17 -9q-9 -3 -30 -4.5t-45 -2.5t-46.5 -1.5t-35.5 -0.5zM341 122v152q0 17 -5.5 24.5t-20.5 7.5q-84 0 -138 -34.5t-54 -100.5q0 -54 37 -72.5t117 -18.5q41 0 52.5 11.5t11.5 30.5z" />
    <glyph glyph-name="b" unicode="b" horiz-adv-x="522" 
d="M401 379q0 86 -27.5 121t-73.5 35q-25 0 -48.5 -12t-41.5 -29q-18 -16 -30.5 -33.5t-21 -43t-12.5 -64.5t-4 -98q0 -60 2.5 -95t13 -53t31 -22.5t57.5 -4.5q72 0 113.5 67.5t41.5 231.5zM132 816h10t11 -1q7 -1 12.5 -5.5t5.5 -15.5q0 -10 -2.5 -33t-5.5 -53.5
t-5.5 -67.5t-2.5 -75q0 -7 3 -10.5t7 -3.5q2 0 5 1t5 2q28 18 64.5 39t86.5 21q74 0 119 -55.5t45 -174.5q0 -82 -13.5 -154t-42 -124t-74 -82t-109.5 -30q-18 0 -39.5 2t-41 5t-35.5 7t-25 8q-15 6 -23.5 16t-9.5 22q-9 55 -13 132.5t-4 161.5q0 63 1.5 127.5t4.5 122.5
t7 107t9 80q2 15 7 22t16 8q6 1 13 1h14z" />
    <glyph glyph-name="c" unicode="c" horiz-adv-x="442" 
d="M244 -10q-112 0 -162 72t-50 198q0 93 17 160.5t46.5 110t70 63t86.5 20.5q39 0 68.5 -15t48.5 -40.5t28.5 -60t9.5 -74.5q0 -27 -23 -49.5t-39 -22.5q-8 0 -12.5 4t-5.5 14q-2 31 -5 60.5t-11 52t-23.5 36.5t-42.5 14q-52 0 -87.5 -64.5t-35.5 -183.5q0 -45 6 -84
t20 -68t38 -45.5t60 -16.5q58 0 87.5 35.5t44.5 84.5q1 4 4 7t8 3q3 0 5.5 -1.5t3.5 -3.5q9 -13 13 -29t4 -36q0 -59 -47 -100t-125 -41z" />
    <glyph glyph-name="d" unicode="d" horiz-adv-x="519" 
d="M263 80q37 0 60 7t35 33t16 78t4 141q0 51 -12.5 88t-31.5 61t-42.5 35.5t-45.5 11.5q-57 0 -90 -61t-33 -192q0 -113 37 -157.5t103 -44.5zM260 -6q-60 0 -102.5 20t-69 56t-39 86.5t-12.5 112.5q0 176 52 260.5t136 84.5q41 0 71.5 -17.5t53.5 -32.5q2 -1 5 -2t5 -1
q4 0 7 3.5t3 10.5q0 37 -3.5 72.5t-7 65.5t-7 52t-3.5 32q0 11 4 15t12 5q7 1 13.5 1h13.5h13t12 -1q8 -1 13.5 -6.5t7.5 -22.5q4 -32 8 -81t7 -107t5 -123.5t2 -128.5q0 -85 -4 -164t-14 -135q-1 -10 -7.5 -18.5t-17.5 -13.5q-19 -7 -61 -15t-96 -8z" />
    <glyph glyph-name="e" unicode="e" horiz-adv-x="473" 
d="M432 146q0 -35 -15 -64t-40.5 -49.5t-59.5 -31.5t-72 -11q-116 0 -165 82.5t-49 220.5q0 81 19.5 141t52.5 99.5t79 59t98 19.5q31 0 59 -9t49 -26.5t33.5 -45.5t12.5 -65q0 -66 -32 -102t-76 -57.5t-92 -38t-80 -42.5q-10 -9 -15.5 -20t-5.5 -24q0 -44 28.5 -77
t86.5 -33t93.5 30.5t60.5 94.5q1 3 3 4.5t5 1.5q8 0 15 -14.5t7 -42.5zM349 462q0 33 -19 52t-53 19q-38 0 -68 -17.5t-50 -47.5t-30.5 -70.5t-10.5 -86.5q0 -9 4 -16t11 -7q3 0 5.5 1t5.5 2q25 16 60.5 33t67.5 37t54.5 44.5t22.5 56.5z" />
    <glyph glyph-name="f" unicode="f" horiz-adv-x="301" 
d="M297 816q5 -3 8.5 -9t2.5 -16q-1 -8 -4.5 -24t-5.5 -23q-1 -6 -4.5 -9.5t-7.5 -3.5q-5 0 -15 5t-25 5q-31 0 -47.5 -32t-16.5 -89q0 -10 4 -14.5t14 -4.5q14 0 37 0.5t35 0.5q7 0 11.5 -3t5.5 -12q1 -4 1 -9.5v-9.5q0 -8 -1 -17.5t-3 -18.5q-1 -7 -5.5 -9.5t-9.5 -2.5
q-16 0 -37 2.5t-38 2.5q-12 0 -16 -8t-5 -24q-1 -25 -1.5 -49.5t-0.5 -49.5q0 -84 6 -176t19 -190q1 -9 -1 -16t-8 -9t-17 -4.5t-24 -2.5h-13.5t-11.5 1q-10 1 -17.5 3.5t-8.5 10.5q-2 47 -4 121t-2 152q0 59 1 114.5t3 97.5q1 13 -5 18.5t-17 5.5t-22.5 -0.5t-15.5 -0.5
q-6 0 -8.5 1.5t-3.5 5.5t-1 7.5v7.5q0 11 2 23t4 22q2 8 5.5 11.5t9.5 3.5q10 0 20.5 -1t17.5 -1q9 0 13.5 8t5.5 24q6 88 39.5 142.5t103.5 54.5q22 0 35.5 -4.5t18.5 -7.5z" />
    <glyph glyph-name="g" unicode="g" horiz-adv-x="508" 
d="M140 427q0 -48 33 -78.5t85 -30.5q51 0 86.5 31t35.5 80q0 44 -30.5 76t-87.5 32q-59 0 -90.5 -32.5t-31.5 -77.5zM50 435q0 80 54.5 129.5t152.5 49.5q32 0 54.5 -7t34.5 -7q9 0 16.5 8.5t13.5 20.5q13 26 25.5 39t22.5 13q15 0 34.5 -21.5t19.5 -38.5q-1 -4 -3 -8.5
t-7 -7.5q-17 -9 -30.5 -21t-13.5 -28q0 -9 7 -18.5t15 -22.5t15 -31.5t7 -46.5q0 -84 -50.5 -137t-158.5 -53q-40 0 -67.5 -12t-44.5 -30.5t-24 -40.5t-7 -42q0 -27 12 -37.5t32 -10.5q22 0 44 8.5t46 18t51 18t59 8.5q29 0 52.5 -6.5t37.5 -16.5q10 -7 14 -15.5t4 -19.5
q0 -10 -4.5 -24t-12 -26.5t-16 -21t-16.5 -8.5q-4 0 -8 2t-7 6q-15 19 -33 31.5t-46 12.5q-22 0 -42 -9t-40.5 -19t-44 -19t-53.5 -9q-53 0 -82 29.5t-29 86.5t24.5 96t50.5 64q4 4 6.5 9t2.5 10q0 4 -1.5 7.5t-4.5 6.5q-22 22 -42 55t-20 86z" />
    <glyph glyph-name="h" unicode="h" horiz-adv-x="527" 
d="M160 819h10.5t14.5 -1q6 -1 10.5 -5.5t4.5 -13.5q0 -10 -6 -34t-12.5 -52.5t-12.5 -59t-6 -52.5q0 -12 3.5 -18.5t12.5 -6.5q10 0 23 6t30.5 13t40 13t51.5 6q72 0 111.5 -50t39.5 -178q0 -53 -2.5 -108.5t-6 -104.5t-7 -86.5t-5.5 -54.5q-2 -16 -10 -23.5t-20 -8.5
q-4 -1 -9.5 -1h-11.5h-12t-10 1q-13 1 -18.5 6t-5.5 14t4.5 44t9.5 82t9.5 102t4.5 105q0 108 -21 146t-72 38q-27 0 -52.5 -10.5t-45 -33.5t-31 -60t-11.5 -90q0 -42 2 -93t5 -96.5t5 -80.5t2 -47q0 -13 -5.5 -18.5t-15.5 -6.5q-6 -1 -11.5 -1h-10.5h-14t-13 1
q-10 1 -17 7.5t-8 26.5q-4 63 -6.5 136t-2.5 148q0 64 2 129t7 125t13 114t19 98q4 17 10.5 23.5t17.5 8.5q7 1 14.5 1.5t14.5 0.5z" />
    <glyph glyph-name="i" unicode="i" horiz-adv-x="226" 
d="M161 16q0 -8 -5 -11.5t-12 -4.5t-15 -1.5t-15 -0.5t-14 0.5t-14 1.5q-8 1 -14 4.5t-7 15.5q-4 51 -7 111.5t-3 123.5q0 86 4.5 172t14.5 156q2 13 7.5 17t15.5 5q5 1 10.5 1h11.5h10.5t10.5 -1q8 -1 12.5 -4.5t4.5 -12.5q0 -13 -5.5 -94t-5.5 -227q0 -101 7.5 -167.5
t7.5 -83.5zM120 678q-28 0 -42.5 15.5t-14.5 38.5q0 24 14.5 40t42.5 16q30 0 43.5 -16t13.5 -40q0 -23 -13.5 -38.5t-43.5 -15.5z" />
    <glyph glyph-name="j" unicode="j" horiz-adv-x="266" 
d="M177 604q7 -1 12 -5.5t6 -16.5q7 -65 9 -138t2 -130q0 -92 -6 -154t-21 -99t-40.5 -53t-65.5 -16q-19 0 -34 4t-27 11q-6 4 -8.5 9.5t-2.5 15.5q0 12 2.5 29t4.5 24q1 6 5 9.5t9 3.5q11 0 21.5 -8.5t26.5 -8.5q29 0 41.5 34.5t12.5 130.5q0 46 -2 100.5t-5 102.5t-5 84
t-2 46t2.5 16t11.5 8q7 1 15.5 1.5t15.5 0.5h10.5t11.5 -1zM148 678q-28 0 -42.5 15.5t-14.5 38.5q0 24 14.5 40t42.5 16q30 0 43.5 -16t13.5 -40q0 -23 -13.5 -38.5t-43.5 -15.5z" />
    <glyph glyph-name="k" unicode="k" horiz-adv-x="513" 
d="M171 20q0 -9 -5.5 -14t-14.5 -6q-5 -1 -11.5 -1h-13.5h-13.5t-12.5 1q-10 1 -18.5 6.5t-9.5 22.5q-6 61 -8.5 132t-2.5 146q0 122 7.5 249t23.5 236q2 16 9 20t13 5t12.5 1.5t12.5 0.5q7 0 13.5 -0.5t13.5 -1.5q6 -1 12 -5t6 -14q0 -6 -6.5 -52t-13.5 -109t-13.5 -133
t-6.5 -124q0 -11 4 -17.5t14 -6.5q43 0 79 18.5t62.5 49t42 71.5t17.5 86q1 13 7 17.5t17 5.5q4 1 10 1h12h16.5t11.5 -1q9 -1 15.5 -5.5t6.5 -19.5q0 -38 -17 -75t-40.5 -68t-50 -54.5t-45.5 -35.5q-5 -3 -8 -7t-3 -8t3 -7.5t8 -6.5q33 -17 63 -41t52.5 -57.5t35.5 -79.5
t13 -107q0 -17 -4 -23t-17 -8q-6 -1 -13.5 -1.5t-14.5 -0.5h-10t-12 1q-14 1 -19.5 6.5t-6.5 24.5q-3 122 -54 189.5t-124 67.5q-25 0 -36 -16.5t-11 -42.5q0 -78 11.5 -133.5t11.5 -75.5z" />
    <glyph glyph-name="l" unicode="l" horiz-adv-x="264" 
d="M191 19q0 -10 -5 -14t-14 -5q-4 -1 -9.5 -1h-11.5h-14t-13 1q-10 1 -18.5 6.5t-9.5 22.5q-7 61 -10.5 131.5t-3.5 145.5q0 122 7 249.5t20 236.5q2 16 7.5 20t15.5 5q6 1 10.5 1h10.5h11.5t9.5 -1q7 -1 12.5 -5.5t5.5 -14.5q0 -13 -9 -114t-9 -282q0 -164 8.5 -262.5
t8.5 -119.5z" />
    <glyph glyph-name="m" unicode="m" horiz-adv-x="805" 
d="M160 24q0 -10 -4 -16t-10 -7q-4 -1 -12 -1.5t-15 -0.5h-12.5t-14.5 1q-10 1 -15 7.5t-6 27.5q-5 60 -9 130.5t-4 152.5q0 56 2.5 119.5t8.5 132.5q1 18 8 24.5t18 8.5q8 1 14.5 1.5t14.5 0.5h10t10 -1q9 -1 13 -5t4 -12q0 -4 -1 -10t-1 -12q0 -5 3 -7.5t8 -2.5q9 0 23 9
t32.5 20.5t42 20.5t52.5 9q25 0 42 -9t29.5 -19.5t22 -19.5t19.5 -9q11 0 25.5 9t33.5 19.5t42.5 19.5t52.5 9q89 0 124 -76t35 -218q0 -122 -7.5 -195t-13.5 -98q-4 -15 -12.5 -20.5t-17.5 -6.5q-4 -1 -8.5 -1h-8.5h-10.5t-10.5 1q-14 1 -19.5 8.5t-5.5 18.5q0 22 10 99.5
t10 211.5q0 105 -19.5 151t-72.5 46q-21 0 -42 -7.5t-37.5 -22.5t-27 -37t-10.5 -50q0 -30 1.5 -70t1.5 -79q-1 -57 -4.5 -116.5t-12.5 -116.5q-2 -16 -6.5 -23t-14.5 -8q-7 -1 -13 -1.5t-12 -0.5h-12.5t-10.5 1q-14 1 -17.5 7.5t-3.5 16.5q0 6 3 34.5t6 68.5t6 87t3 88
q0 113 -12 167.5t-64 54.5q-68 0 -101 -59t-33 -174q0 -54 2 -101.5t4.5 -83.5t4.5 -58.5t2 -27.5z" />
    <glyph glyph-name="n" unicode="n" horiz-adv-x="521" 
d="M316 612q74 0 114 -58.5t40 -204.5q0 -50 -2.5 -102t-6 -97t-7.5 -79t-6 -49q-1 -10 -7.5 -15.5t-14.5 -6.5q-4 -1 -9.5 -1h-10.5q-8 0 -16.5 0.5t-15.5 1.5q-9 1 -13 6.5t-4 13.5t3.5 38t7.5 77t7.5 109.5t3.5 135.5q0 71 -16.5 111.5t-70.5 40.5q-28 0 -54.5 -10
t-45.5 -29q-10 -10 -18 -23t-14 -33.5t-9 -52t-3 -78.5q0 -40 2 -86t5 -86.5t5 -70.5t2 -37q0 -13 -5 -19.5t-17 -7.5q-4 -1 -9 -1h-10h-12.5t-11.5 1q-10 1 -17 5.5t-8 20.5q-6 55 -10 124.5t-4 150.5q0 61 2.5 129.5t8.5 140.5q1 19 9 25t19 7q6 1 11 1h10h10.5t12.5 -1
q10 -1 14.5 -6t4.5 -15q0 -7 2 -12t7 -5q7 0 20.5 7.5t32.5 16t43 16t51 7.5z" />
    <glyph glyph-name="o" unicode="o" horiz-adv-x="503" 
d="M251 72q70 0 100 57t30 164q0 115 -34.5 178t-92.5 63q-63 0 -96.5 -63.5t-33.5 -177.5q0 -107 29.5 -164t97.5 -57zM245 -10q-101 0 -156 70t-55 227q0 73 14 133.5t42 103t70 66.5t96 24q113 0 163 -88.5t50 -238.5q0 -157 -61.5 -227t-162.5 -70z" />
    <glyph glyph-name="p" unicode="p" horiz-adv-x="496" 
d="M149 -16q-9 -2 -21 -4t-20 -2q-10 0 -17.5 3.5t-8.5 19.5q-4 26 -8 69t-7.5 91t-5.5 96t-2 84q0 91 5 145t20.5 82.5t46 37t81.5 8.5q76 0 126 -17t79.5 -46.5t41 -70t11.5 -86.5q0 -62 -14.5 -116t-40.5 -93.5t-61 -62.5t-76 -23q-21 0 -40.5 8.5t-35 18.5t-26.5 18.5
t-16 8.5t-8.5 -4.5t-3.5 -11.5q0 -46 8.5 -85.5t8.5 -51.5q0 -8 -4.5 -11.5t-11.5 -4.5zM220 537q-22 0 -37 -7t-24 -25.5t-13 -52t-4 -86.5q0 -56 10 -92t26.5 -57t38 -29.5t45.5 -8.5q31 0 54 17.5t38.5 46.5t23 67.5t7.5 79.5q0 75 -41.5 111t-123.5 36z" />
    <glyph glyph-name="q" unicode="q" horiz-adv-x="488" 
d="M336 -13q-13 2 -18 7t-5 14q0 10 4 28t9.5 38.5t9.5 40.5t4 33q0 7 -2.5 10t-6.5 3q-8 0 -20 -11.5t-28 -25t-38 -25t-50 -11.5t-57.5 19.5t-53.5 55.5t-39.5 89.5t-15.5 120.5q0 50 13 94t42 76.5t77 51.5t117 19q50 0 80 -9t45.5 -38t20 -84.5t4.5 -148.5
q0 -32 -2.5 -75.5t-6.5 -87t-8.5 -82t-7.5 -61.5q-4 -25 -10.5 -34.5t-21.5 -9.5q-7 0 -18 1t-17 2zM348 401q0 72 -17.5 105t-69.5 33q-66 0 -106.5 -43.5t-40.5 -126.5q0 -31 6.5 -66.5t20 -65t34 -49t48.5 -19.5q21 0 43.5 16.5t40.5 47t29.5 73.5t11.5 95z" />
    <glyph glyph-name="r" unicode="r" horiz-adv-x="300" 
d="M176 25q0 -10 -3.5 -16t-13.5 -7q-5 -1 -13 -1.5t-16 -0.5h-14.5t-13.5 1q-10 1 -16.5 7.5t-8.5 19.5q-9 38 -14 112t-5 160q0 129 5.5 191t11.5 85q3 12 8 18.5t11 7.5q5 1 13.5 2t17.5 1h8.5t8.5 -1q8 -1 10.5 -6.5t2.5 -12.5q0 -10 3.5 -14t7.5 -4q3 0 6.5 1.5
t7.5 4.5q26 22 47.5 30.5t39.5 8.5q11 0 16.5 -6.5t5.5 -25.5q0 -15 -1 -26t-2 -18q-2 -13 -7 -16.5t-11 -3.5q-13 0 -34 2t-40 2q-10 0 -20 -6t-18 -23.5t-12.5 -48.5t-4.5 -81q0 -67 6 -125.5t12.5 -102.5t12.5 -72.5t6 -35.5z" />
    <glyph glyph-name="s" unicode="s" horiz-adv-x="426" 
d="M74 198q10 -51 42.5 -88t100.5 -37q51 0 75 21t24 57q0 34 -22 60t-88 58q-77 37 -117 75.5t-40 105.5q0 70 49 117t137 47q39 0 75 -10t58 -25q10 -6 14.5 -12t4.5 -16t-12.5 -32.5t-22.5 -33.5q-3 -4 -6.5 -6t-7.5 -2t-7 2t-7 6q-19 22 -42.5 33.5t-59.5 11.5
q-41 0 -65 -20t-24 -51q0 -36 25 -57.5t89 -54.5q75 -38 116 -78t41 -115q0 -78 -50 -121t-140 -43q-46 0 -80 12t-57 31.5t-34.5 45.5t-11.5 54q0 21 4.5 39t11.5 28q3 4 7 7t8 3t7.5 -3t4.5 -9z" />
    <glyph glyph-name="t" unicode="t" horiz-adv-x="305" 
d="M211 750q7 0 10 -4t3 -9q0 -6 -5.5 -20t-11.5 -31.5t-11.5 -36.5t-5.5 -35q0 -7 3.5 -10t13.5 -3q12 0 36 1.5t42 1.5q7 0 11 -4t5 -13q1 -5 1 -10.5v-9.5q0 -8 -1 -16t-2 -15t-5.5 -9.5t-9.5 -2.5q-16 0 -37 3t-42 3q-11 0 -15.5 -8t-5.5 -21q-2 -21 -3.5 -49.5
t-1.5 -61.5q0 -41 2.5 -87t6.5 -92t10.5 -91t13.5 -84q1 -4 1.5 -7.5t0.5 -5.5q0 -5 -2.5 -9t-7.5 -7q-16 -8 -29 -11.5t-29 -3.5q-10 0 -17 3t-9 11q-17 57 -23 138t-6 159q0 61 2.5 113.5t5.5 81.5q1 14 -3.5 20t-15.5 6q-9 0 -22.5 -0.5t-20.5 -0.5t-10 2.5t-4 11.5v12
q0 7 1.5 15.5t2.5 14.5q3 13 9 18.5t16 5.5q11 0 22 -0.5t18 -0.5q13 0 17.5 13t5.5 41q2 36 7 45t19 19q22 16 42.5 23t27.5 7z" />
    <glyph glyph-name="u" unicode="u" horiz-adv-x="531" 
d="M206 -7q-86 0 -118 70t-32 198q0 42 2 89.5t5 91t6.5 78t6.5 50.5q2 16 8 23.5t18 8.5q5 1 12.5 1.5t14.5 0.5t12.5 -0.5t9.5 -1.5q9 -1 13.5 -6.5t4.5 -14.5t-4 -43t-9 -82t-9 -104.5t-4 -108.5q0 -95 25 -130.5t71 -35.5q29 0 50.5 10t37.5 26q28 25 40.5 70.5
t12.5 124.5q0 107 -11 181t-11 90q0 12 5.5 17t16.5 7q4 1 9.5 1h11.5h10.5t10.5 -1q14 -1 22.5 -7.5t10.5 -27.5q7 -61 11 -131.5t4 -145.5q0 -62 -4 -127.5t-13 -134.5q-1 -14 -7 -20t-14 -7q-5 -1 -11 -1h-12h-16.5t-15.5 1q-8 1 -13 6t-5 17q0 10 -3 14.5t-10 4.5
q-11 0 -25 -8t-31 -17.5t-38 -17.5t-46 -8z" />
    <glyph glyph-name="v" unicode="v" horiz-adv-x="451" 
d="M420 450q0 -78 -10.5 -149t-32 -129.5t-53.5 -103.5t-75 -72q-7 -4 -13 -6.5t-13 -2.5q-6 0 -13 2.5t-14 6.5q-43 27 -74.5 72t-52 102t-30 124.5t-9.5 139.5q0 32 1.5 65t5.5 66q2 19 8.5 28t27.5 10q6 1 12 1h12h10.5t9.5 -1q7 -1 11.5 -5t4.5 -12q0 -16 -6.5 -64.5
t-6.5 -127.5q0 -29 4 -69.5t14 -82.5t28.5 -81.5t46.5 -67.5q4 -4 7 -5.5t6 -1.5t6 1.5t6 5.5q28 35 45.5 77.5t27.5 86.5t14 86t4 75q0 54 -7.5 102t-7.5 61q0 12 5 16.5t13 5.5q4 1 11 1h14h13.5t10.5 -1q21 -1 26.5 -10t7.5 -31q3 -28 4 -56.5t1 -55.5z" />
    <glyph glyph-name="w" unicode="w" horiz-adv-x="722" 
d="M593 474q0 16 -0.5 34.5t-1 34.5t-1 27t-0.5 14q0 10 5.5 14t12.5 5q6 1 14 1.5t16 0.5q7 0 13 -0.5t13 -1.5q13 -1 20 -8.5t8 -25.5q0 -12 0.5 -24t0.5 -23q0 -124 -18.5 -215.5t-44.5 -155t-56.5 -102t-54.5 -58.5q-4 -2 -8 -3.5t-8 -1.5q-5 0 -9.5 1.5t-7.5 3.5
q-36 33 -65 75.5t-52 91.5q-3 5 -6 8t-7 3t-7 -3t-7 -8q-26 -48 -65 -95.5t-72 -71.5l-7 -3.5t-7 -1.5q-3 0 -5.5 1.5t-5.5 3.5q-38 31 -66.5 80t-47 111t-27.5 137t-9 158q0 22 1 46l2 48q1 16 5.5 23.5t19.5 8.5q7 1 15.5 1.5t17.5 0.5q6 0 12.5 -0.5t11.5 -0.5
q9 -1 14 -5.5t5 -14.5q0 -5 -2 -24t-4 -45t-4 -56.5t-2 -56.5q0 -88 16 -168t57 -129q3 -4 6 -6t7 -2q3 0 6 2t6 6q23 32 40.5 58t29.5 59t18 81t6 122q0 17 -1 43.5t-1.5 51.5t-1.5 44t-1 21q0 8 4.5 12t11.5 5t16 2t18 1q10 0 18.5 -1t14.5 -2t11 -4.5t5 -10.5
q0 -3 -1.5 -28t-3 -58.5t-3 -69.5t-1.5 -60q0 -56 5 -94t16 -66t28 -52t42 -53q3 -4 6 -6t6 -2t6 2t6 6q24 33 39.5 76t24 91t12 99.5t3.5 101.5z" />
    <glyph glyph-name="x" unicode="x" horiz-adv-x="456" 
d="M426 22q0 -9 -3.5 -14.5t-14.5 -6.5q-4 0 -10 -0.5t-11 -0.5q-10 0 -19 1t-15 2q-8 1 -13 5.5t-6 15.5q-4 62 -24 115.5t-67 104.5q-3 3 -6 4.5t-5 1.5q-3 0 -5.5 -1.5t-5.5 -4.5q-51 -49 -74.5 -105.5t-24.5 -121.5q0 -8 -5 -12t-12 -5h-25h-15.5t-15.5 1q-11 1 -15 8
t-4 21q1 49 13 88.5t31 70.5t43 56t48 47q3 3 4.5 5.5t1.5 5.5q0 2 -1.5 5t-4.5 6q-49 50 -85.5 114.5t-36.5 131.5q0 19 3.5 29.5t14.5 11.5q6 1 15.5 1.5t19.5 0.5q7 0 12.5 -0.5t9.5 -0.5q6 -1 10.5 -5t4.5 -12q0 -55 20 -117t66 -106q4 -3 6.5 -4.5t4.5 -1.5t4.5 1.5
t5.5 4.5q43 46 65 105t22 113q0 12 5 16.5t13 5.5q5 1 12.5 1.5t15.5 0.5h15t16 -1q10 -1 15 -6t5 -16q0 -84 -35.5 -147.5t-89.5 -118.5q-3 -4 -5 -6.5t-2 -5.5t1 -5.5t4 -4.5q63 -54 95.5 -118.5t33.5 -152.5z" />
    <glyph glyph-name="y" unicode="y" horiz-adv-x="462" 
d="M39 63q2 13 8.5 16t17.5 3q40 0 75.5 6.5t63.5 16.5q34 13 54.5 30t20.5 33q0 4 -3 6.5t-7 3.5q-116 44 -172.5 136.5t-56.5 241.5q0 25 3.5 36t19.5 12q5 1 12.5 1h15.5q7 0 13 -0.5t10 -1.5q7 -1 12 -4.5t5 -16.5q0 -3 -0.5 -14t-0.5 -19q0 -84 19 -141.5t45.5 -92.5
t56.5 -50.5t51 -15.5q8 0 13.5 4.5t9.5 16.5q10 34 16 91.5t6 117.5q0 31 -2.5 63t-2.5 42t6 14t13 5t16 1h17h13.5t11.5 -1q13 -1 16 -10t3 -25q0 -128 -17 -235.5t-59.5 -184.5t-116.5 -120t-187 -43q-12 0 -16 5t-5 14q-1 5 -1 12v12q0 10 1 19t2 16z" />
    <glyph glyph-name="z" unicode="z" horiz-adv-x="406" 
d="M385 25q0 -11 -9.5 -17.5t-28.5 -7.5q-16 -1 -54.5 -1.5t-84.5 -0.5t-92 0.5t-78 1.5q-11 0 -19.5 9t-8.5 28q0 63 38 134t85.5 135t93 114.5t60.5 73.5q4 4 5.5 8t1.5 8q0 5 -3.5 9t-10.5 4q-20 0 -46.5 -1.5t-54.5 -4t-54.5 -6t-46.5 -6.5q-8 -1 -15 -2.5t-13 -1.5
q-5 0 -8.5 3.5t-6.5 14.5q-3 12 -4.5 30t-1.5 32q0 11 5.5 15t15.5 5q37 2 86 3.5t96 1.5q38 0 71.5 -1t55.5 -2q13 -1 19 -4t7 -15q1 -7 1 -14v-14q0 -16 -1 -35t-5 -27q-21 -38 -65.5 -92.5t-90 -111t-80 -109t-34.5 -84.5q0 -10 5 -15t17 -5q76 0 125.5 15t74.5 30
q7 3 12 6t9 3q6 0 10.5 -4.5t6.5 -9.5q8 -22 11.5 -46t3.5 -46z" />
    <glyph glyph-name="braceleft" unicode="{" horiz-adv-x="238" 
d="M68 386q0 8 5.5 15t12.5 13.5t12.5 13.5t5.5 15q0 11 -9.5 29.5t-21.5 43t-21.5 55.5t-9.5 67q0 63 32 102.5t85 39.5q25 0 36.5 -5.5t11.5 -12.5q0 -6 -4 -9.5t-11 -6.5q-37 -12 -52 -40t-15 -67q0 -26 9 -49t19.5 -44t19.5 -42t9 -43q0 -16 -5.5 -26.5t-12.5 -18
t-12.5 -14.5t-5.5 -17q0 -8 6.5 -14.5t13.5 -14.5t13.5 -18.5t6.5 -27.5q0 -18 -11.5 -41.5t-25 -50t-25 -54.5t-11.5 -53q0 -52 26.5 -69t61.5 -20q8 -1 11.5 -5t3.5 -10q0 -7 -14 -14.5t-45 -7.5q-59 0 -95 34.5t-36 90.5q0 35 12 68.5t26 61t26 49t12 33.5q0 9 -5.5 16.5
t-11.5 15t-11.5 15t-5.5 17.5z" />
    <glyph glyph-name="bar" unicode="|" horiz-adv-x="245" 
d="M166 -5q-1 -13 -6.5 -18.5t-15.5 -6.5q-5 -1 -11 -1h-13h-12.5t-12.5 1q-10 1 -17.5 6.5t-7.5 21.5q0 7 3.5 59.5t7 126t7 157t3.5 153.5q0 40 -1 86t-2 88.5t-2 77.5t-1 53q0 10 4.5 15t15.5 6q5 1 9.5 1h8.5h9t9 -1q13 -1 18 -6t6 -17q5 -81 7.5 -175.5t2.5 -195.5
q0 -104 -2.5 -214t-6.5 -217z" />
    <glyph glyph-name="braceright" unicode="}" horiz-adv-x="238" 
d="M170 386q0 8 -5.5 15t-12.5 13.5t-12.5 13.5t-5.5 15q0 11 9.5 29.5t21.5 43t21.5 55.5t9.5 67q0 63 -32 102.5t-85 39.5q-25 0 -36.5 -5.5t-11.5 -12.5q0 -6 4 -9.5t11 -6.5q37 -12 52 -40t15 -67q0 -26 -9 -49t-19.5 -44t-19.5 -42t-9 -43q0 -16 5.5 -26.5t12.5 -18
t12.5 -14.5t5.5 -17q0 -8 -6.5 -14.5t-13.5 -14.5t-13.5 -18.5t-6.5 -27.5q0 -18 11.5 -41.5t25 -50t25 -54.5t11.5 -53q0 -52 -26.5 -69t-61.5 -20q-8 -1 -11.5 -5t-3.5 -10q0 -7 14 -14.5t45 -7.5q59 0 95 34.5t36 90.5q0 35 -12 68.5t-26 61t-26 49t-12 33.5
q0 9 5.5 16.5t11.5 15t11.5 15t5.5 17.5z" />
    <glyph glyph-name="asciitilde" unicode="~" horiz-adv-x="437" 
d="M9 387q0 27 7 54.5t21 49.5t35 36t49 14t56 -11.5t54 -25t50 -25t46 -11.5q25 0 44.5 16t33.5 47q1 4 4 6t6 2q5 0 9.5 -10t4.5 -30q0 -30 -7.5 -60t-21.5 -53.5t-34 -38t-45 -14.5q-28 0 -55.5 15t-54.5 33.5t-54.5 33.5t-55.5 15q-20 0 -35 -12t-34 -40q-2 -4 -5.5 -7
t-6.5 -3q-4 0 -7.5 5t-3.5 14z" />
    <glyph glyph-name="uni00A0" unicode="&#xa0;" horiz-adv-x="500" 
 />
    <glyph glyph-name="exclamdown" unicode="&#xa1;" horiz-adv-x="204" 
d="M101 -10q-10 0 -20 1l-20 2q-9 1 -13 6.5t-4 12.5t5 32t11 81.5t11 154t5 249.5q0 13 5.5 19.5t21.5 8.5q4 1 8 1h7q10 0 14.5 -4.5t5.5 -17.5q10 -69 15 -165t5 -195q0 -40 -1 -79.5t-2 -76.5q-1 -11 -5.5 -19t-20.5 -9q-7 -1 -14 -1.5t-14 -0.5zM106 765q28 0 44 -16.5
t16 -47.5q0 -32 -16 -50t-44 -18t-43.5 18t-15.5 50q0 31 15.5 47.5t43.5 16.5z" />
    <glyph glyph-name="cent" unicode="&#xa2;" horiz-adv-x="466" 
d="M249 -12q-6 0 -12.5 0.5t-11.5 1.5q-12 1 -17.5 6t-5.5 16q0 16 2.5 40.5t2.5 42.5q0 6 -4.5 10t-12.5 6q-75 19 -112.5 81.5t-37.5 161.5q0 134 46.5 214t116.5 102q8 2 11.5 7t3.5 12q0 21 -0.5 39.5t-0.5 29.5q0 10 5 14t15 5q4 1 9.5 1h9.5q8 0 16 -0.5t15 -1.5
q10 -1 14.5 -5t4.5 -12q0 -16 -6.5 -39t-6.5 -36q0 -5 3 -8.5t9 -5.5q60 -22 86.5 -67.5t26.5 -107.5q0 -25 -21.5 -47t-40.5 -22q-7 0 -10 3.5t-4 12.5q-1 29 -4 58t-11.5 51.5t-25.5 36.5t-48 14q-57 0 -91.5 -57.5t-34.5 -161.5q0 -40 6 -76t20.5 -63.5t38.5 -44
t61 -16.5q65 0 94.5 33.5t39.5 77.5q1 4 4 6.5t6 2.5t6 -1.5t4 -3.5q8 -12 11 -26t3 -34q0 -41 -32.5 -78t-87.5 -50q-11 -2 -14 -6t-3 -11q1 -22 5 -47.5t4 -36.5q0 -10 -3.5 -14t-16.5 -5q-5 -1 -11 -1.5t-13 -0.5z" />
    <glyph glyph-name="sterling" unicode="&#xa3;" horiz-adv-x="553" 
d="M475 241q5 0 10.5 -3t9.5 -9q10 -14 15.5 -38t5.5 -55q0 -24 -7 -49t-23 -45t-42.5 -32.5t-64.5 -12.5q-7 0 -29.5 1t-51.5 2.5t-62.5 2.5t-63.5 1q-25 0 -47.5 -2t-42.5 -2q-16 0 -22.5 7t-6.5 17q0 4 1.5 9.5t3.5 10.5q12 22 22 52t17 62.5t11.5 66.5t4.5 64
q0 19 -5 27.5t-18 8.5t-26 -0.5t-21 -0.5q-13 1 -17 4.5t-4 16.5q0 9 2 18t5 16q4 11 12 16t19 5q8 0 16.5 -0.5t17.5 -0.5q10 0 12 7t2 16v93q0 57 10.5 104.5t35 81.5t64.5 53t97 19q65 0 104 -26.5t67 -60.5q6 -7 10 -14.5t4 -13.5q0 -11 -8.5 -22.5t-27.5 -25.5
q-5 -4 -10.5 -6.5t-9.5 -2.5t-8.5 3t-8.5 10q-26 48 -55 67t-61 19q-51 0 -84 -45t-33 -143q0 -38 0.5 -61t2.5 -34.5t7.5 -15t14.5 -3.5q27 0 67.5 5t66.5 5q17 0 23.5 -7.5t7.5 -23.5q0 -9 -0.5 -17t-1.5 -14q-1 -13 -9 -17t-26 -5q-20 0 -45.5 0.5t-64.5 0.5
q-11 0 -22.5 -5.5t-16.5 -23.5q-3 -12 -6.5 -36.5t-6 -53t-4 -56.5t-1.5 -46q0 -10 8 -16.5t25 -6.5q86 0 135.5 4t77.5 28q20 20 24.5 48.5t8.5 63.5q1 7 5.5 11.5t10.5 4.5z" />
    <glyph glyph-name="yen" unicode="&#xa5;" horiz-adv-x="582" 
d="M320 24q0 -11 -6.5 -17t-16.5 -7q-6 -1 -12.5 -1h-12.5h-17.5t-17.5 1q-20 1 -25.5 14.5t-5.5 38.5q0 46 8.5 72t8.5 44q0 7 -4.5 9t-12.5 2q-12 0 -33.5 -1t-44.5 -2t-44 -2t-32 -1q-10 0 -16 6t-6 13t2 16t6 21q4 11 10.5 18t18.5 7q19 0 66.5 -3.5t101.5 -3.5
q9 0 13.5 3t4.5 7q0 13 -19 34t-48 49q-7 7 -16.5 11t-19.5 4q-34 0 -64.5 -1.5t-50.5 -1.5q-13 0 -18 5.5t-5 13.5t1.5 19t5.5 22q4 12 10.5 16.5t19.5 4.5t30 -2.5t27 -2.5q7 0 10.5 2t3.5 6q0 1 -1.5 4t-2.5 6q-24 50 -40 121t-16 169q0 15 6 21t18 7q5 1 11 1h12h13.5
t11.5 -1q16 -1 19.5 -9t3.5 -22q0 -7 -1 -25.5t-1 -39.5q0 -60 11.5 -109t28.5 -86t36.5 -63t36.5 -42q9 -7 16 -11t14 -4q6 0 12.5 2.5t11.5 8.5q14 16 36 49.5t43 77t36 95.5t15 105q0 17 -0.5 31.5t-0.5 21.5q0 11 6 14.5t13 4.5q5 1 10.5 1h10.5h14t14 -1
q12 -1 17.5 -7.5t5.5 -21.5q0 -72 -13.5 -126t-29.5 -91t-29.5 -58.5t-13.5 -29.5q0 -4 4 -6t12 -2q24 0 49 5t43 5q11 0 16 -6t5 -16q0 -7 -1 -16.5t-2 -19.5q-1 -11 -8 -17t-17 -6q-28 0 -59.5 2.5t-65.5 3.5q-10 0 -18.5 -4.5t-14.5 -13.5q-14 -20 -29 -44t-15 -37
q0 -5 4.5 -8t11.5 -3q28 0 57 1t53.5 2t41 2t19.5 1q13 0 18 -8.5t5 -17.5q0 -8 -0.5 -17.5t-3.5 -18.5q-4 -8 -10 -14t-19 -6q-3 0 -20.5 1.5t-43.5 3t-57.5 3t-61.5 1.5q-21 0 -27 -16t-6 -61q0 -25 3 -47t3 -32z" />
    <glyph glyph-name="brokenbar" unicode="&#xa6;" horiz-adv-x="253" 
d="M171 -5q-1 -13 -6.5 -18.5t-15.5 -6.5q-6 -1 -13.5 -1.5t-15.5 -0.5q-7 0 -15 0.5t-15 1.5t-13.5 6t-6.5 19q0 8 4 47t8 92t8 111.5t4 105.5q0 7 4 10.5t11 4.5q6 1 14.5 1h17.5h13.5t11.5 -1q7 -1 12 -5.5t5 -11.5q0 -78 -3.5 -169.5t-8.5 -184.5zM166 440q-5 -1 -12 -1
h-14h-14.5t-14.5 1t-11.5 5t-4.5 11q0 46 -1.5 96.5t-3 96.5t-3 83.5t-1.5 55.5q0 15 4 21.5t17 8.5q4 1 8.5 1h8.5h10t10 -1q10 -1 14.5 -6.5t5.5 -18.5q9 -79 13.5 -166.5t4.5 -170.5q0 -7 -4.5 -11t-11.5 -5z" />
    <glyph glyph-name="section" unicode="&#xa7;" horiz-adv-x="507" 
d="M473 209q0 -101 -61.5 -162.5t-163.5 -61.5q-60 0 -101 16.5t-65.5 40.5t-35 51t-10.5 48q0 12 5.5 19t15.5 7q16 0 33.5 -8t48.5 -8q22 0 31.5 8t9.5 22q0 25 -24 50t-52.5 58t-52.5 78t-24 109q0 57 20 100t54.5 70.5t81.5 41t101 13.5q41 0 80 -5.5t67 -12.5
q14 -4 20 -12t6 -17q0 -3 -1.5 -13t-3.5 -23t-5 -27t-6 -25q-2 -8 -6.5 -11.5t-10.5 -3.5q-10 0 -27.5 4.5t-38.5 4.5q-25 0 -38.5 -13t-13.5 -32q0 -28 26 -53.5t57.5 -59t57.5 -79.5t26 -114zM393 210q0 55 -26 94.5t-57 72.5t-57 65t-26 72q0 31 22.5 58t68.5 35
q10 2 16 9.5t6 14.5t-6 13t-20 6q-97 0 -153.5 -45t-56.5 -125q0 -49 24 -84t52.5 -66.5t52.5 -63.5t24 -75q0 -39 -21.5 -65t-69.5 -26q-7 0 -11.5 -4.5t-4.5 -12.5q0 -9 8.5 -15.5t21.5 -11t28.5 -6.5t28.5 -2q64 0 110 45t46 117z" />
    <glyph glyph-name="dieresis" unicode="&#xa8;" horiz-adv-x="258" 
d="M54 708q-25 0 -39.5 15t-14.5 45t14.5 46.5t39.5 16.5t39.5 -16.5t14.5 -46.5t-14.5 -45t-39.5 -15zM204 708q-25 0 -39.5 15t-14.5 45t14.5 46.5t39.5 16.5t39.5 -16.5t14.5 -46.5t-14.5 -45t-39.5 -15z" />
    <glyph glyph-name="copyright" unicode="&#xa9;" horiz-adv-x="757" 
d="M546 316q0 -66 -44.5 -109.5t-119.5 -43.5q-90 0 -139.5 59t-49.5 179q0 73 15.5 125.5t41.5 86.5t62.5 50t78.5 16q70 0 107 -44.5t37 -111.5q0 -25 -18.5 -46.5t-38.5 -21.5q-8 0 -12.5 3.5t-5.5 12.5q-1 22 -4 46.5t-10.5 45.5t-21.5 35t-37 14q-51 0 -81 -51.5
t-30 -141.5q0 -34 5 -66.5t17.5 -57.5t33.5 -40.5t52 -15.5q29 0 49.5 10.5t35 27.5t24.5 38t17 42q1 4 4.5 6t7.5 2q9 0 16.5 -16.5t7.5 -32.5zM90 420q0 -78 17.5 -143.5t53 -112.5t90 -73.5t127.5 -26.5q72 0 126.5 26.5t90.5 73.5t54 112.5t18 143.5q0 76 -18 140
t-54 109.5t-90.5 71.5t-126.5 26q-73 0 -127.5 -28t-90 -75t-53 -110t-17.5 -134zM378 830q90 0 158 -33t112.5 -90t66.5 -134.5t22 -164.5q0 -86 -22 -163t-66.5 -134.5t-112.5 -91.5t-158 -34t-157.5 34t-112 91.5t-66.5 134.5t-22 163q0 87 22 164.5t66.5 134.5t112 90
t157.5 33z" />
    <glyph glyph-name="ordfeminine" unicode="&#xaa;" horiz-adv-x="342" 
d="M25 456q0 68 51 103t131 45q13 2 18 8t5 16q0 31 -16 47.5t-51 16.5q-27 0 -50.5 -11.5t-42.5 -30.5q-3 -2 -5.5 -3.5t-5.5 -1.5q-1 0 -3.5 1t-4.5 4q-6 6 -10 16t-4 20q0 30 36 52.5t96 22.5q75 0 105.5 -39.5t30.5 -112.5q0 -48 -1.5 -89.5t-1.5 -69.5q0 -27 3 -54.5
t3 -33.5q0 -7 -4 -12.5t-12 -6.5q-7 -1 -22 -2.5t-32.5 -2t-34.5 -1t-28 -0.5q-75 0 -112.5 30t-37.5 89zM230 436v86q0 13 -3 18t-13 5q-49 0 -80.5 -21t-31.5 -61q0 -32 21.5 -44t67.5 -12q25 0 32 8t7 21zM221 178q-46 0 -95.5 2t-77.5 3q-8 1 -12.5 5t-4.5 13
q0 6 1 17.5t5 26.5q3 11 8.5 14t15.5 4q15 1 34.5 1.5t40.5 0.5q40 0 81.5 -1.5t67.5 -2.5q13 -1 17.5 -7.5t4.5 -15.5t-1 -20t-4 -21q-2 -7 -8.5 -12t-18.5 -6q-11 -1 -25 -1h-29z" />
    <glyph glyph-name="guillemotleft" unicode="&#xab;" horiz-adv-x="508" 
d="M332 360q0 -16 11.5 -41.5t29.5 -54.5t40.5 -61.5t43.5 -61.5q13 -19 20 -28t7 -19q0 -7 -5 -11t-14 -4q-4 0 -9 1.5t-9 4.5q-22 19 -48.5 46.5t-54.5 59.5t-56 67t-53 69q-3 4 -4.5 9t-1.5 9q0 6 2 11.5t6 11.5q45 64 102.5 127.5t114.5 118.5q4 4 8 6t8 2q7 0 12 -5
t5 -11q0 -7 -7 -16.5t-12 -16.5q-22 -30 -46 -62.5t-44 -61.5t-33 -52.5t-13 -36.5zM143 344q0 -14 10 -36.5t26 -49.5t36 -56.5t39 -56.5q13 -18 19.5 -29t6.5 -17q0 -7 -4.5 -10.5t-11.5 -3.5q-5 0 -10 1.5t-10 5.5q-22 20 -49.5 49t-55.5 61t-54.5 64t-46.5 58
q-4 5 -6 11t-2 11q0 7 2 13t6 11q45 61 102.5 125t117.5 118q4 4 9 5.5t9 1.5q7 0 12.5 -4t5.5 -10q0 -7 -6.5 -16t-12.5 -17q-22 -28 -45.5 -61.5t-42.5 -65t-31.5 -59t-12.5 -43.5z" />
    <glyph glyph-name="registered" unicode="&#xae;" horiz-adv-x="757" 
d="M376 175q0 -7 -4 -11.5t-14 -5.5q-7 -1 -15 -1.5t-16 -0.5h-11.5t-11.5 1q-9 1 -15 5.5t-8 13.5q-7 31 -12.5 90.5t-5.5 128.5q0 118 5.5 174.5t11.5 77.5q3 11 8 16.5t11 7.5q4 1 15 3t21 2h7.5t5.5 -1q8 -1 12 -7.5t4 -25.5q0 -7 3.5 -11.5t7.5 -4.5q3 0 6.5 2.5
t6.5 6.5q16 22 34 32.5t39 10.5q25 0 41 -19t16 -47q0 -25 -9.5 -43t-19.5 -27q-3 -3 -6.5 -4.5t-6.5 -1.5q-4 0 -7 3.5t-5 7.5q-5 12 -12.5 28.5t-32.5 16.5q-36 0 -53.5 -38.5t-17.5 -125.5q0 -43 4.5 -86t9.5 -78.5t9.5 -59.5t4.5 -29zM100 420q0 -76 17 -140.5
t51.5 -110.5t87 -72t122.5 -26t122.5 26t87 72t52 110.5t17.5 140.5t-17.5 140t-52 109.5t-87 71.5t-122.5 26t-122.5 -28t-87 -75t-51.5 -110t-17 -134zM20 408q0 87 22 164.5t66.5 134.5t112 90t157.5 33t158 -33t112.5 -90t66.5 -134.5t22 -164.5q0 -86 -22 -163
t-66.5 -134.5t-112.5 -91.5t-158 -34t-157.5 34t-112 91.5t-66.5 134.5t-22 163z" />
    <glyph glyph-name="macron" unicode="&#xaf;" horiz-adv-x="316" 
d="M315 749q-2 -13 -8.5 -17.5t-23.5 -5.5q-18 -1 -41 -2t-48 -1q-44 0 -89.5 2t-76.5 4q-14 1 -19.5 6t-6.5 15q-1 4 -1 9.5v9.5v9t1 9q1 11 7 14.5t17 4.5q17 1 40 1h48q47 0 96 -1t79 -2q13 -1 19 -5.5t7 -14.5q1 -3 1 -7.5v-8.5v-9t-1 -10z" />
    <glyph glyph-name="degree" unicode="&#xb0;" horiz-adv-x="386" 
d="M194 455q-73 0 -117.5 40t-44.5 115q0 77 44.5 120.5t117.5 43.5q78 0 119.5 -43.5t41.5 -120.5q0 -75 -41.5 -115t-119.5 -40zM194 525q43 0 65.5 23t22.5 62q0 44 -22.5 68t-65.5 24q-40 0 -64.5 -24t-24.5 -68q0 -39 24.5 -62t64.5 -23z" />
    <glyph glyph-name="twosuperior" unicode="&#xb2;" horiz-adv-x="365" 
d="M191 502q-43 -24 -59 -41t-16 -42q0 -6 4 -9t15 -3q51 0 81 1t46 7t22 18.5t9 34.5q1 4 3.5 6.5t6.5 2.5q3 0 6 -1.5t4 -4.5q9 -12 14.5 -30t5.5 -37q0 -28 -17.5 -51t-62.5 -23q-23 0 -62.5 2.5t-74.5 2.5q-16 0 -30 -1.5t-23 -1.5q-19 0 -25.5 15t-6.5 47q0 64 39 105
t96 70q40 20 60.5 39t20.5 41t-15 34t-39 12q-25 0 -51 -10.5t-60 -40.5q-3 -3 -5.5 -4.5t-4.5 -1.5q-3 0 -6 2t-6 6q-8 11 -17.5 28.5t-9.5 27.5q0 4 2.5 8.5t6.5 7.5q33 24 71.5 39t83.5 15q57 0 95.5 -30t38.5 -90t-41.5 -91t-98.5 -59z" />
    <glyph glyph-name="threesuperior" unicode="&#xb3;" horiz-adv-x="338" 
d="M166 324q-34 0 -61.5 7.5t-46 18t-28.5 22t-10 18.5q0 5 1.5 10.5t4.5 11.5q13 25 18.5 34.5t11.5 9.5q4 0 7 -3l7 -7q19 -22 42 -34.5t50 -12.5q32 0 48 17t16 40q0 34 -35.5 51.5t-91.5 41.5q-4 1 -5.5 3.5t-1.5 4.5t1 4t3 4q7 10 25 28.5t36.5 38t32.5 36t14 22.5
q0 3 -1.5 4.5t-5.5 1.5q-65 0 -102.5 -11t-44.5 -11q-4 0 -7 2t-4 6q-4 15 -8 34t-4 34q0 5 4.5 7.5t9.5 2.5q22 2 51 3t60 1q39 0 78.5 -1.5t70.5 -4.5q9 -1 12.5 -4t3.5 -7q0 -5 -4 -15t-15.5 -28.5t-34 -46.5t-59.5 -69q-2 -2 -3.5 -4.5t-1.5 -4.5t1.5 -4t3.5 -3
q18 -8 37 -17t34.5 -23t25.5 -33.5t10 -48.5q0 -23 -9.5 -45.5t-28 -40.5t-45.5 -29t-62 -11z" />
    <glyph glyph-name="acute" unicode="&#xb4;" horiz-adv-x="244" 
d="M3 684q0 3 2.5 6.5t8.5 6.5q49 28 82 70t58 102q3 6 8 8t12 2q10 0 24 -2t27 -5q11 -3 15 -7.5t4 -11.5q0 -18 -18.5 -48.5t-49 -59.5t-71 -50t-83.5 -21q-3 0 -6.5 0.5t-6.5 1.5q-2 1 -4 3t-2 5z" />
    <glyph glyph-name="paragraph" unicode="&#xb6;" horiz-adv-x="571" 
d="M445 1q-4 -16 -10 -22t-18 -7q-8 -1 -14.5 -1h-12.5h-12.5t-14.5 1q-10 1 -15.5 5t-5.5 12q0 10 8 42.5t17 83t17 119.5t8 152q0 82 -5.5 145t-12 107t-12 70.5t-5.5 36.5q0 9 4.5 13.5t14.5 5.5q13 1 27.5 1.5t30.5 0.5q22 0 45 -1.5t41 -2.5q14 -1 24.5 -9.5
t10.5 -33.5q0 -22 -5 -28.5t-13 -6.5q-12 0 -27.5 4.5t-31.5 4.5q-10 0 -15.5 -5.5t-5.5 -15.5q0 -5 2 -26t5 -54t5 -77t2 -94q0 -70 -2.5 -138.5t-6.5 -125.5t-8.5 -98.5t-8.5 -57.5zM290 157q-47 0 -97 21t-90.5 63t-66.5 105.5t-26 148.5q0 60 14 109.5t42.5 85t72 55
t102.5 19.5q21 0 40 -5t26 -25q8 -23 14.5 -58t11.5 -77t8 -90.5t3 -97.5q0 -57 -4.5 -114.5t-14.5 -108.5q-3 -14 -9.5 -22.5t-25.5 -8.5z" />
    <glyph glyph-name="periodcentered" unicode="&#xb7;" horiz-adv-x="179" 
d="M90 286q-28 0 -44 16.5t-16 47.5q0 32 16 50t44 18t43.5 -18t15.5 -50q0 -31 -15.5 -47.5t-43.5 -16.5z" />
    <glyph glyph-name="cedilla" unicode="&#xb8;" horiz-adv-x="244" 
d="M42 50l90 28l40 -30q-10 -3 -15 -7t-7 -11q-28 -64 -50.5 -92t-48.5 -28q-7 0 -18.5 2t-21.5 6q-9 4 -14.5 9t-5.5 14q0 7 6 13.5t18 15.5q40 30 48.5 42t8.5 17q0 7 -6 10.5t-24 10.5z" />
    <glyph glyph-name="onesuperior" unicode="&#xb9;" horiz-adv-x="234" 
d="M87 332q-9 1 -14 5.5t-5 15.5q0 33 2 82.5t2 102.5q0 58 -9.5 88.5t-32.5 49.5q-4 4 -6.5 8t-2.5 8t1.5 7t4.5 6q12 12 28 22.5t31.5 18.5t29 13t20.5 5t13 -5.5t6 -15.5q0 -7 -0.5 -24.5t-1 -42.5t-1 -55.5t-0.5 -61.5q0 -54 3.5 -110.5t4.5 -91.5q0 -13 -4.5 -18.5
t-22.5 -6.5q-5 0 -11 -0.5t-12 -0.5t-11.5 0.5t-11.5 0.5z" />
    <glyph glyph-name="ordmasculine" unicode="&#xba;" horiz-adv-x="360" 
d="M242 178q-51 0 -106 2t-87 3q-8 1 -12.5 5t-4.5 13q0 6 1 17.5t5 26.5q3 11 8.5 14t15.5 4q19 1 44 1.5t51 0.5q40 0 81.5 -1.5t67.5 -2.5q13 -1 17.5 -7.5t4.5 -15.5t-1 -20t-4 -21q-2 -7 -8.5 -12t-18.5 -6q-11 -1 -25 -1h-29zM179 401q41 0 58.5 35.5t17.5 103.5
q0 72 -20.5 110.5t-54.5 38.5q-37 0 -56.5 -38.5t-19.5 -110.5q0 -68 17.5 -103.5t57.5 -35.5zM175 328q-69 0 -109 48.5t-40 157.5q0 99 39.5 161t117.5 62q79 0 114.5 -60.5t35.5 -162.5q0 -109 -44 -157.5t-114 -48.5z" />
    <glyph glyph-name="guillemotright" unicode="&#xbb;" horiz-adv-x="508" 
d="M207 338q0 16 -11.5 41.5t-29.5 54.5t-40.5 61.5t-43.5 61.5q-13 19 -20 28t-7 19q0 7 5 11t14 4q4 0 9 -1.5t9 -4.5q22 -19 48.5 -46.5t54.5 -59.5t56 -67t53 -69q3 -4 4.5 -9t1.5 -9q0 -6 -2 -11.5t-6 -11.5q-45 -64 -102.5 -127.5t-114.5 -118.5q-4 -4 -8 -6t-8 -2
q-7 0 -12 5t-5 11q0 7 7 16.5t12 16.5q22 30 46 62.5t44 61.5t33 52.5t13 36.5zM396 354q0 14 -10 36.5t-26 49.5t-36 56.5t-39 56.5q-13 18 -19.5 29t-6.5 17q0 7 4.5 10.5t11.5 3.5q5 0 10 -1.5t10 -5.5q22 -20 49.5 -49t55.5 -61t54.5 -64t46.5 -58q4 -5 6 -11t2 -11
q0 -7 -2 -13t-6 -11q-45 -61 -102.5 -125t-117.5 -118q-4 -4 -9 -5.5t-9 -1.5q-7 0 -12.5 4t-5.5 10q0 7 6.5 16t12.5 17q22 28 45.5 61.5t42.5 65t31.5 59t12.5 43.5z" />
    <glyph glyph-name="onequarter" unicode="&#xbc;" horiz-adv-x="735" 
d="M120 332q-9 1 -14 5.5t-5 15.5q0 33 2 82.5t2 102.5q0 58 -9.5 88.5t-32.5 49.5q-4 4 -6.5 8t-2.5 8t1.5 7t4.5 6q12 12 28 22.5t31.5 18.5t29 13t20.5 5t13 -5.5t6 -15.5q0 -7 -0.5 -24.5t-1 -42.5t-1 -55.5t-0.5 -61.5q0 -54 3.5 -110.5t4.5 -91.5q0 -13 -4.5 -18.5
t-22.5 -6.5q-5 0 -11 -0.5t-12 -0.5t-11.5 0.5t-11.5 0.5zM130 25q-7 -10 -14.5 -16.5t-21.5 -6.5q-8 0 -26.5 6.5t-25.5 10.5q-9 4 -13.5 9.5t-4.5 10.5q0 4 1.5 7t4.5 7q22 25 54 61.5t66 75t66 75t53 61.5q3 2 6 3.5t7 1.5q6 0 10.5 -3.5t4.5 -10.5t-17 -40.5t-42 -77
t-54.5 -91t-53.5 -83.5zM516 743q6 10 14 16.5t22 6.5q8 0 26.5 -6.5t25.5 -10.5q9 -4 13.5 -9.5t4.5 -10.5q0 -4 -1.5 -7t-4.5 -7q-22 -25 -54.5 -63.5t-67 -78.5t-67.5 -77.5t-57 -61.5q-2 -2 -5.5 -3.5t-7.5 -1.5q-5 0 -9 3.5t-4 9.5q0 7 8.5 25t28 52.5t53 89
t82.5 134.5zM645 74q0 -1 1.5 -18.5t2.5 -38.5q0 -6 -4 -10.5t-11 -5.5q-6 0 -14 -0.5t-16 -0.5q-7 0 -14.5 0.5t-12.5 0.5q-9 1 -12 4t-3 13q0 12 1.5 27t1.5 30q0 7 -3.5 10.5t-9.5 3.5q-12 0 -31.5 -0.5t-40.5 -1.5t-40.5 -1.5t-32.5 -0.5q-10 0 -14.5 6t-4.5 13
q0 39 8.5 84.5t20.5 89.5t26 82t26 62q4 9 9 13t13 5q7 1 15.5 1h16.5h19t15 -1q7 -1 10 -3t3 -6q0 -2 -1.5 -4.5t-2.5 -5.5q-21 -36 -40 -75t-32.5 -74t-21.5 -64t-8 -45q0 -4 2 -6t6 -2q32 0 50 0.5t27 2t11 5.5t3 10q3 51 4 83t7 51q4 9 8 14.5t9 11.5q10 10 25 22.5
t27 12.5q5 0 7.5 -3t2.5 -9q0 -3 -1.5 -20t-4 -42.5t-4 -57t-1.5 -61.5q0 -9 3 -11.5t9 -2.5h39q10 0 15.5 -4t6.5 -14q1 -5 1 -9v-10v-8t-1 -9q-1 -10 -5 -14.5t-11 -4.5q-12 0 -24 0.5t-19 0.5q-6 0 -8.5 -3.5t-2.5 -11.5z" />
    <glyph glyph-name="onehalf" unicode="&#xbd;" horiz-adv-x="751" 
d="M570 172q-43 -24 -59 -41t-16 -42q0 -6 4 -9t15 -3q51 0 81 1t46 7t22 18.5t9 34.5q1 4 3.5 6.5t6.5 2.5q3 0 6 -1.5t4 -4.5q9 -12 14.5 -30t5.5 -37q0 -28 -17.5 -51t-62.5 -23q-23 0 -62.5 2.5t-74.5 2.5q-16 0 -30 -1.5t-23 -1.5q-19 0 -25.5 15t-6.5 47q0 64 39 105
t96 70q40 20 60.5 39t20.5 41t-15 34t-39 12q-25 0 -51 -10.5t-60 -40.5q-3 -3 -5.5 -4.5t-4.5 -1.5q-3 0 -6 2t-6 6q-8 11 -17.5 28.5t-9.5 27.5q0 4 2.5 8.5t6.5 7.5q33 24 71.5 39t83.5 15q57 0 95.5 -30t38.5 -90t-41.5 -91t-98.5 -59zM120 332q-9 1 -14 5.5t-5 15.5
q0 33 2 82.5t2 102.5q0 58 -9.5 88.5t-32.5 49.5q-4 4 -6.5 8t-2.5 8t1.5 7t4.5 6q12 12 28 22.5t31.5 18.5t29 13t20.5 5t13 -5.5t6 -15.5q0 -7 -0.5 -24.5t-1 -42.5t-1 -55.5t-0.5 -61.5q0 -54 3.5 -110.5t4.5 -91.5q0 -13 -4.5 -18.5t-22.5 -6.5q-5 0 -11 -0.5t-12 -0.5
t-11.5 0.5t-11.5 0.5zM130 25q-7 -10 -14.5 -16.5t-21.5 -6.5q-8 0 -26.5 6.5t-25.5 10.5q-9 4 -13.5 9.5t-4.5 10.5q0 4 1.5 7t4.5 7q22 25 54 61.5t66 75t66 75t53 61.5q3 2 6 3.5t7 1.5q6 0 10.5 -3.5t4.5 -10.5t-17 -40.5t-42 -77t-54.5 -91t-53.5 -83.5zM516 743
q6 10 14 16.5t22 6.5q8 0 26.5 -6.5t25.5 -10.5q9 -4 13.5 -9.5t4.5 -10.5q0 -4 -1.5 -7t-4.5 -7q-22 -25 -54.5 -63.5t-67 -78.5t-67.5 -77.5t-57 -61.5q-2 -2 -5.5 -3.5t-7.5 -1.5q-5 0 -9 3.5t-4 9.5q0 7 8.5 25t28 52.5t53 89t82.5 134.5z" />
    <glyph glyph-name="threequarters" unicode="&#xbe;" horiz-adv-x="750" 
d="M172 324q-34 0 -61.5 7.5t-46 18t-28.5 22t-10 18.5q0 5 1.5 10.5t4.5 11.5q13 25 18.5 34.5t11.5 9.5q4 0 7 -3l7 -7q19 -22 42 -34.5t50 -12.5q32 0 48 17t16 40q0 34 -35.5 51.5t-91.5 41.5q-4 1 -5.5 3.5t-1.5 4.5t1 4t3 4q7 10 25 28.5t36.5 38t32.5 36t14 22.5
q0 3 -1.5 4.5t-5.5 1.5q-65 0 -102.5 -11t-44.5 -11q-4 0 -7 2t-4 6q-4 15 -8 34t-4 34q0 5 4.5 7.5t9.5 2.5q22 2 51 3t60 1q39 0 78.5 -1.5t70.5 -4.5q9 -1 12.5 -4t3.5 -7q0 -5 -4 -15t-15.5 -28.5t-34 -46.5t-59.5 -69q-2 -2 -3.5 -4.5t-1.5 -4.5t1.5 -4t3.5 -3
q18 -8 37 -17t34.5 -23t25.5 -33.5t10 -48.5q0 -23 -9.5 -45.5t-28 -40.5t-45.5 -29t-62 -11zM168 25q-7 -10 -14.5 -16.5t-21.5 -6.5q-8 0 -26.5 6.5t-25.5 10.5q-9 4 -13.5 9.5t-4.5 10.5q0 4 1.5 7t4.5 7q22 25 54 61.5t66 75t66 75t53 61.5q3 2 6 3.5t7 1.5
q6 0 10.5 -3.5t4.5 -10.5t-17 -40.5t-42 -77t-54.5 -91t-53.5 -83.5zM554 743q6 10 14 16.5t22 6.5q8 0 26.5 -6.5t25.5 -10.5q9 -4 13.5 -9.5t4.5 -10.5q0 -4 -1.5 -7t-4.5 -7q-22 -25 -54.5 -63.5t-67 -78.5t-67.5 -77.5t-57 -61.5q-2 -2 -5.5 -3.5t-7.5 -1.5q-5 0 -9 3.5
t-4 9.5q0 7 8.5 25t28 52.5t53 89t82.5 134.5zM663 73q0 -1 1.5 -18.5t2.5 -38.5q0 -6 -4 -10.5t-11 -5.5q-6 0 -14 -0.5t-16 -0.5q-7 0 -14.5 0.5t-12.5 0.5q-9 1 -12 4t-3 13q0 12 1.5 27t1.5 30q0 7 -3.5 10.5t-9.5 3.5q-12 0 -31.5 -0.5t-40.5 -1.5t-40.5 -1.5
t-32.5 -0.5q-10 0 -14.5 6t-4.5 13q0 39 8.5 84.5t20.5 89.5t26 82t26 62q4 9 9 13t13 5q7 1 15.5 1h16.5h19t15 -1q7 -1 10 -3t3 -6q0 -2 -1.5 -4.5t-2.5 -5.5q-21 -36 -40 -75t-32.5 -74t-21.5 -64t-8 -45q0 -4 2 -6t6 -2q32 0 50 0.5t27 2t11 5.5t3 10q3 51 4 83t7 51
q4 9 8 14.5t9 11.5q10 10 25 22.5t27 12.5q5 0 7.5 -3t2.5 -9q0 -3 -1.5 -20t-4 -42.5t-4 -57t-1.5 -61.5q0 -9 3 -11.5t9 -2.5h39q10 0 15.5 -4t6.5 -14q1 -5 1 -9v-10v-8t-1 -9q-1 -10 -5 -14.5t-11 -4.5q-12 0 -24 0.5t-19 0.5q-6 0 -8.5 -3.5t-2.5 -11.5z" />
    <glyph glyph-name="questiondown" unicode="&#xbf;" horiz-adv-x="489" 
d="M194 562q0 10 15 18.5t40 8.5q38 0 57 -20t19 -54q0 -51 -34 -88.5t-75 -71t-75 -70.5t-34 -87q0 -55 34 -92.5t105 -37.5q65 0 103 36.5t38 92.5q0 43 -14.5 59.5t-14.5 27.5q0 7 7 10.5t17 3.5q28 0 57.5 -25t29.5 -88q0 -41 -15.5 -76.5t-44 -62t-70.5 -41.5t-93 -15
q-59 0 -101.5 15.5t-70 42.5t-41 64t-13.5 79q0 73 35 120t77 80t77 60t35 62q0 15 -8 22.5t-17 11.5t-17 6.5t-8 8.5zM261 781q28 0 44 -16.5t16 -47.5q0 -32 -16 -50t-44 -18t-43.5 18t-15.5 50q0 31 15.5 47.5t43.5 16.5z" />
    <glyph glyph-name="Agrave" unicode="&#xc0;" horiz-adv-x="624" 
d="M117 -1h-14t-14 1q-10 1 -16.5 5.5t-7.5 17.5q-4 40 -6.5 81t-2.5 82q0 79 10.5 158t37 153.5t72 143t116.5 126.5q7 5 12.5 7.5t11.5 2.5t11.5 -2.5t11.5 -7.5q131 -116 179.5 -257.5t48.5 -323.5q0 -39 -2 -80t-7 -86q-1 -10 -7.5 -13.5t-16.5 -4.5q-7 -1 -14 -1.5
t-15 -0.5t-15 0.5t-11 1.5q-7 2 -10 7t-3 13q0 20 8 52.5t8 78.5q0 50 -31 72t-99 22q-41 0 -79.5 -7.5t-67 -23t-46 -38.5t-17.5 -54q0 -29 9.5 -55.5t10.5 -44.5q1 -9 -2 -14t-10 -8q-6 -1 -14.5 -2t-18.5 -1zM161 283q8 0 24.5 6.5t40 14t54.5 14t68 6.5q41 0 65.5 -2.5
t37.5 -2.5q11 0 14 6t3 16q0 44 -12 91t-31.5 89.5t-44 79.5t-49.5 61q-5 4 -8.5 7.5t-7.5 3.5t-7.5 -3t-10.5 -8q-35 -29 -62.5 -75.5t-46.5 -97.5t-29 -102t-10 -90q0 -7 3.5 -10.5t8.5 -3.5zM396 827q0 3 -2.5 6.5t-8.5 6.5q-49 28 -82 70t-58 102q-3 6 -8 8t-12 2
q-10 0 -24 -2t-27 -5q-11 -3 -15 -7.5t-4 -11.5q0 -18 18.5 -48.5t49 -59.5t71 -50t83.5 -21q3 0 6.5 0.5t6.5 1.5q2 1 4 3t2 5z" />
    <glyph glyph-name="Aacute" unicode="&#xc1;" horiz-adv-x="624" 
d="M117 -1h-14t-14 1q-10 1 -16.5 5.5t-7.5 17.5q-4 40 -6.5 81t-2.5 82q0 79 10.5 158t37 153.5t72 143t116.5 126.5q7 5 12.5 7.5t11.5 2.5t11.5 -2.5t11.5 -7.5q131 -116 179.5 -257.5t48.5 -323.5q0 -39 -2 -80t-7 -86q-1 -10 -7.5 -13.5t-16.5 -4.5q-7 -1 -14 -1.5
t-15 -0.5t-15 0.5t-11 1.5q-7 2 -10 7t-3 13q0 20 8 52.5t8 78.5q0 50 -31 72t-99 22q-41 0 -79.5 -7.5t-67 -23t-46 -38.5t-17.5 -54q0 -29 9.5 -55.5t10.5 -44.5q1 -9 -2 -14t-10 -8q-6 -1 -14.5 -2t-18.5 -1zM161 283q8 0 24.5 6.5t40 14t54.5 14t68 6.5q41 0 65.5 -2.5
t37.5 -2.5q11 0 14 6t3 16q0 44 -12 91t-31.5 89.5t-44 79.5t-49.5 61q-5 4 -8.5 7.5t-7.5 3.5t-7.5 -3t-10.5 -8q-35 -29 -62.5 -75.5t-46.5 -97.5t-29 -102t-10 -90q0 -7 3.5 -10.5t8.5 -3.5zM227 827q0 3 2.5 6.5t8.5 6.5q49 28 82 70t58 102q3 6 8 8t12 2q10 0 24 -2
t27 -5q11 -3 15 -7.5t4 -11.5q0 -18 -18.5 -48.5t-49 -59.5t-71 -50t-83.5 -21q-3 0 -6.5 0.5t-6.5 1.5q-2 1 -4 3t-2 5z" />
    <glyph glyph-name="Acircumflex" unicode="&#xc2;" horiz-adv-x="624" 
d="M117 -1h-14t-14 1q-10 1 -16.5 5.5t-7.5 17.5q-4 40 -6.5 81t-2.5 82q0 79 10.5 158t37 153.5t72 143t116.5 126.5q7 5 12.5 7.5t11.5 2.5t11.5 -2.5t11.5 -7.5q131 -116 179.5 -257.5t48.5 -323.5q0 -39 -2 -80t-7 -86q-1 -10 -7.5 -13.5t-16.5 -4.5q-7 -1 -14 -1.5
t-15 -0.5t-15 0.5t-11 1.5q-7 2 -10 7t-3 13q0 20 8 52.5t8 78.5q0 50 -31 72t-99 22q-41 0 -79.5 -7.5t-67 -23t-46 -38.5t-17.5 -54q0 -29 9.5 -55.5t10.5 -44.5q1 -9 -2 -14t-10 -8q-6 -1 -14.5 -2t-18.5 -1zM161 283q8 0 24.5 6.5t40 14t54.5 14t68 6.5q41 0 65.5 -2.5
t37.5 -2.5q11 0 14 6t3 16q0 44 -12 91t-31.5 89.5t-44 79.5t-49.5 61q-5 4 -8.5 7.5t-7.5 3.5t-7.5 -3t-10.5 -8q-35 -29 -62.5 -75.5t-46.5 -97.5t-29 -102t-10 -90q0 -7 3.5 -10.5t8.5 -3.5zM413 829q-52 60 -73 73.5t-29 13.5t-28.5 -13.5t-75.5 -73.5q-4 -4 -8.5 -7
t-8.5 -3q-7 0 -13 2.5t-13 6.5q-4 3 -6 6t-2 7q0 2 1 4.5t2 5.5q10 17 26 39t33.5 44t36 42.5t34.5 34.5q7 6 12.5 8t9.5 2t9.5 -2t12.5 -8q16 -14 34.5 -34.5t36 -42t33.5 -43.5t26 -39q1 -3 2.5 -6t1.5 -6q0 -4 -2.5 -6.5t-6.5 -5.5q-8 -4 -13.5 -6.5t-13.5 -2.5
q-5 0 -9 2t-9 8z" />
    <glyph glyph-name="Atilde" unicode="&#xc3;" horiz-adv-x="624" 
d="M117 -1h-14t-14 1q-10 1 -16.5 5.5t-7.5 17.5q-4 40 -6.5 81t-2.5 82q0 79 10.5 158t37 153.5t72 143t116.5 126.5q7 5 12.5 7.5t11.5 2.5t11.5 -2.5t11.5 -7.5q131 -116 179.5 -257.5t48.5 -323.5q0 -39 -2 -80t-7 -86q-1 -10 -7.5 -13.5t-16.5 -4.5q-7 -1 -14 -1.5
t-15 -0.5t-15 0.5t-11 1.5q-7 2 -10 7t-3 13q0 20 8 52.5t8 78.5q0 50 -31 72t-99 22q-41 0 -79.5 -7.5t-67 -23t-46 -38.5t-17.5 -54q0 -29 9.5 -55.5t10.5 -44.5q1 -9 -2 -14t-10 -8q-6 -1 -14.5 -2t-18.5 -1zM161 283q8 0 24.5 6.5t40 14t54.5 14t68 6.5q41 0 65.5 -2.5
t37.5 -2.5q11 0 14 6t3 16q0 44 -12 91t-31.5 89.5t-44 79.5t-49.5 61q-5 4 -8.5 7.5t-7.5 3.5t-7.5 -3t-10.5 -8q-35 -29 -62.5 -75.5t-46.5 -97.5t-29 -102t-10 -90q0 -7 3.5 -10.5t8.5 -3.5zM139 871q0 37 23 70.5t69 33.5q24 0 46.5 -7.5t44 -17t41.5 -17t38 -7.5
q21 0 36.5 10.5t27.5 31.5q1 3 3.5 4.5t4.5 1.5q4 0 8 -7t4 -20q0 -41 -24 -76.5t-65 -35.5q-23 0 -45.5 10t-45 22.5t-45 22.5t-45.5 10q-17 0 -29.5 -8t-27.5 -27q-2 -3 -5 -5t-5 -2q-4 0 -6.5 3.5t-2.5 9.5z" />
    <glyph glyph-name="Adieresis" unicode="&#xc4;" horiz-adv-x="624" 
d="M117 -1h-14t-14 1q-10 1 -16.5 5.5t-7.5 17.5q-4 40 -6.5 81t-2.5 82q0 79 10.5 158t37 153.5t72 143t116.5 126.5q7 5 12.5 7.5t11.5 2.5t11.5 -2.5t11.5 -7.5q131 -116 179.5 -257.5t48.5 -323.5q0 -39 -2 -80t-7 -86q-1 -10 -7.5 -13.5t-16.5 -4.5q-7 -1 -14 -1.5
t-15 -0.5t-15 0.5t-11 1.5q-7 2 -10 7t-3 13q0 20 8 52.5t8 78.5q0 50 -31 72t-99 22q-41 0 -79.5 -7.5t-67 -23t-46 -38.5t-17.5 -54q0 -29 9.5 -55.5t10.5 -44.5q1 -9 -2 -14t-10 -8q-6 -1 -14.5 -2t-18.5 -1zM161 283q8 0 24.5 6.5t40 14t54.5 14t68 6.5q41 0 65.5 -2.5
t37.5 -2.5q11 0 14 6t3 16q0 44 -12 91t-31.5 89.5t-44 79.5t-49.5 61q-5 4 -8.5 7.5t-7.5 3.5t-7.5 -3t-10.5 -8q-35 -29 -62.5 -75.5t-46.5 -97.5t-29 -102t-10 -90q0 -7 3.5 -10.5t8.5 -3.5zM237 851q-25 0 -39.5 15t-14.5 45t14.5 46.5t39.5 16.5t39.5 -16.5t14.5 -46.5
t-14.5 -45t-39.5 -15zM387 851q-25 0 -39.5 15t-14.5 45t14.5 46.5t39.5 16.5t39.5 -16.5t14.5 -46.5t-14.5 -45t-39.5 -15z" />
    <glyph glyph-name="Aring" unicode="&#xc5;" horiz-adv-x="624" 
d="M117 -1h-14t-14 1q-10 1 -16.5 5.5t-7.5 17.5q-4 40 -6.5 81t-2.5 82q0 79 10.5 158t37 153.5t72 143t116.5 126.5q7 5 12.5 7.5t11.5 2.5t11.5 -2.5t11.5 -7.5q131 -116 179.5 -257.5t48.5 -323.5q0 -39 -2 -80t-7 -86q-1 -10 -7.5 -13.5t-16.5 -4.5q-7 -1 -14 -1.5
t-15 -0.5t-15 0.5t-11 1.5q-7 2 -10 7t-3 13q0 20 8 52.5t8 78.5q0 50 -31 72t-99 22q-41 0 -79.5 -7.5t-67 -23t-46 -38.5t-17.5 -54q0 -29 9.5 -55.5t10.5 -44.5q1 -9 -2 -14t-10 -8q-6 -1 -14.5 -2t-18.5 -1zM161 283q8 0 24.5 6.5t40 14t54.5 14t68 6.5q41 0 65.5 -2.5
t37.5 -2.5q11 0 14 6t3 16q0 44 -12 91t-31.5 89.5t-44 79.5t-49.5 61q-5 4 -8.5 7.5t-7.5 3.5t-7.5 -3t-10.5 -8q-35 -29 -62.5 -75.5t-46.5 -97.5t-29 -102t-10 -90q0 -7 3.5 -10.5t8.5 -3.5zM311 818q-55 0 -88.5 27t-33.5 76q0 51 33.5 80t88.5 29q59 0 91 -29t32 -80
q0 -49 -32 -76t-91 -27zM311 873q28 0 43.5 13t15.5 35q0 25 -15.5 38.5t-43.5 13.5q-26 0 -41.5 -13.5t-15.5 -38.5q0 -22 15.5 -35t41.5 -13z" />
    <glyph glyph-name="AE" unicode="&#xc6;" horiz-adv-x="959" 
d="M720 -3h-50h-59t-58 0.5t-48 1.5q-16 1 -22 5.5t-6 17.5q0 20 3 52.5t3 78.5q0 51 -31 73t-99 22q-39 0 -74.5 -7.5t-62.5 -23t-43 -39t-16 -54.5q0 -29 9.5 -55.5t10.5 -44.5q1 -9 -2 -14t-10 -8q-6 -1 -14.5 -2t-18.5 -1h-14t-14 1q-10 1 -16.5 5.5t-7.5 17.5
q-4 40 -6.5 81t-2.5 82q0 135 25.5 250t103.5 194q27 28 62 53t83 43.5t113.5 29.5t153.5 11q84 0 166 -1t134 -4q10 -1 14.5 -5t4.5 -9q0 -10 -6 -33.5t-12 -37.5q-2 -5 -6 -8t-10 -3q-4 0 -9 2t-11 3q-26 7 -70 14t-116 7q-38 0 -56.5 -4t-27.5 -16q-7 -10 -12 -34t-8 -54
t-4 -64t-1 -64q0 -19 6 -26.5t22 -7.5q27 0 67.5 9t98.5 9q35 0 61 -7.5t26 -23.5q0 -10 -3.5 -25t-7.5 -27q-4 -9 -8 -11.5t-10 -2.5q-11 0 -45 9.5t-78 9.5q-77 0 -110 -26.5t-33 -103.5q0 -54 3 -85.5t11 -47.5t23 -20.5t40 -4.5q75 0 140 6.5t105 19.5q7 2 12 3.5t9 1.5
q5 0 9 -3t7 -10q4 -11 7 -35t3 -34t-6.5 -15.5t-18.5 -6.5q-45 -2 -94 -3t-98 -1zM482 334q0 146 12.5 219t9.5 99q-1 9 -7.5 16t-21.5 7q-61 0 -117.5 -28.5t-99 -78.5t-68.5 -119.5t-26 -151.5q0 -7 3.5 -10.5t8.5 -3.5q7 0 22 6.5t37 14t50.5 14t63.5 6.5q46 0 73.5 -6
t42.5 -6q11 0 14 6t3 16z" />
    <glyph glyph-name="Ccedilla" unicode="&#xc7;" horiz-adv-x="555" 
d="M334 30q-28 -64 -50.5 -92t-48.5 -28q-7 0 -18.5 2t-21.5 6q-9 4 -14.5 9t-5.5 14q0 7 6 13.5t18 15.5q40 30 48.5 42t8.5 17q0 7 -5.5 11.5t-23.5 8.5q-91 22 -140 98t-49 203q0 93 17.5 172t51.5 136t84.5 89.5t115.5 32.5q59 0 99 -24.5t64.5 -63t35.5 -86t11 -92.5
q0 -13 -7 -24.5t-23 -19.5q-4 -4 -21.5 -8.5t-24.5 -4.5t-10.5 4t-3.5 11t0.5 15t0.5 13q0 34 -6 70t-20 65t-38 48t-60 19q-40 0 -72.5 -25.5t-55 -70.5t-34.5 -107t-12 -134q0 -111 40.5 -174.5t133.5 -63.5q76 0 122 44.5t62 119.5q1 5 5 8.5t8 3.5q13 0 21.5 -14.5
t8.5 -47.5q0 -32 -9.5 -63.5t-30.5 -57.5t-54.5 -45t-80.5 -27q-10 -2 -15 -6.5t-7 -11.5z" />
    <glyph glyph-name="Egrave" unicode="&#xc8;" horiz-adv-x="547" 
d="M311 -3q-57 0 -110.5 1t-94.5 2q-16 1 -25 6t-10 23q-1 37 -2 77t-1 83q0 66 2.5 136.5t8.5 140.5t15.5 138.5t23.5 131.5q3 13 10 19.5t17 7.5q22 2 63 3t87 1q57 0 113 -1t92 -4q10 -1 14.5 -5t4.5 -9q0 -10 -6 -33.5t-12 -37.5q-2 -5 -6 -8t-10 -3q-4 0 -9 2t-11 3
q-26 7 -70 14t-116 7q-33 0 -48.5 -5t-24.5 -15q-9 -11 -16 -34.5t-11 -54t-6.5 -64t-2.5 -63.5q0 -19 6 -26.5t22 -7.5q27 0 67.5 9t98.5 9q35 0 61 -7.5t26 -23.5q0 -10 -3.5 -25t-7.5 -27q-4 -9 -8 -11.5t-10 -2.5q-11 0 -45 9.5t-78 9.5q-77 0 -110 -26.5t-33 -103.5
q0 -54 3 -85.5t11 -47.5t23 -20.5t40 -4.5q75 0 140 6.5t105 19.5q7 2 12 3.5t9 1.5q5 0 9 -3t7 -10q4 -11 7 -35t3 -34t-6.5 -15.5t-18.5 -6.5q-44 -2 -92.5 -2.5t-96.5 -1.5zM402 817q0 3 -2.5 6.5t-8.5 6.5q-49 28 -82 70t-58 102q-3 6 -8 8t-12 2q-10 0 -24 -2t-27 -5
q-11 -3 -15 -7.5t-4 -11.5q0 -18 18.5 -48.5t49 -59.5t71 -50t83.5 -21q3 0 6.5 0.5t6.5 1.5q2 1 4 3t2 5z" />
    <glyph glyph-name="Eacute" unicode="&#xc9;" horiz-adv-x="547" 
d="M311 -3q-57 0 -110.5 1t-94.5 2q-16 1 -25 6t-10 23q-1 37 -2 77t-1 83q0 66 2.5 136.5t8.5 140.5t15.5 138.5t23.5 131.5q3 13 10 19.5t17 7.5q22 2 63 3t87 1q57 0 113 -1t92 -4q10 -1 14.5 -5t4.5 -9q0 -10 -6 -33.5t-12 -37.5q-2 -5 -6 -8t-10 -3q-4 0 -9 2t-11 3
q-26 7 -70 14t-116 7q-33 0 -48.5 -5t-24.5 -15q-9 -11 -16 -34.5t-11 -54t-6.5 -64t-2.5 -63.5q0 -19 6 -26.5t22 -7.5q27 0 67.5 9t98.5 9q35 0 61 -7.5t26 -23.5q0 -10 -3.5 -25t-7.5 -27q-4 -9 -8 -11.5t-10 -2.5q-11 0 -45 9.5t-78 9.5q-77 0 -110 -26.5t-33 -103.5
q0 -54 3 -85.5t11 -47.5t23 -20.5t40 -4.5q75 0 140 6.5t105 19.5q7 2 12 3.5t9 1.5q5 0 9 -3t7 -10q4 -11 7 -35t3 -34t-6.5 -15.5t-18.5 -6.5q-44 -2 -92.5 -2.5t-96.5 -1.5zM233 817q0 3 2.5 6.5t8.5 6.5q49 28 82 70t58 102q3 6 8 8t12 2q10 0 24 -2t27 -5
q11 -3 15 -7.5t4 -11.5q0 -18 -18.5 -48.5t-49 -59.5t-71 -50t-83.5 -21q-3 0 -6.5 0.5t-6.5 1.5q-2 1 -4 3t-2 5z" />
    <glyph glyph-name="Ecircumflex" unicode="&#xca;" horiz-adv-x="547" 
d="M311 -3q-57 0 -110.5 1t-94.5 2q-16 1 -25 6t-10 23q-1 37 -2 77t-1 83q0 66 2.5 136.5t8.5 140.5t15.5 138.5t23.5 131.5q3 13 10 19.5t17 7.5q22 2 63 3t87 1q57 0 113 -1t92 -4q10 -1 14.5 -5t4.5 -9q0 -10 -6 -33.5t-12 -37.5q-2 -5 -6 -8t-10 -3q-4 0 -9 2t-11 3
q-26 7 -70 14t-116 7q-33 0 -48.5 -5t-24.5 -15q-9 -11 -16 -34.5t-11 -54t-6.5 -64t-2.5 -63.5q0 -19 6 -26.5t22 -7.5q27 0 67.5 9t98.5 9q35 0 61 -7.5t26 -23.5q0 -10 -3.5 -25t-7.5 -27q-4 -9 -8 -11.5t-10 -2.5q-11 0 -45 9.5t-78 9.5q-77 0 -110 -26.5t-33 -103.5
q0 -54 3 -85.5t11 -47.5t23 -20.5t40 -4.5q75 0 140 6.5t105 19.5q7 2 12 3.5t9 1.5q5 0 9 -3t7 -10q4 -11 7 -35t3 -34t-6.5 -15.5t-18.5 -6.5q-44 -2 -92.5 -2.5t-96.5 -1.5zM420 819q-52 60 -73 73.5t-29 13.5t-28.5 -13.5t-75.5 -73.5q-4 -4 -8.5 -7t-8.5 -3
q-7 0 -13 2.5t-13 6.5q-4 3 -6 6t-2 7q0 2 1 4.5t2 5.5q10 17 26 39t33.5 44t36 42.5t34.5 34.5q7 6 12.5 8t9.5 2t9.5 -2t12.5 -8q16 -14 34.5 -34.5t36 -42t33.5 -43.5t26 -39q1 -3 2.5 -6t1.5 -6q0 -4 -2.5 -6.5t-6.5 -5.5q-8 -4 -13.5 -6.5t-13.5 -2.5q-5 0 -9 2t-9 8z
" />
    <glyph glyph-name="Edieresis" unicode="&#xcb;" horiz-adv-x="547" 
d="M311 -3q-57 0 -110.5 1t-94.5 2q-16 1 -25 6t-10 23q-1 37 -2 77t-1 83q0 66 2.5 136.5t8.5 140.5t15.5 138.5t23.5 131.5q3 13 10 19.5t17 7.5q22 2 63 3t87 1q57 0 113 -1t92 -4q10 -1 14.5 -5t4.5 -9q0 -10 -6 -33.5t-12 -37.5q-2 -5 -6 -8t-10 -3q-4 0 -9 2t-11 3
q-26 7 -70 14t-116 7q-33 0 -48.5 -5t-24.5 -15q-9 -11 -16 -34.5t-11 -54t-6.5 -64t-2.5 -63.5q0 -19 6 -26.5t22 -7.5q27 0 67.5 9t98.5 9q35 0 61 -7.5t26 -23.5q0 -10 -3.5 -25t-7.5 -27q-4 -9 -8 -11.5t-10 -2.5q-11 0 -45 9.5t-78 9.5q-77 0 -110 -26.5t-33 -103.5
q0 -54 3 -85.5t11 -47.5t23 -20.5t40 -4.5q75 0 140 6.5t105 19.5q7 2 12 3.5t9 1.5q5 0 9 -3t7 -10q4 -11 7 -35t3 -34t-6.5 -15.5t-18.5 -6.5q-44 -2 -92.5 -2.5t-96.5 -1.5zM243 841q-25 0 -39.5 15t-14.5 45t14.5 46.5t39.5 16.5t39.5 -16.5t14.5 -46.5t-14.5 -45
t-39.5 -15zM393 841q-25 0 -39.5 15t-14.5 45t14.5 46.5t39.5 16.5t39.5 -16.5t14.5 -46.5t-14.5 -45t-39.5 -15z" />
    <glyph glyph-name="Igrave" unicode="&#xcc;" horiz-adv-x="243" 
d="M169 1q-7 -1 -15 -1.5t-16 -0.5q-7 0 -15 0.5t-15 1.5t-11.5 4.5t-6.5 11.5q-4 15 -7.5 47.5t-6 75t-4 91.5t-1.5 96q0 169 12 274t19 137q2 13 7.5 18.5t15.5 7.5q5 1 12 1.5t14 0.5t15.5 -0.5t15.5 -1.5q6 -1 8.5 -4.5t2.5 -10.5q0 -10 -5.5 -38.5t-11.5 -75
t-11.5 -113t-5.5 -151.5q0 -71 3.5 -132.5t8 -108t8 -76t3.5 -36.5q0 -9 -3 -12.5t-10 -4.5zM231 816q0 3 -2.5 6.5t-8.5 6.5q-49 28 -82 70t-58 102q-3 6 -8 8t-12 2q-10 0 -24 -2t-27 -5q-11 -3 -15 -7.5t-4 -11.5q0 -18 18.5 -48.5t49 -59.5t71 -50t83.5 -21q3 0 6.5 0.5
t6.5 1.5q2 1 4 3t2 5z" />
    <glyph glyph-name="Iacute" unicode="&#xcd;" horiz-adv-x="243" 
d="M169 1q-7 -1 -15 -1.5t-16 -0.5q-7 0 -15 0.5t-15 1.5t-11.5 4.5t-6.5 11.5q-4 15 -7.5 47.5t-6 75t-4 91.5t-1.5 96q0 169 12 274t19 137q2 13 7.5 18.5t15.5 7.5q5 1 12 1.5t14 0.5t15.5 -0.5t15.5 -1.5q6 -1 8.5 -4.5t2.5 -10.5q0 -10 -5.5 -38.5t-11.5 -75
t-11.5 -113t-5.5 -151.5q0 -71 3.5 -132.5t8 -108t8 -76t3.5 -36.5q0 -9 -3 -12.5t-10 -4.5zM62 816q0 3 2.5 6.5t8.5 6.5q49 28 82 70t58 102q3 6 8 8t12 2q10 0 24 -2t27 -5q11 -3 15 -7.5t4 -11.5q0 -18 -18.5 -48.5t-49 -59.5t-71 -50t-83.5 -21q-3 0 -6.5 0.5t-6.5 1.5
q-2 1 -4 3t-2 5z" />
    <glyph glyph-name="Icircumflex" unicode="&#xce;" horiz-adv-x="243" 
d="M169 1q-7 -1 -15 -1.5t-16 -0.5q-7 0 -15 0.5t-15 1.5t-11.5 4.5t-6.5 11.5q-4 15 -7.5 47.5t-6 75t-4 91.5t-1.5 96q0 169 12 274t19 137q2 13 7.5 18.5t15.5 7.5q5 1 12 1.5t14 0.5t15.5 -0.5t15.5 -1.5q6 -1 8.5 -4.5t2.5 -10.5q0 -10 -5.5 -38.5t-11.5 -75
t-11.5 -113t-5.5 -151.5q0 -71 3.5 -132.5t8 -108t8 -76t3.5 -36.5q0 -9 -3 -12.5t-10 -4.5zM248 818q-52 60 -73 73.5t-29 13.5t-28.5 -13.5t-75.5 -73.5q-4 -4 -8.5 -7t-8.5 -3q-7 0 -13 2.5t-13 6.5q-4 3 -6 6t-2 7q0 2 1 4.5t2 5.5q10 17 26 39t33.5 44t36 42.5
t34.5 34.5q7 6 12.5 8t9.5 2t9.5 -2t12.5 -8q16 -14 34.5 -34.5t36 -42t33.5 -43.5t26 -39q1 -3 2.5 -6t1.5 -6q0 -4 -2.5 -6.5t-6.5 -5.5q-8 -4 -13.5 -6.5t-13.5 -2.5q-5 0 -9 2t-9 8z" />
    <glyph glyph-name="Idieresis" unicode="&#xcf;" horiz-adv-x="243" 
d="M169 1q-7 -1 -15 -1.5t-16 -0.5q-7 0 -15 0.5t-15 1.5t-11.5 4.5t-6.5 11.5q-4 15 -7.5 47.5t-6 75t-4 91.5t-1.5 96q0 169 12 274t19 137q2 13 7.5 18.5t15.5 7.5q5 1 12 1.5t14 0.5t15.5 -0.5t15.5 -1.5q6 -1 8.5 -4.5t2.5 -10.5q0 -10 -5.5 -38.5t-11.5 -75
t-11.5 -113t-5.5 -151.5q0 -71 3.5 -132.5t8 -108t8 -76t3.5 -36.5q0 -9 -3 -12.5t-10 -4.5zM72 840q-25 0 -39.5 15t-14.5 45t14.5 46.5t39.5 16.5t39.5 -16.5t14.5 -46.5t-14.5 -45t-39.5 -15zM222 840q-25 0 -39.5 15t-14.5 45t14.5 46.5t39.5 16.5t39.5 -16.5
t14.5 -46.5t-14.5 -45t-39.5 -15z" />
    <glyph glyph-name="Eth" unicode="&#xd0;" horiz-adv-x="637" 
d="M582 326q0 -68 -18 -128.5t-56.5 -104.5t-98.5 -69.5t-144 -25.5q-58 0 -93.5 0.5t-48.5 1.5t-19.5 4.5t-10.5 10.5q-5 10 -9.5 30.5t-8 55t-5.5 87t-2 126.5q0 8 -6 11.5t-28 3.5q-18 0 -25.5 2.5t-8.5 9.5q-1 9 -1.5 17t-0.5 16v13.5t1 12.5q1 13 9.5 16.5t27.5 3.5
q14 0 23 3.5t11 13.5q4 108 13 182t19 120q2 11 8.5 16.5t14.5 6.5q16 1 36.5 2t39.5 1q187 0 284 -106t97 -333zM238 82q127 0 190 63t63 191q0 176 -71.5 259.5t-187.5 83.5q-12 0 -20.5 -3t-15.5 -10q-9 -9 -16 -31.5t-11.5 -53t-7 -69t-2.5 -78.5q0 -8 5.5 -12.5
t14.5 -4.5h61t62 -3q10 -1 15 -5t6 -12q1 -7 1.5 -14.5t0.5 -14.5t-0.5 -15t-1.5 -15q-1 -9 -6 -13.5t-18 -4.5q-6 0 -19 1.5t-29.5 2.5t-34.5 2.5t-33 1.5q-11 0 -18 -5.5t-7 -24.5q0 -75 6 -128.5t25 -72.5q10 -10 23 -12.5t26 -2.5z" />
    <glyph glyph-name="Ntilde" unicode="&#xd1;" horiz-adv-x="679" 
d="M141 -2q-7 0 -14 0.5t-12 1.5q-11 1 -18 6t-8 15q-11 76 -16 164.5t-5 173.5q0 65 2.5 126t6.5 111t10 87.5t12 56.5q4 10 11 16.5t17 7.5q6 1 13 1.5t13 0.5q7 0 14.5 -0.5t12.5 -1.5q7 -1 13.5 -5t12.5 -12q26 -35 63.5 -96t79.5 -139.5t84.5 -172t78.5 -193.5
q1 -4 4 -6t7 -2t7 4t3 11q0 127 -6.5 230.5t-14.5 179t-14.5 122.5t-6.5 62q0 7 4.5 12t11.5 6q5 1 12 1.5t14 0.5q8 0 16 -0.5t14 -1.5q10 -1 17 -6t9 -17q6 -33 10 -75.5t6.5 -90t4 -99t1.5 -103.5q0 -96 -4.5 -188t-12.5 -157q-2 -15 -9 -21.5t-23 -7.5q-4 -1 -11 -1h-14
h-14t-11 1q-13 2 -19 7t-12 19q-38 86 -77 169t-76.5 159.5t-73 145.5t-67.5 127q-4 7 -7.5 10t-6.5 3q-5 0 -8.5 -5t-4.5 -13q-5 -124 -1 -231.5t10.5 -187t12.5 -128.5t6 -56q0 -10 -6.5 -14t-17.5 -5q-4 -1 -10 -1.5t-13 -0.5zM167 861q0 37 23 70.5t69 33.5
q24 0 46.5 -7.5t44 -17t41.5 -17t38 -7.5q21 0 36.5 10.5t27.5 31.5q1 3 3.5 4.5t4.5 1.5q4 0 8 -7t4 -20q0 -41 -24 -76.5t-65 -35.5q-23 0 -45.5 10t-45 22.5t-45 22.5t-45.5 10q-17 0 -29.5 -8t-27.5 -27q-2 -3 -5 -5t-5 -2q-4 0 -6.5 3.5t-2.5 9.5z" />
    <glyph glyph-name="Ograve" unicode="&#xd2;" 
d="M572 298q0 -67 -13 -124.5t-44 -99t-82 -65.5t-126 -24q-76 0 -128 24t-83 65.5t-44.5 99t-13.5 123.5q0 91 17 178.5t50.5 154.5t84 108t115.5 41t115.5 -41t84 -108t50.5 -154t17 -178zM306 73q85 0 130.5 55.5t45.5 180.5q0 73 -13 142.5t-36 123t-56 86t-72 32.5
q-41 0 -74 -33.5t-56 -87.5t-35 -122.5t-12 -137.5q0 -128 46.5 -183.5t131.5 -55.5zM386 829q0 3 -2.5 6.5t-8.5 6.5q-49 28 -82 70t-58 102q-3 6 -8 8t-12 2q-10 0 -24 -2t-27 -5q-11 -3 -15 -7.5t-4 -11.5q0 -18 18.5 -48.5t49 -59.5t71 -50t83.5 -21q3 0 6.5 0.5
t6.5 1.5q2 1 4 3t2 5z" />
    <glyph glyph-name="Oacute" unicode="&#xd3;" 
d="M572 298q0 -67 -13 -124.5t-44 -99t-82 -65.5t-126 -24q-76 0 -128 24t-83 65.5t-44.5 99t-13.5 123.5q0 91 17 178.5t50.5 154.5t84 108t115.5 41t115.5 -41t84 -108t50.5 -154t17 -178zM306 73q85 0 130.5 55.5t45.5 180.5q0 73 -13 142.5t-36 123t-56 86t-72 32.5
q-41 0 -74 -33.5t-56 -87.5t-35 -122.5t-12 -137.5q0 -128 46.5 -183.5t131.5 -55.5zM217 829q0 3 2.5 6.5t8.5 6.5q49 28 82 70t58 102q3 6 8 8t12 2q10 0 24 -2t27 -5q11 -3 15 -7.5t4 -11.5q0 -18 -18.5 -48.5t-49 -59.5t-71 -50t-83.5 -21q-3 0 -6.5 0.5t-6.5 1.5
q-2 1 -4 3t-2 5z" />
    <glyph glyph-name="Ocircumflex" unicode="&#xd4;" 
d="M572 298q0 -67 -13 -124.5t-44 -99t-82 -65.5t-126 -24q-76 0 -128 24t-83 65.5t-44.5 99t-13.5 123.5q0 91 17 178.5t50.5 154.5t84 108t115.5 41t115.5 -41t84 -108t50.5 -154t17 -178zM306 73q85 0 130.5 55.5t45.5 180.5q0 73 -13 142.5t-36 123t-56 86t-72 32.5
q-41 0 -74 -33.5t-56 -87.5t-35 -122.5t-12 -137.5q0 -128 46.5 -183.5t131.5 -55.5zM404 831q-52 60 -73 73.5t-29 13.5t-28.5 -13.5t-75.5 -73.5q-4 -4 -8.5 -7t-8.5 -3q-7 0 -13 2.5t-13 6.5q-4 3 -6 6t-2 7q0 2 1 4.5t2 5.5q10 17 26 39t33.5 44t36 42.5t34.5 34.5
q7 6 12.5 8t9.5 2t9.5 -2t12.5 -8q16 -14 34.5 -34.5t36 -42t33.5 -43.5t26 -39q1 -3 2.5 -6t1.5 -6q0 -4 -2.5 -6.5t-6.5 -5.5q-8 -4 -13.5 -6.5t-13.5 -2.5q-5 0 -9 2t-9 8z" />
    <glyph glyph-name="Otilde" unicode="&#xd5;" 
d="M572 298q0 -67 -13 -124.5t-44 -99t-82 -65.5t-126 -24q-76 0 -128 24t-83 65.5t-44.5 99t-13.5 123.5q0 91 17 178.5t50.5 154.5t84 108t115.5 41t115.5 -41t84 -108t50.5 -154t17 -178zM306 73q85 0 130.5 55.5t45.5 180.5q0 73 -13 142.5t-36 123t-56 86t-72 32.5
q-41 0 -74 -33.5t-56 -87.5t-35 -122.5t-12 -137.5q0 -128 46.5 -183.5t131.5 -55.5zM129 873q0 37 23 70.5t69 33.5q24 0 46.5 -7.5t44 -17t41.5 -17t38 -7.5q21 0 36.5 10.5t27.5 31.5q1 3 3.5 4.5t4.5 1.5q4 0 8 -7t4 -20q0 -41 -24 -76.5t-65 -35.5q-23 0 -45.5 10
t-45 22.5t-45 22.5t-45.5 10q-17 0 -29.5 -8t-27.5 -27q-2 -3 -5 -5t-5 -2q-4 0 -6.5 3.5t-2.5 9.5z" />
    <glyph glyph-name="Odieresis" unicode="&#xd6;" 
d="M572 298q0 -67 -13 -124.5t-44 -99t-82 -65.5t-126 -24q-76 0 -128 24t-83 65.5t-44.5 99t-13.5 123.5q0 91 17 178.5t50.5 154.5t84 108t115.5 41t115.5 -41t84 -108t50.5 -154t17 -178zM306 73q85 0 130.5 55.5t45.5 180.5q0 73 -13 142.5t-36 123t-56 86t-72 32.5
q-41 0 -74 -33.5t-56 -87.5t-35 -122.5t-12 -137.5q0 -128 46.5 -183.5t131.5 -55.5zM227 853q-25 0 -39.5 15t-14.5 45t14.5 46.5t39.5 16.5t39.5 -16.5t14.5 -46.5t-14.5 -45t-39.5 -15zM377 853q-25 0 -39.5 15t-14.5 45t14.5 46.5t39.5 16.5t39.5 -16.5t14.5 -46.5
t-14.5 -45t-39.5 -15z" />
    <glyph glyph-name="multiply" unicode="&#xd7;" horiz-adv-x="491" 
d="M233 292q-34 -37 -62.5 -76t-57.5 -70q-5 -5 -10.5 -7t-9.5 -2t-7.5 1.5t-5.5 3.5q-8 8 -19 18.5t-18 19.5q-3 4 -4.5 8t-1.5 8t2 8.5t6 8.5q34 31 67 61.5t63 63.5q4 4 6 7.5t2 7.5t-1.5 7t-5.5 7q-31 34 -65 65.5t-63 60.5q-4 4 -6 8.5t-2 8.5q0 5 2.5 9.5t5.5 8.5
q7 10 16.5 19.5t17.5 15.5q5 4 9.5 6t8.5 2t7 -2.5t7 -6.5q27 -36 55.5 -73t61.5 -74q4 -4 7 -5.5t6 -1.5q4 0 7.5 2t7.5 6q31 35 59.5 70.5t53.5 69.5q4 4 7.5 6t7.5 2t9 -2.5t10 -6.5q10 -7 17 -13.5t16 -15.5q3 -4 5 -8.5t2 -8.5t-2 -9t-6 -9q-29 -29 -62 -60t-66 -64
q-3 -4 -4.5 -7.5t-1.5 -7.5t2 -8t6 -8q31 -31 64.5 -59t64.5 -56q4 -4 6.5 -8.5t2.5 -8.5t-1.5 -8t-5.5 -8q-7 -10 -18 -20.5t-21 -19.5q-4 -3 -7.5 -4.5t-7.5 -1.5t-8.5 2.5t-8.5 7.5q-27 29 -52.5 65.5t-56.5 72.5q-4 4 -8 6.5t-8 2.5t-7.5 -1.5t-6.5 -5.5z" />
    <glyph glyph-name="Oslash" unicode="&#xd8;" horiz-adv-x="609" 
d="M307 -15q-55 0 -97.5 12.5t-73.5 35.5q-3 2 -6 3.5t-6 1.5q-4 0 -8 -2t-8 -7q-5 -7 -9.5 -13t-8.5 -12q-5 -7 -10 -11t-12 -4q-9 0 -23.5 9t-24.5 19q-3 3 -4.5 6t-1.5 7t2.5 9.5t7.5 12.5q8 10 16.5 21t18.5 23q4 5 5.5 10.5t1.5 11.5q0 4 -1 8.5t-2 8.5q-13 35 -19 76
t-6 86q0 91 17 178.5t50.5 154.5t84 108t115.5 41q51 0 93.5 -25.5t73.5 -69.5q4 -4 7.5 -7t6.5 -3t6 2.5t6 6.5q13 19 24 33.5t17 22.5t12 11.5t13 3.5q6 0 13 -2.5t14 -6.5q8 -4 12.5 -9.5t4.5 -12.5q0 -4 -1.5 -8.5t-5.5 -9.5q-13 -19 -30 -44t-38 -53q-4 -5 -5.5 -10.5
t-1.5 -11.5q0 -3 1 -7l2 -8q22 -60 32.5 -130.5t10.5 -142.5q0 -67 -13 -124.5t-44 -99t-82 -65.5t-126 -24zM421 578q3 4 4.5 8.5t1.5 8.5q0 6 -8.5 23.5t-24.5 35t-38.5 31.5t-50.5 14q-43 0 -77.5 -34.5t-58 -89t-36.5 -124.5t-13 -140q0 -26 2 -49.5t6 -43.5
q1 -7 3.5 -10t5.5 -3t6.5 2.5t7.5 7.5q33 43 68 90.5t70 94t68.5 92.5t63.5 86zM306 61q89 0 136.5 58t47.5 189q0 46 -5 91.5t-15 85.5q-1 7 -4 10.5t-7 3.5q-2 0 -4.5 -2t-5.5 -6q-63 -87 -134.5 -182.5t-128.5 -173.5q-4 -5 -6 -10.5t-2 -9.5t2 -8t6 -7
q22 -20 52.5 -29.5t67.5 -9.5z" />
    <glyph glyph-name="Ugrave" unicode="&#xd9;" horiz-adv-x="600" 
d="M438 762q7 1 13 2t12 1q8 0 15 -0.5t14 -1.5t12 -5t8 -11q10 -28 22 -135t12 -275q0 -78 -11.5 -142t-40 -109.5t-76 -70.5t-119.5 -25q-122 0 -183.5 86t-61.5 260q0 76 5 143.5t11.5 120.5t13.5 90t11 54q2 9 7.5 13.5t11.5 5.5q7 1 14.5 1h14.5h15t16 -1q7 -1 12 -6
t4 -14q-1 -17 -8.5 -53t-15 -87t-14 -116.5t-6.5 -139.5q0 -151 40.5 -213.5t115.5 -62.5q81 0 117 62.5t36 213.5q0 166 -14 264t-17 130q-1 9 1.5 14t12.5 7zM384 815q0 3 -2.5 6.5t-8.5 6.5q-49 28 -82 70t-58 102q-3 6 -8 8t-12 2q-10 0 -24 -2t-27 -5q-11 -3 -15 -7.5
t-4 -11.5q0 -18 18.5 -48.5t49 -59.5t71 -50t83.5 -21q3 0 6.5 0.5t6.5 1.5q2 1 4 3t2 5z" />
    <glyph glyph-name="Uacute" unicode="&#xda;" horiz-adv-x="600" 
d="M438 762q7 1 13 2t12 1q8 0 15 -0.5t14 -1.5t12 -5t8 -11q10 -28 22 -135t12 -275q0 -78 -11.5 -142t-40 -109.5t-76 -70.5t-119.5 -25q-122 0 -183.5 86t-61.5 260q0 76 5 143.5t11.5 120.5t13.5 90t11 54q2 9 7.5 13.5t11.5 5.5q7 1 14.5 1h14.5h15t16 -1q7 -1 12 -6
t4 -14q-1 -17 -8.5 -53t-15 -87t-14 -116.5t-6.5 -139.5q0 -151 40.5 -213.5t115.5 -62.5q81 0 117 62.5t36 213.5q0 166 -14 264t-17 130q-1 9 1.5 14t12.5 7zM215 815q0 3 2.5 6.5t8.5 6.5q49 28 82 70t58 102q3 6 8 8t12 2q10 0 24 -2t27 -5q11 -3 15 -7.5t4 -11.5
q0 -18 -18.5 -48.5t-49 -59.5t-71 -50t-83.5 -21q-3 0 -6.5 0.5t-6.5 1.5q-2 1 -4 3t-2 5z" />
    <glyph glyph-name="Ucircumflex" unicode="&#xdb;" horiz-adv-x="600" 
d="M438 762q7 1 13 2t12 1q8 0 15 -0.5t14 -1.5t12 -5t8 -11q10 -28 22 -135t12 -275q0 -78 -11.5 -142t-40 -109.5t-76 -70.5t-119.5 -25q-122 0 -183.5 86t-61.5 260q0 76 5 143.5t11.5 120.5t13.5 90t11 54q2 9 7.5 13.5t11.5 5.5q7 1 14.5 1h14.5h15t16 -1q7 -1 12 -6
t4 -14q-1 -17 -8.5 -53t-15 -87t-14 -116.5t-6.5 -139.5q0 -151 40.5 -213.5t115.5 -62.5q81 0 117 62.5t36 213.5q0 166 -14 264t-17 130q-1 9 1.5 14t12.5 7zM402 817q-52 60 -73 73.5t-29 13.5t-28.5 -13.5t-75.5 -73.5q-4 -4 -8.5 -7t-8.5 -3q-7 0 -13 2.5t-13 6.5
q-4 3 -6 6t-2 7q0 2 1 4.5t2 5.5q10 17 26 39t33.5 44t36 42.5t34.5 34.5q7 6 12.5 8t9.5 2t9.5 -2t12.5 -8q16 -14 34.5 -34.5t36 -42t33.5 -43.5t26 -39q1 -3 2.5 -6t1.5 -6q0 -4 -2.5 -6.5t-6.5 -5.5q-8 -4 -13.5 -6.5t-13.5 -2.5q-5 0 -9 2t-9 8z" />
    <glyph glyph-name="Udieresis" unicode="&#xdc;" horiz-adv-x="600" 
d="M438 762q7 1 13 2t12 1q8 0 15 -0.5t14 -1.5t12 -5t8 -11q10 -28 22 -135t12 -275q0 -78 -11.5 -142t-40 -109.5t-76 -70.5t-119.5 -25q-122 0 -183.5 86t-61.5 260q0 76 5 143.5t11.5 120.5t13.5 90t11 54q2 9 7.5 13.5t11.5 5.5q7 1 14.5 1h14.5h15t16 -1q7 -1 12 -6
t4 -14q-1 -17 -8.5 -53t-15 -87t-14 -116.5t-6.5 -139.5q0 -151 40.5 -213.5t115.5 -62.5q81 0 117 62.5t36 213.5q0 166 -14 264t-17 130q-1 9 1.5 14t12.5 7zM225 839q-25 0 -39.5 15t-14.5 45t14.5 46.5t39.5 16.5t39.5 -16.5t14.5 -46.5t-14.5 -45t-39.5 -15zM375 839
q-25 0 -39.5 15t-14.5 45t14.5 46.5t39.5 16.5t39.5 -16.5t14.5 -46.5t-14.5 -45t-39.5 -15z" />
    <glyph glyph-name="Yacute" unicode="&#xdd;" horiz-adv-x="582" 
d="M272 -1h-17.5t-17.5 1q-20 1 -25.5 14.5t-5.5 38.5q0 67 17.5 109.5t27.5 70.5q2 5 3 10.5t1 9.5q0 9 -6.5 18t-17.5 20q-21 21 -53 52t-62.5 81.5t-52 127t-21.5 185.5q0 15 4 21t16 7q6 1 12.5 1.5t13.5 0.5t14 -0.5t14 -1.5q16 -2 19.5 -9.5t3.5 -21.5q0 -7 -1 -25.5
t-1 -39.5q0 -60 13 -109t32.5 -86t42 -63t41.5 -42q9 -7 16 -11t14 -4q6 0 12 2.5t12 8.5q20 21 42.5 59.5t41.5 85t31.5 97.5t12.5 97q0 13 -0.5 24t-0.5 17q0 11 5 15t13 5q4 1 9.5 1h11.5q9 0 18 -0.5t16 -1.5q12 -1 16 -7.5t4 -21.5q0 -63 -11.5 -115.5t-30 -97.5
t-42 -84.5t-46.5 -76.5q-37 -60 -66.5 -121.5t-29.5 -136.5q0 -25 3 -47t3 -32q0 -11 -6.5 -17t-16.5 -7q-6 -1 -12.5 -1h-12.5zM206 817q0 3 2.5 6.5t8.5 6.5q49 28 82 70t58 102q3 6 8 8t12 2q10 0 24 -2t27 -5q11 -3 15 -7.5t4 -11.5q0 -18 -18.5 -48.5t-49 -59.5
t-71 -50t-83.5 -21q-3 0 -6.5 0.5t-6.5 1.5q-2 1 -4 3t-2 5z" />
    <glyph glyph-name="Thorn" unicode="&#xde;" horiz-adv-x="550" 
d="M192 213q23 0 65.5 10t84 35.5t72.5 71t31 116.5q0 64 -36.5 106.5t-142.5 42.5q-37 0 -51.5 -3.5t-23.5 -12.5q-15 -13 -23 -60t-8 -131q0 -42 0.5 -76t3.5 -68q1 -19 9 -25t19 -6zM169 1q-7 -1 -15 -1.5t-16 -0.5q-7 0 -15 0.5t-15 1.5t-11.5 4.5t-6.5 11.5
q-4 15 -7.5 47.5t-6 75t-4 91.5t-1.5 96q0 169 12 274t19 137q2 13 7.5 18.5t15.5 7.5q5 1 12 1.5t14 0.5t15.5 -0.5t15.5 -1.5q6 -1 8.5 -4.5t2.5 -10.5t-3 -25.5t-3 -31.5q0 -10 6.5 -13t34.5 -3q154 0 230 -55t76 -175q0 -122 -70 -188t-195 -106q-61 -23 -76.5 -34.5
t-15.5 -43.5q0 -13 3.5 -30.5t3.5 -22.5q0 -10 -4 -14.5t-11 -5.5z" />
    <glyph glyph-name="germandbls" unicode="&#xdf;" horiz-adv-x="540" 
d="M288 751q-49 0 -76.5 -40.5t-41.5 -130.5q-7 -49 -9.5 -117.5t-2.5 -130.5q0 -53 3.5 -103.5t7 -91.5t7 -72t3.5 -46q0 -9 -6 -13.5t-13 -5.5q-5 -1 -11.5 -1.5t-13.5 -0.5t-14 0.5t-13 1.5q-7 1 -17 6.5t-11 22.5q-7 54 -10.5 114.5t-3.5 122.5q0 74 3 146.5t8 132.5
q12 149 64 214.5t148 65.5q40 0 73 -14t56.5 -38t37 -55.5t13.5 -66.5q0 -38 -10.5 -66.5t-26.5 -49.5t-35 -36t-35 -28q-5 -4 -7.5 -7.5t-2.5 -7.5t2 -8.5t8 -8.5q22 -21 47 -49t45.5 -61.5t34 -74t13.5 -85.5q0 -78 -39.5 -129.5t-113.5 -51.5q-24 0 -45 10t-36.5 25
t-24.5 33.5t-9 34.5q0 7 3.5 11t10.5 4q6 0 13 -6.5t15.5 -13.5t20.5 -13.5t29 -6.5q37 0 62 26t25 77q0 35 -11.5 67t-31 61.5t-44 57t-49.5 55.5q-13 13 -17 25t-4 22q0 12 7.5 22t21.5 23q33 34 63 66.5t30 75.5q0 46 -26.5 76.5t-63.5 30.5z" />
    <glyph glyph-name="agrave" unicode="&#xe0;" horiz-adv-x="486" 
d="M249 -1q-109 0 -161 43t-52 125q0 96 75 147.5t201 67.5q18 3 23.5 13t5.5 26q0 55 -27.5 83.5t-85.5 28.5q-39 0 -72 -16.5t-59 -44.5q-4 -4 -7 -5.5t-7 -1.5q-3 0 -6 1.5t-7 5.5q-6 7 -10 17.5t-4 19.5q0 40 50.5 72.5t129.5 32.5q104 0 146 -57.5t42 -161.5
q0 -82 -2.5 -141t-2.5 -96q0 -18 1.5 -38.5t3 -38t3 -30.5t1.5 -16q0 -11 -5 -18t-17 -9q-9 -3 -30 -4.5t-45 -2.5t-46.5 -1.5t-35.5 -0.5zM341 122v152q0 17 -5.5 24.5t-20.5 7.5q-84 0 -138 -34.5t-54 -100.5q0 -54 37 -72.5t117 -18.5q41 0 52.5 11.5t11.5 30.5zM311 684
q0 3 -2.5 6.5t-8.5 6.5q-49 28 -82 70t-58 102q-3 6 -8 8t-12 2q-10 0 -24 -2t-27 -5q-11 -3 -15 -7.5t-4 -11.5q0 -18 18.5 -48.5t49 -59.5t71 -50t83.5 -21q3 0 6.5 0.5t6.5 1.5q2 1 4 3t2 5z" />
    <glyph glyph-name="aacute" unicode="&#xe1;" horiz-adv-x="486" 
d="M249 -1q-109 0 -161 43t-52 125q0 96 75 147.5t201 67.5q18 3 23.5 13t5.5 26q0 55 -27.5 83.5t-85.5 28.5q-39 0 -72 -16.5t-59 -44.5q-4 -4 -7 -5.5t-7 -1.5q-3 0 -6 1.5t-7 5.5q-6 7 -10 17.5t-4 19.5q0 40 50.5 72.5t129.5 32.5q104 0 146 -57.5t42 -161.5
q0 -82 -2.5 -141t-2.5 -96q0 -18 1.5 -38.5t3 -38t3 -30.5t1.5 -16q0 -11 -5 -18t-17 -9q-9 -3 -30 -4.5t-45 -2.5t-46.5 -1.5t-35.5 -0.5zM341 122v152q0 17 -5.5 24.5t-20.5 7.5q-84 0 -138 -34.5t-54 -100.5q0 -54 37 -72.5t117 -18.5q41 0 52.5 11.5t11.5 30.5zM159 684
q0 3 2.5 6.5t8.5 6.5q49 28 82 70t58 102q3 6 8 8t12 2q10 0 24 -2t27 -5q11 -3 15 -7.5t4 -11.5q0 -18 -18.5 -48.5t-49 -59.5t-71 -50t-83.5 -21q-3 0 -6.5 0.5t-6.5 1.5q-2 1 -4 3t-2 5z" />
    <glyph glyph-name="acircumflex" unicode="&#xe2;" horiz-adv-x="486" 
d="M249 -1q-109 0 -161 43t-52 125q0 96 75 147.5t201 67.5q18 3 23.5 13t5.5 26q0 55 -27.5 83.5t-85.5 28.5q-39 0 -72 -16.5t-59 -44.5q-4 -4 -7 -5.5t-7 -1.5q-3 0 -6 1.5t-7 5.5q-6 7 -10 17.5t-4 19.5q0 40 50.5 72.5t129.5 32.5q104 0 146 -57.5t42 -161.5
q0 -82 -2.5 -141t-2.5 -96q0 -18 1.5 -38.5t3 -38t3 -30.5t1.5 -16q0 -11 -5 -18t-17 -9q-9 -3 -30 -4.5t-45 -2.5t-46.5 -1.5t-35.5 -0.5zM341 122v152q0 17 -5.5 24.5t-20.5 7.5q-84 0 -138 -34.5t-54 -100.5q0 -54 37 -72.5t117 -18.5q41 0 52.5 11.5t11.5 30.5zM345 686
q-52 60 -73 73.5t-29 13.5t-28.5 -13.5t-75.5 -73.5q-4 -4 -8.5 -7t-8.5 -3q-7 0 -13 2.5t-13 6.5q-4 3 -6 6t-2 7q0 2 1 4.5t2 5.5q10 17 26 39t33.5 44t36 42.5t34.5 34.5q7 6 12.5 8t9.5 2t9.5 -2t12.5 -8q16 -14 34.5 -34.5t36 -42t33.5 -43.5t26 -39q1 -3 2.5 -6
t1.5 -6q0 -4 -2.5 -6.5t-6.5 -5.5q-8 -4 -13.5 -6.5t-13.5 -2.5q-5 0 -9 2t-9 8z" />
    <glyph glyph-name="atilde" unicode="&#xe3;" horiz-adv-x="486" 
d="M249 -1q-109 0 -161 43t-52 125q0 96 75 147.5t201 67.5q18 3 23.5 13t5.5 26q0 55 -27.5 83.5t-85.5 28.5q-39 0 -72 -16.5t-59 -44.5q-4 -4 -7 -5.5t-7 -1.5q-3 0 -6 1.5t-7 5.5q-6 7 -10 17.5t-4 19.5q0 40 50.5 72.5t129.5 32.5q104 0 146 -57.5t42 -161.5
q0 -82 -2.5 -141t-2.5 -96q0 -18 1.5 -38.5t3 -38t3 -30.5t1.5 -16q0 -11 -5 -18t-17 -9q-9 -3 -30 -4.5t-45 -2.5t-46.5 -1.5t-35.5 -0.5zM341 122v152q0 17 -5.5 24.5t-20.5 7.5q-84 0 -138 -34.5t-54 -100.5q0 -54 37 -72.5t117 -18.5q41 0 52.5 11.5t11.5 30.5zM72 728
q0 37 23 70.5t69 33.5q24 0 46.5 -7.5t44 -17t41.5 -17t38 -7.5q21 0 36.5 10.5t27.5 31.5q1 3 3.5 4.5t4.5 1.5q4 0 8 -7t4 -20q0 -41 -24 -76.5t-65 -35.5q-23 0 -45.5 10t-45 22.5t-45 22.5t-45.5 10q-17 0 -29.5 -8t-27.5 -27q-2 -3 -5 -5t-5 -2q-4 0 -6.5 3.5t-2.5 9.5
z" />
    <glyph glyph-name="adieresis" unicode="&#xe4;" horiz-adv-x="486" 
d="M249 -1q-109 0 -161 43t-52 125q0 96 75 147.5t201 67.5q18 3 23.5 13t5.5 26q0 55 -27.5 83.5t-85.5 28.5q-39 0 -72 -16.5t-59 -44.5q-4 -4 -7 -5.5t-7 -1.5q-3 0 -6 1.5t-7 5.5q-6 7 -10 17.5t-4 19.5q0 40 50.5 72.5t129.5 32.5q104 0 146 -57.5t42 -161.5
q0 -82 -2.5 -141t-2.5 -96q0 -18 1.5 -38.5t3 -38t3 -30.5t1.5 -16q0 -11 -5 -18t-17 -9q-9 -3 -30 -4.5t-45 -2.5t-46.5 -1.5t-35.5 -0.5zM341 122v152q0 17 -5.5 24.5t-20.5 7.5q-84 0 -138 -34.5t-54 -100.5q0 -54 37 -72.5t117 -18.5q41 0 52.5 11.5t11.5 30.5zM166 708
q-25 0 -39.5 15t-14.5 45t14.5 46.5t39.5 16.5t39.5 -16.5t14.5 -46.5t-14.5 -45t-39.5 -15zM316 708q-25 0 -39.5 15t-14.5 45t14.5 46.5t39.5 16.5t39.5 -16.5t14.5 -46.5t-14.5 -45t-39.5 -15z" />
    <glyph glyph-name="aring" unicode="&#xe5;" horiz-adv-x="486" 
d="M249 -1q-109 0 -161 43t-52 125q0 96 75 147.5t201 67.5q18 3 23.5 13t5.5 26q0 55 -27.5 83.5t-85.5 28.5q-39 0 -72 -16.5t-59 -44.5q-4 -4 -7 -5.5t-7 -1.5q-3 0 -6 1.5t-7 5.5q-6 7 -10 17.5t-4 19.5q0 40 50.5 72.5t129.5 32.5q104 0 146 -57.5t42 -161.5
q0 -82 -2.5 -141t-2.5 -96q0 -18 1.5 -38.5t3 -38t3 -30.5t1.5 -16q0 -11 -5 -18t-17 -9q-9 -3 -30 -4.5t-45 -2.5t-46.5 -1.5t-35.5 -0.5zM341 122v152q0 17 -5.5 24.5t-20.5 7.5q-84 0 -138 -34.5t-54 -100.5q0 -54 37 -72.5t117 -18.5q41 0 52.5 11.5t11.5 30.5zM240 675
q-55 0 -88.5 27t-33.5 76q0 51 33.5 80t88.5 29q59 0 91 -29t32 -80q0 -49 -32 -76t-91 -27zM240 730q28 0 43.5 13t15.5 35q0 25 -15.5 38.5t-43.5 13.5q-26 0 -41.5 -13.5t-15.5 -38.5q0 -22 15.5 -35t41.5 -13z" />
    <glyph glyph-name="ae" unicode="&#xe6;" horiz-adv-x="777" 
d="M734 160q0 -84 -76.5 -127t-263.5 -43q-84 0 -151 6.5t-112.5 25.5t-70 54t-24.5 91q0 96 74.5 147.5t199.5 67.5q18 3 23.5 13t5.5 26q0 55 -27 83.5t-84 28.5q-39 0 -72 -16.5t-59 -44.5q-4 -4 -7 -5.5t-7 -1.5q-3 0 -6 1.5t-7 5.5q-6 7 -10 17.5t-4 19.5
q0 40 50.5 72.5t129.5 32.5q58 0 96 -26.5t59 -61.5q2 -4 4.5 -6.5t6.5 -2.5q3 0 5.5 2.5l6.5 6.5q33 35 77.5 60.5t99.5 25.5q63 0 105 -35.5t42 -110.5q0 -66 -31 -103t-74.5 -59.5t-92 -38t-82.5 -39.5q-16 -10 -25 -22.5t-9 -46.5q0 -49 21 -67t65 -18q59 0 113.5 29.5
t82.5 95.5q1 4 3.5 5.5t5.5 1.5q4 0 7 -2.5t6 -7.5q2 -5 4 -13.5t2 -20.5zM435 287q4 0 7 1t6 3q27 18 62.5 35.5t67 36.5t53.5 43t22 56q0 33 -19 52t-53 19q-39 0 -69 -18t-50 -49t-30 -72.5t-10 -87.5q0 -7 3 -13t10 -6zM123 171q0 -50 37 -72t117 -22q41 0 52.5 11.5
t11.5 30.5v147q0 22 -6 31t-22 9q-84 0 -137 -34.5t-53 -100.5z" />
    <glyph glyph-name="ccedilla" unicode="&#xe7;" horiz-adv-x="442" 
d="M283 -18q-24 -64 -43 -92t-41 -28q-10 0 -25.5 3t-29.5 7q-13 4 -21 8.5t-8 12.5t8.5 15.5t23.5 16.5q40 25 49 38t9 18q0 4 -2 8t-9 5q-85 17 -123.5 86t-38.5 180q0 93 17 160.5t46.5 110t70 63t86.5 20.5q39 0 68.5 -15t48.5 -40.5t28.5 -60t9.5 -74.5
q0 -27 -23 -49.5t-39 -22.5q-8 0 -12.5 4t-5.5 14q-2 31 -5 60.5t-11 52t-23.5 36.5t-42.5 14q-52 0 -87.5 -64.5t-35.5 -183.5q0 -45 6 -84t20 -68t38 -45.5t60 -16.5q58 0 87.5 35.5t44.5 84.5q1 4 4 7t8 3q3 0 5.5 -1.5t5.5 -5.5q7 -11 11 -27t4 -36q0 -49 -31.5 -86
t-85.5 -49q-7 -1 -11 -5.5t-5 -8.5z" />
    <glyph glyph-name="egrave" unicode="&#xe8;" horiz-adv-x="473" 
d="M432 146q0 -35 -15 -64t-40.5 -49.5t-59.5 -31.5t-72 -11q-116 0 -165 82.5t-49 220.5q0 81 19.5 141t52.5 99.5t79 59t98 19.5q31 0 59 -9t49 -26.5t33.5 -45.5t12.5 -65q0 -66 -32 -102t-76 -57.5t-92 -38t-80 -42.5q-10 -9 -15.5 -20t-5.5 -24q0 -44 28.5 -77
t86.5 -33t93.5 30.5t60.5 94.5q1 3 3 4.5t5 1.5q8 0 15 -14.5t7 -42.5zM349 462q0 33 -19 52t-53 19q-38 0 -68 -17.5t-50 -47.5t-30.5 -70.5t-10.5 -86.5q0 -9 4 -16t11 -7q3 0 5.5 1t5.5 2q25 16 60.5 33t67.5 37t54.5 44.5t22.5 56.5zM334 685q0 3 -2.5 6.5t-8.5 6.5
q-49 28 -82 70t-58 102q-3 6 -8 8t-12 2q-10 0 -24 -2t-27 -5q-11 -3 -15 -7.5t-4 -11.5q0 -18 18.5 -48.5t49 -59.5t71 -50t83.5 -21q3 0 6.5 0.5t6.5 1.5q2 1 4 3t2 5z" />
    <glyph glyph-name="eacute" unicode="&#xe9;" horiz-adv-x="473" 
d="M432 146q0 -35 -15 -64t-40.5 -49.5t-59.5 -31.5t-72 -11q-116 0 -165 82.5t-49 220.5q0 81 19.5 141t52.5 99.5t79 59t98 19.5q31 0 59 -9t49 -26.5t33.5 -45.5t12.5 -65q0 -66 -32 -102t-76 -57.5t-92 -38t-80 -42.5q-10 -9 -15.5 -20t-5.5 -24q0 -44 28.5 -77
t86.5 -33t93.5 30.5t60.5 94.5q1 3 3 4.5t5 1.5q8 0 15 -14.5t7 -42.5zM349 462q0 33 -19 52t-53 19q-38 0 -68 -17.5t-50 -47.5t-30.5 -70.5t-10.5 -86.5q0 -9 4 -16t11 -7q3 0 5.5 1t5.5 2q25 16 60.5 33t67.5 37t54.5 44.5t22.5 56.5zM175 684q0 3 2.5 6.5t8.5 6.5
q49 28 82 70t58 102q3 6 8 8t12 2q10 0 24 -2t27 -5q11 -3 15 -7.5t4 -11.5q0 -18 -18.5 -48.5t-49 -59.5t-71 -50t-83.5 -21q-3 0 -6.5 0.5t-6.5 1.5q-2 1 -4 3t-2 5z" />
    <glyph glyph-name="ecircumflex" unicode="&#xea;" horiz-adv-x="473" 
d="M432 146q0 -35 -15 -64t-40.5 -49.5t-59.5 -31.5t-72 -11q-116 0 -165 82.5t-49 220.5q0 81 19.5 141t52.5 99.5t79 59t98 19.5q31 0 59 -9t49 -26.5t33.5 -45.5t12.5 -65q0 -66 -32 -102t-76 -57.5t-92 -38t-80 -42.5q-10 -9 -15.5 -20t-5.5 -24q0 -44 28.5 -77
t86.5 -33t93.5 30.5t60.5 94.5q1 3 3 4.5t5 1.5q8 0 15 -14.5t7 -42.5zM349 462q0 33 -19 52t-53 19q-38 0 -68 -17.5t-50 -47.5t-30.5 -70.5t-10.5 -86.5q0 -9 4 -16t11 -7q3 0 5.5 1t5.5 2q25 16 60.5 33t67.5 37t54.5 44.5t22.5 56.5zM362 686q-52 60 -73 73.5t-29 13.5
t-28.5 -13.5t-75.5 -73.5q-4 -4 -8.5 -7t-8.5 -3q-7 0 -13 2.5t-13 6.5q-4 3 -6 6t-2 7q0 2 1 4.5t2 5.5q10 17 26 39t33.5 44t36 42.5t34.5 34.5q7 6 12.5 8t9.5 2t9.5 -2t12.5 -8q16 -14 34.5 -34.5t36 -42t33.5 -43.5t26 -39q1 -3 2.5 -6t1.5 -6q0 -4 -2.5 -6.5
t-6.5 -5.5q-8 -4 -13.5 -6.5t-13.5 -2.5q-5 0 -9 2t-9 8z" />
    <glyph glyph-name="edieresis" unicode="&#xeb;" horiz-adv-x="473" 
d="M432 146q0 -35 -15 -64t-40.5 -49.5t-59.5 -31.5t-72 -11q-116 0 -165 82.5t-49 220.5q0 81 19.5 141t52.5 99.5t79 59t98 19.5q31 0 59 -9t49 -26.5t33.5 -45.5t12.5 -65q0 -66 -32 -102t-76 -57.5t-92 -38t-80 -42.5q-10 -9 -15.5 -20t-5.5 -24q0 -44 28.5 -77
t86.5 -33t93.5 30.5t60.5 94.5q1 3 3 4.5t5 1.5q8 0 15 -14.5t7 -42.5zM349 462q0 33 -19 52t-53 19q-38 0 -68 -17.5t-50 -47.5t-30.5 -70.5t-10.5 -86.5q0 -9 4 -16t11 -7q3 0 5.5 1t5.5 2q25 16 60.5 33t67.5 37t54.5 44.5t22.5 56.5zM186 708q-25 0 -39.5 15t-14.5 45
t14.5 46.5t39.5 16.5t39.5 -16.5t14.5 -46.5t-14.5 -45t-39.5 -15zM336 708q-25 0 -39.5 15t-14.5 45t14.5 46.5t39.5 16.5t39.5 -16.5t14.5 -46.5t-14.5 -45t-39.5 -15z" />
    <glyph glyph-name="igrave" unicode="&#xec;" horiz-adv-x="226" 
d="M167 700q7 -6 9.5 -9t2.5 -7q0 -3 -2 -5t-4 -3q-3 -1 -6.5 -1.5t-6.5 -0.5q-29 0 -55.5 17.5t-47 41.5t-32.5 49.5t-12 40.5q0 7 4 11.5t15 7.5q13 3 27 5t24 2q7 0 12 -2t8 -8q12 -49 27 -84.5t37 -54.5zM166 16q0 -8 -5 -11.5t-12 -4.5t-15 -1.5t-15 -0.5t-14 0.5
t-14 1.5q-8 1 -14 4.5t-7 15.5q-4 51 -7 111.5t-3 123.5q0 86 4.5 172t14.5 156q2 13 7.5 17t15.5 5q5 1 10.5 1h11.5h10.5t10.5 -1q8 -1 12.5 -4.5t4.5 -12.5q0 -13 -5.5 -94t-5.5 -227q0 -101 7.5 -167.5t7.5 -83.5z" />
    <glyph glyph-name="iacute" unicode="&#xed;" horiz-adv-x="226" 
d="M71 676q-2 1 -4 3t-2 5q0 4 2.5 7t9.5 9q22 19 37 54.5t27 84.5q3 6 8 8t12 2q10 0 24 -2t27 -5q11 -3 15 -7.5t4 -11.5q0 -15 -12 -40.5t-32.5 -49.5t-47 -41.5t-55.5 -17.5q-3 0 -6.5 0.5t-6.5 1.5zM166 16q0 -8 -5 -11.5t-12 -4.5t-15 -1.5t-15 -0.5t-14 0.5t-14 1.5
q-8 1 -14 4.5t-7 15.5q-4 51 -7 111.5t-3 123.5q0 86 4.5 172t14.5 156q2 13 7.5 17t15.5 5q5 1 10.5 1h11.5h10.5t10.5 -1q8 -1 12.5 -4.5t4.5 -12.5q0 -13 -5.5 -94t-5.5 -227q0 -101 7.5 -167.5t7.5 -83.5z" />
    <glyph glyph-name="icircumflex" unicode="&#xee;" horiz-adv-x="226" 
d="M193 692q-37 33 -48 40.5t-17 7.5t-17.5 -7t-49.5 -41l-15 -12t-9 -4q-7 0 -13 2.5t-13 6.5q-4 3 -6 6t-2 7q0 2 1 4.5t2 5.5q16 28 46 66.5t54 60.5q7 6 12.5 8t9.5 2t9.5 -2t12.5 -8q25 -23 56 -61.5t47 -66.5q1 -3 2.5 -6t1.5 -6q0 -4 -2.5 -6.5t-6.5 -5.5
q-7 -4 -13 -6.5t-14 -2.5q-5 0 -10 3.5t-18 14.5zM166 16q0 -8 -5 -11.5t-12 -4.5t-15 -1.5t-15 -0.5t-14 0.5t-14 1.5q-8 1 -14 4.5t-7 15.5q-4 51 -7 111.5t-3 123.5q0 86 4.5 172t14.5 156q2 13 7.5 17t15.5 5q5 1 10.5 1h11.5h10.5t10.5 -1q8 -1 12.5 -4.5t4.5 -12.5
q0 -13 -5.5 -94t-5.5 -227q0 -101 7.5 -167.5t7.5 -83.5z" />
    <glyph glyph-name="idieresis" unicode="&#xef;" horiz-adv-x="226" 
d="M166 16q0 -8 -5 -11.5t-12 -4.5t-15 -1.5t-15 -0.5t-14 0.5t-14 1.5q-8 1 -14 4.5t-7 15.5q-4 51 -7 111.5t-3 123.5q0 86 4.5 172t14.5 156q2 13 7.5 17t15.5 5q5 1 10.5 1h11.5h10.5t10.5 -1q8 -1 12.5 -4.5t4.5 -12.5q0 -13 -5.5 -94t-5.5 -227q0 -101 7.5 -167.5
t7.5 -83.5zM62 708q-22 0 -35.5 13.5t-13.5 40.5t13.5 42t35.5 15q23 0 36 -15t13 -42t-13 -40.5t-36 -13.5zM199 708q-23 0 -36 13.5t-13 40.5t13 42t36 15q22 0 35 -15t13 -42t-13 -40.5t-35 -13.5z" />
    <glyph glyph-name="eth" unicode="&#xf0;" horiz-adv-x="516" 
d="M260 -10q-59 0 -101 19.5t-69 54.5t-40 85t-13 110q0 149 52 220t136 71q43 0 76.5 -22.5t55.5 -45.5q2 -2 5 -3.5t5 -1.5q4 0 7 3.5t3 10.5q0 35 -24 74.5t-61 76.5q-4 4 -10 5.5t-11 1.5q-9 0 -27 -5.5t-37 -11.5t-36.5 -11.5t-24.5 -5.5q-9 0 -16.5 10.5t-7.5 19.5
q0 11 8.5 16.5t40.5 13.5q31 8 38.5 12t7.5 8q0 7 -18 16.5t-48 21.5q-42 16 -52 21t-10 11q0 7 6.5 14.5t16.5 15.5q7 6 15 9t18 3q4 0 10 -1t11 -3q60 -22 92 -45.5t42 -23.5t20 6.5t23 15.5q19 13 28 18.5t17 5.5q13 0 29 -14t16 -30q0 -7 -12 -15t-54 -26
q-5 -2 -8.5 -5.5t-3.5 -7.5q0 -2 1.5 -4t3.5 -4q52 -52 80.5 -135t28.5 -196q0 -74 -8.5 -139t-31.5 -112t-64 -74.5t-105 -27.5zM263 76q53 0 85.5 51.5t32.5 158.5q0 44 -12 78.5t-31 58t-43 36t-49 12.5q-57 0 -90 -48.5t-33 -150.5q0 -109 37 -152.5t103 -43.5z" />
    <glyph glyph-name="ntilde" unicode="&#xf1;" horiz-adv-x="521" 
d="M316 612q74 0 114 -58.5t40 -204.5q0 -50 -2.5 -102t-6 -97t-7.5 -79t-6 -49q-1 -10 -7.5 -15.5t-14.5 -6.5q-4 -1 -9.5 -1h-10.5q-8 0 -16.5 0.5t-15.5 1.5q-9 1 -13 6.5t-4 13.5t3.5 38t7.5 77t7.5 109.5t3.5 135.5q0 71 -16.5 111.5t-70.5 40.5q-28 0 -54.5 -10
t-45.5 -29q-10 -10 -18 -23t-14 -33.5t-9 -52t-3 -78.5q0 -40 2 -86t5 -86.5t5 -70.5t2 -37q0 -13 -5 -19.5t-17 -7.5q-4 -1 -9 -1h-10h-12.5t-11.5 1q-10 1 -17 5.5t-8 20.5q-6 55 -10 124.5t-4 150.5q0 61 2.5 129.5t8.5 140.5q1 19 9 25t19 7q6 1 11 1h10h10.5t12.5 -1
q10 -1 14.5 -6t4.5 -15q0 -7 2 -12t7 -5q7 0 20.5 7.5t32.5 16t43 16t51 7.5zM91 728q0 37 23 70.5t69 33.5q24 0 46.5 -7.5t44 -17t41.5 -17t38 -7.5q21 0 36.5 10.5t27.5 31.5q1 3 3.5 4.5t4.5 1.5q4 0 8 -7t4 -20q0 -41 -24 -76.5t-65 -35.5q-23 0 -45.5 10t-45 22.5
t-45 22.5t-45.5 10q-17 0 -29.5 -8t-27.5 -27q-2 -3 -5 -5t-5 -2q-4 0 -6.5 3.5t-2.5 9.5z" />
    <glyph glyph-name="ograve" unicode="&#xf2;" horiz-adv-x="503" 
d="M251 72q70 0 100 57t30 164q0 115 -34.5 178t-92.5 63q-63 0 -96.5 -63.5t-33.5 -177.5q0 -107 29.5 -164t97.5 -57zM245 -10q-101 0 -156 70t-55 227q0 73 14 133.5t42 103t70 66.5t96 24q113 0 163 -88.5t50 -238.5q0 -157 -61.5 -227t-162.5 -70zM339 684
q0 3 -2.5 6.5t-8.5 6.5q-49 28 -82 70t-58 102q-3 6 -8 8t-12 2q-10 0 -24 -2t-27 -5q-11 -3 -15 -7.5t-4 -11.5q0 -18 18.5 -48.5t49 -59.5t71 -50t83.5 -21q3 0 6.5 0.5t6.5 1.5q2 1 4 3t2 5z" />
    <glyph glyph-name="oacute" unicode="&#xf3;" horiz-adv-x="503" 
d="M251 72q70 0 100 57t30 164q0 115 -34.5 178t-92.5 63q-63 0 -96.5 -63.5t-33.5 -177.5q0 -107 29.5 -164t97.5 -57zM245 -10q-101 0 -156 70t-55 227q0 73 14 133.5t42 103t70 66.5t96 24q113 0 163 -88.5t50 -238.5q0 -157 -61.5 -227t-162.5 -70zM170 684q0 3 2.5 6.5
t8.5 6.5q49 28 82 70t58 102q3 6 8 8t12 2q10 0 24 -2t27 -5q11 -3 15 -7.5t4 -11.5q0 -18 -18.5 -48.5t-49 -59.5t-71 -50t-83.5 -21q-3 0 -6.5 0.5t-6.5 1.5q-2 1 -4 3t-2 5z" />
    <glyph glyph-name="ocircumflex" unicode="&#xf4;" horiz-adv-x="503" 
d="M251 72q70 0 100 57t30 164q0 115 -34.5 178t-92.5 63q-63 0 -96.5 -63.5t-33.5 -177.5q0 -107 29.5 -164t97.5 -57zM245 -10q-101 0 -156 70t-55 227q0 73 14 133.5t42 103t70 66.5t96 24q113 0 163 -88.5t50 -238.5q0 -157 -61.5 -227t-162.5 -70zM357 686
q-52 60 -73 73.5t-29 13.5t-28.5 -13.5t-75.5 -73.5q-4 -4 -8.5 -7t-8.5 -3q-7 0 -13 2.5t-13 6.5q-4 3 -6 6t-2 7q0 2 1 4.5t2 5.5q10 17 26 39t33.5 44t36 42.5t34.5 34.5q7 6 12.5 8t9.5 2t9.5 -2t12.5 -8q16 -14 34.5 -34.5t36 -42t33.5 -43.5t26 -39q1 -3 2.5 -6
t1.5 -6q0 -4 -2.5 -6.5t-6.5 -5.5q-8 -4 -13.5 -6.5t-13.5 -2.5q-5 0 -9 2t-9 8z" />
    <glyph glyph-name="otilde" unicode="&#xf5;" horiz-adv-x="503" 
d="M251 72q70 0 100 57t30 164q0 115 -34.5 178t-92.5 63q-63 0 -96.5 -63.5t-33.5 -177.5q0 -107 29.5 -164t97.5 -57zM245 -10q-101 0 -156 70t-55 227q0 73 14 133.5t42 103t70 66.5t96 24q113 0 163 -88.5t50 -238.5q0 -157 -61.5 -227t-162.5 -70zM82 728q0 37 23 70.5
t69 33.5q24 0 46.5 -7.5t44 -17t41.5 -17t38 -7.5q21 0 36.5 10.5t27.5 31.5q1 3 3.5 4.5t4.5 1.5q4 0 8 -7t4 -20q0 -41 -24 -76.5t-65 -35.5q-23 0 -45.5 10t-45 22.5t-45 22.5t-45.5 10q-17 0 -29.5 -8t-27.5 -27q-2 -3 -5 -5t-5 -2q-4 0 -6.5 3.5t-2.5 9.5z" />
    <glyph glyph-name="odieresis" unicode="&#xf6;" horiz-adv-x="503" 
d="M251 72q70 0 100 57t30 164q0 115 -34.5 178t-92.5 63q-63 0 -96.5 -63.5t-33.5 -177.5q0 -107 29.5 -164t97.5 -57zM245 -10q-101 0 -156 70t-55 227q0 73 14 133.5t42 103t70 66.5t96 24q113 0 163 -88.5t50 -238.5q0 -157 -61.5 -227t-162.5 -70zM180 708
q-25 0 -39.5 15t-14.5 45t14.5 46.5t39.5 16.5t39.5 -16.5t14.5 -46.5t-14.5 -45t-39.5 -15zM330 708q-25 0 -39.5 15t-14.5 45t14.5 46.5t39.5 16.5t39.5 -16.5t14.5 -46.5t-14.5 -45t-39.5 -15z" />
    <glyph glyph-name="divide" unicode="&#xf7;" horiz-adv-x="442" 
d="M239 304q-51 0 -103 1t-90 2q-8 0 -12 4.5t-4 14.5q0 12 2 26t4 22q2 10 9 14.5t16 5.5q35 1 82.5 2t95.5 1q43 0 83 -1t68 -2q13 -1 17.5 -7t4.5 -18q0 -8 -1 -20t-3 -22q-2 -9 -7.5 -14t-15.5 -6q-28 -1 -66.5 -2t-79.5 -1zM227 470q-26 0 -41.5 13.5t-15.5 38.5
q0 26 15.5 41t41.5 15q25 0 40 -15t15 -41q0 -25 -15 -38.5t-40 -13.5zM227 108q-26 0 -41.5 13.5t-15.5 38.5q0 26 15.5 41t41.5 15q25 0 40 -15t15 -41q0 -25 -15 -38.5t-40 -13.5z" />
    <glyph glyph-name="oslash" unicode="&#xf8;" horiz-adv-x="503" 
d="M124 204q1 -5 3 -7t4 -2t4 1.5t5 4.5q50 66 103.5 138.5t98.5 132.5q1 2 2 4.5t1 4.5t-1 4.5t-3 5.5q-16 22 -38.5 34.5t-48.5 12.5q-66 0 -101 -64.5t-35 -181.5q0 -25 1.5 -47t4.5 -41zM164 112q0 -15 27.5 -29.5t59.5 -14.5q73 0 104 58t31 166q0 26 -2 50t-5 44
q-1 5 -2.5 8.5t-4.5 3.5q-1 0 -3 -1t-3 -3q-49 -68 -100.5 -138t-95.5 -130q-3 -4 -4.5 -7.5t-1.5 -6.5zM99 30q-7 -10 -12 -17l-10 -14q-4 -5 -8 -8.5t-9 -3.5q-2 0 -4.5 1t-5.5 2q-11 6 -18.5 11.5t-14.5 11.5q-3 3 -4.5 6.5t-1.5 7.5q0 3 1.5 7.5t5.5 8.5l18 22.5
t21 26.5q2 3 3 6t1 6t-1 6l-2 6q-12 34 -18 76.5t-6 94.5q0 73 14 133.5t42 103t70 66.5t96 24q43 0 77 -14t59 -39q2 -2 4 -3t3 -1q2 0 4.5 1.5t4.5 4.5q11 15 20 26t13 18t9.5 9.5t10.5 2.5q7 0 13.5 -2.5t12.5 -5.5q7 -3 11 -7.5t4 -10.5q0 -3 -1.5 -7t-4.5 -8
q-10 -15 -23.5 -34.5t-29.5 -41.5l-2 -6t-1 -7v-5t1 -5q15 -39 21.5 -87.5t6.5 -104.5q0 -157 -61.5 -227t-162.5 -70q-39 0 -72 10t-58 31q-2 2 -4.5 3t-3.5 1q-2 0 -4 -1t-4 -4z" />
    <glyph glyph-name="ugrave" unicode="&#xf9;" horiz-adv-x="531" 
d="M206 -7q-86 0 -118 70t-32 198q0 42 2 89.5t5 91t6.5 78t6.5 50.5q2 16 8 23.5t18 8.5q5 1 12.5 1.5t14.5 0.5t12.5 -0.5t9.5 -1.5q9 -1 13.5 -6.5t4.5 -14.5t-4 -43t-9 -82t-9 -104.5t-4 -108.5q0 -95 25 -130.5t71 -35.5q29 0 50.5 10t37.5 26q28 25 40.5 70.5
t12.5 124.5q0 107 -11 181t-11 90q0 12 5.5 17t16.5 7q4 1 9.5 1h11.5h10.5t10.5 -1q14 -1 22.5 -7.5t10.5 -27.5q7 -61 11 -131.5t4 -145.5q0 -62 -4 -127.5t-13 -134.5q-1 -14 -7 -20t-14 -7q-5 -1 -11 -1h-12h-16.5t-15.5 1q-8 1 -13 6t-5 17q0 10 -3 14.5t-10 4.5
q-11 0 -25 -8t-31 -17.5t-38 -17.5t-46 -8zM347 684q0 3 -2.5 6.5t-8.5 6.5q-49 28 -82 70t-58 102q-3 6 -8 8t-12 2q-10 0 -24 -2t-27 -5q-11 -3 -15 -7.5t-4 -11.5q0 -18 18.5 -48.5t49 -59.5t71 -50t83.5 -21q3 0 6.5 0.5t6.5 1.5q2 1 4 3t2 5z" />
    <glyph glyph-name="uacute" unicode="&#xfa;" horiz-adv-x="531" 
d="M206 -7q-86 0 -118 70t-32 198q0 42 2 89.5t5 91t6.5 78t6.5 50.5q2 16 8 23.5t18 8.5q5 1 12.5 1.5t14.5 0.5t12.5 -0.5t9.5 -1.5q9 -1 13.5 -6.5t4.5 -14.5t-4 -43t-9 -82t-9 -104.5t-4 -108.5q0 -95 25 -130.5t71 -35.5q29 0 50.5 10t37.5 26q28 25 40.5 70.5
t12.5 124.5q0 107 -11 181t-11 90q0 12 5.5 17t16.5 7q4 1 9.5 1h11.5h10.5t10.5 -1q14 -1 22.5 -7.5t10.5 -27.5q7 -61 11 -131.5t4 -145.5q0 -62 -4 -127.5t-13 -134.5q-1 -14 -7 -20t-14 -7q-5 -1 -11 -1h-12h-16.5t-15.5 1q-8 1 -13 6t-5 17q0 10 -3 14.5t-10 4.5
q-11 0 -25 -8t-31 -17.5t-38 -17.5t-46 -8zM178 684q0 3 2.5 6.5t8.5 6.5q49 28 82 70t58 102q3 6 8 8t12 2q10 0 24 -2t27 -5q11 -3 15 -7.5t4 -11.5q0 -18 -18.5 -48.5t-49 -59.5t-71 -50t-83.5 -21q-3 0 -6.5 0.5t-6.5 1.5q-2 1 -4 3t-2 5z" />
    <glyph glyph-name="ucircumflex" unicode="&#xfb;" horiz-adv-x="531" 
d="M206 -7q-86 0 -118 70t-32 198q0 42 2 89.5t5 91t6.5 78t6.5 50.5q2 16 8 23.5t18 8.5q5 1 12.5 1.5t14.5 0.5t12.5 -0.5t9.5 -1.5q9 -1 13.5 -6.5t4.5 -14.5t-4 -43t-9 -82t-9 -104.5t-4 -108.5q0 -95 25 -130.5t71 -35.5q29 0 50.5 10t37.5 26q28 25 40.5 70.5
t12.5 124.5q0 107 -11 181t-11 90q0 12 5.5 17t16.5 7q4 1 9.5 1h11.5h10.5t10.5 -1q14 -1 22.5 -7.5t10.5 -27.5q7 -61 11 -131.5t4 -145.5q0 -62 -4 -127.5t-13 -134.5q-1 -14 -7 -20t-14 -7q-5 -1 -11 -1h-12h-16.5t-15.5 1q-8 1 -13 6t-5 17q0 10 -3 14.5t-10 4.5
q-11 0 -25 -8t-31 -17.5t-38 -17.5t-46 -8zM365 686q-52 60 -73 73.5t-29 13.5t-28.5 -13.5t-75.5 -73.5q-4 -4 -8.5 -7t-8.5 -3q-7 0 -13 2.5t-13 6.5q-4 3 -6 6t-2 7q0 2 1 4.5t2 5.5q10 17 26 39t33.5 44t36 42.5t34.5 34.5q7 6 12.5 8t9.5 2t9.5 -2t12.5 -8
q16 -14 34.5 -34.5t36 -42t33.5 -43.5t26 -39q1 -3 2.5 -6t1.5 -6q0 -4 -2.5 -6.5t-6.5 -5.5q-8 -4 -13.5 -6.5t-13.5 -2.5q-5 0 -9 2t-9 8z" />
    <glyph glyph-name="udieresis" unicode="&#xfc;" horiz-adv-x="531" 
d="M206 -7q-86 0 -118 70t-32 198q0 42 2 89.5t5 91t6.5 78t6.5 50.5q2 16 8 23.5t18 8.5q5 1 12.5 1.5t14.5 0.5t12.5 -0.5t9.5 -1.5q9 -1 13.5 -6.5t4.5 -14.5t-4 -43t-9 -82t-9 -104.5t-4 -108.5q0 -95 25 -130.5t71 -35.5q29 0 50.5 10t37.5 26q28 25 40.5 70.5
t12.5 124.5q0 107 -11 181t-11 90q0 12 5.5 17t16.5 7q4 1 9.5 1h11.5h10.5t10.5 -1q14 -1 22.5 -7.5t10.5 -27.5q7 -61 11 -131.5t4 -145.5q0 -62 -4 -127.5t-13 -134.5q-1 -14 -7 -20t-14 -7q-5 -1 -11 -1h-12h-16.5t-15.5 1q-8 1 -13 6t-5 17q0 10 -3 14.5t-10 4.5
q-11 0 -25 -8t-31 -17.5t-38 -17.5t-46 -8zM188 708q-25 0 -39.5 15t-14.5 45t14.5 46.5t39.5 16.5t39.5 -16.5t14.5 -46.5t-14.5 -45t-39.5 -15zM338 708q-25 0 -39.5 15t-14.5 45t14.5 46.5t39.5 16.5t39.5 -16.5t14.5 -46.5t-14.5 -45t-39.5 -15z" />
    <glyph glyph-name="yacute" unicode="&#xfd;" horiz-adv-x="462" 
d="M39 63q2 13 8.5 16t17.5 3q40 0 75.5 6.5t63.5 16.5q34 13 54.5 30t20.5 33q0 4 -3 6.5t-7 3.5q-116 44 -172.5 136.5t-56.5 241.5q0 25 3.5 36t19.5 12q5 1 12.5 1h15.5q7 0 13 -0.5t10 -1.5q7 -1 12 -4.5t5 -16.5q0 -3 -0.5 -14t-0.5 -19q0 -84 19 -141.5t45.5 -92.5
t56.5 -50.5t51 -15.5q8 0 13.5 4.5t9.5 16.5q10 34 16 91.5t6 117.5q0 31 -2.5 63t-2.5 42t6 14t13 5t16 1h17h13.5t11.5 -1q13 -1 16 -10t3 -25q0 -128 -17 -235.5t-59.5 -184.5t-116.5 -120t-187 -43q-12 0 -16 5t-5 14q-1 5 -1 12v12q0 10 1 19t2 16zM152 684
q0 3 2.5 6.5t8.5 6.5q49 28 82 70t58 102q3 6 8 8t12 2q10 0 24 -2t27 -5q11 -3 15 -7.5t4 -11.5q0 -18 -18.5 -48.5t-49 -59.5t-71 -50t-83.5 -21q-3 0 -6.5 0.5t-6.5 1.5q-2 1 -4 3t-2 5z" />
    <glyph glyph-name="thorn" unicode="&#xfe;" horiz-adv-x="501" 
d="M242 530q-31 0 -50 -3t-29 -16t-13 -39.5t-3 -73.5q0 -116 32 -160.5t91 -44.5q29 0 51.5 16.5t37.5 44t23 64t8 75.5q0 70 -39.5 103.5t-108.5 33.5zM153 -18q-4 -1 -10 -1h-12h-15t-15 1q-10 1 -18.5 6.5t-9.5 22.5q-6 65 -8.5 140.5t-2.5 154.5q0 122 7.5 249.5
t23.5 236.5q2 16 7.5 20t15.5 5q4 1 9.5 1h11.5h11.5t9.5 -1q7 -1 12.5 -5.5t5.5 -14.5q0 -3 -2.5 -25.5t-6 -51t-6 -57.5t-2.5 -46q0 -7 2 -11t7 -4q10 0 36 3.5t54 3.5q59 0 100.5 -16.5t67 -45t37.5 -67.5t12 -84q0 -60 -14 -112t-39 -90.5t-59 -60.5t-73 -22
q-26 0 -51.5 13t-42.5 23q-7 4 -13.5 7t-9.5 3q-5 0 -8.5 -4.5t-3.5 -11.5q0 -15 1.5 -36.5t4 -43t4 -38.5t1.5 -22q0 -10 -5 -14t-14 -5z" />
    <glyph glyph-name="ydieresis" unicode="&#xff;" horiz-adv-x="462" 
d="M39 63q2 13 8.5 16t17.5 3q40 0 75.5 6.5t63.5 16.5q34 13 54.5 30t20.5 33q0 4 -3 6.5t-7 3.5q-116 44 -172.5 136.5t-56.5 241.5q0 25 3.5 36t19.5 12q5 1 12.5 1h15.5q7 0 13 -0.5t10 -1.5q7 -1 12 -4.5t5 -16.5q0 -3 -0.5 -14t-0.5 -19q0 -84 19 -141.5t45.5 -92.5
t56.5 -50.5t51 -15.5q8 0 13.5 4.5t9.5 16.5q10 34 16 91.5t6 117.5q0 31 -2.5 63t-2.5 42t6 14t13 5t16 1h17h13.5t11.5 -1q13 -1 16 -10t3 -25q0 -128 -17 -235.5t-59.5 -184.5t-116.5 -120t-187 -43q-12 0 -16 5t-5 14q-1 5 -1 12v12q0 10 1 19t2 16zM162 708
q-25 0 -39.5 15t-14.5 45t14.5 46.5t39.5 16.5t39.5 -16.5t14.5 -46.5t-14.5 -45t-39.5 -15zM312 708q-25 0 -39.5 15t-14.5 45t14.5 46.5t39.5 16.5t39.5 -16.5t14.5 -46.5t-14.5 -45t-39.5 -15z" />
    <glyph glyph-name="Amacron" unicode="&#x100;" horiz-adv-x="624" 
d="M117 -1h-14t-14 1q-10 1 -16.5 5.5t-7.5 17.5q-4 40 -6.5 81t-2.5 82q0 79 10.5 158t37 153.5t72 143t116.5 126.5q7 5 12.5 7.5t11.5 2.5t11.5 -2.5t11.5 -7.5q131 -116 179.5 -257.5t48.5 -323.5q0 -39 -2 -80t-7 -86q-1 -10 -7.5 -13.5t-16.5 -4.5q-7 -1 -14 -1.5
t-15 -0.5t-15 0.5t-11 1.5q-7 2 -10 7t-3 13q0 20 8 52.5t8 78.5q0 50 -31 72t-99 22q-41 0 -79.5 -7.5t-67 -23t-46 -38.5t-17.5 -54q0 -29 9.5 -55.5t10.5 -44.5q1 -9 -2 -14t-10 -8q-6 -1 -14.5 -2t-18.5 -1zM161 283q8 0 24.5 6.5t40 14t54.5 14t68 6.5q41 0 65.5 -2.5
t37.5 -2.5q11 0 14 6t3 16q0 44 -12 91t-31.5 89.5t-44 79.5t-49.5 61q-5 4 -8.5 7.5t-7.5 3.5t-7.5 -3t-10.5 -8q-35 -29 -62.5 -75.5t-46.5 -97.5t-29 -102t-10 -90q0 -7 3.5 -10.5t8.5 -3.5zM468 892q-2 -13 -8.5 -17.5t-23.5 -5.5q-18 -1 -41 -2t-48 -1q-44 0 -89.5 2
t-76.5 4q-14 1 -19.5 6t-6.5 15q-1 4 -1 9.5v9.5v9t1 9q1 11 7 14.5t17 4.5q17 1 40 1h48q47 0 96 -1t79 -2q13 -1 19 -5.5t7 -14.5q1 -3 1 -7.5v-8.5v-9t-1 -10z" />
    <glyph glyph-name="amacron" unicode="&#x101;" horiz-adv-x="486" 
d="M249 -1q-109 0 -161 43t-52 125q0 96 75 147.5t201 67.5q18 3 23.5 13t5.5 26q0 55 -27.5 83.5t-85.5 28.5q-39 0 -72 -16.5t-59 -44.5q-4 -4 -7 -5.5t-7 -1.5q-3 0 -6 1.5t-7 5.5q-6 7 -10 17.5t-4 19.5q0 40 50.5 72.5t129.5 32.5q104 0 146 -57.5t42 -161.5
q0 -82 -2.5 -141t-2.5 -96q0 -18 1.5 -38.5t3 -38t3 -30.5t1.5 -16q0 -11 -5 -18t-17 -9q-9 -3 -30 -4.5t-45 -2.5t-46.5 -1.5t-35.5 -0.5zM341 122v152q0 17 -5.5 24.5t-20.5 7.5q-84 0 -138 -34.5t-54 -100.5q0 -54 37 -72.5t117 -18.5q41 0 52.5 11.5t11.5 30.5zM404 749
q-2 -13 -8.5 -17.5t-23.5 -5.5q-18 -1 -41 -2t-48 -1q-44 0 -89.5 2t-76.5 4q-14 1 -19.5 6t-6.5 15q-1 4 -1 9.5v9.5v9t1 9q1 11 7 14.5t17 4.5q17 1 40 1h48q47 0 96 -1t79 -2q13 -1 19 -5.5t7 -14.5q1 -3 1 -7.5v-8.5v-9t-1 -10z" />
    <glyph glyph-name="Abreve" unicode="&#x102;" horiz-adv-x="624" 
d="M117 -1h-14t-14 1q-10 1 -16.5 5.5t-7.5 17.5q-4 40 -6.5 81t-2.5 82q0 79 10.5 158t37 153.5t72 143t116.5 126.5q7 5 12.5 7.5t11.5 2.5t11.5 -2.5t11.5 -7.5q131 -116 179.5 -257.5t48.5 -323.5q0 -39 -2 -80t-7 -86q-1 -10 -7.5 -13.5t-16.5 -4.5q-7 -1 -14 -1.5
t-15 -0.5t-15 0.5t-11 1.5q-7 2 -10 7t-3 13q0 20 8 52.5t8 78.5q0 50 -31 72t-99 22q-41 0 -79.5 -7.5t-67 -23t-46 -38.5t-17.5 -54q0 -29 9.5 -55.5t10.5 -44.5q1 -9 -2 -14t-10 -8q-6 -1 -14.5 -2t-18.5 -1zM161 283q8 0 24.5 6.5t40 14t54.5 14t68 6.5q41 0 65.5 -2.5
t37.5 -2.5q11 0 14 6t3 16q0 44 -12 91t-31.5 89.5t-44 79.5t-49.5 61q-5 4 -8.5 7.5t-7.5 3.5t-7.5 -3t-10.5 -8q-35 -29 -62.5 -75.5t-46.5 -97.5t-29 -102t-10 -90q0 -7 3.5 -10.5t8.5 -3.5zM311 835q-81 0 -114.5 38t-33.5 90q0 19 6.5 25.5t25.5 6.5q22 0 31 -4.5
t10 -21.5q3 -32 21 -49t56 -17q40 0 58.5 17t22.5 51q1 16 8.5 20t26.5 4t25.5 -5.5t6.5 -23.5q0 -54 -34 -92.5t-116 -38.5z" />
    <glyph glyph-name="abreve" unicode="&#x103;" horiz-adv-x="486" 
d="M249 -1q-109 0 -161 43t-52 125q0 96 75 147.5t201 67.5q18 3 23.5 13t5.5 26q0 55 -27.5 83.5t-85.5 28.5q-39 0 -72 -16.5t-59 -44.5q-4 -4 -7 -5.5t-7 -1.5q-3 0 -6 1.5t-7 5.5q-6 7 -10 17.5t-4 19.5q0 40 50.5 72.5t129.5 32.5q104 0 146 -57.5t42 -161.5
q0 -82 -2.5 -141t-2.5 -96q0 -18 1.5 -38.5t3 -38t3 -30.5t1.5 -16q0 -11 -5 -18t-17 -9q-9 -3 -30 -4.5t-45 -2.5t-46.5 -1.5t-35.5 -0.5zM341 122v152q0 17 -5.5 24.5t-20.5 7.5q-84 0 -138 -34.5t-54 -100.5q0 -54 37 -72.5t117 -18.5q41 0 52.5 11.5t11.5 30.5zM244 692
q-81 0 -114.5 38t-33.5 90q0 19 6.5 25.5t25.5 6.5q22 0 31 -4.5t10 -21.5q3 -32 21 -49t56 -17q40 0 58.5 17t22.5 51q1 16 8.5 20t26.5 4t25.5 -5.5t6.5 -23.5q0 -54 -34 -92.5t-116 -38.5z" />
    <glyph glyph-name="Aogonek" unicode="&#x104;" horiz-adv-x="624" 
d="M482 -95q-43 0 -62.5 21.5t-19.5 51.5q0 26 12 44.5t26.5 31t26.5 21t12 14.5q0 3 -2.5 6t-6.5 5t-6 5.5t-2 7.5q0 13 11 30t11 45q0 31 -31 45t-99 14q-41 0 -79.5 -7.5t-67 -23t-46 -38.5t-17.5 -54q0 -29 9.5 -55.5t10.5 -44.5q1 -9 -2 -14t-10 -8q-6 -1 -14.5 -2
t-18.5 -1h-14t-14 1q-10 1 -16.5 5.5t-7.5 17.5q-4 40 -6.5 81t-2.5 82q0 79 10.5 158t37 153.5t72 143t116.5 126.5q7 5 12.5 7.5t11.5 2.5t11.5 -2.5t11.5 -7.5q131 -109 179.5 -242t48.5 -304q0 -26 -2.5 -58t-6.5 -53q-2 -7 -5.5 -11t-8.5 -6q-28 -13 -51 -38t-23 -53
q0 -16 9.5 -26t31.5 -10q21 0 29.5 6.5t18.5 6.5q5 0 9 -4t4 -9q0 -20 -25 -40.5t-65 -20.5zM161 283q8 0 24.5 6.5t40 14t54.5 14t68 6.5q41 0 65.5 -2.5t37.5 -2.5q11 0 14 6t3 16q0 44 -12 91t-31.5 89.5t-44 79.5t-49.5 61q-5 4 -8.5 7.5t-7.5 3.5t-7.5 -3t-10.5 -8
q-35 -29 -62.5 -75.5t-46.5 -97.5t-29 -102t-10 -90q0 -7 3.5 -10.5t8.5 -3.5z" />
    <glyph glyph-name="aogonek" unicode="&#x105;" horiz-adv-x="486" 
d="M342 -95q-43 0 -62.5 21.5t-19.5 51.5q0 22 10.5 38t22.5 27t22.5 19t10.5 14q0 3 -3 5.5t-10 2.5q-19 0 -36.5 -0.5t-27.5 -0.5q-109 0 -161 40.5t-52 117.5q0 78 75 120t201 55q18 3 23.5 13t5.5 26q0 39 -27.5 58.5t-85.5 19.5q-39 0 -72 -16.5t-59 -44.5
q-4 -4 -7 -5.5t-7 -1.5q-3 0 -6 1.5t-7 5.5q-6 7 -10 17.5t-4 19.5q0 40 50.5 72.5t129.5 32.5q104 0 146 -48.5t42 -136.5q0 -68 -2.5 -117t-2.5 -80q0 -17 1.5 -35.5t3 -35t3 -28t1.5 -14.5q0 -10 -3.5 -15.5t-11.5 -9.5q-28 -12 -55.5 -38t-27.5 -54q0 -16 9.5 -26
t31.5 -10q21 0 29.5 6.5t18.5 6.5q5 0 9 -4t4 -9q0 -20 -25 -40.5t-65 -20.5zM341 206v102q0 17 -5.5 24.5t-20.5 7.5q-84 0 -138 -24.5t-54 -70.5q0 -48 37 -64.5t117 -16.5q41 0 52.5 11.5t11.5 30.5z" />
    <glyph glyph-name="Cacute" unicode="&#x106;" horiz-adv-x="555" 
d="M293 -15q-124 0 -189.5 85.5t-65.5 245.5q0 100 17.5 185.5t51.5 147t84.5 96.5t115.5 35q59 0 99 -26.5t64.5 -68t35.5 -92.5t11 -100q0 -14 -7 -26.5t-23 -21.5q-4 -4 -21.5 -9t-24.5 -5t-10.5 4.5t-3.5 12.5q0 7 0.5 15.5t0.5 14.5q0 37 -6 75.5t-20 70t-38 52
t-60 20.5q-40 0 -72.5 -27.5t-55 -76t-34.5 -115.5t-12 -145q0 -119 40.5 -187.5t133.5 -68.5q76 0 122 48t62 128q1 6 5 9.5t8 3.5q13 0 21.5 -15.5t8.5 -50.5q0 -40 -13 -79t-41 -68.5t-73.5 -48t-110.5 -18.5zM217 830q0 3 2.5 6.5t8.5 6.5q49 28 82 70t58 102q3 6 8 8
t12 2q10 0 24 -2t27 -5q11 -3 15 -7.5t4 -11.5q0 -18 -18.5 -48.5t-49 -59.5t-71 -50t-83.5 -21q-3 0 -6.5 0.5t-6.5 1.5q-2 1 -4 3t-2 5z" />
    <glyph glyph-name="cacute" unicode="&#x107;" horiz-adv-x="442" 
d="M244 -10q-112 0 -162 72t-50 198q0 93 17 160.5t46.5 110t70 63t86.5 20.5q39 0 68.5 -15t48.5 -40.5t28.5 -60t9.5 -74.5q0 -27 -23 -49.5t-39 -22.5q-8 0 -12.5 4t-5.5 14q-2 31 -5 60.5t-11 52t-23.5 36.5t-42.5 14q-52 0 -87.5 -64.5t-35.5 -183.5q0 -45 6 -84
t20 -68t38 -45.5t60 -16.5q58 0 87.5 35.5t44.5 84.5q1 4 4 7t8 3q3 0 5.5 -1.5t3.5 -3.5q9 -13 13 -29t4 -36q0 -59 -47 -100t-125 -41zM158 684q0 3 2.5 6.5t8.5 6.5q49 28 82 70t58 102q3 6 8 8t12 2q10 0 24 -2t27 -5q11 -3 15 -7.5t4 -11.5q0 -18 -18.5 -48.5
t-49 -59.5t-71 -50t-83.5 -21q-3 0 -6.5 0.5t-6.5 1.5q-2 1 -4 3t-2 5z" />
    <glyph glyph-name="Ccircumflex" unicode="&#x108;" horiz-adv-x="555" 
d="M293 -15q-124 0 -189.5 85.5t-65.5 245.5q0 100 17.5 185.5t51.5 147t84.5 96.5t115.5 35q59 0 99 -26.5t64.5 -68t35.5 -92.5t11 -100q0 -14 -7 -26.5t-23 -21.5q-4 -4 -21.5 -9t-24.5 -5t-10.5 4.5t-3.5 12.5q0 7 0.5 15.5t0.5 14.5q0 37 -6 75.5t-20 70t-38 52
t-60 20.5q-40 0 -72.5 -27.5t-55 -76t-34.5 -115.5t-12 -145q0 -119 40.5 -187.5t133.5 -68.5q76 0 122 48t62 128q1 6 5 9.5t8 3.5q13 0 21.5 -15.5t8.5 -50.5q0 -40 -13 -79t-41 -68.5t-73.5 -48t-110.5 -18.5zM404 832q-52 60 -73 73.5t-29 13.5t-28.5 -13.5t-75.5 -73.5
q-4 -4 -8.5 -7t-8.5 -3q-7 0 -13 2.5t-13 6.5q-4 3 -6 6t-2 7q0 2 1 4.5t2 5.5q10 17 26 39t33.5 44t36 42.5t34.5 34.5q7 6 12.5 8t9.5 2t9.5 -2t12.5 -8q16 -14 34.5 -34.5t36 -42t33.5 -43.5t26 -39q1 -3 2.5 -6t1.5 -6q0 -4 -2.5 -6.5t-6.5 -5.5q-8 -4 -13.5 -6.5
t-13.5 -2.5q-5 0 -9 2t-9 8z" />
    <glyph glyph-name="ccircumflex" unicode="&#x109;" horiz-adv-x="442" 
d="M244 -10q-112 0 -162 72t-50 198q0 93 17 160.5t46.5 110t70 63t86.5 20.5q39 0 68.5 -15t48.5 -40.5t28.5 -60t9.5 -74.5q0 -27 -23 -49.5t-39 -22.5q-8 0 -12.5 4t-5.5 14q-2 31 -5 60.5t-11 52t-23.5 36.5t-42.5 14q-52 0 -87.5 -64.5t-35.5 -183.5q0 -45 6 -84
t20 -68t38 -45.5t60 -16.5q58 0 87.5 35.5t44.5 84.5q1 4 4 7t8 3q3 0 5.5 -1.5t3.5 -3.5q9 -13 13 -29t4 -36q0 -59 -47 -100t-125 -41zM345 686q-52 60 -73 73.5t-29 13.5t-28.5 -13.5t-75.5 -73.5q-4 -4 -8.5 -7t-8.5 -3q-7 0 -13 2.5t-13 6.5q-4 3 -6 6t-2 7q0 2 1 4.5
t2 5.5q10 17 26 39t33.5 44t36 42.5t34.5 34.5q7 6 12.5 8t9.5 2t9.5 -2t12.5 -8q16 -14 34.5 -34.5t36 -42t33.5 -43.5t26 -39q1 -3 2.5 -6t1.5 -6q0 -4 -2.5 -6.5t-6.5 -5.5q-8 -4 -13.5 -6.5t-13.5 -2.5q-5 0 -9 2t-9 8z" />
    <glyph glyph-name="Cdotaccent" unicode="&#x10a;" horiz-adv-x="555" 
d="M293 -15q-124 0 -189.5 85.5t-65.5 245.5q0 100 17.5 185.5t51.5 147t84.5 96.5t115.5 35q59 0 99 -26.5t64.5 -68t35.5 -92.5t11 -100q0 -14 -7 -26.5t-23 -21.5q-4 -4 -21.5 -9t-24.5 -5t-10.5 4.5t-3.5 12.5q0 7 0.5 15.5t0.5 14.5q0 37 -6 75.5t-20 70t-38 52
t-60 20.5q-40 0 -72.5 -27.5t-55 -76t-34.5 -115.5t-12 -145q0 -119 40.5 -187.5t133.5 -68.5q76 0 122 48t62 128q1 6 5 9.5t8 3.5q13 0 21.5 -15.5t8.5 -50.5q0 -40 -13 -79t-41 -68.5t-73.5 -48t-110.5 -18.5zM303 858q-28 0 -44.5 15t-16.5 44q0 30 16.5 46.5t44.5 16.5
t43.5 -16.5t15.5 -46.5q0 -29 -15.5 -44t-43.5 -15z" />
    <glyph glyph-name="cdotaccent" unicode="&#x10b;" horiz-adv-x="442" 
d="M244 -10q-112 0 -162 72t-50 198q0 93 17 160.5t46.5 110t70 63t86.5 20.5q39 0 68.5 -15t48.5 -40.5t28.5 -60t9.5 -74.5q0 -27 -23 -49.5t-39 -22.5q-8 0 -12.5 4t-5.5 14q-2 31 -5 60.5t-11 52t-23.5 36.5t-42.5 14q-52 0 -87.5 -64.5t-35.5 -183.5q0 -45 6 -84
t20 -68t38 -45.5t60 -16.5q58 0 87.5 35.5t44.5 84.5q1 4 4 7t8 3q3 0 5.5 -1.5t3.5 -3.5q9 -13 13 -29t4 -36q0 -59 -47 -100t-125 -41zM244 712q-28 0 -44.5 15t-16.5 44q0 30 16.5 46.5t44.5 16.5t43.5 -16.5t15.5 -46.5q0 -29 -15.5 -44t-43.5 -15z" />
    <glyph glyph-name="Ccaron" unicode="&#x10c;" horiz-adv-x="555" 
d="M293 -15q-124 0 -189.5 85.5t-65.5 245.5q0 100 17.5 185.5t51.5 147t84.5 96.5t115.5 35q59 0 99 -26.5t64.5 -68t35.5 -92.5t11 -100q0 -14 -7 -26.5t-23 -21.5q-4 -4 -21.5 -9t-24.5 -5t-10.5 4.5t-3.5 12.5q0 7 0.5 15.5t0.5 14.5q0 37 -6 75.5t-20 70t-38 52
t-60 20.5q-40 0 -72.5 -27.5t-55 -76t-34.5 -115.5t-12 -145q0 -119 40.5 -187.5t133.5 -68.5q76 0 122 48t62 128q1 6 5 9.5t8 3.5q13 0 21.5 -15.5t8.5 -50.5q0 -40 -13 -79t-41 -68.5t-73.5 -48t-110.5 -18.5zM303 815q-4 0 -9.5 2t-12.5 8q-16 14 -34.5 34.5t-36 42
t-33.5 43.5t-26 39q-1 3 -2.5 6t-1.5 6q0 4 2.5 6.5t6.5 5.5q8 4 14.5 6.5t12.5 2.5q5 0 8.5 -1.5t9.5 -8.5q50 -58 72 -72.5t30 -14.5t30 14.5t74 72.5q5 6 9 8t8 2q7 0 13 -2.5t13 -6.5q4 -3 6 -6t2 -7q0 -2 -1 -4.5t-2 -5.5q-10 -17 -26 -39t-33.5 -44t-36 -42.5
t-34.5 -34.5q-7 -6 -12.5 -8t-9.5 -2z" />
    <glyph glyph-name="ccaron" unicode="&#x10d;" horiz-adv-x="442" 
d="M244 -10q-112 0 -162 72t-50 198q0 93 17 160.5t46.5 110t70 63t86.5 20.5q39 0 68.5 -15t48.5 -40.5t28.5 -60t9.5 -74.5q0 -27 -23 -49.5t-39 -22.5q-8 0 -12.5 4t-5.5 14q-2 31 -5 60.5t-11 52t-23.5 36.5t-42.5 14q-52 0 -87.5 -64.5t-35.5 -183.5q0 -45 6 -84
t20 -68t38 -45.5t60 -16.5q58 0 87.5 35.5t44.5 84.5q1 4 4 7t8 3q3 0 5.5 -1.5t3.5 -3.5q9 -13 13 -29t4 -36q0 -59 -47 -100t-125 -41zM244 669q-4 0 -9.5 2t-12.5 8q-16 14 -34.5 34.5t-36 42t-33.5 43.5t-26 39q-1 3 -2.5 6t-1.5 6q0 4 2.5 6.5t6.5 5.5q8 4 14.5 6.5
t12.5 2.5q5 0 8.5 -1.5t9.5 -8.5q50 -58 72 -72.5t30 -14.5t30 14.5t74 72.5q5 6 9 8t8 2q7 0 13 -2.5t13 -6.5q4 -3 6 -6t2 -7q0 -2 -1 -4.5t-2 -5.5q-10 -17 -26 -39t-33.5 -44t-36 -42.5t-34.5 -34.5q-7 -6 -12.5 -8t-9.5 -2z" />
    <glyph glyph-name="Dcaron" unicode="&#x10e;" horiz-adv-x="627" 
d="M265 -2q-58 0 -93.5 0.5t-48.5 1.5t-19.5 4.5t-10.5 10.5q-5 11 -9.5 32t-8 57t-5.5 90.5t-2 132.5q0 155 11.5 255t22.5 157q2 11 8.5 16.5t14.5 6.5q16 1 36.5 2t39.5 1q187 0 284 -106t97 -333q0 -68 -18 -128.5t-56.5 -104.5t-98.5 -69.5t-144 -25.5zM238 82
q127 0 190 63t63 191q0 176 -71.5 259.5t-187.5 83.5q-8 0 -18.5 -3t-17.5 -10q-11 -11 -18.5 -39.5t-12 -70t-6 -95t-1.5 -113.5q0 -93 4.5 -161.5t26.5 -89.5q10 -10 23 -12.5t26 -2.5zM305 800q-4 0 -9.5 2t-12.5 8q-16 14 -34.5 34.5t-36 42t-33.5 43.5t-26 39
q-1 3 -2.5 6t-1.5 6q0 4 2.5 6.5t6.5 5.5q8 4 14.5 6.5t12.5 2.5q5 0 8.5 -1.5t9.5 -8.5q50 -58 72 -72.5t30 -14.5t30 14.5t74 72.5q5 6 9 8t8 2q7 0 13 -2.5t13 -6.5q4 -3 6 -6t2 -7q0 -2 -1 -4.5t-2 -5.5q-10 -17 -26 -39t-33.5 -44t-36 -42.5t-34.5 -34.5
q-7 -6 -12.5 -8t-9.5 -2z" />
    <glyph glyph-name="dcaron" unicode="&#x10f;" horiz-adv-x="563" 
d="M263 80q37 0 60 7t35 33t16 78t4 141q0 51 -12.5 88t-31.5 61t-42.5 35.5t-45.5 11.5q-57 0 -90 -61t-33 -192q0 -113 37 -157.5t103 -44.5zM260 -6q-60 0 -102.5 20t-69 56t-39 86.5t-12.5 112.5q0 176 52 260.5t136 84.5q41 0 71.5 -17.5t53.5 -32.5q2 -1 5 -2t5 -1
q4 0 7 3.5t3 10.5q0 37 -3.5 72.5t-7 65.5t-7 52t-3.5 32q0 11 4 15t12 5q7 1 13.5 1h13.5h13t12 -1q8 -1 13.5 -6.5t7.5 -22.5q4 -32 8 -81t7 -107t5 -123.5t2 -128.5q0 -85 -4 -164t-14 -135q-1 -10 -7.5 -18.5t-17.5 -13.5q-19 -7 -61 -15t-96 -8zM496 762q0 6 3.5 12.5
t9.5 13.5t15.5 16t21.5 17q5 4 9.5 5.5t9.5 1.5q13 0 28.5 -26.5t15.5 -72.5q0 -45 -10 -76.5t-23 -51.5t-26.5 -29t-20.5 -9q-6 0 -10 4t-4 11q0 12 11.5 33.5t11.5 53.5q0 20 -8.5 40t-27.5 42q-3 4 -4.5 7.5t-1.5 7.5z" />
    <glyph glyph-name="Dcroat" unicode="&#x110;" horiz-adv-x="627" 
d="M582 326q0 -68 -18 -128.5t-56.5 -104.5t-98.5 -69.5t-144 -25.5q-58 0 -93.5 0.5t-48.5 1.5t-19.5 4.5t-10.5 10.5q-5 10 -9.5 30.5t-8 55t-5.5 87t-2 126.5q0 8 -6 11.5t-28 3.5q-18 0 -25.5 2.5t-8.5 9.5q-1 9 -1.5 17t-0.5 16v13.5t1 12.5q1 13 9.5 16.5t27.5 3.5
q14 0 23 3.5t11 13.5q4 108 13 182t19 120q2 11 8.5 16.5t14.5 6.5q16 1 36.5 2t39.5 1q187 0 284 -106t97 -333zM238 82q127 0 190 63t63 191q0 176 -71.5 259.5t-187.5 83.5q-12 0 -20.5 -3t-15.5 -10q-9 -9 -16 -31.5t-11.5 -53t-7 -69t-2.5 -78.5q0 -8 5.5 -12.5
t14.5 -4.5h61t62 -3q10 -1 15 -5t6 -12q1 -7 1.5 -14.5t0.5 -14.5t-0.5 -15t-1.5 -15q-1 -9 -6 -13.5t-18 -4.5q-6 0 -19 1.5t-29.5 2.5t-34.5 2.5t-33 1.5q-11 0 -18 -5.5t-7 -24.5q0 -75 6 -128.5t25 -72.5q10 -10 23 -12.5t26 -2.5z" />
    <glyph glyph-name="dcroat" unicode="&#x111;" horiz-adv-x="522" 
d="M260 -6q-60 0 -102.5 20t-69 56t-39 86.5t-12.5 112.5q0 163 52.5 241t138.5 78q41 0 71.5 -17.5t53.5 -32.5q2 -1 5 -2t5 -1q4 0 7 3.5t3 10.5q0 27 -1.5 53t-4.5 51q-1 6 -3.5 9t-8.5 3q-51 -1 -94 -1.5t-50 -0.5q-11 0 -18 4.5t-8 14.5q-1 4 -1 8v9q0 6 1 12.5t3 12.5
q2 10 8.5 14t15.5 4h11t21 -0.5t38 -1t63 -0.5q4 0 6.5 2.5t2.5 8.5q0 8 -2.5 23.5t-2.5 22.5q0 11 4 15t12 5q7 1 13.5 1h13.5h13t12 -1q8 -1 13.5 -6.5t7.5 -22.5q1 -7 2 -16t2 -19q1 -5 3 -9.5t10 -4.5q9 0 18.5 0.5t20.5 0.5q16 0 21 -11t5 -30t-6.5 -26.5t-22.5 -7.5
q-7 0 -16 0.5t-12 0.5q-7 0 -10 -2.5t-3 -9.5q0 -18 5 -99.5t5 -206.5q0 -85 -4 -164t-14 -135q-1 -10 -7.5 -18.5t-17.5 -13.5q-19 -7 -61 -15t-96 -8zM263 80q37 0 60 7.5t35 31t16 67t4 114.5q0 59 -12 99t-30.5 64.5t-41.5 35t-45 10.5q-58 0 -92 -55t-34 -172
q0 -113 37 -157.5t103 -44.5z" />
    <glyph glyph-name="Emacron" unicode="&#x112;" horiz-adv-x="547" 
d="M311 -3q-57 0 -110.5 1t-94.5 2q-16 1 -25 6t-10 23q-1 37 -2 77t-1 83q0 66 2.5 136.5t8.5 140.5t15.5 138.5t23.5 131.5q3 13 10 19.5t17 7.5q22 2 63 3t87 1q57 0 113 -1t92 -4q10 -1 14.5 -5t4.5 -9q0 -10 -6 -33.5t-12 -37.5q-2 -5 -6 -8t-10 -3q-4 0 -9 2t-11 3
q-26 7 -70 14t-116 7q-33 0 -48.5 -5t-24.5 -15q-9 -11 -16 -34.5t-11 -54t-6.5 -64t-2.5 -63.5q0 -19 6 -26.5t22 -7.5q27 0 67.5 9t98.5 9q35 0 61 -7.5t26 -23.5q0 -10 -3.5 -25t-7.5 -27q-4 -9 -8 -11.5t-10 -2.5q-11 0 -45 9.5t-78 9.5q-77 0 -110 -26.5t-33 -103.5
q0 -54 3 -85.5t11 -47.5t23 -20.5t40 -4.5q75 0 140 6.5t105 19.5q7 2 12 3.5t9 1.5q5 0 9 -3t7 -10q4 -11 7 -35t3 -34t-6.5 -15.5t-18.5 -6.5q-44 -2 -92.5 -2.5t-96.5 -1.5zM475 882q-2 -13 -8.5 -17.5t-23.5 -5.5q-18 -1 -41 -2t-48 -1q-44 0 -89.5 2t-76.5 4
q-14 1 -19.5 6t-6.5 15q-1 4 -1 9.5v9.5v9t1 9q1 11 7 14.5t17 4.5q17 1 40 1h48q47 0 96 -1t79 -2q13 -1 19 -5.5t7 -14.5q1 -3 1 -7.5v-8.5v-9t-1 -10z" />
    <glyph glyph-name="emacron" unicode="&#x113;" horiz-adv-x="473" 
d="M432 146q0 -35 -15 -64t-40.5 -49.5t-59.5 -31.5t-72 -11q-116 0 -165 82.5t-49 220.5q0 81 19.5 141t52.5 99.5t79 59t98 19.5q31 0 59 -9t49 -26.5t33.5 -45.5t12.5 -65q0 -66 -32 -102t-76 -57.5t-92 -38t-80 -42.5q-10 -9 -15.5 -20t-5.5 -24q0 -44 28.5 -77
t86.5 -33t93.5 30.5t60.5 94.5q1 3 3 4.5t5 1.5q8 0 15 -14.5t7 -42.5zM349 462q0 33 -19 52t-53 19q-38 0 -68 -17.5t-50 -47.5t-30.5 -70.5t-10.5 -86.5q0 -9 4 -16t11 -7q3 0 5.5 1t5.5 2q25 16 60.5 33t67.5 37t54.5 44.5t22.5 56.5zM417 749q-2 -13 -8.5 -17.5
t-23.5 -5.5q-18 -1 -41 -2t-48 -1q-44 0 -89.5 2t-76.5 4q-14 1 -19.5 6t-6.5 15q-1 4 -1 9.5v9.5v9t1 9q1 11 7 14.5t17 4.5q17 1 40 1h48q47 0 96 -1t79 -2q13 -1 19 -5.5t7 -14.5q1 -3 1 -7.5v-8.5v-9t-1 -10z" />
    <glyph glyph-name="Ebreve" unicode="&#x114;" horiz-adv-x="547" 
d="M311 -3q-57 0 -110.5 1t-94.5 2q-16 1 -25 6t-10 23q-1 37 -2 77t-1 83q0 66 2.5 136.5t8.5 140.5t15.5 138.5t23.5 131.5q3 13 10 19.5t17 7.5q22 2 63 3t87 1q57 0 113 -1t92 -4q10 -1 14.5 -5t4.5 -9q0 -10 -6 -33.5t-12 -37.5q-2 -5 -6 -8t-10 -3q-4 0 -9 2t-11 3
q-26 7 -70 14t-116 7q-33 0 -48.5 -5t-24.5 -15q-9 -11 -16 -34.5t-11 -54t-6.5 -64t-2.5 -63.5q0 -19 6 -26.5t22 -7.5q27 0 67.5 9t98.5 9q35 0 61 -7.5t26 -23.5q0 -10 -3.5 -25t-7.5 -27q-4 -9 -8 -11.5t-10 -2.5q-11 0 -45 9.5t-78 9.5q-77 0 -110 -26.5t-33 -103.5
q0 -54 3 -85.5t11 -47.5t23 -20.5t40 -4.5q75 0 140 6.5t105 19.5q7 2 12 3.5t9 1.5q5 0 9 -3t7 -10q4 -11 7 -35t3 -34t-6.5 -15.5t-18.5 -6.5q-44 -2 -92.5 -2.5t-96.5 -1.5zM317 825q-81 0 -114.5 38t-33.5 90q0 19 6.5 25.5t25.5 6.5q22 0 31 -4.5t10 -21.5
q3 -32 21 -49t56 -17q40 0 58.5 17t22.5 51q1 16 8.5 20t26.5 4t25.5 -5.5t6.5 -23.5q0 -54 -34 -92.5t-116 -38.5z" />
    <glyph glyph-name="ebreve" unicode="&#x115;" horiz-adv-x="473" 
d="M432 146q0 -35 -15 -64t-40.5 -49.5t-59.5 -31.5t-72 -11q-116 0 -165 82.5t-49 220.5q0 81 19.5 141t52.5 99.5t79 59t98 19.5q31 0 59 -9t49 -26.5t33.5 -45.5t12.5 -65q0 -66 -32 -102t-76 -57.5t-92 -38t-80 -42.5q-10 -9 -15.5 -20t-5.5 -24q0 -44 28.5 -77
t86.5 -33t93.5 30.5t60.5 94.5q1 3 3 4.5t5 1.5q8 0 15 -14.5t7 -42.5zM349 462q0 33 -19 52t-53 19q-38 0 -68 -17.5t-50 -47.5t-30.5 -70.5t-10.5 -86.5q0 -9 4 -16t11 -7q3 0 5.5 1t5.5 2q25 16 60.5 33t67.5 37t54.5 44.5t22.5 56.5zM260 692q-81 0 -114.5 38t-33.5 90
q0 19 6.5 25.5t25.5 6.5q22 0 31 -4.5t10 -21.5q3 -32 21 -49t56 -17q40 0 58.5 17t22.5 51q1 16 8.5 20t26.5 4t25.5 -5.5t6.5 -23.5q0 -54 -34 -92.5t-116 -38.5z" />
    <glyph glyph-name="Edotaccent" unicode="&#x116;" horiz-adv-x="547" 
d="M311 -3q-57 0 -110.5 1t-94.5 2q-16 1 -25 6t-10 23q-1 37 -2 77t-1 83q0 66 2.5 136.5t8.5 140.5t15.5 138.5t23.5 131.5q3 13 10 19.5t17 7.5q22 2 63 3t87 1q57 0 113 -1t92 -4q10 -1 14.5 -5t4.5 -9q0 -10 -6 -33.5t-12 -37.5q-2 -5 -6 -8t-10 -3q-4 0 -9 2t-11 3
q-26 7 -70 14t-116 7q-33 0 -48.5 -5t-24.5 -15q-9 -11 -16 -34.5t-11 -54t-6.5 -64t-2.5 -63.5q0 -19 6 -26.5t22 -7.5q27 0 67.5 9t98.5 9q35 0 61 -7.5t26 -23.5q0 -10 -3.5 -25t-7.5 -27q-4 -9 -8 -11.5t-10 -2.5q-11 0 -45 9.5t-78 9.5q-77 0 -110 -26.5t-33 -103.5
q0 -54 3 -85.5t11 -47.5t23 -20.5t40 -4.5q75 0 140 6.5t105 19.5q7 2 12 3.5t9 1.5q5 0 9 -3t7 -10q4 -11 7 -35t3 -34t-6.5 -15.5t-18.5 -6.5q-44 -2 -92.5 -2.5t-96.5 -1.5zM319 845q-28 0 -44.5 15t-16.5 44q0 30 16.5 46.5t44.5 16.5t43.5 -16.5t15.5 -46.5
q0 -29 -15.5 -44t-43.5 -15z" />
    <glyph glyph-name="edotaccent" unicode="&#x117;" horiz-adv-x="473" 
d="M432 146q0 -35 -15 -64t-40.5 -49.5t-59.5 -31.5t-72 -11q-116 0 -165 82.5t-49 220.5q0 81 19.5 141t52.5 99.5t79 59t98 19.5q31 0 59 -9t49 -26.5t33.5 -45.5t12.5 -65q0 -66 -32 -102t-76 -57.5t-92 -38t-80 -42.5q-10 -9 -15.5 -20t-5.5 -24q0 -44 28.5 -77
t86.5 -33t93.5 30.5t60.5 94.5q1 3 3 4.5t5 1.5q8 0 15 -14.5t7 -42.5zM349 462q0 33 -19 52t-53 19q-38 0 -68 -17.5t-50 -47.5t-30.5 -70.5t-10.5 -86.5q0 -9 4 -16t11 -7q3 0 5.5 1t5.5 2q25 16 60.5 33t67.5 37t54.5 44.5t22.5 56.5zM263 712q-28 0 -44.5 15t-16.5 44
q0 30 16.5 46.5t44.5 16.5t43.5 -16.5t15.5 -46.5q0 -29 -15.5 -44t-43.5 -15z" />
    <glyph glyph-name="Eogonek" unicode="&#x118;" horiz-adv-x="547" 
d="M535 -34q0 -20 -25 -40.5t-65 -20.5q-42 0 -61.5 16.5t-19.5 38.5q0 15 5.5 26.5t11.5 19.5t11.5 13.5t5.5 9.5q0 3 -2 5.5t-6 2.5q-8 0 -27.5 -6t-53.5 -12.5t-85.5 -12.5t-122.5 -6q-13 0 -21 6.5t-9 22.5q-3 36 -3 76.5v83.5q0 66 2.5 136.5t8.5 140.5t15.5 138.5
t23.5 131.5q3 13 10 19.5t17 7.5q22 2 63 3t87 1q57 0 113 -1t92 -4q10 -1 14.5 -5t4.5 -9q0 -10 -6 -33.5t-12 -37.5q-2 -5 -6 -8t-10 -3q-4 0 -9 2t-11 3q-26 7 -70 14t-116 7q-33 0 -48.5 -5t-24.5 -15q-9 -11 -16 -34.5t-11 -54t-6.5 -64t-2.5 -63.5q0 -19 6 -26.5
t22 -7.5q27 0 67.5 9t98.5 9q19 0 36.5 -2.5t29.5 -6.5q10 -4 15.5 -9.5t5.5 -12.5q0 -10 -3.5 -25t-7.5 -27q-4 -9 -8 -11.5t-10 -2.5q-11 0 -45 9.5t-78 9.5q-77 0 -110 -26.5t-33 -103.5q0 -54 3 -85t11 -46t23 -19t40 -4q26 0 58.5 7t65.5 20t63.5 32t54.5 44
q7 7 12 9.5t10 2.5t9 -4t7 -11q4 -12 8 -35t4 -33t-6 -16.5t-19 -13.5q-22 -11 -44.5 -32.5t-22.5 -45.5q0 -16 9.5 -26t31.5 -10q21 0 29.5 6.5t18.5 6.5q5 0 9 -4t4 -9z" />
    <glyph glyph-name="eogonek" unicode="&#x119;" horiz-adv-x="473" 
d="M144 331q25 13 60.5 26t67.5 28t54.5 34t22.5 43q0 33 -19 52t-53 19q-38 0 -68 -14.5t-50 -39t-30.5 -58t-10.5 -70.5q0 -9 4 -16t11 -7q3 0 5.5 1t5.5 2zM333 -95q-43 0 -62.5 18t-19.5 41q0 18 6.5 29.5t14.5 20t14.5 14t6.5 11.5q0 4 -2 6t-8 2q-137 0 -194.5 70
t-57.5 216q0 71 19.5 123.5t52.5 87t79 51.5t98 17q31 0 59 -9t49 -26.5t33.5 -45.5t12.5 -65q0 -55 -31.5 -85t-75.5 -48.5t-92 -31.5t-81 -35q-11 -7 -16 -19t-5 -25q0 -36 28.5 -63t86.5 -27t93.5 30.5t60.5 94.5q1 3 3 4.5t5 1.5q8 0 15 -14.5t7 -42.5q0 -42 -17.5 -70
t-38 -49.5t-38 -41t-17.5 -43.5q0 -16 9.5 -26t31.5 -10q21 0 29.5 6.5t18.5 6.5q5 0 9 -4t4 -9q0 -20 -25 -40.5t-65 -20.5z" />
    <glyph glyph-name="Ecaron" unicode="&#x11a;" horiz-adv-x="547" 
d="M311 -3q-57 0 -110.5 1t-94.5 2q-16 1 -25 6t-10 23q-1 37 -2 77t-1 83q0 66 2.5 136.5t8.5 140.5t15.5 138.5t23.5 131.5q3 13 10 19.5t17 7.5q22 2 63 3t87 1q57 0 113 -1t92 -4q10 -1 14.5 -5t4.5 -9q0 -10 -6 -33.5t-12 -37.5q-2 -5 -6 -8t-10 -3q-4 0 -9 2t-11 3
q-26 7 -70 14t-116 7q-33 0 -48.5 -5t-24.5 -15q-9 -11 -16 -34.5t-11 -54t-6.5 -64t-2.5 -63.5q0 -19 6 -26.5t22 -7.5q27 0 67.5 9t98.5 9q35 0 61 -7.5t26 -23.5q0 -10 -3.5 -25t-7.5 -27q-4 -9 -8 -11.5t-10 -2.5q-11 0 -45 9.5t-78 9.5q-77 0 -110 -26.5t-33 -103.5
q0 -54 3 -85.5t11 -47.5t23 -20.5t40 -4.5q75 0 140 6.5t105 19.5q7 2 12 3.5t9 1.5q5 0 9 -3t7 -10q4 -11 7 -35t3 -34t-6.5 -15.5t-18.5 -6.5q-44 -2 -92.5 -2.5t-96.5 -1.5zM319 802q-4 0 -9.5 2t-12.5 8q-16 14 -34.5 34.5t-36 42t-33.5 43.5t-26 39q-1 3 -2.5 6t-1.5 6
q0 4 2.5 6.5t6.5 5.5q8 4 14.5 6.5t12.5 2.5q5 0 8.5 -1.5t9.5 -8.5q50 -58 72 -72.5t30 -14.5t30 14.5t74 72.5q5 6 9 8t8 2q7 0 13 -2.5t13 -6.5q4 -3 6 -6t2 -7q0 -2 -1 -4.5t-2 -5.5q-10 -17 -26 -39t-33.5 -44t-36 -42.5t-34.5 -34.5q-7 -6 -12.5 -8t-9.5 -2z" />
    <glyph glyph-name="ecaron" unicode="&#x11b;" horiz-adv-x="473" 
d="M432 146q0 -35 -15 -64t-40.5 -49.5t-59.5 -31.5t-72 -11q-116 0 -165 82.5t-49 220.5q0 81 19.5 141t52.5 99.5t79 59t98 19.5q31 0 59 -9t49 -26.5t33.5 -45.5t12.5 -65q0 -66 -32 -102t-76 -57.5t-92 -38t-80 -42.5q-10 -9 -15.5 -20t-5.5 -24q0 -44 28.5 -77
t86.5 -33t93.5 30.5t60.5 94.5q1 3 3 4.5t5 1.5q8 0 15 -14.5t7 -42.5zM349 462q0 33 -19 52t-53 19q-38 0 -68 -17.5t-50 -47.5t-30.5 -70.5t-10.5 -86.5q0 -9 4 -16t11 -7q3 0 5.5 1t5.5 2q25 16 60.5 33t67.5 37t54.5 44.5t22.5 56.5zM261 669q-4 0 -9.5 2t-12.5 8
q-16 14 -34.5 34.5t-36 42t-33.5 43.5t-26 39q-1 3 -2.5 6t-1.5 6q0 4 2.5 6.5t6.5 5.5q8 4 14.5 6.5t12.5 2.5q5 0 8.5 -1.5t9.5 -8.5q50 -58 72 -72.5t30 -14.5t30 14.5t74 72.5q5 6 9 8t8 2q7 0 13 -2.5t13 -6.5q4 -3 6 -6t2 -7q0 -2 -1 -4.5t-2 -5.5q-10 -17 -26 -39
t-33.5 -44t-36 -42.5t-34.5 -34.5q-7 -6 -12.5 -8t-9.5 -2z" />
    <glyph glyph-name="Gcircumflex" unicode="&#x11c;" horiz-adv-x="629" 
d="M342 693q-40 0 -76 -26.5t-63.5 -75t-43.5 -119t-16 -157.5q0 -134 52.5 -188t136.5 -54q76 0 113.5 34t37.5 104q0 39 -14.5 57t-61.5 18q-12 0 -18 6t-6 16q0 19 7.5 25.5t47.5 13.5q54 10 74 18.5t35 8.5q8 0 14 -5t6 -15q0 -38 1.5 -79t1.5 -84q0 -93 -61 -148
t-181 -55q-141 0 -209 83t-68 226q0 99 20 187t57.5 152.5t92.5 102.5t123 38q46 0 82.5 -17t60.5 -43.5t37 -59t13 -61.5q0 -16 -6.5 -27t-16.5 -21t-24.5 -19.5t-22.5 -9.5q-7 0 -11.5 4.5t-4.5 11.5t0.5 12.5t0.5 10.5q0 20 -6 44t-19.5 44t-34.5 33.5t-50 13.5zM431 829
q-52 60 -73 73.5t-29 13.5t-28.5 -13.5t-75.5 -73.5q-4 -4 -8.5 -7t-8.5 -3q-7 0 -13 2.5t-13 6.5q-4 3 -6 6t-2 7q0 2 1 4.5t2 5.5q10 17 26 39t33.5 44t36 42.5t34.5 34.5q7 6 12.5 8t9.5 2t9.5 -2t12.5 -8q16 -14 34.5 -34.5t36 -42t33.5 -43.5t26 -39q1 -3 2.5 -6
t1.5 -6q0 -4 -2.5 -6.5t-6.5 -5.5q-8 -4 -13.5 -6.5t-13.5 -2.5q-5 0 -9 2t-9 8z" />
    <glyph glyph-name="gcircumflex" unicode="&#x11d;" horiz-adv-x="514" 
d="M145 -15q-53 0 -82 29.5t-29 86.5t24.5 96t50.5 64q4 4 6.5 9t2.5 10q0 4 -1.5 7.5t-4.5 6.5q-22 22 -42 55t-20 86q0 80 54.5 129.5t152.5 49.5q49 0 78.5 -9.5t56.5 -25.5q4 -2 7.5 -3.5t7.5 -1.5q7 0 13 5t13 13q7 9 13 12.5t12 3.5q13 0 27 -16t17 -26q1 -2 1.5 -4.5
t0.5 -4.5q0 -4 -2.5 -9t-7.5 -9q-22 -20 -26 -29.5t-4 -22.5q0 -11 2 -24t2 -26q0 -84 -50.5 -137t-158.5 -53q-40 0 -67.5 -12t-44.5 -30.5t-24 -40.5t-7 -42q0 -27 12 -37.5t32 -10.5q22 0 44 8.5t46 18t51 18t59 8.5q29 0 52.5 -6.5t37.5 -16.5q10 -7 14 -15.5t4 -19.5
q0 -9 -7 -29.5t-16 -31.5q-5 -9 -12 -14t-14 -5q-4 0 -8 2t-7 6q-15 19 -33 31.5t-46 12.5q-22 0 -42 -9t-40.5 -19t-44 -19t-53.5 -9zM140 427q0 -48 33 -78.5t85 -30.5q51 0 86.5 31t35.5 80q0 44 -30.5 76t-87.5 32q-59 0 -90.5 -32.5t-31.5 -77.5zM371 686
q-52 60 -73 73.5t-29 13.5t-28.5 -13.5t-75.5 -73.5q-4 -4 -8.5 -7t-8.5 -3q-7 0 -13 2.5t-13 6.5q-4 3 -6 6t-2 7q0 2 1 4.5t2 5.5q10 17 26 39t33.5 44t36 42.5t34.5 34.5q7 6 12.5 8t9.5 2t9.5 -2t12.5 -8q16 -14 34.5 -34.5t36 -42t33.5 -43.5t26 -39q1 -3 2.5 -6
t1.5 -6q0 -4 -2.5 -6.5t-6.5 -5.5q-8 -4 -13.5 -6.5t-13.5 -2.5q-5 0 -9 2t-9 8z" />
    <glyph glyph-name="Gbreve" unicode="&#x11e;" horiz-adv-x="629" 
d="M342 693q-40 0 -76 -26.5t-63.5 -75t-43.5 -119t-16 -157.5q0 -134 52.5 -188t136.5 -54q76 0 113.5 34t37.5 104q0 39 -14.5 57t-61.5 18q-12 0 -18 6t-6 16q0 19 7.5 25.5t47.5 13.5q54 10 74 18.5t35 8.5q8 0 14 -5t6 -15q0 -38 1.5 -79t1.5 -84q0 -93 -61 -148
t-181 -55q-141 0 -209 83t-68 226q0 99 20 187t57.5 152.5t92.5 102.5t123 38q46 0 82.5 -17t60.5 -43.5t37 -59t13 -61.5q0 -16 -6.5 -27t-16.5 -21t-24.5 -19.5t-22.5 -9.5q-7 0 -11.5 4.5t-4.5 11.5t0.5 12.5t0.5 10.5q0 20 -6 44t-19.5 44t-34.5 33.5t-50 13.5zM328 835
q-81 0 -114.5 38t-33.5 90q0 19 6.5 25.5t25.5 6.5q22 0 31 -4.5t10 -21.5q3 -32 21 -49t56 -17q40 0 58.5 17t22.5 51q1 16 8.5 20t26.5 4t25.5 -5.5t6.5 -23.5q0 -54 -34 -92.5t-116 -38.5z" />
    <glyph glyph-name="gbreve" unicode="&#x11f;" horiz-adv-x="514" 
d="M145 -15q-53 0 -82 29.5t-29 86.5t24.5 96t50.5 64q4 4 6.5 9t2.5 10q0 4 -1.5 7.5t-4.5 6.5q-22 22 -42 55t-20 86q0 80 54.5 129.5t152.5 49.5q49 0 78.5 -9.5t56.5 -25.5q4 -2 7.5 -3.5t7.5 -1.5q7 0 13 5t13 13q7 9 13 12.5t12 3.5q13 0 27 -16t17 -26q1 -2 1.5 -4.5
t0.5 -4.5q0 -4 -2.5 -9t-7.5 -9q-22 -20 -26 -29.5t-4 -22.5q0 -11 2 -24t2 -26q0 -84 -50.5 -137t-158.5 -53q-40 0 -67.5 -12t-44.5 -30.5t-24 -40.5t-7 -42q0 -27 12 -37.5t32 -10.5q22 0 44 8.5t46 18t51 18t59 8.5q29 0 52.5 -6.5t37.5 -16.5q10 -7 14 -15.5t4 -19.5
q0 -9 -7 -29.5t-16 -31.5q-5 -9 -12 -14t-14 -5q-4 0 -8 2t-7 6q-15 19 -33 31.5t-46 12.5q-22 0 -42 -9t-40.5 -19t-44 -19t-53.5 -9zM140 427q0 -48 33 -78.5t85 -30.5q51 0 86.5 31t35.5 80q0 44 -30.5 76t-87.5 32q-59 0 -90.5 -32.5t-31.5 -77.5zM268 692
q-81 0 -114.5 38t-33.5 90q0 19 6.5 25.5t25.5 6.5q22 0 31 -4.5t10 -21.5q3 -32 21 -49t56 -17q40 0 58.5 17t22.5 51q1 16 8.5 20t26.5 4t25.5 -5.5t6.5 -23.5q0 -54 -34 -92.5t-116 -38.5z" />
    <glyph glyph-name="Gdotaccent" unicode="&#x120;" horiz-adv-x="629" 
d="M342 693q-40 0 -76 -26.5t-63.5 -75t-43.5 -119t-16 -157.5q0 -134 52.5 -188t136.5 -54q76 0 113.5 34t37.5 104q0 39 -14.5 57t-61.5 18q-12 0 -18 6t-6 16q0 19 7.5 25.5t47.5 13.5q54 10 74 18.5t35 8.5q8 0 14 -5t6 -15q0 -38 1.5 -79t1.5 -84q0 -93 -61 -148
t-181 -55q-141 0 -209 83t-68 226q0 99 20 187t57.5 152.5t92.5 102.5t123 38q46 0 82.5 -17t60.5 -43.5t37 -59t13 -61.5q0 -16 -6.5 -27t-16.5 -21t-24.5 -19.5t-22.5 -9.5q-7 0 -11.5 4.5t-4.5 11.5t0.5 12.5t0.5 10.5q0 20 -6 44t-19.5 44t-34.5 33.5t-50 13.5zM330 855
q-28 0 -44.5 15t-16.5 44q0 30 16.5 46.5t44.5 16.5t43.5 -16.5t15.5 -46.5q0 -29 -15.5 -44t-43.5 -15z" />
    <glyph glyph-name="gdotaccent" unicode="&#x121;" horiz-adv-x="514" 
d="M145 -15q-53 0 -82 29.5t-29 86.5t24.5 96t50.5 64q4 4 6.5 9t2.5 10q0 4 -1.5 7.5t-4.5 6.5q-22 22 -42 55t-20 86q0 80 54.5 129.5t152.5 49.5q49 0 78.5 -9.5t56.5 -25.5q4 -2 7.5 -3.5t7.5 -1.5q7 0 13 5t13 13q7 9 13 12.5t12 3.5q13 0 27 -16t17 -26q1 -2 1.5 -4.5
t0.5 -4.5q0 -4 -2.5 -9t-7.5 -9q-22 -20 -26 -29.5t-4 -22.5q0 -11 2 -24t2 -26q0 -84 -50.5 -137t-158.5 -53q-40 0 -67.5 -12t-44.5 -30.5t-24 -40.5t-7 -42q0 -27 12 -37.5t32 -10.5q22 0 44 8.5t46 18t51 18t59 8.5q29 0 52.5 -6.5t37.5 -16.5q10 -7 14 -15.5t4 -19.5
q0 -9 -7 -29.5t-16 -31.5q-5 -9 -12 -14t-14 -5q-4 0 -8 2t-7 6q-15 19 -33 31.5t-46 12.5q-22 0 -42 -9t-40.5 -19t-44 -19t-53.5 -9zM140 427q0 -48 33 -78.5t85 -30.5q51 0 86.5 31t35.5 80q0 44 -30.5 76t-87.5 32q-59 0 -90.5 -32.5t-31.5 -77.5zM270 712
q-28 0 -44.5 15t-16.5 44q0 30 16.5 46.5t44.5 16.5t43.5 -16.5t15.5 -46.5q0 -29 -15.5 -44t-43.5 -15z" />
    <glyph glyph-name="uni0122" unicode="&#x122;" horiz-adv-x="629" 
d="M274 -117q0 6 2 14.5t2 21.5q0 10 -3 19t-10 18q-4 6 -6.5 11.5t-2.5 9.5q0 13 22 32.5t41 19.5q12 0 26 -21t14 -58q0 -39 -25 -60.5t-47 -21.5q-5 0 -9 4t-4 11zM328 67q-141 0 -209 75t-68 203q0 90 20 169t57.5 137t92.5 92t123 34q46 0 82.5 -15.5t60.5 -39
t37 -52.5t13 -55q0 -15 -6.5 -24.5t-16.5 -19.5q-10 -8 -24.5 -17t-22.5 -9q-7 0 -11.5 4t-4.5 11q0 6 0.5 11t0.5 9q0 18 -6 39.5t-19.5 40t-34.5 30.5t-50 12q-40 0 -76 -23.5t-63.5 -67.5t-43.5 -107.5t-16 -141.5q0 -121 52.5 -169.5t136.5 -48.5q76 0 113.5 30.5
t37.5 93.5q0 35 -15 49t-61 18q-12 1 -18 5t-6 15q0 13 5.5 19.5t20.5 9.5q40 8 80.5 19.5t57.5 11.5q8 0 14 -4.5t6 -13.5q0 -34 1.5 -71.5t1.5 -75.5q0 -84 -61 -133.5t-181 -49.5z" />
    <glyph glyph-name="uni0123" unicode="&#x123;" horiz-adv-x="514" 
d="M145 -15q-53 0 -82 29.5t-29 86.5t24.5 96t50.5 64q4 4 6.5 9t2.5 10q0 4 -1.5 7.5t-4.5 6.5q-22 22 -42 55t-20 86q0 80 54.5 129.5t152.5 49.5q49 0 78.5 -9.5t56.5 -25.5q4 -2 7.5 -3.5t7.5 -1.5q7 0 13 5t13 13q7 9 13 12.5t12 3.5q13 0 27 -16t17 -26q1 -2 1.5 -4.5
t0.5 -4.5q0 -4 -2.5 -9t-7.5 -9q-22 -20 -26 -29.5t-4 -22.5q0 -11 2 -24t2 -26q0 -84 -50.5 -137t-158.5 -53q-40 0 -67.5 -12t-44.5 -30.5t-24 -40.5t-7 -42q0 -27 12 -37.5t32 -10.5q22 0 44 8.5t46 18t51 18t59 8.5q29 0 52.5 -6.5t37.5 -16.5q10 -7 14 -15.5t4 -19.5
q0 -9 -7 -29.5t-16 -31.5q-5 -9 -12 -14t-14 -5q-4 0 -8 2t-7 6q-15 19 -33 31.5t-46 12.5q-22 0 -42 -9t-40.5 -19t-44 -19t-53.5 -9zM140 427q0 -48 33 -78.5t85 -30.5q51 0 86.5 31t35.5 80q0 44 -30.5 76t-87.5 32q-59 0 -90.5 -32.5t-31.5 -77.5zM297 814
q0 -6 -2 -14.5t-2 -21.5q0 -10 3 -19t10 -18q4 -6 6.5 -11.5t2.5 -9.5q0 -13 -22 -32.5t-41 -19.5q-12 0 -26 21t-14 58q0 39 25 60.5t47 21.5q5 0 9 -4t4 -11z" />
    <glyph glyph-name="Hcircumflex" unicode="&#x124;" horiz-adv-x="666" 
d="M140 -1q-7 0 -15.5 1.5t-16.5 2.5q-8 2 -13 7t-7 20q-3 14 -6.5 43.5t-6.5 68.5t-5 86.5t-2 98.5q0 169 13.5 273.5t22.5 136.5q4 13 8 18t11 7t16.5 3t17.5 1q9 0 18 -1t13 -2q5 -2 7.5 -6.5t2.5 -12.5q0 -9 -6 -42.5t-13 -79t-13 -98.5t-6 -101q0 -10 5.5 -14t13.5 -4
q22 0 61 10t105 10q65 0 99.5 -11.5t47.5 -11.5q8 0 11.5 5.5t3.5 18.5q0 59 -4.5 111.5t-10 94t-10 71t-4.5 42.5q0 7 2.5 11.5t9.5 6.5q6 1 12.5 2t12.5 1q7 0 14 -0.5t15 -1.5q10 -1 15 -7t8 -19q9 -31 20 -136.5t11 -274.5q0 -51 -2 -98.5t-5 -86.5t-6.5 -68.5
t-6.5 -43.5q-4 -16 -9.5 -22.5t-16.5 -7.5q-7 -1 -14 -1.5t-13 -0.5t-13 0.5t-15 1.5t-12.5 5t-4.5 14q0 11 3.5 39.5t7.5 63.5t7.5 71.5t3.5 61.5q0 44 -38 69t-113 25q-111 0 -151.5 -27.5t-40.5 -76.5q0 -34 4 -70.5t8 -68t8 -55t4 -32.5q0 -10 -3.5 -14t-10.5 -5
q-8 -1 -15 -1h-14zM435 818q-52 60 -73 73.5t-29 13.5t-28.5 -13.5t-75.5 -73.5q-4 -4 -8.5 -7t-8.5 -3q-7 0 -13 2.5t-13 6.5q-4 3 -6 6t-2 7q0 2 1 4.5t2 5.5q10 17 26 39t33.5 44t36 42.5t34.5 34.5q7 6 12.5 8t9.5 2t9.5 -2t12.5 -8q16 -14 34.5 -34.5t36 -42
t33.5 -43.5t26 -39q1 -3 2.5 -6t1.5 -6q0 -4 -2.5 -6.5t-6.5 -5.5q-8 -4 -13.5 -6.5t-13.5 -2.5q-5 0 -9 2t-9 8z" />
    <glyph glyph-name="hcircumflex" unicode="&#x125;" horiz-adv-x="527" 
d="M160 819h10.5t14.5 -1q6 -1 10.5 -5.5t4.5 -13.5q0 -10 -6 -34t-12.5 -52.5t-12.5 -59t-6 -52.5q0 -12 3.5 -18.5t12.5 -6.5q10 0 23 6t30.5 13t40 13t51.5 6q72 0 111.5 -50t39.5 -178q0 -53 -2.5 -108.5t-6 -104.5t-7 -86.5t-5.5 -54.5q-2 -16 -10 -23.5t-20 -8.5
q-4 -1 -9.5 -1h-11.5h-12t-10 1q-13 1 -18.5 6t-5.5 14t4.5 44t9.5 82t9.5 102t4.5 105q0 108 -21 146t-72 38q-27 0 -52.5 -10.5t-45 -33.5t-31 -60t-11.5 -90q0 -42 2 -93t5 -96.5t5 -80.5t2 -47q0 -13 -5.5 -18.5t-15.5 -6.5q-6 -1 -11.5 -1h-10.5h-14t-13 1
q-10 1 -17 7.5t-8 26.5q-4 63 -6.5 136t-2.5 148q0 64 2 129t7 125t13 114t19 98q4 17 10.5 23.5t17.5 8.5q7 1 14.5 1.5t14.5 0.5zM258 851q-52 60 -73 73.5t-29 13.5t-28.5 -13.5t-75.5 -73.5q-4 -4 -8.5 -7t-8.5 -3q-7 0 -13 2.5t-13 6.5q-4 3 -6 6t-2 7q0 2 1 4.5t2 5.5
q10 17 26 39t33.5 44t36 42.5t34.5 34.5q7 6 12.5 8t9.5 2t9.5 -2t12.5 -8q16 -14 34.5 -34.5t36 -42t33.5 -43.5t26 -39q1 -3 2.5 -6t1.5 -6q0 -4 -2.5 -6.5t-6.5 -5.5q-8 -4 -13.5 -6.5t-13.5 -2.5q-5 0 -9 2t-9 8z" />
    <glyph glyph-name="Hbar" unicode="&#x126;" horiz-adv-x="676" 
d="M184 405q22 0 61 4.5t105 4.5q47 0 90.5 -6t56.5 -6q8 0 11.5 5.5t3.5 18.5q0 19 -0.5 37t-1.5 36q0 13 -5.5 20t-19.5 8q-43 2 -95.5 3t-112.5 1q-20 0 -43 -0.5t-47 -0.5q-10 0 -14 -7t-5 -19q-1 -21 -2 -41.5t-1 -39.5q0 -10 5.5 -14t13.5 -4zM557 0q-7 -1 -14 -1.5
t-13 -0.5t-13 0.5t-15 1.5t-12.5 5t-4.5 14q0 11 3.5 39.5t7.5 63.5t7.5 71.5t3.5 61.5q0 39 -38 61t-113 22q-111 0 -151.5 -24.5t-40.5 -68.5q0 -34 4 -70.5t8 -68t8 -55t4 -32.5q0 -10 -3.5 -14t-10.5 -5q-8 -1 -15 -1h-14t-15.5 1.5t-16.5 2.5q-8 2 -13 7t-7 20
q-3 14 -6.5 43.5t-6.5 68.5t-5 86.5t-2 98.5t3 102t3 80q0 9 -3.5 13.5t-11.5 4.5h-33q-10 0 -14 4t-5 14q-1 4 -1 9v9v7.5t1 7.5q1 10 5 14t15 5q10 1 20.5 1.5t20.5 0.5q7 0 11 4.5t5 12.5q4 45 10 75.5t10 45.5q4 13 8 18t11 7t16.5 3t17.5 1q9 0 18 -1t13 -2
q5 -2 7.5 -6.5t2.5 -12.5q0 -5 -3 -22.5t-6.5 -38t-6.5 -39.5t-3 -27q0 -7 3 -10.5t10 -3.5q22 1 45 1h46q46 0 93 -1t94 -1q13 0 17.5 5.5t4.5 15.5q0 9 -2 27t-5 36.5t-5 35t-2 23.5t2.5 11.5t9.5 6.5q6 1 12.5 2t12.5 1q7 0 14 -0.5t15 -1.5q10 -1 15 -7t8 -19
q4 -15 9 -46t9 -76q1 -9 6 -13.5t14 -5.5q10 -1 20 -1t20 -1t14.5 -5t5.5 -14q1 -4 1 -9v-10v-10t-1 -11q-1 -10 -5 -13.5t-16 -3.5q-3 0 -13 1t-17 1q-8 0 -14.5 -3t-5.5 -18q2 -39 3 -81.5t1 -91.5q0 -51 -2 -98.5t-5 -86.5t-6.5 -68.5t-6.5 -43.5q-4 -16 -9.5 -22.5
t-16.5 -7.5z" />
    <glyph glyph-name="hbar" unicode="&#x127;" horiz-adv-x="527" 
d="M145 1q-6 -1 -11.5 -1h-10.5h-14t-13 1q-10 1 -17 7.5t-8 26.5q-4 60 -6.5 129t-2.5 139q0 167 8.5 250.5t8.5 96.5q0 6 -2.5 9t-8.5 3h-26q-17 0 -21.5 9t-4.5 21q0 27 5.5 35t21.5 8h37q5 0 9 2.5t5 8.5l9 39q4 17 10.5 23.5t17.5 8.5q7 1 14.5 1.5t14.5 0.5h10.5
t14.5 -1q7 -1 11 -5.5t4 -13.5q0 -7 -4 -25t-4 -28q0 -4 2 -6.5t7 -2.5q35 0 67.5 0.5t36.5 0.5q16 0 21.5 -7t5.5 -29q0 -25 -7 -34t-21 -9q-4 0 -17.5 0.5t-31 0.5t-36 0.5t-32.5 0.5q-7 0 -11.5 -5.5t-5.5 -14.5q-3 -18 -5 -35t-2 -31q0 -12 3.5 -18.5t12.5 -6.5
q10 0 23 6t30.5 13t40 13t51.5 6q72 0 111.5 -50t39.5 -178q0 -49 -2.5 -100.5t-6 -96.5t-7 -80t-5.5 -51t-10 -23.5t-20 -8.5q-4 -1 -9.5 -1h-11.5h-12t-10 1q-13 1 -18.5 6t-5.5 14t4.5 40.5t9.5 75.5t9.5 94.5t4.5 96.5q0 108 -21 146t-72 38q-27 0 -52.5 -10t-45 -32
t-31 -57t-11.5 -85q0 -40 2 -88t5 -91.5t5 -77t2 -44.5q0 -13 -5.5 -18.5t-15.5 -6.5z" />
    <glyph glyph-name="Itilde" unicode="&#x128;" horiz-adv-x="243" 
d="M169 1q-7 -1 -15 -1.5t-16 -0.5q-7 0 -15 0.5t-15 1.5t-11.5 4.5t-6.5 11.5q-4 15 -7.5 47.5t-6 75t-4 91.5t-1.5 96q0 169 12 274t19 137q2 13 7.5 18.5t15.5 7.5q5 1 12 1.5t14 0.5t15.5 -0.5t15.5 -1.5q6 -1 8.5 -4.5t2.5 -10.5q0 -10 -5.5 -38.5t-11.5 -75
t-11.5 -113t-5.5 -151.5q0 -71 3.5 -132.5t8 -108t8 -76t3.5 -36.5q0 -9 -3 -12.5t-10 -4.5zM-26 860q0 37 23 70.5t69 33.5q24 0 46.5 -7.5t44 -17t41.5 -17t38 -7.5q21 0 36.5 10.5t27.5 31.5q1 3 3.5 4.5t4.5 1.5q4 0 8 -7t4 -20q0 -41 -24 -76.5t-65 -35.5
q-23 0 -45.5 10t-45 22.5t-45 22.5t-45.5 10q-17 0 -29.5 -8t-27.5 -27q-2 -3 -5 -5t-5 -2q-4 0 -6.5 3.5t-2.5 9.5z" />
    <glyph glyph-name="itilde" unicode="&#x129;" horiz-adv-x="226" 
d="M0 708q0 37 23 70.5t69 33.5q31 0 59 -14.5t51 -14.5q18 0 31 8t23 23q2 3 4 4.5t4 1.5q4 0 8 -7t4 -20q0 -37 -21 -69t-58 -32q-15 0 -30.5 7t-30 15.5t-30 15.5t-30.5 7q-17 0 -29.5 -8t-27.5 -27q-2 -3 -5 -5t-5 -2q-4 0 -6.5 3.5t-2.5 9.5zM166 16q0 -8 -5 -11.5
t-12 -4.5t-15 -1.5t-15 -0.5t-14 0.5t-14 1.5q-8 1 -14 4.5t-7 15.5q-4 51 -7 111.5t-3 123.5q0 86 4.5 172t14.5 156q2 13 7.5 17t15.5 5q5 1 10.5 1h11.5h10.5t10.5 -1q8 -1 12.5 -4.5t4.5 -12.5q0 -13 -5.5 -94t-5.5 -227q0 -101 7.5 -167.5t7.5 -83.5z" />
    <glyph glyph-name="Imacron" unicode="&#x12a;" horiz-adv-x="243" 
d="M169 1q-7 -1 -15 -1.5t-16 -0.5q-7 0 -15 0.5t-15 1.5t-11.5 4.5t-6.5 11.5q-4 15 -7.5 47.5t-6 75t-4 91.5t-1.5 96q0 169 12 274t19 137q2 13 7.5 18.5t15.5 7.5q5 1 12 1.5t14 0.5t15.5 -0.5t15.5 -1.5q6 -1 8.5 -4.5t2.5 -10.5q0 -10 -5.5 -38.5t-11.5 -75
t-11.5 -113t-5.5 -151.5q0 -71 3.5 -132.5t8 -108t8 -76t3.5 -36.5q0 -9 -3 -12.5t-10 -4.5zM303 881q-2 -13 -8.5 -17.5t-23.5 -5.5q-18 -1 -41 -2t-48 -1q-44 0 -89.5 2t-76.5 4q-14 1 -19.5 6t-6.5 15q-1 4 -1 9.5v9.5v9t1 9q1 11 7 14.5t17 4.5q17 1 40 1h48q47 0 96 -1
t79 -2q13 -1 19 -5.5t7 -14.5q1 -3 1 -7.5v-8.5v-9t-1 -10z" />
    <glyph glyph-name="imacron" unicode="&#x12b;" horiz-adv-x="226" 
d="M225 739q-2 -13 -8.5 -17.5t-23.5 -5.5q-13 -1 -29 -2t-33 -1q-23 0 -46.5 2t-39.5 4q-14 1 -19.5 6t-6.5 15q-1 4 -1 9.5v9.5v9t1 9q1 11 7 14.5t17 4.5q17 1 40 1h48q18 0 37 -1t31 -2q13 -1 19 -5.5t7 -14.5q1 -3 1 -7.5v-8.5v-9t-1 -10zM166 16q0 -8 -5 -11.5
t-12 -4.5t-15 -1.5t-15 -0.5t-14 0.5t-14 1.5q-8 1 -14 4.5t-7 15.5q-4 51 -7 111.5t-3 123.5q0 86 4.5 172t14.5 156q2 13 7.5 17t15.5 5q5 1 10.5 1h11.5h10.5t10.5 -1q8 -1 12.5 -4.5t4.5 -12.5q0 -13 -5.5 -94t-5.5 -227q0 -101 7.5 -167.5t7.5 -83.5z" />
    <glyph glyph-name="Ibreve" unicode="&#x12c;" horiz-adv-x="243" 
d="M169 1q-7 -1 -15 -1.5t-16 -0.5q-7 0 -15 0.5t-15 1.5t-11.5 4.5t-6.5 11.5q-4 15 -7.5 47.5t-6 75t-4 91.5t-1.5 96q0 169 12 274t19 137q2 13 7.5 18.5t15.5 7.5q5 1 12 1.5t14 0.5t15.5 -0.5t15.5 -1.5q6 -1 8.5 -4.5t2.5 -10.5q0 -10 -5.5 -38.5t-11.5 -75
t-11.5 -113t-5.5 -151.5q0 -71 3.5 -132.5t8 -108t8 -76t3.5 -36.5q0 -9 -3 -12.5t-10 -4.5zM146 824q-81 0 -114.5 38t-33.5 90q0 19 6.5 25.5t25.5 6.5q22 0 31 -4.5t10 -21.5q3 -32 21 -49t56 -17q40 0 58.5 17t22.5 51q1 16 8.5 20t26.5 4t25.5 -5.5t6.5 -23.5
q0 -54 -34 -92.5t-116 -38.5z" />
    <glyph glyph-name="ibreve" unicode="&#x12d;" horiz-adv-x="226" 
d="M125 679q-63 0 -90 33t-27 79q0 18 6.5 23.5t25.5 5.5q22 0 30.5 -4t9.5 -20q1 -25 12 -39t35 -14q25 0 36.5 13.5t13.5 41.5q1 15 8 18.5t26 3.5t25 -5t6 -22q0 -47 -26.5 -80.5t-90.5 -33.5zM166 16q0 -8 -5 -11.5t-12 -4.5t-15 -1.5t-15 -0.5t-14 0.5t-14 1.5
q-8 1 -14 4.5t-7 15.5q-4 51 -7 111.5t-3 123.5q0 86 4.5 172t14.5 156q2 13 7.5 17t15.5 5q5 1 10.5 1h11.5h10.5t10.5 -1q8 -1 12.5 -4.5t4.5 -12.5q0 -13 -5.5 -94t-5.5 -227q0 -101 7.5 -167.5t7.5 -83.5z" />
    <glyph glyph-name="Iogonek" unicode="&#x12e;" horiz-adv-x="243" 
d="M112 -95q-43 0 -62.5 21.5t-19.5 51.5q0 24 12.5 42t27.5 30.5t27.5 21t12.5 14.5q0 2 -2 4.5t-7 3.5q-4 1 -7 4t-4 8q-4 13 -7.5 41.5t-6 66t-4 80.5t-1.5 85q0 149 12 241t19 120q2 12 7.5 17t15.5 6q5 1 12 1.5t14 0.5t15.5 -0.5t15.5 -1.5q6 -1 8.5 -3.5t2.5 -9.5
q0 -9 -5.5 -34t-11.5 -66t-11.5 -99.5t-5.5 -133.5q0 -63 3.5 -117t8 -94.5t8 -66.5t3.5 -32t-2 -9.5t-8 -6.5q-23 -11 -47.5 -36t-24.5 -53q0 -16 9.5 -26t31.5 -10q21 0 29.5 6.5t18.5 6.5q5 0 9 -4t4 -9q0 -20 -25 -40.5t-65 -20.5z" />
    <glyph glyph-name="iogonek" unicode="&#x12f;" horiz-adv-x="226" 
d="M120 678q-28 0 -42.5 15.5t-14.5 38.5q0 24 14.5 40t42.5 16q30 0 43.5 -16t13.5 -40q0 -23 -13.5 -38.5t-43.5 -15.5zM96 -95q-43 0 -62.5 21.5t-19.5 51.5q0 26 12 43.5t27 29.5t27 19.5t12 13.5q0 3 -2.5 5t-8.5 3t-10.5 5t-5.5 14q-4 38 -7 83t-3 92q0 78 4.5 156
t14.5 141q2 13 7.5 17t15.5 5q5 1 10.5 1h11.5h10.5t10.5 -1q8 -1 12.5 -4.5t4.5 -12.5q0 -12 -5.5 -85.5t-5.5 -204.5q0 -77 7.5 -127.5t7.5 -63.5q0 -6 -2.5 -9t-6.5 -5q-9 -6 -21 -15.5t-22 -21.5t-17.5 -26t-7.5 -28q0 -16 9.5 -26t31.5 -10q21 0 29.5 6.5t18.5 6.5
q5 0 9 -4t4 -9q0 -20 -25 -40.5t-65 -20.5z" />
    <glyph glyph-name="Idotaccent" unicode="&#x130;" horiz-adv-x="243" 
d="M169 1q-7 -1 -15 -1.5t-16 -0.5q-7 0 -15 0.5t-15 1.5t-11.5 4.5t-6.5 11.5q-4 15 -7.5 47.5t-6 75t-4 91.5t-1.5 96q0 169 12 274t19 137q2 13 7.5 18.5t15.5 7.5q5 1 12 1.5t14 0.5t15.5 -0.5t15.5 -1.5q6 -1 8.5 -4.5t2.5 -10.5q0 -10 -5.5 -38.5t-11.5 -75
t-11.5 -113t-5.5 -151.5q0 -71 3.5 -132.5t8 -108t8 -76t3.5 -36.5q0 -9 -3 -12.5t-10 -4.5zM148 844q-28 0 -44.5 15t-16.5 44q0 30 16.5 46.5t44.5 16.5t43.5 -16.5t15.5 -46.5q0 -29 -15.5 -44t-43.5 -15z" />
    <glyph glyph-name="dotlessi" unicode="&#x131;" horiz-adv-x="226" 
d="M166 16q0 -8 -5 -11.5t-12 -4.5t-15 -1.5t-15 -0.5t-14 0.5t-14 1.5q-8 1 -14 4.5t-7 15.5q-4 51 -7 111.5t-3 123.5q0 86 4.5 172t14.5 156q2 13 7.5 17t15.5 5q5 1 10.5 1h11.5h10.5t10.5 -1q8 -1 12.5 -4.5t4.5 -12.5q0 -13 -5.5 -94t-5.5 -227q0 -101 7.5 -167.5
t7.5 -83.5z" />
    <glyph glyph-name="IJ" unicode="&#x132;" horiz-adv-x="598" 
d="M182 261q-8 -1 -16.5 -1.5t-17.5 -0.5q-7 0 -15 0.5t-15 1.5t-11.5 4.5t-6.5 11.5q-4 10 -7.5 33t-6 53t-4 64t-1.5 65q0 101 8.5 164t12.5 82q2 13 7.5 18.5t15.5 7.5q5 1 12 1.5t14 0.5q8 0 17 -0.5t17 -1.5q4 -1 7.5 -4.5t3.5 -10.5q0 -13 -12 -71t-12 -164
q0 -46 3.5 -86.5t8 -72t8 -52t3.5 -25.5q0 -9 -3 -12.5t-10 -4.5zM284 -15q-75 0 -131.5 26t-81.5 58q-4 4 -5.5 8.5t-1.5 9.5q0 9 7 31t14 35q3 5 7.5 7.5t8.5 2.5q6 0 10.5 -4.5t11.5 -12.5q23 -28 63 -48t98 -20q85 0 121.5 68t36.5 177q0 89 -4.5 163t-10.5 128
t-10.5 86.5t-4.5 39.5q0 14 4.5 19t12.5 6q5 1 12 1h14q8 0 16 -0.5t15 -1.5q10 -1 16.5 -5.5t9.5 -16.5q5 -19 9 -72.5t6.5 -116t4 -122.5t1.5 -93q0 -101 -17.5 -169.5t-50 -109t-78.5 -57.5t-103 -17z" />
    <glyph glyph-name="ij" unicode="&#x133;" horiz-adv-x="482" 
d="M155 16q0 -8 -5 -11.5t-12 -4.5q-5 -1 -11.5 -1.5t-12.5 -0.5q-7 0 -14 0.5t-14 1.5q-8 1 -14 4.5t-7 15.5q-4 51 -7 111.5t-3 123.5q0 86 4.5 172t14.5 156q2 13 7.5 17t15.5 5q5 1 10.5 1h11.5h10.5t10.5 -1q8 -1 12.5 -4.5t4.5 -12.5q0 -13 -5.5 -94t-5.5 -227
q0 -101 4.5 -167.5t4.5 -83.5zM120 678q-28 0 -42.5 15.5t-14.5 38.5q0 24 14.5 40t42.5 16q30 0 43.5 -16t13.5 -40q0 -23 -13.5 -38.5t-43.5 -15.5zM393 604q7 -1 12 -5.5t6 -16.5q7 -65 9 -138t2 -130q0 -92 -6 -154t-21 -99t-40.5 -53t-65.5 -16q-19 0 -34 4t-27 11
q-6 4 -8.5 9.5t-2.5 15.5q0 12 2.5 29t4.5 24q1 6 5 9.5t9 3.5q11 0 21.5 -8.5t26.5 -8.5q29 0 41.5 34.5t12.5 130.5q0 46 -2 100.5t-5 102.5t-5 84t-2 46t2.5 16t11.5 8q7 1 15.5 1.5t15.5 0.5h10.5t11.5 -1zM364 678q-28 0 -42.5 15.5t-14.5 38.5q0 24 14.5 40t42.5 16
q30 0 43.5 -16t13.5 -40q0 -23 -13.5 -38.5t-43.5 -15.5z" />
    <glyph glyph-name="Jcircumflex" unicode="&#x134;" horiz-adv-x="335" 
d="M108 -15q-35 0 -61.5 11.5t-38.5 25.5q-4 4 -5.5 8.5t-1.5 9.5q0 9 7 28.5t14 35.5q3 5 7.5 7.5t8.5 2.5q6 0 10 -5t11 -13q6 -7 16.5 -12.5t23.5 -5.5q44 0 62 68t18 177q0 89 -4.5 163t-10.5 128t-10.5 86.5t-4.5 39.5q0 14 4.5 19t12.5 6q5 1 12 1h14q8 0 16 -0.5
t15 -1.5q10 -1 16.5 -5.5t9.5 -16.5q5 -19 9 -72.5t6.5 -116t4 -122.5t1.5 -93q0 -101 -11.5 -169.5t-32.5 -109t-51 -57.5t-67 -17zM300 818q-52 60 -73 73.5t-29 13.5t-28.5 -13.5t-75.5 -73.5q-4 -4 -8.5 -7t-8.5 -3q-7 0 -13 2.5t-13 6.5q-4 3 -6 6t-2 7q0 2 1 4.5
t2 5.5q10 17 26 39t33.5 44t36 42.5t34.5 34.5q7 6 12.5 8t9.5 2t9.5 -2t12.5 -8q16 -14 34.5 -34.5t36 -42t33.5 -43.5t26 -39q1 -3 2.5 -6t1.5 -6q0 -4 -2.5 -6.5t-6.5 -5.5q-8 -4 -13.5 -6.5t-13.5 -2.5q-5 0 -9 2t-9 8z" />
    <glyph glyph-name="jcircumflex" unicode="&#x135;" horiz-adv-x="266" 
d="M211 692q-37 33 -48 40.5t-17 7.5t-17.5 -7t-49.5 -41l-15 -12t-9 -4q-7 0 -13 2.5t-13 6.5q-4 3 -6 6t-2 7q0 2 1 4.5t2 5.5q16 28 46 66.5t54 60.5q7 6 12.5 8t9.5 2t9.5 -2t12.5 -8q25 -23 56 -61.5t47 -66.5q1 -3 2.5 -6t1.5 -6q0 -4 -2.5 -6.5t-6.5 -5.5
q-7 -4 -13 -6.5t-14 -2.5q-5 0 -10 3.5t-18 14.5zM177 604q7 -1 12 -5.5t6 -16.5q7 -65 9 -138t2 -130q0 -92 -6 -154t-21 -99t-40.5 -53t-65.5 -16q-19 0 -34 4t-27 11q-6 4 -8.5 9.5t-2.5 15.5q0 12 2.5 29t4.5 24q1 6 5 9.5t9 3.5q11 0 21.5 -8.5t26.5 -8.5
q29 0 41.5 34.5t12.5 130.5q0 46 -2 100.5t-5 102.5t-5 84t-2 46t2.5 16t11.5 8q7 1 15.5 1.5t15.5 0.5h10.5t11.5 -1z" />
    <glyph glyph-name="uni0136" unicode="&#x136;" horiz-adv-x="626" 
d="M278 -117q0 6 2 14.5t2 21.5q0 10 -3 19t-10 18q-4 6 -6.5 11.5t-2.5 9.5q0 13 22 32.5t41 19.5q12 0 26 -21t14 -58q0 -39 -25 -60.5t-47 -21.5q-5 0 -9 4t-4 11zM78 59q-4 46 -6.5 97t-2.5 103q0 67 2.5 135t7 129t9.5 114.5t11 92.5q2 20 7.5 26t17.5 8q4 1 12.5 1.5
t16.5 0.5t16 -0.5t15 -1.5q12 -1 17 -6.5t5 -20.5q0 -14 -7 -48t-15.5 -79t-15.5 -98.5t-7 -106.5q0 -7 2.5 -10.5t6.5 -3.5t8 1.5t11 4.5q99 41 166 134.5t91 213.5q1 10 6 14t12 5t17.5 1.5t20.5 0.5q7 0 14 -0.5t11 -1.5q9 -1 13 -6t4 -14q0 -30 -14.5 -73.5t-39.5 -89
t-59.5 -90.5t-72.5 -78q-5 -4 -7.5 -8t-2.5 -8t2.5 -8t7.5 -6q38 -19 72.5 -54t61 -79t42.5 -95.5t16 -102.5q0 -15 -5.5 -22.5t-15.5 -8.5q-5 -1 -12.5 -1.5t-14.5 -0.5t-13.5 1t-13.5 2q-13 3 -18 9t-6 20q-9 74 -29.5 128.5t-48.5 89.5t-61.5 52t-68.5 17
q-27 0 -54.5 -19.5t-27.5 -73.5q0 -18 4 -47t8.5 -58.5t8.5 -55.5t4 -38q0 -13 -6 -19t-17 -7q-5 -1 -12.5 -1h-15.5h-13t-10 1q-15 1 -23.5 9t-10.5 30z" />
    <glyph glyph-name="uni0137" unicode="&#x137;" horiz-adv-x="513" 
d="M218 -117q0 6 2 14.5t2 21.5q0 10 -3 19t-10 18q-4 6 -6.5 11.5t-2.5 9.5q0 13 22 32.5t41 19.5q12 0 26 -21t14 -58q0 -39 -25 -60.5t-47 -21.5q-5 0 -9 4t-4 11zM171 40q0 -9 -5.5 -14t-14.5 -6q-5 -1 -11.5 -1h-13.5h-13.5t-12.5 1q-10 1 -18.5 6.5t-9.5 22.5
q-6 57 -8.5 123t-2.5 135q0 122 7.5 249t23.5 236q2 16 9 20t13 5t12.5 1.5t12.5 0.5q7 0 13.5 -0.5t13.5 -1.5q6 -1 12 -5t6 -14q0 -6 -6.5 -52t-13.5 -109t-13.5 -133t-6.5 -124q0 -11 4 -17.5t14 -6.5q43 0 79 18.5t62.5 49t42 71.5t17.5 86q1 13 7 17.5t17 5.5q4 1 10 1
h12h16.5t11.5 -1q9 -1 15.5 -5.5t6.5 -19.5q0 -38 -17 -75t-40.5 -68t-50 -54.5t-45.5 -35.5q-5 -3 -8 -7t-3 -8t3 -7.5t8 -6.5q33 -16 63 -38t52.5 -53.5t35.5 -74t13 -99.5q0 -17 -4 -23t-17 -8q-6 -1 -13.5 -1.5t-14.5 -0.5h-10t-12 1q-14 1 -19.5 6.5t-6.5 24.5
q-3 113 -54 175t-124 62q-25 0 -36 -16.5t-11 -42.5q0 -71 11.5 -121t11.5 -68z" />
    <glyph glyph-name="Lacute" unicode="&#x139;" horiz-adv-x="411" 
d="M373 112q4 0 8 -3t6 -8q5 -10 9.5 -35t4.5 -36q0 -13 -8 -21t-24 -9q-21 -1 -45.5 -2t-49.5 -1q-47 0 -91.5 1t-75.5 2q-16 1 -25 6t-10 23q-1 29 -2 61.5t-1 66.5q0 69 2.5 145t8 152t14 151t20.5 141q1 8 5.5 12.5t11.5 5.5q5 1 15 1.5t21 0.5q7 0 14.5 -0.5t11.5 -1.5
q11 -1 15 -6t4 -12q0 -8 -9 -61.5t-19 -135t-19 -184.5t-9 -210q0 -49 10.5 -62.5t39.5 -13.5q36 0 75 7.5t73 20.5q9 3 13 4t6 1zM105 816q0 3 2.5 6.5t8.5 6.5q49 28 82 70t58 102q3 6 8 8t12 2q10 0 24 -2t27 -5q11 -3 15 -7.5t4 -11.5q0 -18 -18.5 -48.5t-49 -59.5
t-71 -50t-83.5 -21q-3 0 -6.5 0.5t-6.5 1.5q-2 1 -4 3t-2 5z" />
    <glyph glyph-name="lacute" unicode="&#x13a;" horiz-adv-x="264" 
d="M191 19q0 -10 -5 -14t-14 -5q-4 -1 -9.5 -1h-11.5h-14t-13 1q-10 1 -18.5 6.5t-9.5 22.5q-7 61 -10.5 131.5t-3.5 145.5q0 122 7 249.5t20 236.5q2 16 7.5 20t15.5 5q6 1 10.5 1h10.5h11.5t9.5 -1q7 -1 12.5 -5.5t5.5 -14.5q0 -13 -9 -114t-9 -282q0 -164 8.5 -262.5
t8.5 -119.5zM102 868q0 3 2.5 6.5t8.5 6.5q49 28 82 70t58 102q3 6 8 8t12 2q10 0 24 -2t27 -5q11 -3 15 -7.5t4 -11.5q0 -18 -18.5 -48.5t-49 -59.5t-71 -50t-83.5 -21q-3 0 -6.5 0.5t-6.5 1.5q-2 1 -4 3t-2 5z" />
    <glyph glyph-name="uni013B" unicode="&#x13b;" horiz-adv-x="411" 
d="M196 -117q0 6 2 14.5t2 21.5q0 10 -3 19t-10 18q-4 6 -6.5 11.5t-2.5 9.5q0 13 22 32.5t41 19.5q12 0 26 -21t14 -58q0 -39 -25 -60.5t-47 -21.5q-5 0 -9 4t-4 11zM156 225q0 -49 10.5 -62.5t39.5 -13.5q36 0 75.5 7t79.5 22q4 2 7 3t5 1q4 0 8 -3t6 -8q5 -10 9.5 -35
t4.5 -36q0 -13 -8 -21t-24 -9q-21 -1 -45.5 -2t-49.5 -1q-47 0 -91.5 1t-75.5 2q-16 1 -25 6t-10 23q-1 29 -2 61.5t-1 66.5q0 61 2.5 128t8 134t14 132.5t20.5 124.5q1 8 5.5 12.5t11.5 5.5q5 1 15 1.5t21 0.5q7 0 14.5 -0.5t11.5 -1.5q11 -1 15 -6t4 -12t-9 -54t-19 -119
t-19 -163t-9 -185z" />
    <glyph glyph-name="uni013C" unicode="&#x13c;" horiz-adv-x="264" 
d="M109 -117q0 6 2 14.5t2 21.5q0 10 -3 19t-10 18q-4 6 -6.5 11.5t-2.5 9.5q0 13 22 32.5t41 19.5q12 0 26 -21t14 -58q0 -39 -25 -60.5t-47 -21.5q-5 0 -9 4t-4 11zM191 110q0 -10 -5 -14t-14 -5q-4 -1 -9.5 -1h-11.5h-14.5t-13.5 1q-10 1 -18.5 6.5t-9.5 22.5
q-7 50 -10 108t-3 119q0 112 7.5 228.5t22.5 216.5q2 16 7.5 20t15.5 5q4 1 10 1h12h11.5t9.5 -1q7 -1 12.5 -5.5t5.5 -14.5q0 -11 -11 -105t-11 -250q0 -135 8.5 -224.5t8.5 -107.5z" />
    <glyph glyph-name="Lcaron" unicode="&#x13d;" horiz-adv-x="411" 
d="M373 112q4 0 8 -3t6 -8q5 -10 9.5 -35t4.5 -36q0 -13 -8 -21t-24 -9q-21 -1 -45.5 -2t-49.5 -1q-47 0 -91.5 1t-75.5 2q-16 1 -25 6t-10 23q-1 29 -2 61.5t-1 66.5q0 69 2.5 145t8 152t14 151t20.5 141q1 8 5.5 12.5t11.5 5.5q5 1 15 1.5t21 0.5q7 0 14.5 -0.5t11.5 -1.5
q11 -1 15 -6t4 -12q0 -8 -9 -61.5t-19 -135t-19 -184.5t-9 -210q0 -49 10.5 -62.5t39.5 -13.5q36 0 75 7.5t73 20.5q9 3 13 4t6 1zM264 762q0 6 3.5 12.5t9.5 13.5t15.5 16t21.5 17q5 4 9.5 5.5t9.5 1.5q13 0 28.5 -26.5t15.5 -72.5q0 -45 -10 -76.5t-23 -51.5t-26.5 -29
t-20.5 -9q-6 0 -10 4t-4 11q0 12 11.5 33.5t11.5 53.5q0 20 -8.5 40t-27.5 42q-3 4 -4.5 7.5t-1.5 7.5z" />
    <glyph glyph-name="lcaron" unicode="&#x13e;" horiz-adv-x="304" 
d="M191 19q0 -10 -5 -14t-14 -5q-4 -1 -9.5 -1h-11.5h-14t-13 1q-10 1 -18.5 6.5t-9.5 22.5q-7 61 -10.5 131.5t-3.5 145.5q0 122 7 249.5t20 236.5q2 16 7.5 20t15.5 5q6 1 10.5 1h10.5h11.5t9.5 -1q7 -1 12.5 -5.5t5.5 -14.5q0 -13 -9 -114t-9 -282q0 -164 8.5 -262.5
t8.5 -119.5zM233 762q0 6 3.5 12.5t9.5 13.5t15.5 16t21.5 17q5 4 9.5 5.5t9.5 1.5q13 0 28.5 -26.5t15.5 -72.5q0 -45 -10 -76.5t-23 -51.5t-26.5 -29t-20.5 -9q-6 0 -10 4t-4 11q0 12 11.5 33.5t11.5 53.5q0 20 -8.5 40t-27.5 42q-3 4 -4.5 7.5t-1.5 7.5z" />
    <glyph glyph-name="Ldot" unicode="&#x13f;" horiz-adv-x="411" 
d="M373 112q4 0 8 -3t6 -8q5 -10 9.5 -35t4.5 -36q0 -13 -8 -21t-24 -9q-21 -1 -45.5 -2t-49.5 -1q-47 0 -91.5 1t-75.5 2q-16 1 -25 6t-10 23q-1 29 -2 61.5t-1 66.5q0 69 2.5 145t8 152t14 151t20.5 141q1 8 5.5 12.5t11.5 5.5q5 1 15 1.5t21 0.5q7 0 14.5 -0.5t11.5 -1.5
q11 -1 15 -6t4 -12q0 -8 -9 -61.5t-19 -135t-19 -184.5t-9 -210q0 -49 10.5 -62.5t39.5 -13.5q36 0 75 7.5t73 20.5q9 3 13 4t6 1zM299 332q-28 0 -44 16.5t-16 47.5q0 32 16 50t44 18t43.5 -18t15.5 -50q0 -31 -15.5 -47.5t-43.5 -16.5z" />
    <glyph glyph-name="ldot" unicode="&#x140;" horiz-adv-x="343" 
d="M191 19q0 -10 -5 -14t-14 -5q-4 -1 -9.5 -1h-11.5h-14t-13 1q-10 1 -18.5 6.5t-9.5 22.5q-7 61 -10.5 131.5t-3.5 145.5q0 122 7 249.5t20 236.5q2 16 7.5 20t15.5 5q6 1 10.5 1h10.5h11.5t9.5 -1q7 -1 12.5 -5.5t5.5 -14.5q0 -13 -9 -114t-9 -282q0 -164 8.5 -262.5
t8.5 -119.5zM279 308q-28 0 -44 16.5t-16 47.5q0 32 16 50t44 18t43.5 -18t15.5 -50q0 -31 -15.5 -47.5t-43.5 -16.5z" />
    <glyph glyph-name="Lslash" unicode="&#x141;" horiz-adv-x="429" 
d="M274 -3q-47 0 -91.5 1t-75.5 2q-16 1 -25 6t-10 23q-1 29 -2 61.5t-1 66.5q0 44 0.5 71t1.5 54q0 6 -2 9t-6 3t-13.5 -4t-13.5 -4q-5 0 -8 2.5t-4 7.5q-3 16 -4.5 29t-2.5 25q0 6 2.5 9.5t11.5 7.5q7 3 14 5.5t16 5.5q8 3 11.5 8t3.5 12q4 90 14 180t24 168q1 8 5.5 12.5
t11.5 5.5q5 1 15 1.5t21 0.5q7 0 14.5 -0.5t11.5 -1.5q11 -1 15 -6t4 -12q0 -5 -4 -31t-10.5 -67.5t-13.5 -97t-13 -118.5q-1 -10 1.5 -14t8.5 -4q7 0 26 5.5t40 11.5t40 11.5t26 5.5t9.5 -3t4.5 -7q7 -14 12 -32t5 -25t-4.5 -11.5t-17.5 -6.5q-28 -6 -64.5 -15.5
t-73.5 -19.5q-12 -3 -17.5 -9.5t-5.5 -16.5q-2 -36 -3.5 -73t-1.5 -74q0 -49 10.5 -62.5t39.5 -13.5q35 0 74.5 6.5t77.5 22.5q4 1 8 2.5t7 1.5q4 0 8 -3t6 -8q3 -5 5.5 -15.5t4.5 -22t3 -22.5t1 -17q0 -10 -8 -16.5t-24 -7.5q-21 -1 -45.5 -2t-49.5 -1z" />
    <glyph glyph-name="lslash" unicode="&#x142;" horiz-adv-x="272" 
d="M151 -1h-14.5t-13.5 1q-10 1 -18.5 6.5t-9.5 22.5q-7 60 -10 128.5t-3 141.5q0 6 -3 10t-7 4q-5 0 -21 -6.5t-22 -6.5q-4 0 -7.5 3t-5.5 8q-3 8 -5.5 23.5t-2.5 27.5q0 6 2 10t11 7q10 4 23.5 7.5t27.5 10.5q7 3 9 9t2 13q0 37 2.5 84.5t6.5 97t9.5 99.5t11.5 92
q2 16 7.5 20t15.5 5q4 1 9.5 1h11.5h11.5t9.5 -1q7 -1 12.5 -5.5t5.5 -14.5q0 -6 -3.5 -40t-7.5 -83.5t-7.5 -110t-3.5 -118.5q0 -6 2.5 -9t6.5 -3q6 0 28 7.5t29 7.5q4 0 7.5 -1.5t5.5 -6.5q6 -12 9.5 -31t3.5 -29q0 -7 -4.5 -11t-20.5 -8q-11 -2 -23.5 -5.5t-25.5 -6.5
q-9 -2 -12.5 -7t-3.5 -14q0 -60 3 -112.5t7 -93t7 -67.5t3 -36q0 -10 -4.5 -14t-12.5 -5q-5 -1 -13 -1h-15z" />
    <glyph glyph-name="Nacute" unicode="&#x143;" horiz-adv-x="679" 
d="M141 -2q-7 0 -14 0.5t-12 1.5q-11 1 -18 6t-8 15q-11 76 -16 164.5t-5 173.5q0 65 2.5 126t6.5 111t10 87.5t12 56.5q4 10 11 16.5t17 7.5q6 1 13 1.5t13 0.5q7 0 14.5 -0.5t12.5 -1.5q7 -1 13.5 -5t12.5 -12q26 -35 63.5 -96t79.5 -139.5t84.5 -172t78.5 -193.5
q1 -4 4 -6t7 -2t7 4t3 11q0 127 -6.5 230.5t-14.5 179t-14.5 122.5t-6.5 62q0 7 4.5 12t11.5 6q5 1 12 1.5t14 0.5q8 0 16 -0.5t14 -1.5q10 -1 17 -6t9 -17q6 -33 10 -75.5t6.5 -90t4 -99t1.5 -103.5q0 -96 -4.5 -188t-12.5 -157q-2 -15 -9 -21.5t-23 -7.5q-4 -1 -11 -1h-14
h-14t-11 1q-13 2 -19 7t-12 19q-38 86 -77 169t-76.5 159.5t-73 145.5t-67.5 127q-4 7 -7.5 10t-6.5 3q-5 0 -8.5 -5t-4.5 -13q-5 -124 -1 -231.5t10.5 -187t12.5 -128.5t6 -56q0 -10 -6.5 -14t-17.5 -5q-4 -1 -10 -1.5t-13 -0.5zM255 817q0 3 2.5 6.5t8.5 6.5q49 28 82 70
t58 102q3 6 8 8t12 2q10 0 24 -2t27 -5q11 -3 15 -7.5t4 -11.5q0 -18 -18.5 -48.5t-49 -59.5t-71 -50t-83.5 -21q-3 0 -6.5 0.5t-6.5 1.5q-2 1 -4 3t-2 5z" />
    <glyph glyph-name="nacute" unicode="&#x144;" horiz-adv-x="521" 
d="M316 612q74 0 114 -58.5t40 -204.5q0 -50 -2.5 -102t-6 -97t-7.5 -79t-6 -49q-1 -10 -7.5 -15.5t-14.5 -6.5q-4 -1 -9.5 -1h-10.5q-8 0 -16.5 0.5t-15.5 1.5q-9 1 -13 6.5t-4 13.5t3.5 38t7.5 77t7.5 109.5t3.5 135.5q0 71 -16.5 111.5t-70.5 40.5q-28 0 -54.5 -10
t-45.5 -29q-10 -10 -18 -23t-14 -33.5t-9 -52t-3 -78.5q0 -40 2 -86t5 -86.5t5 -70.5t2 -37q0 -13 -5 -19.5t-17 -7.5q-4 -1 -9 -1h-10h-12.5t-11.5 1q-10 1 -17 5.5t-8 20.5q-6 55 -10 124.5t-4 150.5q0 61 2.5 129.5t8.5 140.5q1 19 9 25t19 7q6 1 11 1h10h10.5t12.5 -1
q10 -1 14.5 -6t4.5 -15q0 -7 2 -12t7 -5q7 0 20.5 7.5t32.5 16t43 16t51 7.5zM179 684q0 3 2.5 6.5t8.5 6.5q49 28 82 70t58 102q3 6 8 8t12 2q10 0 24 -2t27 -5q11 -3 15 -7.5t4 -11.5q0 -18 -18.5 -48.5t-49 -59.5t-71 -50t-83.5 -21q-3 0 -6.5 0.5t-6.5 1.5q-2 1 -4 3
t-2 5z" />
    <glyph glyph-name="uni0145" unicode="&#x145;" horiz-adv-x="679" 
d="M302 -117q0 6 2 14.5t2 21.5q0 10 -3 19t-10 18q-4 6 -6.5 11.5t-2.5 9.5q0 13 22 32.5t41 19.5q12 0 26 -21t14 -58q0 -39 -25 -60.5t-47 -21.5q-5 0 -9 4t-4 11zM141 78q-7 0 -14 0.5t-12 1.5q-11 1 -18 6t-8 15q-11 58 -16 125.5t-5 132.5t2.5 126t6.5 111t10 87.5
t12 56.5q4 10 11 16.5t17 7.5q6 1 13 1.5t13 0.5q7 0 14.5 -0.5t12.5 -1.5q7 -1 13.5 -5t12.5 -12q26 -31 63.5 -83.5t79.5 -120.5t84.5 -149t78.5 -168q1 -4 4 -6t7 -2t7 4t3 11q0 110 -6.5 199.5t-14.5 155t-14.5 106t-6.5 53.5q0 7 4.5 12t11.5 6q5 1 12 1.5t14 0.5
q8 0 16 -0.5t14 -1.5q10 -1 17 -6t9 -17q6 -33 10 -75.5t6.5 -90t4 -99t1.5 -103.5q0 -74 -4.5 -144.5t-12.5 -120.5q-2 -15 -9 -21.5t-23 -7.5q-4 -1 -11 -1h-14h-14t-11 1q-13 2 -19 7t-12 19q-77 149 -153.5 285t-140.5 236q-4 7 -7.5 10t-6.5 3q-5 0 -8.5 -5t-4.5 -13
q-5 -108 -1 -201t10.5 -162.5t12.5 -111.5t6 -48q0 -10 -6.5 -14t-17.5 -5q-4 -1 -10 -1.5t-13 -0.5z" />
    <glyph glyph-name="uni0146" unicode="&#x146;" horiz-adv-x="521" 
d="M218 -117q0 6 2 14.5t2 21.5q0 10 -3 19t-10 18q-4 6 -6.5 11.5t-2.5 9.5q0 13 22 32.5t41 19.5q12 0 26 -21t14 -58q0 -39 -25 -60.5t-47 -21.5q-5 0 -9 4t-4 11zM316 612q74 0 114 -58.5t40 -204.5q0 -47 -2.5 -96t-6 -90.5t-7.5 -74t-6 -46.5q-1 -10 -7.5 -15.5
t-14.5 -6.5q-4 -1 -9.5 -1h-10.5q-8 0 -16.5 0.5t-15.5 1.5q-9 1 -13 6.5t-4 13.5t3.5 36t7.5 72.5t7.5 103.5t3.5 128q0 71 -16.5 111.5t-70.5 40.5q-28 0 -54.5 -10t-45.5 -29q-10 -10 -18 -23t-14 -33.5t-9 -52t-3 -78.5q0 -37 2 -79.5t5 -80.5t5 -65.5t2 -34.5
q0 -13 -5 -19.5t-17 -7.5q-4 -1 -9 -1h-10h-12.5t-11.5 1q-10 1 -17 5.5t-8 20.5q-6 51 -10 115.5t-4 139.5q0 61 2.5 129.5t8.5 140.5q1 19 9 25t19 7q6 1 11 1h10h10.5t12.5 -1q10 -1 14.5 -6t4.5 -15q0 -7 2 -12t7 -5q7 0 20.5 7.5t32.5 16t43 16t51 7.5z" />
    <glyph glyph-name="Ncaron" unicode="&#x147;" horiz-adv-x="679" 
d="M141 -2q-7 0 -14 0.5t-12 1.5q-11 1 -18 6t-8 15q-11 76 -16 164.5t-5 173.5q0 65 2.5 126t6.5 111t10 87.5t12 56.5q4 10 11 16.5t17 7.5q6 1 13 1.5t13 0.5q7 0 14.5 -0.5t12.5 -1.5q7 -1 13.5 -5t12.5 -12q26 -35 63.5 -96t79.5 -139.5t84.5 -172t78.5 -193.5
q1 -4 4 -6t7 -2t7 4t3 11q0 127 -6.5 230.5t-14.5 179t-14.5 122.5t-6.5 62q0 7 4.5 12t11.5 6q5 1 12 1.5t14 0.5q8 0 16 -0.5t14 -1.5q10 -1 17 -6t9 -17q6 -33 10 -75.5t6.5 -90t4 -99t1.5 -103.5q0 -96 -4.5 -188t-12.5 -157q-2 -15 -9 -21.5t-23 -7.5q-4 -1 -11 -1h-14
h-14t-11 1q-13 2 -19 7t-12 19q-38 86 -77 169t-76.5 159.5t-73 145.5t-67.5 127q-4 7 -7.5 10t-6.5 3q-5 0 -8.5 -5t-4.5 -13q-5 -124 -1 -231.5t10.5 -187t12.5 -128.5t6 -56q0 -10 -6.5 -14t-17.5 -5q-4 -1 -10 -1.5t-13 -0.5zM340 802q-4 0 -9.5 2t-12.5 8
q-16 14 -34.5 34.5t-36 42t-33.5 43.5t-26 39q-1 3 -2.5 6t-1.5 6q0 4 2.5 6.5t6.5 5.5q8 4 14.5 6.5t12.5 2.5q5 0 8.5 -1.5t9.5 -8.5q50 -58 72 -72.5t30 -14.5t30 14.5t74 72.5q5 6 9 8t8 2q7 0 13 -2.5t13 -6.5q4 -3 6 -6t2 -7q0 -2 -1 -4.5t-2 -5.5q-10 -17 -26 -39
t-33.5 -44t-36 -42.5t-34.5 -34.5q-7 -6 -12.5 -8t-9.5 -2z" />
    <glyph glyph-name="ncaron" unicode="&#x148;" horiz-adv-x="521" 
d="M316 612q74 0 114 -58.5t40 -204.5q0 -50 -2.5 -102t-6 -97t-7.5 -79t-6 -49q-1 -10 -7.5 -15.5t-14.5 -6.5q-4 -1 -9.5 -1h-10.5q-8 0 -16.5 0.5t-15.5 1.5q-9 1 -13 6.5t-4 13.5t3.5 38t7.5 77t7.5 109.5t3.5 135.5q0 71 -16.5 111.5t-70.5 40.5q-28 0 -54.5 -10
t-45.5 -29q-10 -10 -18 -23t-14 -33.5t-9 -52t-3 -78.5q0 -40 2 -86t5 -86.5t5 -70.5t2 -37q0 -13 -5 -19.5t-17 -7.5q-4 -1 -9 -1h-10h-12.5t-11.5 1q-10 1 -17 5.5t-8 20.5q-6 55 -10 124.5t-4 150.5q0 61 2.5 129.5t8.5 140.5q1 19 9 25t19 7q6 1 11 1h10h10.5t12.5 -1
q10 -1 14.5 -6t4.5 -15q0 -7 2 -12t7 -5q7 0 20.5 7.5t32.5 16t43 16t51 7.5zM265 669q-4 0 -9.5 2t-12.5 8q-16 14 -34.5 34.5t-36 42t-33.5 43.5t-26 39q-1 3 -2.5 6t-1.5 6q0 4 2.5 6.5t6.5 5.5q8 4 14.5 6.5t12.5 2.5q5 0 8.5 -1.5t9.5 -8.5q50 -58 72 -72.5t30 -14.5
t30 14.5t74 72.5q5 6 9 8t8 2q7 0 13 -2.5t13 -6.5q4 -3 6 -6t2 -7q0 -2 -1 -4.5t-2 -5.5q-10 -17 -26 -39t-33.5 -44t-36 -42.5t-34.5 -34.5q-7 -6 -12.5 -8t-9.5 -2z" />
    <glyph glyph-name="napostrophe" unicode="&#x149;" horiz-adv-x="551" 
d="M0 757q0 4 2 9t6 10q7 7 17.5 16t23.5 18q5 4 9.5 6t9.5 2q12 0 23 -24t11 -74q0 -35 -9 -63t-20.5 -46.5t-24 -28t-19.5 -9.5q-4 0 -7 3.5t-3 7.5q0 13 6.5 29t6.5 49q0 21 -5 36t-11 26t-11 18.5t-5 14.5zM346 612q74 0 114 -58.5t40 -204.5q0 -50 -2.5 -102t-6 -97
t-7.5 -79t-6 -49q-1 -10 -7.5 -15.5t-14.5 -6.5q-4 -1 -9.5 -1h-10.5q-8 0 -16.5 0.5t-15.5 1.5q-9 1 -13 6.5t-4 13.5t3.5 38t7.5 77t7.5 109.5t3.5 135.5q0 71 -16.5 111.5t-70.5 40.5q-28 0 -54.5 -10t-45.5 -29q-10 -10 -18 -23t-14 -33.5t-9 -52t-3 -78.5q0 -40 2 -86
t5 -86.5t5 -70.5t2 -37q0 -13 -5 -19.5t-17 -7.5q-4 -1 -9 -1h-10h-12.5t-11.5 1q-10 1 -17 5.5t-8 20.5q-6 55 -10 124.5t-4 150.5q0 61 2.5 129.5t8.5 140.5q1 19 9 25t19 7q6 1 11 1h10h10.5t12.5 -1q10 -1 14.5 -6t4.5 -15q0 -7 2 -12t7 -5q7 0 20.5 7.5t32.5 16t43 16
t51 7.5z" />
    <glyph glyph-name="Eng" unicode="&#x14a;" horiz-adv-x="676" 
d="M441 -15q-35 0 -61.5 11.5t-38.5 25.5q-4 4 -5.5 8.5t-1.5 9.5q0 9 7 28.5t14 35.5q3 5 7.5 7.5t8.5 2.5q6 0 10 -5t11 -13q6 -7 16.5 -12.5t23.5 -5.5q27 0 48 23.5t21 59.5q0 30 -35.5 90t-85 128t-103 135t-90.5 113q-4 7 -7.5 10t-6.5 3q-5 0 -8.5 -5t-4.5 -13
q-1 -34 -2 -67.5t-1 -64.5q0 -99 5 -183t10.5 -145.5t10.5 -99t5 -43.5q0 -10 -6.5 -14t-17.5 -5q-4 -1 -10 -1.5t-13 -0.5t-14 0.5t-12 1.5q-11 1 -18 6t-8 15q-11 76 -16 164.5t-5 173.5q0 65 2.5 126t6.5 111t10 87.5t12 56.5q4 10 11 16.5t17 7.5q6 1 13 1.5t13 0.5
q7 0 14.5 -0.5t12.5 -1.5q7 -1 13.5 -5t12.5 -12q26 -25 63.5 -69t79.5 -100t84.5 -123t78.5 -139q1 -4 4 -6t7 -2t7 4t3 11q0 91 -6.5 165t-14.5 127.5t-14.5 87.5t-6.5 44q0 7 4.5 12t11.5 6q5 1 12 1.5t14 0.5q8 0 16 -0.5t14 -1.5q10 -1 17 -6t9 -17q6 -33 10 -75.5
t6.5 -90t4 -99t1.5 -103.5q0 -210 -47 -299.5t-123 -89.5z" />
    <glyph glyph-name="eng" unicode="&#x14b;" horiz-adv-x="521" 
d="M345 -12q-29 0 -48.5 10.5t-30.5 24.5t-15.5 30t-4.5 26q0 7 4 10.5t9 3.5q13 0 27 -12.5t40 -12.5q16 0 27 10.5t17 37t8.5 71t2.5 112.5q0 134 -20.5 184t-73.5 50q-27 0 -51.5 -10t-43.5 -29q-10 -10 -18 -21.5t-14 -30t-9 -47t-3 -70.5q0 -24 1.5 -51t4 -51.5t4 -42
t1.5 -21.5q0 -13 -5 -19.5t-17 -7.5q-4 -1 -9 -1h-10h-12.5t-11.5 1q-10 1 -17 5.5t-8 20.5q-4 32 -7.5 73t-3.5 88q0 57 2.5 120.5t8.5 131.5q1 19 9 25t19 7q6 1 11 1h10h10.5t12.5 -1q10 -1 14.5 -6t4.5 -15q0 -7 2 -12t7 -5q7 0 20 7.5t31 16t41 16t49 7.5
q84 0 121.5 -69t37.5 -241q0 -98 -10.5 -159.5t-28 -95.5t-39.5 -46.5t-46 -12.5z" />
    <glyph glyph-name="Omacron" unicode="&#x14c;" 
d="M572 298q0 -67 -13 -124.5t-44 -99t-82 -65.5t-126 -24q-76 0 -128 24t-83 65.5t-44.5 99t-13.5 123.5q0 91 17 178.5t50.5 154.5t84 108t115.5 41t115.5 -41t84 -108t50.5 -154t17 -178zM306 73q85 0 130.5 55.5t45.5 180.5q0 73 -13 142.5t-36 123t-56 86t-72 32.5
q-41 0 -74 -33.5t-56 -87.5t-35 -122.5t-12 -137.5q0 -128 46.5 -183.5t131.5 -55.5zM459 894q-2 -13 -8.5 -17.5t-23.5 -5.5q-18 -1 -41 -2t-48 -1q-44 0 -89.5 2t-76.5 4q-14 1 -19.5 6t-6.5 15q-1 4 -1 9.5v9.5v9t1 9q1 11 7 14.5t17 4.5q17 1 40 1h48q47 0 96 -1t79 -2
q13 -1 19 -5.5t7 -14.5q1 -3 1 -7.5v-8.5v-9t-1 -10z" />
    <glyph glyph-name="omacron" unicode="&#x14d;" horiz-adv-x="503" 
d="M251 72q70 0 100 57t30 164q0 115 -34.5 178t-92.5 63q-63 0 -96.5 -63.5t-33.5 -177.5q0 -107 29.5 -164t97.5 -57zM245 -10q-101 0 -156 70t-55 227q0 73 14 133.5t42 103t70 66.5t96 24q113 0 163 -88.5t50 -238.5q0 -157 -61.5 -227t-162.5 -70zM412 749
q-2 -13 -8.5 -17.5t-23.5 -5.5q-18 -1 -41 -2t-48 -1q-44 0 -89.5 2t-76.5 4q-14 1 -19.5 6t-6.5 15q-1 4 -1 9.5v9.5v9t1 9q1 11 7 14.5t17 4.5q17 1 40 1h48q47 0 96 -1t79 -2q13 -1 19 -5.5t7 -14.5q1 -3 1 -7.5v-8.5v-9t-1 -10z" />
    <glyph glyph-name="Obreve" unicode="&#x14e;" 
d="M572 298q0 -67 -13 -124.5t-44 -99t-82 -65.5t-126 -24q-76 0 -128 24t-83 65.5t-44.5 99t-13.5 123.5q0 91 17 178.5t50.5 154.5t84 108t115.5 41t115.5 -41t84 -108t50.5 -154t17 -178zM306 73q85 0 130.5 55.5t45.5 180.5q0 73 -13 142.5t-36 123t-56 86t-72 32.5
q-41 0 -74 -33.5t-56 -87.5t-35 -122.5t-12 -137.5q0 -128 46.5 -183.5t131.5 -55.5zM301 837q-81 0 -114.5 38t-33.5 90q0 19 6.5 25.5t25.5 6.5q22 0 31 -4.5t10 -21.5q3 -32 21 -49t56 -17q40 0 58.5 17t22.5 51q1 16 8.5 20t26.5 4t25.5 -5.5t6.5 -23.5q0 -54 -34 -92.5
t-116 -38.5z" />
    <glyph glyph-name="obreve" unicode="&#x14f;" horiz-adv-x="503" 
d="M251 72q70 0 100 57t30 164q0 115 -34.5 178t-92.5 63q-63 0 -96.5 -63.5t-33.5 -177.5q0 -107 29.5 -164t97.5 -57zM245 -10q-101 0 -156 70t-55 227q0 73 14 133.5t42 103t70 66.5t96 24q113 0 163 -88.5t50 -238.5q0 -157 -61.5 -227t-162.5 -70zM254 692
q-81 0 -114.5 38t-33.5 90q0 19 6.5 25.5t25.5 6.5q22 0 31 -4.5t10 -21.5q3 -32 21 -49t56 -17q40 0 58.5 17t22.5 51q1 16 8.5 20t26.5 4t25.5 -5.5t6.5 -23.5q0 -54 -34 -92.5t-116 -38.5z" />
    <glyph glyph-name="Ohungarumlaut" unicode="&#x150;" 
d="M572 298q0 -67 -13 -124.5t-44 -99t-82 -65.5t-126 -24q-76 0 -128 24t-83 65.5t-44.5 99t-13.5 123.5q0 91 17 178.5t50.5 154.5t84 108t115.5 41t115.5 -41t84 -108t50.5 -154t17 -178zM306 73q85 0 130.5 55.5t45.5 180.5q0 73 -13 142.5t-36 123t-56 86t-72 32.5
q-41 0 -74 -33.5t-56 -87.5t-35 -122.5t-12 -137.5q0 -128 46.5 -183.5t131.5 -55.5zM224 816q-5 0 -9 1.5t-4 8.5q0 5 5.5 25.5t13.5 46.5t17.5 54t17.5 47q6 15 16.5 20t23.5 5q23 0 35 -4.5t12 -13.5q0 -10 -14 -37.5t-57 -97.5q-21 -34 -31.5 -44.5t-25.5 -10.5z
M355 816q-6 0 -9.5 2t-3.5 8q0 7 7 26t18 43.5t24 52t26 52.5q7 13 17 18.5t23 5.5q25 0 38.5 -4.5t13.5 -14.5q0 -13 -18.5 -39t-69.5 -95q-17 -23 -34.5 -39t-31.5 -16z" />
    <glyph glyph-name="ohungarumlaut" unicode="&#x151;" horiz-adv-x="503" 
d="M251 72q70 0 100 57t30 164q0 115 -34.5 178t-92.5 63q-63 0 -96.5 -63.5t-33.5 -177.5q0 -107 29.5 -164t97.5 -57zM245 -10q-101 0 -156 70t-55 227q0 73 14 133.5t42 103t70 66.5t96 24q113 0 163 -88.5t50 -238.5q0 -157 -61.5 -227t-162.5 -70zM182 671q-5 0 -9 1.5
t-4 8.5q0 5 5.5 25.5t13.5 46.5t17.5 54t17.5 47q6 15 16.5 20t23.5 5q23 0 35 -4.5t12 -13.5q0 -10 -14 -37.5t-57 -97.5q-21 -34 -31.5 -44.5t-25.5 -10.5zM313 671q-6 0 -9.5 2t-3.5 8q0 7 7 26t18 43.5t24 52t26 52.5q7 13 17 18.5t23 5.5q25 0 38.5 -4.5t13.5 -14.5
q0 -13 -18.5 -39t-69.5 -95q-17 -23 -34.5 -39t-31.5 -16z" />
    <glyph glyph-name="OE" unicode="&#x152;" horiz-adv-x="880" 
d="M474 -5q-119 0 -202.5 17.5t-135 54t-75 94t-23.5 136.5q0 101 26.5 188.5t83 150t147.5 98.5t218 36q23 0 61 -1t80.5 -3t85 -5t73.5 -6q10 -1 14.5 -5t4.5 -9q0 -10 -6 -33.5t-12 -37.5q-2 -5 -6 -8t-10 -3q-4 0 -9 2t-11 3q-26 7 -70 17.5t-116 10.5q-33 0 -48.5 -5
t-24.5 -15q-9 -11 -16 -34.5t-11 -54t-6.5 -64t-2.5 -63.5q0 -19 6 -26.5t22 -7.5q27 0 67.5 9t98.5 9q19 0 36.5 -2.5t29.5 -6.5q10 -4 15.5 -9.5t5.5 -12.5q0 -10 -3.5 -25t-7.5 -27q-4 -9 -8 -11.5t-10 -2.5q-11 0 -45 9.5t-78 9.5q-77 0 -110 -26.5t-33 -103.5
q0 -54 3 -85.5t11 -47.5t23 -20.5t40 -4.5q75 0 140 9t105 22q7 2 12 3.5t9 1.5q5 0 9 -3t7 -10q4 -11 7 -35t3 -34t-6.5 -15.5t-18.5 -6.5q-47 -4 -96 -6t-94 -3t-84 -1.5t-65 -0.5zM395 671q-59 0 -108 -27.5t-84.5 -76t-55 -116.5t-19.5 -148q0 -101 52.5 -158t180.5 -57
q10 0 15.5 3.5t5.5 13.5q-1 21 -1 41.5v42.5q0 84 5.5 164t12.5 143.5t12.5 105.5t5.5 51q0 10 -6 14t-16 4z" />
    <glyph glyph-name="oe" unicode="&#x153;" horiz-adv-x="794" 
d="M405 91q-3 0 -6 -2.5t-7 -7.5q-31 -44 -69.5 -67.5t-87.5 -23.5q-96 0 -148.5 70t-52.5 227q0 73 13.5 133.5t40 103t66.5 66.5t92 24q53 0 89.5 -24.5t64.5 -81.5q3 -5 6 -7.5t7 -2.5t7 2.5t6 6.5q31 56 77 80.5t98 24.5q31 0 59 -9t49 -26.5t33.5 -45.5t12.5 -65
q0 -66 -30.5 -102t-73.5 -57.5t-89 -38t-77 -42.5q-10 -9 -15.5 -20t-5.5 -24q0 -44 28.5 -77t86.5 -33q54 0 87.5 30.5t56.5 94.5q1 3 3 4.5t5 1.5q8 0 15 -14.5t7 -42.5q0 -35 -14 -64t-38 -49.5t-56.5 -31.5t-68.5 -11q-54 0 -93 24t-66 67q-3 5 -6 7.5t-6 2.5zM464 288
q3 0 5.5 1t5.5 2q24 16 58 33t64 37t51.5 44.5t21.5 56.5q0 33 -19 52t-53 19q-36 0 -64 -17.5t-47 -47.5t-28.5 -70.5t-9.5 -86.5q0 -9 4 -16t11 -7zM241 72q65 0 92.5 57t27.5 164q0 115 -31.5 178t-85.5 63q-58 0 -89 -63.5t-31 -177.5q0 -107 27 -164t90 -57z" />
    <glyph glyph-name="Racute" unicode="&#x154;" horiz-adv-x="622" 
d="M102 739q1 10 8 15t17 6q12 2 35.5 3.5t50 3t51 2.5t37.5 1q56 0 103.5 -10.5t82 -34t54 -63.5t19.5 -98q0 -79 -45 -141t-117 -105q-4 -2 -5.5 -5t-1.5 -6t1.5 -6t5.5 -4q45 -22 81 -55t60.5 -70.5t37.5 -76t13 -71.5q0 -11 -6.5 -17t-17.5 -7q-4 -1 -11 -1h-15h-15
t-15 1q-13 1 -18.5 6t-6.5 15q-7 59 -29 103t-52.5 73.5t-67 44.5t-73.5 15q-52 0 -75 -19t-23 -65q0 -15 3 -39t6.5 -48t6.5 -43.5t3 -24.5q0 -8 -5 -12t-14 -5q-5 0 -12 -0.5t-14 -0.5t-14.5 0.5t-14.5 0.5q-10 1 -19 5t-10 19q-6 54 -9.5 120t-3.5 138q0 103 8 219.5
t26 236.5zM156 356q0 -20 6 -26.5t19 -6.5q49 0 100 19t93 51.5t69 77t27 94.5q0 72 -48.5 104t-126.5 32q-34 0 -60.5 -4.5t-36.5 -14.5t-17.5 -43t-13 -79t-8.5 -100t-3 -104zM219 820q0 3 2.5 6.5t8.5 6.5q49 28 82 70t58 102q3 6 8 8t12 2q10 0 24 -2t27 -5
q11 -3 15 -7.5t4 -11.5q0 -18 -18.5 -48.5t-49 -59.5t-71 -50t-83.5 -21q-3 0 -6.5 0.5t-6.5 1.5q-2 1 -4 3t-2 5z" />
    <glyph glyph-name="racute" unicode="&#x155;" horiz-adv-x="300" 
d="M176 25q0 -10 -3.5 -16t-13.5 -7q-5 -1 -13 -1.5t-16 -0.5h-14.5t-13.5 1q-10 1 -16.5 7.5t-8.5 19.5q-9 38 -14 112t-5 160q0 129 5.5 191t11.5 85q3 12 8 18.5t11 7.5q5 1 13.5 2t17.5 1h8.5t8.5 -1q8 -1 10.5 -6.5t2.5 -12.5q0 -10 3.5 -14t7.5 -4q3 0 6.5 1.5
t7.5 4.5q26 22 47.5 30.5t39.5 8.5q11 0 16.5 -6.5t5.5 -25.5q0 -15 -1 -26t-2 -18q-2 -13 -7 -16.5t-11 -3.5q-13 0 -34 2t-40 2q-10 0 -20 -6t-18 -23.5t-12.5 -48.5t-4.5 -81q0 -67 6 -125.5t12.5 -102.5t12.5 -72.5t6 -35.5zM90 684q0 3 2.5 6.5t8.5 6.5q49 28 82 70
t58 102q3 6 8 8t12 2q10 0 24 -2t27 -5q11 -3 15 -7.5t4 -11.5q0 -18 -18.5 -48.5t-49 -59.5t-71 -50t-83.5 -21q-3 0 -6.5 0.5t-6.5 1.5q-2 1 -4 3t-2 5z" />
    <glyph glyph-name="uni0156" unicode="&#x156;" horiz-adv-x="622" 
d="M272 -117q0 6 2 14.5t2 21.5q0 10 -3 19t-10 18q-4 6 -6.5 11.5t-2.5 9.5q0 13 22 32.5t41 19.5q12 0 26 -21t14 -58q0 -39 -25 -60.5t-47 -21.5q-5 0 -9 4t-4 11zM102 739q1 10 8 15t17 6q12 2 35.5 3.5t50 3t51 2.5t37.5 1q56 0 103.5 -10.5t82 -34t54 -63.5t19.5 -98
q0 -79 -45 -141t-117 -105q-4 -2 -5.5 -5t-1.5 -6t1.5 -6t5.5 -4q45 -18 81 -49t60.5 -66.5t37.5 -72.5t13 -65q0 -11 -6.5 -17t-17.5 -7q-4 0 -11 -0.5t-15 -0.5h-15t-15 1q-13 1 -18.5 6t-6.5 15q-7 54 -29 94.5t-52.5 67.5t-67 40.5t-73.5 13.5q-52 0 -75 -19t-23 -65
q0 -13 3 -34t6.5 -41.5t6.5 -37.5t3 -22q0 -8 -5 -12t-14 -5q-6 -1 -14 -1h-16h-12t-13 1q-10 1 -19 5t-10 19q-6 53 -9.5 116.5t-3.5 134.5q0 100 8 213.5t26 229.5zM156 356q0 -20 6 -26.5t19 -6.5q49 0 100 19t93 51.5t69 77t27 94.5q0 72 -48.5 104t-126.5 32
q-34 0 -60.5 -4.5t-36.5 -14.5t-17.5 -43t-13 -79t-8.5 -100t-3 -104z" />
    <glyph glyph-name="uni0157" unicode="&#x157;" horiz-adv-x="300" 
d="M88 -117q0 6 2 14.5t2 21.5q0 10 -3 19t-10 18q-4 6 -6.5 11.5t-2.5 9.5q0 13 22 32.5t41 19.5q12 0 26 -21t14 -58q0 -39 -25 -60.5t-47 -21.5q-5 0 -9 4t-4 11zM153 90q-5 -1 -13 -1.5t-16 -0.5h-14.5t-13.5 1q-10 1 -16.5 7.5t-8.5 19.5q-6 26 -9.5 76t-3.5 108
q0 129 5.5 191t11.5 85q3 12 8 18.5t11 7.5q5 1 13.5 2t17.5 1h8.5t8.5 -1q8 -1 10.5 -6.5t2.5 -12.5q0 -10 3.5 -14t7.5 -4q3 0 6.5 1.5t7.5 4.5q26 22 47.5 30.5t39.5 8.5q11 0 16.5 -6.5t5.5 -25.5q0 -15 -1 -26t-2 -18q-2 -13 -7 -16.5t-11 -3.5q-13 0 -34 2t-40 2
q-10 0 -20 -6t-18 -23.5t-12.5 -48.5t-4.5 -81q0 -99 15.5 -168t15.5 -80q0 -10 -3.5 -16t-13.5 -7z" />
    <glyph glyph-name="Rcaron" unicode="&#x158;" horiz-adv-x="622" 
d="M102 739q1 10 8 15t17 6q12 2 35.5 3.5t50 3t51 2.5t37.5 1q56 0 103.5 -10.5t82 -34t54 -63.5t19.5 -98q0 -79 -45 -141t-117 -105q-4 -2 -5.5 -5t-1.5 -6t1.5 -6t5.5 -4q45 -22 81 -55t60.5 -70.5t37.5 -76t13 -71.5q0 -11 -6.5 -17t-17.5 -7q-4 -1 -11 -1h-15h-15
t-15 1q-13 1 -18.5 6t-6.5 15q-7 59 -29 103t-52.5 73.5t-67 44.5t-73.5 15q-52 0 -75 -19t-23 -65q0 -15 3 -39t6.5 -48t6.5 -43.5t3 -24.5q0 -8 -5 -12t-14 -5q-5 0 -12 -0.5t-14 -0.5t-14.5 0.5t-14.5 0.5q-10 1 -19 5t-10 19q-6 54 -9.5 120t-3.5 138q0 103 8 219.5
t26 236.5zM156 356q0 -20 6 -26.5t19 -6.5q49 0 100 19t93 51.5t69 77t27 94.5q0 72 -48.5 104t-126.5 32q-34 0 -60.5 -4.5t-36.5 -14.5t-17.5 -43t-13 -79t-8.5 -100t-3 -104zM305 805q-4 0 -9.5 2t-12.5 8q-16 14 -34.5 34.5t-36 42t-33.5 43.5t-26 39q-1 3 -2.5 6
t-1.5 6q0 4 2.5 6.5t6.5 5.5q8 4 14.5 6.5t12.5 2.5q5 0 8.5 -1.5t9.5 -8.5q50 -58 72 -72.5t30 -14.5t30 14.5t74 72.5q5 6 9 8t8 2q7 0 13 -2.5t13 -6.5q4 -3 6 -6t2 -7q0 -2 -1 -4.5t-2 -5.5q-10 -17 -26 -39t-33.5 -44t-36 -42.5t-34.5 -34.5q-7 -6 -12.5 -8t-9.5 -2z
" />
    <glyph glyph-name="rcaron" unicode="&#x159;" horiz-adv-x="300" 
d="M176 25q0 -10 -3.5 -16t-13.5 -7q-5 -1 -13 -1.5t-16 -0.5h-14.5t-13.5 1q-10 1 -16.5 7.5t-8.5 19.5q-9 38 -14 112t-5 160q0 129 5.5 191t11.5 85q3 12 8 18.5t11 7.5q5 1 13.5 2t17.5 1h8.5t8.5 -1q8 -1 10.5 -6.5t2.5 -12.5q0 -10 3.5 -14t7.5 -4q3 0 6.5 1.5
t7.5 4.5q26 22 47.5 30.5t39.5 8.5q11 0 16.5 -6.5t5.5 -25.5q0 -15 -1 -26t-2 -18q-2 -13 -7 -16.5t-11 -3.5q-13 0 -34 2t-40 2q-10 0 -20 -6t-18 -23.5t-12.5 -48.5t-4.5 -81q0 -67 6 -125.5t12.5 -102.5t12.5 -72.5t6 -35.5zM176 669q-4 0 -9.5 2t-12.5 8
q-16 14 -34.5 34.5t-36 42t-33.5 43.5t-26 39q-1 3 -2.5 6t-1.5 6q0 4 2.5 6.5t6.5 5.5q8 4 14.5 6.5t12.5 2.5q5 0 8.5 -1.5t9.5 -8.5q50 -58 72 -72.5t30 -14.5t30 14.5t74 72.5q5 6 9 8t8 2q7 0 13 -2.5t13 -6.5q4 -3 6 -6t2 -7q0 -2 -1 -4.5t-2 -5.5q-10 -17 -26 -39
t-33.5 -44t-36 -42.5t-34.5 -34.5q-7 -6 -12.5 -8t-9.5 -2z" />
    <glyph glyph-name="Sacute" unicode="&#x15a;" horiz-adv-x="557" 
d="M426 623q-23 34 -62 52.5t-78 18.5q-67 0 -101.5 -33.5t-34.5 -84.5q0 -56 35.5 -88.5t114.5 -62.5q96 -35 158 -85t62 -143q0 -43 -14 -80.5t-44 -65.5t-77 -44.5t-113 -16.5q-54 0 -97 14.5t-72.5 39.5t-45 58.5t-15.5 70.5q0 20 3.5 36t10.5 30q2 4 5 6.5t7 2.5
q5 0 8.5 -3t4.5 -8q19 -73 70.5 -117t124.5 -44q65 0 109 27.5t44 86.5q0 52 -39 86t-108 58q-99 36 -159.5 86t-60.5 150q0 42 14 80t42 66.5t71 45.5t100 17q56 0 106.5 -16t82.5 -41q7 -4 10.5 -10t3.5 -13q0 -13 -12 -35.5t-25 -38.5q-3 -4 -7 -6.5t-9 -2.5
q-3 0 -6.5 1.5t-6.5 5.5zM202 829q0 3 2.5 6.5t8.5 6.5q49 28 82 70t58 102q3 6 8 8t12 2q10 0 24 -2t27 -5q11 -3 15 -7.5t4 -11.5q0 -18 -18.5 -48.5t-49 -59.5t-71 -50t-83.5 -21q-3 0 -6.5 0.5t-6.5 1.5q-2 1 -4 3t-2 5z" />
    </font>
</defs>
</svg>
