<svg xmlns="http://www.w3.org/2000/svg">
<defs>
<font id="Hobeaux-Regular" horiz-adv-x="617" >
  <font-face 
    font-family="Hobeaux"
    font-weight="400"
    font-stretch="normal"
    units-per-em="1000"
    panose-1="4 2 5 5 4 1 2 2 1 0"
    ascent="818"
    descent="-182"
    x-height="612"
    cap-height="766"
    bbox="-16 -195 1181.6 1054"
    underline-thickness="50"
    underline-position="-100"
    unicode-range="U+0020-FB02"
  />
<missing-glyph horiz-adv-x="706" 
d="M13 529q5 17 19 40.5t34.5 48.5t44 49.5t47 45.5t44 35.5t34.5 18.5q14 5 38.5 7t53.5 2t60 -2t58.5 -6.5t49.5 -11t33 -15.5q14 -12 26.5 -29t24 -37.5t21.5 -43t19 -43.5q5 -11 11.5 -16t14.5 -10q28 -13 30 -45q1 -13 4 -35.5t6.5 -47.5t6.5 -49.5t3 -42.5
q0 -24 -12.5 -33t-24.5 -11q-20 -2 -28 -11.5t-6 -22.5q1 -9 3.5 -16.5t6 -15.5t6.5 -17t6 -23q3 -15 1 -30t0 -30q1 -4 4 -13.5t7 -20t7.5 -20.5t4.5 -16q4 -20 -3.5 -31t-20.5 -16q-6 -3 -30.5 -8t-57 -10t-66.5 -9t-59 -4q-34 0 -59.5 3.5t-45 14t-34.5 30t-28 52.5
q-6 14 -28 20q-18 3 -39 9.5t-41.5 14.5t-37 18.5t-25.5 22.5q-8 11 -18.5 37t-21 60t-20.5 73t-16.5 75.5t-8.5 67t2 47.5zM324 322q63 0 100 39t37 112q0 35 -24 60.5t-65 25.5q-37 0 -63 -12t-42.5 -30t-24.5 -39.5t-8 -40.5q0 -16 5 -36t15.5 -37.5t28 -29.5t41.5 -12z
M535 394q8 0 7.5 9t-3 19.5t-2.5 19.5t7 9q8 0 16.5 -16t18 -35.5t21 -35.5t25.5 -16q22 0 33 20t11 45q0 26 -6.5 52t-15.5 46t-19.5 32.5t-18.5 12.5q-7 0 -6 -9.5t4.5 -20.5t5.5 -20.5t-4 -9.5q-9 0 -17 12t-17.5 26.5t-22 26.5t-29.5 12q-20 0 -31 -18.5t-11 -49.5
q0 -19 5 -38.5t13 -35.5t17.5 -26.5t18.5 -10.5zM307 492q6 2 9 -3t6 -11.5t8.5 -11.5t16.5 -3t13 8t2 12.5t0.5 13t8.5 9.5q11 4 17 -14t11 -44t3 -37.5t-11 -13.5q-8 -2 -11.5 2t-6.5 9t-6.5 10t-12.5 4q-8 -1 -10.5 -7.5t-3.5 -13t-3 -12.5t-9 -8q-24 -6 -33 43
q-5 29 -5 47.5t17 20.5zM560 509q11 0 24 -12t21 -27t7.5 -27.5t-16.5 -12.5q-15 0 -27 12t-17.5 27t-4 27.5t12.5 12.5z" />
    <glyph glyph-name="arrowleft" unicode="&#x2d;&#x3c;" horiz-adv-x="665" 
d="M23 397q101 111 164 167t81 56q17 0 17 -16q0 -7 -4 -12q-25 -33 -42 -57t-28 -40.5t-16 -27t-5 -17.5q0 -12 21 -12q9 0 31.5 1t51.5 2.5t61 3t59 1.5q57 0 109 -1.5t87 -4.5q18 -2 23.5 -8t5.5 -25q0 -18 -2.5 -39.5t-7.5 -38.5q-4 -26 -33 -26q-29 -2 -78 -2.5
t-103 -0.5q-28 0 -59.5 1t-60 2t-50.5 2t-32 1q-20 0 -20 -13q0 -8 8.5 -22t22 -32t29 -39.5t29.5 -44.5q5 -8 5 -15q0 -6 -4 -10.5t-12 -4.5q-10 0 -26.5 10.5t-45 35.5t-72 68t-106.5 107q-7 6 -9 11.5t-2 11.5q0 14 13 28z" />
    <glyph glyph-name="arrowup" unicode="&#x2d;^" horiz-adv-x="588" 
d="M263 705q12 12 26 12t27 -12q75 -67 119 -111.5t67 -72.5t29.5 -41.5t6.5 -19.5q0 -15 -15 -15q-4 0 -9 2.5t-10 5.5q-35 23 -57.5 39t-37 26t-23 14.5t-15.5 4.5q-13 0 -13 -21q0 -48 3 -108.5t3 -129.5v-88.5t-2 -68.5q-2 -13 -5 -19t-13 -8q-6 -2 -15.5 -2h-18.5
q-34 0 -62 5q-13 2 -18 9.5t-6 21.5q-2 25 -2 65v87q0 64 2 125t2 109q0 20 -14 20q-9 0 -23 -7t-31.5 -19t-38 -28t-41.5 -33q-4 -2 -8.5 -4t-9.5 -2q-16 0 -16 14q0 8 9.5 23.5t34.5 44t67 73t108 109.5z" />
    <glyph glyph-name="arrowright" unicode="&#x2d;&#x3e;" horiz-adv-x="665" 
d="M27 355q0 18 2.5 39.5t7.5 38.5q4 26 33 26q29 2 78 2.5t103 0.5q28 0 59.5 -1t60 -2t50.5 -2t32 -1q20 0 20 13q0 8 -8.5 22t-22 32t-29 39.5t-29.5 44.5q-5 8 -5 15q0 6 4 10.5t12 4.5q10 0 26.5 -10.5t45 -35.5t72 -67.5t106.5 -107.5q7 -6 9 -11.5t2 -11.5
q0 -14 -13 -28q-100 -112 -163.5 -167.5t-81.5 -55.5q-17 0 -17 16q0 7 4 12q25 33 42 57t28 40.5t16 27t5 17.5q0 12 -21 12q-9 0 -31.5 -1t-51.5 -2.5t-61 -3t-59 -1.5q-57 0 -109 1.5t-87 4.5q-18 2 -23.5 8t-5.5 25z" />
    <glyph glyph-name="arrowdown" unicode="&#x2d;&#x2e;" horiz-adv-x="588" 
d="M49 320q0 15 15 15q4 0 9 -2.5t10 -5.5q35 -23 57.5 -39t37 -26t23 -14.5t15.5 -4.5q13 0 13 21q0 48 -3 108.5t-3 129.5v88.5t2 68.5q2 13 5 19t13 8q6 2 15.5 2h18.5q34 0 62 -5q13 -2 18 -9.5t6 -21.5q2 -25 2 -65v-87q0 -64 -2 -125t-2 -109q0 -20 14 -20q9 0 23 7
t31.5 19t38 28t41.5 33q4 2 8.5 4t9.5 2q16 0 16 -14q0 -7 -9.5 -23t-34.5 -44.5t-67.5 -73t-107.5 -109.5q-12 -12 -26 -12t-27 12q-75 68 -119 112t-67 72t-29.5 41.5t-6.5 19.5z" />
    <glyph glyph-name="uni2196" unicode="&#x3c;\" horiz-adv-x="584" 
d="M58 594q0 18 10.5 27t27.5 11q101 2 163.5 1t98 -3.5t50 -6t18.5 -7.5q11 -11 0 -22q-2 -2 -8 -4t-11 -3q-41 -6 -68.5 -10.5t-44.5 -8t-26 -7.5t-14 -9q-9 -9 5 -24q35 -35 79.5 -75t93.5 -89q33 -33 62 -62.5t47 -49.5q8 -11 10 -17t-3 -15q-3 -6 -14 -18t-24.5 -24
t-26.5 -21t-21 -9q-10 0 -23 11q-18 17 -47 45t-62 61q-45 45 -86.5 89t-76.5 79q-7 7 -12.5 9t-11.5 -4t-10 -21.5t-7.5 -36.5t-7 -46.5t-8.5 -52.5q-1 -4 -2.5 -8.5t-5.5 -8.5q-11 -11 -22 -1q-5 5 -9.5 23t-7.5 55.5t-4 99t-1 153.5z" />
    <glyph glyph-name="uni2197" unicode="&#x2f;&#x3e;" horiz-adv-x="580" 
d="M45 252q17 19 45 47.5t61 61.5q45 45 89 86.5t79 76.5q7 7 9 12.5t-4 11.5t-21.5 10t-36.5 7.5t-46.5 7t-52.5 8.5q-4 1 -8.5 2.5t-8.5 5.5q-11 12 -1 22q5 5 23 9.5t55.5 7.5t99 4t153.5 1q18 0 27 -10.5t11 -27.5q2 -101 1 -163.5t-3.5 -98t-6 -50t-7.5 -18.5
q-11 -11 -22 0q-2 2 -4 8t-3 11q-6 41 -10.5 68.5t-8 44.5t-7.5 26t-9 14q-9 10 -24 -5q-35 -35 -75 -79.5t-89 -93.5q-33 -33 -62.5 -62t-49.5 -47q-11 -8 -17 -10t-15 3q-7 4 -16.5 13t-19 19.5t-17.5 21t-13 16.5q-14 19 5 39z" />
    <glyph glyph-name="uni2198" unicode="\&#x3e;" horiz-adv-x="584" 
d="M35 565q3 5 14 17t24.5 24t27 21.5t20.5 9.5q10 0 23 -11q18 -17 47 -45t62 -61q45 -45 86.5 -89t76.5 -79q7 -7 12.5 -9t11.5 4t10 21.5t7.5 36.5t7 46.5t8.5 52.5q1 4 2.5 8.5t5.5 8.5q12 12 22 1q5 -5 9.5 -23t7.5 -55.5t4 -99t1 -153.5q0 -18 -10.5 -27t-27.5 -11
q-101 -1 -163.5 -0.5t-98 3t-50 6t-18.5 7.5q-11 11 0 22q2 2 8 4t11 3q41 6 68.5 10.5t44.5 8t26 7.5t14 9q10 10 -5 24q-35 35 -79.5 75t-93.5 89q-33 33 -62 62.5t-47 49.5q-8 11 -10 17t3 15z" />
    <glyph glyph-name="uni2199" unicode="&#x3c;&#x2f;" horiz-adv-x="580" 
d="M77 519q11 11 22 0q2 -2 4 -8t3 -11q6 -41 10.5 -68.5t8 -44.5t7.5 -26t9 -14q10 -9 24 5q35 35 75 79.5t89 93.5q33 33 62.5 62t49.5 47q11 8 17 10t15 -3q7 -4 16.5 -13t19 -19.5t18 -21t12.5 -16.5q14 -19 -5 -39q-17 -18 -45 -47t-61 -62q-45 -45 -89 -86.5
t-79 -76.5q-7 -7 -9 -12.5t4 -11.5t21.5 -10t36.5 -7.5t46.5 -7t52.5 -8.5q4 -1 8.5 -2.5t8.5 -5.5q12 -11 1 -22q-5 -5 -23 -9.5t-55.5 -7.5t-99 -4t-153.5 -1q-18 0 -27 10.5t-11 27.5q-1 101 -0.5 163.5t3 98t6 50t7.5 18.5z" />
    <glyph glyph-name=".notdef" horiz-adv-x="706" 
d="M13 529q5 17 19 40.5t34.5 48.5t44 49.5t47 45.5t44 35.5t34.5 18.5q14 5 38.5 7t53.5 2t60 -2t58.5 -6.5t49.5 -11t33 -15.5q14 -12 26.5 -29t24 -37.5t21.5 -43t19 -43.5q5 -11 11.5 -16t14.5 -10q28 -13 30 -45q1 -13 4 -35.5t6.5 -47.5t6.5 -49.5t3 -42.5
q0 -24 -12.5 -33t-24.5 -11q-20 -2 -28 -11.5t-6 -22.5q1 -9 3.5 -16.5t6 -15.5t6.5 -17t6 -23q3 -15 1 -30t0 -30q1 -4 4 -13.5t7 -20t7.5 -20.5t4.5 -16q4 -20 -3.5 -31t-20.5 -16q-6 -3 -30.5 -8t-57 -10t-66.5 -9t-59 -4q-34 0 -59.5 3.5t-45 14t-34.5 30t-28 52.5
q-6 14 -28 20q-18 3 -39 9.5t-41.5 14.5t-37 18.5t-25.5 22.5q-8 11 -18.5 37t-21 60t-20.5 73t-16.5 75.5t-8.5 67t2 47.5zM324 322q63 0 100 39t37 112q0 35 -24 60.5t-65 25.5q-37 0 -63 -12t-42.5 -30t-24.5 -39.5t-8 -40.5q0 -16 5 -36t15.5 -37.5t28 -29.5t41.5 -12z
M535 394q8 0 7.5 9t-3 19.5t-2.5 19.5t7 9q8 0 16.5 -16t18 -35.5t21 -35.5t25.5 -16q22 0 33 20t11 45q0 26 -6.5 52t-15.5 46t-19.5 32.5t-18.5 12.5q-7 0 -6 -9.5t4.5 -20.5t5.5 -20.5t-4 -9.5q-9 0 -17 12t-17.5 26.5t-22 26.5t-29.5 12q-20 0 -31 -18.5t-11 -49.5
q0 -19 5 -38.5t13 -35.5t17.5 -26.5t18.5 -10.5zM307 492q6 2 9 -3t6 -11.5t8.5 -11.5t16.5 -3t13 8t2 12.5t0.5 13t8.5 9.5q11 4 17 -14t11 -44t3 -37.5t-11 -13.5q-8 -2 -11.5 2t-6.5 9t-6.5 10t-12.5 4q-8 -1 -10.5 -7.5t-3.5 -13t-3 -12.5t-9 -8q-24 -6 -33 43
q-5 29 -5 47.5t17 20.5zM560 509q11 0 24 -12t21 -27t7.5 -27.5t-16.5 -12.5q-15 0 -27 12t-17.5 27t-4 27.5t12.5 12.5z" />
    <glyph glyph-name=".null" horiz-adv-x="0" 
 />
    <glyph glyph-name=".null" horiz-adv-x="0" 
 />
    <glyph glyph-name="uni000D" horiz-adv-x="179" 
 />
    <glyph glyph-name="space" unicode=" " horiz-adv-x="179" 
 />
    <glyph glyph-name="exclam" unicode="!" horiz-adv-x="226" 
d="M47 731q0 13 5.5 21.5t24.5 10.5q10 1 22 1.5t25 0.5q15 0 29 -0.5t27 -2.5q17 -3 17 -20q0 -8 -5.5 -33t-12 -80.5t-12.5 -148.5t-8 -239q-1 -16 -8 -22.5t-29 -8.5q-7 -2 -12.5 -2h-10.5q-13 0 -18.5 4.5t-7.5 18.5q-11 67 -18 155.5t-9 183.5q-1 42 -1 81.5t2 79.5z
M116 143q35 0 54.5 -20.5t19.5 -57.5t-19.5 -55.5t-54.5 -18.5t-55 18.5t-20 55.5t20 57.5t55 20.5z" />
    <glyph glyph-name="quotedbl" unicode="&#x22;" horiz-adv-x="273" 
d="M205 827q36 0 45.5 -11t9.5 -34q0 -18 -3 -43.5t-7.5 -52.5t-10 -51.5t-10.5 -39.5q-4 -11 -9 -15.5t-19 -4.5t-20.5 4t-8.5 17q-2 16 -4.5 40.5t-5 51t-4 52t-1.5 43.5q0 22 8 33t40 11zM69 827q31 0 39 -11t8 -33q0 -18 -2 -43.5t-4.5 -52.5t-6 -51.5t-6.5 -39.5
q-4 -11 -9.5 -16t-18.5 -5t-19.5 4t-9.5 16q-4 15 -8.5 39.5t-8.5 51.5t-7 52.5t-3 43.5q0 23 9.5 34t46.5 11z" />
    <glyph glyph-name="numbersign" unicode="#" horiz-adv-x="639" 
d="M46 273q17 1 39 1.5t45 0.5q18 0 19 19q2 21 4 43.5t4 42t3.5 34.5t1.5 21q0 8 -4.5 10.5t-16.5 2.5h-76q-22 0 -22 21q0 9 1 21.5t4.5 24.5t10.5 20.5t19 8.5q19 1 40.5 1.5t46.5 0.5q8 0 15.5 4.5t10.5 15.5q17 81 28 109q5 14 12.5 19.5t18.5 6.5h20h18t15 -1
q16 -2 16 -12q0 -5 -6 -22.5t-13.5 -38.5t-13.5 -40.5t-6 -27.5t12.5 -10.5t54.5 -2.5q23 0 37 0.5t21.5 3t10.5 6.5t5 11q11 41 18 68t12 40q5 14 11 19t16 7q6 1 13.5 1h15.5h15t12 -1q19 -3 19 -15q0 -6 -6 -24t-13.5 -38.5t-14 -39t-6.5 -24.5q0 -14 25 -14h59
q15 0 20.5 -4.5t5.5 -15.5t-2 -26.5t-7 -28.5q-4 -11 -11 -16.5t-22 -6.5q-14 0 -32 0.5t-42 -0.5q-12 0 -16.5 -4.5t-6.5 -18.5q-4 -33 -9 -67t-5 -67q0 -11 4 -14t14 -3q23 0 44.5 0.5t39.5 0.5q14 -1 19 -5t5 -15t-1 -24t-5.5 -24t-12.5 -19t-22 -9q-12 -1 -29.5 -1
h-34.5q-14 0 -16.5 -4.5t-2.5 -15.5q0 -15 2 -37.5t5 -44t5 -38.5t2 -22q0 -13 -20 -14h-65q-20 1 -24 19q-2 17 -3.5 52t-2.5 83q0 7 -1.5 11t-7 6.5t-17.5 3t-33 0.5q-24 0 -38 -0.5t-20.5 -3t-8.5 -6.5t-2 -11q0 -61 5.5 -94t5.5 -42q0 -17 -17 -18q-8 -1 -15.5 -1h-15.5
h-15.5t-15.5 1q-11 1 -16.5 4.5t-7.5 14.5q-1 8 -2 25.5t-1 37.5q-1 23 -0.5 44t0.5 29q0 11 -3 16t-19 5h-92q-11 1 -17 5.5t-6 16.5q0 9 1 21.5t5 24t10.5 19.5t18.5 8zM308 266q17 0 28 0.5t18 2t11 3.5t8 6q5 5 10 19t8.5 33t5.5 41t2 44q0 28 -15 35t-57 7
q-36 0 -48.5 -2.5t-20.5 -10.5q-7 -7 -11 -23t-6.5 -35.5t-3.5 -39.5t-1 -34q0 -31 14.5 -38.5t57.5 -7.5z" />
    <glyph glyph-name="dollar" unicode="$" horiz-adv-x="559" 
d="M52 214q0 6 1.5 19t4.5 27t8.5 24.5t14.5 10.5q10 0 13 -10q8 -29 24.5 -53t39 -41t50.5 -26.5t58 -9.5q50 0 82.5 20.5t32.5 66.5q0 19 -8.5 33.5t-23 25.5t-34.5 20t-43 17q-37 14 -73.5 29.5t-65 38.5t-46.5 56t-18 82q0 67 38.5 117t115.5 63q16 3 16 21
q0 12 -0.5 23.5t-0.5 21.5q0 11 7 15t16 5q7 1 14 1h15h17t16 -1q26 -3 26 -18q0 -4 -2.5 -11.5t-6 -15.5t-6 -15.5t-2.5 -13.5q0 -8 14 -11q11 -2 34.5 -8.5t47 -16.5t41 -23t17.5 -29q0 -8 -5 -23t-13 -30t-18 -26t-20 -11q-7 0 -13 7q-24 30 -63 46t-76 16
q-47 0 -70.5 -21t-23.5 -54q0 -40 32.5 -62.5t84.5 -40.5q35 -12 71 -27.5t65.5 -38t48 -55t18.5 -78.5q0 -36 -10 -68.5t-30.5 -58t-52 -43.5t-75.5 -25q-17 -3 -17 -20q0 -11 6.5 -25t6.5 -25q0 -17 -25 -20q-7 -1 -14 -1h-15h-19t-18 1q-11 1 -17.5 6t-7.5 17
q0 11 2.5 25.5t2.5 23.5q0 7 -4 11t-17 7q-72 17 -110 59t-38 100z" />
    <glyph glyph-name="percent" unicode="%" horiz-adv-x="768" 
d="M40 539q0 53 10.5 96.5t32 74t53.5 47.5t75 17q44 0 76 -16.5t52 -47t29.5 -74t9.5 -97.5q0 -58 -12.5 -99.5t-35.5 -68.5t-55 -40t-71 -13q-78 0 -121 52.5t-43 168.5zM562 446q44 0 75.5 -16t51.5 -46.5t29.5 -74t9.5 -97.5q0 -58 -12.5 -100t-35.5 -69t-54.5 -40
t-70.5 -13q-77 0 -120.5 53t-43.5 169q0 53 10.5 96t32 73.5t53.5 47.5t75 17zM136 551q0 -70 16.5 -106.5t55.5 -36.5t55 36.5t16 106.5q0 67 -18.5 102t-51.5 35q-35 0 -54 -35t-19 -102zM559 81q38 0 54.5 36t16.5 106q0 67 -18 102.5t-51 35.5q-35 0 -54.5 -35.5
t-19.5 -102.5q0 -70 16.5 -106t55.5 -36zM561 743q6 10 14.5 16.5t22.5 6.5q6 0 22.5 -3t34 -8.5t30.5 -13.5t13 -17q0 -7 -7 -16q-9 -11 -29 -35.5t-45.5 -55t-54.5 -62.5t-55.5 -59t-47.5 -44t-32 -17q-6 0 -10.5 3.5t-4.5 11.5t7.5 29t25 56t46 86.5t70.5 121.5zM84 59
q22 25 52 60.5t63 73t66.5 72t63.5 56.5q7 5 13 5q7 0 12 -4t5 -12t-14.5 -41t-36 -76t-47 -89t-47.5 -80q-7 -11 -15 -17.5t-22 -6.5q-6 0 -22.5 3.5t-33.5 9t-30.5 13t-13.5 16.5q0 7 7 17z" />
    <glyph glyph-name="ampersand" unicode="&#x26;" horiz-adv-x="839" 
d="M37 173q0 70 33.5 126t99.5 88q12 6 12 19q0 5 -3 12q-14 35 -20.5 70.5t-6.5 68.5q0 49 13.5 89.5t40.5 69t67.5 44t94.5 15.5t90 -13.5t58.5 -36t32 -51.5t9.5 -61q0 -37 -14.5 -67.5t-41 -57.5t-64 -51.5t-83.5 -50.5q-15 -8 -15 -18q0 -6 11.5 -24.5t26 -39.5
t28.5 -39t19 -24q8 -6 14 -6t13 10q28 42 54.5 85t54.5 78t59.5 57t69.5 22q29 0 49 -8.5t33 -22t19 -30.5t6 -34q0 -5 -1 -14t-4 -18t-8 -15.5t-12 -6.5q-5 0 -13 6q-11 8 -25 16.5t-37 8.5q-25 0 -46 -17t-40.5 -44t-40 -60.5t-45.5 -66.5q-5 -7 -5 -13q0 -9 10 -17
q34 -21 68 -33t66 -12q41 0 73 22q8 4 13 4q6 0 9 -4t4.5 -10t2 -12t0.5 -10q0 -21 -7 -40.5t-20.5 -34.5t-34.5 -23.5t-48 -8.5q-48 0 -97.5 21t-101.5 56q-6 4 -12 4q-8 0 -16 -8q-35 -35 -80 -55t-103 -20q-54 0 -93 13.5t-65 38t-38.5 58.5t-12.5 76zM296 454
q11 0 36 12.5t50 34t44 49.5t19 59q0 34 -20 56.5t-64 22.5q-46 0 -71.5 -30.5t-25.5 -88.5q0 -19 2 -39t5.5 -37t9.5 -28t15 -11zM259 87q23 0 42 6.5t33.5 16t22.5 19t8 15.5q0 9 -10 20q-29 32 -58 70t-51 76q-9 10 -16 10q-8 0 -20.5 -9.5t-24.5 -26.5t-20.5 -41.5
t-8.5 -54.5q0 -20 6.5 -38.5t19.5 -32.5t32.5 -22t44.5 -8z" />
    <glyph glyph-name="quotesingle" unicode="'" horiz-adv-x="137" 
d="M69 827q37 0 46 -11t9 -33q0 -18 -3 -44t-8 -53t-10 -51.5t-10 -39.5q-3 -11 -8.5 -15.5t-17.5 -4.5t-18 4t-9 16q-3 16 -7.5 40.5t-9 51.5t-7.5 52.5t-3 43.5q0 22 9.5 33t46.5 11z" />
    <glyph glyph-name="parenleft" unicode="(" horiz-adv-x="264" 
d="M44 435q0 92 12 168t33.5 130t52 84t66.5 30q17 0 30 -6.5t21.5 -15.5t13 -17.5t4.5 -13.5t-2.5 -11t-10.5 -9q-26 -15 -46.5 -48.5t-34 -80.5t-20.5 -105t-7 -124t6.5 -121t17.5 -102.5t25.5 -88t29.5 -78.5q3 -7 3 -11q0 -7 -8 -13.5t-18.5 -11t-21.5 -7t-16 -2.5
q-12 0 -21 10q-18 21 -37.5 65t-35 103.5t-26 130.5t-10.5 145z" />
    <glyph glyph-name="parenright" unicode=")" horiz-adv-x="264" 
d="M-2 35q0 5 2.5 11t10.5 9q26 15 46.5 48.5t34 80.5t20.5 105t7 124t-6.5 121t-17.5 102.5t-25.5 88t-29.5 78.5q-3 8 -3 11q0 7 8 13.5t18.5 11t21.5 7t16 2.5q12 0 21 -10q18 -21 37.5 -65t35 -103.5t26 -130.5t10.5 -145q0 -92 -12 -168t-33.5 -130t-52 -84t-66.5 -30
q-17 0 -30 6.5t-21.5 15.5t-13 18t-4.5 13z" />
    <glyph glyph-name="asterisk" unicode="*" horiz-adv-x="523" 
d="M24 603q0 5 4 15.5t10 23t12.5 25t10.5 19.5q6 10 16 10q8 0 28 -10t43 -24t45.5 -28.5t35.5 -24.5q4 -3 7 -3q6 0 7 9q2 9 2.5 30t1.5 45.5t2 49.5t3 42q3 22 27 22q12 0 32 -3t39 -8t19 -20q0 -10 -9.5 -36.5t-21 -55t-21 -52t-9.5 -28.5q0 -8 9 -8q6 0 31 6t54.5 13
t55.5 13t35 6q14 0 19 -14q6 -17 9 -43t3 -37q0 -14 -6 -19.5t-23 -5.5q-14 0 -39 2t-50.5 4t-47.5 4.5t-30 2.5q-10 0 -10 -7q0 -3 2 -7q5 -10 20 -30.5t31.5 -42.5t31 -41.5t17.5 -26.5q4 -5 4 -13q0 -11 -10 -17q-6 -4 -16.5 -10t-22.5 -10.5t-23.5 -8t-19.5 -3.5
q-14 0 -21 13q-4 8 -10.5 30t-13 47.5t-13 48.5t-9.5 33q-3 8 -8 8q-4 0 -7 -5q-6 -11 -18.5 -30.5t-27 -40.5t-28 -38.5t-19.5 -23.5q-8 -8 -17 -8q-3 0 -16 8.5t-26.5 20.5t-24.5 24t-11 18q0 9 10 18q6 6 23.5 19.5t38 29.5t40 30t29.5 21q5 3 5 8q0 7 -8 9
q-11 3 -33 7.5t-46.5 10t-47.5 11.5t-35 11q-14 6 -14 15z" />
    <glyph glyph-name="plus" unicode="+" horiz-adv-x="509" 
d="M40 386q4 14 11 19.5t21 5.5q18 0 49 -3t57 -3q24 0 25 24q2 36 2 74t3 70q2 15 9.5 19t18.5 6q7 1 13.5 1h13.5h13.5t14.5 -1q13 -2 18.5 -6t5.5 -15q0 -32 -4.5 -72t-4.5 -74q0 -11 4 -17.5t17 -6.5q35 0 64.5 1.5t55.5 1.5q20 -1 27.5 -6.5t7.5 -23.5q0 -8 -2 -27
t-4 -30q-4 -27 -29 -27q-23 0 -54 3.5t-60 3.5q-21 0 -21 -27q0 -19 2 -44.5t4 -49.5t4 -42.5t2 -23.5q0 -16 -19 -18h-87q-10 1 -16.5 5t-6.5 18q0 15 1.5 37t3 44.5t3 42.5t1.5 30q0 14 -5.5 20t-20.5 6q-30 0 -65 -3t-59 -3q-14 1 -20 5.5t-6 18.5q0 13 3.5 31.5
t8.5 35.5z" />
    <glyph glyph-name="comma" unicode="," horiz-adv-x="193" 
d="M25 97q0 8 10 19.5t23.5 22t27 17.5t19.5 7q11 0 22 -6.5t20.5 -18t15.5 -28t6 -37.5q0 -35 -11 -62t-27.5 -46t-35 -28.5t-33.5 -9.5q-14 0 -14 16q0 10 5 24.5t5 36.5q0 19 -5 37t-18 34q-10 15 -10 22z" />
    <glyph glyph-name="hyphen" unicode="-" horiz-adv-x="338" 
d="M26 302q0 13 2 29t8 37q3 14 9 18.5t17 5.5q17 1 38.5 2t44.5 1q39 0 77.5 -1t63.5 -3q15 -2 21 -9t6 -20q0 -11 -2.5 -28.5t-6.5 -34.5q-5 -22 -28 -23q-14 -1 -30 -1h-34q-44 0 -90 1.5t-74 3.5q-22 2 -22 22z" />
    <glyph glyph-name="period" unicode="." horiz-adv-x="199" 
d="M25 65q0 37 20 57.5t55 20.5t54.5 -20.5t19.5 -57.5t-19.5 -55.5t-54.5 -18.5t-55 18.5t-20 55.5z" />
    <glyph glyph-name="slash" unicode="/" horiz-adv-x="333" 
d="M136 28q-5 -14 -9.5 -19.5t-16.5 -7.5q-10 -2 -19.5 -1.5t-20.5 0.5h-20.5t-21.5 1t-15 7t-4 15q0 12 8 37t23 69.5t36 110t47 158.5q45 162 65 261.5t27 136.5q2 11 8 16t13 6q8 1 17.5 1h19.5q11 0 21.5 -0.5t16.5 -1.5q10 -2 14 -5.5t4 -12.5t-5.5 -39.5t-15.5 -76
t-23 -103t-28.5 -119t-31.5 -125t-32 -121t-30.5 -106t-26.5 -81.5z" />
    <glyph glyph-name="zero" unicode="0" horiz-adv-x="599" 
d="M37 369q0 92 17 167.5t50.5 129t84 83t117.5 29.5t115.5 -28.5t79.5 -81.5t46 -128.5t15 -170.5q0 -103 -20 -175.5t-55.5 -119t-85 -68t-109.5 -21.5t-107.5 22t-80 68.5t-50 119t-17.5 174.5zM160 378q0 -136 31.5 -205t106.5 -69q39 0 66 18t43 53t23 87t7 120
q0 146 -34 217.5t-100 71.5q-69 0 -106 -73t-37 -220z" />
    <glyph glyph-name="one" unicode="1" horiz-adv-x="344" 
d="M64 717q12 10 30.5 20.5t39.5 19t43 14t41 5.5q11 0 20 -6.5t9 -21.5q0 -12 -2 -46t-5 -80.5t-5 -102t-2 -110.5q0 -53 1.5 -106.5t3.5 -103t3.5 -93t2.5 -78.5q0 -14 -4 -20t-21 -9q-13 -2 -26.5 -2h-29.5h-18.5t-16.5 1q-9 2 -15 6.5t-6 16.5q0 56 1.5 121.5t4 135.5
t4 141.5t1.5 140.5q0 29 -2 48t-7 31.5t-14.5 20.5t-23.5 16q-17 9 -17 22q0 10 10 19z" />
    <glyph glyph-name="two" unicode="2" horiz-adv-x="541" 
d="M26 98q0 59 16.5 103.5t46.5 81.5t71 69t90 65q35 23 59.5 41.5t41 36.5t24 36.5t7.5 42.5q0 37 -26.5 62t-72.5 25q-45 0 -94 -22.5t-90 -71.5q-7 -8 -15 -8q-10 0 -20 10.5t-18 24t-13 28t-5 21.5q0 12 8 22q19 23 45 43.5t58.5 35.5t70 24t79.5 9q97 0 154.5 -52
t57.5 -147q0 -44 -11 -78t-34.5 -63.5t-60.5 -57.5t-88 -60q-42 -27 -71 -49.5t-48 -44t-27.5 -44t-8.5 -48.5q0 -20 29 -20q58 0 98 1t66.5 4t42.5 8t27 14q18 14 25.5 38.5t13.5 56.5q2 8 7 12t11 4q12 0 20 -12t13 -28t7.5 -32t2.5 -24q0 -29 -7 -57t-23.5 -50t-45 -35.5
t-72.5 -13.5q-16 0 -39 1t-49.5 2.5t-55 2.5t-56.5 1q-30 0 -58.5 -3t-45.5 -3q-22 0 -29.5 24t-7.5 74z" />
    <glyph glyph-name="three" unicode="3" horiz-adv-x="540" 
d="M74 202q7 0 11 -6q14 -19 30.5 -36.5t37.5 -31t46 -21.5t56 -8q57 0 87 31.5t30 84.5q0 63 -53.5 106t-155.5 77q-13 4 -13 15q0 5 5 12q7 10 21.5 26.5t33 37t38 43t37 43.5t30.5 38.5t18 27.5q4 8 4 11q0 11 -13 11q-24 0 -57 -1t-68.5 -4.5t-69.5 -10t-59 -16.5
q-7 -3 -11 -3q-10 0 -13 10q-8 26 -11.5 54t-3.5 48q0 10 6.5 14t15.5 5q45 4 105.5 5.5t123.5 1.5q53 0 103.5 -1.5t92.5 -4.5q11 -2 14.5 -7t3.5 -13q0 -16 -10.5 -39.5t-26.5 -51t-36 -56.5t-39.5 -55.5t-36 -48.5t-26.5 -35q-8 -8 -8 -16t8 -11q29 -10 60 -27.5
t56.5 -44.5t42 -63.5t16.5 -84.5q0 -45 -15.5 -85.5t-46 -71t-75.5 -48t-104 -17.5q-51 0 -91 11t-70 27.5t-50 35.5t-32 35q-4 5 -4 14q0 6 7.5 21t18 31.5t22 29t18.5 12.5z" />
    <glyph glyph-name="four" unicode="4" horiz-adv-x="561" 
d="M165 747q7 14 15.5 20t19.5 8q23 3 45 3q30 0 46 -3q20 -2 20 -17q0 -6 -6 -14q-40 -63 -69 -133.5t-48 -135.5t-28 -118.5t-9 -82.5q0 -11 14 -11q55 0 86 0.5t47 2t21.5 3.5t9.5 6q5 5 6.5 13t2.5 17q6 72 6 121.5t5 84.5q2 15 4 25t4.5 17.5t6.5 14.5t9 15
q6 8 15 18.5t19.5 19.5t20.5 15t17 6q13 0 13 -20q0 -3 -1.5 -32t-4 -73t-4 -99t-1.5 -109q0 -18 5 -23.5t13 -6.5q13 0 29.5 1.5t27.5 1.5t17.5 -4t7.5 -15q1 -9 2 -20t1 -22q0 -10 -1 -19t-2 -19t-5 -15.5t-15 -5.5q-17 0 -29 2.5t-34 2.5q-17 0 -17 -22q0 -25 2.5 -55
t2.5 -72q0 -9 -4.5 -15.5t-15.5 -7.5q-7 0 -14.5 -0.5t-15.5 -0.5q-16 0 -30 0.5t-23 1.5q-14 2 -18.5 6.5t-4.5 19.5q0 23 2 53t2 60q0 15 -7 20.5t-21 5.5q-21 0 -51.5 -1t-63.5 -1.5t-63.5 -1.5t-51.5 -1t-30.5 12.5t-9.5 31.5q0 68 13.5 147t33.5 154.5t43 140.5t43 105
z" />
    <glyph glyph-name="five" unicode="5" horiz-adv-x="545" 
d="M31 80q0 8 4.5 24.5t11.5 34t16 30.5t19 13q7 0 16.5 -8t22.5 -19q23 -17 60.5 -34t91.5 -17q26 0 50 7.5t42 25t28.5 45t10.5 66.5q0 56 -27 89.5t-83 33.5q-27 0 -53 -6.5t-48.5 -14t-42.5 -14t-35 -6.5q-8 0 -20 3t-23.5 8.5t-19.5 13.5t-8 18q0 44 4.5 96t11.5 102.5
t14.5 94.5t14.5 71q6 25 27 25q32 1 70 1.5t80 0.5q51 0 102 -1t96 -3q14 -1 19.5 -7.5t5.5 -14.5q0 -7 -1 -24t-4 -35t-9 -31.5t-17 -13.5q-6 0 -15 3q-14 5 -38 10t-52.5 9.5t-59 7.5t-59.5 3q-18 0 -27.5 -3.5t-14.5 -8.5q-9 -8 -16.5 -34t-12 -58t-7 -63.5t-2.5 -51.5
q0 -23 14 -23q9 0 22 7t31.5 15.5t44 15.5t60.5 7q49 0 85.5 -17t60.5 -46.5t36 -70t12 -87.5q0 -134 -63.5 -199t-181.5 -65q-40 0 -74 6.5t-61.5 16t-48.5 20.5t-36 20q-13 8 -18.5 15t-5.5 17z" />
    <glyph glyph-name="six" unicode="6" horiz-adv-x="568" 
d="M356 775q44 0 77.5 -7.5t52.5 -15.5q17 -8 17 -24q0 -5 -2.5 -15t-6 -22t-7.5 -24t-7 -23q-3 -9 -14 -9q-7 0 -16 5.5t-23 12t-34 12t-48 5.5q-52 0 -89.5 -22.5t-61.5 -59.5t-35 -83t-11 -94q0 -6 3.5 -10.5t9.5 -4.5q5 0 12 4q40 35 83 53t86 18q93 0 145 -58t52 -173
q0 -127 -65 -191t-176 -64q-69 0 -118.5 26t-82 74.5t-48 117t-15.5 153.5q0 110 22.5 189t64 130t101 75.5t134.5 24.5zM297 87q60 0 93.5 42.5t33.5 112.5q0 69 -29.5 105t-80.5 36q-33 0 -61 -11.5t-48 -31t-31 -46t-11 -57.5q0 -30 9 -57t26 -48t42 -33t57 -12z" />
    <glyph glyph-name="seven" unicode="7" horiz-adv-x="445" 
d="M3 734q1 25 29 26q49 2 97.5 3.5t95.5 1.5q53 0 100 -1t84 -3q17 -1 22.5 -7t7.5 -24q2 -16 2 -29v-24q0 -18 -1.5 -30t-4.5 -22t-7.5 -18.5t-10.5 -17.5q-42 -65 -76 -126.5t-58 -116.5t-37 -101.5t-13 -82.5q0 -41 18.5 -56.5t66.5 -17.5q8 -2 11.5 -5t3.5 -13
q0 -16 -5 -31t-16 -27t-28 -19.5t-42 -7.5q-73 0 -107.5 39.5t-34.5 118.5q0 49 16 100.5t39.5 101t51 95.5t51 84.5t39.5 67t16 43.5q0 16 -17 16q-75 0 -134 -9t-97 -20q-14 -3 -26 -6.5t-18 -3.5q-5 0 -9.5 3t-6.5 12q-2 16 -2.5 35.5t-1.5 32.5q0 11 0.5 20.5t1.5 18.5z
" />
    <glyph glyph-name="eight" unicode="8" horiz-adv-x="585" 
d="M141 386q7 4 7 14t-7 14q-11 10 -25 24.5t-26 34.5t-20.5 45.5t-8.5 57.5q0 49 18.5 86t50.5 62t75.5 37.5t92.5 12.5q47 0 87.5 -12t69.5 -35.5t45.5 -59t16.5 -82.5q0 -37 -9 -63.5t-22 -45.5t-28.5 -32.5t-27.5 -24.5q-9 -6 -9 -14q0 -9 9 -12q14 -7 34.5 -21
t39.5 -37.5t32.5 -57.5t13.5 -82q0 -45 -15.5 -83t-47 -65.5t-80 -42.5t-115.5 -15q-123 0 -190 54.5t-67 148.5q0 42 12 73.5t28.5 55t34.5 39t31 26.5zM154 210q0 -55 35.5 -86t104.5 -31q63 0 99 30.5t36 82.5q0 36 -12.5 64.5t-32 48t-44 29.5t-48.5 10q-31 0 -56.5 -13
t-43.5 -34t-28 -47.5t-10 -53.5zM289 441q23 0 43.5 11t37 29.5t26 42t9.5 48.5q0 45 -29 75.5t-80 30.5q-30 0 -53 -8.5t-39 -23.5t-24 -34.5t-8 -41.5q0 -26 10 -49.5t26 -41t37.5 -28t43.5 -10.5z" />
    <glyph glyph-name="nine" unicode="9" horiz-adv-x="583" 
d="M288 778q66 0 114.5 -26.5t81 -76t48 -120t15.5 -158.5q0 -103 -21.5 -180t-61.5 -127.5t-96 -75.5t-124 -25q-6 0 -20.5 0.5t-33.5 2.5t-39 5.5t-37 8.5t-28 12.5t-11 17.5q0 7 2.5 25t7.5 37t12.5 33.5t16.5 14.5q6 0 13 -4q23 -14 52.5 -26.5t70.5 -12.5q45 0 79.5 19
t57 52t34 77t11.5 93q0 9 -4.5 13.5t-9.5 4.5q-7 0 -12 -5q-70 -70 -174 -70q-39 0 -73.5 13.5t-61 40.5t-41.5 68t-15 97q0 66 18 117t50.5 85.5t78 52t100.5 17.5zM158 523q0 -66 26 -105.5t80 -39.5q33 0 60.5 10.5t48 30t32 47.5t11.5 62q0 32 -9.5 59t-27.5 46.5
t-42.5 30.5t-54.5 11q-61 0 -92.5 -42.5t-31.5 -109.5z" />
    <glyph glyph-name="colon" unicode=":" horiz-adv-x="206" 
d="M29 107q0 39 20 60.5t55 21.5t54.5 -21.5t19.5 -60.5q0 -38 -19.5 -57.5t-54.5 -19.5t-55 19.5t-20 57.5zM104 509q35 0 54.5 -21.5t19.5 -60.5q0 -38 -19.5 -57.5t-54.5 -19.5t-55 19.5t-20 57.5q0 39 20 60.5t55 21.5z" />
    <glyph glyph-name="semicolon" unicode=";" horiz-adv-x="203" 
d="M31 97q0 8 10 19.5t23.5 22t27 17.5t19.5 7q11 0 22 -6.5t20.5 -18t15.5 -28t6 -37.5q0 -35 -11 -62t-27.5 -46t-35 -28.5t-33.5 -9.5q-14 0 -14 16q0 10 5 24.5t5 36.5q0 19 -5 37t-18 34q-10 15 -10 22zM29 427q0 39 20 60.5t55 21.5t54.5 -21.5t19.5 -60.5
q0 -38 -19.5 -57.5t-54.5 -19.5t-55 19.5t-20 57.5z" />
    <glyph glyph-name="less" unicode="&#x3c;" horiz-adv-x="320" 
d="M10 359q0 15 7 26q41 66 79.5 126.5t80.5 110.5q15 18 29 18q6 0 21 -4t31 -10.5t28 -14.5t12 -16q0 -7 -12 -21q-7 -8 -21 -24.5t-31 -37t-35.5 -44t-33 -44.5t-24 -38t-9.5 -26t10 -25q32 -49 67 -96t80 -92q8 -8 8 -16t-10.5 -17.5t-24.5 -17.5t-28 -13t-20 -5
q-13 0 -26 13q-55 55 -97 117t-74 127q-7 14 -7 24z" />
    <glyph glyph-name="equal" unicode="=" horiz-adv-x="426" 
d="M34 283q3 16 10.5 22t18.5 6q29 1 67.5 1.5t78.5 0.5q45 0 87.5 -0.5t71.5 -2.5q28 -3 28 -29q0 -27 -8 -61q-5 -20 -25 -20q-31 -1 -71 -1.5t-82 -0.5h-84.5t-72.5 2q-11 1 -18 5.5t-7 16.5q0 15 2 32t4 29zM30 422q0 14 2 30.5t4 29.5q3 15 10.5 20.5t18.5 6.5
q29 2 67.5 2.5t78.5 0.5q45 0 87.5 -1t71.5 -3q28 -1 28 -28q0 -9 -0.5 -22.5t-3.5 -26t-10 -22t-19 -9.5q-31 -1 -71 -1h-82q-43 0 -84 -0.5t-73 1.5q-11 1 -18 5.5t-7 16.5z" />
    <glyph glyph-name="greater" unicode="&#x3e;" horiz-adv-x="320" 
d="M34 144q37 44 74 88.5t70 100.5q10 17 10 25q0 9 -10 25q-32 49 -67 96t-80 92q-8 8 -8 16t10.5 17.5t24.5 17.5t28 13t20 5q13 0 26 -13q55 -55 97 -117t74 -127q7 -14 7 -24q0 -15 -7 -26q-41 -66 -79.5 -126.5t-80.5 -110.5q-15 -18 -29 -18q-6 0 -21 4t-31 10.5
t-28 14.5t-12 16t12 21z" />
    <glyph glyph-name="question" unicode="?" horiz-adv-x="491" 
d="M246 780q60 0 103 -15.5t71 -42.5t41 -63.5t13 -78.5q0 -48 -16 -84t-40 -64t-52 -49t-52 -39.5t-40 -36t-16 -38.5q0 -13 6.5 -19.5t14.5 -10.5t14.5 -6.5t6.5 -8.5q0 -11 -15 -19t-45 -8q-45 0 -65.5 21t-20.5 57q0 32 14.5 58t36.5 48t47.5 43t47.5 42t36.5 45
t14.5 53q0 46 -28 77t-88 31q-54 0 -85.5 -29.5t-34.5 -75.5q-1 -18 1.5 -30.5t5.5 -21.5t5 -15.5t1 -12.5q-3 -15 -23 -15q-13 0 -28.5 6.5t-28.5 20.5t-21.5 36t-8.5 54q0 40 15.5 74.5t44.5 60.5t71.5 41t96.5 15zM155 65q0 37 20 57.5t55 20.5t54.5 -20.5t19.5 -57.5
t-19.5 -55.5t-54.5 -18.5t-55 18.5t-20 55.5z" />
    <glyph glyph-name="at" unicode="@" horiz-adv-x="997" 
d="M70 302q0 101 27.5 187.5t82.5 151t137.5 101t192.5 36.5q102 0 177 -30.5t125 -85.5t74.5 -131t24.5 -166q0 -103 -23 -173.5t-62.5 -113.5t-91.5 -62t-109 -19q-8 0 -15 0.5t-13 1.5q-20 3 -21 20q-2 14 -2 34.5v28.5q0 13 -10 13q-5 0 -11 -7q-10 -13 -24 -30
t-30.5 -32.5t-35.5 -26t-39 -10.5q-25 0 -48.5 13t-41 43t-28 79.5t-10.5 123.5q0 84 15 140t42 90.5t65 49t84 14.5q53 0 84.5 -6t56.5 -14q13 -4 21.5 -12.5t8.5 -21.5q0 -48 -1.5 -104t-3.5 -108.5t-3.5 -95.5t-1.5 -66q0 -16 13 -16q27 0 50.5 19.5t41 54t27.5 82
t10 102.5q0 71 -16 131t-52 103.5t-93 68t-140 24.5q-92 0 -155.5 -32.5t-102.5 -86t-56 -121t-17 -138.5q0 -47 7 -89.5t16.5 -77.5t20.5 -62.5t20 -44.5q4 -8 4 -16q0 -9 -10.5 -14t-24.5 -8t-27 -4t-19 -1q-11 0 -17 4t-12 14q-9 17 -19.5 46.5t-19.5 67.5t-15.5 84.5
t-6.5 97.5zM408 253q0 -75 10 -114.5t35 -39.5q26 0 47 24.5t36 65t23.5 92.5t8.5 106q0 31 -14 45t-52 14q-22 0 -39.5 -8t-29.5 -29t-18.5 -58.5t-6.5 -97.5z" />
    <glyph glyph-name="A" unicode="A" horiz-adv-x="628" 
d="M294 769q8 5 13 7t11 2q13 0 23 -9q65 -57 110 -121t73.5 -136.5t41.5 -155t13 -176.5q0 -37 -1 -75.5t-7 -81.5q-2 -11 -8.5 -15.5t-18.5 -5.5q-10 -1 -21 -1.5t-22 -0.5q-14 0 -25 0.5t-19 1.5q-15 4 -15 20q0 20 8 52.5t8 78.5q0 45 -26.5 64t-84.5 19q-36 0 -68.5 -7
t-57 -20.5t-39.5 -34.5t-15 -49q0 -30 8.5 -56.5t8.5 -45.5q2 -18 -13 -21q-18 -3 -48 -3h-20.5t-19.5 1q-12 1 -18 5t-8 18q-9 77 -9 156q0 82 11 164t39 158.5t75.5 145t120.5 122.5zM174 308q0 -14 11 -14q7 0 21 5.5t33.5 12t45.5 12t57 5.5q35 0 55.5 -1.5t32.5 -0.5
q11 1 14 6t3 16q0 38 -10 79t-26 79t-36.5 70.5t-42.5 54.5q-10 10 -15 10q-6 0 -17 -10q-31 -27 -54.5 -68t-39.5 -86.5t-24 -90t-8 -79.5z" />
    <glyph glyph-name="B" unicode="B" horiz-adv-x="609" 
d="M65 334q0 113 9 213t20 193q3 22 28 24q23 2 65 3.5t89 1.5q29 0 60.5 -1t62.5 -6t58.5 -14.5t48.5 -27t33.5 -44t12.5 -64.5q0 -53 -24 -91t-58 -68q-13 -11 -13 -18q0 -6 9 -14q56 -47 85 -92t29 -107q0 -59 -20 -101.5t-64.5 -70.5t-114.5 -41t-170 -13q-28 0 -55 0.5
t-50 2.5q-9 1 -16.5 5t-9.5 18q-8 81 -11.5 159t-3.5 153zM180 261q0 -50 4 -85t18 -52q5 -5 11 -8.5t15 -6t22 -3.5t34 -1q35 0 67 6.5t56 21.5t38.5 39.5t14.5 60.5q0 28 -10 53t-26 43.5t-36 29.5t-39 11q-17 0 -50 -9t-70 -25q-16 -7 -25.5 -13.5t-14.5 -15t-7 -19.5
t-2 -27zM202 430q45 0 86.5 13t74 36t51.5 53.5t19 65.5q0 24 -10.5 40t-29 25.5t-43 13.5t-52.5 4q-33 0 -59 -3t-37 -14q-5 -6 -9 -27t-6.5 -49.5t-3.5 -61.5t-1 -64q0 -15 4 -23.5t16 -8.5z" />
    <glyph glyph-name="C" unicode="C" horiz-adv-x="562" 
d="M32 321q0 97 18.5 181t54 145.5t88 97t120.5 35.5q59 0 100 -25t66.5 -64t37 -87.5t11.5 -95.5q0 -17 -6.5 -30t-22.5 -24q-4 -5 -14 -11t-21 -11.5t-21.5 -9t-16.5 -3.5q-14 0 -14 18q0 8 0.5 19t0.5 19q0 33 -5 67.5t-17.5 62t-33 45.5t-51.5 18q-34 0 -61.5 -23.5
t-46.5 -66.5t-29 -101.5t-10 -129.5q0 -116 36.5 -175.5t118.5 -59.5q71 0 114.5 43t63.5 115q5 12 14 12q14 0 24 -20t10 -60q0 -41 -13.5 -80t-42.5 -69.5t-75 -49t-111 -18.5q-130 0 -198 85.5t-68 250.5z" />
    <glyph glyph-name="D" unicode="D" horiz-adv-x="636" 
d="M61 327q0 156 11.5 256t22.5 157q6 21 23 23q20 2 42.5 2.5t44.5 0.5q94 0 167 -24t123 -77t76 -137.5t26 -204.5q0 -71 -17 -130.5t-56 -103t-101 -67.5t-152 -24q-53 0 -97 0.5t-58 1.5q-23 1 -30 15q-5 11 -9.5 32t-8 57t-5.5 90.5t-2 132.5zM185 356q0 -94 5 -156.5
t25 -81.5q8 -9 19.5 -11.5t22.5 -2.5q107 0 162 57t55 179q0 81 -16.5 140.5t-46 98.5t-70.5 57.5t-90 18.5q-8 0 -17 -3t-15 -9q-10 -10 -16.5 -35.5t-10.5 -63t-5.5 -85t-1.5 -103.5z" />
    <glyph glyph-name="E" unicode="E" horiz-adv-x="554" 
d="M59 184q0 67 2 137.5t8 141.5t15.5 140.5t24.5 132.5q6 26 27 27q24 2 68.5 3.5t94.5 1.5q60 0 117.5 -2t93.5 -4q19 -1 19 -14q0 -5 -2.5 -16.5t-6 -25t-8 -27.5t-8.5 -24q-5 -11 -16 -11q-5 0 -10.5 2t-13.5 4q-25 8 -65.5 14.5t-105.5 6.5q-30 0 -45.5 -4.5
t-24.5 -15.5q-8 -9 -14 -29t-10 -45.5t-6 -53t-2 -53.5q0 -19 6.5 -26t21.5 -7q26 0 65 8.5t93 8.5q34 0 58 -6.5t24 -22.5q0 -6 -1.5 -15.5t-4 -20.5t-5.5 -22t-6 -19q-4 -9 -8 -11.5t-10 -2.5t-17 3t-26.5 6t-34 6t-39.5 3q-69 0 -98 -24.5t-29 -89.5q0 -46 3 -73t11 -41
t22.5 -18t37.5 -4q73 0 131.5 10.5t96.5 21.5q8 2 11.5 3.5t8.5 1.5q10 0 16 -15.5t9.5 -35.5t4.5 -38.5t1 -25.5q0 -21 -26 -23q-46 -3 -96 -3.5t-101 -0.5q-60 0 -115 0.5t-98 2.5q-17 1 -25.5 6t-9.5 23q-3 72 -3 155z" />
    <glyph glyph-name="F" unicode="F" horiz-adv-x="469" 
d="M62 333q0 101 8.5 208.5t29.5 199.5q2 10 9.5 14.5t15.5 5.5q36 3 80 4t90 1q44 0 83.5 -1.5t68.5 -3.5q13 -1 16.5 -6.5t3.5 -13.5q0 -7 -1.5 -25t-5.5 -36.5t-10.5 -33t-16.5 -14.5q-4 0 -8.5 1t-9.5 2q-17 5 -47 11t-78 6q-33 0 -50 -3.5t-27 -13.5q-8 -8 -13.5 -29
t-8.5 -49.5t-4.5 -62.5t-1.5 -68q0 -29 9 -39t33 -10q36 0 82.5 9.5t104.5 9.5q13 0 21 -3.5t8 -14.5q0 -21 -3.5 -51t-10.5 -50q-6 -12 -18 -12q-17 0 -54.5 3.5t-90.5 3.5q-39 0 -59 -11.5t-20 -44.5q0 -25 5 -57t11.5 -60.5t11.5 -50t5 -27.5q0 -10 -6.5 -14.5
t-20.5 -6.5q-5 -1 -16.5 -1.5t-23.5 -0.5q-13 0 -24 0.5t-16 1.5q-8 2 -16 6t-13 18q-4 16 -8 46t-7 70.5t-5 89.5t-2 103z" />
    <glyph glyph-name="G" unicode="G" horiz-adv-x="628" 
d="M351 777q50 0 87 -16.5t62 -42.5t37.5 -58t12.5 -63q0 -17 -6 -27.5t-17 -21.5q-8 -8 -19 -16t-22.5 -15t-21.5 -11t-16 -4q-16 0 -16 17q0 7 0.5 13t0.5 12q0 19 -5.5 40.5t-16.5 39.5t-29 30t-44 12q-35 0 -66 -23t-54 -66t-36.5 -105t-13.5 -140q0 -65 12 -109.5
t33.5 -71.5t52 -39t67.5 -12q129 0 129 120q0 36 -13 53t-54 20q-22 1 -22 21q0 9 1 14t6 8.5t14.5 6.5t25.5 6q51 12 83.5 26t48.5 14q8 0 13.5 -5t6.5 -16q1 -42 3 -85.5t2 -89.5q0 -96 -62 -151.5t-186 -55.5q-72 0 -125.5 22t-89.5 63t-53.5 100t-17.5 134
q0 98 20.5 184t59.5 150t96.5 101t131.5 37z" />
    <glyph glyph-name="H" unicode="H" horiz-adv-x="675" 
d="M61 327q0 170 13.5 274t22.5 136q4 14 9 18.5t12 6.5q11 2 23.5 3t24.5 1q13 0 25 -0.5t21 -2.5q11 -3 11 -19q0 -9 -5.5 -38.5t-11.5 -71.5t-11.5 -91.5t-5.5 -98.5q0 -22 17 -25q19 -1 51.5 6.5t88.5 7.5q27 0 48 -3t36.5 -6t25.5 -5t16 -1q15 3 15 28q0 55 -4.5 104
t-10 88t-10 67t-4.5 40q0 17 13 18q10 1 20.5 2t20.5 1h22t23 -2q10 -2 15.5 -7t9.5 -19q9 -32 20.5 -136t11.5 -275q0 -51 -2 -98.5t-5 -87t-6.5 -68.5t-6.5 -43q-4 -17 -10 -23t-17 -7t-22 -1.5t-22 -0.5h-22t-23 2q-9 2 -13.5 5.5t-4.5 13.5q0 11 4 38.5t8.5 62t8 69.5
t3.5 60q0 88 -130 88q-48 0 -79.5 -6.5t-51 -19.5t-27.5 -31.5t-8 -42.5q0 -33 4 -68t8.5 -65t8.5 -53t4 -32q0 -10 -3.5 -13.5t-11.5 -5.5q-12 -1 -23 -1h-23t-24.5 1t-24.5 3q-9 2 -13.5 7t-8.5 20q-3 14 -6.5 43t-6.5 68.5t-5 87t-2 98.5z" />
    <glyph glyph-name="I" unicode="I" horiz-adv-x="271" 
d="M64 327q0 171 12 275t20 136q2 14 8 19t16 7q10 1 21 1.5t23 0.5q13 0 25.5 -0.5t24.5 -1.5q7 -2 9.5 -5t2.5 -11q0 -10 -6 -38.5t-12.5 -75.5t-12.5 -112t-6 -148q0 -73 4.5 -135t9.5 -108.5t9.5 -75.5t4.5 -37q0 -9 -3.5 -12.5t-11.5 -4.5q-12 -2 -24 -2h-26h-25t-24 2
q-8 2 -12.5 5.5t-7.5 13.5q-4 15 -8 46.5t-6 73.5t-3.5 90.5t-1.5 96.5z" />
    <glyph glyph-name="J" unicode="J" horiz-adv-x="354" 
d="M27 140q5 10 16 10q6 0 10.5 -4t10.5 -12q5 -7 14.5 -12t22.5 -5q20 0 33.5 16t22 44.5t12 68t3.5 87.5q0 85 -5 156.5t-11 124.5t-11 86t-5 40q0 14 5 19t14 6q8 1 19 1h24h25.5t22.5 -2q11 -2 17 -6t9 -16t5.5 -39t5 -62t4.5 -75.5t3.5 -79.5t2 -73.5t0.5 -57.5
q0 -106 -13 -177t-36.5 -114t-56.5 -61t-74 -18q-42 0 -68.5 13.5t-40.5 27.5q-7 7 -7 18q0 13 7.5 41.5t18.5 54.5z" />
    <glyph glyph-name="K" unicode="K" horiz-adv-x="635" 
d="M62 264q0 67 2.5 133t6.5 127t9 113t11 90q2 22 8.5 28.5t20.5 8.5q7 1 18 1.5t23 0.5h21.5t20.5 -2q13 -2 18.5 -7t5.5 -20t-6.5 -49t-14 -77.5t-14 -93t-6.5 -96.5q0 -14 9 -14q7 0 21 10q43 21 79.5 55t65 76t48 91.5t29.5 102.5q2 12 7 16t14 6q11 2 23.5 2h25.5
q12 0 22 -0.5t18 -1.5q19 -1 19 -20q0 -30 -13.5 -71t-36.5 -85.5t-54 -88t-67 -79.5q-9 -9 -9 -17q0 -9 9 -15q35 -23 67 -61.5t57 -86.5t39.5 -101.5t14.5 -106.5q0 -29 -23 -31q-8 -2 -18.5 -2h-22.5q-22 0 -43 3q-14 2 -19 8.5t-7 22.5q-10 77 -28 133t-42 92t-52 53
t-58 17q-12 0 -25 -5t-23.5 -16t-17.5 -28t-7 -42q0 -28 3.5 -59.5t7.5 -60.5t7.5 -53t3.5 -37q0 -25 -22 -27q-8 -1 -19 -1h-23h-22t-19 1q-15 2 -23.5 9.5t-10.5 29.5q-5 51 -7 108t-2 117z" />
    <glyph glyph-name="L" unicode="L" horiz-adv-x="430" 
d="M105 744q3 18 19 20q8 1 21 1.5t30 0.5q14 0 27.5 -0.5t21.5 -1.5q11 -1 15 -6t4 -12q0 -5 -4.5 -31.5t-11.5 -68.5t-15.5 -96t-15.5 -115.5t-11.5 -126.5t-4.5 -129q0 -46 10.5 -59.5t38.5 -13.5q35 0 71.5 9t68.5 23q9 4 13.5 5t7.5 1q10 0 14 -10q3 -7 6.5 -21t6 -30
t4.5 -30.5t2 -22.5q0 -28 -32 -30q-26 -2 -56 -2.5t-60 -0.5q-51 0 -97 0.5t-80 2.5q-17 1 -25.5 6t-9.5 23q-3 60 -3 132q0 69 2.5 144t8 150.5t14 149t20.5 139.5z" />
    <glyph glyph-name="M" unicode="M" horiz-adv-x="838" 
d="M61 342q0 94 8.5 194.5t22.5 206.5q2 12 7.5 16t11.5 5q9 1 23.5 1.5t29.5 0.5q17 0 31 -0.5t25 -2.5t17.5 -7t11.5 -16q39 -73 76 -163t84 -200q5 -11 11 -11q8 0 11 10q37 112 78 200.5t76 159.5q5 11 12.5 18t18.5 9t23 2h26q11 0 22 -0.5t24 -1.5q22 -3 26 -24
q17 -88 29 -182t12 -195q0 -81 -6.5 -164.5t-17.5 -172.5q-2 -12 -8.5 -18t-15.5 -7q-10 -1 -28 -2t-37 -1q-13 0 -24 1t-18 2q-18 2 -18 16q0 11 6.5 46t15 88t15 120.5t6.5 143.5q0 45 -2 93t-10 89q-2 8 -8 8t-9 -6q-25 -50 -45 -103t-40.5 -106t-42.5 -104.5t-50 -98.5
q-10 -16 -22 -16q-14 0 -24 16q-30 48 -57 103.5t-50.5 111t-42.5 106t-34 87.5q-3 8 -10 8q-6 0 -8 -9q-8 -45 -9 -96.5t-1 -108.5q0 -88 7 -153.5t15 -110.5t15 -71t7 -37q0 -13 -18 -15q-9 -1 -20.5 -1.5t-28.5 -0.5q-14 0 -27 0.5t-25 1.5q-16 1 -19 17
q-15 75 -21.5 155.5t-6.5 168.5z" />
    <glyph glyph-name="N" unicode="N" horiz-adv-x="685" 
d="M150 -2q-12 0 -23 0.5t-19 1.5q-23 2 -26 21q-11 77 -16 164.5t-5 173.5q0 65 2.5 126t6.5 111t10 87.5t12 56.5q6 21 28 24q8 2 18 2h20t19.5 -0.5t17.5 -1.5q15 -1 26 -17q23 -31 55.5 -85t70 -124.5t77 -155.5t75.5 -180q3 -8 10 -8q11 0 11 15q0 113 -7 206t-16 162
t-16 112t-7 57q0 17 17 19q8 1 19.5 1.5t23.5 0.5q11 0 22.5 -0.5t19.5 -1.5q11 -1 17.5 -6t8.5 -17q6 -35 10.5 -79t7.5 -93.5t4 -103t1 -107.5q0 -94 -4 -180.5t-12 -149.5q-2 -15 -9 -21t-23 -8q-8 -1 -20 -1h-24h-18.5t-15.5 1q-14 2 -20 7t-11 20q-66 156 -132 294
t-126 243q-7 13 -14 13q-11 0 -13 -19q-4 -106 0 -201t11 -168t13 -118t6 -52q0 -17 -22 -19q-8 -1 -19 -1.5t-22 -0.5z" />
    <glyph glyph-name="O" unicode="O" 
d="M308 780q68 0 119.5 -41t86 -109t52 -155.5t17.5 -180.5q0 -66 -13.5 -122.5t-45 -98t-84 -65t-130.5 -23.5q-79 0 -132 23.5t-85.5 65t-46 98t-13.5 122.5q0 93 17.5 180.5t52.5 155.5t86.5 109t118.5 41zM309 105q74 0 113 48.5t39 159.5q0 70 -11 133.5t-31.5 112
t-48.5 77.5t-62 29q-35 0 -63.5 -29.5t-48 -78.5t-30 -112t-10.5 -129q0 -114 40 -162.5t113 -48.5z" />
    <glyph glyph-name="P" unicode="P" horiz-adv-x="551" 
d="M61 339q0 98 7.5 202.5t31.5 201.5q5 20 26 21q22 2 53.5 2.5t63.5 0.5q68 0 124 -11t95.5 -38.5t61.5 -75.5t22 -123q0 -65 -18 -113.5t-51 -84.5t-79.5 -62t-103.5 -46q-32 -12 -52 -20.5t-30.5 -17t-14 -18t-3.5 -23.5q0 -15 3 -33t7 -34.5t7 -29.5t3 -19
q0 -16 -18 -18q-8 -1 -19 -1h-24h-21t-19 1q-11 1 -18.5 5t-10.5 20q-11 58 -17 139t-6 175zM204 289q14 0 34.5 4.5t43.5 13.5t46.5 23t42.5 33q27 27 42 68.5t15 90.5q0 34 -7 62t-24 48.5t-46 31.5t-73 11q-30 0 -43 -3t-21 -11q-11 -11 -18 -39.5t-11.5 -68t-6 -87
t-1.5 -96.5q0 -42 5 -61.5t22 -19.5z" />
    <glyph glyph-name="Q" unicode="Q" horiz-adv-x="622" 
d="M309 779q70 0 122 -39.5t86 -104.5t50.5 -150t16.5 -177q0 -57 -10 -101.5t-22 -79.5q-3 -9 -3 -15q0 -8 7 -15q15 -15 25.5 -26t17 -19t9 -16t2.5 -17q0 -17 -7.5 -32t-22.5 -15q-10 0 -24 11t-27.5 21.5t-27.5 21.5q-7 6 -14 6q-4 0 -7.5 -2t-7.5 -4q-28 -17 -66.5 -29
t-95.5 -12q-76 0 -129 23t-86 65.5t-47.5 102t-14.5 131.5q0 92 16.5 177t51 150.5t86.5 105t122 39.5zM310 94q32 0 57.5 9t25.5 20q0 8 -10.5 21.5t-23.5 32t-23.5 41t-10.5 47.5q0 18 16 18q8 0 20 -13.5t25.5 -29.5t27 -29.5t22.5 -13.5q8 0 13 10.5t8 28t4 39.5t1 45
q0 66 -10.5 128t-30.5 110t-48.5 77.5t-63.5 29.5q-37 0 -65.5 -30.5t-48 -79.5t-30 -110.5t-10.5 -124.5q0 -122 40.5 -174t114.5 -52z" />
    <glyph glyph-name="R" unicode="R" horiz-adv-x="629" 
d="M61 295q0 102 9 214t26 230q2 11 8 15t17 6q12 2 37 3.5t52.5 3t53 2.5t39.5 1q59 0 109 -10t86 -34t56.5 -63.5t20.5 -98.5q0 -77 -39.5 -136.5t-108.5 -100.5q-7 -4 -7 -12q0 -6 7 -10q42 -25 75 -62t55.5 -76.5t34.5 -77.5t12 -65q0 -21 -24 -24q-7 -1 -18 -1h-25
h-23.5t-20.5 1q-14 1 -19.5 5.5t-7.5 15.5q-8 58 -27 101.5t-44.5 73t-56 44t-62.5 14.5q-45 0 -65 -18t-20 -62q0 -16 3 -40.5t6.5 -48.5t6.5 -43t3 -24q0 -15 -19 -17h-87q-11 1 -19 5t-10 19q-6 57 -10 125t-4 145zM206 337q41 0 84 18t78 48.5t58 71t23 86.5
q0 63 -40 91t-106 28q-29 0 -51.5 -4t-31.5 -13t-16 -37.5t-12 -68t-7.5 -86t-2.5 -92.5q0 -26 5.5 -34t18.5 -8z" />
    <glyph glyph-name="S" unicode="S" horiz-adv-x="567" 
d="M36 179q0 26 5.5 45.5t15.5 33.5q5 9 12 9q10 0 13 -11q10 -36 29.5 -64.5t45.5 -48.5t57.5 -30.5t65.5 -10.5q57 0 94 23t37 74q0 45 -34 74t-100 52q-49 17 -89.5 37.5t-70 48t-46 64.5t-16.5 88q0 44 15 83.5t44.5 69t74 46.5t104.5 17q61 0 113 -18t89 -43
q13 -9 13 -23q0 -7 -6.5 -23.5t-15.5 -34t-19.5 -30.5t-18.5 -13t-14 7q-27 35 -66 53.5t-77 18.5q-58 0 -86.5 -28t-28.5 -72q0 -24 7.5 -43t24 -34.5t42 -28.5t61.5 -27q51 -18 92 -39.5t70.5 -49t45 -63t15.5 -83.5q0 -44 -14.5 -83.5t-46 -69t-80.5 -46.5t-117 -17
q-56 0 -100.5 14.5t-75.5 40t-47.5 60.5t-16.5 75z" />
    <glyph glyph-name="T" unicode="T" horiz-adv-x="513" 
d="M23 723q6 21 27 28q23 8 79 16t131 8q159 0 225 -34q14 -8 17.5 -16.5t3.5 -20.5q0 -17 -3.5 -37t-9.5 -37q-7 -15 -17 -15q-9 0 -21.5 6.5t-29 15t-36.5 15t-45 6.5q-14 0 -20 -5.5t-8 -21.5q-8 -53 -12 -115.5t-4 -131.5q0 -65 4.5 -126t10 -110t10 -81.5t4.5 -40.5
q-2 -20 -16 -24q-18 -5 -52 -5q-14 0 -27.5 1.5t-27.5 3.5q-9 2 -15.5 7.5t-7.5 20.5q-5 44 -7.5 92t-2.5 98q0 95 4 164t9 118.5t9 82.5t4 56q0 9 -4 13.5t-15 4.5q-28 0 -53 -6t-45 -13t-34 -13t-22 -6q-14 0 -14 18q0 7 1 18.5t3 24t4 23.5t3 18z" />
    <glyph glyph-name="U" unicode="U" horiz-adv-x="610" 
d="M47 338q0 80 5 147t11.5 119t13.5 87.5t11 52.5q2 9 7.5 13.5t11.5 5.5q9 1 21 1h25h23t21 -1q8 -1 12.5 -6t3.5 -14q-1 -16 -7.5 -53t-14 -89t-13 -115t-5.5 -132t9 -116.5t26 -77t42 -43t58 -13.5q35 0 60 13t41 42.5t23 77t7 116.5q0 77 -4 141.5t-8.5 114t-9 83
t-6.5 49.5q-1 9 1.5 14t12.5 7q17 3 38 3h24.5t20.5 -2q17 -3 21 -16q9 -29 21.5 -130t12.5 -273q0 -81 -12 -146.5t-42 -112t-80 -71.5t-125 -25q-130 0 -193.5 86t-63.5 263z" />
    <glyph glyph-name="V" unicode="V" 
d="M52 503q0 60 9 120t23 120q4 17 26 21q8 2 18 2h21t23 -0.5t23 -1.5q20 -1 20 -17q0 -7 -5 -26t-10.5 -51t-10.5 -77t-5 -104q0 -49 6.5 -98.5t20.5 -95t36 -86t52 -70.5q9 -9 16 -9q8 0 14 9q51 58 79.5 152t28.5 219q0 57 -4.5 98t-9.5 69t-9.5 45t-4.5 25q0 9 4.5 12
t13.5 5q11 2 22 2h21q9 0 21 -0.5t21 -2.5q12 -2 18 -8t11 -23q14 -54 19.5 -106.5t5.5 -106.5q0 -84 -14.5 -165t-43 -151t-72 -125.5t-101.5 -88.5q-10 -6 -21 -6q-13 0 -23 6q-58 36 -102.5 89.5t-75 120t-46 143.5t-15.5 161z" />
    <glyph glyph-name="W" unicode="W" horiz-adv-x="844" 
d="M29 513q0 67 3 121.5t11 110.5q2 10 9 15t15 6q9 1 19 1h20h18.5t15.5 -1q14 -2 19 -7.5t5 -15.5q0 -5 -2 -28t-5 -58.5t-5 -81t-2 -96.5q0 -62 8.5 -114t22.5 -94t31.5 -73.5t35.5 -53.5q8 -10 14 -10q4 0 11 10q29 42 47 80t28 77t14 82.5t4 97.5q0 51 -1.5 96t-3 79.5
t-3 58t-1.5 30.5q0 10 4 14.5t15 5.5q10 1 22 1.5t24 0.5q13 0 24.5 -0.5t20.5 -1.5q22 -1 22 -22q0 -14 -5 -79t-5 -183q0 -55 4.5 -98.5t15 -82t27.5 -76t42 -81.5q6 -11 12 -11t14 11q14 20 32 52.5t34 75t26.5 95t10.5 112.5q0 50 -2.5 95.5t-6 81t-6 59.5t-2.5 31
q0 16 20 19q7 1 15.5 1h17.5h22t19 -1q12 -1 19 -8.5t9 -24.5q7 -52 10.5 -103t3.5 -109q0 -194 -55 -331t-151 -201q-13 -9 -25 -9q-13 0 -25 9q-15 11 -33 30.5t-36 45t-34 55.5t-27 62q-5 15 -10 15t-12 -15q-4 -9 -13.5 -27.5t-22 -41t-27.5 -46t-30 -43t-29.5 -32
t-25.5 -12.5q-13 0 -28 11q-94 68 -148.5 202.5t-54.5 321.5z" />
    <glyph glyph-name="X" unicode="X" horiz-adv-x="637" 
d="M46 23q0 63 15 115t39.5 94.5t55 78t61.5 66.5q6 6 6 12q0 4 -6 10q-34 35 -63 69t-50 73.5t-33 87.5t-12 111q0 23 19 25q10 1 22.5 1.5t24.5 0.5h24t20 -2q21 -3 21 -24q0 -48 10 -89.5t26.5 -76.5t38 -62t43.5 -45q9 -7 15 -7q5 0 14 7q22 18 44 45.5t39 63t28 76.5
t11 86q0 22 23 24q9 1 19.5 1.5t21.5 0.5q13 0 24 -0.5t20 -1.5q16 -2 22 -9.5t6 -23.5q0 -104 -43.5 -180t-125.5 -144q-9 -7 -9 -15q0 -5 7 -12q27 -27 57 -60.5t54.5 -75.5t40.5 -95t16 -121q0 -26 -28 -27q-13 -1 -20.5 -1h-15.5h-18t-28 1q-23 1 -25 22q-3 46 -14 88
t-27 77.5t-34.5 64t-37.5 47.5q-11 14 -24 14q-12 0 -26 -14q-19 -19 -37.5 -45.5t-34.5 -61t-27 -77t-14 -92.5q-1 -13 -8 -17t-15 -5t-19 -1.5t-23 -0.5q-14 0 -26.5 0.5t-21.5 1.5q-12 1 -17 5t-5 17z" />
    <glyph glyph-name="Y" unicode="Y" horiz-adv-x="589" 
d="M35 734q0 17 5 23.5t18 7.5q10 1 21 1.5t22 0.5t21.5 -0.5t19.5 -1.5q20 -2 23.5 -9.5t3.5 -21.5q-1 -10 -3 -33t-2 -49q0 -54 11 -97.5t27.5 -77.5t36 -57.5t35.5 -38.5q16 -14 26 -14q12 0 22 10q18 18 37 52t34.5 76t25.5 88.5t10 89.5q0 23 -1 38t-1 23q0 11 5 15.5
t14 5.5q7 1 15.5 1h19.5q14 0 27 -0.5t22 -1.5q16 -2 20.5 -8.5t4.5 -24.5q0 -62 -11 -113t-29 -94.5t-40 -81.5t-44 -75q-18 -30 -35.5 -60.5t-30.5 -63t-21 -67.5t-8 -76q0 -24 3 -44.5t3 -31.5q0 -22 -24 -24q-10 -1 -22.5 -1h-25.5h-29t-26 1q-20 2 -25.5 14t-5.5 35
q0 35 5 63.5t12.5 52.5t16 42.5t15.5 31.5q4 8 4 18q0 8 -5.5 16t-15.5 18q-21 21 -51.5 53t-59.5 84t-49.5 126.5t-20.5 179.5z" />
    <glyph glyph-name="Z" unicode="Z" horiz-adv-x="538" 
d="M200 413q48 60 80 100.5t50.5 67t26.5 41t8 21.5q0 15 -17 15q-64 0 -109.5 -5.5t-76.5 -12t-50.5 -12t-32.5 -5.5q-11 0 -16 12q-3 12 -6 27t-5.5 29.5t-3.5 27t-1 21.5q0 23 32 24q35 2 83 2.5t100 0.5q64 0 125.5 -1t102.5 -3q19 -1 23.5 -6t4.5 -22q0 -33 -15 -71.5
t-41 -82.5t-62 -92.5t-77 -102.5q-45 -57 -74.5 -99t-47 -72.5t-25 -51t-7.5 -34.5q0 -20 26 -20q72 0 121 6.5t82 15t52.5 15t31.5 6.5q14 0 17 -14q10 -51 12 -108q0 -16 -7 -22t-24 -7q-44 -2 -101 -2.5t-117 -0.5t-114.5 0.5t-96.5 1.5q-20 0 -26.5 10t-6.5 28
q0 45 12.5 88.5t36 89.5t57 94.5t76.5 102.5z" />
    <glyph glyph-name="bracketleft" unicode="[" horiz-adv-x="282" 
d="M72 379q0 74 -1 136.5t-1.5 109.5t-1.5 78t-1 43q0 13 5 17.5t15 5.5q18 2 36 2h37h29.5t28.5 -2t14 -13t-17 -21q-9 -5 -16 -12.5t-11.5 -21t-7 -36.5t-4 -61t-2 -92.5t-0.5 -131.5t1 -131.5t3 -91t5 -58.5t8 -34.5t11.5 -19t15.5 -12.5q17 -11 17 -23q0 -6 -3.5 -10.5
t-12.5 -5.5q-17 -2 -32.5 -2h-32.5h-34t-34 2q-11 1 -17.5 6t-6.5 17q0 38 5 133t5 229z" />
    <glyph glyph-name="backslash" unicode="\" horiz-adv-x="333" 
d="M22 817q9 1 18.5 1h20.5h21.5t19.5 -2q7 -2 13.5 -6t8.5 -16q8 -40 29 -142t60 -247q23 -82 44 -148.5t36.5 -115t25 -78.5t9.5 -41q0 -20 -19 -21q-10 -1 -21 -1h-24q-12 0 -23.5 -0.5t-23.5 1.5q-14 2 -19 7.5t-8 18.5q-17 60 -37.5 136.5t-41 157t-40 160t-34 145.5
t-23.5 112t-9 60q0 18 17 19z" />
    <glyph glyph-name="bracketright" unicode="]" horiz-adv-x="282" 
d="M48 755q0 6 3.5 10.5t12.5 5.5q17 2 32.5 2h32.5h34t34 -2q11 -1 17.5 -6t6.5 -17q0 -38 -5 -133t-5 -229q0 -74 1 -136t1.5 -109.5t1.5 -78.5t1 -43q0 -13 -5 -17.5t-15 -5.5q-18 -2 -36 -2h-37h-29.5t-28.5 2t-14 13t17 21q14 8 22.5 21.5t12.5 49t5 102.5t1 182
q0 78 -1 132t-3 90.5t-5 58.5t-8 34.5t-11.5 19t-15.5 12.5q-17 11 -17 23z" />
    <glyph glyph-name="asciicircum" unicode="^" horiz-adv-x="520" 
d="M15 344q16 26 40.5 59t53.5 66.5t59.5 63.5t57.5 51q10 8 18.5 10.5t16.5 2.5q7 0 14.5 -2.5t18.5 -10.5q27 -21 57.5 -51.5t59.5 -63.5t54 -65.5t40 -58.5l4 -10t2 -10q0 -9 -18 -21q-15 -7 -33 -13.5t-34 -6.5t-30 17q-34 41 -57 64.5t-38.5 35.5t-24.5 15.5t-15 3.5
q-7 0 -16 -3.5t-24 -16t-39 -36t-60 -63.5q-8 -8 -14.5 -12.5t-15.5 -4.5q-14 0 -32.5 6.5t-32.5 13.5q-17 11 -17 23q0 7 5 17z" />
    <glyph glyph-name="underscore" unicode="_" horiz-adv-x="393" 
d="M7 9q0 26 13 71q5 10 11.5 15.5t18.5 6.5q18 2 47 2.5t63 0.5q28 0 57.5 -0.5t56.5 -1t49 -1t35 -1.5q14 -2 19 -8t5 -17q0 -13 -2.5 -32.5t-8.5 -37.5q-4 -11 -11 -17t-22 -7q-15 -2 -38 -2.5t-51 -0.5q-29 0 -61.5 0.5t-62.5 1.5t-55 2t-39 2q-11 1 -17.5 7t-6.5 17z
" />
    <glyph glyph-name="grave" unicode="`" horiz-adv-x="264" 
d="M19 870q19 5 42 8.5t37 3.5q17 0 22 -14q21 -57 51.5 -98.5t81.5 -66.5q6 -3 8.5 -7t2.5 -7q0 -10 -13.5 -12t-20.5 -2q-49 0 -91.5 20.5t-73 49t-48 57.5t-17.5 47q0 8 4 13t15 8z" />
    <glyph glyph-name="a" unicode="a" horiz-adv-x="495" 
d="M30 174q0 50 19.5 86.5t55 62.5t84.5 42.5t108 25.5q20 3 27 12t7 24q0 46 -23.5 70t-75.5 24q-39 0 -73.5 -16.5t-63.5 -45.5q-8 -8 -15 -8q-8 0 -14 7.5t-10.5 17t-6.5 19.5t-2 16q0 22 14 42t39.5 35.5t61 24.5t79.5 9q56 0 94 -14.5t61.5 -43t34 -70t10.5 -95.5
q0 -72 -2.5 -132t-2.5 -103q0 -19 1.5 -40t3 -39t3 -31.5t1.5 -17.5q0 -24 -23 -28q-10 -3 -32 -4.5t-48 -2.5t-51 -1.5t-41 -0.5q-220 0 -220 175zM142 184q0 -48 32 -65.5t100 -17.5q37 0 47 11.5t10 31.5v126q0 19 -5 26.5t-19 7.5q-72 0 -118.5 -31t-46.5 -89z" />
    <glyph glyph-name="b" unicode="b" horiz-adv-x="531" 
d="M76 783q2 17 7.5 24t18.5 8q10 1 21 1h22h15.5t15.5 -1t14 -5t6 -15q0 -10 -3 -33.5t-7 -54.5t-7 -66.5t-3 -68.5q0 -14 10 -14q5 0 11 4q14 9 28.5 19.5t32 19.5t37.5 15t44 6q74 0 119.5 -59.5t45.5 -183.5q0 -83 -14 -153.5t-45 -122t-79.5 -80.5t-116.5 -29
q-20 0 -41.5 2t-42 5.5t-37 7.5t-25.5 8q-30 12 -33 38q-9 51 -13 126t-4 160q0 70 2 135.5t5 123t7 104.5t9 79zM164 274q0 -61 2.5 -96.5t11.5 -53.5t27 -23t49 -5t55.5 15t41.5 47t26 84t9 125q0 86 -24.5 121t-65.5 35q-20 0 -39.5 -9.5t-34.5 -24.5q-15 -13 -26 -28.5
t-18 -39.5t-10.5 -59t-3.5 -88z" />
    <glyph glyph-name="c" unicode="c" horiz-adv-x="450" 
d="M28 266q0 93 17.5 160.5t48.5 111t73.5 64t91.5 20.5q41 0 71 -14.5t50 -40t30 -60t10 -74.5q0 -17 -8 -32.5t-20.5 -27t-26.5 -18.5t-26 -7q-17 0 -18 17q-2 29 -5 56.5t-10 48.5t-20 34t-37 13q-45 0 -75 -57t-30 -165q0 -41 5 -76.5t18 -61.5t34.5 -41t54.5 -15
q28 0 48.5 9t36 25t26.5 36.5t18 42.5q3 9 12 9q8 0 14 -10t10 -23.5t5.5 -26.5t1.5 -19q0 -32 -12.5 -60.5t-36 -49.5t-57.5 -33t-78 -12q-57 0 -98 19.5t-67.5 55.5t-38.5 87t-12 115z" />
    <glyph glyph-name="d" unicode="d" horiz-adv-x="531" 
d="M34 273q0 176 51 262.5t134 86.5q20 0 37 -5t31.5 -13t27.5 -16.5t24 -16.5q5 -3 10 -3q10 0 10 14q0 33 -3.5 67t-7.5 63.5t-7.5 52t-3.5 31.5q0 11 5 15.5t14 5.5q8 1 17 1h18h21t21 -2q10 -2 16 -7t8 -23q4 -32 8 -80.5t7 -106.5t5 -122.5t2 -128.5q0 -85 -5 -162.5
t-13 -134.5q-2 -11 -8 -19.5t-18 -13.5q-21 -8 -64 -16t-106 -8q-62 0 -106 19t-71.5 55t-40.5 87.5t-13 117.5zM150 289q0 -55 8 -92t23 -59.5t37 -32t50 -9.5q32 0 51.5 7t30 32t14 73.5t3.5 132.5q0 48 -10 82.5t-26.5 56.5t-36 32.5t-39.5 10.5q-24 0 -43.5 -13
t-33 -41.5t-21 -73t-7.5 -106.5z" />
    <glyph glyph-name="e" unicode="e" horiz-adv-x="480" 
d="M284 621q33 0 62.5 -9.5t51.5 -28t35 -47t13 -67.5q0 -44 -13.5 -74t-36 -51.5t-51 -36t-58 -26t-57.5 -23t-50 -26.5q-28 -18 -28 -42q0 -38 25 -65.5t77 -27.5q57 0 95 27.5t64 84.5q5 6 10 6q9 0 16 -15.5t7 -45.5q0 -38 -16 -68.5t-43 -52t-62.5 -33t-75.5 -11.5
q-61 0 -103.5 22t-68.5 62.5t-38 96.5t-12 123q0 84 20 146t55 102.5t81.5 60t100.5 19.5zM136 329q0 -8 3 -14.5t11 -6.5t13 4q21 16 51.5 31t58 32t47 37.5t19.5 48.5q0 29 -16.5 46t-47.5 17q-33 0 -59 -15.5t-44 -42t-27 -62t-9 -75.5z" />
    <glyph glyph-name="f" unicode="f" horiz-adv-x="314" 
d="M26 594q4 14 16 14q9 0 18.5 -1t15.5 -1q10 0 14 10t7 33q3 41 13 74.5t28 58t45 38t64 13.5q27 0 41 -4.5t19 -7.5t8.5 -8.5t2.5 -16.5q-1 -12 -5 -32.5t-6 -30.5q-3 -12 -12 -12q-5 0 -15.5 4.5t-24.5 4.5q-28 0 -42 -26.5t-14 -75.5q0 -20 21 -20q13 0 33.5 1t31.5 1
q16 0 17 -16q1 -7 1.5 -15.5t0.5 -17.5q0 -12 -1 -25t-4 -25t-15 -12q-14 0 -32.5 2.5t-34.5 2.5q-11 0 -15 -7.5t-5 -23.5q-1 -22 -1.5 -43t-0.5 -44q0 -81 4.5 -170.5t21.5 -187.5q3 -20 -9 -25q-9 -3 -25 -5t-33 -2h-20.5t-17.5 1q-11 1 -18 3.5t-8 10.5q-5 48 -6 115.5
t-1 139.5q0 62 1 116.5t3 92.5q1 24 -21 24h-33q-11 0 -13 9q-1 5 -1 10v11q0 17 2 35t5 30z" />
    <glyph glyph-name="g" unicode="g" horiz-adv-x="517" 
d="M102 260q9 9 9 18q0 10 -6 15q-23 19 -42 54t-19 90q0 85 56.5 135t157.5 50q32 0 52.5 -5.5t33.5 -5.5q12 0 21 12t18 27q22 44 43 44q8 0 19.5 -7.5t21.5 -18t17 -22.5t7 -21q-2 -11 -10 -16q-17 -10 -30.5 -21t-13.5 -28q0 -9 7 -18.5t15 -23t15 -33t7 -49.5
q0 -43 -13 -78t-39.5 -60.5t-67.5 -39.5t-97 -14q-38 0 -63.5 -10t-41 -25.5t-22 -34.5t-6.5 -36q0 -24 10.5 -33.5t30.5 -9.5q21 0 43 8t46.5 17.5t52 17.5t58.5 8q14 0 33 -2t36 -8.5t29 -18t12 -30.5q0 -12 -4.5 -29t-12 -32t-17 -26t-18.5 -11t-16 7q-16 16 -34 27
t-47 11q-22 0 -42 -7.5t-41 -17t-45 -17t-55 -7.5q-59 0 -90.5 30t-31.5 89q0 28 6.5 51t17 42.5t24 35t26.5 27.5zM159 433q0 -42 28.5 -69t74.5 -27q45 0 76 26.5t31 71.5q0 40 -27 68t-77 28q-51 0 -78.5 -28.5t-27.5 -69.5z" />
    <glyph glyph-name="h" unicode="h" horiz-adv-x="537" 
d="M94 784q3 17 9.5 23.5t17.5 8.5q21 3 44 3h18t20 -2q15 -2 15 -19q0 -10 -6 -32t-12.5 -50t-12.5 -57t-6 -52q0 -24 16 -24q9 0 22 6t30.5 13.5t40 13.5t51.5 6q36 0 64.5 -12t48 -39.5t29.5 -73t10 -113.5q0 -53 -2.5 -108t-6 -103.5t-7 -86t-6.5 -55.5
q-2 -16 -10 -22.5t-20 -8.5q-5 -1 -13.5 -1h-17.5h-21.5t-18.5 1q-24 2 -24 21q0 9 4.5 43t9.5 80.5t9.5 99.5t4.5 102q0 51 -4.5 84t-14 52t-25 26.5t-37.5 7.5q-24 0 -45.5 -9.5t-38 -31t-26.5 -55.5t-10 -84q0 -47 2 -97t4.5 -93.5t4.5 -76t2 -43.5q0 -14 -6 -19t-17 -6
q-8 -1 -17 -1.5t-18 -0.5q-11 0 -21.5 0.5t-19.5 1.5t-15.5 6.5t-8.5 24.5q-5 54 -7 123t-2 147q0 63 2 128t6.5 127.5t12.5 120t19 106.5z" />
    <glyph glyph-name="i" unicode="i" horiz-adv-x="242" 
d="M70 589q2 14 8 18t16 5q9 1 17 1h17h16t17 -1q19 -2 19 -18q0 -14 -5 -88.5t-5 -202.5q0 -116 9 -191t9 -95q0 -9 -5 -12.5t-12 -4.5q-11 -2 -22.5 -2h-22.5q-12 0 -23 0.5t-21 1.5q-8 1 -14.5 4.5t-8.5 17.5q-5 51 -7.5 110.5t-2.5 122.5q0 88 5 175t16 159zM130 802
q38 0 55 -18t17 -47q0 -28 -17 -45t-55 -17q-36 0 -54.5 17t-18.5 45q0 29 18.5 47t54.5 18z" />
    <glyph glyph-name="j" unicode="j" horiz-adv-x="278" 
d="M24 117q11 1 19.5 -6t22.5 -5q12 0 20.5 7t13.5 23.5t7.5 43.5t2.5 67q0 50 -2 104.5t-4.5 102t-4.5 83t-2 45.5q0 11 2.5 18t13.5 9q8 2 20 2.5t25 0.5h17.5t16.5 -2q9 -1 14 -6t7 -17q8 -66 10 -139t2 -133q0 -94 -7 -157t-23.5 -100t-43.5 -52.5t-67 -15.5
q-26 0 -43.5 4.5t-28.5 11.5q-6 4 -8.5 9t-2.5 16q0 5 0.5 19t3 29t7 26.5t12.5 11.5zM79 737q0 29 18.5 47t54.5 18q38 0 55 -18t17 -47q0 -28 -17 -45t-55 -17q-36 0 -54.5 17t-18.5 45z" />
    <glyph glyph-name="k" unicode="k" horiz-adv-x="529" 
d="M54 307q0 123 7 249t23 236q2 16 9 20t14 5q9 1 18.5 1.5t19.5 0.5t20 -0.5t20 -1.5q7 -1 13 -5t6 -14q0 -4 -3 -26t-7 -56t-9.5 -76t-9.5 -86.5t-7 -88t-3 -79.5q0 -24 18 -24q37 0 68 18.5t53.5 49.5t36 72t16.5 86q1 13 7 17t17 6q6 1 15.5 1h19.5h26t17 -1
q9 -2 15.5 -6t6.5 -19q0 -38 -15 -76t-37 -70t-46.5 -55.5t-42.5 -34.5q-11 -6 -11 -15q0 -8 11 -14q31 -18 59 -42t49 -57.5t33.5 -80t12.5 -109.5q0 -17 -4 -23t-18 -8q-8 -1 -18.5 -1.5t-21.5 -0.5h-17.5t-18.5 1q-16 2 -21.5 6.5t-6.5 24.5q-2 60 -15 106.5t-33.5 78.5
t-48 49t-59.5 17q-23 0 -32.5 -15.5t-9.5 -41.5q0 -36 4 -69t8.5 -60t8.5 -46.5t4 -29.5q0 -18 -20 -20q-9 -1 -19.5 -1h-21.5h-21.5t-20.5 1t-18 6.5t-10 22.5q-5 62 -7.5 132.5t-2.5 145.5z" />
    <glyph glyph-name="l" unicode="l" horiz-adv-x="273" 
d="M99 792q2 16 8 20t16 5t18 1.5t17 0.5q10 0 18.5 -0.5t16.5 -1.5t14 -5t6 -15q0 -6 -3 -36.5t-6.5 -80.5t-6.5 -119.5t-3 -153.5q0 -79 3 -145.5t6.5 -117t6.5 -82.5t3 -43q0 -17 -19 -19q-8 -1 -17.5 -1h-20.5h-22t-21 1t-18 6.5t-10 22.5q-8 62 -11 132t-3 145
q0 124 7 250t21 236z" />
    <glyph glyph-name="m" unicode="m" horiz-adv-x="811" 
d="M51 321q0 57 2.5 120t8.5 134q2 20 10 27t22 9q10 2 18.5 2h19.5q9 0 17 -0.5t14 -1.5q17 -3 17 -17q0 -5 -1 -11t-1 -13q0 -10 11 -10q9 0 22.5 9.5t31.5 21t40.5 21t50.5 9.5q25 0 42 -8.5t29.5 -19t22 -19t19.5 -8.5q11 0 25 8.5t33 19t42 19t52 8.5q89 0 125 -77.5
t36 -224.5q0 -122 -7.5 -194.5t-13.5 -97.5q-4 -15 -13 -20t-19 -7q-6 -1 -13 -1h-15h-17.5t-17.5 1q-15 2 -20.5 9t-5.5 19q0 22 9.5 97.5t9.5 207.5q0 98 -16.5 140.5t-62.5 42.5q-18 0 -36 -7t-32.5 -20.5t-23 -34t-8.5 -47.5q0 -34 1.5 -72t1.5 -77q-1 -60 -4.5 -116
t-11.5 -107q-4 -30 -23 -31q-8 -1 -17.5 -1.5t-19.5 -0.5h-17.5t-16.5 1q-14 2 -17.5 7.5t-3.5 16.5q0 6 2.5 35.5t5 71.5t5 91t2.5 92q0 50 -2 86t-9 60t-20 35.5t-36 11.5q-113 0 -113 -204q0 -58 2 -107t4.5 -86t4.5 -60t2 -29q0 -21 -17 -23q-6 -1 -15.5 -1.5
t-18.5 -0.5h-18t-21 1t-16.5 7.5t-7.5 27.5q-5 62 -9 132t-4 154z" />
    <glyph glyph-name="n" unicode="n" horiz-adv-x="529" 
d="M51 307q0 61 3 128.5t8 139.5q2 20 10.5 26.5t22.5 8.5q8 1 16.5 1h16.5h15t15 -1q20 -1 20 -22q0 -17 11 -17q8 0 21.5 7.5t32 17t41.5 17t51 7.5q37 0 65 -13.5t47 -44.5t28.5 -81t9.5 -122q0 -52 -2.5 -105t-6.5 -99t-7.5 -81t-5.5 -50q-2 -11 -8.5 -17t-15.5 -7
q-7 -1 -15 -1h-17h-22t-21 2q-19 3 -19 20q0 11 3 43t7 79.5t7 107t3 125.5t-14.5 102t-61.5 36q-44 0 -68.5 -18t-36.5 -47t-14.5 -64t-2.5 -70q0 -45 2 -92.5t5 -88t5 -70t2 -37.5q0 -14 -5 -19.5t-18 -7.5q-7 -1 -14.5 -1h-15.5h-19.5t-17.5 1q-11 1 -17.5 6t-8.5 22
q-5 57 -9.5 126.5t-4.5 152.5z" />
    <glyph glyph-name="o" unicode="o" horiz-adv-x="511" 
d="M29 294q0 74 14.5 134t44 103.5t73 67t100.5 23.5q59 0 100.5 -23t68.5 -65.5t39.5 -103t12.5 -136.5q0 -81 -17 -139t-47.5 -94.5t-73.5 -54t-95 -17.5q-51 0 -92 17.5t-69.5 54t-43.5 94.5t-15 139zM145 302q0 -101 25 -152.5t85 -51.5q61 0 86.5 51.5t25.5 152.5
q0 108 -29.5 164t-80.5 56q-55 0 -83.5 -56.5t-28.5 -163.5z" />
    <glyph glyph-name="p" unicode="p" horiz-adv-x="506" 
d="M52 341q0 94 5 149.5t22 85t49.5 38t87.5 8.5q79 0 130.5 -17.5t82 -47.5t42.5 -71t12 -88q0 -68 -16 -124.5t-42 -96.5t-60.5 -62t-72.5 -22q-20 0 -38 9t-32.5 20.5t-25 20.5t-15.5 9q-12 0 -12 -16q0 -24 3 -45t6 -38.5t6 -30t3 -18.5q0 -8 -5 -11.5t-13 -5.5
q-14 -3 -33.5 -6t-30.5 -3t-18.5 4.5t-9.5 22.5q-5 27 -9.5 68.5t-8 88t-5.5 93.5t-2 86zM163 361q0 -50 8 -82.5t22 -51.5t32 -26.5t38 -7.5q27 0 47 16t33.5 44t20 64.5t6.5 78.5q0 69 -34.5 101t-103.5 32q-19 0 -32 -6.5t-21.5 -25t-12 -51.5t-3.5 -85z" />
    <glyph glyph-name="q" unicode="q" horiz-adv-x="499" 
d="M285 622q54 0 86 -9t49 -38.5t22 -86t5 -152.5q0 -32 -2.5 -75t-6 -86.5t-8 -83t-8.5 -64.5q-4 -26 -11 -34.5t-22 -8.5q-11 0 -28.5 1t-32.5 4q-23 4 -23 22q0 9 4 25.5t8.5 35.5t8 38t3.5 33q0 15 -11 13q-7 -1 -18 -12.5t-26.5 -24.5t-36 -23.5t-47.5 -10.5
q-28 0 -57.5 19.5t-53.5 56t-39 90.5t-15 123q0 53 13 98.5t43.5 78.5t80.5 52t123 19zM234 185q18 0 36.5 14.5t33.5 40.5t24.5 63t9.5 83q0 77 -15.5 111t-61.5 34q-56 0 -89.5 -38.5t-33.5 -113.5q0 -30 5.5 -64t17.5 -63t30 -48t43 -19z" />
    <glyph glyph-name="r" unicode="r" horiz-adv-x="312" 
d="M51 304q0 65 1.5 112t4 80t5.5 54t6 33q6 23 19 26q7 2 19 3t25 1q8 0 14 -0.5t12 -1.5q8 -1 10.5 -6.5t2.5 -13.5q1 -17 11 -17q5 0 15 7q25 17 44 27t36 10q12 0 18.5 -10.5t6.5 -41.5q0 -36 -5 -58q-3 -13 -8 -16.5t-11 -3.5q-12 0 -30 2.5t-36 2.5q-9 0 -18 -5.5
t-16 -21t-11 -42.5t-4 -71q0 -61 6 -117.5t13 -100.5t13 -73t6 -37q0 -10 -4 -16t-15 -7q-8 -1 -19 -1.5t-22 -0.5t-22 -0.5t-22 1.5q-21 3 -25 27q-4 19 -8 48t-6.5 64.5t-4 77t-1.5 86.5z" />
    <glyph glyph-name="s" unicode="s" horiz-adv-x="436" 
d="M26 139q0 6 1.5 19.5t5 28t10 25t15.5 10.5t12 -11q7 -24 19 -45.5t30 -38t43 -26t56 -9.5q45 0 65 18t20 49q0 15 -4.5 27.5t-15.5 24.5t-30.5 24.5t-48.5 26.5q-38 18 -68 36t-51 39.5t-32 48.5t-11 64q0 38 13.5 69.5t39 54.5t62.5 35.5t84 12.5q12 0 39 -3t54 -10.5
t48 -20t21 -30.5q0 -6 -4.5 -22t-12 -32t-16 -28.5t-17.5 -12.5q-7 0 -14 7q-23 23 -50.5 37t-62.5 14q-37 0 -57 -17.5t-20 -43.5q0 -15 5 -27t17 -23t31.5 -22t48.5 -26q37 -18 67.5 -36t52.5 -40.5t34 -52t12 -69.5q0 -86 -52 -130.5t-146 -44.5q-47 0 -83 12t-60.5 32
t-37 47.5t-12.5 58.5z" />
    <glyph glyph-name="t" unicode="t" horiz-adv-x="316" 
d="M49 610q10 0 19 -0.5t16 -0.5q14 0 18.5 14t6.5 46q1 15 2.5 24t4.5 14.5t7 9.5t11 8q13 9 28 15t28.5 9.5t24 5.5t14.5 2q8 0 10.5 -4.5t2.5 -9.5q0 -6 -5.5 -20t-11.5 -31t-11 -36t-5 -35q0 -13 17 -13q11 0 31.5 1.5t36.5 1.5q13 0 17 -17q1 -8 1.5 -16.5t0.5 -17.5
q0 -12 -1.5 -23.5t-3.5 -22.5q-3 -12 -15 -12q-14 0 -32 3t-37 3q-12 0 -16 -8t-5 -21q-2 -19 -3.5 -43.5t-1.5 -52.5q0 -40 3.5 -84.5t8.5 -89t12 -87t13 -80.5q1 -5 2 -9t1 -6q0 -11 -13 -18.5t-29.5 -12t-33 -6.5t-24.5 -2q-22 0 -26 14q-7 27 -12.5 61.5t-9.5 73t-6 80
t-2 81.5q0 56 2 103.5t5 75.5q3 25 -18 25q-8 0 -19 -0.5t-18 -0.5q-8 0 -10 3t-4 12q-1 4 -1 16q0 8 0.5 21t3.5 26t9 22t17 9z" />
    <glyph glyph-name="u" unicode="u" horiz-adv-x="539" 
d="M50 275q0 39 2.5 85t5.5 89t6.5 78t5.5 51q4 31 27 32q8 1 18.5 1.5t20.5 0.5t18.5 -0.5t15.5 -1.5q10 -1 14.5 -7t4.5 -15q0 -10 -3.5 -44.5t-8 -82.5t-8 -103.5t-3.5 -106.5q0 -43 5.5 -71.5t16 -45.5t26 -24.5t35.5 -7.5q25 0 42.5 8t31.5 22q24 22 35 61.5t11 111.5
q0 58 -3 106t-7 84t-7 59t-3 31q-1 13 5 18t18 7q6 2 14 2h16h18.5t16.5 -2q14 -1 22.5 -7.5t10.5 -27.5q7 -61 11 -129.5t4 -142.5q0 -63 -4.5 -130.5t-11.5 -139.5q-2 -17 -9.5 -23t-18.5 -8q-7 -1 -15.5 -1h-16.5h-17t-16 1q-10 1 -15 6t-5 17q0 19 -14 19q-12 0 -26 -8
t-31 -18t-38 -18t-47 -8q-43 0 -71.5 17.5t-46 52.5t-25 88t-7.5 125z" />
    <glyph glyph-name="v" unicode="v" horiz-adv-x="464" 
d="M25 455q0 29 1 58.5t5 58.5q2 19 8.5 27.5t27.5 10.5q8 1 18 1.5t20 0.5t18.5 -0.5t15.5 -1.5q16 -2 16 -18q0 -19 -6 -69.5t-6 -127.5q0 -28 3 -64t11 -73.5t23.5 -72t39.5 -58.5q7 -7 13 -7t12 7q24 30 39 67.5t23.5 76.5t11.5 77t3 69q0 29 -2 56.5t-5 50.5t-5 40
t-2 24q0 12 5 16.5t13 5.5q7 2 16.5 2h20.5h19.5t17.5 -2q21 -2 26.5 -10.5t7.5 -30.5q3 -26 3.5 -51t0.5 -49q0 -178 -44.5 -299.5t-138.5 -173.5q-7 -4 -13 -6.5t-13 -2.5q-12 0 -27 9q-46 27 -79 71.5t-55 103.5t-32.5 130.5t-10.5 153.5z" />
    <glyph glyph-name="w" unicode="w" horiz-adv-x="742" 
d="M25 493q0 21 1 43t3 43q1 15 6 22t20 9q9 1 21 1.5t25 0.5q11 0 21.5 -0.5t18.5 -0.5q19 -2 19 -20q0 -5 -2 -23.5t-4 -44t-4 -56t-2 -59.5q0 -79 14.5 -149t46.5 -118q6 -9 13 -9q6 0 12 9q20 30 35 56.5t25 59.5t15 77t5 109q0 17 -1 41t-1.5 47t-1.5 40.5t-1 20.5
q0 14 16 17q10 2 22 3t24 1q14 0 25.5 -1t19.5 -3q6 -2 11 -5t5 -10q0 -5 -1.5 -29t-3 -56.5t-3 -66.5t-1.5 -59q0 -49 5 -82.5t14.5 -59.5t24 -49t32.5 -50q6 -9 12 -9t12 9q20 30 33 68t20.5 80.5t10.5 88t3 89.5q0 19 -0.5 39t-1.5 37.5t-1.5 29.5t-0.5 16q0 11 5 14.5
t13 5.5q17 3 43 3q11 0 21 -1t19 -2q14 -2 20.5 -9t8.5 -25q0 -11 0.5 -23t0.5 -24q0 -126 -19.5 -218t-47.5 -156.5t-60 -104t-58 -59.5q-8 -5 -16 -5q-16 0 -37 21t-41.5 49t-36.5 56t-24 41q-6 10 -13 10q-6 0 -14 -11q-13 -22 -29.5 -46t-35.5 -46t-38 -40t-36 -29
q-8 -5 -14 -5q-4 0 -11 5q-42 31 -72 80t-50 113t-29.5 142t-9.5 167z" />
    <glyph glyph-name="x" unicode="x" horiz-adv-x="471" 
d="M448 26q0 -11 -4 -17.5t-17 -7.5q-7 0 -16 -0.5t-18 -0.5q-14 0 -26 0.5t-20 2.5q-9 1 -14 5.5t-6 15.5q-4 53 -20 104.5t-57 99.5q-6 7 -11 7t-11 -7q-40 -50 -61.5 -101.5t-22.5 -108.5q0 -15 -17 -17q-5 -1 -15 -1h-22h-22t-20 1q-14 2 -18 8.5t-4 21.5q1 50 13 89.5
t30 71.5t40.5 57.5t44.5 46.5q6 6 6 12q0 4 -6 10q-51 51 -83.5 116t-32.5 134q0 20 4.5 29.5t17.5 10.5q8 2 20 2.5t25 0.5q10 0 19 -0.5t14 -1.5q16 -2 16 -17q0 -24 3.5 -51.5t12 -55t22.5 -53.5t34 -47q7 -7 11 -7q6 0 10 7q38 44 56 98.5t18 104.5q0 12 5 16t13 5
t17.5 2t20.5 1h21t20 -2q24 -1 24 -25q0 -85 -33 -148.5t-87 -117.5q-3 -4 -5 -6.5t-2 -5.5q0 -6 5 -10q66 -49 96.5 -116t31.5 -155z" />
    <glyph glyph-name="y" unicode="y" horiz-adv-x="477" 
d="M34 91q2 13 9 16.5t18 3.5q14 0 47 2.5t66.5 10t59 20t25.5 33.5q0 7 -11 12q-52 26 -92 59t-67 78t-40.5 103.5t-13.5 136.5q0 23 4.5 33t21.5 12q8 1 18 1.5t21 0.5q10 0 20 -1t18 -2t13 -4.5t5 -15.5q0 -5 -0.5 -18.5t-0.5 -25.5q0 -73 15.5 -126t38 -86.5t47 -49.5
t43.5 -16q16 0 21 19q9 32 15 85.5t6 110.5q0 16 -1 33t-2 32t-2 26.5t-1 16.5q0 10 5.5 13.5t13.5 5.5q10 2 21 2h22h20t16 -2q15 -2 19.5 -12t4.5 -29q0 -129 -17 -236.5t-61.5 -185t-122 -120.5t-199.5 -43q-14 0 -18.5 6t-6.5 17q-1 7 -1 15v16q0 31 3 53z" />
    <glyph glyph-name="z" unicode="z" horiz-adv-x="416" 
d="M9 37q0 43 16 87.5t40.5 88t54.5 84.5t57.5 75.5t50 61t32.5 41.5q8 8 8 18q0 13 -16 13q-18 0 -40.5 -1t-46.5 -3.5t-47 -5.5t-41 -7q-8 -2 -14.5 -3.5t-11.5 -1.5q-9 0 -14.5 14t-7.5 32t-2.5 35t-0.5 23q0 12 6 16t17 5q35 2 81 3t92 1q42 0 80 -0.5t63 -2.5
q14 -1 20.5 -4t8.5 -17q1 -6 1.5 -16.5t0.5 -21.5q0 -19 -1 -38.5t-6 -27.5q-12 -23 -35 -53t-49.5 -64t-54.5 -68.5t-50.5 -67.5t-37 -61t-14.5 -48t22 -20q65 0 108 13.5t66 27.5q7 3 11.5 5.5t8.5 2.5q12 0 18.5 -17t10 -38.5t4.5 -42.5t1 -29q0 -23 -38 -25
q-17 -1 -58 -1.5t-91 -0.5q-48 0 -94.5 0.5t-79.5 1.5q-11 0 -19.5 8.5t-8.5 28.5z" />
    <glyph glyph-name="braceleft" unicode="{" horiz-adv-x="262" 
d="M23 112q0 38 13 71t29 60t29 47t13 32q0 9 -6 16.5t-13.5 15t-13.5 15t-6 17.5q0 9 6.5 16t14 13.5t14 13t6.5 14.5q0 12 -11 30t-24 43t-24 56t-11 68q0 66 35 105t93 39q32 0 46.5 -8.5t14.5 -16.5q0 -11 -15 -17q-32 -13 -46 -37.5t-14 -60.5q0 -25 9 -48t19.5 -44.5
t19 -42.5t8.5 -43q0 -18 -7.5 -29t-16 -19t-16 -15t-7.5 -18q0 -9 8.5 -15.5t18 -14.5t18 -19.5t8.5 -31.5q0 -18 -11 -41.5t-23.5 -49t-23.5 -52.5t-11 -53q0 -23 6 -38.5t16.5 -25t24.5 -13.5t30 -6q15 -1 15 -15q0 -9 -17.5 -19t-55.5 -10q-65 0 -103.5 35.5t-38.5 95.5z
" />
    <glyph glyph-name="bar" unicode="|" horiz-adv-x="261" 
d="M84 497q0 43 -1 89t-2.5 87.5t-2.5 74.5t-1 50q0 11 4.5 16t16.5 6q9 1 17 1h16h16.5t16.5 -1q13 -2 18 -7t6 -17q5 -84 8.5 -179.5t3.5 -198.5t-2 -209t-8 -212q-1 -23 -22 -25q-8 -1 -18.5 -1h-21.5h-21t-20 1t-17.5 6.5t-7.5 22.5q0 5 1.5 29.5t4 63t5.5 87.5
t5.5 102.5t4 108.5t1.5 105z" />
    <glyph glyph-name="braceright" unicode="}" horiz-adv-x="262" 
d="M24 10q0 14 15 15q32 3 54.5 20t22.5 63q0 26 -11 53t-23.5 52.5t-23.5 49t-11 41.5q0 20 8.5 31.5t18 19.5t18 14.5t8.5 15.5q0 11 -7.5 18t-16 15t-16 19t-7.5 29q0 22 9 43t19.5 42.5t19 44.5t8.5 48q0 36 -14 60.5t-46 37.5q-15 6 -15 17q0 8 14.5 16.5t46.5 8.5
q58 0 93 -39t35 -105q0 -37 -11 -68t-24 -56t-24 -43t-11 -30q0 -8 6.5 -14.5t14 -13t14 -13.5t6.5 -16q0 -10 -6 -17.5t-13.5 -15t-13.5 -15t-6 -16.5q0 -12 13 -32t29 -47t29 -60t13 -71q0 -60 -38.5 -95.5t-103.5 -35.5q-38 0 -55.5 10t-17.5 19z" />
    <glyph glyph-name="asciitilde" unicode="~" horiz-adv-x="445" 
d="M9 379q0 31 8 61t23 54t37.5 39t50.5 15q26 0 53.5 -9.5t54.5 -20.5t51.5 -20.5t44.5 -9.5q52 0 79 56q6 9 11 9q6 0 11 -10t5 -29q0 -34 -7.5 -66.5t-22 -58.5t-35.5 -42t-49 -16q-27 0 -55 13t-56.5 29t-56.5 29t-55 13q-20 0 -33.5 -10.5t-32.5 -33.5q-9 -11 -15 -11
q-11 0 -11 19z" />
    <glyph glyph-name="uni00A0" unicode="&#xa0;" horiz-adv-x="434" 
 />
    <glyph glyph-name="exclamdown" unicode="&#xa1;" horiz-adv-x="230" 
d="M74 516q1 16 8 22.5t29 8.5q7 2 12.5 2h10.5q13 0 18.5 -4.5t7.5 -18.5q11 -67 18 -155.5t9 -183.5q1 -42 1 -81.5t-2 -79.5q-1 -13 -6 -21.5t-24 -10.5q-10 -1 -22 -1.5t-25 -0.5q-15 0 -29 0.5t-27 2.5q-17 3 -17 20q0 8 5.5 33t12 80.5t13 149t7.5 238.5zM117 766
q35 0 55 -18.5t20 -55.5t-20 -57.5t-55 -20.5t-54.5 20.5t-19.5 57.5t19.5 55.5t54.5 18.5z" />
    <glyph glyph-name="cent" unicode="&#xa2;" horiz-adv-x="470" 
d="M202 664q15 4 15 18q0 18 -0.5 34.5t-0.5 27.5t5.5 15t16.5 6q5 1 11 1h12h18.5t17.5 -2q19 -3 19 -17q0 -15 -6.5 -36t-6.5 -34q0 -8 11 -13q115 -50 115 -173q0 -15 -7.5 -29.5t-19 -26t-26 -18.5t-29.5 -7q-13 0 -14 16q-2 28 -4.5 55.5t-9.5 49t-21.5 34.5t-41.5 13
q-50 0 -79 -51.5t-29 -146.5q0 -37 5.5 -70t18 -58t34.5 -39.5t55 -14.5q30 0 51 8.5t36 22.5t25.5 32.5t18.5 37.5q3 8 10 8q9 0 15 -8.5t9.5 -20t4.5 -23t1 -17.5q0 -45 -32 -83.5t-91 -51.5q-11 -2 -14 -5.5t-3 -11.5q1 -20 5.5 -43.5t4.5 -34.5q0 -10 -4 -13.5t-16 -5.5
q-7 -1 -14 -1.5t-15 -0.5t-15 0.5t-14 1.5q-24 3 -24 22q0 16 2.5 37.5t2.5 38.5q0 11 -16 16q-77 23 -115 85t-38 161q0 68 12.5 121t34.5 92.5t52.5 65t66.5 36.5z" />
    <glyph glyph-name="sterling" unicode="&#xa3;" horiz-adv-x="562" 
d="M56 411q8 0 15.5 -0.5t15.5 -0.5q10 0 12.5 7t2.5 15q0 14 -1 34t-1 55q0 55 11.5 101.5t37 80t67 52.5t102.5 19q35 0 63 -7t50 -18.5t39.5 -26t31.5 -30.5q13 -18 13 -30q0 -9 -6.5 -23.5t-16 -28.5t-20.5 -24.5t-21 -10.5q-9 0 -17 12q-27 44 -57.5 62t-62.5 18
q-45 0 -73.5 -38t-28.5 -122q0 -32 0.5 -51.5t3 -29.5t7.5 -13t14 -3q14 0 30.5 1.5t34 3t34 3t29.5 1.5q18 0 25.5 -7.5t7.5 -24.5q0 -10 -1 -22t-3 -22q-2 -14 -10 -18.5t-25 -6.5q-20 0 -42.5 0.5t-56.5 0.5q-12 0 -23 -5t-16 -20q-3 -10 -5.5 -30t-5 -43.5t-3.5 -46.5
t-1 -38q0 -11 7.5 -17t25.5 -6q76 0 121 4.5t72 27.5q18 17 23 41.5t11 53.5q3 15 17 15t23 -14.5t14.5 -33.5t7.5 -38.5t2 -28.5q0 -25 -7.5 -51t-24 -46t-43.5 -33t-67 -13q-8 0 -31 1t-53.5 2.5t-65 2.5t-65.5 1q-26 0 -50 -2t-43 -2q-17 0 -23.5 7.5t-6.5 17.5
q0 5 1 10.5t4 10.5q12 21 22 49.5t17 60.5t11 65t4 62q0 20 -4.5 28t-18.5 8q-12 0 -24.5 -0.5t-20.5 0.5q-14 2 -18 6t-4 18q0 9 1 21t5 22.5t11.5 17.5t19.5 7z" />
    <glyph glyph-name="yen" unicode="&#xa5;" horiz-adv-x="592" 
d="M20 412q4 12 10.5 17t20.5 5q11 0 24.5 -2t21.5 -2q16 0 16 9q0 3 -4 11q-24 49 -39 117t-15 162q0 20 7.5 27t23.5 9q8 1 16 1h17h20.5t17.5 -1q18 -2 22.5 -9t4.5 -21q0 -8 -2.5 -34t-2.5 -62q0 -53 9 -96t23.5 -76t31.5 -56t32 -37q14 -13 27 -13t22 10q13 15 31.5 45
t36 69.5t30 85.5t12.5 92q0 29 -1.5 49.5t-1.5 31.5t6 15t14 5q7 1 15.5 1h17.5h22t20 -1q16 -2 22 -8.5t6 -24.5q0 -70 -13 -122.5t-28 -89t-28 -58t-13 -29.5t15 -8q20 0 40 4t36 4q25 0 25 -25q0 -9 -1.5 -19.5t-3.5 -21.5q-3 -23 -26 -23q-26 0 -54 1.5t-60 2.5
q-21 0 -33 -16q-12 -17 -24 -36.5t-12 -30.5q0 -12 18 -12q24 0 49 1t46 1.5t36 1.5t18 1q18 0 23.5 -8t5.5 -20q0 -9 -1 -20t-4.5 -20t-10.5 -15t-19 -6q-4 0 -19.5 1t-38.5 2t-50 2t-53 1q-22 0 -28 -14.5t-6 -53.5q0 -26 3.5 -47.5t3.5 -32.5q0 -24 -23 -26q-8 -1 -18 -1
h-21h-31t-28 2q-20 1 -25 14t-5 35q0 43 8 69.5t8 43.5q0 12 -17 12q-12 0 -32 -1t-41 -1.5t-40 -1.5t-30 -1q-23 0 -23 20q0 9 1.5 21t6 22.5t11.5 18t19 7.5q19 0 60 -2.5t89 -2.5q21 0 21 11t-15 27.5t-39 40.5q-14 14 -36 14q-33 0 -62 -1.5t-49 -1.5q-23 1 -23 20
q0 11 1.5 23.5t5.5 24.5z" />
    <glyph glyph-name="brokenbar" unicode="&#xa6;" horiz-adv-x="268" 
d="M85 351q1 16 20 18q8 1 18.5 1h24.5h21t17 -2q20 -2 20 -19q0 -77 -3.5 -166.5t-8.5 -181.5q-1 -24 -22 -25q-9 -1 -20.5 -1.5t-23.5 -0.5h-22.5t-22.5 2q-7 1 -14 6t-7 20q0 7 3.5 43.5t7.5 87.5t8 109t4 109zM78 789q0 14 4 20.5t18 8.5q8 1 16 1h16h17.5t16.5 -1
q11 -1 15 -6.5t6 -18.5q9 -78 14 -164.5t5 -169.5q0 -18 -19 -20q-8 -1 -18 -1h-22h-20.5t-17.5 1q-22 1 -22 19q0 48 -1.5 99t-3 97t-3 82t-1.5 53z" />
    <glyph glyph-name="section" unicode="&#xa7;" horiz-adv-x="504" 
d="M283 701q42 0 81 -5t68 -13q14 -4 20 -12t6 -18q0 -5 -1.5 -16.5t-4 -26t-6 -30t-6.5 -27.5q-4 -15 -17 -15q-11 0 -29 4.5t-38 4.5q-22 0 -33.5 -11t-11.5 -27q0 -17 12 -33.5t30 -35t39.5 -40t39.5 -48.5t30 -62t12 -79q0 -52 -16 -94t-46 -71.5t-72 -45t-93 -15.5
q-61 0 -102 16.5t-66 40.5t-35.5 51t-10.5 48q0 26 23 26q15 0 31 -6.5t43 -6.5q40 1 40 30q0 16 -11 32t-27 34t-35 39.5t-35 49t-27 61t-11 76.5q0 58 20 100.5t55 70t82 41t102 13.5zM113 478q0 -47 23 -82t51 -66t51 -62.5t23 -72.5q0 -34 -18 -56t-59 -24
q-15 -2 -15 -17q0 -7 7 -13t18 -9.5t24 -5.5t25 -2q28 0 52.5 10.5t43 29t29.5 45t11 59.5q0 37 -11.5 65.5t-29 53t-38 45.5t-38 41.5t-29 42.5t-11.5 48q0 28 18.5 52t57.5 32q10 3 15 9.5t5 13.5t-5 12t-18 5q-83 0 -132.5 -39.5t-49.5 -114.5z" />
    <glyph glyph-name="dieresis" unicode="&#xa8;" horiz-adv-x="292" 
d="M230 842q31 0 48 -18.5t17 -52.5q0 -33 -17 -50t-48 -17t-48.5 17t-17.5 50q0 34 17.5 52.5t48.5 18.5zM0 771q0 33 17.5 51.5t47.5 18.5q31 0 48 -18.5t17 -51.5q0 -34 -17 -50.5t-48 -16.5q-30 0 -47.5 16.5t-17.5 50.5z" />
    <glyph glyph-name="copyright" unicode="&#xa9;" horiz-adv-x="757" 
d="M378 830q91 0 158.5 -33t112 -90t66.5 -134t22 -165q0 -86 -22 -163t-66.5 -134.5t-112 -91.5t-158.5 -34q-90 0 -157.5 34t-112 91.5t-66.5 134.5t-22 163q0 88 22 165t66.5 134t112 90t157.5 33zM378 65q73 0 127 26.5t90 73.5t54 112t18 143q0 76 -18 140t-54 110
t-90 71.5t-127 25.5t-127 -27.5t-90 -75t-53.5 -110.5t-17.5 -134q0 -78 17.5 -143t53.5 -112t90 -73.5t127 -26.5zM389 687q40 0 69 -12.5t48 -34t28 -50.5t9 -61q0 -15 -6.5 -29t-17 -25.5t-24.5 -18t-28 -6.5q-8 0 -12.5 3t-5.5 12q-2 21 -4.5 44.5t-8.5 43t-17.5 32
t-32.5 12.5q-45 0 -70.5 -46.5t-25.5 -128.5q0 -32 4.5 -61.5t16 -52.5t30.5 -37t47 -14q27 0 46 9.5t33.5 25t25 34.5t19.5 38q4 8 13 8q11 0 19.5 -19t8.5 -40q0 -33 -11 -61.5t-33 -50t-54 -34t-73 -12.5q-100 0 -149.5 64t-49.5 183q0 142 56.5 213.5t149.5 71.5z" />
    <glyph glyph-name="ordfeminine" unicode="&#xaa;" horiz-adv-x="349" 
d="M200 607q26 4 26 22q0 26 -13.5 40t-45.5 14q-27 0 -50.5 -12.5t-46.5 -29.5q-7 -5 -11 -5q-6 0 -11 6t-8 14t-5 16.5t-2 12.5q0 32 37.5 55.5t102.5 23.5q80 0 111.5 -40t31.5 -115q0 -42 -1.5 -84t-1.5 -74q0 -28 2.5 -55.5t2.5 -34.5q0 -17 -16 -20q-7 -1 -22.5 -2
t-34 -2t-37 -1.5t-31.5 -0.5q-154 0 -154 123q0 35 13.5 60.5t37 43.5t56 29t70.5 16zM36 249q4 12 9 16t16 5q17 2 40 2h47q40 0 79.5 -1t65.5 -3q14 -1 19.5 -7.5t5.5 -17.5q0 -9 -2 -23t-6 -27q-5 -19 -27 -20q-14 -1 -31 -1h-36h-46t-46.5 0.5t-42 1.5t-33.5 2
q-20 2 -20 20q0 9 1.5 22.5t6.5 30.5zM191 417q23 0 29 7.5t6 21.5v72q0 14 -3 19t-12 5q-42 0 -69.5 -19.5t-27.5 -54.5q0 -29 19 -40t58 -11z" />
    <glyph glyph-name="guillemotleft" unicode="&#xab;" horiz-adv-x="511" 
d="M26 345q0 13 8 24q45 63 104.5 127.5t122.5 116.5q8 7 19 7q8 0 13 -4t5 -11t-5 -15.5t-11 -16.5q-19 -27 -40.5 -59.5t-39.5 -64.5t-29.5 -60t-11.5 -46q0 -17 9.5 -41t24.5 -51t33 -55.5t35 -53.5q11 -17 17 -27t6 -16q0 -15 -18 -15q-9 0 -19 7q-22 20 -51 49
t-58 61.5t-57 64.5t-49 57q-8 10 -8 22zM246 373q45 65 101 125.5t111 115.5q8 8 17 8q8 0 13 -5t5 -12t-6 -15.5t-11 -16.5q-19 -27 -40 -57.5t-39 -60t-29.5 -54.5t-11.5 -42q0 -20 10 -46.5t26 -56.5t35.5 -60.5t38.5 -57.5q11 -17 17 -25.5t6 -17.5q0 -16 -20 -16
q-9 0 -18 6q-21 19 -46.5 46t-52.5 58t-54.5 65t-52.5 66q-9 12 -9 24q0 13 10 29z" />
    <glyph glyph-name="registered" unicode="&#xae;" horiz-adv-x="757" 
d="M378 830q91 0 158.5 -33t112 -90t66.5 -134t22 -165q0 -86 -22 -163t-66.5 -134.5t-112 -91.5t-158.5 -34q-90 0 -157.5 34t-112 91.5t-66.5 134.5t-22 163q0 88 22 165t66.5 134t112 90t157.5 33zM378 71q71 0 123.5 26t87.5 72t52.5 110.5t17.5 140.5t-17.5 140
t-52.5 110t-87.5 71.5t-123.5 25.5t-123.5 -27.5t-87.5 -75t-52 -110.5t-17 -134q0 -76 17 -140.5t52 -110.5t87.5 -72t123.5 -26zM250 396q0 60 1.5 103.5t4 73.5t5.5 49t6 30q6 19 18 23q5 2 19.5 3.5t27.5 1.5h11.5t9.5 -1q8 -2 11.5 -7.5t3.5 -22.5q2 -18 12 -18
q6 0 15 11q17 20 34.5 31t37.5 11q27 0 44 -21.5t17 -56.5q0 -32 -11.5 -54.5t-22.5 -33.5q-7 -7 -14 -7q-8 0 -13 12q-3 6 -5.5 14t-7 14.5t-12 11t-18.5 4.5q-32 0 -47.5 -34t-15.5 -112q0 -40 4.5 -82t10 -77.5t10 -60t4.5 -30.5q0 -16 -20 -17q-8 -1 -18 -1.5t-21 -0.5
h-19t-20 1q-20 2 -24 20q-7 32 -12.5 92.5t-5.5 130.5z" />
    <glyph glyph-name="macron" unicode="&#xaf;" horiz-adv-x="322" 
d="M1 770v12t1 12q2 12 8 16t18 5q19 2 43.5 2h51.5q45 0 90.5 -0.5t74.5 -2.5q24 -2 29 -13t5 -31v-12.5t-2 -14.5q-2 -13 -8.5 -17.5t-23.5 -6.5q-20 -2 -44.5 -2.5t-50.5 -0.5q-43 0 -86 1.5t-73 3.5q-17 2 -23.5 7t-8.5 16q-1 5 -1 12v14z" />
    <glyph glyph-name="degree" unicode="&#xb0;" horiz-adv-x="386" 
d="M28 606q0 79 45 123.5t121 44.5q80 0 122.5 -44.5t42.5 -123.5q0 -78 -42.5 -118.5t-122.5 -40.5q-76 0 -121 40.5t-45 118.5zM112 606q0 -36 22.5 -57t59.5 -21q39 0 60 21t21 57q0 41 -21 63t-60 22q-37 0 -59.5 -22t-22.5 -63z" />
    <glyph glyph-name="twosuperior" unicode="&#xb2;" horiz-adv-x="374" 
d="M30 696q0 5 1.5 9.5t6.5 7.5q33 22 72.5 40.5t90.5 18.5q61 0 101 -30.5t40 -93.5q0 -31 -10.5 -53t-29.5 -38.5t-44.5 -29.5t-54.5 -26q-41 -20 -56 -34.5t-15 -37.5q0 -6 5 -9t20 -3q43 0 69.5 1.5t41.5 7t22 16t11 29.5q3 8 10 8q8 0 14 -9.5t10.5 -22t6.5 -24.5
t2 -18q0 -15 -4 -28.5t-14 -24t-26 -17t-39 -6.5q-26 0 -66 2.5t-77 2.5q-17 0 -31.5 -1.5t-24.5 -1.5q-19 0 -25.5 15t-6.5 47t10 58t28.5 47.5t44 39t55.5 32.5q38 19 56.5 36t18.5 37q0 18 -12.5 28.5t-33.5 10.5q-26 0 -52 -12t-61 -40q-4 -6 -10 -6t-13.5 9.5t-14 21.5
t-11.5 24t-5 17z" />
    <glyph glyph-name="threesuperior" unicode="&#xb3;" horiz-adv-x="342" 
d="M18 394q0 6 4.5 18t11.5 23.5t14 20.5t11 9q5 0 8 -3l8 -8q18 -20 39.5 -31.5t46.5 -11.5q28 0 42 14.5t14 34.5q0 30 -30.5 48.5t-85.5 36.5q-8 3 -8 9q0 4 4 8q8 8 24 24.5t33 34.5t29.5 34t12.5 21q0 7 -8 7q-29 0 -53 -4t-41.5 -8.5t-29 -8.5t-15.5 -4q-9 0 -10 8
q-6 20 -10 42.5t-5 42.5q0 5 5 8t10 3q23 2 53 3t62 1q41 0 81.5 -1.5t73.5 -4.5q16 -3 16 -13q0 -9 -4 -22.5t-16 -33t-33.5 -46t-56.5 -61.5q-5 -5 -5 -9t6 -7q18 -9 36 -18.5t33 -23t24.5 -32.5t9.5 -47q0 -24 -10 -46t-29 -39.5t-47 -28t-64 -10.5t-64 8t-47.5 19.5
t-29.5 23.5t-10 20z" />
    <glyph glyph-name="acute" unicode="&#xb4;" horiz-adv-x="265" 
d="M2 689q0 3 2.5 7t8.5 7q25 12 44.5 29t35 38t28.5 45.5t25 52.5q4 8 9 11t13 3q14 0 37 -3.5t42 -8.5q11 -3 15 -8t4 -13q0 -18 -17.5 -47t-48 -57.5t-72.5 -49t-92 -20.5q-7 0 -20.5 2t-13.5 12z" />
    <glyph glyph-name="paragraph" unicode="&#xb6;" horiz-adv-x="610" 
d="M9 495q0 60 14 109.5t42.5 85t72 55t102.5 19.5q21 0 40 -5t26 -25q8 -23 14.5 -58t11.5 -77.5t8 -90t3 -97.5q0 -58 -4 -115t-15 -108q-3 -14 -9.5 -22.5t-25.5 -8.5q-48 0 -97.5 21t-90 63t-66.5 105.5t-26 148.5zM341 -11q0 10 8 42t17 83t17 120t8 152q0 81 -5.5 143
t-12 107t-12 72t-5.5 37q0 16 19 19q17 2 37 2.5t43 0.5q28 0 56 -1.5t50 -3.5q14 -1 24.5 -13.5t10.5 -51.5q0 -31 -5 -40t-15 -9q-11 0 -25.5 4t-28.5 4q-25 0 -25 -24q0 -5 2 -25t4 -50.5t4 -70t2 -83.5q0 -67 -2.5 -132.5t-6 -120t-8 -94t-8.5 -55.5t-10 -22t-18 -7
q-13 -1 -24.5 -1.5t-22.5 -0.5t-22.5 0.5t-24.5 1.5q-21 1 -21 17z" />
    <glyph glyph-name="periodcentered" unicode="&#xb7;" horiz-adv-x="199" 
d="M25 350q0 37 20 57.5t55 20.5t54.5 -20.5t19.5 -57.5t-19.5 -55.5t-54.5 -18.5t-55 18.5t-20 55.5z" />
    <glyph glyph-name="cedilla" unicode="&#xb8;" horiz-adv-x="244" 
d="M14 -27q19 14 30 24t16 16.5t6.5 10t1.5 6.5q0 6 -6 9.5t-24 10.5l94 28q2 -1 10 -5.5t17 -9.5t16.5 -9.5t8.5 -5.5q-11 -3 -15.5 -7t-6.5 -11q-26 -60 -50.5 -90t-51.5 -30q-7 0 -19 1.5t-24 5.5t-21 10t-9 15q0 8 7 14.5t20 16.5z" />
    <glyph glyph-name="onesuperior" unicode="&#xb9;" horiz-adv-x="247" 
d="M18 686q0 12 17 26t39 26t44.5 19.5t32.5 7.5q11 0 18.5 -5.5t7.5 -18.5q0 -7 -0.5 -25t-1.5 -43t-1.5 -55t-0.5 -61q0 -27 1.5 -55t3 -54.5t3 -49.5t1.5 -41q0 -13 -4.5 -18t-22.5 -7h-70q-9 1 -14 5.5t-5 15.5q0 32 3 80t3 101q0 29 -2.5 50t-8 36.5t-14 27t-20.5 21.5
q-9 8 -9 17z" />
    <glyph glyph-name="ordmasculine" unicode="&#xba;" horiz-adv-x="363" 
d="M186 760q41 0 70 -15.5t48 -44.5t27.5 -70.5t8.5 -93.5q0 -56 -12 -95.5t-33.5 -65t-51.5 -37.5t-66 -12q-70 0 -111.5 49t-41.5 161q0 50 10 91.5t30.5 71t51 45.5t70.5 16zM181 414q37 0 52 32t15 97q0 69 -17.5 103.5t-48.5 34.5q-32 0 -49 -35t-17 -103q0 -65 15 -97
t50 -32zM29 196q0 9 1.5 22.5t6.5 30.5q3 12 8.5 16t16.5 5q20 2 47 2h56q40 0 79.5 -1t65.5 -3q25 -1 25 -25q0 -9 -2 -23t-6 -27q-5 -19 -27 -20q-14 -1 -31 -1h-36q-49 0 -100.5 1t-83.5 3q-20 2 -20 20z" />
    <glyph glyph-name="guillemotright" unicode="&#xbb;" horiz-adv-x="511" 
d="M238 93q0 7 5 15.5t11 16.5q20 27 41 59.5t39 64.5t29.5 60t11.5 46q0 17 -9.5 41t-24.5 51t-33 55.5t-35 53.5q-11 17 -17 27t-6 16q0 15 18 15q9 0 19 -7q23 -20 51.5 -49t57.5 -61.5t57 -64t49 -57.5q8 -10 8 -22q0 -13 -8 -24q-45 -63 -104.5 -127.5t-122.5 -116.5
q-8 -7 -19 -7q-8 0 -13 4t-5 11zM60 125q18 28 39 58.5t39 59.5t30 54t12 42q0 20 -10 46.5t-26 56.5t-35.5 60.5t-38.5 57.5q-11 17 -17 25.5t-6 17.5q0 16 20 16q9 0 18 -6q21 -19 46.5 -46t52.5 -58t54.5 -65t52.5 -66q9 -12 9 -24q0 -13 -10 -29q-42 -66 -99.5 -126
t-112.5 -115q-8 -8 -17 -8q-8 0 -13 5t-5 12t6 15.5t11 16.5z" />
    <glyph glyph-name="onequarter" unicode="&#xbc;" horiz-adv-x="752" 
d="M389 97q0 39 9.5 85.5t23 91.5t28.5 84t27 63q10 18 25 19q10 1 21 1h22q13 0 23.5 0.5t17.5 -1.5q14 -3 14 -11q0 -5 -4 -10q-26 -34 -47 -72t-35.5 -73t-22.5 -63.5t-8 -45.5q0 -8 8 -8q29 0 45 0.5t24 2.5t10 6t3 11q5 47 6 76t6 47q4 8 7.5 14t9.5 11q10 9 29 22
t32 13q10 0 10 -12q0 -3 -1.5 -18.5t-3.5 -39t-3.5 -52t-1.5 -56.5q0 -10 3 -12.5t10 -2.5h33q18 0 21 -18q1 -6 1.5 -12.5t0.5 -15.5v-10t-1 -12q-1 -18 -16 -18q-11 0 -20.5 0.5t-17.5 0.5q-11 0 -11 -15q0 -2 1.5 -18t1.5 -35q0 -6 -4 -10.5t-12 -5.5h-72q-10 1 -13 4
t-3 13q0 11 1.5 24.5t1.5 26.5q0 14 -14 14q-12 0 -31.5 -0.5t-40.5 -1t-40.5 -1t-32.5 -0.5q-11 0 -15.5 6t-4.5 14zM186 765q11 0 18.5 -5.5t7.5 -18.5q0 -7 -0.5 -25t-1.5 -43t-1.5 -55t-0.5 -61q0 -27 1.5 -55t3 -54.5t3 -49.5t1.5 -41q0 -13 -4.5 -18t-22.5 -7h-70
q-9 1 -14 5.5t-5 15.5q0 32 3 80t3 101q0 29 -2.5 50t-8 36.5t-14 27t-20.5 21.5q-9 8 -9 17q0 12 16.5 26t39 26t44.5 19.5t33 7.5zM513 743q6 10 14 16.5t23 6.5q6 0 22.5 -3t33.5 -8.5t30 -13.5t13 -17t-7 -16q-25 -25 -55.5 -63t-64.5 -78t-69 -76.5t-68 -58.5
q-6 -4 -13 -4q-5 0 -9.5 3.5t-4.5 10.5q0 11 8.5 33t27 58t48 87.5t71.5 122.5zM35 59q23 26 53 62t64 74t68 73t64 57q7 5 13 5t10.5 -3.5t4.5 -11.5q0 -10 -14.5 -43.5t-36.5 -77t-47.5 -89.5t-48.5 -81q-7 -11 -15 -17.5t-22 -6.5q-7 0 -18.5 2.5t-24 6.5t-23.5 7.5
t-16 6.5q-18 8 -18 19q0 7 7 17z" />
    <glyph glyph-name="onehalf" unicode="&#xbd;" horiz-adv-x="762" 
d="M586 172q-41 -20 -56 -34.5t-15 -37.5q0 -6 5 -9t20 -3q43 0 69.5 1.5t41.5 7t22 16t11 29.5q3 8 10 8q8 0 14 -9.5t10.5 -22t6.5 -24.5t2 -18q0 -15 -4 -28.5t-14 -24t-26 -17t-39 -6.5q-26 0 -66 2.5t-77 2.5q-17 0 -31.5 -1.5t-24.5 -1.5q-19 0 -25.5 15t-6.5 47
t10 58t28.5 47.5t44 39t55.5 32.5q38 19 56.5 36t18.5 37q0 18 -12.5 28.5t-33.5 10.5q-26 0 -52 -12t-61 -40q-4 -6 -10 -6t-13.5 9.5t-14 21.5t-11.5 24t-5 17q0 9 8 17q28 28 70 43.5t93 15.5q61 0 101 -30.5t40 -93.5q0 -31 -10.5 -53t-29.5 -38.5t-44.5 -29.5
t-54.5 -26zM120 332q-9 1 -14 5.5t-5 15.5q0 32 3 80t3 101q0 58 -10.5 87t-34.5 48q-9 8 -9 17q0 14 16.5 28t38.5 25t44 18.5t34 7.5q11 0 18.5 -5.5t7.5 -18.5q0 -7 -0.5 -25t-1.5 -43t-1.5 -55t-0.5 -61q0 -27 1.5 -55t3 -54.5t3 -49.5t1.5 -41q0 -13 -4.5 -18t-22.5 -7
h-70zM165 24q-7 -11 -15 -17.5t-22 -6.5q-7 0 -18.5 2.5t-24 6.5t-23.5 7.5t-16 6.5q-18 8 -18 19q0 7 7 17q23 26 54 61t65 72t68 72.5t62 60.5q7 5 13 5t10.5 -3.5t4.5 -11.5q0 -10 -14.5 -43.5t-36.5 -77t-48 -89.5t-48 -81zM513 743q6 10 14 16.5t23 6.5q6 0 22.5 -3
t33.5 -8.5t30 -13.5t13 -17t-7 -16q-25 -25 -56.5 -61.5t-66 -75.5t-69.5 -76t-65 -63q-6 -4 -13 -4q-5 0 -9.5 3.5t-4.5 10.5q0 11 8.5 33t27 58t48 87.5t71.5 122.5z" />
    <glyph glyph-name="threequarters" unicode="&#xbe;" horiz-adv-x="764" 
d="M177 323q-36 0 -64 8t-47.5 19.5t-29.5 23.5t-10 20q0 6 4.5 18t11 23.5t13.5 20.5t12 9t8 -3l8 -8q18 -20 39.5 -31.5t46.5 -11.5q28 0 42 14.5t14 34.5q0 15 -8 26t-23 20.5t-36.5 18.5t-48.5 20q-8 3 -8 9q0 4 4 8q8 8 24 24.5t33 34.5t29.5 34t12.5 21q0 7 -8 7
q-29 0 -53 -4t-41.5 -8.5t-29 -8.5t-15.5 -4q-9 0 -10 8q-6 20 -10 42.5t-5 42.5q0 5 5 8t10 3q23 2 53 3t62 1q41 0 81.5 -1.5t73.5 -4.5q16 -3 16 -13q0 -9 -5 -22t-17 -32.5t-33.5 -46t-54.5 -62.5q-5 -5 -5 -9q0 -5 6 -7q19 -5 37.5 -14t33 -23.5t23.5 -35t9 -48.5
q0 -24 -10 -46t-29 -39.5t-47 -28t-64 -10.5zM196 24q-7 -11 -15 -17.5t-22 -6.5q-7 0 -18.5 2.5t-24 6.5t-23.5 7.5t-16 6.5q-18 8 -18 19q0 7 7 17q23 26 54 61t65 72t68 72.5t62 60.5q7 5 13 5t10.5 -3.5t4.5 -11.5q0 -10 -14.5 -43.5t-36.5 -77t-48 -89.5t-48 -81z
M544 743q6 10 14 16.5t23 6.5q6 0 22.5 -3t33.5 -8.5t30 -13.5t13 -17t-7 -16q-25 -25 -56.5 -61.5t-66 -75.5t-69.5 -76t-65 -63q-6 -4 -13 -4q-5 0 -9.5 3.5t-4.5 10.5q0 11 8.5 33t27 58t48 87.5t71.5 122.5zM680 67q0 -2 1.5 -18t1.5 -35q0 -6 -4 -10.5t-12 -5.5h-72
q-10 1 -13 4t-3 13q0 11 1.5 24.5t1.5 26.5q0 14 -14 14q-12 0 -31.5 -0.5t-40.5 -1t-40.5 -1t-32.5 -0.5q-11 0 -15.5 6t-4.5 14q0 39 9.5 85.5t23 91.5t28.5 84t27 63q10 18 25 19q10 1 21 1h22h23.5t17.5 -1q14 -1 14 -11q0 -2 -4 -10q-19 -38 -39 -76.5t-36.5 -72.5
t-27 -61t-10.5 -44q0 -8 8 -8q29 0 45 0.5t24 2.5t10 6t3 11q5 47 6 76t6 47q5 9 13.5 19.5t19.5 19.5t23 15t22 6t10 -12q0 -3 -1.5 -18.5t-3.5 -39t-3.5 -52t-1.5 -56.5q0 -10 3 -12.5t10 -2.5h33q18 0 21 -18q1 -6 1.5 -12.5t0.5 -15.5v-10t-1 -12q-1 -18 -16 -18
q-11 0 -20.5 0.5t-17.5 0.5q-11 0 -11 -15z" />
    <glyph glyph-name="questiondown" unicode="&#xbf;" horiz-adv-x="491" 
d="M18 190q0 48 16 84t40 64t52 49t52 39.5t40 36t16 38.5q0 13 -6.5 19.5t-14.5 10.5t-14.5 6.5t-6.5 8.5q0 11 15 19t45 8q45 0 65.5 -21t20.5 -57q0 -32 -14.5 -58t-36.5 -48t-47.5 -43t-47.5 -42t-36.5 -45t-14.5 -53q0 -46 28 -77t88 -31q54 0 85.5 29.5t34.5 75.5
q1 18 -1 30.5t-5 21.5t-5.5 15.5t-1.5 12.5q3 15 23 15q13 0 28.5 -6.5t28.5 -20.5t21.5 -36t8.5 -54q0 -40 -15.5 -74.5t-44.5 -60.5t-71.5 -41t-96.5 -15q-60 0 -103 15.5t-71 42.5t-41 63.5t-13 78.5zM262 779q35 0 55 -18.5t20 -55.5t-20 -57.5t-55 -20.5t-54.5 20.5
t-19.5 57.5t19.5 55.5t54.5 18.5z" />
    <glyph glyph-name="Agrave" unicode="&#xc0;" horiz-adv-x="628" 
d="M48 179q0 82 11 164t39 158.5t75.5 145t120.5 122.5q8 5 13 7t11 2q13 0 23 -9q65 -57 110 -121t73.5 -136.5t41.5 -155t13 -176.5q0 -37 -1 -75.5t-7 -81.5q-2 -11 -8.5 -15.5t-18.5 -5.5q-10 -1 -21 -1.5t-22 -0.5q-14 0 -25 0.5t-19 1.5q-15 4 -15 20q0 20 8 52.5
t8 78.5q0 45 -26.5 64t-84.5 19q-36 0 -68.5 -7t-57 -20.5t-39.5 -34.5t-15 -49q0 -30 8.5 -56.5t8.5 -45.5q2 -18 -13 -21q-18 -3 -48 -3h-20.5t-19.5 1q-12 1 -18 5t-8 18q-9 77 -9 156zM185 294q7 0 21 5.5t33.5 12t45.5 12t57 5.5q35 0 55.5 -1.5t32.5 -0.5q11 1 14 6
t3 16q0 38 -10 79t-26 79t-36.5 70.5t-42.5 54.5q-10 10 -15 10q-6 0 -17 -10q-31 -27 -54.5 -68t-39.5 -86.5t-24 -90t-8 -79.5q0 -14 11 -14zM164 1009q19 5 42 8.5t37 3.5q17 0 22 -14q21 -57 51.5 -98.5t81.5 -66.5q6 -3 8.5 -7t2.5 -7q0 -10 -13.5 -12t-20.5 -2
q-49 0 -91.5 20.5t-73 49t-48 57.5t-17.5 47q0 8 4 13t15 8z" />
    <glyph glyph-name="Aacute" unicode="&#xc1;" horiz-adv-x="628" 
d="M48 179q0 82 11 164t39 158.5t75.5 145t120.5 122.5q8 5 13 7t11 2q13 0 23 -9q65 -57 110 -121t73.5 -136.5t41.5 -155t13 -176.5q0 -37 -1 -75.5t-7 -81.5q-2 -11 -8.5 -15.5t-18.5 -5.5q-10 -1 -21 -1.5t-22 -0.5q-14 0 -25 0.5t-19 1.5q-15 4 -15 20q0 20 8 52.5
t8 78.5q0 45 -26.5 64t-84.5 19q-36 0 -68.5 -7t-57 -20.5t-39.5 -34.5t-15 -49q0 -30 8.5 -56.5t8.5 -45.5q2 -18 -13 -21q-18 -3 -48 -3h-20.5t-19.5 1q-12 1 -18 5t-8 18q-9 77 -9 156zM174 308q0 -14 11 -14q7 0 21 5.5t33.5 12t45.5 12t57 5.5q35 0 55.5 -1.5
t32.5 -0.5q11 1 14 6t3 16q0 38 -10 79t-26 79t-36.5 70.5t-42.5 54.5q-10 10 -15 10q-6 0 -17 -10q-31 -27 -54.5 -68t-39.5 -86.5t-24 -90t-8 -79.5zM216 828q0 3 2.5 7t8.5 7q25 12 44.5 29t35 38t28.5 45.5t25 52.5q4 8 9 11t13 3q14 0 37 -3.5t42 -8.5q11 -3 15 -8
t4 -13q0 -18 -17.5 -47t-48 -57.5t-72.5 -49t-92 -20.5q-7 0 -20.5 2t-13.5 12z" />
    <glyph glyph-name="Acircumflex" unicode="&#xc2;" horiz-adv-x="628" 
d="M48 179q0 82 11 164t39 158.5t75.5 145t120.5 122.5q8 5 13 7t11 2q13 0 23 -9q65 -57 110 -121t73.5 -136.5t41.5 -155t13 -176.5q0 -37 -1 -75.5t-7 -81.5q-2 -11 -8.5 -15.5t-18.5 -5.5q-10 -1 -21 -1.5t-22 -0.5q-14 0 -25 0.5t-19 1.5q-15 4 -15 20q0 20 8 52.5
t8 78.5q0 45 -26.5 64t-84.5 19q-36 0 -68.5 -7t-57 -20.5t-39.5 -34.5t-15 -49q0 -30 8.5 -56.5t8.5 -45.5q2 -18 -13 -21q-18 -3 -48 -3h-20.5t-19.5 1q-12 1 -18 5t-8 18q-9 77 -9 156zM185 294q7 0 21 5.5t33.5 12t45.5 12t57 5.5q35 0 55.5 -1.5t32.5 -0.5q11 1 14 6
t3 16q0 38 -10 79t-26 79t-36.5 70.5t-42.5 54.5q-10 10 -15 10q-6 0 -17 -10q-31 -27 -54.5 -68t-39.5 -86.5t-24 -90t-8 -79.5q0 -14 11 -14zM148 843q0 13 18 38t42 51t47.5 48.5t34.5 31.5q12 9 23 9q14 0 38 -21.5t49 -49.5t46 -55.5t28 -39.5q2 -4 3 -7t1 -6
q0 -6 -12 -14q-10 -5 -21.5 -9t-22.5 -4q-10 0 -20 11q-23 26 -38.5 41.5t-25 23.5t-15.5 10.5t-10 2.5t-9.5 -3t-15.5 -11t-25.5 -23.5l-40.5 -40.5q-5 -5 -9.5 -8t-10.5 -3q-9 0 -21 4t-22 9q-11 7 -11 15z" />
    <glyph glyph-name="Atilde" unicode="&#xc3;" horiz-adv-x="628" 
d="M294 769q8 5 13 7t11 2q13 0 23 -9q65 -57 110 -121t73.5 -136.5t41.5 -155t13 -176.5q0 -37 -1 -75.5t-7 -81.5q-2 -11 -8.5 -15.5t-18.5 -5.5q-10 -1 -21 -1.5t-22 -0.5q-14 0 -25 0.5t-19 1.5q-15 4 -15 20q0 20 8 52.5t8 78.5q0 45 -26.5 64t-84.5 19q-36 0 -68.5 -7
t-57 -20.5t-39.5 -34.5t-15 -49q0 -30 8.5 -56.5t8.5 -45.5q2 -18 -13 -21q-18 -3 -48 -3h-20.5t-19.5 1q-12 1 -18 5t-8 18q-9 77 -9 156q0 82 11 164t39 158.5t75.5 145t120.5 122.5zM174 308q0 -14 11 -14q7 0 21 5.5t33.5 12t45.5 12t57 5.5q35 0 55.5 -1.5t32.5 -0.5
q11 1 14 6t3 16q0 38 -10 79t-26 79t-36.5 70.5t-42.5 54.5q-10 10 -15 10q-6 0 -17 -10q-31 -27 -54.5 -68t-39.5 -86.5t-24 -90t-8 -79.5zM235 976q21 0 43.5 -6.5t45 -14t43 -14t36.5 -6.5q22 0 37 10.5t28 27.5q5 6 9 6q13 0 13 -26q0 -23 -6 -45t-18 -39.5t-29.5 -28.5
t-40.5 -11q-22 0 -45.5 9t-46.5 19.5t-46 19.5t-45 9q-17 0 -28 -7t-27 -23q-7 -7 -12 -7q-9 0 -9 13q0 21 6.5 41t19 36.5t30.5 26.5t42 10z" />
    <glyph glyph-name="Adieresis" unicode="&#xc4;" horiz-adv-x="628" 
d="M48 179q0 82 11 164t39 158.5t75.5 145t120.5 122.5q8 5 13 7t11 2q13 0 23 -9q65 -57 110 -121t73.5 -136.5t41.5 -155t13 -176.5q0 -37 -1 -75.5t-7 -81.5q-2 -11 -8.5 -15.5t-18.5 -5.5q-10 -1 -21 -1.5t-22 -0.5q-14 0 -25 0.5t-19 1.5q-15 4 -15 20q0 20 8 52.5
t8 78.5q0 45 -26.5 64t-84.5 19q-36 0 -68.5 -7t-57 -20.5t-39.5 -34.5t-15 -49q0 -30 8.5 -56.5t8.5 -45.5q2 -18 -13 -21q-18 -3 -48 -3h-20.5t-19.5 1q-12 1 -18 5t-8 18q-9 77 -9 156zM185 294q7 0 21 5.5t33.5 12t45.5 12t57 5.5q35 0 55.5 -1.5t32.5 -0.5q11 1 14 6
t3 16q0 38 -10 79t-26 79t-36.5 70.5t-42.5 54.5q-10 10 -15 10q-6 0 -17 -10q-31 -27 -54.5 -68t-39.5 -86.5t-24 -90t-8 -79.5q0 -14 11 -14zM332 910q0 34 17.5 52.5t48.5 18.5t48 -18.5t17 -52.5q0 -33 -17 -50t-48 -17t-48.5 17t-17.5 50zM168 910q0 33 17.5 51.5
t47.5 18.5q31 0 48 -18.5t17 -51.5q0 -34 -17 -50.5t-48 -16.5q-30 0 -47.5 16.5t-17.5 50.5z" />
    <glyph glyph-name="Aring" unicode="&#xc5;" horiz-adv-x="628" 
d="M48 179q0 82 11 164t39 158.5t75.5 145t120.5 122.5q8 5 13 7t11 2q13 0 23 -9q65 -57 110 -121t73.5 -136.5t41.5 -155t13 -176.5q0 -37 -1 -75.5t-7 -81.5q-2 -11 -8.5 -15.5t-18.5 -5.5q-10 -1 -21 -1.5t-22 -0.5q-14 0 -25 0.5t-19 1.5q-15 4 -15 20q0 20 8 52.5
t8 78.5q0 45 -26.5 64t-84.5 19q-36 0 -68.5 -7t-57 -20.5t-39.5 -34.5t-15 -49q0 -30 8.5 -56.5t8.5 -45.5q2 -18 -13 -21q-18 -3 -48 -3h-20.5t-19.5 1q-12 1 -18 5t-8 18q-9 77 -9 156zM174 308q0 -14 11 -14q7 0 21 5.5t33.5 12t45.5 12t57 5.5q35 0 55.5 -1.5
t32.5 -0.5q11 1 14 6t3 16q0 38 -10 79t-26 79t-36.5 70.5t-42.5 54.5q-10 10 -15 10q-6 0 -17 -10q-31 -27 -54.5 -68t-39.5 -86.5t-24 -90t-8 -79.5zM313 1031q60 0 92.5 -28.5t32.5 -82.5q0 -51 -32.5 -78t-92.5 -27q-57 0 -90.5 27t-33.5 78q0 54 33.5 82.5t90.5 28.5z
M260 921q0 -22 14 -33.5t39 -11.5q55 0 55 45q0 48 -55 48q-25 0 -39 -12.5t-14 -35.5z" />
    <glyph glyph-name="AE" unicode="&#xc6;" horiz-adv-x="944" 
d="M60 181q0 68 6 132t21 122.5t41 109t66 91.5q27 28 62.5 52t84 42t114.5 28t154 10h82t79.5 -1t72 -2t59.5 -3q19 -1 19 -14q0 -5 -2.5 -16.5t-6.5 -25t-8.5 -27.5t-8.5 -24q-5 -11 -16 -11q-4 0 -9 1.5t-11 3.5q-26 7 -68.5 14.5t-105.5 7.5q-38 0 -56.5 -6t-25.5 -22
q-6 -10 -9.5 -30t-5 -45t-1.5 -52.5t1 -51.5q5 -16 15 -20t30 -4q24 0 59 7t85 6q30 0 51.5 -7t21.5 -22q0 -6 -1.5 -15.5t-4 -20t-5.5 -21t-6 -18.5q-4 -10 -7.5 -12.5t-9.5 -2.5t-17.5 3t-27 6t-34.5 6t-39 3q-68 0 -97.5 -24t-29.5 -90q0 -45 3 -72t11 -41.5t22.5 -18.5
t37.5 -4q75 0 134 10.5t96 22.5q12 4 19 4q10 0 16 -15.5t9.5 -35.5t4.5 -38.5t1 -25.5q0 -21 -26 -23q-47 -3 -97.5 -3.5t-101.5 -0.5h-54.5t-61 0.5t-59 1t-48.5 1.5q-14 1 -20.5 5.5t-6.5 16.5q0 20 4 53.5t4 77.5q0 45 -26 64t-84 19q-34 0 -64.5 -6.5t-53.5 -20.5
t-37 -34.5t-14 -49.5q0 -30 7.5 -56.5t9.5 -45.5q2 -18 -13 -21q-18 -3 -48 -3h-20.5t-19.5 1q-11 1 -17.5 5t-8.5 18q-9 78 -9 158zM183 308q0 -14 12 -14q6 0 19 5.5t31 12t42 12t53 5.5q40 1 63.5 -3t37.5 -4q11 0 13.5 5.5t2.5 16.5q0 61 3.5 108t7.5 81t7 56.5t2 35.5
q-1 9 -6.5 15.5t-19.5 6.5q-53 0 -101.5 -27t-85.5 -73t-59 -108t-22 -131z" />
    <glyph glyph-name="Ccedilla" unicode="&#xc7;" horiz-adv-x="562" 
d="M32 353q0 90 18.5 168t54 135.5t88 90.5t120.5 33q59 0 100 -23t66.5 -59.5t37 -81.5t11.5 -89q0 -16 -6.5 -28t-22.5 -22q-4 -5 -14 -10.5t-21 -10.5t-21.5 -8.5t-16.5 -3.5q-14 0 -14 17q0 8 0.5 17.5t0.5 17.5q0 31 -5 62.5t-17.5 57.5t-33 42.5t-51.5 16.5
q-34 0 -61.5 -22t-46.5 -61.5t-29 -94t-10 -120.5q0 -108 36.5 -163t118.5 -55q71 0 114.5 40t63.5 107q5 11 14 11q14 0 24 -18.5t10 -56.5q0 -33 -10 -64t-31 -56.5t-54 -45t-79 -30.5q-17 -4 -21 -17q-26 -60 -50.5 -89t-51.5 -29q-7 0 -19 1.5t-24 5.5t-21 10t-9 15
q0 8 6.5 14t20.5 16q19 14 30 23.5t16 15.5t6.5 9.5t1.5 6.5q0 7 -5.5 11t-23.5 9q-92 23 -141 99.5t-49 205.5z" />
    <glyph glyph-name="Egrave" unicode="&#xc8;" horiz-adv-x="554" 
d="M59 184q0 67 2 137.5t8 141.5t15.5 140.5t24.5 132.5q6 26 27 27q24 2 68.5 3.5t94.5 1.5q60 0 117.5 -2t93.5 -4q19 -1 19 -14q0 -5 -2.5 -16.5t-6 -25t-8 -27.5t-8.5 -24q-5 -11 -16 -11q-5 0 -10.5 2t-13.5 4q-25 8 -65.5 14.5t-105.5 6.5q-30 0 -45.5 -4.5
t-24.5 -15.5q-8 -9 -14 -29t-10 -45.5t-6 -53t-2 -53.5q0 -19 6.5 -26t21.5 -7q26 0 65 8.5t93 8.5q34 0 58 -6.5t24 -22.5q0 -6 -1.5 -15.5t-4 -20.5t-5.5 -22t-6 -19q-4 -9 -8 -11.5t-10 -2.5t-17 3t-26.5 6t-34 6t-39.5 3q-69 0 -98 -24.5t-29 -89.5q0 -46 3 -73t11 -41
t22.5 -18t37.5 -4q73 0 131.5 10.5t96.5 21.5q8 2 11.5 3.5t8.5 1.5q10 0 16 -15.5t9.5 -35.5t4.5 -38.5t1 -25.5q0 -21 -26 -23q-46 -3 -96 -3.5t-101 -0.5q-60 0 -115 0.5t-98 2.5q-17 1 -25.5 6t-9.5 23q-3 72 -3 155zM149 980q0 8 4 13t15 8q19 5 42 8.5t37 3.5
q17 0 22 -14q21 -57 51.5 -98.5t81.5 -66.5q6 -3 8.5 -7t2.5 -7q0 -10 -13.5 -12t-20.5 -2q-49 0 -91.5 20.5t-73 49t-48 57.5t-17.5 47z" />
    <glyph glyph-name="Eacute" unicode="&#xc9;" horiz-adv-x="554" 
d="M59 184q0 67 2 137.5t8 141.5t15.5 140.5t24.5 132.5q6 26 27 27q24 2 68.5 3.5t94.5 1.5q60 0 117.5 -2t93.5 -4q19 -1 19 -14q0 -5 -2.5 -16.5t-6 -25t-8 -27.5t-8.5 -24q-5 -11 -16 -11q-5 0 -10.5 2t-13.5 4q-25 8 -65.5 14.5t-105.5 6.5q-30 0 -45.5 -4.5
t-24.5 -15.5q-8 -9 -14 -29t-10 -45.5t-6 -53t-2 -53.5q0 -19 6.5 -26t21.5 -7q26 0 65 8.5t93 8.5q34 0 58 -6.5t24 -22.5q0 -6 -1.5 -15.5t-4 -20.5t-5.5 -22t-6 -19q-4 -9 -8 -11.5t-10 -2.5t-17 3t-26.5 6t-34 6t-39.5 3q-69 0 -98 -24.5t-29 -89.5q0 -46 3 -73t11 -41
t22.5 -18t37.5 -4q73 0 131.5 10.5t96.5 21.5q8 2 11.5 3.5t8.5 1.5q10 0 16 -15.5t9.5 -35.5t4.5 -38.5t1 -25.5q0 -21 -26 -23q-46 -3 -96 -3.5t-101 -0.5q-60 0 -115 0.5t-98 2.5q-17 1 -25.5 6t-9.5 23q-3 72 -3 155zM231 834q49 28 78.5 68.5t54.5 96.5q4 8 9 11t13 3
q14 0 37 -3.5t42 -8.5q11 -3 15 -8t4 -13q0 -18 -17.5 -47t-48 -57.5t-72.5 -49t-92 -20.5q-7 0 -20.5 2t-13.5 12q0 3 2.5 7t8.5 7z" />
    <glyph glyph-name="Ecircumflex" unicode="&#xca;" horiz-adv-x="554" 
d="M59 184q0 67 2 137.5t8 141.5t15.5 140.5t24.5 132.5q6 26 27 27q24 2 68.5 3.5t94.5 1.5q60 0 117.5 -2t93.5 -4q19 -1 19 -14q0 -5 -2.5 -16.5t-6 -25t-8 -27.5t-8.5 -24q-5 -11 -16 -11q-5 0 -10.5 2t-13.5 4q-25 8 -65.5 14.5t-105.5 6.5q-30 0 -45.5 -4.5
t-24.5 -15.5q-8 -9 -14 -29t-10 -45.5t-6 -53t-2 -53.5q0 -19 6.5 -26t21.5 -7q26 0 65 8.5t93 8.5q34 0 58 -6.5t24 -22.5q0 -6 -1.5 -15.5t-4 -20.5t-5.5 -22t-6 -19q-4 -9 -8 -11.5t-10 -2.5t-17 3t-26.5 6t-34 6t-39.5 3q-69 0 -98 -24.5t-29 -89.5q0 -46 3 -73t11 -41
t22.5 -18t37.5 -4q73 0 131.5 10.5t96.5 21.5q8 2 11.5 3.5t8.5 1.5q10 0 16 -15.5t9.5 -35.5t4.5 -38.5t1 -25.5q0 -21 -26 -23q-46 -3 -96 -3.5t-101 -0.5q-60 0 -115 0.5t-98 2.5q-17 1 -25.5 6t-9.5 23q-3 72 -3 155zM153 835q0 13 18 38t42 51t47.5 48.5t34.5 31.5
q12 9 23 9q14 0 38 -21.5t49 -49.5t46 -55.5t28 -39.5q2 -4 3 -7t1 -6q0 -6 -12 -14q-10 -5 -21.5 -9t-22.5 -4q-10 0 -20 11q-23 26 -38.5 41.5t-25 23.5t-15.5 10.5t-10 2.5t-9.5 -3t-15.5 -11t-25.5 -23.5l-40.5 -40.5q-5 -5 -9.5 -8t-10.5 -3q-9 0 -21 4t-22 9
q-11 7 -11 15z" />
    <glyph glyph-name="Edieresis" unicode="&#xcb;" horiz-adv-x="554" 
d="M109 736q6 26 27 27q24 2 68.5 3.5t94.5 1.5q60 0 117.5 -2t93.5 -4q19 -1 19 -14q0 -5 -2.5 -16.5t-6 -25t-8 -27.5t-8.5 -24q-5 -11 -16 -11q-5 0 -10.5 2t-13.5 4q-25 8 -65.5 14.5t-105.5 6.5q-30 0 -45.5 -4.5t-24.5 -15.5q-8 -9 -14 -29t-10 -45.5t-6 -53t-2 -53.5
q0 -19 6.5 -26t21.5 -7q26 0 65 8.5t93 8.5q34 0 58 -6.5t24 -22.5q0 -6 -1.5 -15.5t-4 -20.5t-5.5 -22t-6 -19q-4 -9 -8 -11.5t-10 -2.5t-17 3t-26.5 6t-34 6t-39.5 3q-69 0 -98 -24.5t-29 -89.5q0 -46 3 -73t11 -41t22.5 -18t37.5 -4q73 0 131.5 10.5t96.5 21.5
q8 2 11.5 3.5t8.5 1.5q10 0 16 -15.5t9.5 -35.5t4.5 -38.5t1 -25.5q0 -21 -26 -23q-46 -3 -96 -3.5t-101 -0.5q-60 0 -115 0.5t-98 2.5q-17 1 -25.5 6t-9.5 23q-3 72 -3 155q0 67 2.5 137.5t8.5 141.5t15.5 140t23.5 133zM402 973q31 0 48 -18.5t17 -52.5q0 -33 -17 -50
t-48 -17t-48.5 17t-17.5 50q0 34 17.5 52.5t48.5 18.5zM237 972q31 0 48 -18.5t17 -51.5q0 -34 -17 -50.5t-48 -16.5q-30 0 -47.5 16.5t-17.5 50.5q0 33 17.5 51.5t47.5 18.5z" />
    <glyph glyph-name="Igrave" unicode="&#xcc;" horiz-adv-x="271" 
d="M64 327q0 171 12 275t20 136q2 14 8 19t16 7q10 1 21 1.5t23 0.5q13 0 25.5 -0.5t24.5 -1.5q7 -2 9.5 -5t2.5 -11q0 -10 -6 -38.5t-12.5 -75.5t-12.5 -112t-6 -148q0 -73 4.5 -135t9.5 -108.5t9.5 -75.5t4.5 -37q0 -9 -3.5 -12.5t-11.5 -4.5q-12 -2 -24 -2h-26h-25t-24 2
q-8 2 -12.5 5.5t-7.5 13.5q-4 15 -8 46.5t-6 73.5t-3.5 90.5t-1.5 96.5zM10 1000q19 5 42 8.5t37 3.5q17 0 22 -14q21 -57 51.5 -98.5t81.5 -66.5q6 -3 8.5 -7t2.5 -7q0 -10 -13.5 -12t-20.5 -2q-49 0 -91.5 20.5t-73 49t-48 57.5t-17.5 47q0 8 4 13t15 8z" />
    <glyph glyph-name="Iacute" unicode="&#xcd;" horiz-adv-x="271" 
d="M64 327q0 171 12 275t20 136q2 14 8 19t16 7q10 1 21 1.5t23 0.5q13 0 25.5 -0.5t24.5 -1.5q7 -2 9.5 -5t2.5 -11q0 -10 -6 -38.5t-12.5 -75.5t-12.5 -112t-6 -148q0 -73 4.5 -135t9.5 -108.5t9.5 -75.5t4.5 -37q0 -9 -3.5 -12.5t-11.5 -4.5q-12 -2 -24 -2h-26h-25t-24 2
q-8 2 -12.5 5.5t-7.5 13.5q-4 15 -8 46.5t-6 73.5t-3.5 90.5t-1.5 96.5zM73 833q49 28 78.5 68.5t54.5 96.5q4 8 9 11t13 3q14 0 37 -3.5t42 -8.5q11 -3 15 -8t4 -13q0 -18 -17.5 -47t-48 -57.5t-72.5 -49t-92 -20.5q-7 0 -20.5 2t-13.5 12q0 3 2.5 7t8.5 7z" />
    <glyph glyph-name="Icircumflex" unicode="&#xce;" horiz-adv-x="271" 
d="M64 327q0 171 12 275t20 136q2 14 8 19t16 7q10 1 21 1.5t23 0.5q13 0 25.5 -0.5t24.5 -1.5q7 -2 9.5 -5t2.5 -11q0 -10 -6 -38.5t-12.5 -75.5t-12.5 -112t-6 -148q0 -73 4.5 -135t9.5 -108.5t9.5 -75.5t4.5 -37q0 -9 -3.5 -12.5t-11.5 -4.5q-12 -2 -24 -2h-26h-25t-24 2
q-8 2 -12.5 5.5t-7.5 13.5q-4 15 -8 46.5t-6 73.5t-3.5 90.5t-1.5 96.5zM-5 834q0 13 18 38t42 51t47.5 48.5t34.5 31.5q12 9 23 9q14 0 38 -21.5t49 -49.5t46 -55.5t28 -39.5q2 -4 3 -7t1 -6q0 -6 -12 -14q-10 -5 -21.5 -9t-22.5 -4q-10 0 -20 11q-23 26 -38.5 41.5
t-25 23.5t-15.5 10.5t-10 2.5t-9.5 -3t-15.5 -11t-25.5 -23.5l-40.5 -40.5q-5 -5 -9.5 -8t-10.5 -3q-9 0 -21 4t-22 9q-11 7 -11 15z" />
    <glyph glyph-name="Idieresis" unicode="&#xcf;" horiz-adv-x="271" 
d="M64 327q0 171 12 275t20 136q2 14 8 19t16 7q10 1 21 1.5t23 0.5q13 0 25.5 -0.5t24.5 -1.5q7 -2 9.5 -5t2.5 -11q0 -10 -6 -38.5t-12.5 -75.5t-12.5 -112t-6 -148q0 -73 4.5 -135t9.5 -108.5t9.5 -75.5t4.5 -37q0 -9 -3.5 -12.5t-11.5 -4.5q-12 -2 -24 -2h-26h-25t-24 2
q-8 2 -12.5 5.5t-7.5 13.5q-4 15 -8 46.5t-6 73.5t-3.5 90.5t-1.5 96.5zM244 972q31 0 48 -18.5t17 -52.5q0 -33 -17 -50t-48 -17t-48.5 17t-17.5 50q0 34 17.5 52.5t48.5 18.5zM14 901q0 33 17.5 51.5t47.5 18.5q31 0 48 -18.5t17 -51.5q0 -34 -17 -50.5t-48 -16.5
q-30 0 -47.5 16.5t-17.5 50.5z" />
    <glyph glyph-name="Eth" unicode="&#xd0;" horiz-adv-x="646" 
d="M-1 374q0 9 0.5 15.5t1.5 14.5q2 12 9 16t24 4q14 1 22 4.5t10 14.5q4 107 12 178.5t19 117.5q3 12 9 17t14 6q20 2 42 2.5t45 0.5q93 0 166 -23t123.5 -75.5t76.5 -137t26 -206.5q0 -71 -17.5 -131t-56 -103t-100 -67t-149.5 -24q-66 0 -105 0.5t-53 1.5q-23 1 -30 15
q-5 11 -9.5 31.5t-8 56t-5.5 86.5t-2 121q0 8 -5.5 12t-25.5 4q-17 0 -23 2.5t-8 11.5q-2 8 -2 16.5v17.5zM212 119q10 -9 22.5 -12t25.5 -3q109 0 163.5 57t54.5 179q0 81 -16.5 140.5t-46.5 98.5t-71.5 57.5t-91.5 18.5q-22 0 -35 -13q-8 -8 -14.5 -27.5t-11 -46
t-6.5 -59.5t-2 -68q0 -19 20 -19h52.5t54.5 -2q20 -1 21 -16q1 -8 1.5 -16.5t0.5 -17.5t-0.5 -17.5t-1.5 -16.5q-1 -10 -5.5 -14.5t-18.5 -4.5q-5 0 -17 1t-26.5 2.5t-30 2.5t-28.5 1q-11 0 -16.5 -5.5t-5.5 -22.5q0 -66 6 -113t23 -64z" />
    <glyph glyph-name="Ntilde" unicode="&#xd1;" horiz-adv-x="685" 
d="M61 359q0 65 2 126t6 111.5t10 88t13 55.5q8 20 28 24q8 2 18 2h20t19.5 -0.5t17.5 -1.5q15 -1 26 -17q23 -31 57 -84t72.5 -123.5t77.5 -156t71 -181.5q3 -8 10 -8q11 0 11 15q0 113 -7 206t-16 162t-16 112t-7 57q0 17 17 19q8 1 19.5 1.5t23.5 0.5q11 0 22.5 -0.5
t19.5 -1.5q11 -1 17.5 -6t8.5 -17q6 -35 10.5 -79t7.5 -93.5t4 -103t1 -107.5q0 -93 -3 -180t-13 -150q-2 -15 -9 -21t-23 -8q-8 -1 -20 -1h-24h-18.5t-15.5 1q-14 2 -20 7t-11 20q-66 156 -132.5 293.5t-125.5 243.5q-7 13 -14 13q-11 0 -13 -19q-4 -106 0 -201t11 -168
t13 -118t6 -52q0 -17 -22 -19q-8 -1 -19 -1.5t-22 -0.5q-12 0 -23 0.5t-19 1.5q-23 2 -26 21q-11 77 -16 164.5t-5 173.5zM265 968q21 0 43.5 -6.5t45 -14t43 -14t36.5 -6.5q22 0 37 10.5t28 27.5q5 6 9 6q13 0 13 -26q0 -23 -6 -45t-18 -39.5t-29.5 -28.5t-40.5 -11
q-22 0 -45.5 9t-46.5 19.5t-46 19.5t-45 9q-17 0 -28 -7t-27 -23q-7 -7 -12 -7q-9 0 -9 13q0 21 6.5 41t19 36.5t30.5 26.5t42 10z" />
    <glyph glyph-name="Ograve" unicode="&#xd2;" 
d="M308 780q68 0 119.5 -41t86 -109t52 -155.5t17.5 -180.5q0 -66 -13.5 -122.5t-45 -98t-84 -65t-130.5 -23.5q-79 0 -132 23.5t-85.5 65t-46 98t-13.5 122.5q0 93 17.5 180.5t52.5 155.5t86.5 109t118.5 41zM309 105q74 0 113 48.5t39 159.5q0 70 -11 133.5t-31.5 112
t-48.5 77.5t-62 29q-35 0 -63.5 -29.5t-48 -78.5t-30 -112t-10.5 -129q0 -114 40 -162.5t113 -48.5zM137 990q0 8 4 13t15 8q19 5 42 8.5t37 3.5q17 0 22 -14q21 -57 51.5 -98.5t81.5 -66.5q6 -3 8.5 -7t2.5 -7q0 -10 -13.5 -12t-20.5 -2q-49 0 -91.5 20.5t-73 49t-48 57.5
t-17.5 47z" />
    <glyph glyph-name="Oacute" unicode="&#xd3;" 
d="M308 780q68 0 119.5 -41t86 -109t52 -155.5t17.5 -180.5q0 -66 -13.5 -122.5t-45 -98t-84 -65t-130.5 -23.5q-79 0 -132 23.5t-85.5 65t-46 98t-13.5 122.5q0 93 17.5 180.5t52.5 155.5t86.5 109t118.5 41zM309 105q74 0 113 48.5t39 159.5q0 70 -11 133.5t-31.5 112
t-48.5 77.5t-62 29q-35 0 -63.5 -29.5t-48 -78.5t-30 -112t-10.5 -129q0 -114 40 -162.5t113 -48.5zM219 844q49 28 78.5 68.5t54.5 96.5q4 8 9 11t13 3q14 0 37 -3.5t42 -8.5q11 -3 15 -8t4 -13q0 -18 -17.5 -47t-48 -57.5t-72.5 -49t-92 -20.5q-7 0 -20.5 2t-13.5 12
q0 3 2.5 7t8.5 7z" />
    <glyph glyph-name="Ocircumflex" unicode="&#xd4;" 
d="M308 780q68 0 119.5 -41t86 -109t52 -155.5t17.5 -180.5q0 -66 -13.5 -122.5t-45 -98t-84 -65t-130.5 -23.5q-79 0 -132 23.5t-85.5 65t-46 98t-13.5 122.5q0 93 17.5 180.5t52.5 155.5t86.5 109t118.5 41zM156 316q0 -114 40 -162.5t113 -48.5q74 0 113 48.5t39 159.5
q0 70 -11 133.5t-31.5 112t-48.5 77.5t-62 29q-35 0 -63.5 -29.5t-48 -78.5t-30 -112t-10.5 -129zM141 845q0 13 18 38t42 51t47.5 48.5t34.5 31.5q12 9 23 9q14 0 38 -21.5t49 -49.5t46 -55.5t28 -39.5q2 -4 3 -7t1 -6q0 -6 -12 -14q-10 -5 -21.5 -9t-22.5 -4q-10 0 -20 11
q-23 26 -38.5 41.5t-25 23.5t-15.5 10.5t-10 2.5t-9.5 -3t-15.5 -11t-25.5 -23.5l-40.5 -40.5q-5 -5 -9.5 -8t-10.5 -3q-9 0 -21 4t-22 9q-11 7 -11 15z" />
    <glyph glyph-name="Otilde" unicode="&#xd5;" 
d="M308 780q68 0 119.5 -41t86 -109t52 -155.5t17.5 -180.5q0 -66 -13.5 -122.5t-45 -98t-84 -65t-130.5 -23.5q-79 0 -132 23.5t-85.5 65t-46 98t-13.5 122.5q0 93 17.5 180.5t52.5 155.5t86.5 109t118.5 41zM309 105q74 0 113 48.5t39 159.5q0 70 -11 133.5t-31.5 112
t-48.5 77.5t-62 29q-35 0 -63.5 -29.5t-48 -78.5t-30 -112t-10.5 -129q0 -114 40 -162.5t113 -48.5zM228 978q21 0 43.5 -6.5t45 -14t43 -14t36.5 -6.5q22 0 37 10.5t28 27.5q5 6 9 6q13 0 13 -26q0 -23 -6 -45t-18 -39.5t-29.5 -28.5t-40.5 -11q-22 0 -45.5 9t-46.5 19.5
t-46 19.5t-45 9q-17 0 -28 -7t-27 -23q-7 -7 -12 -7q-9 0 -9 13q0 21 6.5 41t19 36.5t30.5 26.5t42 10z" />
    <glyph glyph-name="Odieresis" unicode="&#xd6;" 
d="M308 780q68 0 119.5 -41t86 -109t52 -155.5t17.5 -180.5q0 -66 -13.5 -122.5t-45 -98t-84 -65t-130.5 -23.5q-79 0 -132 23.5t-85.5 65t-46 98t-13.5 122.5q0 93 17.5 180.5t52.5 155.5t86.5 109t118.5 41zM156 316q0 -114 40 -162.5t113 -48.5q74 0 113 48.5t39 159.5
q0 70 -11 133.5t-31.5 112t-48.5 77.5t-62 29q-35 0 -63.5 -29.5t-48 -78.5t-30 -112t-10.5 -129zM324 912q0 34 17.5 52.5t48.5 18.5t48 -18.5t17 -52.5q0 -33 -17 -50t-48 -17t-48.5 17t-17.5 50zM225 982q31 0 48 -18.5t17 -51.5q0 -34 -17 -50.5t-48 -16.5
q-30 0 -47.5 16.5t-17.5 50.5q0 33 17.5 51.5t47.5 18.5z" />
    <glyph glyph-name="multiply" unicode="&#xd7;" horiz-adv-x="499" 
d="M235 272q-32 -35 -58 -70t-53 -64q-9 -9 -20 -9q-5 0 -17 9t-25 21.5t-22.5 25.5t-9.5 20q0 9 8 17q31 31 63.5 58t61.5 58q8 8 8 16q0 9 -7 16q-32 32 -62.5 61.5t-58.5 57.5q-8 8 -8 18q0 6 9 18t21 24.5t24.5 22t19.5 9.5t14 -9q27 -32 53 -67t57 -70q8 -8 15 -8
q10 0 17 9q29 35 55.5 67.5t49.5 64.5q7 8 16 8q6 0 18 -8t24 -19t21.5 -23t9.5 -20q0 -10 -8 -18q-27 -27 -57.5 -56t-61.5 -61q-7 -8 -7 -17t9 -18q29 -29 61 -55t62 -52q9 -9 9 -17q0 -6 -9.5 -19t-22 -26.5t-25.5 -23.5t-21 -10t-17 10q-24 29 -49 61.5t-54 65.5
q-7 10 -17 10q-8 0 -16 -8z" />
    <glyph glyph-name="Oslash" unicode="&#xd8;" horiz-adv-x="616" 
d="M12 31q0 9 10 22q8 10 17 20t17 23q6 9 6 21q0 8 -3 17q-12 35 -19 75t-7 85q0 93 17.5 180.5t52.5 155t86.5 108.5t118.5 41q51 0 91.5 -24t74.5 -65q8 -9 14 -9q7 0 13 9q12 17 21.5 29.5t14.5 19.5q11 15 25 15q6 0 14 -2.5t15.5 -7t13 -10.5t5.5 -13q0 -8 -7 -18
q-12 -17 -28 -40t-35 -49q-7 -10 -7 -22q0 -7 3 -15q25 -62 36 -134t11 -149q0 -66 -13.5 -122.5t-45 -98t-84 -65t-130.5 -23.5q-56 0 -97.5 13t-74.5 33q-7 4 -13 4q-7 0 -16 -9q-6 -6 -9.5 -12t-7.5 -12q-9 -15 -22 -15q-5 0 -15 4.5t-19.5 11t-16.5 14.5t-7 14zM148 332
v-18.5t1.5 -30t4.5 -27.5t9 -12q7 0 14 9q30 36 59.5 76.5t59 81.5t58 80.5t55.5 73.5q6 8 6 18q0 8 -8 23.5t-22 32t-33.5 28.5t-43.5 12q-37 0 -66.5 -29t-50.5 -77.5t-32 -111t-11 -129.5zM196 135q0 -7 7 -14q20 -20 46.5 -28.5t59.5 -8.5q78 0 119 51t41 169q0 9 -1 36
t-4 56.5t-8 52.5t-13 23q-4 0 -10 -7q-29 -37 -59.5 -77t-59.5 -80.5t-57 -79t-53 -73.5q-8 -11 -8 -20z" />
    <glyph glyph-name="Ugrave" unicode="&#xd9;" horiz-adv-x="610" 
d="M47 338q0 80 5 147t11.5 119t13.5 87.5t11 52.5q2 9 7.5 13.5t11.5 5.5q9 1 21 1h25h23t21 -1q8 -1 12.5 -6t3.5 -14q-1 -16 -7.5 -53t-14 -89t-13 -115t-5.5 -132t9 -116.5t26 -77t42 -43t58 -13.5q35 0 60 13t41 42.5t23 77t7 116.5q0 77 -4 141.5t-8.5 114t-9 83
t-6.5 49.5q-1 9 1.5 14t12.5 7q17 3 38 3h24.5t20.5 -2q17 -3 21 -16q9 -29 21.5 -130t12.5 -273q0 -81 -12 -146.5t-42 -112t-80 -71.5t-125 -25q-130 0 -193.5 86t-63.5 263zM136 978q0 8 4 13t15 8q19 5 42 8.5t37 3.5q17 0 22 -14q21 -57 51.5 -98.5t81.5 -66.5
q6 -3 8.5 -7t2.5 -7q0 -10 -13.5 -12t-20.5 -2q-49 0 -91.5 20.5t-73 49t-48 57.5t-17.5 47z" />
    <glyph glyph-name="Uacute" unicode="&#xda;" horiz-adv-x="610" 
d="M88 744q2 9 7.5 13.5t11.5 5.5q9 1 21 1h25h23t21 -1q8 -1 12.5 -6t3.5 -14q-1 -16 -7.5 -53t-14 -89t-13 -115t-5.5 -132t9 -116.5t26 -77t42 -43t58 -13.5q35 0 60 13t41 42.5t23 77t7 116.5q0 77 -4 141.5t-8.5 114t-9 83t-6.5 49.5q-1 9 1.5 14t12.5 7q17 3 38 3
h24.5t20.5 -2q17 -3 21 -16q9 -29 21.5 -130t12.5 -273q0 -81 -12 -146.5t-42 -112t-80 -71.5t-125 -25q-130 0 -193.5 86t-63.5 263q0 80 5 147t11.5 119t13.5 87.5t11 52.5zM218 832q49 28 78.5 68.5t54.5 96.5q4 8 9 11t13 3q14 0 37 -3.5t42 -8.5q11 -3 15 -8t4 -13
q0 -18 -17.5 -47t-48 -57.5t-72.5 -49t-92 -20.5q-7 0 -20.5 2t-13.5 12q0 3 2.5 7t8.5 7z" />
    <glyph glyph-name="Ucircumflex" unicode="&#xdb;" horiz-adv-x="610" 
d="M47 338q0 80 5 147t11.5 119t13.5 87.5t11 52.5q2 9 7.5 13.5t11.5 5.5q9 1 21 1h25h23t21 -1q8 -1 12.5 -6t3.5 -14q-1 -16 -7.5 -53t-14 -89t-13 -115t-5.5 -132t9 -116.5t26 -77t42 -43t58 -13.5q35 0 60 13t41 42.5t23 77t7 116.5q0 77 -4 141.5t-8.5 114t-9 83
t-6.5 49.5q-1 9 1.5 14t12.5 7q17 3 38 3h24.5t20.5 -2q17 -3 21 -16q9 -29 21.5 -130t12.5 -273q0 -81 -12 -146.5t-42 -112t-80 -71.5t-125 -25q-130 0 -193.5 86t-63.5 263zM140 833q0 13 18 38t42 51t47.5 48.5t34.5 31.5q12 9 23 9q14 0 38 -21.5t49 -49.5t46 -55.5
t28 -39.5q2 -4 3 -7t1 -6q0 -6 -12 -14q-10 -5 -21.5 -9t-22.5 -4q-10 0 -20 11q-23 26 -38.5 41.5t-25 23.5t-15.5 10.5t-10 2.5t-9.5 -3t-15.5 -11t-25.5 -23.5l-40.5 -40.5q-5 -5 -9.5 -8t-10.5 -3q-9 0 -21 4t-22 9q-11 7 -11 15z" />
    <glyph glyph-name="Udieresis" unicode="&#xdc;" horiz-adv-x="610" 
d="M47 338q0 80 5 147t11.5 119t13.5 87.5t11 52.5q2 9 7.5 13.5t11.5 5.5q9 1 21 1h25h23t21 -1q8 -1 12.5 -6t3.5 -14q-1 -16 -7.5 -53t-14 -89t-13 -115t-5.5 -132t9 -116.5t26 -77t42 -43t58 -13.5q35 0 60 13t41 42.5t23 77t7 116.5q0 77 -4 141.5t-8.5 114t-9 83
t-6.5 49.5q-1 9 1.5 14t12.5 7q17 3 38 3h24.5t20.5 -2q17 -3 21 -16q9 -29 21.5 -130t12.5 -273q0 -81 -12 -146.5t-42 -112t-80 -71.5t-125 -25q-130 0 -193.5 86t-63.5 263zM323 900q0 34 17.5 52.5t48.5 18.5t48 -18.5t17 -52.5q0 -33 -17 -50t-48 -17t-48.5 17
t-17.5 50zM224 970q31 0 48 -18.5t17 -51.5q0 -34 -17 -50.5t-48 -16.5q-30 0 -47.5 16.5t-17.5 50.5q0 33 17.5 51.5t47.5 18.5z" />
    <glyph glyph-name="Yacute" unicode="&#xdd;" horiz-adv-x="589" 
d="M58 765q10 1 21 1.5t22 0.5t21.5 -0.5t19.5 -1.5q20 -2 23.5 -9.5t3.5 -21.5q-1 -10 -3 -33t-2 -49q0 -54 11 -97.5t27.5 -77.5t36 -57.5t35.5 -38.5q16 -14 26 -14q12 0 22 10q18 18 37 52t34.5 76t25.5 88.5t10 89.5q0 23 -1 38t-1 23q0 11 5 15.5t14 5.5q7 1 15.5 1
h19.5q14 0 27 -0.5t22 -1.5q16 -2 20.5 -8.5t4.5 -24.5q0 -62 -11 -113t-29 -94.5t-40 -81.5t-44 -75q-18 -30 -35.5 -60.5t-30.5 -63t-21 -67.5t-8 -76q0 -24 3 -44.5t3 -31.5q0 -22 -24 -24q-10 -1 -22.5 -1h-25.5h-29t-26 1q-20 2 -25.5 14t-5.5 35q0 35 5 63.5
t12.5 52.5t16 42.5t15.5 31.5q4 8 4 18q0 8 -5.5 16t-15.5 18q-21 21 -51.5 53t-59.5 84t-49.5 126.5t-20.5 179.5q0 17 5 23t18 8zM197 820q0 3 2.5 7t8.5 7q25 12 44.5 29t35 38t28.5 45.5t25 52.5q4 8 9 11t13 3q14 0 37 -3.5t42 -8.5q11 -3 15 -8t4 -13q0 -18 -17.5 -47
t-48 -57.5t-72.5 -49t-92 -20.5q-7 0 -20.5 2t-13.5 12z" />
    <glyph glyph-name="Thorn" unicode="&#xde;" horiz-adv-x="565" 
d="M96 738q2 14 8 19t16 7q10 1 21.5 1.5t23.5 0.5t24.5 -0.5t24.5 -1.5q7 -2 9.5 -5t2.5 -11q0 -7 -2.5 -23.5t-2.5 -27.5q0 -10 6.5 -13.5t32.5 -3.5q150 -4 219.5 -60t69.5 -175q0 -67 -20.5 -115t-56 -83.5t-83.5 -60.5t-103 -47q-25 -10 -39.5 -16.5t-22.5 -13
t-10.5 -14.5t-2.5 -22q0 -13 4 -30t4 -22q0 -11 -4.5 -15t-12.5 -5q-12 -1 -24 -1.5t-26 -0.5q-12 0 -25 0.5t-24 1.5q-8 2 -12.5 5.5t-7.5 13.5q-4 15 -8 46.5t-6 73.5t-3.5 90.5t-1.5 96.5q0 171 12 275t20 136zM189 256q2 -17 8.5 -22t17.5 -5q14 0 35 4.5t45 15t48 27
t43 41t31 57t12 74.5q0 29 -7 53.5t-24 42t-46 27.5t-73 10q-30 0 -42.5 -3t-20.5 -11q-32 -29 -32 -186q0 -37 1 -66.5t4 -58.5z" />
    <glyph glyph-name="germandbls" unicode="&#xdf;" horiz-adv-x="555" 
d="M67 545q12 150 67.5 216t161.5 66q43 0 78.5 -14t61 -38t39.5 -57t14 -71q0 -37 -9 -64t-23.5 -47.5t-32.5 -36t-35 -27.5q-10 -7 -10 -15t11 -18q24 -21 47.5 -48.5t42.5 -60.5t31 -72t12 -82q0 -42 -10.5 -76.5t-31 -59.5t-50 -39t-67.5 -14q-26 0 -47.5 9.5t-37.5 24
t-24.5 32t-8.5 33.5q0 15 14 15q5 0 10.5 -5t13 -11t17.5 -11t24 -5q33 0 53 25t20 80q0 33 -10 63t-26.5 58t-37.5 55.5t-44 55.5q-12 14 -15.5 26t-3.5 22q0 14 7 25.5t21 25.5q30 30 55 62t25 73q0 44 -22.5 73t-56.5 29q-42 0 -65.5 -34.5t-35.5 -112.5q-3 -22 -5.5 -52
t-4 -63.5t-2.5 -69t-1 -67.5q0 -58 3.5 -110.5t8 -95t8 -73t3.5 -45.5q0 -9 -5.5 -13.5t-13.5 -5.5q-9 -1 -19.5 -1.5t-21.5 -0.5t-21.5 0.5t-20.5 1.5q-8 1 -17 6.5t-11 22.5q-7 54 -10 114t-3 123q0 75 3 146.5t8 132.5z" />
    <glyph glyph-name="agrave" unicode="&#xe0;" horiz-adv-x="495" 
d="M30 174q0 50 19.5 86.5t55 62.5t84.5 42.5t108 25.5q20 3 27 12t7 24q0 46 -23.5 70t-75.5 24q-39 0 -73.5 -16.5t-63.5 -45.5q-8 -8 -15 -8q-8 0 -14 7.5t-10.5 17t-6.5 19.5t-2 16q0 22 14 42t39.5 35.5t61 24.5t79.5 9q56 0 94 -14.5t61.5 -43t34 -70t10.5 -95.5
q0 -72 -2.5 -132t-2.5 -103q0 -19 1.5 -40t3 -39t3 -31.5t1.5 -17.5q0 -24 -23 -28q-10 -3 -32 -4.5t-48 -2.5t-51 -1.5t-41 -0.5q-220 0 -220 175zM274 101q37 0 47 11.5t10 31.5v126q0 19 -5 26.5t-19 7.5q-72 0 -118.5 -31t-46.5 -89q0 -48 32 -65.5t100 -17.5zM65 849
q0 8 4 13t15 8q19 5 42 8.5t37 3.5q17 0 22 -14q21 -57 51.5 -98.5t81.5 -66.5q6 -3 8.5 -7t2.5 -7q0 -10 -13.5 -12t-20.5 -2q-49 0 -91.5 20.5t-73 49t-48 57.5t-17.5 47z" />
    <glyph glyph-name="aacute" unicode="&#xe1;" horiz-adv-x="495" 
d="M30 174q0 50 19.5 86.5t55 62.5t84.5 42.5t108 25.5q20 3 27 12t7 24q0 46 -23.5 70t-75.5 24q-39 0 -73.5 -16.5t-63.5 -45.5q-8 -8 -15 -8q-8 0 -14 7.5t-10.5 17t-6.5 19.5t-2 16q0 22 14 42t39.5 35.5t61 24.5t79.5 9q56 0 94 -14.5t61.5 -43t34 -70t10.5 -95.5
q0 -72 -2.5 -132t-2.5 -103q0 -19 1.5 -40t3 -39t3 -31.5t1.5 -17.5q0 -24 -23 -28q-10 -3 -32 -4.5t-48 -2.5t-51 -1.5t-41 -0.5q-220 0 -220 175zM274 101q37 0 47 11.5t10 31.5v126q0 19 -5 26.5t-19 7.5q-72 0 -118.5 -31t-46.5 -89q0 -48 32 -65.5t100 -17.5zM149 689
q0 3 2.5 7t8.5 7q25 12 44.5 29t35 38t28.5 45.5t25 52.5q4 8 9 11t13 3q14 0 37 -3.5t42 -8.5q11 -3 15 -8t4 -13q0 -18 -17.5 -47t-48 -57.5t-72.5 -49t-92 -20.5q-7 0 -20.5 2t-13.5 12z" />
    <glyph glyph-name="acircumflex" unicode="&#xe2;" horiz-adv-x="495" 
d="M30 174q0 50 19.5 86.5t55 62.5t84.5 42.5t108 25.5q20 3 27 12t7 24q0 46 -23.5 70t-75.5 24q-39 0 -73.5 -16.5t-63.5 -45.5q-8 -8 -15 -8q-8 0 -14 7.5t-10.5 17t-6.5 19.5t-2 16q0 22 14 42t39.5 35.5t61 24.5t79.5 9q56 0 94 -14.5t61.5 -43t34 -70t10.5 -95.5
q0 -72 -2.5 -132t-2.5 -103q0 -19 1.5 -40t3 -39t3 -31.5t1.5 -17.5q0 -24 -23 -28q-10 -3 -32 -4.5t-48 -2.5t-51 -1.5t-41 -0.5q-220 0 -220 175zM142 184q0 -48 32 -65.5t100 -17.5q37 0 47 11.5t10 31.5v126q0 19 -5 26.5t-19 7.5q-72 0 -118.5 -31t-46.5 -89zM224 873
q12 9 23 9q14 0 38 -21.5t49 -49.5t46 -55.5t28 -39.5q2 -4 3 -7t1 -6q0 -6 -12 -14q-10 -5 -21.5 -9t-22.5 -4q-10 0 -20 11q-23 26 -38.5 41.5t-25 23.5t-15.5 10.5t-10 2.5t-9.5 -3t-15.5 -11t-25.5 -23.5l-40.5 -40.5q-5 -5 -9.5 -8t-10.5 -3q-9 0 -21 4t-22 9
q-11 7 -11 15t8.5 21.5t22 31t30 35.5t32.5 34.5t29 29t20 17.5z" />
    <glyph glyph-name="atilde" unicode="&#xe3;" horiz-adv-x="495" 
d="M30 174q0 50 19.5 86.5t55 62.5t84.5 42.5t108 25.5q20 3 27 12t7 24q0 46 -23.5 70t-75.5 24q-39 0 -73.5 -16.5t-63.5 -45.5q-8 -8 -15 -8q-8 0 -14 7.5t-10.5 17t-6.5 19.5t-2 16q0 22 14 42t39.5 35.5t61 24.5t79.5 9q56 0 94 -14.5t61.5 -43t34 -70t10.5 -95.5
q0 -72 -2.5 -132t-2.5 -103q0 -19 1.5 -40t3 -39t3 -31.5t1.5 -17.5q0 -24 -23 -28q-10 -3 -32 -4.5t-48 -2.5t-51 -1.5t-41 -0.5q-220 0 -220 175zM142 184q0 -48 32 -65.5t100 -17.5q37 0 47 11.5t10 31.5v126q0 19 -5 26.5t-19 7.5q-72 0 -118.5 -31t-46.5 -89zM170 837
q21 0 43.5 -6.5t45 -14t43 -14t36.5 -6.5q22 0 37 10.5t28 27.5q5 6 9 6q13 0 13 -26q0 -23 -6 -45t-18 -39.5t-29.5 -28.5t-40.5 -11q-22 0 -45.5 9t-46.5 19.5t-46 19.5t-45 9q-17 0 -28 -7t-27 -23q-7 -7 -12 -7q-9 0 -9 13q0 21 6.5 41t19 36.5t30.5 26.5t42 10z" />
    <glyph glyph-name="adieresis" unicode="&#xe4;" horiz-adv-x="495" 
d="M30 174q0 50 19.5 86.5t55 62.5t84.5 42.5t108 25.5q20 3 27 12t7 24q0 46 -23.5 70t-75.5 24q-39 0 -73.5 -16.5t-63.5 -45.5q-8 -8 -15 -8q-8 0 -14 7.5t-10.5 17t-6.5 19.5t-2 16q0 22 14 42t39.5 35.5t61 24.5t79.5 9q56 0 94 -14.5t61.5 -43t34 -70t10.5 -95.5
q0 -72 -2.5 -132t-2.5 -103q0 -19 1.5 -40t3 -39t3 -31.5t1.5 -17.5q0 -24 -23 -28q-10 -3 -32 -4.5t-48 -2.5t-51 -1.5t-41 -0.5q-220 0 -220 175zM142 184q0 -48 32 -65.5t100 -17.5q37 0 47 11.5t10 31.5v126q0 19 -5 26.5t-19 7.5q-72 0 -118.5 -31t-46.5 -89zM329 842
q31 0 48 -18.5t17 -52.5q0 -33 -17 -50t-48 -17t-48.5 17t-17.5 50q0 34 17.5 52.5t48.5 18.5zM164 841q31 0 48 -18.5t17 -51.5q0 -34 -17 -50.5t-48 -16.5q-30 0 -47.5 16.5t-17.5 50.5q0 33 17.5 51.5t47.5 18.5z" />
    <glyph glyph-name="aring" unicode="&#xe5;" horiz-adv-x="495" 
d="M30 174q0 50 19.5 86.5t55 62.5t84.5 42.5t108 25.5q20 3 27 12t7 24q0 46 -23.5 70t-75.5 24q-39 0 -73.5 -16.5t-63.5 -45.5q-8 -8 -15 -8q-8 0 -14 7.5t-10.5 17t-6.5 19.5t-2 16q0 22 14 42t39.5 35.5t61 24.5t79.5 9q56 0 94 -14.5t61.5 -43t34 -70t10.5 -95.5
q0 -72 -2.5 -132t-2.5 -103q0 -19 1.5 -40t3 -39t3 -31.5t1.5 -17.5q0 -24 -23 -28q-10 -3 -32 -4.5t-48 -2.5t-51 -1.5t-41 -0.5q-220 0 -220 175zM244 890q60 0 92.5 -28.5t32.5 -82.5q0 -51 -32.5 -78t-92.5 -27q-57 0 -90.5 27t-33.5 78q0 54 33.5 82.5t90.5 28.5z
M142 184q0 -48 32 -65.5t100 -17.5q37 0 47 11.5t10 31.5v126q0 19 -5 26.5t-19 7.5q-72 0 -118.5 -31t-46.5 -89zM244 735q55 0 55 45q0 48 -55 48q-25 0 -39 -12.5t-14 -35.5q0 -22 14 -33.5t39 -11.5z" />
    <glyph glyph-name="ae" unicode="&#xe6;" horiz-adv-x="779" 
d="M295 391q19 3 26 12t7 24q0 46 -23 70t-74 24q-38 0 -73 -14.5t-61 -45.5q-7 -8 -15 -8q-7 0 -13.5 7t-10.5 16.5t-6.5 19t-2.5 15.5q0 22 13.5 42t38.5 35.5t60 24.5t77 9q29 0 53 -6.5t43 -17.5t34 -25.5t27 -29.5q6 -8 12 -8q4 0 13 9q32 32 74.5 54.5t95.5 22.5
q33 0 61.5 -9.5t49 -28t32.5 -47t12 -67.5q0 -44 -13 -74.5t-35 -52.5t-50 -37t-57.5 -26.5t-58.5 -22t-52 -24.5q-18 -10 -28 -21.5t-10 -40.5q0 -42 18.5 -57.5t59.5 -15.5q57 0 108.5 28t84.5 84q4 7 11 7t11 -6.5t6 -14.5t2.5 -16.5t0.5 -13.5q0 -93 -84 -133.5
t-261 -40.5q-84 0 -152 6t-116 25t-74 55t-26 95q0 51 19.5 88.5t54.5 63.5t83.5 42.5t107.5 24.5zM141 184q0 -45 32 -65t101 -20q37 0 46.5 11t9.5 31v125q0 20 -5.5 29t-20.5 9q-36 0 -65.5 -8t-51.5 -23t-34 -37.5t-12 -51.5zM447 307q8 0 15 4q25 15 55.5 29.5t57.5 32
t45.5 39t18.5 49.5q0 29 -17 46t-48 17q-34 0 -60.5 -16.5t-43.5 -44t-26 -63.5t-9 -75q0 -7 3 -12.5t9 -5.5z" />
    <glyph glyph-name="ccedilla" unicode="&#xe7;" horiz-adv-x="450" 
d="M259 622q41 0 71 -14.5t50 -39.5t30 -59t10 -73q0 -16 -8 -31.5t-20.5 -27t-26.5 -18.5t-26 -7q-17 0 -18 18q-2 29 -5 56t-10 48t-20 33.5t-37 12.5q-45 0 -75 -57t-30 -163q0 -41 5 -76t18 -61t34.5 -41t54.5 -15q28 0 48.5 9t36 24.5t26.5 36t18 42.5q3 9 12 9
q8 0 14 -10t10 -23t5.5 -25.5t1.5 -18.5q0 -52 -31.5 -89.5t-85.5 -54.5q-8 -2 -12 -6t-6 -9q-44 -120 -89 -120q-6 0 -21.5 1.5t-31.5 5.5t-28 10t-12 15q0 8 9 15.5t25 17.5q20 12 30.5 21t16 15.5t6.5 10.5t1 7q0 5 -2.5 8.5t-11.5 5.5q-82 20 -119.5 88.5t-37.5 177.5
q0 92 17.5 158.5t48.5 109.5t73.5 63t91.5 20z" />
    <glyph glyph-name="egrave" unicode="&#xe8;" horiz-adv-x="480" 
d="M284 621q33 0 62.5 -9.5t51.5 -28t35 -47t13 -67.5q0 -44 -13.5 -74t-36 -51.5t-51 -36t-58 -26t-57.5 -23t-50 -26.5q-28 -18 -28 -42q0 -38 25 -65.5t77 -27.5q57 0 95 27.5t64 84.5q5 6 10 6q9 0 16 -15.5t7 -45.5q0 -38 -16 -68.5t-43 -52t-62.5 -33t-75.5 -11.5
q-61 0 -103.5 22t-68.5 62.5t-38 96.5t-12 123q0 84 20 146t55 102.5t81.5 60t100.5 19.5zM150 308q8 0 13 4q21 16 51.5 31t58 32t47 37.5t19.5 48.5q0 29 -16.5 46t-47.5 17q-33 0 -59 -15.5t-44 -42t-27 -62t-9 -75.5q0 -8 3 -14.5t11 -6.5zM103 871q19 5 42 8.5t37 3.5
q17 0 22 -14q21 -57 51.5 -98.5t81.5 -66.5q6 -3 8.5 -7t2.5 -7q0 -10 -13.5 -12t-20.5 -2q-49 0 -91.5 20.5t-73 49t-48 57.5t-17.5 47q0 8 4 13t15 8z" />
    <glyph glyph-name="eacute" unicode="&#xe9;" horiz-adv-x="480" 
d="M284 621q33 0 62.5 -9.5t51.5 -28t35 -47t13 -67.5q0 -44 -13.5 -74t-36 -51.5t-51 -36t-58 -26t-57.5 -23t-50 -26.5q-28 -18 -28 -42q0 -38 25 -65.5t77 -27.5q57 0 95 27.5t64 84.5q5 6 10 6q9 0 16 -15.5t7 -45.5q0 -38 -16 -68.5t-43 -52t-62.5 -33t-75.5 -11.5
q-61 0 -103.5 22t-68.5 62.5t-38 96.5t-12 123q0 84 20 146t55 102.5t81.5 60t100.5 19.5zM150 308q8 0 13 4q21 16 51.5 31t58 32t47 37.5t19.5 48.5q0 29 -16.5 46t-47.5 17q-33 0 -59 -15.5t-44 -42t-27 -62t-9 -75.5q0 -8 3 -14.5t11 -6.5zM178 703q49 28 78.5 68.5
t54.5 96.5q4 8 9 11t13 3q14 0 37 -3.5t42 -8.5q11 -3 15 -8t4 -13q0 -18 -17.5 -47t-48 -57.5t-72.5 -49t-92 -20.5q-7 0 -20.5 2t-13.5 12q0 3 2.5 7t8.5 7z" />
    <glyph glyph-name="ecircumflex" unicode="&#xea;" horiz-adv-x="480" 
d="M284 621q33 0 62.5 -9.5t51.5 -28t35 -47t13 -67.5q0 -44 -13.5 -74t-36 -51.5t-51 -36t-58 -26t-57.5 -23t-50 -26.5q-28 -18 -28 -42q0 -38 25 -65.5t77 -27.5q57 0 95 27.5t64 84.5q5 6 10 6q9 0 16 -15.5t7 -45.5q0 -38 -16 -68.5t-43 -52t-62.5 -33t-75.5 -11.5
q-61 0 -103.5 22t-68.5 62.5t-38 96.5t-12 123q0 84 20 146t55 102.5t81.5 60t100.5 19.5zM241 873q12 9 23 9q14 0 38 -21.5t49 -49.5t46 -55.5t28 -39.5q2 -4 3 -7t1 -6q0 -6 -12 -14q-10 -5 -21.5 -9t-22.5 -4q-10 0 -20 11q-23 26 -38.5 41.5t-25 23.5t-15.5 10.5
t-10 2.5t-9.5 -3t-15.5 -11t-25.5 -23.5l-40.5 -40.5q-5 -5 -9.5 -8t-10.5 -3q-9 0 -21 4t-22 9q-11 7 -11 15t8.5 21.5t22 31t30 35.5t32.5 34.5t29 29t20 17.5zM150 308q8 0 13 4q21 16 51.5 31t58 32t47 37.5t19.5 48.5q0 29 -16.5 46t-47.5 17q-33 0 -59 -15.5t-44 -42
t-27 -62t-9 -75.5q0 -8 3 -14.5t11 -6.5z" />
    <glyph glyph-name="edieresis" unicode="&#xeb;" horiz-adv-x="480" 
d="M284 621q33 0 62.5 -9.5t51.5 -28t35 -47t13 -67.5q0 -44 -13.5 -74t-36 -51.5t-51 -36t-58 -26t-57.5 -23t-50 -26.5q-28 -18 -28 -42q0 -38 25 -65.5t77 -27.5q57 0 95 27.5t64 84.5q5 6 10 6q9 0 16 -15.5t7 -45.5q0 -38 -16 -68.5t-43 -52t-62.5 -33t-75.5 -11.5
q-61 0 -103.5 22t-68.5 62.5t-38 96.5t-12 123q0 84 20 146t55 102.5t81.5 60t100.5 19.5zM150 308q8 0 13 4q21 16 51.5 31t58 32t47 37.5t19.5 48.5q0 29 -16.5 46t-47.5 17q-33 0 -59 -15.5t-44 -42t-27 -62t-9 -75.5q0 -8 3 -14.5t11 -6.5zM283 771q0 34 17.5 52.5
t48.5 18.5t48 -18.5t17 -52.5q0 -33 -17 -50t-48 -17t-48.5 17t-17.5 50zM119 771q0 33 17.5 51.5t47.5 18.5q31 0 48 -18.5t17 -51.5q0 -34 -17 -50.5t-48 -16.5q-30 0 -47.5 16.5t-17.5 50.5z" />
    <glyph glyph-name="igrave" unicode="&#xec;" horiz-adv-x="242" 
d="M53 255q0 88 5 175t16 159q2 14 8 18t16 5q9 1 17 1h17h16t17 -1q19 -2 19 -18q0 -14 -5 -88.5t-5 -202.5q0 -116 9 -191t9 -95q0 -9 -5 -12.5t-12 -4.5q-11 -2 -22.5 -2h-22.5q-12 0 -23 0.5t-21 1.5q-8 1 -14.5 4.5t-8.5 17.5q-5 51 -7.5 110.5t-2.5 122.5zM31 848
q16 4 33.5 7t33.5 3t21 -14q12 -48 27.5 -83.5t41.5 -55.5q12 -9 12 -16q0 -10 -14 -12t-21 -2q-33 0 -61 18t-49 42.5t-32.5 50t-11.5 40.5q0 8 4 13t16 9z" />
    <glyph glyph-name="iacute" unicode="&#xed;" horiz-adv-x="242" 
d="M74 589q2 14 8 18t16 5q9 1 17 1h17h16t17 -1q19 -2 19 -18q0 -14 -5 -88.5t-5 -202.5q0 -116 9 -191t9 -95q0 -9 -5 -12.5t-12 -4.5q-11 -2 -22.5 -2h-22.5q-12 0 -23 0.5t-21 1.5q-8 1 -14.5 4.5t-8.5 17.5q-5 51 -7.5 110.5t-2.5 122.5q0 88 5 175t16 159zM64 689
q0 7 12 16q26 20 41 55.5t27 83.5q4 8 9 11t13 3q15 0 32.5 -3t34.5 -7q11 -4 15 -9t4 -13q0 -15 -11.5 -40.5t-32 -50t-49 -42.5t-61.5 -18q-7 0 -20.5 2t-13.5 12z" />
    <glyph glyph-name="icircumflex" unicode="&#xee;" horiz-adv-x="242" 
d="M74 589q2 14 8 18t16 5q9 1 17 1h17h16t17 -1q19 -2 19 -18q0 -14 -5 -88.5t-5 -202.5q0 -116 9 -191t9 -95q0 -9 -5 -12.5t-12 -4.5q-11 -2 -22.5 -2h-22.5q-12 0 -23 0.5t-21 1.5q-8 1 -14.5 4.5t-8.5 17.5q-5 51 -7.5 110.5t-2.5 122.5q0 88 5 175t16 159zM113 846
q7 6 12 7.5t10 1.5q10 0 32 -19.5t44.5 -45.5t39.5 -51.5t17 -36.5q0 -6 -6 -11t-14 -8.5t-16 -5.5t-13 -2t-10.5 3.5t-17.5 16.5q-16 15 -25.5 23.5t-15.5 13t-9 5.5t-6 1t-6.5 -1t-9.5 -5.5t-16 -13t-26 -23.5q-18 -19 -25 -19q-4 0 -12 2.5t-16 6t-14 8.5t-6 11
q0 10 14 30.5t32.5 43t36.5 42t26 26.5z" />
    <glyph glyph-name="idieresis" unicode="&#xef;" horiz-adv-x="242" 
d="M74 589q2 14 8 18t16 5q9 1 17 1h17h16t17 -1q19 -2 19 -18q0 -14 -5 -88.5t-5 -202.5q0 -116 9 -191t9 -95q0 -9 -5 -12.5t-12 -4.5q-11 -2 -22.5 -2h-22.5q-12 0 -23 0.5t-21 1.5q-8 1 -14.5 4.5t-8.5 17.5q-5 51 -7.5 110.5t-2.5 122.5q0 88 5 175t16 159zM156 764
q0 29 15 45.5t41 16.5q27 0 41.5 -16.5t14.5 -45.5q0 -59 -56 -59q-26 0 -41 15t-15 44zM15 764q0 29 15 45.5t41 16.5t40.5 -16.5t14.5 -45.5q0 -59 -55 -59q-26 0 -41 15t-15 44z" />
    <glyph glyph-name="eth" unicode="&#xf0;" horiz-adv-x="528" 
d="M34 259q0 148 51 221t134 73q42 0 73 -20.5t53 -42.5q5 -5 10 -5q10 0 10 14q0 31 -21.5 67.5t-55.5 70.5q-8 8 -20 8q-10 0 -28 -5t-36.5 -11.5t-35 -11.5t-23.5 -5q-11 0 -18.5 13t-7.5 23q0 12 7.5 17t35.5 12q30 8 38.5 11t8.5 8q0 8 -17 16.5t-47 19.5
q-20 8 -31.5 12.5t-17.5 7.5t-8 5.5t-2 5.5q0 8 9.5 16t23.5 18q19 13 43 13q12 0 25 -5q25 -9 44.5 -19.5t34 -19.5t24.5 -15t15 -6q11 0 21 7t23 15q17 13 26 18.5t17 5.5t17.5 -4.5t17.5 -12t13.5 -17t5.5 -18.5q0 -7 -10.5 -14t-47.5 -25q-6 -3 -10.5 -6.5t-4.5 -8.5
q0 -2 6 -10q46 -61 76.5 -140t30.5 -186q0 -77 -9 -143t-33.5 -114t-67 -75.5t-109.5 -27.5q-61 0 -105 19t-72.5 54t-42 85t-13.5 112zM268 92q47 0 74.5 46.5t27.5 146.5q0 42 -10 73.5t-26 53.5t-36.5 33t-42.5 11q-49 0 -77 -43t-28 -139q0 -51 8 -85.5t23 -56t37 -31
t50 -9.5z" />
    <glyph glyph-name="ntilde" unicode="&#xf1;" horiz-adv-x="529" 
d="M51 307q0 61 3 128.5t8 139.5q2 20 10.5 26.5t22.5 8.5q8 1 16.5 1h16.5h15t15 -1q20 -1 20 -22q0 -17 11 -17q8 0 21.5 7.5t32 17t41.5 17t51 7.5q37 0 65 -13.5t47 -44.5t28.5 -81t9.5 -122q0 -52 -2.5 -105t-6.5 -99t-7.5 -81t-5.5 -50q-2 -11 -8.5 -17t-15.5 -7
q-7 -1 -15 -1h-17h-22t-21 2q-19 3 -19 20q0 11 3 43t7 79.5t7 107t3 125.5t-14.5 102t-61.5 36q-44 0 -68.5 -18t-36.5 -47t-14.5 -64t-2.5 -70q0 -45 2 -92.5t5 -88t5 -70t2 -37.5q0 -14 -5 -19.5t-18 -7.5q-7 -1 -14.5 -1h-15.5h-19.5t-17.5 1q-11 1 -17.5 6t-8.5 22
q-5 57 -9.5 126.5t-4.5 152.5zM190 837q21 0 43.5 -6.5t45 -14t43 -14t36.5 -6.5q22 0 37 10.5t28 27.5q5 6 9 6q13 0 13 -26q0 -23 -6 -45t-18 -39.5t-29.5 -28.5t-40.5 -11q-22 0 -45.5 9t-46.5 19.5t-46 19.5t-45 9q-17 0 -28 -7t-27 -23q-7 -7 -12 -7q-9 0 -9 13
q0 21 6.5 41t19 36.5t30.5 26.5t42 10z" />
    <glyph glyph-name="ograve" unicode="&#xf2;" horiz-adv-x="511" 
d="M29 294q0 74 14.5 134t44 103.5t73 67t100.5 23.5q59 0 100.5 -23t68.5 -65.5t39.5 -103t12.5 -136.5q0 -81 -17 -139t-47.5 -94.5t-73.5 -54t-95 -17.5q-51 0 -92 17.5t-69.5 54t-43.5 94.5t-15 139zM145 302q0 -101 25 -152.5t85 -51.5q61 0 86.5 51.5t25.5 152.5
q0 108 -29.5 164t-80.5 56q-55 0 -83.5 -56.5t-28.5 -163.5zM90 849q0 8 4 13t15 8q19 5 42 8.5t37 3.5q17 0 22 -14q21 -57 51.5 -98.5t81.5 -66.5q6 -3 8.5 -7t2.5 -7q0 -10 -13.5 -12t-20.5 -2q-49 0 -91.5 20.5t-73 49t-48 57.5t-17.5 47z" />
    <glyph glyph-name="oacute" unicode="&#xf3;" horiz-adv-x="511" 
d="M261 622q59 0 100.5 -23t68.5 -65.5t39.5 -103t12.5 -136.5q0 -81 -17 -139t-47.5 -94.5t-73.5 -54t-95 -17.5q-51 0 -92 17.5t-69.5 54t-43.5 94.5t-15 139q0 74 14.5 134t44 103.5t73 67t100.5 23.5zM145 302q0 -101 25 -152.5t85 -51.5q61 0 86.5 51.5t25.5 152.5
q0 108 -29.5 164t-80.5 56q-55 0 -83.5 -56.5t-28.5 -163.5zM171 703q49 28 78.5 68.5t54.5 96.5q4 8 9 11t13 3q14 0 37 -3.5t42 -8.5q11 -3 15 -8t4 -13q0 -18 -17.5 -47t-48 -57.5t-72.5 -49t-92 -20.5q-7 0 -20.5 2t-13.5 12q0 3 2.5 7t8.5 7z" />
    <glyph glyph-name="ocircumflex" unicode="&#xf4;" horiz-adv-x="511" 
d="M261 622q59 0 100.5 -23t68.5 -65.5t39.5 -103t12.5 -136.5q0 -81 -17 -139t-47.5 -94.5t-73.5 -54t-95 -17.5q-51 0 -92 17.5t-69.5 54t-43.5 94.5t-15 139q0 74 14.5 134t44 103.5t73 67t100.5 23.5zM255 98q61 0 86.5 51.5t25.5 152.5q0 108 -29.5 164t-80.5 56
q-55 0 -83.5 -56.5t-28.5 -163.5q0 -101 25 -152.5t85 -51.5zM93 704q0 13 18 38t42 51t47.5 48.5t34.5 31.5q12 9 23 9q14 0 38 -21.5t49 -49.5t46 -55.5t28 -39.5q2 -4 3 -7t1 -6q0 -6 -12 -14q-10 -5 -21.5 -9t-22.5 -4q-10 0 -20 11q-23 26 -38.5 41.5t-25 23.5
t-15.5 10.5t-10 2.5t-9.5 -3t-15.5 -11t-25.5 -23.5l-40.5 -40.5q-5 -5 -9.5 -8t-10.5 -3q-9 0 -21 4t-22 9q-11 7 -11 15z" />
    <glyph glyph-name="otilde" unicode="&#xf5;" horiz-adv-x="511" 
d="M29 294q0 74 14.5 134t44 103.5t73 67t100.5 23.5q59 0 100.5 -23t68.5 -65.5t39.5 -103t12.5 -136.5q0 -81 -17 -139t-47.5 -94.5t-73.5 -54t-95 -17.5q-51 0 -92 17.5t-69.5 54t-43.5 94.5t-15 139zM145 302q0 -101 25 -152.5t85 -51.5q61 0 86.5 51.5t25.5 152.5
q0 108 -29.5 164t-80.5 56q-55 0 -83.5 -56.5t-28.5 -163.5zM180 837q21 0 43.5 -6.5t45 -14t43 -14t36.5 -6.5q22 0 37 10.5t28 27.5q5 6 9 6q13 0 13 -26q0 -23 -6 -45t-18 -39.5t-29.5 -28.5t-40.5 -11q-22 0 -45.5 9t-46.5 19.5t-46 19.5t-45 9q-17 0 -28 -7t-27 -23
q-7 -7 -12 -7q-9 0 -9 13q0 21 6.5 41t19 36.5t30.5 26.5t42 10z" />
    <glyph glyph-name="odieresis" unicode="&#xf6;" horiz-adv-x="511" 
d="M29 294q0 74 14.5 134t44 103.5t73 67t100.5 23.5q59 0 100.5 -23t68.5 -65.5t39.5 -103t12.5 -136.5q0 -81 -17 -139t-47.5 -94.5t-73.5 -54t-95 -17.5q-51 0 -92 17.5t-69.5 54t-43.5 94.5t-15 139zM255 98q61 0 86.5 51.5t25.5 152.5q0 108 -29.5 164t-80.5 56
q-55 0 -83.5 -56.5t-28.5 -163.5q0 -101 25 -152.5t85 -51.5zM343 842q31 0 48 -18.5t17 -52.5q0 -33 -17 -50t-48 -17t-48.5 17t-17.5 50q0 34 17.5 52.5t48.5 18.5zM178 841q31 0 48 -18.5t17 -51.5q0 -34 -17 -50.5t-48 -16.5q-30 0 -47.5 16.5t-17.5 50.5
q0 33 17.5 51.5t47.5 18.5z" />
    <glyph glyph-name="divide" unicode="&#xf7;" horiz-adv-x="459" 
d="M34 388q2 11 9 15t16 5q30 2 79.5 1t103.5 -1q53 0 96.5 1t69.5 -1q14 -1 19.5 -7.5t5.5 -20.5q0 -11 -1.5 -29.5t-4.5 -32.5q-4 -22 -23 -23q-25 -2 -66.5 -1t-94.5 1q-61 0 -113 -1t-84 1q-20 0 -20 24q0 37 8 69zM164 160q0 29 19.5 45.5t51.5 16.5q33 0 51 -16.5
t18 -45.5t-18 -44t-51 -15q-32 0 -51.5 15t-19.5 44zM164 530q0 29 19.5 45.5t51.5 16.5q33 0 51 -16.5t18 -45.5t-18 -44t-51 -15q-32 0 -51.5 15t-19.5 44z" />
    <glyph glyph-name="oslash" unicode="&#xf8;" horiz-adv-x="511" 
d="M16 46q8 11 17.5 22.5t20.5 25.5q4 5 4 13q0 6 -3 12q-17 33 -21.5 77t-4.5 98q0 74 14.5 134t44 103.5t73 67t100.5 23.5q42 0 74 -14t59 -34q5 -4 8 -4q4 0 11 7q10 14 17.5 23.5t11.5 16.5q9 12 21 12q8 0 16 -3t14 -7q16 -6 16 -19q0 -6 -6 -15q-10 -14 -22.5 -32.5
t-27.5 -38.5q-3 -7 -3 -14q0 -2 -0.5 -5t1.5 -6q19 -38 25 -87.5t6 -107.5q0 -81 -17 -139t-47.5 -94.5t-73.5 -54t-95 -17.5q-76 0 -130 40q-5 4 -9 4q-5 0 -9 -5q-7 -9 -11.5 -16t-9.5 -14l-8.5 -8.5t-9.5 -3.5t-15 4.5t-17.5 11.5t-15 14t-6.5 13q0 8 8 17zM135 305
q0 -20 1 -38t4 -35q1 -8 7 -8q3 0 9 6q45 60 92 123t87 117q4 5 4 11t-4 11q-14 19 -34.5 30t-43.5 11q-60 0 -91 -58t-31 -170zM178 125q0 -7 7 -14t18 -12.5t25 -9t28 -3.5q65 0 92.5 52t27.5 155q0 4 -0.5 18.5t-1.5 30t-3.5 27.5t-7.5 12q-2 0 -6 -5q-45 -60 -90.5 -120
t-82.5 -116q-6 -9 -6 -15z" />
    <glyph glyph-name="ugrave" unicode="&#xf9;" horiz-adv-x="539" 
d="M50 275q0 39 2.5 85t5.5 89t6.5 78t5.5 51q4 31 27 32q8 1 18.5 1.5t20.5 0.5t18.5 -0.5t15.5 -1.5q10 -1 14.5 -7t4.5 -15q0 -10 -3.5 -44.5t-8 -82.5t-8 -103.5t-3.5 -106.5q0 -43 5.5 -71.5t16 -45.5t26 -24.5t35.5 -7.5q25 0 42.5 8t31.5 22q24 22 35 61.5t11 111.5
q0 58 -3 106t-7 84t-7 59t-3 31q-1 13 5 18t18 7q6 2 14 2h16h18.5t16.5 -2q14 -1 22.5 -7.5t10.5 -27.5q7 -61 11 -129.5t4 -142.5q0 -63 -4.5 -130.5t-11.5 -139.5q-2 -17 -9.5 -23t-18.5 -8q-7 -1 -15.5 -1h-16.5h-17t-16 1q-10 1 -15 6t-5 17q0 19 -14 19q-12 0 -26 -8
t-31 -18t-38 -18t-47 -8q-43 0 -71.5 17.5t-46 52.5t-25 88t-7.5 125zM118 870q19 5 42 8.5t37 3.5q17 0 22 -14q21 -57 51.5 -98.5t81.5 -66.5q6 -3 8.5 -7t2.5 -7q0 -10 -13.5 -12t-20.5 -2q-49 0 -91.5 20.5t-73 49t-48 57.5t-17.5 47q0 8 4 13t15 8z" />
    <glyph glyph-name="uacute" unicode="&#xfa;" horiz-adv-x="539" 
d="M50 275q0 39 2.5 85t5.5 89t6.5 78t5.5 51q4 31 27 32q8 1 18.5 1.5t20.5 0.5t18.5 -0.5t15.5 -1.5q10 -1 14.5 -7t4.5 -15q0 -10 -3.5 -44.5t-8 -82.5t-8 -103.5t-3.5 -106.5q0 -43 5.5 -71.5t16 -45.5t26 -24.5t35.5 -7.5q25 0 42.5 8t31.5 22q24 22 35 61.5t11 111.5
q0 58 -3 106t-7 84t-7 59t-3 31q-1 13 5 18t18 7q6 2 14 2h16h18.5t16.5 -2q14 -1 22.5 -7.5t10.5 -27.5q7 -61 11 -129.5t4 -142.5q0 -63 -4.5 -130.5t-11.5 -139.5q-2 -17 -9.5 -23t-18.5 -8q-7 -1 -15.5 -1h-16.5h-17t-16 1q-10 1 -15 6t-5 17q0 19 -14 19q-12 0 -26 -8
t-31 -18t-38 -18t-47 -8q-43 0 -71.5 17.5t-46 52.5t-25 88t-7.5 125zM181 703q49 28 78.5 68.5t54.5 96.5q4 8 9 11t13 3q14 0 37 -3.5t42 -8.5q11 -3 15 -8t4 -13q0 -18 -17.5 -47t-48 -57.5t-72.5 -49t-92 -20.5q-7 0 -20.5 2t-13.5 12q0 3 2.5 7t8.5 7z" />
    <glyph glyph-name="ucircumflex" unicode="&#xfb;" horiz-adv-x="539" 
d="M50 275q0 39 2.5 85t5.5 89t6.5 78t5.5 51q4 31 27 32q8 1 18.5 1.5t20.5 0.5t18.5 -0.5t15.5 -1.5q10 -1 14.5 -7t4.5 -15q0 -10 -3.5 -44.5t-8 -82.5t-8 -103.5t-3.5 -106.5q0 -43 5.5 -71.5t16 -45.5t26 -24.5t35.5 -7.5q25 0 42.5 8t31.5 22q24 22 35 61.5t11 111.5
q0 58 -3 106t-7 84t-7 59t-3 31q-1 13 5 18t18 7q6 2 14 2h16h18.5t16.5 -2q14 -1 22.5 -7.5t10.5 -27.5q7 -61 11 -129.5t4 -142.5q0 -63 -4.5 -130.5t-11.5 -139.5q-2 -17 -9.5 -23t-18.5 -8q-7 -1 -15.5 -1h-16.5h-17t-16 1q-10 1 -15 6t-5 17q0 19 -14 19q-12 0 -26 -8
t-31 -18t-38 -18t-47 -8q-43 0 -71.5 17.5t-46 52.5t-25 88t-7.5 125zM245 873q12 9 23 9q14 0 38 -21.5t49 -49.5t46 -55.5t28 -39.5q2 -4 3 -7t1 -6q0 -6 -12 -14q-10 -5 -21.5 -9t-22.5 -4q-10 0 -20 11q-23 26 -38.5 41.5t-25 23.5t-15.5 10.5t-10 2.5t-9.5 -3
t-15.5 -11t-25.5 -23.5l-40.5 -40.5q-5 -5 -9.5 -8t-10.5 -3q-9 0 -21 4t-22 9q-11 7 -11 15t8.5 21.5t22 31t30 35.5t32.5 34.5t29 29t20 17.5z" />
    <glyph glyph-name="udieresis" unicode="&#xfc;" horiz-adv-x="539" 
d="M50 275q0 39 2.5 85t5.5 89t6.5 78t5.5 51q4 31 27 32q8 1 18.5 1.5t20.5 0.5t18.5 -0.5t15.5 -1.5q10 -1 14.5 -7t4.5 -15q0 -10 -3.5 -44.5t-8 -82.5t-8 -103.5t-3.5 -106.5q0 -43 5.5 -71.5t16 -45.5t26 -24.5t35.5 -7.5q25 0 42.5 8t31.5 22q24 22 35 61.5t11 111.5
q0 58 -3 106t-7 84t-7 59t-3 31q-1 13 5 18t18 7q6 2 14 2h16h18.5t16.5 -2q14 -1 22.5 -7.5t10.5 -27.5q7 -61 11 -129.5t4 -142.5q0 -63 -4.5 -130.5t-11.5 -139.5q-2 -17 -9.5 -23t-18.5 -8q-7 -1 -15.5 -1h-16.5h-17t-16 1q-10 1 -15 6t-5 17q0 19 -14 19q-12 0 -26 -8
t-31 -18t-38 -18t-47 -8q-43 0 -71.5 17.5t-46 52.5t-25 88t-7.5 125zM286 771q0 34 17.5 52.5t48.5 18.5t48 -18.5t17 -52.5q0 -33 -17 -50t-48 -17t-48.5 17t-17.5 50zM187 841q31 0 48 -18.5t17 -51.5q0 -34 -17 -50.5t-48 -16.5q-30 0 -47.5 16.5t-17.5 50.5
q0 33 17.5 51.5t47.5 18.5z" />
    <glyph glyph-name="yacute" unicode="&#xfd;" horiz-adv-x="477" 
d="M34 91q2 13 9 16.5t18 3.5q14 0 47 2.5t66.5 10t59 20t25.5 33.5q0 7 -11 12q-52 26 -92 59t-67 78t-40.5 103.5t-13.5 136.5q0 23 4.5 33t21.5 12q8 1 18 1.5t21 0.5q10 0 20 -1t18 -2t13 -4.5t5 -15.5q0 -5 -0.5 -18.5t-0.5 -25.5q0 -73 15.5 -126t38 -86.5t47 -49.5
t43.5 -16q16 0 21 19q9 32 15 85.5t6 110.5q0 16 -1 33t-2 32t-2 26.5t-1 16.5q0 10 5.5 13.5t13.5 5.5q10 2 21 2h22h20t16 -2q15 -2 19.5 -12t4.5 -29q0 -129 -17 -236.5t-61.5 -185t-122 -120.5t-199.5 -43q-14 0 -18.5 6t-6.5 17q-1 7 -1 15v16q0 31 3 53zM159 703
q49 28 78.5 68.5t54.5 96.5q4 8 9 11t13 3q14 0 37 -3.5t42 -8.5q11 -3 15 -8t4 -13q0 -18 -17.5 -47t-48 -57.5t-72.5 -49t-92 -20.5q-7 0 -20.5 2t-13.5 12q0 3 2.5 7t8.5 7z" />
    <glyph glyph-name="thorn" unicode="&#xfe;" horiz-adv-x="510" 
d="M85 792q2 16 8.5 20t16.5 5q7 1 15.5 1.5t17.5 0.5q8 0 16.5 -0.5t15.5 -1.5q8 -1 14 -5t6 -15q0 -3 -2.5 -24t-5.5 -48t-5.5 -54t-2.5 -43t10 -16q8 0 29.5 3t44.5 3q62 0 104.5 -17.5t69 -46.5t38.5 -69t12 -85q0 -66 -15.5 -121t-41 -94t-59 -60.5t-69.5 -21.5
q-13 0 -25.5 4.5t-24 11t-21.5 13.5t-19 13q-15 10 -21 10q-12 0 -12 -16q0 -14 2 -35t4 -41t4 -36.5t2 -21.5q0 -17 -21 -19q-7 -1 -15 -1.5t-17 -0.5q-10 0 -20 0.5t-21 1.5t-19.5 7t-10.5 26q-8 66 -10.5 145.5t-2.5 156.5q0 122 8 242t23 229zM167 386q0 -52 7 -87
t20 -56t32 -30t44 -9t44.5 15.5t32.5 42t20 62t7 75.5q0 65 -32.5 94.5t-92.5 29.5q-26 0 -42 -3.5t-25 -17.5t-12 -41.5t-3 -74.5z" />
    <glyph glyph-name="ydieresis" unicode="&#xff;" horiz-adv-x="477" 
d="M31 38q0 14 0.5 28t2.5 25q2 13 9 16.5t18 3.5q14 0 47 2.5t66.5 10t59 20t25.5 33.5q0 7 -11 12q-52 26 -92 59t-67 78t-40.5 103.5t-13.5 136.5q0 23 4.5 33t21.5 12q8 1 18 1.5t21 0.5q10 0 20 -1t18 -2t13 -4.5t5 -15.5q0 -5 -0.5 -18.5t-0.5 -25.5q0 -73 15.5 -126
t38 -86.5t47 -49.5t43.5 -16q16 0 21 19q9 32 15 85.5t6 110.5q0 16 -1 33t-2 32t-2 26.5t-1 16.5q0 10 5.5 13.5t13.5 5.5q10 2 21 2h22h20t16 -2q15 -2 19.5 -12t4.5 -29q0 -129 -17 -236.5t-61.5 -185t-122 -120.5t-199.5 -43q-14 0 -18.5 6t-6.5 17q-1 7 -1 15v16z
M264 771q0 34 17.5 52.5t48.5 18.5t48 -18.5t17 -52.5q0 -33 -17 -50t-48 -17t-48.5 17t-17.5 50zM100 771q0 33 17.5 51.5t47.5 18.5q31 0 48 -18.5t17 -51.5q0 -34 -17 -50.5t-48 -16.5q-30 0 -47.5 16.5t-17.5 50.5z" />
    <glyph glyph-name="Amacron" unicode="&#x100;" horiz-adv-x="628" 
d="M48 179q0 82 11 164t39 158.5t75.5 145t120.5 122.5q8 5 13 7t11 2q13 0 23 -9q65 -57 110 -121t73.5 -136.5t41.5 -155t13 -176.5q0 -37 -1 -75.5t-7 -81.5q-2 -11 -8.5 -15.5t-18.5 -5.5q-10 -1 -21 -1.5t-22 -0.5q-14 0 -25 0.5t-19 1.5q-15 4 -15 20q0 20 8 52.5
t8 78.5q0 45 -26.5 64t-84.5 19q-36 0 -68.5 -7t-57 -20.5t-39.5 -34.5t-15 -49q0 -30 8.5 -56.5t8.5 -45.5q2 -18 -13 -21q-18 -3 -48 -3h-20.5t-19.5 1q-12 1 -18 5t-8 18q-9 77 -9 156zM174 308q0 -14 11 -14q7 0 21 5.5t33.5 12t45.5 12t57 5.5q35 0 55.5 -1.5
t32.5 -0.5q11 1 14 6t3 16q0 38 -10 79t-26 79t-36.5 70.5t-42.5 54.5q-10 10 -15 10q-6 0 -17 -10q-31 -27 -54.5 -68t-39.5 -86.5t-24 -90t-8 -79.5zM153 909v12t1 12q2 12 8 16t18 5q19 2 43.5 2h51.5q45 0 90.5 -0.5t74.5 -2.5q24 -2 29 -13t5 -31v-12.5t-2 -14.5
q-2 -13 -8.5 -17.5t-23.5 -6.5q-20 -2 -44.5 -2.5t-50.5 -0.5q-43 0 -86 1.5t-73 3.5q-17 2 -23.5 7t-8.5 16q-1 5 -1 12v14z" />
    <glyph glyph-name="amacron" unicode="&#x101;" horiz-adv-x="495" 
d="M30 174q0 50 19.5 86.5t55 62.5t84.5 42.5t108 25.5q20 3 27 12t7 24q0 46 -23.5 70t-75.5 24q-39 0 -73.5 -16.5t-63.5 -45.5q-8 -8 -15 -8q-8 0 -14 7.5t-10.5 17t-6.5 19.5t-2 16q0 22 14 42t39.5 35.5t61 24.5t79.5 9q56 0 94 -14.5t61.5 -43t34 -70t10.5 -95.5
q0 -72 -2.5 -132t-2.5 -103q0 -19 1.5 -40t3 -39t3 -31.5t1.5 -17.5q0 -24 -23 -28q-10 -3 -32 -4.5t-48 -2.5t-51 -1.5t-41 -0.5q-220 0 -220 175zM274 101q37 0 47 11.5t10 31.5v126q0 19 -5 26.5t-19 7.5q-72 0 -118.5 -31t-46.5 -89q0 -48 32 -65.5t100 -17.5zM91 794
q2 12 8 16t18 5q19 2 43.5 2h51.5q45 0 90.5 -0.5t74.5 -2.5q24 -2 29 -13t5 -31v-12.5t-2 -14.5q-2 -13 -8.5 -17.5t-23.5 -6.5q-20 -2 -44.5 -2.5t-50.5 -0.5q-43 0 -86 1.5t-73 3.5q-17 2 -23.5 7t-8.5 16q-1 5 -1 12v14v12t1 12z" />
    <glyph glyph-name="Abreve" unicode="&#x102;" horiz-adv-x="628" 
d="M48 179q0 82 11 164t39 158.5t75.5 145t120.5 122.5q8 5 13 7t11 2q13 0 23 -9q65 -57 110 -121t73.5 -136.5t41.5 -155t13 -176.5q0 -37 -1 -75.5t-7 -81.5q-2 -11 -8.5 -15.5t-18.5 -5.5q-10 -1 -21 -1.5t-22 -0.5q-14 0 -25 0.5t-19 1.5q-15 4 -15 20q0 20 8 52.5
t8 78.5q0 45 -26.5 64t-84.5 19q-36 0 -68.5 -7t-57 -20.5t-39.5 -34.5t-15 -49q0 -30 8.5 -56.5t8.5 -45.5q2 -18 -13 -21q-18 -3 -48 -3h-20.5t-19.5 1q-12 1 -18 5t-8 18q-9 77 -9 156zM185 294q7 0 21 5.5t33.5 12t45.5 12t57 5.5q35 0 55.5 -1.5t32.5 -0.5q11 1 14 6
t3 16q0 38 -10 79t-26 79t-36.5 70.5t-42.5 54.5q-10 10 -15 10q-6 0 -17 -10q-31 -27 -54.5 -68t-39.5 -86.5t-24 -90t-8 -79.5q0 -14 11 -14zM157 963q0 20 8 26t31 6q26 0 35 -4.5t11 -21.5q2 -28 19 -42.5t53 -14.5q38 0 55 14.5t22 44.5q2 16 10 20t30 4q23 0 31 -5.5
t8 -24.5q0 -29 -8 -54t-26.5 -43t-48.5 -28.5t-74 -10.5q-43 0 -72.5 10t-48 28t-27 42.5t-8.5 53.5z" />
    <glyph glyph-name="abreve" unicode="&#x103;" horiz-adv-x="495" 
d="M30 174q0 50 19.5 86.5t55 62.5t84.5 42.5t108 25.5q20 3 27 12t7 24q0 46 -23.5 70t-75.5 24q-39 0 -73.5 -16.5t-63.5 -45.5q-8 -8 -15 -8q-8 0 -14 7.5t-10.5 17t-6.5 19.5t-2 16q0 22 14 42t39.5 35.5t61 24.5t79.5 9q56 0 94 -14.5t61.5 -43t34 -70t10.5 -95.5
q0 -72 -2.5 -132t-2.5 -103q0 -19 1.5 -40t3 -39t3 -31.5t1.5 -17.5q0 -24 -23 -28q-10 -3 -32 -4.5t-48 -2.5t-51 -1.5t-41 -0.5q-220 0 -220 175zM132 854q26 0 35 -4.5t11 -21.5q2 -28 19 -42.5t53 -14.5q38 0 55 14.5t22 44.5q2 16 10 20t30 4q23 0 31 -5.5t8 -24.5
q0 -29 -8 -54t-26.5 -43t-48.5 -28.5t-74 -10.5q-43 0 -72.5 10t-48 28t-27 42.5t-8.5 53.5q0 20 8 26t31 6zM142 184q0 -48 32 -65.5t100 -17.5q37 0 47 11.5t10 31.5v126q0 19 -5 26.5t-19 7.5q-72 0 -118.5 -31t-46.5 -89z" />
    <glyph glyph-name="Aogonek" unicode="&#x104;" horiz-adv-x="628" 
d="M48 180q0 82 10.5 164.5t38 159.5t75 145t122.5 120q13 9 24 9t23 -9q68 -51 113.5 -111t73 -129t39 -147.5t11.5 -166.5q0 -26 -2 -56.5t-6 -53.5q-3 -15 -15 -20q-29 -11 -50 -34.5t-21 -48.5q0 -15 9 -24.5t30 -9.5q20 0 28 5.5t18 5.5q14 0 14 -14q0 -10 -7 -20.5
t-20 -19.5t-31 -14.5t-40 -5.5q-46 0 -67 21t-21 50q0 24 10.5 40.5t23.5 28.5t23.5 19.5t10.5 13.5q0 5 -4.5 7.5t-10.5 4.5q-13 3 -13 15q0 13 10.5 31.5t10.5 44.5q0 29 -26.5 42t-84.5 13q-36 0 -68.5 -7t-57.5 -20.5t-39.5 -34.5t-14.5 -49q0 -30 7.5 -56.5t9.5 -45.5
q2 -18 -13 -21q-18 -3 -48 -3h-20.5t-19.5 1q-11 1 -17.5 5t-8.5 18q-9 77 -9 157zM185 294q7 0 20.5 5t33 11t45 11.5t56.5 6.5q35 1 56 -0.5t34 -0.5q11 1 13.5 6t2.5 16q0 38 -9.5 79t-25.5 79t-36.5 70.5t-42.5 54.5q-10 10 -15 10q-6 0 -17 -10q-31 -27 -54.5 -68
t-39.5 -86.5t-24.5 -90t-8.5 -79.5q0 -14 12 -14z" />
    <glyph glyph-name="aogonek" unicode="&#x105;" horiz-adv-x="495" 
d="M297 419q20 3 27 12t7 24q0 33 -23.5 50t-75.5 17q-39 0 -73.5 -16.5t-63.5 -45.5q-7 -7 -15 -7q-7 0 -13.5 7t-10.5 17t-6.5 19.5t-2.5 15.5q0 22 14 42t39.5 35t61 24t79.5 9q56 0 94 -13t61.5 -37.5t34 -60.5t10.5 -83q0 -60 -2.5 -112t-2.5 -90q0 -18 1.5 -36.5
t3 -34t3 -27t1.5 -15.5q0 -20 -18 -27q-15 -6 -29 -15t-25 -20t-18 -23.5t-7 -25.5q0 -15 9 -24.5t31 -9.5q19 0 27.5 5.5t18.5 5.5q14 0 14 -14q0 -10 -7 -20.5t-20 -19.5t-31.5 -14.5t-40.5 -5.5q-45 0 -66 19.5t-21 48.5q0 20 9.5 34t20.5 24.5t20.5 18t9.5 13.5
q0 8 -13 8q-17 0 -32.5 -0.5t-26.5 -0.5q-220 0 -220 165q0 43 19.5 74.5t55 53.5t84.5 35.5t108 20.5zM274 171q19 0 30 3t17 8.5t8 13t2 17.5v89q0 16 -5 23.5t-19 7.5q-72 0 -118.5 -22.5t-46.5 -65.5t32 -58.5t100 -15.5z" />
    <glyph glyph-name="Cacute" unicode="&#x106;" horiz-adv-x="562" 
d="M32 321q0 97 18.5 181t54 145.5t88 97t120.5 35.5q59 0 100 -25t66.5 -64t37 -87.5t11.5 -95.5q0 -17 -6.5 -30t-22.5 -24q-4 -5 -14 -11t-21 -11.5t-21.5 -9t-16.5 -3.5q-14 0 -14 18q0 8 0.5 19t0.5 19q0 33 -5 67.5t-17.5 62t-33 45.5t-51.5 18q-34 0 -61.5 -23.5
t-46.5 -66.5t-29 -101.5t-10 -129.5q0 -116 36.5 -175.5t118.5 -59.5q71 0 114.5 43t63.5 115q5 12 14 12q14 0 24 -20t10 -60q0 -41 -13.5 -80t-42.5 -69.5t-75 -49t-111 -18.5q-130 0 -198 85.5t-68 250.5zM219 844q49 28 78.5 68.5t54.5 96.5q4 8 9 11t13 3q14 0 37 -3.5
t42 -8.5q11 -3 15 -8t4 -13q0 -18 -17.5 -47t-48 -57.5t-72.5 -49t-92 -20.5q-7 0 -20.5 2t-13.5 12q0 3 2.5 7t8.5 7z" />
    <glyph glyph-name="cacute" unicode="&#x107;" horiz-adv-x="450" 
d="M28 266q0 93 17.5 160.5t48.5 111t73.5 64t91.5 20.5q41 0 71 -14.5t50 -40t30 -60t10 -74.5q0 -17 -8 -32.5t-20.5 -27t-26.5 -18.5t-26 -7q-17 0 -18 17q-2 29 -5 56.5t-10 48.5t-20 34t-37 13q-45 0 -75 -57t-30 -165q0 -41 5 -76.5t18 -61.5t34.5 -41t54.5 -15
q28 0 48.5 9t36 25t26.5 36.5t18 42.5q3 9 12 9q8 0 14 -10t10 -23.5t5.5 -26.5t1.5 -19q0 -32 -12.5 -60.5t-36 -49.5t-57.5 -33t-78 -12q-57 0 -98 19.5t-67.5 55.5t-38.5 87t-12 115zM160 703q49 28 78.5 68.5t54.5 96.5q4 8 9 11t13 3q14 0 37 -3.5t42 -8.5q11 -3 15 -8
t4 -13q0 -18 -17.5 -47t-48 -57.5t-72.5 -49t-92 -20.5q-7 0 -20.5 2t-13.5 12q0 3 2.5 7t8.5 7z" />
    <glyph glyph-name="Ccircumflex" unicode="&#x108;" horiz-adv-x="562" 
d="M32 321q0 97 18.5 181t54 145.5t88 97t120.5 35.5q59 0 100 -25t66.5 -64t37 -87.5t11.5 -95.5q0 -17 -6.5 -30t-22.5 -24q-4 -5 -14 -11t-21 -11.5t-21.5 -9t-16.5 -3.5q-14 0 -14 18q0 8 0.5 19t0.5 19q0 33 -5 67.5t-17.5 62t-33 45.5t-51.5 18q-34 0 -61.5 -23.5
t-46.5 -66.5t-29 -101.5t-10 -129.5q0 -116 36.5 -175.5t118.5 -59.5q71 0 114.5 43t63.5 115q5 12 14 12q14 0 24 -20t10 -60q0 -41 -13.5 -80t-42.5 -69.5t-75 -49t-111 -18.5q-130 0 -198 85.5t-68 250.5zM282 1014q12 9 23 9q14 0 38 -21.5t49 -49.5t46 -55.5t28 -39.5
q2 -4 3 -7t1 -6q0 -6 -12 -14q-10 -5 -21.5 -9t-22.5 -4q-10 0 -20 11q-23 26 -38.5 41.5t-25 23.5t-15.5 10.5t-10 2.5t-9.5 -3t-15.5 -11t-25.5 -23.5l-40.5 -40.5q-5 -5 -9.5 -8t-10.5 -3q-9 0 -21 4t-22 9q-11 7 -11 15t8.5 21.5t22 31t30 35.5t32.5 34.5t29 29t20 17.5
z" />
    <glyph glyph-name="ccircumflex" unicode="&#x109;" horiz-adv-x="450" 
d="M28 266q0 93 17.5 160.5t48.5 111t73.5 64t91.5 20.5q41 0 71 -14.5t50 -40t30 -60t10 -74.5q0 -17 -8 -32.5t-20.5 -27t-26.5 -18.5t-26 -7q-17 0 -18 17q-2 29 -5 56.5t-10 48.5t-20 34t-37 13q-45 0 -75 -57t-30 -165q0 -41 5 -76.5t18 -61.5t34.5 -41t54.5 -15
q28 0 48.5 9t36 25t26.5 36.5t18 42.5q3 9 12 9q8 0 14 -10t10 -23.5t5.5 -26.5t1.5 -19q0 -32 -12.5 -60.5t-36 -49.5t-57.5 -33t-78 -12q-57 0 -98 19.5t-67.5 55.5t-38.5 87t-12 115zM224 873q12 9 23 9q14 0 38 -21.5t49 -49.5t46 -55.5t28 -39.5q2 -4 3 -7t1 -6
q0 -6 -12 -14q-10 -5 -21.5 -9t-22.5 -4q-10 0 -20 11q-23 26 -38.5 41.5t-25 23.5t-15.5 10.5t-10 2.5t-9.5 -3t-15.5 -11t-25.5 -23.5l-40.5 -40.5q-5 -5 -9.5 -8t-10.5 -3q-9 0 -21 4t-22 9q-11 7 -11 15t8.5 21.5t22 31t30 35.5t32.5 34.5t29 29t20 17.5z" />
    <glyph glyph-name="Cdotaccent" unicode="&#x10a;" horiz-adv-x="562" 
d="M32 321q0 97 18.5 181t54 145.5t88 97t120.5 35.5q59 0 100 -25t66.5 -64t37 -87.5t11.5 -95.5q0 -17 -6.5 -30t-22.5 -24q-4 -5 -14 -11t-21 -11.5t-21.5 -9t-16.5 -3.5q-14 0 -14 18q0 8 0.5 19t0.5 19q0 33 -5 67.5t-17.5 62t-33 45.5t-51.5 18q-34 0 -61.5 -23.5
t-46.5 -66.5t-29 -101.5t-10 -129.5q0 -116 36.5 -175.5t118.5 -59.5q71 0 114.5 43t63.5 115q5 12 14 12q14 0 24 -20t10 -60q0 -41 -13.5 -80t-42.5 -69.5t-75 -49t-111 -18.5q-130 0 -198 85.5t-68 250.5zM307 985q35 0 53.5 -18.5t18.5 -52.5q0 -33 -18.5 -50t-53.5 -17
q-33 0 -53 17t-20 50q0 34 20 52.5t53 18.5z" />
    <glyph glyph-name="cdotaccent" unicode="&#x10b;" horiz-adv-x="450" 
d="M28 266q0 93 17.5 160.5t48.5 111t73.5 64t91.5 20.5q41 0 71 -14.5t50 -40t30 -60t10 -74.5q0 -17 -8 -32.5t-20.5 -27t-26.5 -18.5t-26 -7q-17 0 -18 17q-2 29 -5 56.5t-10 48.5t-20 34t-37 13q-45 0 -75 -57t-30 -165q0 -41 5 -76.5t18 -61.5t34.5 -41t54.5 -15
q28 0 48.5 9t36 25t26.5 36.5t18 42.5q3 9 12 9q8 0 14 -10t10 -23.5t5.5 -26.5t1.5 -19q0 -32 -12.5 -60.5t-36 -49.5t-57.5 -33t-78 -12q-57 0 -98 19.5t-67.5 55.5t-38.5 87t-12 115zM177 773q0 34 20 52.5t53 18.5q35 0 53.5 -18.5t18.5 -52.5q0 -33 -18.5 -50
t-53.5 -17q-33 0 -53 17t-20 50z" />
    <glyph glyph-name="Ccaron" unicode="&#x10c;" horiz-adv-x="562" 
d="M32 321q0 97 18.5 181t54 145.5t88 97t120.5 35.5q59 0 100 -25t66.5 -64t37 -87.5t11.5 -95.5q0 -17 -6.5 -30t-22.5 -24q-4 -5 -14 -11t-21 -11.5t-21.5 -9t-16.5 -3.5q-14 0 -14 18q0 8 0.5 19t0.5 19q0 33 -5 67.5t-17.5 62t-33 45.5t-51.5 18q-34 0 -61.5 -23.5
t-46.5 -66.5t-29 -101.5t-10 -129.5q0 -116 36.5 -175.5t118.5 -59.5q71 0 114.5 43t63.5 115q5 12 14 12q14 0 24 -20t10 -60q0 -41 -13.5 -80t-42.5 -69.5t-75 -49t-111 -18.5q-130 0 -198 85.5t-68 250.5zM141 990q0 6 7 11t16.5 8.5t19 6t13.5 2.5q6 0 10.5 -2t9.5 -10
q22 -26 37 -41t25.5 -23t17 -10.5t10.5 -2.5t10 2.5t16.5 10.5t26 23.5t38.5 41.5q5 6 9 8.5t10 2.5q5 0 14 -2t18 -6t15.5 -9.5t6.5 -11.5q0 -12 -18.5 -36.5t-42.5 -50.5t-47.5 -49t-33.5 -32q-7 -6 -12 -7.5t-10 -1.5t-10.5 1.5t-12.5 7.5q-18 14 -38.5 33t-40 41
t-35.5 43.5t-25 39.5q-4 8 -4 12z" />
    <glyph glyph-name="ccaron" unicode="&#x10d;" horiz-adv-x="450" 
d="M28 266q0 93 17.5 160.5t48.5 111t73.5 64t91.5 20.5q41 0 71 -14.5t50 -40t30 -60t10 -74.5q0 -17 -8 -32.5t-20.5 -27t-26.5 -18.5t-26 -7q-17 0 -18 17q-2 29 -5 56.5t-10 48.5t-20 34t-37 13q-45 0 -75 -57t-30 -165q0 -41 5 -76.5t18 -61.5t34.5 -41t54.5 -15
q28 0 48.5 9t36 25t26.5 36.5t18 42.5q3 9 12 9q8 0 14 -10t10 -23.5t5.5 -26.5t1.5 -19q0 -32 -12.5 -60.5t-36 -49.5t-57.5 -33t-78 -12q-57 0 -98 19.5t-67.5 55.5t-38.5 87t-12 115zM84 850q0 6 7 11t16.5 8.5t19 6t13.5 2.5q6 0 10.5 -2t9.5 -10q22 -26 37 -41
t25.5 -23t17 -10.5t10.5 -2.5t10 2.5t16.5 10.5t26 23.5t38.5 41.5q5 6 9 8.5t10 2.5q5 0 14 -2t18 -6t15.5 -9.5t6.5 -11.5q0 -12 -18.5 -36.5t-42.5 -50.5t-47.5 -49t-33.5 -32q-7 -6 -12 -7.5t-10 -1.5t-10.5 1.5t-12.5 7.5q-18 14 -38.5 33t-40 41t-35.5 43.5t-25 39.5
q-4 8 -4 12z" />
    <glyph glyph-name="Dcaron" unicode="&#x10e;" horiz-adv-x="636" 
d="M61 327q0 156 11.5 256t22.5 157q6 21 23 23q20 2 42.5 2.5t44.5 0.5q94 0 167 -24t123 -77t76 -137.5t26 -204.5q0 -71 -17 -130.5t-56 -103t-101 -67.5t-152 -24q-53 0 -97 0.5t-58 1.5q-23 1 -30 15q-5 11 -9.5 32t-8 57t-5.5 90.5t-2 132.5zM215 118q8 -9 19.5 -11.5
t22.5 -2.5q107 0 162 57t55 179q0 81 -16.5 140.5t-46 98.5t-70.5 57.5t-90 18.5q-8 0 -17 -3t-15 -9q-10 -10 -16.5 -35.5t-10.5 -63t-5.5 -85t-1.5 -103.5q0 -94 5 -156.5t25 -81.5zM144 976q0 6 7 11t16.5 8.5t19 6t13.5 2.5q6 0 10.5 -2t9.5 -10q22 -26 37 -41t25.5 -23
t17 -10.5t10.5 -2.5t10 2.5t16.5 10.5t26 23.5t38.5 41.5q5 6 9 8.5t10 2.5q5 0 14 -2t18 -6t15.5 -9.5t6.5 -11.5q0 -12 -18.5 -36.5t-42.5 -50.5t-47.5 -49t-33.5 -32q-7 -6 -12 -7.5t-10 -1.5t-10.5 1.5t-12.5 7.5q-18 14 -38.5 33t-40 41t-35.5 43.5t-25 39.5
q-4 8 -4 12z" />
    <glyph glyph-name="dcaron" unicode="&#x10f;" horiz-adv-x="588" 
d="M34 273q0 176 51 262.5t134 86.5q20 0 37 -5t31.5 -13t27.5 -16.5t24 -16.5q5 -3 10 -3q10 0 10 14q0 33 -3.5 67t-7.5 63.5t-7.5 52t-3.5 31.5q0 11 5 15.5t14 5.5q8 1 17 1h18h21t21 -2q10 -2 16 -7t8 -23q4 -32 8 -80.5t7 -106.5t5 -122.5t2 -128.5q0 -85 -5 -162.5
t-13 -134.5q-2 -11 -8 -19.5t-18 -13.5q-21 -8 -64 -16t-106 -8q-62 0 -106 19t-71.5 55t-40.5 87.5t-13 117.5zM150 289q0 -55 8 -92t23 -59.5t37 -32t50 -9.5q32 0 51.5 7t30 32t14 73.5t3.5 132.5q0 48 -10 82.5t-26.5 56.5t-36 32.5t-39.5 10.5q-24 0 -43.5 -13
t-33 -41.5t-21 -73t-7.5 -106.5zM509 753q0 8 8.5 20.5t20 24.5t24.5 20.5t22 8.5q14 0 30 -27.5t16 -75.5q0 -46 -11 -78t-25.5 -52t-29 -29t-22.5 -9q-14 0 -14 15q0 11 9.5 30.5t9.5 48.5q0 22 -8 43t-24 44q-6 9 -6 16z" />
    <glyph glyph-name="Dcroat" unicode="&#x110;" horiz-adv-x="638" 
d="M-1 374q0 9 0.5 15.5t1.5 14.5q2 12 9 16t24 4q14 1 22 4.5t10 14.5q4 107 12 178.5t19 117.5q3 12 9 17t14 6q20 2 42 2.5t45 0.5q93 0 166 -23t123.5 -75.5t76.5 -137t26 -206.5q0 -71 -17.5 -131t-56 -103t-100 -67t-149.5 -24q-66 0 -105 0.5t-53 1.5q-23 1 -30 15
q-5 11 -9.5 31.5t-8 56t-5.5 86.5t-2 121q0 8 -5.5 12t-25.5 4q-17 0 -23 2.5t-8 11.5q-2 8 -2 16.5v17.5zM212 119q10 -9 22.5 -12t25.5 -3q109 0 163.5 57t54.5 179q0 81 -16.5 140.5t-46.5 98.5t-71.5 57.5t-91.5 18.5q-22 0 -35 -13q-8 -8 -14.5 -27.5t-11 -46
t-6.5 -59.5t-2 -68q0 -19 20 -19h52.5t54.5 -2q20 -1 21 -16q1 -8 1.5 -16.5t0.5 -17.5t-0.5 -17.5t-1.5 -16.5q-1 -10 -5.5 -14.5t-18.5 -4.5q-5 0 -17 1t-26.5 2.5t-30 2.5t-28.5 1q-11 0 -16.5 -5.5t-5.5 -22.5q0 -66 6 -113t23 -64z" />
    <glyph glyph-name="dcroat" unicode="&#x111;" horiz-adv-x="534" 
d="M34 273q0 161 51.5 240.5t135.5 79.5q40 0 71 -15.5t50 -34.5q4 -4 10 -4q10 0 10 15q0 23 -1.5 47t-3.5 45q-1 15 -14 15q-44 0 -81.5 -1t-45.5 -1q-23 0 -26 19q-1 5 -1 10v11q0 8 0.5 16.5t3.5 15.5t8.5 12t15.5 5h11t18 -0.5t32.5 -1t52.5 -0.5q11 0 11 12
q0 8 -2.5 21.5t-2.5 20.5q0 11 5 14.5t14 4.5q8 1 17 1.5t18 0.5h21t21 -2q10 -2 15.5 -6.5t7.5 -20.5q1 -7 2 -14.5t2 -17.5q1 -7 4 -11t11 -4h33q16 0 21 -11.5t5 -31.5q0 -22 -6 -30t-20 -10h-25q-8 0 -11 -2.5t-3 -10.5q0 -10 1.5 -35.5t3 -63.5t3 -88t1.5 -109
q0 -87 -4.5 -166t-12.5 -136q-2 -11 -8 -19.5t-18 -13.5q-21 -8 -64 -16t-106 -8q-62 0 -106 19t-71.5 55t-40.5 87.5t-13 117.5zM268 96q32 0 51.5 7t30 29.5t14 63.5t3.5 109q0 54 -10 90t-25.5 58t-35 31.5t-39.5 9.5q-49 0 -78 -49t-29 -160q0 -54 8 -90t23 -58
t37 -31.5t50 -9.5z" />
    <glyph glyph-name="Emacron" unicode="&#x112;" horiz-adv-x="554" 
d="M59 184q0 67 2 137.5t8 141.5t15.5 140.5t24.5 132.5q6 26 27 27q24 2 68.5 3.5t94.5 1.5q60 0 117.5 -2t93.5 -4q19 -1 19 -14q0 -5 -2.5 -16.5t-6 -25t-8 -27.5t-8.5 -24q-5 -11 -16 -11q-5 0 -10.5 2t-13.5 4q-25 8 -65.5 14.5t-105.5 6.5q-30 0 -45.5 -4.5
t-24.5 -15.5q-8 -9 -14 -29t-10 -45.5t-6 -53t-2 -53.5q0 -19 6.5 -26t21.5 -7q26 0 65 8.5t93 8.5q34 0 58 -6.5t24 -22.5q0 -6 -1.5 -15.5t-4 -20.5t-5.5 -22t-6 -19q-4 -9 -8 -11.5t-10 -2.5t-17 3t-26.5 6t-34 6t-39.5 3q-69 0 -98 -24.5t-29 -89.5q0 -46 3 -73t11 -41
t22.5 -18t37.5 -4q73 0 131.5 10.5t96.5 21.5q8 2 11.5 3.5t8.5 1.5q10 0 16 -15.5t9.5 -35.5t4.5 -38.5t1 -25.5q0 -21 -26 -23q-46 -3 -96 -3.5t-101 -0.5q-60 0 -115 0.5t-98 2.5q-17 1 -25.5 6t-9.5 23q-3 72 -3 155zM158 901v12t1 12q2 12 8 16t18 5q19 2 43.5 2h51.5
q45 0 90.5 -0.5t74.5 -2.5q24 -2 29 -13t5 -31v-12.5t-2 -14.5q-2 -13 -8.5 -17.5t-23.5 -6.5q-20 -2 -44.5 -2.5t-50.5 -0.5q-43 0 -86 1.5t-73 3.5q-17 2 -23.5 7t-8.5 16q-1 5 -1 12v14z" />
    <glyph glyph-name="emacron" unicode="&#x113;" horiz-adv-x="480" 
d="M284 621q33 0 62.5 -9.5t51.5 -28t35 -47t13 -67.5q0 -44 -13.5 -74t-36 -51.5t-51 -36t-58 -26t-57.5 -23t-50 -26.5q-28 -18 -28 -42q0 -38 25 -65.5t77 -27.5q57 0 95 27.5t64 84.5q5 6 10 6q9 0 16 -15.5t7 -45.5q0 -38 -16 -68.5t-43 -52t-62.5 -33t-75.5 -11.5
q-61 0 -103.5 22t-68.5 62.5t-38 96.5t-12 123q0 84 20 146t55 102.5t81.5 60t100.5 19.5zM136 329q0 -8 3 -14.5t11 -6.5t13 4q21 16 51.5 31t58 32t47 37.5t19.5 48.5q0 29 -16.5 46t-47.5 17q-33 0 -59 -15.5t-44 -42t-27 -62t-9 -75.5zM104 794q2 12 8 16t18 5
q19 2 43.5 2h51.5q45 0 90.5 -0.5t74.5 -2.5q24 -2 29 -13t5 -31v-12.5t-2 -14.5q-2 -13 -8.5 -17.5t-23.5 -6.5q-20 -2 -44.5 -2.5t-50.5 -0.5q-43 0 -86 1.5t-73 3.5q-17 2 -23.5 7t-8.5 16q-1 5 -1 12v14v12t1 12z" />
    <glyph glyph-name="Ebreve" unicode="&#x114;" horiz-adv-x="554" 
d="M109 736q6 26 27 27q24 2 68.5 3.5t94.5 1.5q60 0 117.5 -2t93.5 -4q19 -1 19 -14q0 -5 -2.5 -16.5t-6 -25t-8 -27.5t-8.5 -24q-5 -11 -16 -11q-5 0 -10.5 2t-13.5 4q-25 8 -65.5 14.5t-105.5 6.5q-30 0 -45.5 -4.5t-24.5 -15.5q-8 -9 -14 -29t-10 -45.5t-6 -53t-2 -53.5
q0 -19 6.5 -26t21.5 -7q26 0 65 8.5t93 8.5q34 0 58 -6.5t24 -22.5q0 -6 -1.5 -15.5t-4 -20.5t-5.5 -22t-6 -19q-4 -9 -8 -11.5t-10 -2.5t-17 3t-26.5 6t-34 6t-39.5 3q-69 0 -98 -24.5t-29 -89.5q0 -46 3 -73t11 -41t22.5 -18t37.5 -4q73 0 131.5 10.5t96.5 21.5
q8 2 11.5 3.5t8.5 1.5q10 0 16 -15.5t9.5 -35.5t4.5 -38.5t1 -25.5q0 -21 -26 -23q-46 -3 -96 -3.5t-101 -0.5q-60 0 -115 0.5t-98 2.5q-17 1 -25.5 6t-9.5 23q-3 72 -3 155q0 67 2.5 137.5t8.5 141.5t15.5 140t23.5 133zM201 985q26 0 35 -4.5t11 -21.5q2 -28 19 -42.5
t53 -14.5q38 0 55 14.5t22 44.5q2 16 10 20t30 4q23 0 31 -5.5t8 -24.5q0 -29 -8 -54t-26.5 -43t-48.5 -28.5t-74 -10.5q-43 0 -72.5 10t-48 28t-27 42.5t-8.5 53.5q0 20 8 26t31 6z" />
    <glyph glyph-name="ebreve" unicode="&#x115;" horiz-adv-x="480" 
d="M284 621q33 0 62.5 -9.5t51.5 -28t35 -47t13 -67.5q0 -44 -13.5 -74t-36 -51.5t-51 -36t-58 -26t-57.5 -23t-50 -26.5q-28 -18 -28 -42q0 -38 25 -65.5t77 -27.5q57 0 95 27.5t64 84.5q5 6 10 6q9 0 16 -15.5t7 -45.5q0 -38 -16 -68.5t-43 -52t-62.5 -33t-75.5 -11.5
q-61 0 -103.5 22t-68.5 62.5t-38 96.5t-12 123q0 84 20 146t55 102.5t81.5 60t100.5 19.5zM109 824q0 20 8 26t31 6q26 0 35 -4.5t11 -21.5q2 -28 19 -42.5t53 -14.5q38 0 55 14.5t22 44.5q2 16 10 20t30 4q23 0 31 -5.5t8 -24.5q0 -29 -8 -54t-26.5 -43t-48.5 -28.5
t-74 -10.5q-43 0 -72.5 10t-48 28t-27 42.5t-8.5 53.5zM150 308q8 0 13 4q21 16 51.5 31t58 32t47 37.5t19.5 48.5q0 29 -16.5 46t-47.5 17q-33 0 -59 -15.5t-44 -42t-27 -62t-9 -75.5q0 -8 3 -14.5t11 -6.5z" />
    <glyph glyph-name="Edotaccent" unicode="&#x116;" horiz-adv-x="554" 
d="M59 184q0 67 2 137.5t8 141.5t15.5 140.5t24.5 132.5q6 26 27 27q24 2 68.5 3.5t94.5 1.5q60 0 117.5 -2t93.5 -4q19 -1 19 -14q0 -5 -2.5 -16.5t-6 -25t-8 -27.5t-8.5 -24q-5 -11 -16 -11q-5 0 -10.5 2t-13.5 4q-25 8 -65.5 14.5t-105.5 6.5q-30 0 -45.5 -4.5
t-24.5 -15.5q-8 -9 -14 -29t-10 -45.5t-6 -53t-2 -53.5q0 -19 6.5 -26t21.5 -7q26 0 65 8.5t93 8.5q34 0 58 -6.5t24 -22.5q0 -6 -1.5 -15.5t-4 -20.5t-5.5 -22t-6 -19q-4 -9 -8 -11.5t-10 -2.5t-17 3t-26.5 6t-34 6t-39.5 3q-69 0 -98 -24.5t-29 -89.5q0 -46 3 -73t11 -41
t22.5 -18t37.5 -4q73 0 131.5 10.5t96.5 21.5q8 2 11.5 3.5t8.5 1.5q10 0 16 -15.5t9.5 -35.5t4.5 -38.5t1 -25.5q0 -21 -26 -23q-46 -3 -96 -3.5t-101 -0.5q-60 0 -115 0.5t-98 2.5q-17 1 -25.5 6t-9.5 23q-3 72 -3 155zM319 975q35 0 53.5 -18.5t18.5 -52.5
q0 -33 -18.5 -50t-53.5 -17q-33 0 -53 17t-20 50q0 34 20 52.5t53 18.5z" />
    <glyph glyph-name="edotaccent" unicode="&#x117;" horiz-adv-x="480" 
d="M284 621q33 0 62.5 -9.5t51.5 -28t35 -47t13 -67.5q0 -44 -13.5 -74t-36 -51.5t-51 -36t-58 -26t-57.5 -23t-50 -26.5q-28 -18 -28 -42q0 -38 25 -65.5t77 -27.5q57 0 95 27.5t64 84.5q5 6 10 6q9 0 16 -15.5t7 -45.5q0 -38 -16 -68.5t-43 -52t-62.5 -33t-75.5 -11.5
q-61 0 -103.5 22t-68.5 62.5t-38 96.5t-12 123q0 84 20 146t55 102.5t81.5 60t100.5 19.5zM150 308q8 0 13 4q21 16 51.5 31t58 32t47 37.5t19.5 48.5q0 29 -16.5 46t-47.5 17q-33 0 -59 -15.5t-44 -42t-27 -62t-9 -75.5q0 -8 3 -14.5t11 -6.5zM196 773q0 34 20 52.5
t53 18.5q35 0 53.5 -18.5t18.5 -52.5q0 -33 -18.5 -50t-53.5 -17q-33 0 -53 17t-20 50z" />
    <glyph glyph-name="Eogonek" unicode="&#x118;" horiz-adv-x="554" 
d="M109 736q6 26 27 27q24 2 68.5 3.5t95.5 1.5q59 0 116.5 -2t93.5 -4q19 -1 19 -14q0 -6 -2.5 -17.5t-6 -25t-8 -27t-8.5 -23.5q-5 -11 -17 -11q-3 0 -8 1.5t-10 3.5q-26 8 -68.5 15t-107.5 7q-30 0 -45.5 -4.5t-24.5 -15.5q-8 -9 -14 -29t-10 -45.5t-6 -53t-2 -53.5
q0 -19 6.5 -26t21.5 -7q26 0 63.5 8.5t91.5 8.5q7 0 21 -0.5t28.5 -3t25 -8.5t10.5 -17q0 -5 -1.5 -14.5t-4 -20.5t-5.5 -22.5t-6 -19.5q-4 -9 -8 -11.5t-10 -2.5t-17.5 3t-27 6t-34 6t-38.5 3q-69 0 -98 -24.5t-29 -89.5q0 -46 3 -72.5t11 -40t22.5 -17t37.5 -3.5
q28 0 59.5 6.5t62 18.5t58 29.5t47.5 39.5q6 7 10.5 9t9.5 2q8 0 14 -14t10 -32t6 -35t2 -23q0 -18 -22 -29q-27 -14 -47.5 -33.5t-20.5 -41.5q0 -15 9 -24.5t30 -9.5q20 0 28 5.5t19 5.5q14 0 14 -14q0 -10 -7.5 -20.5t-20.5 -19.5t-31.5 -14.5t-41.5 -5.5
q-44 0 -64.5 15.5t-20.5 39.5q0 15 5.5 25.5t11.5 18t11.5 13t5.5 9.5q0 3 -2 6t-7 3q-8 0 -30.5 -5.5t-59 -12t-86.5 -12t-113 -5.5q-14 0 -22 6t-9 23q-3 69 -3 154q0 67 2.5 138t8.5 141.5t15.5 140t23.5 133.5z" />
    <glyph glyph-name="eogonek" unicode="&#x119;" horiz-adv-x="480" 
d="M27 328q0 76 20 131t55 91t81.5 53.5t100.5 17.5q33 0 62.5 -9t51.5 -28t35 -47t13 -67q0 -37 -13.5 -63.5t-35.5 -44.5t-50.5 -30.5t-58 -22.5t-58 -19.5t-50.5 -22.5q-28 -14 -28 -41q0 -32 25 -54.5t77 -22.5q57 0 95 27.5t64 84.5q5 6 10 6q9 0 16 -16t7 -45
q0 -43 -17 -71.5t-37.5 -50t-37.5 -40.5t-17 -43q0 -14 9.5 -23.5t30.5 -9.5q19 0 27.5 5.5t18.5 5.5q14 0 14 -14q0 -10 -7 -20.5t-20 -19.5t-31 -14.5t-40 -5.5q-45 0 -65.5 17t-20.5 40q0 16 6 26.5t13 18t13 13t6 11.5q0 10 -12 10q-69 0 -117 18.5t-78 55t-43.5 90
t-13.5 123.5zM136 363q0 -9 3 -15.5t11 -6.5q6 0 13 4q21 13 51 24.5t58 25t47.5 30t19.5 38.5q0 29 -16.5 46t-47.5 17q-34 0 -60 -13.5t-43.5 -36t-26.5 -52t-9 -61.5z" />
    <glyph glyph-name="Ecaron" unicode="&#x11a;" horiz-adv-x="554" 
d="M59 184q0 67 2 137.5t8 141.5t15.5 140.5t24.5 132.5q6 26 27 27q24 2 68.5 3.5t94.5 1.5q60 0 117.5 -2t93.5 -4q19 -1 19 -14q0 -5 -2.5 -16.5t-6 -25t-8 -27.5t-8.5 -24q-5 -11 -16 -11q-5 0 -10.5 2t-13.5 4q-25 8 -65.5 14.5t-105.5 6.5q-30 0 -45.5 -4.5
t-24.5 -15.5q-8 -9 -14 -29t-10 -45.5t-6 -53t-2 -53.5q0 -19 6.5 -26t21.5 -7q26 0 65 8.5t93 8.5q34 0 58 -6.5t24 -22.5q0 -6 -1.5 -15.5t-4 -20.5t-5.5 -22t-6 -19q-4 -9 -8 -11.5t-10 -2.5t-17 3t-26.5 6t-34 6t-39.5 3q-69 0 -98 -24.5t-29 -89.5q0 -46 3 -73t11 -41
t22.5 -18t37.5 -4q73 0 131.5 10.5t96.5 21.5q8 2 11.5 3.5t8.5 1.5q10 0 16 -15.5t9.5 -35.5t4.5 -38.5t1 -25.5q0 -21 -26 -23q-46 -3 -96 -3.5t-101 -0.5q-60 0 -115 0.5t-98 2.5q-17 1 -25.5 6t-9.5 23q-3 72 -3 155zM153 978q0 6 7 11t16.5 8.5t19 6t13.5 2.5
q6 0 10.5 -2t9.5 -10q22 -26 37 -41t25.5 -23t17 -10.5t10.5 -2.5t10 2.5t16.5 10.5t26 23.5t38.5 41.5q5 6 9 8.5t10 2.5q5 0 14 -2t18 -6t15.5 -9.5t6.5 -11.5q0 -12 -18.5 -36.5t-42.5 -50.5t-47.5 -49t-33.5 -32q-7 -6 -12 -7.5t-10 -1.5t-10.5 1.5t-12.5 7.5
q-18 14 -38.5 33t-40 41t-35.5 43.5t-25 39.5q-4 8 -4 12z" />
    <glyph glyph-name="ecaron" unicode="&#x11b;" horiz-adv-x="480" 
d="M284 621q33 0 62.5 -9.5t51.5 -28t35 -47t13 -67.5q0 -44 -13.5 -74t-36 -51.5t-51 -36t-58 -26t-57.5 -23t-50 -26.5q-28 -18 -28 -42q0 -38 25 -65.5t77 -27.5q57 0 95 27.5t64 84.5q5 6 10 6q9 0 16 -15.5t7 -45.5q0 -38 -16 -68.5t-43 -52t-62.5 -33t-75.5 -11.5
q-61 0 -103.5 22t-68.5 62.5t-38 96.5t-12 123q0 84 20 146t55 102.5t81.5 60t100.5 19.5zM156 878q6 0 10.5 -2t9.5 -10q22 -26 37 -41t25.5 -23t17 -10.5t10.5 -2.5t10 2.5t16.5 10.5t26 23.5t38.5 41.5q5 6 9 8.5t10 2.5q5 0 14 -2t18 -6t15.5 -9.5t6.5 -11.5
q0 -12 -18.5 -36.5t-42.5 -50.5t-47.5 -49t-33.5 -32q-7 -6 -12 -7.5t-10 -1.5t-10.5 1.5t-12.5 7.5q-18 14 -38.5 33t-40 41t-35.5 43.5t-25 39.5q-4 8 -4 12q0 6 7 11t16.5 8.5t19 6t13.5 2.5zM150 308q8 0 13 4q21 16 51.5 31t58 32t47 37.5t19.5 48.5q0 29 -16.5 46
t-47.5 17q-33 0 -59 -15.5t-44 -42t-27 -62t-9 -75.5q0 -8 3 -14.5t11 -6.5z" />
    <glyph glyph-name="Gcircumflex" unicode="&#x11c;" horiz-adv-x="628" 
d="M43 305q0 98 20.5 184t59.5 150t96.5 101t131.5 37q50 0 87 -16.5t62 -42.5t37.5 -58t12.5 -63q0 -17 -6 -27.5t-17 -21.5q-8 -8 -19 -16t-22.5 -15t-21.5 -11t-16 -4q-16 0 -16 17q0 7 0.5 13t0.5 12q0 19 -5.5 40.5t-16.5 39.5t-29 30t-44 12q-35 0 -66 -23t-54 -66
t-36.5 -105t-13.5 -140q0 -65 12 -109.5t33.5 -71.5t52 -39t67.5 -12q129 0 129 120q0 36 -13 53t-54 20q-22 1 -22 21q0 9 1 14t6 8.5t14.5 6.5t25.5 6q51 12 83.5 26t48.5 14q8 0 13.5 -5t6.5 -16q1 -42 3 -85.5t2 -89.5q0 -96 -62 -151.5t-186 -55.5q-72 0 -125.5 22
t-89.5 63t-53.5 100t-17.5 134zM309 1012q12 9 23 9q14 0 38 -21.5t49 -49.5t46 -55.5t28 -39.5q2 -4 3 -7t1 -6q0 -6 -12 -14q-10 -5 -21.5 -9t-22.5 -4q-10 0 -20 11q-23 26 -38.5 41.5t-25 23.5t-15.5 10.5t-10 2.5t-9.5 -3t-15.5 -11t-25.5 -23.5l-40.5 -40.5
q-5 -5 -9.5 -8t-10.5 -3q-9 0 -21 4t-22 9q-11 7 -11 15t8.5 21.5t22 31t30 35.5t32.5 34.5t29 29t20 17.5z" />
    <glyph glyph-name="gcircumflex" unicode="&#x11d;" horiz-adv-x="522" 
d="M28 104q0 28 7 51t17.5 42t23.5 34.5t26 28.5q9 9 9 18q0 10 -6 15q-23 19 -42 54t-19 90q0 85 56.5 135t157.5 50q25 0 44 -2.5t34.5 -7t28.5 -10.5l26 -12q5 -2 8 -3.5t8 -1.5q13 0 28 19q12 15 24 15q6 0 15.5 -6t18.5 -15t15.5 -18.5t6.5 -16.5q0 -11 -10 -18
q-10 -10 -16 -16.5t-9 -12t-4 -10.5t-1 -11q0 -11 3 -25.5t3 -33.5q0 -43 -13 -78t-39.5 -60.5t-67.5 -39.5t-97 -14q-38 0 -63.5 -10t-41 -25.5t-22 -34.5t-6.5 -36q0 -24 10.5 -33.5t30.5 -9.5q21 0 43 8t46.5 17.5t52 17.5t58.5 8q14 0 33 -2t36 -8.5t29 -18t12 -30.5
q0 -6 -2 -16.5t-6 -22t-8.5 -22t-9.5 -18.5q-10 -19 -26 -19q-7 0 -14 7q-17 17 -36.5 27.5t-46.5 10.5q-22 0 -42 -7.5t-41 -17t-45 -17t-55 -7.5q-59 0 -90.5 30t-31.5 89zM262 337q45 0 76 26.5t31 71.5q0 40 -27 68t-77 28q-51 0 -78.5 -28.5t-27.5 -69.5
q0 -42 28.5 -69t74.5 -27zM249 873q12 9 23 9q14 0 38 -21.5t49 -49.5t46 -55.5t28 -39.5q2 -4 3 -7t1 -6q0 -6 -12 -14q-10 -5 -21.5 -9t-22.5 -4q-10 0 -20 11q-23 26 -38.5 41.5t-25 23.5t-15.5 10.5t-10 2.5t-9.5 -3t-15.5 -11t-25.5 -23.5l-40.5 -40.5q-5 -5 -9.5 -8
t-10.5 -3q-9 0 -21 4t-22 9q-11 7 -11 15t8.5 21.5t22 31t30 35.5t32.5 34.5t29 29t20 17.5z" />
    <glyph glyph-name="Gbreve" unicode="&#x11e;" horiz-adv-x="628" 
d="M43 305q0 98 20.5 184t59.5 150t96.5 101t131.5 37q50 0 87 -16.5t62 -42.5t37.5 -58t12.5 -63q0 -17 -6 -27.5t-17 -21.5q-8 -8 -19 -16t-22.5 -15t-21.5 -11t-16 -4q-16 0 -16 17q0 7 0.5 13t0.5 12q0 19 -5.5 40.5t-16.5 39.5t-29 30t-44 12q-35 0 -66 -23t-54 -66
t-36.5 -105t-13.5 -140q0 -65 12 -109.5t33.5 -71.5t52 -39t67.5 -12q129 0 129 120q0 36 -13 53t-54 20q-22 1 -22 21q0 9 1 14t6 8.5t14.5 6.5t25.5 6q51 12 83.5 26t48.5 14q8 0 13.5 -5t6.5 -16q1 -42 3 -85.5t2 -89.5q0 -96 -62 -151.5t-186 -55.5q-72 0 -125.5 22
t-89.5 63t-53.5 100t-17.5 134zM176 962q0 20 8 26t31 6q26 0 35 -4.5t11 -21.5q2 -28 19 -42.5t53 -14.5q38 0 55 14.5t22 44.5q2 16 10 20t30 4q23 0 31 -5.5t8 -24.5q0 -29 -8 -54t-26.5 -43t-48.5 -28.5t-74 -10.5q-43 0 -72.5 10t-48 28t-27 42.5t-8.5 53.5z" />
    <glyph glyph-name="gbreve" unicode="&#x11f;" horiz-adv-x="522" 
d="M28 104q0 28 7 51t17.5 42t23.5 34.5t26 28.5q9 9 9 18q0 10 -6 15q-23 19 -42 54t-19 90q0 85 56.5 135t157.5 50q25 0 44 -2.5t34.5 -7t28.5 -10.5l26 -12q5 -2 8 -3.5t8 -1.5q13 0 28 19q12 15 24 15q6 0 15.5 -6t18.5 -15t15.5 -18.5t6.5 -16.5q0 -11 -10 -18
q-10 -10 -16 -16.5t-9 -12t-4 -10.5t-1 -11q0 -11 3 -25.5t3 -33.5q0 -43 -13 -78t-39.5 -60.5t-67.5 -39.5t-97 -14q-38 0 -63.5 -10t-41 -25.5t-22 -34.5t-6.5 -36q0 -24 10.5 -33.5t30.5 -9.5q21 0 43 8t46.5 17.5t52 17.5t58.5 8q14 0 33 -2t36 -8.5t29 -18t12 -30.5
q0 -6 -2 -16.5t-6 -22t-8.5 -22t-9.5 -18.5q-10 -19 -26 -19q-7 0 -14 7q-17 17 -36.5 27.5t-46.5 10.5q-22 0 -42 -7.5t-41 -17t-45 -17t-55 -7.5q-59 0 -90.5 30t-31.5 89zM154 854q26 0 35 -4.5t11 -21.5q2 -28 19 -42.5t53 -14.5q38 0 55 14.5t22 44.5q2 16 10 20t30 4
q23 0 31 -5.5t8 -24.5q0 -29 -8 -54t-26.5 -43t-48.5 -28.5t-74 -10.5q-43 0 -72.5 10t-48 28t-27 42.5t-8.5 53.5q0 20 8 26t31 6zM262 337q45 0 76 26.5t31 71.5q0 40 -27 68t-77 28q-51 0 -78.5 -28.5t-27.5 -69.5q0 -42 28.5 -69t74.5 -27z" />
    <glyph glyph-name="Gdotaccent" unicode="&#x120;" horiz-adv-x="628" 
d="M351 777q50 0 87 -16.5t62 -42.5t37.5 -58t12.5 -63q0 -17 -6 -27.5t-17 -21.5q-8 -8 -19 -16t-22.5 -15t-21.5 -11t-16 -4q-16 0 -16 17q0 7 0.5 13t0.5 12q0 19 -5.5 40.5t-16.5 39.5t-29 30t-44 12q-35 0 -66 -23t-54 -66t-36.5 -105t-13.5 -140q0 -65 12 -109.5
t33.5 -71.5t52 -39t67.5 -12q129 0 129 120q0 36 -13 53t-54 20q-22 1 -22 21q0 9 1 14t6 8.5t14.5 6.5t25.5 6q51 12 83.5 26t48.5 14q8 0 13.5 -5t6.5 -16q1 -42 3 -85.5t2 -89.5q0 -96 -62 -151.5t-186 -55.5q-72 0 -125.5 22t-89.5 63t-53.5 100t-17.5 134
q0 98 20.5 184t59.5 150t96.5 101t131.5 37zM260 912q0 34 20 52.5t53 18.5q35 0 53.5 -18.5t18.5 -52.5q0 -33 -18.5 -50t-53.5 -17q-33 0 -53 17t-20 50z" />
    <glyph glyph-name="gdotaccent" unicode="&#x121;" horiz-adv-x="522" 
d="M28 104q0 28 7 51t17.5 42t23.5 34.5t26 28.5q9 9 9 18q0 10 -6 15q-23 19 -42 54t-19 90q0 85 56.5 135t157.5 50q25 0 44 -2.5t34.5 -7t28.5 -10.5l26 -12q5 -2 8 -3.5t8 -1.5q13 0 28 19q12 15 24 15q6 0 15.5 -6t18.5 -15t15.5 -18.5t6.5 -16.5q0 -11 -10 -18
q-10 -10 -16 -16.5t-9 -12t-4 -10.5t-1 -11q0 -11 3 -25.5t3 -33.5q0 -43 -13 -78t-39.5 -60.5t-67.5 -39.5t-97 -14q-38 0 -63.5 -10t-41 -25.5t-22 -34.5t-6.5 -36q0 -24 10.5 -33.5t30.5 -9.5q21 0 43 8t46.5 17.5t52 17.5t58.5 8q14 0 33 -2t36 -8.5t29 -18t12 -30.5
q0 -6 -2 -16.5t-6 -22t-8.5 -22t-9.5 -18.5q-10 -19 -26 -19q-7 0 -14 7q-17 17 -36.5 27.5t-46.5 10.5q-22 0 -42 -7.5t-41 -17t-45 -17t-55 -7.5q-59 0 -90.5 30t-31.5 89zM159 433q0 -42 28.5 -69t74.5 -27q45 0 76 26.5t31 71.5q0 40 -27 68t-77 28q-51 0 -78.5 -28.5
t-27.5 -69.5zM273 844q35 0 53.5 -18.5t18.5 -52.5q0 -33 -18.5 -50t-53.5 -17q-33 0 -53 17t-20 50q0 34 20 52.5t53 18.5z" />
    <glyph glyph-name="uni0122" unicode="&#x122;" horiz-adv-x="628" 
d="M43 360q0 87 20 163t59 132.5t96 89t130 32.5q51 0 88.5 -14.5t63 -37t38 -51t12.5 -55.5q0 -15 -6 -24.5t-17 -19.5q-8 -7 -19.5 -14t-23 -12.5t-21.5 -9t-15 -3.5q-16 0 -16 15q0 6 0.5 11t0.5 10q0 17 -5.5 36t-16.5 35.5t-29 27t-44 10.5q-35 0 -66 -20.5t-54 -58.5
t-36.5 -93.5t-13.5 -124.5q0 -58 12 -97.5t33.5 -63.5t52 -34.5t67.5 -10.5q130 0 130 107q0 32 -13 45.5t-53 19.5q-11 2 -15.5 5.5t-4.5 13.5q0 11 4.5 16t18.5 9q20 5 42.5 12t43.5 13t38.5 10.5t26.5 4.5q8 0 14 -4.5t7 -13.5q1 -37 3 -75.5t2 -78.5q0 -85 -62 -134
t-186 -49q-145 0 -215.5 72.5t-70.5 208.5zM253 -8q0 6 6 14t16 15t22 11.5t24 4.5q23 0 39 -20.5t16 -55.5q0 -37 -27 -60.5t-63 -23.5q-17 0 -17 15q0 8 5.5 17.5t5.5 23.5q0 11 -4 20t-12 18q-11 13 -11 21z" />
    <glyph glyph-name="uni0123" unicode="&#x123;" horiz-adv-x="522" 
d="M28 104q0 28 7 51t17.5 42t23.5 34.5t26 28.5q9 9 9 18q0 10 -6 15q-23 19 -42 54t-19 90q0 85 56.5 135t157.5 50q25 0 44 -2.5t34.5 -7t28.5 -10.5l26 -12q5 -2 8 -3.5t8 -1.5q13 0 28 19q12 15 24 15q6 0 15.5 -6t18.5 -15t15.5 -18.5t6.5 -16.5q0 -11 -10 -18
q-10 -10 -16 -16.5t-9 -12t-4 -10.5t-1 -11q0 -11 3 -25.5t3 -33.5q0 -43 -13 -78t-39.5 -60.5t-67.5 -39.5t-97 -14q-38 0 -63.5 -10t-41 -25.5t-22 -34.5t-6.5 -36q0 -24 10.5 -33.5t30.5 -9.5q21 0 43 8t46.5 17.5t52 17.5t58.5 8q14 0 33 -2t36 -8.5t29 -18t12 -30.5
q0 -6 -2 -16.5t-6 -22t-8.5 -22t-9.5 -18.5q-10 -19 -26 -19q-7 0 -14 7q-17 17 -36.5 27.5t-46.5 10.5q-22 0 -42 -7.5t-41 -17t-45 -17t-55 -7.5q-59 0 -90.5 30t-31.5 89zM262 337q45 0 76 26.5t31 71.5q0 40 -27 68t-77 28q-51 0 -78.5 -28.5t-27.5 -69.5
q0 -42 28.5 -69t74.5 -27zM294 835q17 0 17 -15q0 -8 -5.5 -17.5t-5.5 -23.5q0 -11 4 -20t12 -18q11 -13 11 -21q0 -6 -6 -14t-16 -15t-22 -11.5t-24 -4.5q-23 0 -39 20.5t-16 55.5q0 37 27 60.5t63 23.5z" />
    <glyph glyph-name="Hcircumflex" unicode="&#x124;" horiz-adv-x="675" 
d="M61 327q0 170 13.5 274t22.5 136q4 14 9 18.5t12 6.5q11 2 23.5 3t24.5 1q13 0 25 -0.5t21 -2.5q11 -3 11 -19q0 -9 -5.5 -38.5t-11.5 -71.5t-11.5 -91.5t-5.5 -98.5q0 -22 17 -25q19 -1 51.5 6.5t88.5 7.5q27 0 48 -3t36.5 -6t25.5 -5t16 -1q15 3 15 28q0 55 -4.5 104
t-10 88t-10 67t-4.5 40q0 17 13 18q10 1 20.5 2t20.5 1h22t23 -2q10 -2 15.5 -7t9.5 -19q9 -32 20.5 -136t11.5 -275q0 -51 -2 -98.5t-5 -87t-6.5 -68.5t-6.5 -43q-4 -17 -10 -23t-17 -7t-22 -1.5t-22 -0.5h-22t-23 2q-9 2 -13.5 5.5t-4.5 13.5q0 11 4 38.5t8.5 62t8 69.5
t3.5 60q0 88 -130 88q-48 0 -79.5 -6.5t-51 -19.5t-27.5 -31.5t-8 -42.5q0 -33 4 -68t8.5 -65t8.5 -53t4 -32q0 -10 -3.5 -13.5t-11.5 -5.5q-12 -1 -23 -1h-23t-24.5 1t-24.5 3q-9 2 -13.5 7t-8.5 20q-3 14 -6.5 43t-6.5 68.5t-5 87t-2 98.5zM173 834q0 13 18 38t42 51
t47.5 48.5t34.5 31.5q12 9 23 9q14 0 38 -21.5t49 -49.5t46 -55.5t28 -39.5q2 -4 3 -7t1 -6q0 -6 -12 -14q-10 -5 -21.5 -9t-22.5 -4q-10 0 -20 11q-23 26 -38.5 41.5t-25 23.5t-15.5 10.5t-10 2.5t-9.5 -3t-15.5 -11t-25.5 -23.5l-40.5 -40.5q-5 -5 -9.5 -8t-10.5 -3
q-9 0 -21 4t-22 9q-11 7 -11 15z" />
    <glyph glyph-name="hcircumflex" unicode="&#x125;" horiz-adv-x="537" 
d="M94 784q3 17 9.5 23.5t17.5 8.5q21 3 44 3h18t20 -2q15 -2 15 -19q0 -10 -6 -32t-12.5 -50t-12.5 -57t-6 -52q0 -24 16 -24q9 0 22 6t30.5 13.5t40 13.5t51.5 6q36 0 64.5 -12t48 -39.5t29.5 -73t10 -113.5q0 -53 -2.5 -108t-6 -103.5t-7 -86t-6.5 -55.5
q-2 -16 -10 -22.5t-20 -8.5q-5 -1 -13.5 -1h-17.5h-21.5t-18.5 1q-24 2 -24 21q0 9 4.5 43t9.5 80.5t9.5 99.5t4.5 102q0 51 -4.5 84t-14 52t-25 26.5t-37.5 7.5q-24 0 -45.5 -9.5t-38 -31t-26.5 -55.5t-10 -84q0 -47 2 -97t4.5 -93.5t4.5 -76t2 -43.5q0 -14 -6 -19t-17 -6
q-8 -1 -17 -1.5t-18 -0.5q-11 0 -21.5 0.5t-19.5 1.5t-15.5 6.5t-8.5 24.5q-5 54 -7 123t-2 147q0 63 2 128t6.5 127.5t12.5 120t19 106.5zM-3 870q0 13 18 38t42 51t47.5 48.5t34.5 31.5q12 9 23 9q14 0 38 -21.5t49 -49.5t46 -55.5t28 -39.5q2 -4 3 -7t1 -6q0 -6 -12 -14
q-10 -5 -21.5 -9t-22.5 -4q-10 0 -20 11q-23 26 -38.5 41.5t-25 23.5t-15.5 10.5t-10 2.5t-9.5 -3t-15.5 -11t-25.5 -23.5l-40.5 -40.5q-5 -5 -9.5 -8t-10.5 -3q-9 0 -21 4t-22 9q-11 7 -11 15z" />
    <glyph glyph-name="Hbar" unicode="&#x126;" horiz-adv-x="684" 
d="M9 586q1 9 4.5 13t14.5 5q9 1 18.5 1.5t19.5 0.5q15 0 17 18q4 42 9.5 70.5t9.5 42.5t8.5 18.5t12.5 6.5q11 2 23.5 3t24.5 1q13 0 25 -0.5t20 -2.5q12 -3 12 -19q0 -5 -2.5 -21.5t-6 -35.5t-6 -36.5t-2.5 -25.5q0 -15 14 -15q19 1 38 1h39q38 0 76.5 -0.5t76.5 -0.5
q13 0 17.5 5t4.5 15q0 9 -2 25.5t-5 34t-5 33t-2 22.5q0 15 13 18q10 2 20.5 2.5t20.5 0.5h22t23 -2q10 -2 15 -7t9 -19t9 -42.5t9 -70.5q2 -10 6 -15t15 -6q8 -1 17 -1h17q11 -1 15 -5t6 -13q1 -6 1 -12.5v-13.5v-14t-2 -14q-1 -9 -5 -13t-15 -4q-3 0 -12 1t-15 1
q-8 0 -13 -3t-5 -16q2 -35 3 -78t1 -92q0 -51 -2 -98.5t-5 -87t-6.5 -68.5t-6.5 -43q-4 -17 -9.5 -23t-16.5 -7t-22 -1.5t-22 -0.5h-22t-23 2q-18 3 -18 19q0 11 3.5 38.5t8 62t8 70t3.5 60.5q0 38 -31.5 58t-97.5 20q-48 0 -79.5 -6t-51 -17.5t-27.5 -28.5t-8 -39
q0 -33 4 -67.5t8.5 -65t8.5 -53.5t4 -32q0 -16 -15 -19q-12 -1 -23 -1h-23t-24.5 1t-24.5 3q-9 2 -13.5 7t-8.5 20q-3 14 -6.5 43t-6.5 68.5t-5 87t-2 98.5q0 50 3 99t3 78q0 19 -17 19h-27q-11 0 -14.5 4t-5.5 15q-1 5 -1 10.5v10.5t0.5 11t1.5 12zM191 427q0 -18 21 -18
q19 -1 52 3t87 4q20 0 39.5 -1.5t36.5 -3.5t30 -3t19 -1q11 1 14.5 6.5t3.5 18.5q1 16 0.5 31.5t-1.5 32.5q0 13 -5.5 20t-20.5 8q-72 3 -174 3h-38t-40 -1q-11 0 -15.5 -6.5t-5.5 -17.5q-3 -37 -3 -75z" />
    <glyph glyph-name="hbar" unicode="&#x127;" horiz-adv-x="537" 
d="M11 698q0 27 5.5 35.5t22.5 8.5h31q13 0 16 12q2 8 4 16.5t4 16.5q3 17 9.5 23.5t17.5 8.5t22 2h22h18t20 -1q15 -1 15 -19q0 -8 -3.5 -23.5t-3.5 -24.5t10 -10q31 0 59 0.5t35 0.5q16 0 21 -8.5t5 -31.5q0 -28 -6.5 -37.5t-20.5 -9.5q-5 0 -18 0.5t-29 0.5t-33 0.5
t-30 0.5q-9 0 -13.5 -10t-6.5 -23.5t-2.5 -27t-0.5 -19.5q0 -25 16 -25q9 0 22 6t30.5 13.5t40 13.5t51.5 6q36 0 64.5 -11.5t48 -38.5t29.5 -71t10 -109q0 -50 -2.5 -101.5t-6 -97t-7 -80.5t-6.5 -53q-2 -16 -10 -22.5t-20 -8.5q-5 -1 -13.5 -1h-17.5h-22t-19 1
q-25 2 -25 20q0 8 4.5 39t10.5 73.5t10.5 92t4.5 94.5q0 50 -4.5 82.5t-14 51.5t-25 26.5t-37.5 7.5q-24 0 -45.5 -9t-38 -29t-26.5 -53t-10 -80q0 -45 2 -92.5t4.5 -88t4.5 -70t2 -40.5q0 -13 -6 -18t-17 -6q-8 -1 -17 -1.5t-18 -0.5q-11 0 -21.5 0.5t-19.5 1.5t-15.5 6.5
t-8.5 24.5q-4 51 -6.5 117.5t-2.5 140.5q0 174 8.5 260t8.5 98q0 11 -13 11h-22q-17 1 -21 11t-4 28z" />
    <glyph glyph-name="Itilde" unicode="&#x128;" horiz-adv-x="271" 
d="M64 327q0 171 12 275t20 136q2 14 8 19t16 7q10 1 21 1.5t23 0.5q13 0 25.5 -0.5t24.5 -1.5q7 -2 9.5 -5t2.5 -11q0 -10 -6 -38.5t-12.5 -75.5t-12.5 -112t-6 -148q0 -73 4.5 -135t9.5 -108.5t9.5 -75.5t4.5 -37q0 -9 -3.5 -12.5t-11.5 -4.5q-12 -2 -24 -2h-26h-25t-24 2
q-8 2 -12.5 5.5t-7.5 13.5q-4 15 -8 46.5t-6 73.5t-3.5 90.5t-1.5 96.5zM82 967q21 0 43.5 -6.5t45 -14t43 -14t36.5 -6.5q22 0 37 10.5t28 27.5q5 6 9 6q13 0 13 -26q0 -23 -6 -45t-18 -39.5t-29.5 -28.5t-40.5 -11q-22 0 -45.5 9t-46.5 19.5t-46 19.5t-45 9q-17 0 -28 -7
t-27 -23q-7 -7 -12 -7q-9 0 -9 13q0 21 6.5 41t19 36.5t30.5 26.5t42 10z" />
    <glyph glyph-name="itilde" unicode="&#x129;" horiz-adv-x="242" 
d="M74 589q2 14 8 18t16 5q9 1 17 1h17h16t17 -1q19 -2 19 -18q0 -14 -5 -88.5t-5 -202.5q0 -116 9 -191t9 -95q0 -9 -5 -12.5t-12 -4.5q-11 -2 -22.5 -2h-22.5q-12 0 -23 0.5t-21 1.5q-8 1 -14.5 4.5t-8.5 17.5q-5 51 -7.5 110.5t-2.5 122.5q0 88 5 175t16 159zM100 821
q14 0 28.5 -4t28.5 -8.5t27.5 -8.5t24.5 -4q17 0 29.5 7t22.5 20q5 6 8 6q5 0 8.5 -6t3.5 -18q0 -21 -5 -42t-15 -37t-25 -26t-34 -10q-14 0 -29.5 6.5t-31 14t-31 14t-29.5 6.5q-17 0 -28.5 -7t-24.5 -24q-4 -6 -10 -6q-10 0 -10 13q0 20 6 40.5t17.5 37t29 26.5t39.5 10z
" />
    <glyph glyph-name="Imacron" unicode="&#x12a;" horiz-adv-x="271" 
d="M96 738q2 14 8 19t16 7q10 1 21 1.5t23 0.5q13 0 25.5 -0.5t24.5 -1.5q7 -2 9.5 -5t2.5 -11q0 -10 -6 -38.5t-12.5 -75.5t-12.5 -112t-6 -148q0 -73 4.5 -135t9.5 -108.5t9.5 -75.5t4.5 -37q0 -9 -3.5 -12.5t-11.5 -4.5q-12 -2 -24 -2h-26h-25t-24 2q-8 2 -12.5 5.5
t-7.5 13.5q-4 15 -8 46.5t-6 73.5t-3.5 90.5t-1.5 96.5q0 171 12 275t20 136zM0 900v12t1 12q2 12 8 16t18 5q19 2 43.5 2h51.5q45 0 90.5 -0.5t74.5 -2.5q24 -2 29 -13t5 -31v-12.5t-2 -14.5q-2 -13 -8.5 -17.5t-23.5 -6.5q-20 -2 -44.5 -2.5t-50.5 -0.5q-43 0 -86 1.5
t-73 3.5q-17 2 -23.5 7t-8.5 16q-1 5 -1 12v14z" />
    <glyph glyph-name="imacron" unicode="&#x12b;" horiz-adv-x="242" 
d="M53 255q0 88 5 175t16 159q2 14 8 18t16 5q9 1 17 1h17h16t17 -1q19 -2 19 -18q0 -14 -5 -88.5t-5 -202.5q0 -116 9 -191t9 -95q0 -9 -5 -12.5t-12 -4.5q-11 -2 -22.5 -2h-22.5q-12 0 -23 0.5t-21 1.5q-8 1 -14.5 4.5t-8.5 17.5q-5 51 -7.5 110.5t-2.5 122.5zM21 786
q2 12 8 16t18 5q17 1 39.5 1.5t47.5 0.5q20 0 40 -0.5t33 -2.5q25 -3 29.5 -14t4.5 -31q0 -7 0.5 -13t-1.5 -13q-3 -13 -9 -17.5t-23 -6.5q-28 -3 -67 -3q-24 0 -47.5 1.5t-40.5 3.5t-23 7t-8 16q-2 5 -2 12v14v12t1 12z" />
    <glyph glyph-name="Ibreve" unicode="&#x12c;" horiz-adv-x="271" 
d="M96 738q2 14 8 19t16 7q10 1 21 1.5t23 0.5q13 0 25.5 -0.5t24.5 -1.5q7 -2 9.5 -5t2.5 -11q0 -10 -6 -38.5t-12.5 -75.5t-12.5 -112t-6 -148q0 -73 4.5 -135t9.5 -108.5t9.5 -75.5t4.5 -37q0 -9 -3.5 -12.5t-11.5 -4.5q-12 -2 -24 -2h-26h-25t-24 2q-8 2 -12.5 5.5
t-7.5 13.5q-4 15 -8 46.5t-6 73.5t-3.5 90.5t-1.5 96.5q0 171 12 275t20 136zM4 952q0 20 8 26t31 6q26 0 35 -4.5t11 -21.5q2 -28 19 -42.5t53 -14.5q38 0 55 14.5t22 44.5q2 16 10 20t30 4q23 0 31 -5.5t8 -24.5q0 -29 -8 -54t-26.5 -43t-48.5 -28.5t-74 -10.5
q-43 0 -72.5 10t-48 28t-27 42.5t-8.5 53.5z" />
    <glyph glyph-name="ibreve" unicode="&#x12d;" horiz-adv-x="242" 
d="M53 255q0 88 5 175t16 159q2 14 8 18t16 5q9 1 17 1h17h16t17 -1q19 -2 19 -18q0 -14 -5 -88.5t-5 -202.5q0 -116 9 -191t9 -95q0 -9 -5 -12.5t-12 -4.5q-11 -2 -22.5 -2h-22.5q-12 0 -23 0.5t-21 1.5q-8 1 -14.5 4.5t-8.5 17.5q-5 51 -7.5 110.5t-2.5 122.5zM7 799
q0 19 8 24.5t31 5.5q25 0 34 -4t11 -21q2 -22 11.5 -34.5t31.5 -12.5q23 0 33 12.5t12 36.5q3 16 11 19t29 3q23 0 30.5 -5t7.5 -23q0 -26 -6.5 -48.5t-21 -39t-38.5 -25.5t-59 -9q-68 0 -96.5 34t-28.5 87z" />
    <glyph glyph-name="Iogonek" unicode="&#x12e;" horiz-adv-x="271" 
d="M51 -27q0 22 11 38t24.5 27.5t24.5 19t11 13.5t-20 9q-8 1 -12.5 3.5t-6.5 10.5q-4 14 -7.5 42t-6 65.5t-4 81t-1.5 86.5q0 154 12 248t20 123q2 12 8 17t16 6t21.5 1.5t23.5 0.5h24.5t24.5 -2q12 -1 12 -14q0 -9 -6 -35t-12.5 -68.5t-12.5 -101t-6 -133.5
q0 -64 4.5 -117.5t9.5 -93.5t9.5 -65t4.5 -32q0 -11 -10 -17q-25 -14 -47.5 -36t-22.5 -48q0 -15 9 -24.5t31 -9.5q19 0 27.5 5.5t18.5 5.5q14 0 14 -14q0 -10 -7 -20.5t-20 -19.5t-31.5 -14.5t-40.5 -5.5q-45 0 -66 19.5t-21 48.5z" />
    <glyph glyph-name="iogonek" unicode="&#x12f;" horiz-adv-x="242" 
d="M23 -26q0 23 10.5 39t23.5 26.5t23.5 17t10.5 12.5q0 8 -13 9q-8 1 -12.5 5t-6.5 16q-5 40 -7.5 86.5t-2.5 96.5q0 81 5 161t16 146q2 14 8 18t16 5q9 1 17 1h17h16t17 -1q19 -2 19 -18q0 -14 -5 -80t-5 -181q0 -48 3 -88t6 -70.5t6 -50t3 -25.5q0 -7 -3.5 -9.5
t-8.5 -5.5q-10 -6 -21.5 -14.5t-21.5 -19.5t-17 -23.5t-7 -25.5q0 -14 9 -23.5t31 -9.5q19 0 27.5 5.5t18.5 5.5q14 0 14 -14q0 -10 -7 -20.5t-20 -19.5t-31.5 -14.5t-40.5 -5.5q-45 0 -66 20t-21 49zM57 737q0 29 18 47t54 18q38 0 55 -18t17 -47q0 -28 -17 -45t-55 -17
q-36 0 -54 17t-18 45z" />
    <glyph glyph-name="Idotaccent" unicode="&#x130;" horiz-adv-x="271" 
d="M96 738q2 14 8 19t16 7q10 1 21 1.5t23 0.5q13 0 25.5 -0.5t24.5 -1.5q7 -2 9.5 -5t2.5 -11q0 -10 -6 -38.5t-12.5 -75.5t-12.5 -112t-6 -148q0 -73 4.5 -135t9.5 -108.5t9.5 -75.5t4.5 -37q0 -9 -3.5 -12.5t-11.5 -4.5q-12 -2 -24 -2h-26h-25t-24 2q-8 2 -12.5 5.5
t-7.5 13.5q-4 15 -8 46.5t-6 73.5t-3.5 90.5t-1.5 96.5q0 171 12 275t20 136zM165 974q35 0 53.5 -18.5t18.5 -52.5q0 -33 -18.5 -50t-53.5 -17q-33 0 -53 17t-20 50q0 34 20 52.5t53 18.5z" />
    <glyph glyph-name="dotlessi" unicode="&#x131;" horiz-adv-x="242" 
d="M74 589q2 14 8 18t16 5q9 1 17 1h17h16t17 -1q19 -2 19 -18q0 -14 -5 -88.5t-5 -202.5q0 -116 9 -191t9 -95q0 -9 -5 -12.5t-12 -4.5q-11 -2 -22.5 -2h-22.5q-12 0 -23 0.5t-21 1.5q-8 1 -14.5 4.5t-8.5 17.5q-5 51 -7.5 110.5t-2.5 122.5q0 88 5 175t16 159z" />
    <glyph glyph-name="IJ" unicode="&#x132;" 
d="M58 88q0 6 3.5 15.5t8.5 21.5t12 24.5t13 23.5q6 10 17 10q6 0 10.5 -4t11.5 -11q23 -23 58.5 -40.5t87.5 -17.5q42 0 70.5 17t46.5 47.5t26 73.5t8 94q0 83 -4.5 152.5t-10 122t-10 84.5t-4.5 39q0 14 5 19t14 6q8 1 19 1h24h25.5t21.5 -2q11 -2 17 -6t9 -16t5.5 -39
t5 -62.5t4.5 -76.5t3.5 -80t2 -73.5t0.5 -57.5q0 -105 -18 -176t-52 -113.5t-84 -60.5t-113 -18q-42 0 -77 8t-63 20t-49.5 27t-36.5 30q-7 7 -7 18zM71 477q0 49 2.5 92t5.5 77t6.5 58t5.5 34q3 14 9 19t16 7q9 1 20 1.5t23 0.5h24.5t24.5 -2t12 -16q0 -7 -3.5 -26
t-7.5 -48.5t-7.5 -69.5t-3.5 -89q0 -42 3.5 -81.5t7 -70.5t7 -51.5t3.5 -25.5q0 -16 -15 -17q-12 -1 -24 -1.5t-26 -0.5q-12 0 -24 0.5t-23 1.5q-9 2 -13.5 5.5t-6.5 13.5q-4 9 -7 29t-5 46.5t-3 56t-1 57.5z" />
    <glyph glyph-name="ij" unicode="&#x133;" horiz-adv-x="513" 
d="M235 31q0 16 3.5 39t5.5 33q3 14 14 14q11 1 19.5 -6t22.5 -5q12 0 20.5 7t13.5 23.5t7.5 43.5t2.5 67q0 50 -2 104.5t-4.5 102t-4.5 83t-2 45.5q0 11 2.5 18t13.5 9q8 2 20 2.5t25 0.5h17.5t16.5 -2q9 -1 14 -6t7 -17q8 -66 10 -139t2 -133q0 -94 -7 -157t-23.5 -100
t-43.5 -52.5t-67 -15.5q-26 0 -43.5 4.5t-28.5 11.5q-6 4 -8.5 9t-2.5 16zM70 589q2 14 8 18t16 5q9 1 17 1h17h16t17 -1q19 -2 19 -18q0 -14 -5 -88.5t-5 -202.5q0 -116 5 -191t5 -95q0 -9 -5.5 -12.5t-12.5 -4.5q-8 -1 -17.5 -1.5t-18.5 -0.5q-12 0 -23 0.5t-21 1.5
q-8 1 -14.5 4.5t-8.5 17.5q-5 51 -7.5 110.5t-2.5 122.5q0 88 5 175t16 159zM386 802q38 0 55 -18t17 -47q0 -28 -17 -45t-55 -17q-36 0 -54.5 17t-18.5 45q0 29 18.5 47t54.5 18zM129 802q38 0 55 -18t17 -47q0 -28 -17 -45t-55 -17q-36 0 -54.5 17t-18.5 45q0 29 18.5 47
t54.5 18z" />
    <glyph glyph-name="Jcircumflex" unicode="&#x134;" horiz-adv-x="354" 
d="M27 140q5 10 16 10q6 0 10.5 -4t10.5 -12q5 -7 14.5 -12t22.5 -5q20 0 33.5 16t22 44.5t12 68t3.5 87.5q0 85 -5 156.5t-11 124.5t-11 86t-5 40q0 14 5 19t14 6q8 1 19 1h24h25.5t22.5 -2q11 -2 17 -6t9 -16t5.5 -39t5 -62t4.5 -75.5t3.5 -79.5t2 -73.5t0.5 -57.5
q0 -106 -13 -177t-36.5 -114t-56.5 -61t-74 -18q-42 0 -68.5 13.5t-40.5 27.5q-7 7 -7 18q0 13 7.5 41.5t18.5 54.5zM44 834q0 13 18 38t42 51t47.5 48.5t34.5 31.5q12 9 23 9q14 0 38 -21.5t49 -49.5t46 -55.5t28 -39.5q2 -4 3 -7t1 -6q0 -6 -12 -14q-10 -5 -21.5 -9
t-22.5 -4q-10 0 -20 11q-23 26 -38.5 41.5t-25 23.5t-15.5 10.5t-10 2.5t-9.5 -3t-15.5 -11t-25.5 -23.5l-40.5 -40.5q-5 -5 -9.5 -8t-10.5 -3q-9 0 -21 4t-22 9q-11 7 -11 15z" />
    <glyph glyph-name="jcircumflex" unicode="&#x135;" horiz-adv-x="278" 
d="M1 31q0 16 3.5 39t5.5 33q3 14 14 14q11 1 19.5 -6t22.5 -5q12 0 20.5 7t13.5 23.5t7.5 43.5t2.5 67q0 50 -2 104.5t-4.5 102t-4.5 83t-2 45.5q0 11 2.5 18t13.5 9q8 2 20 2.5t25 0.5h17.5t16.5 -2q9 -1 14 -6t7 -17q8 -66 10 -139t2 -133q0 -94 -7 -157t-23.5 -100
t-43.5 -52.5t-67 -15.5q-26 0 -43.5 4.5t-28.5 11.5q-6 4 -8.5 9t-2.5 16zM129 846q6 6 11 7.5t10 1.5q8 0 20.5 -9.5t27.5 -24.5t30 -33t27 -35t19.5 -31t7.5 -20q0 -5 -2.5 -7.5t-7.5 -6.5q-9 -5 -19 -9t-19 -4q-6 0 -11 3t-16 14q-16 15 -26 24.5t-16 14t-9 6t-6 1.5
t-6.5 -1.5t-9.5 -6t-16 -13.5t-27 -25l-13.5 -12t-9.5 -4q-4 0 -12 2.5t-15.5 6t-13.5 8.5t-6 11q0 10 14 30.5t32 42.5t36 41.5t26 27.5z" />
    <glyph glyph-name="uni0136" unicode="&#x136;" horiz-adv-x="637" 
d="M91 728q2 21 8 27.5t20 8.5q8 1 19.5 1.5t24.5 0.5h22t22 -2q13 -2 18.5 -7t5.5 -19q0 -13 -6.5 -45.5l-15 -75t-15 -91t-6.5 -95.5q0 -14 9 -14q5 0 18 6q42 19 78.5 51.5t65 74.5t49 91.5t30.5 102.5q2 11 7 15t14 6q10 2 23 2h26h22t18 -2q19 -4 19 -20
q0 -29 -12.5 -70t-35.5 -85.5t-54 -87t-69 -74.5q-10 -9 -10 -17q0 -9 10 -15q37 -21 69.5 -56t57 -77.5t38.5 -90.5t14 -96q0 -30 -22 -31q-9 -2 -20 -2h-23q-22 0 -43 3q-15 2 -19.5 9t-6.5 22q-7 68 -24.5 117t-42 80.5t-54 46.5t-59.5 15q-12 0 -25 -4t-23.5 -13.5
t-17 -25t-6.5 -38.5q0 -18 4 -44.5t8.5 -53.5t8 -50t3.5 -35q0 -26 -25 -28q-8 -1 -20 -1h-26h-20t-17 1q-15 2 -23.5 9.5t-10.5 29.5q-5 45 -7 95t-2 101q0 65 2.5 129t6.5 123t9 110t11 88zM326 37q23 0 39 -20.5t16 -55.5q0 -37 -27 -60.5t-63 -23.5q-17 0 -17 15
q0 8 5.5 17.5t5.5 23.5q0 11 -4 20t-12 18q-11 13 -11 21q0 6 6 14t16 15t22 11.5t24 4.5z" />
    <glyph glyph-name="uni0137" unicode="&#x137;" horiz-adv-x="529" 
d="M84 792q2 16 9 20t14 5q9 1 18.5 1.5t19.5 0.5t20 -0.5t20 -1.5q7 -1 13 -5t6 -14q0 -5 -3 -26.5t-7 -54.5t-9.5 -73.5t-9.5 -83t-7 -84t-3 -75.5q0 -24 18 -24q37 0 68 17t53.5 46t36 67.5t16.5 80.5q1 13 7 17t17 6q6 1 15.5 1h19.5h26t17 -1q9 -2 15.5 -6t6.5 -19
q0 -37 -15.5 -72.5t-37 -66t-46 -53t-42.5 -33.5q-11 -6 -11 -15q0 -8 11 -14q30 -17 58 -38.5t49.5 -51.5t34 -70.5t12.5 -96.5q0 -17 -4 -23.5t-18 -8.5q-8 -1 -18.5 -1.5t-21.5 -0.5q-9 0 -17.5 0.5t-18.5 1.5q-16 2 -21.5 6.5t-6.5 23.5q-2 53 -14.5 94t-33 69t-48 43
t-59.5 15q-23 0 -33 -15t-10 -39q0 -31 4 -60t8.5 -52t8.5 -40t4 -26q0 -16 -20 -19q-9 -2 -19.5 -2h-21.5t-21.5 0.5t-20.5 1.5t-18 6.5t-10 22.5q-5 55 -7.5 117.5t-2.5 129.5q0 120 7.5 243t22.5 230zM270 43q23 0 39 -20.5t16 -55.5q0 -37 -27 -60.5t-63 -23.5
q-17 0 -17 15q0 8 5.5 17.5t5.5 23.5q0 11 -4 20t-12 18q-11 13 -11 21q0 6 6 14t16 15t22 11.5t24 4.5z" />
    <glyph glyph-name="Lacute" unicode="&#x139;" horiz-adv-x="430" 
d="M105 744q3 18 19 20q8 1 21 1.5t30 0.5q14 0 27.5 -0.5t21.5 -1.5q11 -1 15 -6t4 -12q0 -5 -4.5 -31.5t-11.5 -68.5t-15.5 -96t-15.5 -115.5t-11.5 -126.5t-4.5 -129q0 -46 10.5 -59.5t38.5 -13.5q35 0 71.5 9t68.5 23q9 4 13.5 5t7.5 1q10 0 14 -10q3 -7 6.5 -21t6 -30
t4.5 -30.5t2 -22.5q0 -28 -32 -30q-26 -2 -56 -2.5t-60 -0.5q-51 0 -97 0.5t-80 2.5q-17 1 -25.5 6t-9.5 23q-3 60 -3 132q0 69 2.5 144t8 150.5t14 149t20.5 139.5zM114 833q49 28 78.5 68.5t54.5 96.5q4 8 9 11t13 3q14 0 37 -3.5t42 -8.5q11 -3 15 -8t4 -13
q0 -18 -17.5 -47t-48 -57.5t-72.5 -49t-92 -20.5q-7 0 -20.5 2t-13.5 12q0 3 2.5 7t8.5 7z" />
    <glyph glyph-name="lacute" unicode="&#x13a;" horiz-adv-x="273" 
d="M71 302q0 122 5.5 246.5t22.5 233.5q2 15 8 19t16 5t18 1.5t17 0.5q10 0 18.5 -0.5t16.5 -1.5t14 -5t6 -15q0 -6 -3 -35.5t-6.5 -79t-6.5 -118t-3 -151.5q0 -79 3 -144.5t6.5 -115t6.5 -81t3 -42.5q0 -17 -19 -19q-8 -1 -17.5 -1h-20.5h-22t-21 1t-18 6.5t-10 22.5
q-8 61 -11 129.5t-3 143.5zM94 861q0 3 2.5 7t8.5 7q25 12 44.5 29t35 38t28.5 45.5t25 52.5q4 8 9 11t13 3q14 0 37 -3.5t42 -8.5q11 -3 15 -8t4 -13q0 -18 -17.5 -47t-48 -57.5t-72.5 -49t-92 -20.5q-7 0 -20.5 2t-13.5 12z" />
    <glyph glyph-name="uni013B" unicode="&#x13b;" horiz-adv-x="431" 
d="M60 234q0 60 3.5 125.5t9.5 131.5t14 130.5t18 122.5q3 18 19 20q8 1 21 1.5t30 0.5q13 0 27 -0.5t22 -1.5q11 -1 15 -6t4 -11q0 -8 -10 -54t-21.5 -115t-21.5 -153t-10 -168q0 -43 10 -56t38 -13q36 0 73.5 9t76.5 26q5 4 12 4q9 0 15.5 -15.5t10 -35t5.5 -38.5t2 -25
q0 -27 -32 -30q-26 -2 -55.5 -3t-59.5 -1q-51 0 -97.5 1t-80.5 3q-17 1 -25.5 6t-9.5 23q-3 56 -3 122zM176 -8q0 6 6 14t16 15t22 11.5t24 4.5q23 0 39 -20.5t16 -55.5q0 -37 -27 -60.5t-63 -23.5q-17 0 -17 15q0 8 5.5 17.5t5.5 23.5q0 11 -4 20t-12 18q-11 13 -11 21z
" />
    <glyph glyph-name="uni013C" unicode="&#x13c;" horiz-adv-x="273" 
d="M102 792q2 16 8 20t16 5q8 1 17 1.5t18 0.5q10 0 18.5 -0.5t16.5 -1.5t14 -5t6 -15q0 -6 -3.5 -33.5t-7 -73t-7 -106.5t-3.5 -134q0 -64 3 -120t6 -99.5t6 -72.5t3 -38q0 -10 -5.5 -13.5t-13.5 -5.5q-9 -2 -19 -2h-21h-22t-20 2q-11 1 -18.5 6.5t-9.5 22.5q-6 50 -9 106
t-3 116q0 112 7.5 226t22.5 214zM156 43q23 0 39 -20.5t16 -55.5q0 -37 -27 -60.5t-63 -23.5q-17 0 -17 15q0 8 5.5 17.5t5.5 23.5q0 11 -4 20t-12 18q-11 13 -11 21q0 6 6 14t16 15t22 11.5t24 4.5z" />
    <glyph glyph-name="Lcaron" unicode="&#x13d;" horiz-adv-x="435" 
d="M105 744q3 18 19 20q8 1 21 1.5t30 0.5q14 0 27.5 -0.5t21.5 -1.5q11 -1 15 -6t4 -12q0 -5 -4.5 -31.5t-11.5 -68.5t-15.5 -96t-15.5 -115.5t-11.5 -126.5t-4.5 -129q0 -46 10.5 -59.5t38.5 -13.5q35 0 71.5 9t68.5 23q9 4 13.5 5t7.5 1q10 0 14 -10q3 -7 6.5 -21t6 -30
t4.5 -30.5t2 -22.5q0 -28 -32 -30q-26 -2 -56 -2.5t-60 -0.5q-51 0 -97 0.5t-80 2.5q-17 1 -25.5 6t-9.5 23q-3 60 -3 132q0 69 2.5 144t8 150.5t14 149t20.5 139.5zM363 827q14 0 30 -27.5t16 -75.5q0 -46 -11 -78t-25.5 -52t-29 -29t-22.5 -9q-14 0 -14 15q0 11 9.5 30.5
t9.5 48.5q0 22 -8 43t-24 44q-6 9 -6 16q0 8 8.5 20.5t20 24.5t24.5 20.5t22 8.5z" />
    <glyph glyph-name="lcaron" unicode="&#x13e;" horiz-adv-x="330" 
d="M71 306q0 124 6 250t22 236q2 16 8 20t16 5t18 1.5t17 0.5q10 0 18.5 -0.5t16.5 -1.5t14 -5t6 -15q0 -6 -3 -36.5t-6.5 -80.5t-6.5 -119.5t-3 -153.5q0 -79 3 -145.5t6.5 -117t6.5 -82.5t3 -43q0 -17 -19 -19q-8 -1 -17.5 -1h-20.5h-22t-21 1t-18 6.5t-10 22.5
q-8 62 -11 132t-3 145zM247 753q0 8 8.5 20.5t20 24.5t24.5 20.5t22 8.5q14 0 30 -27.5t16 -75.5q0 -46 -11 -78t-25.5 -52t-29 -29t-22.5 -9q-14 0 -14 15q0 11 9.5 30.5t9.5 48.5q0 22 -8 43t-24 44q-6 9 -6 16z" />
    <glyph glyph-name="Ldot" unicode="&#x13f;" horiz-adv-x="432" 
d="M105 744q3 18 19 20q8 1 21 1.5t30 0.5q14 0 27.5 -0.5t21.5 -1.5q11 -1 15 -6t4 -12q0 -5 -4.5 -31.5t-11.5 -68.5t-15.5 -96t-15.5 -115.5t-11.5 -126.5t-4.5 -129q0 -46 10.5 -59.5t38.5 -13.5q35 0 71.5 9t68.5 23q9 4 13.5 5t7.5 1q10 0 14 -10q3 -7 6.5 -21t6 -30
t4.5 -30.5t2 -22.5q0 -28 -32 -30q-26 -2 -56 -2.5t-60 -0.5q-51 0 -97 0.5t-80 2.5q-17 1 -25.5 6t-9.5 23q-3 60 -3 132q0 69 2.5 144t8 150.5t14 149t20.5 139.5zM326 480q33 0 51 -20t18 -57q0 -36 -18 -54t-51 -18q-32 0 -51.5 18t-19.5 54q0 37 19.5 57t51.5 20z" />
    <glyph glyph-name="ldot" unicode="&#x140;" horiz-adv-x="361" 
d="M99 792q2 16 8 20t16 5t18 1.5t17 0.5q10 0 18.5 -0.5t16.5 -1.5t14 -5t6 -15q0 -6 -3 -36.5t-6.5 -80.5t-6.5 -119.5t-3 -153.5q0 -79 3 -145.5t6.5 -117t6.5 -82.5t3 -43q0 -17 -19 -19q-8 -1 -17.5 -1h-20.5h-22t-21 1t-18 6.5t-10 22.5q-8 62 -11 132t-3 145
q0 124 7 250t21 236zM301 448q32 0 49.5 -20t17.5 -55q0 -71 -67 -71q-32 0 -50 18t-18 53t18 55t50 20z" />
    <glyph glyph-name="Lslash" unicode="&#x141;" horiz-adv-x="448" 
d="M14 355q0 6 2.5 10t11.5 8q12 5 27 9q15 7 15 22q5 90 15.5 176t22.5 164q3 18 19 20q8 1 21.5 1.5t29.5 0.5q14 0 27.5 -0.5t21.5 -1.5q11 -1 15 -6t4 -12q0 -6 -5 -33.5t-12 -68.5t-14 -92t-12 -104q-3 -17 10 -17q6 0 22.5 4.5t35.5 10.5t35.5 10.5t22.5 4.5
q8 0 14 -10t10 -23t6.5 -25.5t2.5 -18.5q0 -7 -4.5 -11.5t-18.5 -7.5q-26 -6 -59.5 -15t-67.5 -17q-24 -6 -24 -28q-2 -32 -3.5 -65t-1.5 -65q0 -43 10 -56t38 -13q35 0 72 11t75 24q5 2 8.5 3t6.5 1q9 0 15.5 -16t10.5 -37t5.5 -40.5t1.5 -26.5q0 -23 -32 -25
q-26 -2 -55.5 -2.5t-59.5 -0.5q-51 0 -97.5 0.5t-80.5 2.5q-17 1 -25.5 6t-9.5 23q-3 60 -3 133q0 39 0.5 64.5t1.5 50.5q0 12 -8 12q-4 0 -12 -3.5t-12 -3.5q-10 0 -11 10q-3 19 -5 34t-3 29z" />
    <glyph glyph-name="lslash" unicode="&#x142;" horiz-adv-x="289" 
d="M6 366q0 6 2 10t11 7q11 4 23 7t24 9q8 4 10 9.5t2 13.5q0 39 2.5 86t6.5 96t9.5 97.5t11.5 90.5q2 16 8 20t16 5q8 1 16.5 1.5t18.5 0.5q9 0 18 -0.5t16 -1.5q8 -1 14 -5t6 -15q0 -6 -3.5 -39t-7.5 -81.5t-7.5 -106.5t-3.5 -115q0 -12 10 -12q3 0 9.5 2t14.5 4.5
t15.5 4.5t10.5 2q8 0 13 -10t8 -23.5t4 -26t1 -18.5q0 -8 -4 -12t-20 -8q-10 -2 -20 -5.5t-21 -5.5q-19 -4 -19 -22q0 -57 3.5 -108.5t7 -92t7 -68.5t3.5 -37q0 -17 -18 -19q-8 -1 -20 -1.5t-24 -0.5h-22.5t-20.5 2q-11 1 -18.5 6.5t-9.5 22.5q-5 58 -8.5 123t-3.5 136
q0 13 -10 13q-3 0 -8.5 -2t-11.5 -4t-11.5 -4t-8.5 -2q-8 0 -12 10t-6 23t-2.5 26t-0.5 18z" />
    <glyph glyph-name="Nacute" unicode="&#x143;" horiz-adv-x="685" 
d="M61 359q0 65 2 126t6 111.5t10 88t13 55.5q8 20 28 24q8 2 18 2h20t19.5 -0.5t17.5 -1.5q15 -1 26 -17q23 -31 57 -84t72.5 -123.5t77.5 -156t71 -181.5q3 -8 10 -8q11 0 11 15q0 113 -7 206t-16 162t-16 112t-7 57q0 17 17 19q8 1 19.5 1.5t23.5 0.5q11 0 22.5 -0.5
t19.5 -1.5q11 -1 17.5 -6t8.5 -17q6 -35 10.5 -79t7.5 -93.5t4 -103t1 -107.5q0 -93 -3 -180t-13 -150q-2 -15 -9 -21t-23 -8q-8 -1 -20 -1h-24h-18.5t-15.5 1q-14 2 -20 7t-11 20q-66 156 -132.5 293.5t-125.5 243.5q-7 13 -14 13q-11 0 -13 -19q-4 -106 0 -201t11 -168
t13 -118t6 -52q0 -17 -22 -19q-8 -1 -19 -1.5t-22 -0.5q-12 0 -23 0.5t-19 1.5q-23 2 -26 21q-11 77 -16 164.5t-5 173.5zM256 834q49 28 78.5 68.5t54.5 96.5q4 8 9 11t13 3q14 0 37 -3.5t42 -8.5q11 -3 15 -8t4 -13q0 -18 -17.5 -47t-48 -57.5t-72.5 -49t-92 -20.5
q-7 0 -20.5 2t-13.5 12q0 3 2.5 7t8.5 7z" />
    <glyph glyph-name="nacute" unicode="&#x144;" horiz-adv-x="529" 
d="M62 575q2 20 10.5 26.5t22.5 8.5q8 1 16.5 1h16.5h15t15 -1q20 -1 20 -22q0 -17 11 -17q8 0 21.5 7.5t32 17t41.5 17t51 7.5q37 0 65 -13.5t47 -44.5t28.5 -81t9.5 -122q0 -52 -2.5 -105t-6.5 -99t-7.5 -81t-5.5 -50q-2 -11 -8.5 -17t-15.5 -7q-7 -1 -15 -1h-17h-22
t-21 2q-19 3 -19 20q0 11 3 43t7 79.5t7 107t3 125.5t-14.5 102t-61.5 36q-44 0 -68.5 -18t-36.5 -47t-14.5 -64t-2.5 -70q0 -45 2 -92.5t5 -88t5 -70t2 -37.5q0 -14 -5 -19.5t-18 -7.5q-7 -1 -14.5 -1h-15.5h-19.5t-17.5 1q-11 1 -17.5 6t-8.5 22q-5 57 -9.5 126.5
t-4.5 152.5q0 61 2.5 128.5t8.5 139.5zM181 703q49 28 78.5 68.5t54.5 96.5q4 8 9 11t13 3q14 0 37 -3.5t42 -8.5q11 -3 15 -8t4 -13q0 -18 -17.5 -47t-48 -57.5t-72.5 -49t-92 -20.5q-7 0 -20.5 2t-13.5 12q0 3 2.5 7t8.5 7z" />
    <glyph glyph-name="uni0145" unicode="&#x145;" horiz-adv-x="685" 
d="M297 -108q0 8 5.5 17.5t5.5 23.5q0 11 -4 20t-12 18q-11 13 -11 21q0 6 6 14t16 15t22 11.5t24 4.5q23 0 39 -20.5t16 -55.5q0 -37 -27 -60.5t-63 -23.5q-17 0 -17 15zM149 89q-11 0 -22 0.5t-19 1.5q-23 2 -26 21q-8 60 -14 127t-6 133q0 63 2.5 121.5t6.5 107.5t9.5 85
t11.5 54q8 21 28 24q8 2 18 2h20t19.5 -0.5t17.5 -1.5q15 -1 26 -17q23 -27 56 -73t70.5 -107t77 -134t74.5 -154q4 -8 10 -8q11 0 11 15q0 96 -7 176t-16 139t-16 96.5t-7 49.5q0 16 17 18q8 1 19.5 1.5t23.5 0.5q11 0 22.5 -0.5t19.5 -1.5q11 -1 17.5 -6t8.5 -17
q6 -33 10.5 -75.5t7.5 -90.5t4 -100t1 -104q0 -71 -4 -137.5t-12 -114.5q-2 -15 -9.5 -21t-22.5 -8q-8 -1 -19 -1h-22h-20.5t-16.5 1q-14 2 -20 7t-11 19q-66 134 -131.5 252.5t-124.5 207.5q-7 13 -15 13q-12 0 -12 -18q-4 -91 0 -172t10 -143t12 -100.5t6 -45.5
q0 -11 -6.5 -15t-17.5 -5q-7 -1 -17.5 -1.5t-22.5 -0.5z" />
    <glyph glyph-name="uni0146" unicode="&#x146;" horiz-adv-x="529" 
d="M62 575q2 20 10.5 26.5t22.5 8.5q8 1 16.5 1h16.5h15t15 -1q20 -1 20 -22q0 -17 11 -17q8 0 21.5 7.5t32 17t41.5 17t51 7.5q37 0 65 -13.5t47 -44.5t28.5 -81t9.5 -122q0 -45 -2.5 -91.5t-6.5 -86.5t-7.5 -70t-5.5 -44q-2 -11 -8.5 -17t-15.5 -7q-7 -1 -15 -1h-17h-22
t-21 2q-19 3 -19 20q0 8 3 35.5t7 69t7 94.5t3 113q0 66 -14.5 102t-61.5 36q-43 0 -67.5 -18.5t-36.5 -47.5t-15 -64t-3 -69q0 -37 2.5 -77t5 -75t5 -60.5t2.5 -32.5q0 -14 -5.5 -19.5t-18.5 -7.5q-7 -1 -14.5 -1h-15.5h-19.5t-17.5 1q-11 1 -17.5 6t-8.5 22q-7 51 -10 113
t-3 136q0 59 2.5 122.5t7.5 132.5zM266 43q23 0 39 -20.5t16 -55.5q0 -37 -27 -60.5t-63 -23.5q-17 0 -17 15q0 8 5.5 17.5t5.5 23.5q0 11 -4 20t-12 18q-11 13 -11 21q0 6 6 14t16 15t22 11.5t24 4.5z" />
    <glyph glyph-name="Ncaron" unicode="&#x147;" horiz-adv-x="685" 
d="M150 -2q-12 0 -23 0.5t-19 1.5q-23 2 -26 21q-11 77 -16 164.5t-5 173.5q0 65 2.5 126t6.5 111t10 87.5t12 56.5q6 21 28 24q8 2 18 2h20t19.5 -0.5t17.5 -1.5q15 -1 26 -17q23 -31 55.5 -85t70 -124.5t77 -155.5t75.5 -180q3 -8 10 -8q11 0 11 15q0 113 -7 206t-16 162
t-16 112t-7 57q0 17 17 19q8 1 19.5 1.5t23.5 0.5q11 0 22.5 -0.5t19.5 -1.5q11 -1 17.5 -6t8.5 -17q6 -35 10.5 -79t7.5 -93.5t4 -103t1 -107.5q0 -94 -4 -180.5t-12 -149.5q-2 -15 -9 -21t-23 -8q-8 -1 -20 -1h-24h-18.5t-15.5 1q-14 2 -20 7t-11 20q-66 156 -132 294
t-126 243q-7 13 -14 13q-11 0 -13 -19q-4 -106 0 -201t11 -168t13 -118t6 -52q0 -17 -22 -19q-8 -1 -19 -1.5t-22 -0.5zM344 800q-5 0 -10.5 1.5t-12.5 7.5q-18 14 -38 33.5t-39 41.5t-35 43.5t-27 38.5q-4 8 -4 12q0 6 7 11t16.5 8.5t19 6t13.5 2.5q6 0 10.5 -2t9.5 -10
q22 -26 37 -41t25.5 -23t17 -10.5t10.5 -2.5t10 2.5t16.5 10.5t26 23.5t38.5 41.5q5 6 9 8.5t10 2.5q5 0 14 -2t18 -6t15.5 -9.5t6.5 -11.5q0 -4 -3 -10q-4 -8 -15 -23.5t-26 -34.5t-32 -38t-33.5 -35t-31 -26t-23.5 -10z" />
    <glyph glyph-name="ncaron" unicode="&#x148;" horiz-adv-x="529" 
d="M62 575q2 20 10.5 26.5t22.5 8.5q8 1 16.5 1h16.5h15t15 -1q20 -1 20 -22q0 -17 11 -17q8 0 21.5 7.5t32 17t41.5 17t51 7.5q37 0 65 -13.5t47 -44.5t28.5 -81t9.5 -122q0 -52 -2.5 -105t-6.5 -99t-7.5 -81t-5.5 -50q-2 -11 -8.5 -17t-15.5 -7q-7 -1 -15 -1h-17h-22
t-21 2q-19 3 -19 20q0 11 3 43t7 79.5t7 107t3 125.5t-14.5 102t-61.5 36q-44 0 -68.5 -18t-36.5 -47t-14.5 -64t-2.5 -70q0 -45 2 -92.5t5 -88t5 -70t2 -37.5q0 -14 -5 -19.5t-18 -7.5q-7 -1 -14.5 -1h-15.5h-19.5t-17.5 1q-11 1 -17.5 6t-8.5 22q-5 57 -9.5 126.5
t-4.5 152.5q0 61 2.5 128.5t8.5 139.5zM103 847q0 6 7 11t16.5 8.5t19 6t13.5 2.5q6 0 10.5 -2t9.5 -10q22 -26 37 -41t25.5 -23t17 -10.5t10.5 -2.5t10 2.5t16.5 10.5t26 23.5t38.5 41.5q5 6 9 8.5t10 2.5q5 0 14 -2t18 -6t15.5 -9.5t6.5 -11.5q0 -12 -18.5 -36.5
t-42.5 -50.5t-47.5 -49t-33.5 -32q-7 -6 -12 -7.5t-10 -1.5t-10.5 1.5t-12.5 7.5q-18 14 -38.5 33t-40 41t-35.5 43.5t-25 39.5q-4 8 -4 12z" />
    <glyph glyph-name="napostrophe" unicode="&#x149;" horiz-adv-x="574" 
d="M95 307q0 61 3 128.5t8 139.5q2 20 10.5 26.5t22.5 8.5q8 1 16.5 1h16.5h15t15 -1q20 -1 20 -22q0 -17 11 -17q8 0 21.5 7.5t32 17t41.5 17t51 7.5q37 0 65 -13.5t47 -44.5t28.5 -81t9.5 -122q0 -52 -2.5 -105t-6.5 -99t-7.5 -81t-5.5 -50q-2 -11 -8.5 -17t-15.5 -7
q-7 -1 -15 -1h-17h-22t-21 2q-19 3 -19 20q0 11 3 43t7 79.5t7 107t3 125.5t-14.5 102t-61.5 36q-44 0 -68.5 -18t-36.5 -47t-14.5 -64t-2.5 -70q0 -45 2 -92.5t5 -88t5 -70t2 -37.5q0 -14 -5 -19.5t-18 -7.5q-7 -1 -14.5 -1h-15.5h-19.5t-17.5 1q-11 1 -17.5 6t-8.5 22
q-5 57 -9.5 126.5t-4.5 152.5zM0 764q0 11 8 20q4 5 13.5 13t20.5 16t22 14t17 6q14 0 28.5 -25t14.5 -76q0 -37 -11 -66t-26 -48t-31 -29t-25 -10q-11 0 -11 13t5.5 27t5.5 43q0 24 -5 40t-10.5 27.5t-10.5 19.5t-5 15z" />
    <glyph glyph-name="Eng" unicode="&#x14a;" horiz-adv-x="683" 
d="M92 740q8 20 28 24q8 2 18 2h20t19.5 -0.5t17.5 -1.5q15 -1 26 -17q23 -23 56 -61.5t70.5 -90t77 -114t74.5 -133.5q3 -8 10 -8q11 0 11 15q0 81 -7 148.5t-16 117.5t-16 82.5t-7 42.5q0 17 17 19q8 1 19.5 1.5t23.5 0.5t23 -0.5t19 -1.5q11 -1 17.5 -6t8.5 -17
q7 -35 11.5 -80t7.5 -94t4 -100.5t1 -100.5q0 -105 -13 -178t-36.5 -118.5t-56 -65.5t-71.5 -20q-12 0 -31.5 4t-39 11.5t-33.5 19.5t-14 28q0 5 2 15t5 22t6.5 24.5t7.5 22.5q6 10 15 10q5 0 9 -4t10 -12q9 -12 20.5 -19.5t26.5 -7.5q23 0 41 19.5t18 50.5q0 18 -14.5 47.5
t-38.5 65.5t-54 76.5t-62 79t-62 73.5t-53 61q-7 11 -14 11q-11 0 -13 -18q-1 -29 -1.5 -56t-0.5 -53q0 -87 5 -163.5t11 -135t11 -95.5t5 -43q0 -10 -6.5 -13.5t-17.5 -5.5q-7 -1 -18 -1.5t-22 -0.5t-21 0.5t-18 1.5q-23 2 -26 21q-11 77 -16 164.5t-5 173.5q0 65 2.5 126
t6.5 111t10 87.5t12 56.5z" />
    <glyph glyph-name="eng" unicode="&#x14b;" horiz-adv-x="529" 
d="M62 575q2 20 10.5 26.5t22.5 8.5q8 1 16.5 1h16.5h15t15 -1q21 -1 20 -22q0 -17 11 -17q8 0 21 7.5t31 17t40 17t49 7.5q41 0 70 -16t48 -52t27.5 -94.5t8.5 -144.5q0 -103 -10.5 -167t-28.5 -99.5t-42 -48t-52 -12.5q-31 0 -52 10t-33 24.5t-17 30.5t-5 28q0 14 13 14
q6 0 12 -3.5t12.5 -7t15 -7t20.5 -3.5q15 0 25 9.5t15.5 34.5t7.5 67t2 106q0 63 -4 106.5t-13.5 69.5t-25 37.5t-39.5 11.5q-47 0 -79 -32q-9 -9 -16 -19.5t-12 -27.5t-8 -42t-3 -63q0 -27 2 -55.5t4.5 -53t4.5 -42t2 -22.5q0 -14 -5 -19.5t-18 -7.5q-8 -1 -15.5 -1.5
t-15.5 -0.5q-10 0 -19.5 0.5t-17.5 1.5q-11 1 -18 5.5t-9 21.5q-3 35 -6.5 79.5t-3.5 96.5q0 56 2.5 116t7.5 126z" />
    <glyph glyph-name="Omacron" unicode="&#x14c;" 
d="M308 780q68 0 119.5 -41t86 -109t52 -155.5t17.5 -180.5q0 -66 -13.5 -122.5t-45 -98t-84 -65t-130.5 -23.5q-79 0 -132 23.5t-85.5 65t-46 98t-13.5 122.5q0 93 17.5 180.5t52.5 155.5t86.5 109t118.5 41zM309 105q74 0 113 48.5t39 159.5q0 70 -11 133.5t-31.5 112
t-48.5 77.5t-62 29q-35 0 -63.5 -29.5t-48 -78.5t-30 -112t-10.5 -129q0 -114 40 -162.5t113 -48.5zM146 911v12t1 12q2 12 8 16t18 5q19 2 43.5 2h51.5q45 0 90.5 -0.5t74.5 -2.5q24 -2 29 -13t5 -31v-12.5t-2 -14.5q-2 -13 -8.5 -17.5t-23.5 -6.5q-20 -2 -44.5 -2.5
t-50.5 -0.5q-43 0 -86 1.5t-73 3.5q-17 2 -23.5 7t-8.5 16q-1 5 -1 12v14z" />
    <glyph glyph-name="omacron" unicode="&#x14d;" horiz-adv-x="511" 
d="M29 294q0 74 14.5 134t44 103.5t73 67t100.5 23.5q59 0 100.5 -23t68.5 -65.5t39.5 -103t12.5 -136.5q0 -81 -17 -139t-47.5 -94.5t-73.5 -54t-95 -17.5q-51 0 -92 17.5t-69.5 54t-43.5 94.5t-15 139zM145 302q0 -101 25 -152.5t85 -51.5q61 0 86.5 51.5t25.5 152.5
q0 108 -29.5 164t-80.5 56q-55 0 -83.5 -56.5t-28.5 -163.5zM99 794q2 12 8 16t18 5q19 2 43.5 2h51.5q45 0 90.5 -0.5t74.5 -2.5q24 -2 29 -13t5 -31v-12.5t-2 -14.5q-2 -13 -8.5 -17.5t-23.5 -6.5q-20 -2 -44.5 -2.5t-50.5 -0.5q-43 0 -86 1.5t-73 3.5q-17 2 -23.5 7
t-8.5 16q-1 5 -1 12v14v12t1 12z" />
    <glyph glyph-name="Obreve" unicode="&#x14e;" 
d="M308 780q68 0 119.5 -41t86 -109t52 -155.5t17.5 -180.5q0 -66 -13.5 -122.5t-45 -98t-84 -65t-130.5 -23.5q-79 0 -132 23.5t-85.5 65t-46 98t-13.5 122.5q0 93 17.5 180.5t52.5 155.5t86.5 109t118.5 41zM156 316q0 -114 40 -162.5t113 -48.5q74 0 113 48.5t39 159.5
q0 70 -11 133.5t-31.5 112t-48.5 77.5t-62 29q-35 0 -63.5 -29.5t-48 -78.5t-30 -112t-10.5 -129zM150 963q0 20 8 26t31 6q26 0 35 -4.5t11 -21.5q2 -28 19 -42.5t53 -14.5q38 0 55 14.5t22 44.5q2 16 10 20t30 4q23 0 31 -5.5t8 -24.5q0 -29 -8 -54t-26.5 -43t-48.5 -28.5
t-74 -10.5q-43 0 -72.5 10t-48 28t-27 42.5t-8.5 53.5z" />
    <glyph glyph-name="obreve" unicode="&#x14f;" horiz-adv-x="511" 
d="M29 294q0 74 14.5 134t44 103.5t73 67t100.5 23.5q59 0 100.5 -23t68.5 -65.5t39.5 -103t12.5 -136.5q0 -81 -17 -139t-47.5 -94.5t-73.5 -54t-95 -17.5q-51 0 -92 17.5t-69.5 54t-43.5 94.5t-15 139zM255 98q61 0 86.5 51.5t25.5 152.5q0 108 -29.5 164t-80.5 56
q-55 0 -83.5 -56.5t-28.5 -163.5q0 -101 25 -152.5t85 -51.5zM141 854q26 0 35 -4.5t11 -21.5q2 -28 19 -42.5t53 -14.5q38 0 55 14.5t22 44.5q2 16 10 20t30 4q23 0 31 -5.5t8 -24.5q0 -29 -8 -54t-26.5 -43t-48.5 -28.5t-74 -10.5q-43 0 -72.5 10t-48 28t-27 42.5
t-8.5 53.5q0 20 8 26t31 6z" />
    <glyph glyph-name="Ohungarumlaut" unicode="&#x150;" 
d="M308 780q68 0 119.5 -41t86 -109t52 -155.5t17.5 -180.5q0 -66 -13.5 -122.5t-45 -98t-84 -65t-130.5 -23.5q-79 0 -132 23.5t-85.5 65t-46 98t-13.5 122.5q0 93 17.5 180.5t52.5 155.5t86.5 109t118.5 41zM309 105q74 0 113 48.5t39 159.5q0 70 -11 133.5t-31.5 112
t-48.5 77.5t-62 29q-35 0 -63.5 -29.5t-48 -78.5t-30 -112t-10.5 -129q0 -114 40 -162.5t113 -48.5zM345 828q0 11 6 30t16 42.5t21.5 49t23.5 48.5q8 15 20 21t29 6q59 0 59 -21q0 -8 -4 -18.5t-13.5 -26.5t-26 -38.5t-40.5 -53.5q-19 -24 -37.5 -40t-35.5 -16
q-9 0 -13.5 3t-4.5 14zM200 827q0 9 4.5 30t11.5 45.5t16 50t17 43.5q8 17 20.5 22t28.5 5q29 0 41.5 -4.5t12.5 -15.5q0 -6 -3.5 -16.5t-11.5 -26t-21 -38.5t-33 -55q-22 -33 -35 -44.5t-30 -11.5q-8 0 -13 2.5t-5 13.5z" />
    <glyph glyph-name="ohungarumlaut" unicode="&#x151;" horiz-adv-x="511" 
d="M29 294q0 74 14.5 134t44 103.5t73 67t100.5 23.5q59 0 100.5 -23t68.5 -65.5t39.5 -103t12.5 -136.5q0 -81 -17 -139t-47.5 -94.5t-73.5 -54t-95 -17.5q-51 0 -92 17.5t-69.5 54t-43.5 94.5t-15 139zM255 98q61 0 86.5 51.5t25.5 152.5q0 108 -29.5 164t-80.5 56
q-55 0 -83.5 -56.5t-28.5 -163.5q0 -101 25 -152.5t85 -51.5zM371 857q8 15 20 21t29 6q59 0 59 -21q0 -8 -4 -18.5t-13.5 -26.5t-26 -38.5t-40.5 -53.5q-19 -24 -37.5 -40t-35.5 -16q-9 0 -13.5 3t-4.5 14t6 30t16 42.5t21.5 49t23.5 48.5zM159 686q0 9 4.5 30t11.5 45.5
t16 50t17 43.5q8 17 20.5 22t28.5 5q29 0 41.5 -4.5t12.5 -15.5q0 -6 -3.5 -16.5t-11.5 -26t-21 -38.5t-33 -55q-22 -33 -35 -44.5t-30 -11.5q-8 0 -13 2.5t-5 13.5z" />
    <glyph glyph-name="OE" unicode="&#x152;" horiz-adv-x="890" 
d="M33 296q0 105 25.5 192t81 150t142.5 98t210 35q29 0 73 -1.5t92 -3.5t94 -4.5t80 -4.5q19 -1 19 -14q0 -6 -2.5 -17.5t-6.5 -25t-8.5 -27.5t-8.5 -23q-5 -11 -16 -11q-5 0 -10 1.5t-12 3.5q-26 6 -66.5 16.5t-105.5 10.5q-31 0 -46.5 -4t-23.5 -15q-8 -10 -14 -30
t-10 -45t-6 -53t-2 -54q0 -19 6 -26t21 -7q27 0 64.5 8.5t91.5 8.5q7 0 21 -0.5t28 -3.5t24.5 -8.5t10.5 -16.5q0 -12 -5 -36t-12 -41q-4 -9 -8 -11.5t-10 -2.5q-11 0 -43.5 9t-73.5 9q-69 0 -98 -24.5t-29 -89.5q0 -46 3 -73t11 -41t22.5 -18t37.5 -4q74 0 133.5 12.5
t96.5 24.5q12 4 19 4q10 0 16 -15.5t9.5 -35.5t4.5 -38.5t1 -25.5q0 -21 -27 -23q-48 -3 -96.5 -5t-94 -3.5t-86.5 -2t-75 -0.5q-123 0 -207.5 17t-136.5 53.5t-75 93.5t-23 138zM353 117q11 0 17.5 4.5t8.5 16.5q0 20 0.5 39t0.5 40q0 74 5.5 144t11.5 127t11 95.5t5 48.5
q0 24 -25 24q-51 0 -94 -26t-74 -72.5t-48 -110t-17 -138.5q0 -92 45 -142t153 -50z" />
    <glyph glyph-name="oe" unicode="&#x153;" horiz-adv-x="797" 
d="M29 294q0 74 14.5 134t42.5 103.5t70 67t97 23.5q51 0 86.5 -20.5t64.5 -71.5q5 -9 14 -9q7 0 14 8q31 49 75 70.5t94 21.5q33 0 62.5 -9.5t51.5 -28t35 -47t13 -67.5q0 -44 -13 -74t-35 -51.5t-49.5 -36t-56 -26t-56 -23t-48.5 -26.5q-27 -17 -27 -42q0 -38 24.5 -65.5
t76.5 -27.5q54 0 90 27.5t61 84.5q5 6 10 6q9 0 16 -14.5t7 -46.5q0 -38 -15 -68.5t-41 -52t-60 -33t-73 -11.5q-101 0 -155 80q-6 9 -12 9q-5 0 -13 -9q-32 -38 -69 -59t-84 -21q-49 0 -88.5 17.5t-67 54t-42 94.5t-14.5 139zM247 98q57 0 80.5 51.5t23.5 152.5
q0 108 -27 164t-75 56q-51 0 -77.5 -56.5t-26.5 -163.5q0 -101 23 -152.5t79 -51.5zM461 329q0 -8 3.5 -14.5t10.5 -6.5q6 0 13 3q21 14 50.5 28.5t55.5 32.5t44.5 39.5t18.5 49.5q0 29 -17 46t-47 17q-32 0 -57 -16t-41.5 -42.5t-25 -62t-8.5 -74.5z" />
    <glyph glyph-name="Racute" unicode="&#x154;" horiz-adv-x="629" 
d="M61 295q0 102 9 214t26 230q2 11 8 15t17 6q12 2 37 3.5t52.5 3t53 2.5t39.5 1q59 0 109 -10t86 -34t56.5 -63.5t20.5 -98.5q0 -77 -39.5 -136.5t-108.5 -100.5q-7 -4 -7 -12q0 -6 7 -10q42 -25 75 -62t55.5 -76.5t34.5 -77.5t12 -65q0 -21 -24 -24q-7 -1 -18 -1h-25
h-23.5t-20.5 1q-14 1 -19.5 5.5t-7.5 15.5q-8 58 -27 101.5t-44.5 73t-56 44t-62.5 14.5q-45 0 -65 -18t-20 -62q0 -16 3 -40.5t6.5 -48.5t6.5 -43t3 -24q0 -15 -19 -17h-87q-11 1 -19 5t-10 19q-6 57 -10 125t-4 145zM206 337q41 0 84 18t78 48.5t58 71t23 86.5
q0 63 -40 91t-106 28q-29 0 -51.5 -4t-31.5 -13t-16 -37.5t-12 -68t-7.5 -86t-2.5 -92.5q0 -26 5.5 -34t18.5 -8zM210 822q0 3 2.5 7t8.5 7q25 12 44.5 29t35 38t28.5 45.5t25 52.5q4 8 9 11t13 3q14 0 37 -3.5t42 -8.5q11 -3 15 -8t4 -13q0 -18 -17.5 -47t-48 -57.5
t-72.5 -49t-92 -20.5q-7 0 -20.5 2t-13.5 12z" />
    <glyph glyph-name="racute" unicode="&#x155;" horiz-adv-x="312" 
d="M51 304q0 65 1.5 112t4 80t5.5 54t6 33q6 23 19 26q7 2 19 3t25 1q8 0 14 -0.5t12 -1.5q8 -1 10.5 -6.5t2.5 -13.5q1 -17 11 -17q5 0 15 7q25 17 44 27t36 10q12 0 18.5 -10.5t6.5 -41.5q0 -36 -5 -58q-3 -13 -8 -16.5t-11 -3.5q-12 0 -30 2.5t-36 2.5q-9 0 -18 -5.5
t-16 -21t-11 -42.5t-4 -71q0 -61 6 -117.5t13 -100.5t13 -73t6 -37q0 -10 -4 -16t-15 -7q-8 -1 -19 -1.5t-22 -0.5t-22 -0.5t-22 1.5q-21 3 -25 27q-4 19 -8 48t-6.5 64.5t-4 77t-1.5 86.5zM79 689q0 3 2.5 7t8.5 7q25 12 44.5 29t35 38t28.5 45.5t25 52.5q4 8 9 11t13 3
q14 0 37 -3.5t42 -8.5q11 -3 15 -8t4 -13q0 -18 -17.5 -47t-48 -57.5t-72.5 -49t-92 -20.5q-7 0 -20.5 2t-13.5 12z" />
    <glyph glyph-name="uni0156" unicode="&#x156;" horiz-adv-x="630" 
d="M62 317q0 97 9 203.5t25 218.5q2 11 8 15t17 6q12 2 37 3.5t52.5 3t53 2.5t39.5 1q59 0 109 -10t86 -33.5t56.5 -62t20.5 -94.5q0 -77 -41 -132.5t-107 -95.5q-7 -4 -7 -12t7 -11q44 -18 77 -49.5t55 -67.5t33.5 -72t11.5 -63q0 -22 -24 -24q-8 0 -18.5 -0.5t-23.5 -0.5
h-23.5t-21.5 1q-14 1 -19.5 5.5t-7.5 15.5q-7 51 -25.5 89.5t-44.5 64t-57 38.5t-63 13q-45 0 -65 -17.5t-20 -59.5q0 -14 3 -34.5t6.5 -40t6.5 -35.5t3 -21q0 -15 -19 -17q-8 -1 -19.5 -1.5t-24.5 -0.5h-21.5t-21.5 2t-19 5.5t-10 18.5q-5 53 -9 115.5t-4 133.5zM182 384
q0 -23 5.5 -31t18.5 -8q41 0 84 17t78 46.5t58 69t23 83.5q0 63 -40 91t-106 28q-29 0 -52 -4t-32 -13t-15.5 -37t-11.5 -67t-7.5 -85t-2.5 -90zM254 -8q0 6 6 14t16 15t22 11.5t24 4.5q23 0 39 -20.5t16 -55.5q0 -37 -27 -60.5t-63 -23.5q-17 0 -17 15q0 8 5.5 17.5
t5.5 23.5q0 11 -4 20t-12 18q-11 13 -11 21z" />
    <glyph glyph-name="uni0157" unicode="&#x157;" horiz-adv-x="312" 
d="M68 583q6 23 19 26q7 2 19 3t25 1q8 0 14 -0.5t12 -1.5q8 -1 10.5 -6.5t2.5 -13.5q1 -17 11 -17q5 0 15 7q25 17 44 27t36 10q12 0 18.5 -10.5t6.5 -41.5q0 -36 -5 -58q-3 -13 -8 -16.5t-11 -3.5q-12 0 -30 2.5t-36 2.5q-9 0 -18 -5.5t-15.5 -20.5t-10.5 -41.5t-4 -69.5
q0 -45 5 -84.5t11.5 -70.5t11.5 -51.5t5 -26.5q0 -23 -20 -24q-8 -1 -18.5 -1.5t-22.5 -0.5q-11 0 -22 -0.5t-21 1.5q-22 3 -26 27q-7 28 -11 79.5t-4 113.5q0 60 1.5 104t4 76t5.5 52.5t6 32.5zM140 43q23 0 39 -20.5t16 -55.5q0 -37 -27 -60.5t-63 -23.5q-17 0 -17 15
q0 8 5.5 17.5t5.5 23.5q0 11 -4 20t-12 18q-11 13 -11 21q0 6 6 14t16 15t22 11.5t24 4.5z" />
    <glyph glyph-name="Rcaron" unicode="&#x158;" horiz-adv-x="629" 
d="M96 739q2 11 8 15t17 6q12 2 37 3.5t52.5 3t53 2.5t39.5 1q59 0 109 -10t86 -34t56.5 -63.5t20.5 -98.5q0 -77 -39.5 -136.5t-108.5 -100.5q-7 -4 -7 -12q0 -6 7 -10q42 -25 75 -62t55.5 -76.5t34.5 -77.5t12 -65q0 -21 -24 -24q-7 -1 -18 -1h-25h-23.5t-20.5 1
q-14 1 -19.5 5.5t-7.5 15.5q-8 58 -27 101.5t-44.5 73t-56 44t-62.5 14.5q-45 0 -65 -18t-20 -62q0 -16 3 -40.5t6.5 -48.5t6.5 -43t3 -24q0 -15 -19 -17h-87q-11 1 -19 5t-10 19q-6 57 -10 125t-4 145q0 102 8 214t27 230zM182 379q0 -26 5.5 -34t18.5 -8q41 0 84 18
t78 48.5t58 71t23 86.5q0 63 -40 91t-106 28q-29 0 -51.5 -4t-31.5 -13t-16 -37.5t-12 -68t-7.5 -86t-2.5 -92.5zM143 980q0 6 7 11t16.5 8.5t19 6t13.5 2.5q6 0 10.5 -2t9.5 -10q22 -26 37 -41t25.5 -23t17 -10.5t10.5 -2.5t10 2.5t16.5 10.5t26 23.5t38.5 41.5q5 6 9 8.5
t10 2.5q5 0 14 -2t18 -6t15.5 -9.5t6.5 -11.5q0 -12 -18.5 -36.5t-42.5 -50.5t-47.5 -49t-33.5 -32q-7 -6 -12 -7.5t-10 -1.5t-10.5 1.5t-12.5 7.5q-18 14 -38.5 33t-40 41t-35.5 43.5t-25 39.5q-4 8 -4 12z" />
    <glyph glyph-name="rcaron" unicode="&#x159;" horiz-adv-x="312" 
d="M51 304q0 65 1.5 112t4 80t5.5 54t6 33q6 23 19 26q7 2 19 3t25 1q8 0 14 -0.5t12 -1.5q8 -1 10.5 -6.5t2.5 -13.5q1 -17 11 -17q5 0 15 7q25 17 44 27t36 10q12 0 18.5 -10.5t6.5 -41.5q0 -36 -5 -58q-3 -13 -8 -16.5t-11 -3.5q-12 0 -30 2.5t-36 2.5q-9 0 -18 -5.5
t-16 -21t-11 -42.5t-4 -71q0 -61 6 -117.5t13 -100.5t13 -73t6 -37q0 -10 -4 -16t-15 -7q-8 -1 -19 -1.5t-22 -0.5t-22 -0.5t-22 1.5q-21 3 -25 27q-4 19 -8 48t-6.5 64.5t-4 77t-1.5 86.5zM12 847q0 6 7 11t16.5 8.5t19 6t13.5 2.5q6 0 10.5 -2t9.5 -10q22 -26 37 -41
t25.5 -23t17 -10.5t10.5 -2.5t10 2.5t16.5 10.5t26 23.5t38.5 41.5q5 6 9 8.5t10 2.5q5 0 14 -2t18 -6t15.5 -9.5t6.5 -11.5q0 -12 -18.5 -36.5t-42.5 -50.5t-47.5 -49t-33.5 -32q-7 -6 -12 -7.5t-10 -1.5t-10.5 1.5t-12.5 7.5q-18 14 -38.5 33t-40 41t-35.5 43.5t-25 39.5
q-4 8 -4 12z" />
    <glyph glyph-name="Sacute" unicode="&#x15a;" horiz-adv-x="567" 
d="M36 179q0 26 5.5 45.5t15.5 33.5q5 9 12 9q10 0 13 -11q10 -36 29.5 -64.5t45.5 -48.5t57.5 -30.5t65.5 -10.5q57 0 94 23t37 74q0 45 -34 74t-100 52q-49 17 -89.5 37.5t-70 48t-46 64.5t-16.5 88q0 44 15 83.5t44.5 69t74 46.5t104.5 17q61 0 113 -18t89 -43
q13 -9 13 -23q0 -7 -6.5 -23.5t-15.5 -34t-19.5 -30.5t-18.5 -13t-14 7q-27 35 -66 53.5t-77 18.5q-58 0 -86.5 -28t-28.5 -72q0 -24 7.5 -43t24 -34.5t42 -28.5t61.5 -27q51 -18 92 -39.5t70.5 -49t45 -63t15.5 -83.5q0 -44 -14.5 -83.5t-46 -69t-80.5 -46.5t-117 -17
q-56 0 -100.5 14.5t-75.5 40t-47.5 60.5t-16.5 75zM203 844q49 28 78.5 68.5t54.5 96.5q4 8 9 11t13 3q14 0 37 -3.5t42 -8.5q11 -3 15 -8t4 -13q0 -18 -17.5 -47t-48 -57.5t-72.5 -49t-92 -20.5q-7 0 -20.5 2t-13.5 12q0 3 2.5 7t8.5 7z" />
    <glyph glyph-name="sacute" unicode="&#x15b;" horiz-adv-x="436" 
d="M26 139q0 6 1.5 19.5t5 28t10 25t15.5 10.5t12 -11q7 -24 19 -45.5t30 -38t43 -26t56 -9.5q45 0 65 18t20 49q0 15 -4.5 27.5t-15.5 24.5t-30.5 24.5t-48.5 26.5q-38 18 -68 36t-51 39.5t-32 48.5t-11 64q0 38 13.5 69.5t39 54.5t62.5 35.5t84 12.5q12 0 39 -3t54 -10.5
t48 -20t21 -30.5q0 -6 -4.5 -22t-12 -32t-16 -28.5t-17.5 -12.5q-7 0 -14 7q-23 23 -50.5 37t-62.5 14q-37 0 -57 -17.5t-20 -43.5q0 -15 5 -27t17 -23t31.5 -22t48.5 -26q37 -18 67.5 -36t52.5 -40.5t34 -52t12 -69.5q0 -86 -52 -130.5t-146 -44.5q-47 0 -83 12t-60.5 32
t-37 47.5t-12.5 58.5zM136 703q49 28 78.5 68.5t54.5 96.5q4 8 9 11t13 3q14 0 37 -3.5t42 -8.5q11 -3 15 -8t4 -13q0 -18 -17.5 -47t-48 -57.5t-72.5 -49t-92 -20.5q-7 0 -20.5 2t-13.5 12q0 3 2.5 7t8.5 7z" />
    <glyph glyph-name="Scircumflex" unicode="&#x15c;" horiz-adv-x="567" 
d="M36 179q0 26 5.5 45.5t15.5 33.5q5 9 12 9q10 0 13 -11q10 -36 29.5 -64.5t45.5 -48.5t57.5 -30.5t65.5 -10.5q57 0 94 23t37 74q0 45 -34 74t-100 52q-49 17 -89.5 37.5t-70 48t-46 64.5t-16.5 88q0 44 15 83.5t44.5 69t74 46.5t104.5 17q61 0 113 -18t89 -43
q13 -9 13 -23q0 -7 -6.5 -23.5t-15.5 -34t-19.5 -30.5t-18.5 -13t-14 7q-27 35 -66 53.5t-77 18.5q-58 0 -86.5 -28t-28.5 -72q0 -24 7.5 -43t24 -34.5t42 -28.5t61.5 -27q51 -18 92 -39.5t70.5 -49t45 -63t15.5 -83.5q0 -44 -14.5 -83.5t-46 -69t-80.5 -46.5t-117 -17
q-56 0 -100.5 14.5t-75.5 40t-47.5 60.5t-16.5 75zM125 845q0 13 18 38t42 51t47.5 48.5t34.5 31.5q12 9 23 9q14 0 38 -21.5t49 -49.5t46 -55.5t28 -39.5q2 -4 3 -7t1 -6q0 -6 -12 -14q-10 -5 -21.5 -9t-22.5 -4q-10 0 -20 11q-23 26 -38.5 41.5t-25 23.5t-15.5 10.5
t-10 2.5t-9.5 -3t-15.5 -11t-25.5 -23.5l-40.5 -40.5q-5 -5 -9.5 -8t-10.5 -3q-9 0 -21 4t-22 9q-11 7 -11 15z" />
    <glyph glyph-name="scircumflex" unicode="&#x15d;" horiz-adv-x="436" 
d="M26 139q0 6 1.5 19.5t5 28t10 25t15.5 10.5t12 -11q7 -24 19 -45.5t30 -38t43 -26t56 -9.5q45 0 65 18t20 49q0 15 -4.5 27.5t-15.5 24.5t-30.5 24.5t-48.5 26.5q-38 18 -68 36t-51 39.5t-32 48.5t-11 64q0 38 13.5 69.5t39 54.5t62.5 35.5t84 12.5q12 0 39 -3t54 -10.5
t48 -20t21 -30.5q0 -6 -4.5 -22t-12 -32t-16 -28.5t-17.5 -12.5q-7 0 -14 7q-23 23 -50.5 37t-62.5 14q-37 0 -57 -17.5t-20 -43.5q0 -15 5 -27t17 -23t31.5 -22t48.5 -26q37 -18 67.5 -36t52.5 -40.5t34 -52t12 -69.5q0 -86 -52 -130.5t-146 -44.5q-47 0 -83 12t-60.5 32
t-37 47.5t-12.5 58.5zM58 704q0 13 18 38t42 51t47.5 48.5t34.5 31.5q12 9 23 9q14 0 38 -21.5t49 -49.5t46 -55.5t28 -39.5q2 -4 3 -7t1 -6q0 -6 -12 -14q-10 -5 -21.5 -9t-22.5 -4q-10 0 -20 11q-23 26 -38.5 41.5t-25 23.5t-15.5 10.5t-10 2.5t-9.5 -3t-15.5 -11
t-25.5 -23.5l-40.5 -40.5q-5 -5 -9.5 -8t-10.5 -3q-9 0 -21 4t-22 9q-11 7 -11 15z" />
    </font>
</defs>
</svg>
